<svg id="Слой_1" data-name="Слой 1" xmlns="http://www.w3.org/2000/svg" viewBox="0 0 2080.58 634.06"><defs><style>.cls-1{fill:#ee3326;stroke:#ee3326;stroke-miterlimit:10;stroke-width:2px;}</style></defs><title>sМонтажная область 1_1</title><path class="cls-1" d="M210.15,542.73H396.07c11.26,0,11.26,0,11.26,11.45,0,20.57-.27,41.15.19,61.71.17,7.42-2.1,9.49-9.53,9.47q-137.7-.37-275.4-.17c-33.94,0-67.89-.18-101.83.18-7.34.08-9.73-1.9-9.55-9.45.49-20.82.11-41.65.15-62.48,0-10.71.09-10.72,10.57-10.72Z"/><path class="cls-1" d="M632.19,309.45l.23-.65c5.06.35,8.3-2.4,8-7.05-.79-14.23,6.51-25.82,11.49-38.19,1.08-2.67,2.82-4,5.86-3.92,4.36.17,8.93-.76,13.06.24,5.7,1.38,13.59-.65,16.54,5.84a189.28,189.28,0,0,1,9.31,25.7C702,309.81,708.16,327.91,714,346.1c7.61,23.55,14.93,47.21,23.22,70.52,3.58,10.05,5.34,20.29,7.23,31.33-8.49,0-16.92,0-25.36,0-1.85,0-3.38-.36-4.23-2.5-3.69-9.27-7.79-18.51-9.17-28.37-1-6.83-3.84-9.34-10.35-9.3-19,.12-38,.15-57.07-.06-4,0-6.66,1.54-9.46,4-5.54,4.94-4.32,12.24-6.11,18.23-5.34,17.93-4.61,18.14-23.3,18a13.19,13.19,0,0,0-1.54,0c-4.91.62-6.45-1.37-6.86-6.43-.61-7.56,4.51-12.7,6.39-19.14,3.33-11.41,8.91-22.11,11.26-33.82,1.32-6.55,5.8-11.93,6.94-18.17,2.19-11.95,7.94-22.53,11.28-34C629.48,327.68,634.72,319.29,632.19,309.45Zm34.55,76.61h7.71c2.56,0,5.13,0,7.7,0,9.28,0,10.59-2,11.22-11.41.33-5-3.66-8.18-3.45-13.06.47-11.44-6.54-21.33-7.06-32.9-.5-11.34-9.53-20.94-8.37-33.09.46-4.84-2.37-7.92-7.24-8-5.24-.12-7.86,2.89-8,8.2,0,2.48.26,4.92-1.62,7.27a22.19,22.19,0,0,0-4.6,16.5c.31,3.28-.64,6.15-2.25,9.34-3.11,6.16-7.08,12.73-6.61,19.66.56,8.21-3.58,15.18-4,23.06-.21,3.44-3.6,6.27.44,9.93,3.21,2.91,6.11,5,10.72,4.62C656.44,385.76,661.6,386.08,666.74,386.06Z"/><path class="cls-1" d="M209.57,340.53c-23.15,0-46.31.36-69.44-.21-7.55-.19-11.24,2.45-13.5,9.22-6.94,20.85-14.44,41.51-21.16,62.43-4.83,15.06-5.34,15.64-19.65,9.68-18-7.48-35.91-15.19-54-22.38-6-2.37-6.84-5.2-4.68-11.11,19-51.82,37.58-103.78,56.44-155.64S121.46,129,140.39,77.16C146,61.75,149.93,45.47,159.73,32,174,12.44,194.08,4.13,217.61,7.45,241.3,10.78,258.68,24,267.22,47.1c21.93,59.43,44,118.83,65.62,178.36,17.39,47.75,34.29,95.68,51.44,143.51,2.6,7.25,5.43,14.41,8.1,21.63,1.34,3.64.7,6.41-3.32,8-20.89,8.45-41.8,16.85-62.56,25.59-5.75,2.42-8.43,2-10.57-4.65-7.54-23.4-15.87-46.54-23.75-69.83-2.19-6.47-5.2-9.82-13.17-9.57-23.12.73-46.29.26-69.44.26ZM151.17,65c1.71,6.75-3.56,8.4-4.66,12.18A288.39,288.39,0,0,1,135.27,108c-4,9.47-6.79,19.29-10.16,28.94-3.91,11.23-7.94,22.43-11.82,33.67-2.46,7.11-9.91,11.81-9.67,20.17.2,7-2.38,13.34-5.55,19.26-5.66,10.58-7.29,22.51-12.3,33.49-5.48,12-8,25.58-13.42,37.92-.9,2.05-2.6,3.55-2.83,6.13-.89,9.8-5,18.69-8.6,27.69-3.17,7.9-6.63,15.68-9.75,23.6-5.94,15.06-8.16,31.56-16.69,45.56-3.29,5.39-.3,7.13,3,9.85,11.84,9.86,28,10.06,40.75,18.16,3.42,2.17,9.16,1.59,13.64,3.57,1.84.82,4.8.73,5.53-2.47,1.88-8.38,9.22-15.32,6.5-24.94a3.54,3.54,0,0,1,1-2.75c10-10.17,10.29-24.16,14.1-36.67,2.86-9.4,8.71-16.29,16.37-16.3q73.29,0,146.56,0c7.91,0,13.1,5.09,16.12,12,6.5,14.91,7.24,32.1,18,45.32.67.83.37,2.49.41,3.77.06,2.31,0,4.63.05,6.94.68,14.23,4.06,15.76,17.92,12.84,5.78-1.21,8.6-6.84,14-6.71,5.76.14,10-3.06,14.84-5,6.07-2.38,11.12-7,18-7.7,4.39-.48,3.69-3.21,2-6.13-3.47-5.84.9-14.94-7.74-18.68-.11,0-.05-.48-.06-.74-.5-16.5-9.32-30.43-14.13-45.6-2.79-8.78-7.29-17.15-9.9-25.68-4.52-14.8-12.17-28.34-15.5-43.63C333,240.65,327,228,322.2,215.23c-3.11-8.32-2.79-18.84-8.16-24.67-7.6-8.25-2.53-21.13-12.58-27.34-.37-.23-.18-1.47-.17-2.24a15.18,15.18,0,0,0-2.4-8.58c-6.2-10.25-8-22.32-12.32-33.38C281.18,105.29,274.9,91.53,272,76.74c-1.88-9.73-9.65-17.86-8-28.66.37-2.5-1.53-4.2-2.58-6.23-3.6-6.94-9.87-11.31-15.91-15.46-4.48-3.09-8.76-6.61-14.11-8.8-10.93-4.48-21.93-5-33.14-2.74C192.5,16,187.08,18.4,181.63,21c-9.31,4.5-13.08,15-22.53,18.93-1.36.57-1.47,2-1,3.34.76,2.28-.85,4-1.21,5.63C155.49,55.17,152.48,60.8,151.17,65Z"/><path class="cls-1" d="M1168.79,283.68c0,7.2,0,14.4,0,21.6,0,4.92,2.43,7.15,7.38,6.05,7.37-1.63,14.85-.86,22.29-1.13,22.84-.84,38.91,9.39,46.21,30.83,10.84,31.85,10.29,63.8-5.08,94.21-9.25,18.31-29.67,26.42-49.72,21.79-4.5-1-9.1-1.75-13.51-3.1-5.68-1.75-7.63.55-7.59,5.92.06,8.48,0,17,0,25.46,0,15.36,0,15.36-15.66,15.34-4.89,0-9.78-.06-14.66,0-5,.06-7.48-2-7.35-7.41.26-10.53.17-21.08.09-31.63-.07-8.59-1.39-9.38-9.59-7.08-15.45,4.35-30.68,6.24-45.17-3.46-12.45-8.33-18-21.09-20.84-34.68a160.29,160.29,0,0,1-.35-65.87c2.07-10.09,5.94-19.65,12.89-27.6,6.81-7.78,15.78-11.5,25.74-12.33,9.72-.81,19.6-1.11,29.24.55,6.14,1.05,8.06-1.16,8-6.7,0-11.32,0-22.63,0-33.95,0-15.58,0-15.58,15.18-15.59,4.63,0,9.27.16,13.89,0,6.29-.29,8.81,2.59,8.56,8.78-.27,6.68-.06,13.37-.06,20.06Zm-3.36,4.82h0c0-6.69-.19-13.39.08-20.06.14-3.52-1.07-7-3.86-7.7-7.38-1.79-15-2.47-22.41.57-3.36,1.38-4.72,3.84-4.63,7.78.3,12.34.13,24.69.1,37,0,11.3-6.41,15.85-17,11.56s-21-4.17-30.68,1.09c-7.06,3.81-16,5.35-19.34,14.69-5.24,14.67-11.18,28.85-10.56,45.16.56,14.48.39,29.09,7,42.1,2.89,5.69.32,12.8,6.34,17.42,5.56,4.25,9.68,9.73,17.46,11.38,9.67,2,19.14,3.11,28.28-.34,4.91-1.85,10.29.44,14.93-3,1.19-.88,7.78,11.87,6.24,14.48-4.85,8.23-2,17-2.59,25.55-.37,5.25,2.73,8.05,8,8.11,5.14,0,10.32-.33,15.42.09,5.9.48,7.53-1.89,7.33-7.55-.39-10.79-.23-21.6,0-32.4.11-6.26,4.61-10.62,8.62-8.4,9.56,5.27,19.83,4.84,30.22,5.24,15.61.59,24.24-10.22,31.72-20.49,8-11,9.15-25.21,9.66-38.82.3-8.22.2-16.46,0-24.69-.34-14.73-6.35-27.2-15.3-38.64-2.46-3.14-7.31-3.1-8.55-5.75-3.65-7.82-10.6-7.26-16.85-7.57-10.78-.52-21.6-.28-32.39.09-5.22.18-7.59-1.26-7.29-6.85C1165.7,301.88,1165.43,295.18,1165.43,288.5Z"/><path class="cls-1" d="M892.39,388.5c0,18.52-.23,37,.12,55.56.14,7.11-2.53,9.77-9.48,9.4a186.43,186.43,0,0,0-20.06,0c-6.31.34-8.64-2-8.59-8.46.25-29.32.14-58.65.1-88,0-12.6-1.27-13.87-14-14.75-.77-.06-1.54-.08-2.31-.11-18.7-.75-20.53,1.21-20.62,19.88-.1,21.28,1.27,42.59-4.2,63.64-4.53,17.43-16,28.87-33.6,31.52-4.94.74-8.63-.27-10.42-5.37a26.41,26.41,0,0,0-1.84-4.22c-4.62-8.18-6.54-15.13,2.81-22.46,6.4-5,8.22-14,9.3-22.22,3-22.55,1.11-45.21,1.52-67.82.26-13.7,4.26-18.83,17.77-21.52,25-5,50.19-5.62,75,.19,15.79,3.7,18.75,6,18.63,22.26-.13,17.49,0,35,0,52.47Zm-4.7-3.52c0-16.46-.29-32.92.13-49.36.19-7.36-3.45-11.52-9.32-14.25-9.82-4.56-20.65-5.25-31.11-5.94-15.16-1-30.38-.5-45.52,2.57-8,1.62-16.06,8.55-16.08,17.1,0,18.77-.2,37.54,0,56.31.19,15.28-3.05,29.15-13.6,40.93-4.84,5.41-1.06,11,1.38,16.22,2,4.22,6.24,3.08,8.8,2.23,12.5-4.13,28-16.61,28.07-32.6.07-21.59.06-43.19.12-64.79,0-8.41,8-16.38,16.43-16.49,5.65-.08,11.37-.58,17,.07,11.1,1.3,16.44,5.68,16.12,15.65-.85,27.23-.22,54.5-.32,81.75,0,5.35,1.13,11,5.66,13.15,12.42,5.91,22.24-1,22.25-14.73Q887.7,408.89,887.69,385Z"/><path class="cls-1" d="M1525,355.43q0-41.67,0-83.33c0-10.6,2.73-13.87,13.44-14.68,11-.82,22.09-1.08,33.14-1.16,20.31-.16,40.63.1,61-.06,6.37,0,9.73,2.07,9.23,9a119,119,0,0,0,0,13.88c.32,7-3.06,9.68-9.79,9.63-18.77-.16-37.55-.12-56.32-.08-9.57,0-10,.49-10,10,0,6.94,0,13.89,0,20.83,0,11.36.73,11.89,12.46,12.12,10.49.22,20.92.24,31.44,1.91,25.4,4.05,40.67,23.43,43.24,44.63,1.6,13.12,1.17,26.2-2.9,38.88-7.84,24.38-26.68,34.87-50.32,37.78-22.6,2.78-45.13.52-67.39-4.33-6.29-1.37-7.15-5.56-7.13-10.89.07-28,0-56.07,0-84.1Zm4.71-.31c0,26.48.07,52.95-.08,79.43,0,4.52.84,8.23,5.25,10,9.85,4,20.62,4.76,30.83,5.91,18.75,2.12,37.84,1.38,55.21-8.27,2.3-1.28,6.25.92,7.31-2.8,1.31-4.61,5.39-6.69,8.08-10,6.2-7.7,12.36-15.16,10.9-26.33-1.86-14.26,3.32-29.13-6.26-42.82-4.8-6.87-10.59-13.2-17.1-16.16-9.49-4.32-20.17-7.5-31.19-7.35-7.71.1-15.42-.06-23.13,0-5.81.07-8.52-3.84-8.73-8.48-.52-11.8-.27-23.65-.13-35.47.07-5.57,9.3-13.22,13.83-10.74,7.71,4.21,15.61,2.17,23.27,2,10.52-.25,21.13,2.39,31.74-2.2,5.4-2.34,8.72-5.26,7.76-10.14-.91-4.66-2.74-10.74-10.36-9.19a8,8,0,0,1-5.18-.8c-7-4.09-15-3.09-21.68-1.4-10.71,2.72-20.64,3.68-31.06-.29-2.46-.93-6.19-1.14-8.28.09-5.33,3.14-10.89,2.43-16.45,2.49-12.24.14-14.53,2.35-14.54,14.62Q1529.71,316.18,1529.73,355.12Z"/><path class="cls-1" d="M1780,382.64c0,5.91.44,11.87-.09,17.73-1.21,13.14,1.45,25.09,10.15,35.18,3.9,4.54,1.36,7.07-2.19,9.13-5.54,3.21-11.35,6-17.07,8.87-3.33,1.69-6.42,1.61-9-1.48-.65-.79-1.45-1.45-2.15-2.2-9-9.6-8.95-9.6-20.13-2.23-21.25,14-50.36,9.31-63-11.92-13.49-22.64-6.22-59.66,24.13-68.15a137.13,137.13,0,0,1,32.59-4.94c3.52-.12,7.79.79,9.51-3.31s-.49-8.13-3-11.35c-5.34-6.73-12.91-8.68-21.14-9.32-9.21-.71-17.74,2.61-26.54,4.13-6.08,1.06-8-.85-8-6.44.06-4.89.32-9.8-.08-14.65-.5-5.95,1.94-9.36,7.68-10.33,19.63-3.3,39.37-5.28,58.62,1.47,18.14,6.37,29,18.94,29.37,39,.18,10.28,0,20.57,0,30.85Zm-6.3-.93c0-10.79-.24-21.59.07-32.37.26-9.35-4.74-16.59-10.8-21.95-9.29-8.2-21-12.3-33.72-12.29-11.9,0-23.8-.6-35.46,3-6,1.86-2.9,6.26-3.5,9.54s-.12,6.21,4.51,6.14c9.51-.13,19,.13,28.52-.08,18.4-.41,24.26,12.06,22.71,26.76-.25,2.34-1,4.15-3.61,4-5.68-.3-11.33,3.16-16.14,2.62-12.77-1.43-22.36,5.34-32.88,9.8-5.52,2.34-9.25,6.95-12.38,12-5.55,9-2.89,18.94-3.06,28.45-.34,19,11.31,30.5,30.26,30.6,4.37,0,8.81.51,13.09-.1,7.45-1.06,15.14-3,20.79-7.79,6.45-5.52,9.75-6.78,15.18-.64,5.22,5.91,9.9,9.36,18.45,5.67,6.72-2.91,9.59-6.8,5-13.12-6.22-8.56-7.9-17.73-7.15-28C1774.08,396.65,1773.65,389.16,1773.65,381.71Z"/><path class="cls-1" d="M1377.25,384.15c0,6.17.3,12.36-.07,18.51-.69,11.68,1,22.52,9.17,31.59,4.19,4.63,2.93,8.23-2.44,10.87-3.9,1.92-8.12,3.46-11.53,6.05-7.8,5.94-12.61,2.58-17.67-4-6.21-8.1-6.54-7.85-15.06-1.71-18.62,13.42-43.5,13.22-59.1-.83-14.13-12.72-15.09-29.48-11.59-46.3,3.25-15.61,13.46-26,29.19-30.74a115.7,115.7,0,0,1,32.61-5c3.38,0,7.14-.09,8.67-3.65s.23-7.05-2.07-10.09c-8.35-11-20.07-11.13-32.1-9.61a151.47,151.47,0,0,0-17.35,3.52c-5,1.25-6.62-1-6.71-5.43-.09-4.11-.07-8.23-.07-12.35,0-12.09,0-12.59,11.82-14.31,17.86-2.59,35.68-3.69,53.43,1.86,18.92,5.91,29.83,21.2,30.7,41.5.43,10,.08,20.05.08,30.09ZM1318.86,315c-10.68.61-21.46-1.91-31.07,5.42-5,3.81-4.48,8.51-2.4,11.87,1.46,2.36,5,10.34,10.57,2.55.65-.91,2.81-1,4.28-1,6.93-.1,14-.81,20.78.13,8.64,1.19,17.3,3.56,21.85,12.27,3.26,6.23,1.62,13,1,19.52-.15,1.73-2.3,1.72-3.84,1.76a193.41,193.41,0,0,0-28.61,2.52,62.78,62.78,0,0,0-21.67,8.09c-5.21,3.11-10.85,7.64-12.91,13.75-3.8,11.27-5.41,22.56-.73,34.61,4.14,10.67,16,21.22,27.36,21.53,12.07.33,24.08,1.09,33.53-8.82,1.18-1.24,3.57-2,5.34-2.6,4.52-1.49,10.24-3,13.68.76,9.54,10.41,10,10.76,21.5,4.8,2.48-1.29,3.13-1.2,2-4.56-3.38-9.73-6.22-19.65-7.42-30.07-1-9.18,3.17-17.34,3.25-26.3.07-7-3.07-13.47-2.79-20.1.44-10.62-1.4-20.25-7.78-28.68-4.65-6.12-11-10.56-17.71-14.1C1338.15,313.65,1328.23,315.37,1318.86,315Z"/><path class="cls-1" d="M1926.26,381.08c0,19.79-.17,39.58.09,59.37.09,6.78-2,10.06-9.26,9.56a144.09,144.09,0,0,0-19.27,0c-7,.45-8.89-2.65-8.71-9.15.35-12.84-.11-25.7.18-38.54.13-5.84-1.67-8.47-7.89-8.24-9.49.36-19,.31-28.52,0-5.51-.17-7.1,2.19-7,7.33.21,12.85-.18,25.71.13,38.55.17,7.05-2,10.63-9.68,10.06-6.65-.48-13.36-.18-20-.07-4.92.07-7.48-1.5-7.46-7.1q.26-60.9,0-121.82c0-6.39,3.19-8.95,8.77-9.21,6.66-.31,13.36.06,20-.15,5.9-.19,8.4,2.41,8.32,8.27-.16,11.31.3,22.63-.19,33.92-.29,6.46,2.41,7.93,8.14,7.74,9.24-.31,18.51-.36,27.75,0,5.61.22,7.81-1.5,7.6-7.39-.38-10.78,0-21.58-.11-32.37-.09-7,2.57-10.56,10-10.18,6.15.32,12.33.1,18.5-.09s8.76,2.13,8.67,8.61C1926.08,340.47,1926.26,360.78,1926.26,381.08Zm-4.49-1c0-18.5-.1-37,.07-55.5,0-4.46-1.13-6.72-6-6.45a158.77,158.77,0,0,1-16.18,0c-4.39-.19-5.86,1.61-5.78,5.88.19,10,.1,20,0,30.06-.06,8.52-5.38,14.58-13.72,13.23-10.79-1.76-21.53-2.45-32.38-3.17-4.75-.32-8.86-4.85-9.25-10.69-.3-4.56,3-10.49,2-12.81-2.6-6.39-1.31-12.56-2.12-18.74-.43-3.31-7.38-7.08-10.43-5.56-1.34.67-2.43,1.84-4.08,1.77-8.35-.36-10.25,4.84-10.25,11.78q0,52.41,0,104.84c0,8.85,1.78,10.14,13,10.17,9.64,0,11.7-1.64,11.77-9.88.09-9.51-.07-19,0-28.52.14-12.69,4.55-17.13,16.78-17.16q12.72,0,25.43,0c10.42,0,13.13,2.79,13.17,13.64,0,10.54.28,21.08-.11,31.6-.27,7.53,4.07,9.67,10.22,10.26,2.55.25,5.14-.07,7.71.07,7.15.37,10.18-2.94,10.11-10.1C1921.65,416.56,1921.78,398.31,1921.77,380.07Z"/><path class="cls-1" d="M919.52,381.28q0-30.06,0-60.1c0-9.29,1.23-10.57,10.66-10.74,5.91-.11,11.82.06,17.73-.06,6.75-.15,9.8,2.78,9.58,9.75-.32,9.75.08,19.52-.13,29.28-.12,5.26,1.88,7.48,7.23,7.22,10-.48,20,.54,29.9,1.77,16.75,2.08,29.54,10.21,34.93,26.14,6.09,18,6.45,36.68-4.65,53.25-9,13.48-23.59,17.3-38.94,18.17-19.31,1.09-38.46-1-57.59-3.32-6.37-.78-9-3.67-8.87-10.49C919.78,421.87,919.52,401.57,919.52,381.28Zm5.14,0q0,27,0,54c0,9.22,3.19,12.42,12.6,12.68,4.36.12,9.28-1.06,13,.55,11.74,5.07,23.92,2.82,35.54,1.81,5.81-.51,12.8-.64,18.3-3.39,15.58-7.8,23.12-20.73,22.66-38.37A99.84,99.84,0,0,0,1024,387c-1.21-4.91-2.7-8.95-6.61-11.36-8.64-5.33-16.13-13.93-28.06-11.2a4.84,4.84,0,0,1-3-.49c-7.5-3.7-15-3.89-22.52-.14a4,4,0,0,1-5.44-1.3c-5.48-7.47-11.29-15.71-8.22-24.94,2-6,1.11-10.26-.47-15.64-2.56-8.68-9.32-7.31-15-6.41-4.67.75-10.36,1.79-10.19,9.52C924.94,343.76,924.65,362.54,924.66,381.31Z"/><path class="cls-1" d="M632.19,309.45c2.53,9.84-2.71,18.23-5.28,27-3.34,11.43-9.09,22-11.28,34-1.14,6.24-5.62,11.62-6.94,18.17-2.35,11.71-7.93,22.41-11.26,33.82-1.88,6.44-7,11.58-6.39,19.14.41,5.06,2,7.05,6.86,6.43a13.19,13.19,0,0,1,1.54,0c18.69.11,18-.1,23.3-18,1.79-6,.57-13.29,6.11-18.23,2.8-2.49,5.47-4.07,9.46-4,19,.21,38.05.18,57.07.06,6.51,0,9.4,2.47,10.35,9.3,1.38,9.86,5.48,19.1,9.17,28.37.85,2.14,2.38,2.5,4.23,2.5,8.44,0,16.87,0,25.36,0-1.89-11-3.65-21.28-7.23-31.33-8.29-23.31-15.61-47-23.22-70.52-5.88-18.19-12-36.29-17.32-54.68a189.28,189.28,0,0,0-9.31-25.7c-2.95-6.49-10.84-4.46-16.54-5.84-4.13-1-8.7-.07-13.06-.24-3-.12-4.78,1.25-5.86,3.92-5,12.37-12.28,24-11.49,38.19.26,4.65-3,7.4-8,7.05,3.42-16.9,10.75-32.52,16.06-48.8.95-2.93,3.54-3.59,6.2-3.62,9.51-.08,19,0,28.53-.07,4.77-.06,6.9,3,8.15,6.81,11.72,35.82,23.28,71.69,35,107.49,7.19,21.91,14.64,43.73,22,65.59q.61,1.83,1.2,3.66c3.8,12.09,3.09,13.06-9.82,13.05-7.45,0-14.91-.11-22.36-.08-4.11,0-6.59-1.53-7.78-5.8-2.68-9.62-6-19-8.63-28.69-1.22-4.55-3.44-6.27-8.08-6.23-18,.17-36,.28-54-.08-5.16-.1-6.86,2.7-8,6.51-2.51,8.6-5.09,17.2-7,25.93-1.34,6.1-4.37,8.71-10.62,8.46-7.7-.31-15.41-.15-23.12-.07-6.24.06-8.43-2.39-6.25-8.6,7.43-21.25,14.66-42.57,22-63.84q11.31-32.64,22.76-65.22C629.5,313.09,629.75,310.59,632.19,309.45Z"/><path class="cls-1" d="M2016.33,407.37c-5.45-3.66-8.06-11.16-16.69-10.66-5.72.33-8.29,1.32-8,7.7.46,11.55.12,23.13.07,34.7,0,9.77-1,10.79-10.42,10.84-6.43,0-12.85-.09-19.28,0-4.8,0-6.9-2-6.89-7q.17-61.71,0-123.41c0-5.78,2.76-7.81,8-7.82,6.94,0,13.89.06,20.83-.11,5.48-.13,7.95,2.19,7.87,7.81-.17,11.83.24,23.67-.12,35.48-.19,6.21,2.16,7.95,8.1,7.71,10.56-.41,15.15-3.53,18.77-13.71,3.5-9.85,6.4-20.09,15.49-26.74,10-7.34,21.42-9.46,33.51-9,.75,0,1.86.09,2.18.56,3.67,5.34,1.11,11.39,1.73,17.09.29,2.59,0,5.61-3.29,6.08-11.8,1.64-15.1,11.37-18.94,20.16-3,6.95-5.93,13.64-13.1,17.27-3.92,2-1.72,3.93,0,6a190.91,190.91,0,0,1,28.64,47c2.35,5.48,3.55,11.22,4.87,17,1.11,4.83-.9,6.63-5.6,6.55-7.2-.12-14.41-.16-21.6.07-3.2.1-5.6-.81-6.85-3.71-4.24-9.82-8.35-19.69-12.51-29.55l1-.94c5.82,2.74,6.25,8.85,8.57,13.76,7.19,15.24,10.21,18.82,23.57,17.34a8.82,8.82,0,0,0,7.16-11.73,171.71,171.71,0,0,0-30.75-52c-4.88-5.73-3.71-12.46,2.56-16.07,5.22-3,8-8.12,10-13.31,3.61-9.5,9.14-17.65,17.33-23.21,3.35-2.27,5.22-3.85,4.23-7.46-1-3.8-3.94-5.17-7.95-5.9-12.17-2.22-33.41,15.56-34.76,28.42-1.24,11.79-7.82,17.53-17.91,20.76-12.21,3.91-19.36-1.64-19.37-14.76,0-7.45-.39-14.93.12-22.35.55-7.93,0-14-10.52-12.1-.88.17-2-.44-2.88-.84-8-3.4-14.55.92-14.55,9.62q0,51.66,0,103.32c0,17.85.11,18,18.13,17.59,6.18-.12,12.5-6.43,12.54-12.68.06-10.8,0-21.59,0-32.39,0-8.43,2.45-10.69,10.93-10.32a18.7,18.7,0,0,1,17.18,13.77Z"/><path class="cls-1" d="M1450.26,358.71a24.65,24.65,0,0,1,24.36,25.22c-.15,13.72-10.67,24.08-24.54,24.15-14.14.07-24.72-10.5-24.7-24.71A24.71,24.71,0,0,1,1450.26,358.71Z"/><path class="cls-1" d="M2023,417.64c-4-2.28-5-6.5-6.68-10.28l1.25-1.22c3.82,2.5,6.48,5.7,6.39,10.56Z"/><path class="cls-1" d="M666.74,386.07c-5.14,0-10.3-.31-15.4.1-4.61.37-7.51-1.71-10.72-4.62-4-3.66-.65-6.49-.44-9.93.46-7.88,4.6-14.85,4-23.06-.47-6.93,3.5-13.5,6.61-19.66,1.61-3.19,2.56-6.06,2.25-9.34a22.19,22.19,0,0,1,4.6-16.5c1.88-2.35,1.58-4.79,1.62-7.27.09-5.31,2.71-8.32,8-8.2,4.87.11,7.7,3.19,7.24,8-1.16,12.15,7.87,21.75,8.37,33.09.52,11.57,7.53,21.46,7.06,32.9-.21,4.88,3.78,8,3.45,13.06-.63,9.42-1.94,11.37-11.22,11.41-2.57,0-5.14,0-7.7,0Zm1.13-91.65c-2.26.05-2.47,1.2-2.72,2.11q-10.46,38.6-20.84,77.22c-1.11,4.12.46,6.35,5,6.31q16.59-.13,33.18,0c5.31,0,6.78-2.22,5.36-7.27-2.07-7.4-3.72-14.92-5.62-22.36C677.47,331.68,672.64,313,667.87,294.42Z"/><path class="cls-1" d="M151.17,65c1.31-4.18,4.32-9.81,5.69-16.05.36-1.65,2-3.35,1.21-5.63-.44-1.3-.33-2.77,1-3.34C168.55,36,172.32,25.53,181.63,21c5.45-2.63,10.87-5,16.64-6.18,11.21-2.24,22.21-1.74,33.14,2.74,5.35,2.19,9.63,5.71,14.11,8.8,6,4.15,12.31,8.52,15.91,15.46,1.05,2,2.95,3.73,2.58,6.23-1.62,10.8,6.15,18.93,8,28.66,2.86,14.79,9.14,28.55,14.53,42.28,4.36,11.06,6.12,23.13,12.32,33.38a15.18,15.18,0,0,1,2.4,8.58c0,.77-.2,2,.17,2.24,10.05,6.21,5,19.09,12.58,27.34,5.37,5.83,5,16.35,8.16,24.67C327,228,333,240.65,335.86,254c3.33,15.29,11,28.83,15.5,43.63,2.61,8.53,7.11,16.9,9.9,25.68,4.81,15.17,13.63,29.1,14.13,45.6,0,.26-.05.7.06.74,8.64,3.74,4.27,12.84,7.74,18.68,1.73,2.92,2.43,5.65-2,6.13-6.84.74-11.89,5.32-18,7.7-4.87,1.92-9.08,5.12-14.84,5-5.4-.13-8.22,5.5-14,6.71-13.86,2.92-17.24,1.39-17.92-12.84-.1-2.31,0-4.63-.05-6.94,0-1.28.26-2.94-.41-3.77-10.75-13.22-11.49-30.41-18-45.32-3-6.95-8.21-12-16.12-12q-73.27-.07-146.56,0c-7.66,0-13.51,6.9-16.37,16.3-3.81,12.51-4.08,26.5-14.1,36.67a3.54,3.54,0,0,0-1,2.75c2.72,9.62-4.62,16.56-6.5,24.94-.73,3.2-3.69,3.29-5.53,2.47-4.48-2-10.22-1.4-13.64-3.57-12.78-8.1-28.91-8.3-40.75-18.16-3.27-2.72-6.26-4.46-3-9.85,8.53-14,10.75-30.5,16.69-45.56,3.12-7.92,6.58-15.7,9.75-23.6,3.61-9,7.71-17.89,8.6-27.69.23-2.58,1.93-4.08,2.83-6.13,5.46-12.34,7.94-25.94,13.42-37.92,5-11,6.64-22.91,12.3-33.49,3.17-5.92,5.75-12.24,5.55-19.26-.24-8.36,7.21-13.06,9.67-20.17,3.88-11.24,7.91-22.44,11.82-33.67,3.37-9.65,6.2-19.47,10.16-28.94a288.39,288.39,0,0,0,11.24-30.83C147.61,73.38,152.88,71.73,151.17,65ZM208.34,274c16.44,0,32.89-.18,49.32.1,5.61.1,7.65-3.34,10.65-7.06,3.46-4.28-.54-5.08-1.88-7.34-.62-1-.39-2.57-.95-3.67-3.08-6.06-3.5-13.13-6.6-19-1.91-3.63-3.52-6.79-4.27-11A97.92,97.92,0,0,0,246.68,201c-4.07-8.23-5.42-17.16-7.59-25.21-1.91-7.1-6-13.39-7.37-20.94-2.57-14-9.69-27.09-13.53-40.95-1.46-5.24-3.6-10.33-7.77-11.1-4.88-.91-7.37,5.21-10.33,8.89-.45.55-.28,1.65-.76,2.12-4.89,4.8-1.84,11.67-4.73,17.21-4.82,9.26-7.15,19.7-10.07,29.58-4.24,14.33-11.69,27.45-14.47,42.3-1.49,8-5.21,15.54-7.69,23.36-3.66,11.59-8.43,22.77-11.6,34.57-2.1,7.81.54,13.16,9,13.21C176,274.11,192.15,274,208.34,274Z"/><path class="cls-1" d="M1165.43,288.5c0,6.68.27,13.38-.09,20.05-.3,5.59,2.07,7,7.29,6.85,10.79-.37,21.61-.61,32.39-.09,6.25.31,13.2-.25,16.85,7.57,1.24,2.65,6.09,2.61,8.55,5.75,8.95,11.44,15,23.91,15.3,38.64.19,8.23.29,16.47,0,24.69-.51,13.61-1.64,27.8-9.66,38.82-7.48,10.27-16.11,21.08-31.72,20.49-10.39-.4-20.66,0-30.22-5.24-4-2.22-8.51,2.14-8.62,8.4-.19,10.8-.35,21.61,0,32.4.2,5.66-1.43,8-7.33,7.55-5.1-.42-10.28,0-15.42-.09-5.31-.06-8.41-2.86-8-8.11.6-8.51-2.26-17.32,2.59-25.55,1.54-2.61-5-15.36-6.24-14.48-4.64,3.47-10,1.18-14.93,3-9.14,3.45-18.61,2.38-28.28.34-7.78-1.65-11.9-7.13-17.46-11.38-6-4.62-3.45-11.73-6.34-17.42-6.59-13-6.42-27.62-7-42.1-.62-16.31,5.32-30.49,10.56-45.16,3.35-9.34,12.28-10.88,19.34-14.69,9.73-5.26,20.14-5.37,30.68-1.09s17-.26,17-11.56c0-12.34.2-24.69-.1-37-.09-3.94,1.27-6.4,4.63-7.78,7.36-3,15-2.36,22.41-.57,2.79.68,4,4.18,3.86,7.7-.27,6.67-.08,13.37-.08,20.06Zm0,102.55c0,6.44-.08,11.06,0,15.68.41,22.4-3.37,18.17,19.49,20.07,15.41,1.28,22.86-7,29.36-17.87,1.78-3,3.94-6.24,3.76-10.55-.46-11.28.33-22.62-.33-33.88-.47-7.94-4.1-15.77-10.21-20.36a37.3,37.3,0,0,0-24.07-7.61c-17.63.5-20.14,5.69-19.08,21.07C1165.14,369.39,1164.74,381.13,1165.41,391.05Zm-30.76-7.28c0-11.56-.24-23.12.11-34.66.14-4.77-2.25-8.27-5.92-8.53-6.72-.48-12.7-3.9-19.45-3.75-8.69.18-18.62,9.6-21.28,17.76-4.53,13.88-2.69,27.91-2.78,41.89,0,8.24,2.33,16.42,7.72,22.75,9.78,11.51,23.07,6.78,35.26,6.24,5-.22,6.57-3.64,6.44-8.58C1134.47,405.86,1134.66,394.81,1134.65,383.77Z"/><path class="cls-1" d="M887.68,385q0,23.91,0,47.82c0,13.76-9.83,20.64-22.25,14.73-4.53-2.16-5.67-7.8-5.66-13.15.1-27.25-.53-54.52.32-81.75.32-10-5-14.35-16.12-15.65-5.58-.65-11.3-.15-17-.07-8.46.11-16.41,8.08-16.43,16.49-.06,21.6-.05,43.2-.12,64.79-.06,16-15.57,28.47-28.07,32.6-2.56.85-6.83,2-8.8-2.23-2.44-5.24-6.22-10.81-1.38-16.22,10.55-11.78,13.79-25.65,13.6-40.93-.23-18.77-.07-37.54,0-56.31,0-8.55,8-15.48,16.08-17.1,15.14-3.07,30.36-3.56,45.52-2.57,10.46.69,21.29,1.38,31.11,5.94,5.87,2.73,9.51,6.89,9.32,14.25C887.4,352.06,887.69,368.52,887.68,385Z"/><path class="cls-1" d="M1529.73,355.12q0-38.94,0-77.88c0-12.27,2.3-14.48,14.54-14.62,5.56-.06,11.12.65,16.45-2.49,2.09-1.23,5.82-1,8.28-.09,10.42,4,20.35,3,31.06.29,6.66-1.69,14.65-2.69,21.68,1.4a8,8,0,0,0,5.18.8c7.62-1.55,9.45,4.53,10.36,9.19,1,4.88-2.36,7.8-7.76,10.14-10.61,4.59-21.22,1.95-31.74,2.2-7.66.18-15.56,2.22-23.27-2-4.53-2.48-13.76,5.17-13.83,10.74-.14,11.82-.39,23.67.13,35.47.21,4.64,2.92,8.55,8.73,8.48,7.71-.08,15.42.08,23.13,0,11-.15,21.7,3,31.19,7.35,6.51,3,12.3,9.29,17.1,16.16,9.58,13.69,4.4,28.56,6.26,42.82,1.46,11.17-4.7,18.63-10.9,26.33-2.69,3.33-6.77,5.41-8.08,10-1.06,3.72-5,1.52-7.31,2.8-17.37,9.65-36.46,10.39-55.21,8.27-10.21-1.15-21-1.89-30.83-5.91-4.41-1.8-5.27-5.51-5.25-10C1529.8,408.07,1529.73,381.6,1529.73,355.12Zm35.37,40.73h0c0,7.71.2,15.43-.07,23.13-.18,5.15,1.42,7.68,7,7.18,4.34-.4,8.74-.05,13.1-.27,22.08-1.11,32.34-13.92,28.76-35.8-2.49-15.14-9.06-21.35-24.41-22.59-5.88-.47-11.81-.26-17.71-.56-4.76-.25-7,1.29-6.73,6.55C1565.4,380.92,1565.1,388.39,1565.1,395.85Z"/><path class="cls-1" d="M1773.65,381.71c0,7.45.43,14.94-.11,22.35-.75,10.24.93,19.41,7.15,28,4.58,6.32,1.71,10.21-5,13.12-8.55,3.69-13.23.24-18.45-5.67-5.43-6.14-8.73-4.88-15.18.64-5.65,4.83-13.34,6.73-20.79,7.79-4.28.61-8.72.13-13.09.1-19-.1-30.6-11.55-30.26-30.6.17-9.51-2.49-19.45,3.06-28.45,3.13-5.06,6.86-9.67,12.38-12,10.52-4.46,20.11-11.23,32.88-9.8,4.81.54,10.46-2.92,16.14-2.62,2.59.13,3.36-1.68,3.61-4,1.55-14.7-4.31-27.17-22.71-26.76-9.5.21-19-.05-28.52.08-4.63.07-5.1-2.94-4.51-6.14s-2.45-7.68,3.5-9.54c11.66-3.65,23.56-3,35.46-3,12.72,0,24.43,4.09,33.72,12.29,6.06,5.36,11.06,12.6,10.8,21.95C1773.41,360.12,1773.65,370.92,1773.65,381.71Zm-28.24,9.72c.87-6.61-4-7.14-8.54-8.22-5.13-1.22-9.24,2.81-13.83,2.8-8.69,0-14.91,2.35-20,10.19-6.38,9.72-3.17,25.28,7.63,29.69,10.16,4.14,20.86,3.89,31.47,3.23,6.19-.38,9.72-7.25,7.58-12.86-1.5-3.91-2-8.49,0-11.94,3.52-6.15-.46-8.77-4.13-11.92A.73.73,0,0,1,1745.41,391.43Z"/><path class="cls-1" d="M1318.86,315c9.37.33,19.29-1.39,28.22,3.33,6.72,3.54,13.06,8,17.71,14.1,6.38,8.43,8.22,18.06,7.78,28.68-.28,6.63,2.86,13.07,2.79,20.1-.08,9-4.3,17.12-3.25,26.3,1.2,10.42,4,20.34,7.42,30.07,1.16,3.36.51,3.27-2,4.56-11.51,6-12,5.61-21.5-4.8-3.44-3.76-9.16-2.25-13.68-.76-1.77.58-4.16,1.36-5.34,2.6-9.45,9.91-21.46,9.15-33.53,8.82-11.37-.31-23.22-10.86-27.36-21.53-4.68-12.05-3.07-23.34.73-34.61,2.06-6.11,7.7-10.64,12.91-13.75a62.78,62.78,0,0,1,21.67-8.09,193.41,193.41,0,0,1,28.61-2.52c1.54,0,3.69,0,3.84-1.76.58-6.54,2.22-13.29-1-19.52-4.55-8.71-13.21-11.08-21.85-12.27-6.81-.94-13.85-.23-20.78-.13-1.47,0-3.63.11-4.28,1-5.58,7.79-9.11-.19-10.57-2.55-2.08-3.36-2.61-8.06,2.4-11.87C1297.4,313.13,1308.18,315.65,1318.86,315Zm9,71.23c-3.85,0-7.7-.11-11.55,0-5.31.21-11.72,1.8-14.17,5.22-5.46,7.59-5.39,16.73-2.07,26,3.12,8.66,11.48,8,17.59,11.06,7.21,3.59,23,.31,27.17-4.23,5.17-5.57,2.28-12.25,2.51-18.36C1348.11,385.55,1347.93,385.82,1327.89,386.27Z"/><path class="cls-1" d="M1921.77,380.07c0,18.24-.12,36.49.07,54.73.07,7.16-3,10.47-10.11,10.1-2.57-.14-5.16.18-7.71-.07-6.15-.59-10.49-2.73-10.22-10.26.39-10.52.15-21.06.11-31.6,0-10.85-2.75-13.63-13.17-13.64q-12.71,0-25.43,0c-12.23,0-16.64,4.47-16.78,17.16-.11,9.5,0,19,0,28.52-.07,8.24-2.13,9.9-11.77,9.88-11.26,0-13-1.32-13-10.17q-.06-52.42,0-104.84c0-6.94,1.9-12.14,10.25-11.78,1.65.07,2.74-1.1,4.08-1.77,3-1.52,10,2.25,10.43,5.56.81,6.18-.48,12.35,2.12,18.74.94,2.32-2.31,8.25-2,12.81.39,5.84,4.5,10.37,9.25,10.69,10.85.72,21.59,1.41,32.38,3.17,8.34,1.35,13.66-4.71,13.72-13.23.06-10,.15-20,0-30.06-.08-4.27,1.39-6.07,5.78-5.88a158.77,158.77,0,0,0,16.18,0c4.9-.27,6.07,2,6,6.45C1921.67,343.07,1921.77,361.57,1921.77,380.07Z"/><path class="cls-1" d="M924.65,381.31c0-18.77.29-37.55-.14-56.31-.17-7.73,5.52-8.77,10.19-9.52,5.65-.9,12.41-2.27,15,6.41,1.58,5.38,2.47,9.63.47,15.64-3.07,9.23,2.74,17.47,8.22,24.94a4,4,0,0,0,5.44,1.3c7.55-3.75,15-3.56,22.52.14a4.84,4.84,0,0,0,3,.49c11.93-2.73,19.42,5.87,28.06,11.2,3.91,2.41,5.4,6.45,6.61,11.36a99.84,99.84,0,0,1,2.77,21.63c.46,17.64-7.08,30.57-22.66,38.37-5.5,2.75-12.49,2.88-18.3,3.39-11.62,1-23.8,3.26-35.54-1.81-3.71-1.61-8.63-.43-13-.55-9.41-.26-12.59-3.46-12.6-12.68Q924.65,408.31,924.65,381.31Zm44.69,47.74c7.79,1.07,14.21-.83,20.65-4.61a23.82,23.82,0,0,0,5.8-36.55c-5.83-6.55-14.23-5.56-21.43-7.38-5.57-1.41-12.41-2.11-18,.78-6.79,3.49-9.57,16.57-5.44,24.58,2.08,4,2.63,7.61,0,11.35-1.35,1.89-1.79,3.6,0,5.42C956.15,427.87,962,431.49,969.34,429.05Z"/><path class="cls-1" d="M2024,416.7c.09-4.86-2.57-8.06-6.39-10.56a18.69,18.69,0,0,0-17.18-13.78c-8.48-.37-10.9,1.89-10.93,10.32,0,10.8,0,21.59,0,32.39,0,6.25-6.36,12.56-12.54,12.68-18,.37-18.13.26-18.13-17.59q0-51.66,0-103.32c0-8.7,6.59-13,14.55-9.62.92.4,2,1,2.88.84,10.47-1.93,11.07,4.17,10.52,12.1-.51,7.42-.13,14.9-.12,22.35,0,13.12,7.16,18.67,19.37,14.76,10.09-3.23,16.67-9,17.91-20.76,1.35-12.86,22.59-30.64,34.76-28.42,4,.73,6.91,2.1,7.95,5.9,1,3.61-.88,5.19-4.23,7.46-8.19,5.56-13.72,13.71-17.33,23.21-2,5.19-4.76,10.31-10,13.31-6.27,3.61-7.44,10.34-2.56,16.07a171.71,171.71,0,0,1,30.75,52,8.82,8.82,0,0,1-7.16,11.73c-13.36,1.48-16.38-2.1-23.57-17.34C2030.22,425.55,2029.79,419.44,2024,416.7Z"/><path class="cls-1" d="M208.34,274c-16.19,0-32.38.07-48.56,0-8.47-.05-11.11-5.4-9-13.21,3.17-11.8,7.94-23,11.6-34.57,2.48-7.82,6.2-15.38,7.69-23.36,2.78-14.85,10.23-28,14.47-42.3,2.92-9.88,5.25-20.32,10.07-29.58,2.89-5.54-.16-12.41,4.73-17.21.48-.47.31-1.57.76-2.12,3-3.68,5.45-9.8,10.33-8.89,4.17.77,6.31,5.86,7.77,11.1,3.84,13.86,11,26.95,13.53,40.95,1.39,7.55,5.46,13.84,7.37,20.94,2.17,8.05,3.52,17,7.59,25.21a97.92,97.92,0,0,1,7.93,25.13c.75,4.19,2.36,7.35,4.27,11,3.1,5.86,3.52,12.93,6.6,19,.56,1.1.33,2.63.95,3.67,1.34,2.26,5.34,3.06,1.88,7.34-3,3.72-5,7.16-10.65,7.06C241.23,273.86,224.78,274,208.34,274Zm1.37-166.28c-2,4.13-3.78,6.77-4.5,9.69-5.63,22.71-15.45,44-22.24,66.36C175,210,165.3,235.66,156.1,261.46c-1.76,4.92-1.41,7.1,4.41,7.08,32.13-.12,64.25-.19,96.37,0,6.23,0,7-2.75,5.38-7.56-2.24-6.81-4.65-13.57-7-20.36q-15.79-46.1-31.6-92.2C219.21,135.38,214.72,122.34,209.71,107.76Z"/><path class="cls-1" d="M1165.41,391.05c-.67-9.92-.27-21.66-1.07-33.45-1.06-15.38,1.45-20.57,19.08-21.07a37.3,37.3,0,0,1,24.07,7.61c6.11,4.59,9.74,12.42,10.21,20.36.66,11.26-.13,22.6.33,33.88.18,4.31-2,7.57-3.76,10.55-6.5,10.91-14,19.15-29.36,17.87-22.86-1.9-19.08,2.33-19.49-20.07C1165.33,402.11,1165.41,397.49,1165.41,391.05Zm3.09-8.49c0,10.77,0,21.55,0,32.32,0,2.44-.5,5.06,2.4,6.74,8.66,5,28.42,1.1,34.31-7.11,9.15-12.77,9.08-27.4,7.91-42.07-1.89-23.51-12.29-32.1-35.56-29.93-.51.05-1,.14-1.53.16-5.39.18-7.71,2.91-7.61,8.35C1168.64,361.53,1168.5,372.05,1168.5,382.56Z"/><path class="cls-1" d="M1134.66,383.77c0,11-.19,22.09.09,33.12.13,4.94-1.44,8.36-6.44,8.58-12.19.54-25.48,5.27-35.26-6.24-5.39-6.33-7.77-14.51-7.72-22.75.09-14-1.75-28,2.78-41.89,2.66-8.16,12.59-17.58,21.28-17.76,6.75-.15,12.73,3.27,19.45,3.75,3.67.26,6.06,3.76,5.92,8.53C1134.41,360.65,1134.65,372.21,1134.66,383.77Zm-3.23-.26q0-16.15,0-32.3c0-2.85,0-5.68-2.91-7.43-8.62-5.19-28.64-.63-33.53,8.26-8.88,16.15-9,33.31-4.21,50.67,5.94,21.34,16.7,21.83,34.3,20,4.45-.47,6.59-2.73,6.44-7.64C1131.21,404.54,1131.43,394,1131.43,383.51Z"/><path class="cls-1" d="M1745.41,391.43c-10.77-3.74-21.46-1.36-31.56,1.91-6,2-8.56,8.13-8.09,15.09s4.6,10.91,10.3,12.76c7,2.28,14.54,2.6,22,2.83,5.07.17,7.39-1.59,7.19-7.12-.3-8.15.16-16.33.3-24.5,3.67,3.15,7.65,5.77,4.13,11.92-2,3.45-1.48,8,0,11.94,2.14,5.61-1.39,12.48-7.58,12.86-10.61.66-21.31.91-31.47-3.23-10.8-4.41-14-20-7.63-29.69,5.13-7.84,11.35-10.22,20-10.19,4.59,0,8.7-4,13.83-2.8C1741.38,384.29,1746.28,384.82,1745.41,391.43Z"/><path class="cls-1" d="M1327.89,386.27c20-.45,20.22-.72,19.48,19.68-.23,6.11,2.66,12.79-2.51,18.36-4.22,4.54-20,7.82-27.17,4.23-6.11-3-14.47-2.4-17.59-11.06-3.32-9.23-3.39-18.37,2.07-26,2.45-3.42,8.86-5,14.17-5.22C1320.19,386.16,1324,386.27,1327.89,386.27ZM1341.51,407c-.62-18.63,4.11-16.81-17.42-16.39-3,.05-6.07.93-9.07,1.55-7.14,1.45-11.21,6-12.11,13.05-1,7.67,3.25,12.79,9.78,15.76,3.18,1.45,7,1.77,10.51,2.15C1341.49,425.08,1341.49,425,1341.51,407Z"/><path class="cls-1" d="M969.34,429.05c-7.38,2.44-13.19-1.18-18.44-6.41-1.84-1.82-1.4-3.53,0-5.42,2.66-3.74,2.11-7.32,0-11.35-4.13-8-1.35-21.09,5.44-24.58,5.63-2.89,12.47-2.19,18-.78,7.2,1.82,15.6.83,21.43,7.38a23.82,23.82,0,0,1-5.8,36.55C983.55,428.22,977.13,430.12,969.34,429.05Zm-13.07-24.19c0,3.85.25,7.71,0,11.53-.45,5.79,2.23,7.81,7.71,7.65,6.15-.17,12.28-.09,18.3-1.75,9.57-2.63,14-8.65,13.39-18.42-.67-10.47-7.51-16.46-19.68-17.22C956.29,385.42,956.29,385.42,956.27,404.86Z"/></svg>