<svg xmlns="http://www.w3.org/2000/svg" xmlns:xlink="http://www.w3.org/1999/xlink" viewBox="0 0 1562.99 1585.68"><defs><style>.cls-1{fill:url(#Безымянный_градиент_22);}.cls-2{fill:url(#Безымянный_градиент_22-2);}.cls-3{fill:url(#Безымянный_градиент_22-3);}</style><linearGradient id="Безымянный_градиент_22" x1="767.73" y1="1614.09" x2="767.73" y2="-69.91" gradientUnits="userSpaceOnUse"><stop offset="0" stop-color="#1a1b1e"/><stop offset="0.04" stop-color="#1b1d20"/><stop offset="0.64" stop-color="#2e323a"/><stop offset="1" stop-color="#353a44"/></linearGradient><linearGradient id="Безымянный_градиент_22-2" x1="1244.46" y1="839.59" x2="1244.46" y2="708.95" xlink:href="#Безымянный_градиент_22"/><linearGradient id="Безымянный_градиент_22-3" x1="704.54" y1="839.6" x2="704.54" y2="709.14" xlink:href="#Безымянный_градиент_22"/></defs><title>sМонтажная область 10</title><g id="Слой_8" data-name="Слой 8"><path class="cls-1" d="M-62.27,1614.09q2-842,4-1684l1653.2,8.48q1.39,833.76,2.8,1667.52ZM401.1,886.7c0-46,0-89.92,0-133.89,0-25.29,18.85-43.37,45.55-43.85,22.72-.42,32.89,12.41,33.26,42.23.16,12.32,0,24.64,0,37v97.6h61.24c0-58.25,1.11-114.64-.39-171-1-37.1-24.28-57.43-61.32-59.17-33.54-1.58-59.65,13.17-81.7,36.89C363,645.44,334.8,643.57,261.59,683c-.71-7.08-1.38-13.83-2.11-21h-58.7V885.88h57.87c.91-2.92,1.61-4.12,1.62-5.33q.27-62.25.42-124.5c.06-26,10-38.88,35.06-45.25,25.31-6.45,42.76,5.86,43.37,31.74.7,29.81.29,59.66.34,89.49,0,17.94,0,35.87,0,54.67Zm723.56-113.05c-.11,69.87,49.69,119.89,119.66,120.18,69.38.29,121-51,120.52-119.71-.46-69.82-50.46-118.93-121-118.8C1174.42,655.44,1124.77,704.72,1124.66,773.65ZM703.55,655.49c-70.59.87-120.31,51-119.37,120.31.93,68.41,51.84,118.36,120.33,118.05C775.22,893.53,826.08,842.07,825,772,823.88,703.85,772.58,654.63,703.55,655.49Zm224.28,231c0-46.2,1.95-90.31-.72-134.13-1.62-26.6,27.52-42.3,51.94-43.37,26.55-1.16,40.56,12.59,40.91,40.34.5,38.85.17,77.72.19,116.58v20.51h59.16c0-59.26,1.79-117.39-.69-175.34-1.4-32.46-25.22-51.22-57.84-54.92-34.6-3.93-64.43,7-91.64,30.34-1.09-10.09-1.89-17.43-2.68-24.69H868.89V886.5Z"/><path class="cls-2" d="M1301.54,773.51c.36,38.44-22.39,65.42-55.73,66.07-33.87.66-57.71-25.19-58.41-63.36-.72-39.06,22.62-66.74,56.73-67.27C1277.32,708.44,1301.17,735.26,1301.54,773.51Z"/><path class="cls-3" d="M703.06,839.59c-33.08-.65-56.42-28.17-56-66.11s24.58-64.72,57.84-64.34c34,.39,58.51,29.15,57.18,67.09C760.69,814.44,736.67,840.24,703.06,839.59Z"/></g></svg>