<svg xmlns="http://www.w3.org/2000/svg" viewBox="0 0 884 626"><defs><style>.cls-1{fill:#4ab54a;}.cls-2{fill:#45b649;}</style></defs><title>sМонтажная область 8</title><g id="Слой_7" data-name="Слой 7"><path class="cls-1" d="M226.67,15.33V234a393.43,393.43,0,0,1,56.83,0c18,1.3,35.12,2.54,54.5,8,15.6,4.39,51.55,14.52,79,46,22.62,25.94,28.34,53.63,34,81a256.38,256.38,0,0,1,2,92H673.34V15.33ZM580.5,370.5H545A251.66,251.66,0,0,0,521,282c-22.39-46.49-53-73.15-60.5-79.5-33.69-28.44-66.84-39.58-83.5-45a267.61,267.61,0,0,0-58-12v-36L580.5,108Z"/><rect x="226.67" y="289" width="173.92" height="173.92"/><path class="cls-2" d="M118.75,535a30,30,0,0,0-5-15c-4.66-6.7-11-9.37-14.25-10.67A35.79,35.79,0,0,0,86,506.75l-64-1V603.5H49.26v-33q6.08,0,12.24,0c11.12,0,13.5.66,20,.26,5.62-.35,10.23-.67,16-2.75a33.34,33.34,0,0,0,11.25-6.25,30.5,30.5,0,0,0,6.75-8.25C119.72,545.8,119.07,538.28,118.75,535ZM85.5,548.17a13.85,13.85,0,0,1-7.83,3.66H48.17V524.67l30.66,1A11.63,11.63,0,0,1,84,527.33c5.13,3.18,5.62,9.35,5.67,10.17A14.15,14.15,0,0,1,85.5,548.17Z"/><path class="cls-2" d="M130.5,533v70.5h25V564a26.08,26.08,0,0,1,4.5-9.48c1.31-1.73,4.6-6.06,10.25-8,1.64-.56,4.53-.8,10.25-1.25,3.21-.25,5.88-.41,7.75-.5v-14.5a42.32,42.32,0,0,0-12,.5,32.26,32.26,0,0,0-10,3.25,29.19,29.19,0,0,0-10.75,10.25V533Z"/><rect class="cls-2" x="200.5" y="533.5" width="25.25" height="70"/><rect class="cls-2" x="200.5" y="505.75" width="26.75" height="17.25"/><path class="cls-2" d="M235.5,533.25q15.25,35,30.5,70h28l30.72-70.5H297l-16.75,49-17.5-49Z"/><path class="cls-2" d="M410.25,600.25a16.7,16.7,0,0,1-1.62-7,205.59,205.59,0,0,1,.37-21.62c1.5-17.48.74-20.48.13-22.38a26.08,26.08,0,0,0-7.38-11.75C396.58,533,391,532.2,381,530.88a84.49,84.49,0,0,0-20.75,0c-5.52.65-9.37,1.15-14,3.5A26.88,26.88,0,0,0,331,555.5h25a9.8,9.8,0,0,1,1.75-6.75c.67-.88,2.16-2.45,6.25-3.5,1.67-.43,11.76-3.53,17.25,1.25a8,8,0,0,1,2.25,3A13.73,13.73,0,0,1,382,560c-2,2.37-5.54,2-11,2,0,0-5.51,0-13.33.75-5.74.55-10.95,1.09-16.84,3.75-3.76,1.7-7.19,3.25-9.83,7-3.16,4.48-3.23,9.28-3.25,12,0,3.22-.06,8.36,3.25,12.75s8.12,5.57,14,7c7,1.72,12.67,1.23,18.25.75,5-.43,8.24-.74,12.25-2.5a29.2,29.2,0,0,0,9.75-7l1.5,7.75,26.5.25A16.28,16.28,0,0,1,410.25,600.25Zm-32.75-12a17.26,17.26,0,0,1-12.44,3.81c-4.66-.54-11.19-3.49-11.5-7.93-.25-3.75,4-6.75,4.94-7.38,3.67-2.57,6.88-2.19,13.17-3.25a70.65,70.65,0,0,0,12.5-3.33C384.27,571,385.4,581.86,377.5,588.25Z"/><path class="cls-2" d="M431.33,511.17V532.5H415.49v15h16v37c0,1.25-1.24,5.19.16,9.67a16.35,16.35,0,0,0,6.66,8.83c2.31,1.44,4.3,1.79,7.67,2.33,2.59.42,6.36.8,15.67,0,2.91-.24,6.84-.65,11.5-1.33q.07-7.17.16-14.33a13,13,0,0,1-3.83,2c-1,.31-7.4,2.23-11-1.67-2.41-2.61-2.1-6.26-2-7.17v-36h16.83v-13.5H456V511.66Z"/><path class="cls-2" d="M585,574.67A24.38,24.38,0,0,0,578.67,561a30.2,30.2,0,0,0-16.84-9.67A27.38,27.38,0,0,0,572,545.67c2-1.8,5.83-5.16,7.33-10.84,2-7.56-1.47-14.11-2.83-16.33-6.67-10.84-20.23-11.24-21.33-11.25L486,506.67v96.67h40.67c11.89.28,21.92-.13,29.66-.67,6.94-.49,12.16-1.09,17.34-4.67a27,27,0,0,0,8-9A24.15,24.15,0,0,0,585,574.67Zm-71.87-49h29.12a9.28,9.28,0,0,1,6.5,1.5,9.67,9.67,0,0,1,3.88,7.62,9.56,9.56,0,0,1-9.63,9.63H513.13ZM552.82,583a10.07,10.07,0,0,1-7,2.9H513.13V563H545a9.36,9.36,0,0,1,7.12,1.83c4.12,3.18,4.24,8.61,4.24,9.29A12.74,12.74,0,0,1,552.82,583Z"/><path class="cls-2" d="M676.25,600.25a16.7,16.7,0,0,1-1.62-7,205.59,205.59,0,0,1,.37-21.62c1.5-17.48.74-20.48.13-22.38a26.08,26.08,0,0,0-7.38-11.75C662.58,533,657,532.2,647,530.88a84.49,84.49,0,0,0-20.75,0c-5.52.65-9.37,1.15-14,3.5A26.88,26.88,0,0,0,597,555.5h25a9.8,9.8,0,0,1,1.75-6.75c.67-.88,2.16-2.45,6.25-3.5,1.67-.43,11.76-3.53,17.25,1.25a8,8,0,0,1,2.25,3A13.73,13.73,0,0,1,648,560c-2,2.37-5.54,2-11,2,0,0-5.51,0-13.33.75-5.74.55-10.95,1.09-16.84,3.75-3.76,1.7-7.19,3.25-9.83,7-3.16,4.48-3.23,9.28-3.25,12,0,3.22-.06,8.36,3.25,12.75s8.12,5.57,14,7c7,1.72,12.67,1.23,18.25.75,5-.43,8.24-.74,12.25-2.5a29.2,29.2,0,0,0,9.75-7l1.5,7.75,26.5.25A16.28,16.28,0,0,1,676.25,600.25Zm-32.75-12a17.26,17.26,0,0,1-12.44,3.81c-4.66-.54-11.19-3.49-11.5-7.93-.25-3.75,4-6.75,4.94-7.38,3.67-2.57,6.88-2.19,13.17-3.25a70.65,70.65,0,0,0,12.5-3.33C650.27,571,651.4,581.86,643.5,588.25Z"/><path class="cls-2" d="M694.5,532.5v71.25h25.25V559.5a15.87,15.87,0,0,1,4.13-9.12,16.19,16.19,0,0,1,10.25-4.88c2.21-.25,6-.69,9.62,1.75,4.52,3.08,5.16,8.36,5.25,9.25v47h26.77V557.24a28.87,28.87,0,0,0-2-11,25.18,25.18,0,0,0-7-10.25c-4.84-4.12-10.06-4.93-14.5-5.62a39.9,39.9,0,0,0-19.37,1.75,38.9,38.9,0,0,0-14.38,9.12c-.08-2.92-.17-5.83-.25-8.75Z"/><path class="cls-2" d="M789.33,603.75h26V581.17l7.25-7.25L845,603.75h29L838.67,562l34-27.67-31-.66-27.34,26q.17-26.5.34-53H789Z"/></g></svg>