<svg id="bigS" xmlns="http://www.w3.org/2000/svg" width="40.489" height="37.061" viewBox="0 0 40.489 37.061">
  <g id="_037---Floor-Plans" data-name="037---Floor-Plans" transform="translate(0 0)">
    <path id="Shape" d="M1.171,9.615A.686.686,0,0,0,0,10.1v4.52H2.059a.686.686,0,0,1,0,1.372H0v2.745H2.059a.686.686,0,0,1,0,1.372H0v2.745H2.059a.686.686,0,0,1,0,1.372H0v2.745H2.059a.686.686,0,0,1,0,1.372H0V31.09H2.059a.686.686,0,0,1,0,1.372H0v2.745H2.059a.686.686,0,1,1,0,1.372H0v2.745a.686.686,0,0,0,.686.686H3.431V37.952a.686.686,0,1,1,1.372,0v2.059H7.549V37.952a.686.686,0,1,1,1.372,0v2.059h2.745V37.952a.686.686,0,1,1,1.372,0v2.059h2.745V37.952a.686.686,0,1,1,1.372,0v2.059H19.9V37.952a.686.686,0,1,1,1.372,0v2.059h2.745V37.952a.686.686,0,1,1,1.372,0v2.059h4.52A.686.686,0,0,0,30.4,38.84ZM5.49,34.521V21.7L18.314,34.521Z" transform="translate(0 -3.639)" fill="#fff"/>
    <path id="Shape-2" data-name="Shape" d="M7.686,7.862H20.725V20.214a.686.686,0,1,0,1.372,0V7.862H28.96a.686.686,0,0,0,.582-.323l3.431-5.49a.687.687,0,1,0-1.167-.727L28.579,6.489H7.686a.686.686,0,0,0,0,1.372Z" transform="translate(-2.196 -0.998)" fill="#fff"/>
    <path id="Shape-3" data-name="Shape" d="M49.215,9h-5.49a.686.686,0,0,0,0,1.372h4.8V24.128l-11.613-.02a.48.48,0,0,0-.053-.011c-.019,0-.034.009-.052.01l-6.124-.01a.686.686,0,0,0,0,1.372l5.49.01v6.167a.686.686,0,1,0,1.372,0V25.482l10.98.019V39.195h-5.49a.686.686,0,0,0,0,1.372h6.176a.686.686,0,0,0,.686-.686V9.686A.686.686,0,0,0,49.215,9Z" transform="translate(-9.413 -3.509)" fill="#fff"/>
    <path id="Shape-4" data-name="Shape" d="M38.168,15.2a.686.686,0,0,0-.97.97l2.946,2.946L37.2,22.067a.686.686,0,1,0,.97.97l2.946-2.946,2.946,2.946a.686.686,0,0,0,.97-.97l-2.946-2.946,2.946-2.946a.686.686,0,0,0-.97-.97l-2.946,2.946Z" transform="translate(-11.605 -5.395)" fill="#fff"/>
  </g>
</svg>
