<svg xmlns="http://www.w3.org/2000/svg" width="46" height="46" viewBox="0 0 46 46">
  <g id="bucket" transform="translate(0 -0.002)">
    <path id="Контур_541" data-name="Контур 541" d="M317.7,37.916h-6.828V1.35a1.348,1.348,0,1,0-2.7,0V37.916h-6.828A1.348,1.348,0,0,0,300,39.263v5.391A1.348,1.348,0,0,0,301.352,46H317.7a1.348,1.348,0,0,0,1.348-1.348V39.263A1.348,1.348,0,0,0,317.7,37.916Z" transform="translate(-273.05)" fill="#fff"/>
    <path id="Контур_542" data-name="Контур 542" d="M90,272H98.09v8.086H90Z" transform="translate(-81.917 -247.563)" fill="#fff"/>
    <path id="Контур_543" data-name="Контур 543" d="M12.129,152A12.142,12.142,0,0,0,0,164.13H0c0,.086-.058-.776,1.351,18.963A1.347,1.347,0,0,0,2.7,184.345H21.563a1.347,1.347,0,0,0,1.344-1.252c1.41-19.758,1.351-18.877,1.351-18.963h0A12.142,12.142,0,0,0,12.129,152Zm6.738,10.781v12.129a1.348,1.348,0,0,1-2.7,0v-1.348h-2.7v1.348a1.348,1.348,0,0,1-2.7,0v-1.348h-2.7v1.348a1.348,1.348,0,0,1-2.7,0V162.783h-2.6a9.433,9.433,0,0,1,18.673,0Z" transform="translate(0 -138.344)" fill="#fff"/>
  </g>
</svg>
