<svg xmlns="http://www.w3.org/2000/svg" width="32.687" height="42.969" viewBox="0 0 32.687 42.969">
  <g id="icon" transform="translate(0 -0.001)">
    <path id="Контур_389" data-name="Контур 389" d="M30.784,0H7.9A4.932,4.932,0,0,0,3,4.958V38.011a4.932,4.932,0,0,0,4.9,4.958H30.784a4.932,4.932,0,0,0,4.9-4.958V4.958A4.932,4.932,0,0,0,30.784,0Zm1.634,13.221a1.646,1.646,0,0,1-1.634,1.653H7.9a1.646,1.646,0,0,1-1.634-1.653V4.958A1.646,1.646,0,0,1,7.9,3.305H30.784a1.646,1.646,0,0,1,1.634,1.653ZM12.806,21.484a1.646,1.646,0,0,1-1.634,1.653H7.9a1.646,1.646,0,0,1-1.634-1.653V19.832A1.646,1.646,0,0,1,7.9,18.179h3.269a1.646,1.646,0,0,1,1.634,1.653Zm9.806,0a1.646,1.646,0,0,1-1.634,1.653H17.709a1.646,1.646,0,0,1-1.634-1.653V19.832a1.646,1.646,0,0,1,1.634-1.653h3.269a1.646,1.646,0,0,1,1.634,1.653Zm9.806,0a1.646,1.646,0,0,1-1.634,1.653H27.515a1.646,1.646,0,0,1-1.634-1.653V19.832a1.646,1.646,0,0,1,1.634-1.653h3.269a1.646,1.646,0,0,1,1.634,1.653ZM12.806,29.748A1.646,1.646,0,0,1,11.172,31.4H7.9a1.646,1.646,0,0,1-1.634-1.653V28.1A1.646,1.646,0,0,1,7.9,26.442h3.269A1.646,1.646,0,0,1,12.806,28.1Zm9.806,0A1.646,1.646,0,0,1,20.978,31.4H17.709a1.646,1.646,0,0,1-1.634-1.653V28.1a1.646,1.646,0,0,1,1.634-1.653h3.269A1.646,1.646,0,0,1,22.612,28.1Zm9.806,0A1.646,1.646,0,0,1,30.784,31.4H27.515a1.646,1.646,0,0,1-1.634-1.653V28.1a1.646,1.646,0,0,1,1.634-1.653h3.269A1.646,1.646,0,0,1,32.418,28.1ZM12.806,38.011a1.646,1.646,0,0,1-1.634,1.653H7.9a1.646,1.646,0,0,1-1.634-1.653V36.358A1.646,1.646,0,0,1,7.9,34.706h3.269a1.646,1.646,0,0,1,1.634,1.653Zm9.806,0a1.646,1.646,0,0,1-1.634,1.653H17.709a1.646,1.646,0,0,1-1.634-1.653V36.358a1.646,1.646,0,0,1,1.634-1.653h3.269a1.646,1.646,0,0,1,1.634,1.653Zm9.806,0a1.646,1.646,0,0,1-1.634,1.653H27.515a1.646,1.646,0,0,1-1.634-1.653V36.358a1.646,1.646,0,0,1,1.634-1.653h3.269a1.646,1.646,0,0,1,1.634,1.653Z" transform="translate(-3 0.001)" fill="#fff"/>
    <g id="Сгруппировать_97" data-name="Сгруппировать 97" transform="translate(20.041 5.42)">
      <g id="Сгруппировать_96" data-name="Сгруппировать 96">
        <path id="Контур_390" data-name="Контур 390" d="M21.419,4.806v5.419H17.806V4.806h3.613m0-1.806H17.806A1.809,1.809,0,0,0,16,4.806v5.419a1.809,1.809,0,0,0,1.806,1.806h3.613a1.809,1.809,0,0,0,1.806-1.806V4.806A1.809,1.809,0,0,0,21.419,3Z" transform="translate(-16 -3)" fill="#fff"/>
      </g>
    </g>
  </g>
</svg>
