<?xml version="1.0" encoding="iso-8859-1"?>
<!-- Generator: Adobe Illustrator 21.0.0, SVG Export Plug-In . SVG Version: 6.00 Build 0)  -->
<svg version="1.1" id="Capa_1" xmlns="http://www.w3.org/2000/svg" xmlns:xlink="http://www.w3.org/1999/xlink" x="0px" y="0px"
	 viewBox="0 0 512 512" style="enable-background:new 0 0 512 512;" xml:space="preserve">
<linearGradient id="SVGID_1_" gradientUnits="userSpaceOnUse" x1="230.3898" y1="283.9642" x2="588.7998" y2="-74.4458" gradientTransform="matrix(1.0039 0 0 -1.0039 0.1922 516.5609)">
	<stop  offset="0" style="stop-color:#777777"/>
	<stop  offset="1" style="stop-color:#3B4041"/>
</linearGradient>
<path style="fill:url(#SVGID_1_);" d="M433.24,511.995H78.76c-19.348,0-35.031-15.684-35.031-35.031V35.031
	C43.729,15.684,59.413,0,78.76,0H433.24c19.348,0,35.031,15.684,35.031,35.031v441.933
	C468.271,496.311,452.587,511.995,433.24,511.995z"/>
<linearGradient id="SVGID_2_" gradientUnits="userSpaceOnUse" x1="261.8359" y1="424.9168" x2="31.2559" y2="213.3668" gradientTransform="matrix(1.0039 0 0 -1.0039 0.1922 516.5609)">
	<stop  offset="0" style="stop-color:#777777"/>
	<stop  offset="1" style="stop-color:#3B4041"/>
</linearGradient>
<path style="fill:url(#SVGID_2_);" d="M433.24,0H78.76C59.413,0,43.729,15.684,43.729,35.031v138.24h424.542V35.031
	C468.271,15.684,452.587,0,433.24,0z"/>
<linearGradient id="SVGID_3_" gradientUnits="userSpaceOnUse" x1="254.8091" y1="407.893" x2="254.8091" y2="547.042" gradientTransform="matrix(1.0039 0 0 -1.0039 0.1922 516.5609)">
	<stop  offset="0" style="stop-color:#A7F3CE"/>
	<stop  offset="1" style="stop-color:#61DB99"/>
</linearGradient>
<path style="fill:url(#SVGID_3_);" d="M98.638,29.648h314.724c11.079,0,20.06,8.981,20.06,20.06v73.854
	c0,11.079-8.981,20.06-20.06,20.06H98.638c-11.079,0-20.06-8.981-20.06-20.06V49.709C78.578,38.63,87.559,29.648,98.638,29.648z"/>
<linearGradient id="SVGID_4_" gradientUnits="userSpaceOnUse" x1="254.8086" y1="446.933" x2="254.8086" y2="319.193" gradientTransform="matrix(1.0039 0 0 -1.0039 0.1922 516.5609)">
	<stop  offset="0" style="stop-color:#A7F3CE"/>
	<stop  offset="1" style="stop-color:#61DB99"/>
</linearGradient>
<path style="fill:url(#SVGID_4_);" d="M409.61,138.949H102.39c-10.469,0-18.955-8.486-18.955-18.955V53.278
	c0-10.469,8.486-18.955,18.955-18.955h307.22c10.469,0,18.955,8.486,18.955,18.955v66.716
	C428.565,130.462,420.079,138.949,409.61,138.949z"/>
<linearGradient id="SVGID_5_" gradientUnits="userSpaceOnUse" x1="318.9264" y1="97.5007" x2="109.6964" y2="306.7408" gradientTransform="matrix(1.0039 0 0 -1.0039 0.1922 516.5609)">
	<stop  offset="0" style="stop-color:#3B4041;stop-opacity:0"/>
	<stop  offset="1" style="stop-color:#3B4041"/>
</linearGradient>
<path style="fill:url(#SVGID_5_);" d="M468.269,464.617v12.351c0,1.893-0.148,3.767-0.442,5.576
	C465.155,499.239,450.69,512,433.236,512H311.748L114.269,314.523c-14.255-13.183-23.198-32.034-23.198-52.991
	c0-39.851,32.308-72.159,72.159-72.159c20.957,0,39.809,8.942,52.991,23.198L468.269,464.617z"/>
<linearGradient id="SVGID_6_" gradientUnits="userSpaceOnUse" x1="452.0564" y1="149.1808" x2="348.2764" y2="252.9708" gradientTransform="matrix(1.0039 0 0 -1.0039 0.1922 516.5609)">
	<stop  offset="0" style="stop-color:#3B4041;stop-opacity:0"/>
	<stop  offset="1" style="stop-color:#3B4041"/>
</linearGradient>
<path style="fill:url(#SVGID_6_);" d="M468.269,279.079v197.888c0,1.893-0.148,3.767-0.442,5.576l-168.02-168.02
	c-11.362-10.499-19.337-24.586-22.113-40.482c-0.716-4.061-1.083-8.237-1.083-12.509c0-39.851,32.308-72.159,72.159-72.159
	c20.946,0,39.81,8.942,52.991,23.198L468.269,279.079z"/>
<linearGradient id="SVGID_7_" gradientUnits="userSpaceOnUse" x1="253.7794" y1="4.5437" x2="157.5394" y2="100.7738" gradientTransform="matrix(1.0039 0 0 -1.0039 0.1922 516.5609)">
	<stop  offset="0" style="stop-color:#3B4041;stop-opacity:0"/>
	<stop  offset="1" style="stop-color:#3B4041"/>
</linearGradient>
<path style="fill:url(#SVGID_7_);" d="M356.911,512H153.006l-38.736-38.736c-14.255-13.183-23.198-32.034-23.198-52.991
	c0-39.851,32.308-72.159,72.159-72.159c20.957,0,39.809,8.942,52.991,23.198L356.911,512z"/>
<linearGradient id="SVGID_8_" gradientUnits="userSpaceOnUse" x1="415.7058" y1="27.4103" x2="341.5758" y2="101.5503" gradientTransform="matrix(1.0039 0 0 -1.0039 0.1922 516.5609)">
	<stop  offset="0" style="stop-color:#3B4041;stop-opacity:0"/>
	<stop  offset="1" style="stop-color:#3B4041"/>
</linearGradient>
<path style="fill:url(#SVGID_8_);" d="M468.269,437.821v39.146c0,1.893-0.148,3.767-0.442,5.576
	C465.155,499.239,450.69,512,433.236,512h-94.694l-38.736-38.736c-11.362-10.499-19.337-24.586-22.113-40.482
	c-0.716-4.061-1.083-8.237-1.083-12.509c0-39.851,32.308-72.159,72.159-72.159c20.946,0,39.809,8.942,52.991,23.198L468.269,437.821
	z"/>
<linearGradient id="SVGID_9_" gradientUnits="userSpaceOnUse" x1="306.7786" y1="294.463" x2="392.2586" y2="208.983" gradientTransform="matrix(1.0039 0 0 -1.0039 0.1922 516.5609)">
	<stop  offset="0" style="stop-color:#FFFFFF"/>
	<stop  offset="1" style="stop-color:#C3C3C3"/>
</linearGradient>
<circle style="fill:url(#SVGID_9_);" cx="348.762" cy="261.532" r="72.159"/>
<linearGradient id="SVGID_10_" gradientUnits="userSpaceOnUse" x1="396.4686" y1="204.753" x2="317.3686" y2="283.853" gradientTransform="matrix(1.0039 0 0 -1.0039 0.1922 516.5609)">
	<stop  offset="0" style="stop-color:#C3C3C3;stop-opacity:0"/>
	<stop  offset="0.267" style="stop-color:#A4A4A4;stop-opacity:0.267"/>
	<stop  offset="0.542" style="stop-color:#8B8B8B;stop-opacity:0.542"/>
	<stop  offset="0.794" style="stop-color:#7C7C7C;stop-opacity:0.794"/>
	<stop  offset="1" style="stop-color:#777777"/>
</linearGradient>
<path style="fill:url(#SVGID_10_);" d="M417.299,284.168l-31.78-33.036c-0.833-0.866-1.984-1.356-3.185-1.356h-64.594
	c-2.442,0-4.42,1.979-4.42,4.42v17.258c0,1.176,0.468,2.303,1.301,3.132l55.968,55.744
	C392.616,323.35,410.065,306.084,417.299,284.168z"/>
<linearGradient id="SVGID_11_" gradientUnits="userSpaceOnUse" x1="311.9026" y1="254.0305" x2="382.5216" y2="254.0305" gradientTransform="matrix(1.0039 0 0 -1.0039 0.1922 516.5609)">
	<stop  offset="0" style="stop-color:#FFB92D"/>
	<stop  offset="1" style="stop-color:#F59500"/>
</linearGradient>
<path style="fill:url(#SVGID_11_);" d="M379.67,249.777h-61.808c-2.51,0-4.544,2.034-4.544,4.544v14.427
	c0,2.51,2.034,4.544,4.544,4.544h61.808c2.51,0,4.544-2.034,4.544-4.544V254.32C384.214,251.811,382.18,249.777,379.67,249.777z"/>
<linearGradient id="SVGID_12_" gradientUnits="userSpaceOnUse" x1="144.3315" y1="272.1059" x2="187.5915" y2="228.8559" gradientTransform="matrix(1.0039 0 0 -1.0039 0.1922 516.5609)">
	<stop  offset="0" style="stop-color:#FFFFFF"/>
	<stop  offset="1" style="stop-color:#C3C3C3"/>
</linearGradient>
<circle style="fill:url(#SVGID_12_);" cx="163.238" cy="261.532" r="72.159"/>
<linearGradient id="SVGID_13_" gradientUnits="userSpaceOnUse" x1="211.6682" y1="204.7626" x2="132.5682" y2="283.8526" gradientTransform="matrix(1.0039 0 0 -1.0039 0.1922 516.5609)">
	<stop  offset="0" style="stop-color:#C3C3C3;stop-opacity:0"/>
	<stop  offset="0.267" style="stop-color:#A4A4A4;stop-opacity:0.267"/>
	<stop  offset="0.542" style="stop-color:#8B8B8B;stop-opacity:0.542"/>
	<stop  offset="0.794" style="stop-color:#7C7C7C;stop-opacity:0.794"/>
	<stop  offset="1" style="stop-color:#777777"/>
</linearGradient>
<path style="fill:url(#SVGID_13_);" d="M231.766,284.168l-55.475-56.752c-0.831-0.851-1.972-1.33-3.161-1.33h-17.234
	c-2.442,0-4.42,1.979-4.42,4.42v19.27h-19.269c-2.442,0-4.42,1.979-4.42,4.42v17.258c0,1.176,0.468,2.303,1.301,3.132l55.968,55.744
	C207.083,323.35,224.533,306.084,231.766,284.168z"/>
<linearGradient id="SVGID_14_" gradientUnits="userSpaceOnUse" x1="127.0956" y1="254.0305" x2="197.7146" y2="254.0305" gradientTransform="matrix(1.0039 0 0 -1.0039 0.1922 516.5609)">
	<stop  offset="0" style="stop-color:#FFB92D"/>
	<stop  offset="1" style="stop-color:#F59500"/>
</linearGradient>
<path style="fill:url(#SVGID_14_);" d="M194.138,249.777h-14.603c-2.51,0-4.544-2.034-4.544-4.544V230.63
	c0-2.51-2.034-4.544-4.544-4.544H156.02c-2.51,0-4.544,2.034-4.544,4.544v14.603c0,2.51-2.034,4.544-4.544,4.544H132.33
	c-2.51,0-4.544,2.034-4.544,4.544v14.427c0,2.51,2.034,4.544,4.544,4.544h14.603c2.51,0,4.544,2.034,4.544,4.544v14.603
	c0,2.51,2.034,4.544,4.544,4.544h14.427c2.51,0,4.544-2.034,4.544-4.544v-14.603c0-2.51,2.034-4.544,4.544-4.544h14.603
	c2.51,0,4.544-2.034,4.544-4.544V254.32C198.682,251.811,196.648,249.777,194.138,249.777z"/>
<linearGradient id="SVGID_15_" gradientUnits="userSpaceOnUse" x1="304.8336" y1="138.288" x2="389.8836" y2="53.238" gradientTransform="matrix(1.0039 0 0 -1.0039 0.1922 516.5609)">
	<stop  offset="0" style="stop-color:#FFB92D"/>
	<stop  offset="1" style="stop-color:#F59500"/>
</linearGradient>
<circle style="fill:url(#SVGID_15_);" cx="348.762" cy="420.272" r="72.159"/>
<linearGradient id="SVGID_16_" gradientUnits="userSpaceOnUse" x1="374.6184" y1="47.9828" x2="312.3384" y2="110.2628" gradientTransform="matrix(1.0039 0 0 -1.0039 0.1922 516.5609)">
	<stop  offset="0" style="stop-color:#BE3F45;stop-opacity:0"/>
	<stop  offset="1" style="stop-color:#BE3F45"/>
</linearGradient>
<path style="fill:url(#SVGID_16_);" d="M410.954,456.884c-6.323,10.721-15.339,19.673-26.122,25.901
	c-9.416,5.449-20.178,8.826-31.667,9.51l-38.55-38.387c-0.833-0.829-1.301-1.957-1.301-3.132v-17.266c0-2.442,1.979-4.42,4.42-4.42
	h64.594c1.202,0,2.352,0.49,3.185,1.355L410.954,456.884z"/>
<linearGradient id="SVGID_17_" gradientUnits="userSpaceOnUse" x1="383.8187" y1="79.793" x2="300.5221" y2="163.0896" gradientTransform="matrix(1.0039 0 0 -1.0039 0.1922 516.5609)">
	<stop  offset="0" style="stop-color:#BE3F45;stop-opacity:0"/>
	<stop  offset="1" style="stop-color:#BE3F45"/>
</linearGradient>
<path style="fill:url(#SVGID_17_);" d="M420.76,425.197c-0.768,11.509-4.251,22.282-9.805,31.688
	c-6.323,10.721-15.339,19.673-26.122,25.901L331,429.09l-16.386-16.347c-0.831-0.829-1.298-1.956-1.298-3.129v-17.258
	c0-2.442,1.979-4.42,4.42-4.42h64.619c1.188,0,2.325,0.478,3.156,1.325L420.76,425.197z"/>
<g>
	<path style="fill:#FFFFFF;" d="M379.67,429.093h-61.808c-2.51,0-4.544,2.034-4.544,4.544v14.427c0,2.51,2.034,4.544,4.544,4.544
		h61.808c2.51,0,4.544-2.034,4.544-4.544v-14.427C384.214,431.127,382.18,429.093,379.67,429.093z"/>
	<path style="fill:#FFFFFF;" d="M379.67,387.932h-61.808c-2.51,0-4.544,2.034-4.544,4.544v14.427c0,2.51,2.034,4.544,4.544,4.544
		h61.808c2.51,0,4.544-2.034,4.544-4.544v-14.427C384.214,389.966,382.18,387.932,379.67,387.932z"/>
</g>
<linearGradient id="SVGID_18_" gradientUnits="userSpaceOnUse" x1="121.9686" y1="136.353" x2="207.4486" y2="50.873" gradientTransform="matrix(1.0039 0 0 -1.0039 0.1922 516.5609)">
	<stop  offset="0" style="stop-color:#FFFFFF"/>
	<stop  offset="1" style="stop-color:#C3C3C3"/>
</linearGradient>
<circle style="fill:url(#SVGID_18_);" cx="163.238" cy="420.272" r="72.159"/>
<linearGradient id="SVGID_19_" gradientUnits="userSpaceOnUse" x1="193.8947" y1="98.029" x2="145.3247" y2="146.5991" gradientTransform="matrix(1.0039 0 0 -1.0039 0.1922 516.5609)">
	<stop  offset="0" style="stop-color:#C3C3C3;stop-opacity:0"/>
	<stop  offset="0.267" style="stop-color:#A4A4A4;stop-opacity:0.267"/>
	<stop  offset="0.542" style="stop-color:#8B8B8B;stop-opacity:0.542"/>
	<stop  offset="0.794" style="stop-color:#7C7C7C;stop-opacity:0.794"/>
	<stop  offset="1" style="stop-color:#777777"/>
</linearGradient>
<path style="fill:url(#SVGID_19_);" d="M174.75,375.891c-2.867-3.101-6.958-5.055-11.516-5.055c-8.67,0-15.697,7.028-15.697,15.698
	c0,4.557,1.954,8.648,5.055,11.515l27.923,27.923c0.28,0.302,0.57,0.593,0.872,0.872c0.279,0.302,0.57,0.592,0.872,0.872
	c0.28,0.302,0.57,0.593,0.872,0.872c0.28,0.302,0.57,0.593,0.872,0.872c0.28,0.302,0.57,0.593,0.872,0.872
	c0.28,0.302,0.57,0.593,0.872,0.872c0.279,0.302,0.57,0.592,0.872,0.872c0.28,0.302,0.57,0.593,0.872,0.872
	c0.279,0.302,0.57,0.592,0.872,0.872c0.28,0.302,0.57,0.593,0.872,0.872c0.28,0.302,0.57,0.593,0.872,0.872
	c0.279,0.302,0.57,0.592,0.872,0.872c0.28,0.302,0.57,0.593,0.872,0.872c0.279,0.302,0.57,0.592,0.872,0.872
	c0.28,0.302,0.57,0.593,0.872,0.872c0.28,0.302,0.57,0.592,0.872,0.872c0.279,0.302,0.57,0.592,0.872,0.872
	c0.28,0.302,0.57,0.592,0.872,0.872c2.867,3.101,6.958,5.055,11.516,5.055c8.67,0,15.697-7.028,15.697-15.698
	c0-4.557-1.954-8.648-5.055-11.515c-0.28-0.302-0.57-0.593-0.872-0.872c-0.279-0.302-0.57-0.592-0.872-0.872
	c-0.28-0.302-0.57-0.592-0.872-0.872c-0.28-0.302-0.57-0.592-0.872-0.872c-0.279-0.302-0.57-0.593-0.872-0.872
	c-0.28-0.302-0.57-0.593-0.872-0.872c-0.279-0.302-0.57-0.592-0.872-0.872c-0.28-0.302-0.57-0.593-0.872-0.872
	c-0.28-0.302-0.57-0.593-0.872-0.872c-0.279-0.302-0.57-0.592-0.872-0.872L174.75,375.891z"/>
<linearGradient id="SVGID_20_" gradientUnits="userSpaceOnUse" x1="205.349" y1="52.9434" x2="126.259" y2="132.0434" gradientTransform="matrix(1.0039 0 0 -1.0039 0.1922 516.5609)">
	<stop  offset="0" style="stop-color:#C3C3C3;stop-opacity:0"/>
	<stop  offset="0.267" style="stop-color:#A4A4A4;stop-opacity:0.267"/>
	<stop  offset="0.542" style="stop-color:#8B8B8B;stop-opacity:0.542"/>
	<stop  offset="0.794" style="stop-color:#7C7C7C;stop-opacity:0.794"/>
	<stop  offset="1" style="stop-color:#777777"/>
</linearGradient>
<path style="fill:url(#SVGID_20_);" d="M231.766,442.904l-31.78-33.036c-0.833-0.866-1.984-1.356-3.185-1.356h-64.594
	c-2.442,0-4.42,1.979-4.42,4.42v17.258c0,1.176,0.468,2.303,1.301,3.132l55.968,55.744
	C207.083,482.086,224.533,464.82,231.766,442.904z"/>
<linearGradient id="SVGID_21_" gradientUnits="userSpaceOnUse" x1="127.0956" y1="95.9145" x2="197.7146" y2="95.9145" gradientTransform="matrix(1.0039 0 0 -1.0039 0.1922 516.5609)">
	<stop  offset="0" style="stop-color:#FFB92D"/>
	<stop  offset="1" style="stop-color:#F59500"/>
</linearGradient>
<path style="fill:url(#SVGID_21_);" d="M194.138,408.513H132.33c-2.51,0-4.544,2.034-4.544,4.544v14.427
	c0,2.51,2.034,4.544,4.544,4.544h61.808c2.51,0,4.544-2.034,4.544-4.544v-14.427C198.682,410.547,196.648,408.513,194.138,408.513z"
	/>
<linearGradient id="SVGID_22_" gradientUnits="userSpaceOnUse" x1="155.9836" y1="135.948" x2="177.9136" y2="114.018" gradientTransform="matrix(1.0039 0 0 -1.0039 0.1922 516.5609)">
	<stop  offset="0" style="stop-color:#FFB92D"/>
	<stop  offset="1" style="stop-color:#F59500"/>
</linearGradient>
<circle style="fill:url(#SVGID_22_);" cx="163.238" cy="386.53" r="15.697"/>
<linearGradient id="SVGID_23_" gradientUnits="userSpaceOnUse" x1="184.1893" y1="40.5336" x2="154.6193" y2="70.0936" gradientTransform="matrix(1.0039 0 0 -1.0039 0.1922 516.5609)">
	<stop  offset="0" style="stop-color:#C3C3C3;stop-opacity:0"/>
	<stop  offset="0.267" style="stop-color:#A4A4A4;stop-opacity:0.267"/>
	<stop  offset="0.542" style="stop-color:#8B8B8B;stop-opacity:0.542"/>
	<stop  offset="0.794" style="stop-color:#7C7C7C;stop-opacity:0.794"/>
	<stop  offset="1" style="stop-color:#777777"/>
</linearGradient>
<path style="fill:url(#SVGID_23_);" d="M208.128,476.742l-33.377-33.378c-2.867-3.101-6.958-5.055-11.516-5.055
	c-8.67,0-15.697,7.028-15.697,15.698c0,4.557,1.954,8.648,5.055,11.515l25.393,25.393
	C189.212,488.583,199.474,483.63,208.128,476.742z"/>
<linearGradient id="SVGID_24_" gradientUnits="userSpaceOnUse" x1="155.9836" y1="68.738" x2="177.9136" y2="46.808" gradientTransform="matrix(1.0039 0 0 -1.0039 0.1922 516.5609)">
	<stop  offset="0" style="stop-color:#FFB92D"/>
	<stop  offset="1" style="stop-color:#F59500"/>
</linearGradient>
<circle style="fill:url(#SVGID_24_);" cx="163.238" cy="454.003" r="15.697"/>
<g>
	<path style="fill:#FFFFFF;" d="M234.281,63.884c0-1.817,0.734-3.25,2.202-4.299L247.387,49.1c0.768-0.768,1.712-1.154,2.831-1.154
		c1.258,0,2.393,0.333,3.407,0.996c1.013,0.666,1.52,1.556,1.52,2.673v69.411c0,1.118-0.56,2.01-1.678,2.673
		c-1.118,0.666-2.411,0.996-3.879,0.996c-1.539,0-2.849-0.331-3.932-0.996c-1.085-0.664-1.625-1.555-1.625-2.673V62.73l-3.67,4.614
		c-0.699,0.7-1.468,1.048-2.307,1.048c-1.048,0-1.94-0.472-2.673-1.416C234.649,66.032,234.281,65.002,234.281,63.884z"/>
	<path style="fill:#FFFFFF;" d="M265.002,121.032v-10.158c0-3.142,1.14-6.214,3.421-9.215c2.28-3.002,5.09-5.724,8.427-8.169
		l10.065-7.326c3.355-2.442,6.202-5.128,8.545-8.058c2.341-2.929,3.513-5.86,3.513-8.791c0-2.929-0.962-5.493-2.883-7.692
		c-1.923-2.197-4.736-3.296-8.441-3.296c-3.145,0-5.698,0.868-7.654,2.603c-1.959,1.735-2.936,4.302-2.936,7.702
		c0,1.11-0.542,2.084-1.625,2.915c-1.084,0.832-2.5,1.249-4.247,1.249c-3.355,0-5.033-2.061-5.033-6.186
		c0-5.452,2.113-9.909,6.344-13.368c4.229-3.461,9.279-5.19,15.15-5.19c6.22,0,11.516,1.948,15.885,5.844
		c4.367,3.895,6.553,8.93,6.553,15.106c0,4.187-1.172,8.111-3.513,11.774c-2.343,3.663-5.174,6.768-8.493,9.313
		c-3.321,2.548-6.642,4.954-9.961,7.222c-3.321,2.267-6.151,4.553-8.493,6.855c-2.343,2.303-3.513,4.536-3.513,6.699v3.976h30.825
		c0.979,0,1.835,0.472,2.569,1.416s1.101,2.08,1.101,3.407c0,1.328-0.365,2.5-1.094,3.513c-0.729,1.014-1.579,1.52-2.551,1.52
		h-37.071c-1.11,0-2.206-0.349-3.28-1.047C265.54,122.951,265.002,122.08,265.002,121.032z"/>
	<path style="fill:#FFFFFF;" d="M315.959,106.871c0-1.817,0.383-3.057,1.154-3.723c0.768-0.664,2.096-0.996,3.985-0.996
		c2.237,0,3.757,0.333,4.561,0.996c0.803,0.666,1.206,1.73,1.206,3.197c0,2.517,1.065,4.666,3.197,6.448
		c2.131,1.783,5.19,2.673,9.175,2.673c4.334,0,7.531-1.031,9.594-3.093c2.061-2.061,3.093-5.364,3.093-9.909v-1.992
		c0-7.619-4.265-11.429-12.791-11.429c-2.377,0-3.565-1.45-3.565-4.351c0-2.97,1.188-4.455,3.565-4.455
		c3.565,0,6.272-0.803,8.126-2.411c1.851-1.607,2.779-4.648,2.779-9.123c0-7.198-3.497-10.8-10.485-10.8
		c-3.915,0-6.71,0.816-8.388,2.445c-1.678,1.63-2.517,3.658-2.517,6.085c0,2.982-1.748,4.472-5.242,4.472
		c-2.377,0-3.931-0.349-4.666-1.049c-0.734-0.698-1.1-2.061-1.1-4.089c0-1.887,0.349-3.775,1.048-5.662
		c0.698-1.887,1.835-3.775,3.408-5.662c1.572-1.887,3.879-3.423,6.92-4.613c3.041-1.188,6.588-1.783,10.643-1.783
		c14.05,0,21.075,6.256,21.075,18.768c0,4.254-0.752,7.913-2.255,10.98c-1.504,3.067-3.549,5.228-6.134,6.483
		c7.13,2.791,10.695,8.201,10.695,16.228v1.989c0,7.888-2.202,13.664-6.606,17.33c-4.403,3.665-10.171,5.496-17.3,5.496
		c-7.549,0-13.3-1.887-17.248-5.662C317.933,115.889,315.959,111.626,315.959,106.871z"/>
	<path style="fill:#FFFFFF;" d="M367.125,103.348c0-0.767,0.21-1.535,0.629-2.303l25.374-49.956
		c1.048-2.025,2.655-3.037,4.823-3.037c1.188,0,2.411,0.419,3.669,1.258c1.258,0.839,1.887,1.853,1.887,3.041
		c0,0.42-0.176,0.98-0.524,1.678l-21.599,43.093h15.413V82.568c0-2.461,1.851-3.691,5.557-3.691c1.537,0,2.847,0.318,3.932,0.95
		c1.083,0.632,1.625,1.547,1.625,2.741v14.553h5.138c1.188,0,2.113,0.519,2.778,1.558c0.664,1.039,0.996,2.25,0.996,3.632
		c0,1.245-0.385,2.405-1.154,3.477c-0.77,1.073-1.643,1.609-2.621,1.609h-5.138v13.607c0,1.127-0.56,2.023-1.678,2.692
		c-1.119,0.669-2.411,1.001-3.879,1.001c-1.538,0-2.849-0.332-3.932-1.001c-1.085-0.669-1.625-1.564-1.625-2.692v-13.607h-25.793
		c-1.119,0-2.045-0.362-2.778-1.089C367.492,105.578,367.125,104.593,367.125,103.348z"/>
</g>
<g>
</g>
<g>
</g>
<g>
</g>
<g>
</g>
<g>
</g>
<g>
</g>
<g>
</g>
<g>
</g>
<g>
</g>
<g>
</g>
<g>
</g>
<g>
</g>
<g>
</g>
<g>
</g>
<g>
</g>
</svg>
