<svg xmlns="http://www.w3.org/2000/svg" width="30.818" height="26.779" viewBox="0 0 30.818 26.779">
  <g id="Слой_2" data-name="Слой 2" transform="translate(0.15 0.15)">
    <path id="Path_30" data-name="Path 30" d="M39,19.425V11.611c0-.182.015-.2.2-.2H51.79c.188,0,.195.006.195.193v9.128c0,.891.005,1.783.005,2.674q0,1.93-.005,3.861c0,.154-.018.173-.169.173H39.182c-.157,0-.182-.025-.182-.176V19.425Zm12.854-7.854H39.374c-.26,0-.234-.037-.234.24v6.2c0,1.245.007,2.49.008,3.735,0,.647-.007,1.294-.008,1.942v3.45c0,.1.028.138.136.138h12.5c.025,0,.051,0,.082-.007Z" transform="translate(-36.714 -11.409)" fill="#fff" stroke="#fff" stroke-width="0.3"/>
    <path id="Path_31" data-name="Path 31" d="M47.16,26.939V24.63q0-2.382,0-4.764c0-.177,0-.177.182-.177H58.483c.191,0,.195,0,.195.2v6.775c0,.891.006,1.782.005,2.674q0,2.342,0,4.684c0,.182-.006.188-.182.188H47.342c-.177,0-.177,0-.177-.182V26.935Zm.141,7.113H58.368c.159,0,.16,0,.16-.162V20.008c0-.182.011-.16-.156-.16H47.3Z" transform="translate(-44.132 -18.936)" fill="#fff" stroke="#fff" stroke-width="0.3"/>
    <path id="Path_32" data-name="Path 32" d="M50.43,29.613V28.14q0-2.662.01-5.323c0-.168.011-.182.182-.182l10.507,0c.189,0,.2.008.2.2V24.34c0,.605.013,1.21.012,1.815,0,1.667-.01,3.335-.011,5,0,.769.011,1.538.011,2.307,0,.986-.009,1.972-.014,2.958,0,.182-.011.193-.2.193H50.59c-.1,0-.162-.035-.151-.147V29.613Zm10.748.008V26.308c0-.662.006-1.325.008-1.987V22.9c0-.106-.035-.126-.129-.126H50.706c-.1,0-.122.029-.122.124q.01,2.285.013,4.57v2.275q-.005,3.1-.013,6.2c0,.126.011.252,0,.377s.036.145.148.144H61.049c.113,0,.137-.034.137-.142q-.011-1.382-.01-2.765Q61.176,31.592,61.178,29.621Z" transform="translate(-47.104 -21.608)" fill="#fff" stroke="#fff" stroke-width="0.3"/>
    <path id="Path_33" data-name="Path 33" d="M113.6,37.152v-6.1c0-.187.007-.195.192-.195h4.03c.167,0,.182.012.182.182v7.391q.008,2.409.017,4.823c0,.177-.011.187-.188.187h-4.088c-.14,0-.146,0-.146-.15V38.964Q113.595,38.055,113.6,37.152Zm.673-5.622c0,.032-.007.054-.007.076V43.152c0,.159,0,.159.152.159h3.233c.2,0,.2,0,.2-.2V31.685c0-.156,0-.156-.154-.156Zm-.515,9.426h0v2.262c0,.072.025.1.091.091h.1c.182,0,.182,0,.182-.182V31.6c0-.217,0-.217.211-.217h3.347c.175,0,.175,0,.169-.169a.8.8,0,0,1,0-.115c.011-.091-.032-.111-.113-.111H113.87c-.091,0-.116.03-.116.12v9.846Z" transform="translate(-104.521 -29.089)" fill="#fff" stroke="#fff" stroke-width="0.3"/>
    <path id="Path_34" data-name="Path 34" d="M63.18,37.049v6.112c0,.162,0,.162-.163.162H58.973c-.177,0-.182,0-.182-.174v-12.2a.267.267,0,0,1,0-.112.213.213,0,0,1,.091-.091.289.289,0,0,1,.113,0h4c.173,0,.176,0,.176.171v6.135Zm-.134-2.294h.013V31.57c0-.147,0-.147-.149-.147H59.653c-.208,0-.207,0-.207.2q.006,1.931.014,3.861c0,.4-.011.807-.013,1.21v6.363c0,.142,0,.145.149.145h3.348c.064,0,.106-.008.106-.091q-.005-2.708,0-5.418Zm-3.739,2.5h0V31.461c0-.182,0-.182.187-.182h3.348c.209,0,.209,0,.2-.2a.285.285,0,0,1,0-.068c.018-.1-.032-.125-.122-.125H59.052c-.091,0-.126.022-.125.124q.012,2.2.015,4.4c0,.539-.01,1.077-.012,1.614v5.928c0,.264,0,.261.268.258.084,0,.111-.025.111-.112Q59.3,40.171,59.307,37.253Z" transform="translate(-54.701 -28.979)" fill="#fff" stroke="#fff" stroke-width="0.3"/>
    <path id="Path_35" data-name="Path 35" d="M180.25,19.415V11.6c0-.182.015-.2.2-.2h12.591c.188,0,.194.006.194.193v11.8q0,1.93-.005,3.861c0,.154-.017.173-.169.173h-12.63c-.157,0-.182-.025-.182-.176Zm12.856-7.854h-12.48c-.26,0-.234-.038-.234.239V18c0,1.245.007,2.49.008,3.735,0,.647-.007,1.294-.008,1.942v3.45c0,.1.028.138.136.138h12.5c.025,0,.051,0,.081-.007Z" transform="translate(-165.111 -11.4)" fill="#fff" stroke="#fff" stroke-width="0.3"/>
    <path id="Path_36" data-name="Path 36" d="M188.43,26.929V24.62q0-2.381,0-4.764c0-.177,0-.177.182-.177h11.137c.191,0,.195,0,.195.2v6.775c0,.891.005,1.782.005,2.674q0,2.342,0,4.684c0,.182-.007.188-.182.188H188.612c-.176,0-.177,0-.177-.182V26.925Zm.143,7.113h11.066c.159,0,.16,0,.16-.162,0-.994,0-1.987,0-2.982q0-2.126,0-4.25,0-1.886,0-3.771,0-1.439,0-2.879c0-.182.01-.16-.157-.16h-11.07Z" transform="translate(-172.546 -18.927)" fill="#fff" stroke="#fff" stroke-width="0.3"/>
    <path id="Path_37" data-name="Path 37" d="M191.71,29.594V28.121q0-2.662.009-5.323c0-.168.012-.182.182-.182l10.51-.005c.189,0,.2.008.2.2V24.32c0,.605.012,1.21.011,1.82,0,1.667-.009,3.335-.01,5,0,.769.011,1.538.01,2.307,0,.986-.008,1.972-.014,2.958,0,.182-.011.193-.195.193H191.87c-.1,0-.162-.034-.151-.147V29.594Zm10.748.008V26.289c0-.662.005-1.325.007-1.987V22.885c0-.106-.035-.126-.129-.126H191.985c-.1,0-.122.029-.121.125q.009,2.284.012,4.569v2.275q-.005,3.1-.013,6.2c0,.126.011.252,0,.377s.037.145.148.145q4.269-.005,8.535,0h1.783c.113,0,.137-.034.136-.142-.007-.922-.009-1.843-.011-2.765Q202.457,31.572,202.458,29.6Z" transform="translate(-175.528 -21.59)" fill="#fff" stroke="#fff" stroke-width="0.3"/>
    <path id="Path_38" data-name="Path 38" d="M254.87,37.061V30.955c0-.182.008-.195.193-.195H259.1c.168,0,.182.012.182.182v7.393q.008,2.41.017,4.823c0,.177-.011.187-.188.187h-4.09c-.141,0-.146,0-.146-.15V37.061Zm.675-5.618a.712.712,0,0,0-.007.076V43.065c0,.159,0,.159.152.159h3.233c.2,0,.2,0,.2-.2V31.6c0-.156,0-.156-.155-.156h-3.427Zm-.516,9.426h0V43.13c0,.072.025.1.091.091h.1c.182,0,.182,0,.182-.182V31.51c0-.217,0-.217.21-.217h3.343c.175,0,.175,0,.169-.169a.679.679,0,0,1,0-.115c.011-.091-.032-.111-.112-.111h-3.873c-.091,0-.116.03-.116.12v9.843Z" transform="translate(-232.94 -28.998)" fill="#fff" stroke="#fff" stroke-width="0.3"/>
    <path id="Path_39" data-name="Path 39" d="M204.522,37.039v6.112c0,.162,0,.162-.163.162h-4.045c-.177,0-.177,0-.177-.174V35.382q0-2.222,0-4.444a.267.267,0,0,1,0-.112.208.208,0,0,1,.091-.091.289.289,0,0,1,.113,0h4c.173,0,.175,0,.176.171v6.135Zm-.134-2.294h.012V31.56c0-.147,0-.147-.15-.147h-3.255c-.208,0-.208,0-.207.2q.008,1.932.014,3.861c0,.4-.011.807-.012,1.21v6.363c0,.142,0,.145.149.145h3.348c.064,0,.106-.008.106-.091V37.684Q204.387,36.214,204.388,34.745Zm-3.739,2.5h0V31.451c0-.182,0-.182.182-.182h3.351c.209,0,.209,0,.206-.2a.345.345,0,0,1,0-.068c.019-.1-.031-.125-.121-.125h-3.873c-.091,0-.126.022-.125.124q.013,2.2.015,4.4c0,.539-.01,1.077-.012,1.614v5.928c0,.264,0,.261.273.258.083,0,.111-.025.111-.112Q200.647,40.162,200.649,37.243Z" transform="translate(-183.186 -28.97)" fill="#fff" stroke="#fff" stroke-width="0.3"/>
    <path id="Path_40" data-name="Path 40" d="M42.248,195.142c.637,0,1.257.009,1.877,0,.219,0,.273.068.273.279-.015.493-.01.988,0,1.482,0,.161-.061.218-.209.215s-.282-.005-.423-.005H14.224a.476.476,0,0,1-.187,0c-.062-.03-.147-.1-.148-.152-.011-.551,0-1.1-.008-1.653,0-.159.1-.157.215-.157h1.936c0-.091.011-.156.011-.224V188.1c0-.182-.047-.248-.236-.238-.273.015-.551-.006-.826.008-.182.009-.23-.062-.223-.232a7.924,7.924,0,0,0,0-.805c-.012-.194.048-.252.247-.251q3.367.009,6.738,0h21.49c.273,0,.273,0,.273.278,0,.255-.01.51,0,.763.01.182-.041.251-.234.243-.337-.015-.675,0-1.029,0Zm1.917,1.737v-1.515H14.1v1.515Zm-.882-9.235v-.837H14.992v.837ZM17.6,195.135v-7.027a.339.339,0,0,0,0-.126c-.019-.044-.059-.11-.091-.111-.413-.007-.826,0-1.236,0v7.268Zm1.716-7.269v7.265h1.325c0-.078.01-.147.01-.216V188.1a.3.3,0,0,0,0-.126c-.02-.043-.065-.1-.1-.1C20.14,187.863,19.732,187.866,19.316,187.866Zm3.055,0v7.262H23.7v-6.744A2.941,2.941,0,0,0,23.7,188c-.006-.05-.072-.131-.111-.132-.4-.01-.8-.006-1.215-.006Zm7.438,0c-.375,0-.734.009-1.092,0-.189-.006-.253.044-.253.246q.011,3.4.005,6.8v.218h1.34Zm6.1,0c-.38,0-.74.012-1.1,0-.2-.008-.248.056-.247.249q.01,3.4,0,6.795v.223h1.346Zm3.051,0c-.378,0-.75.01-1.121,0-.182-.007-.223.057-.222.228q.007,3.42,0,6.839v.2h1.347Zm1.712,7.261h1.34v-7.263H40.951c-.278,0-.278,0-.278.273v6.99Zm-7.816,0v-7.266c-.364,0-.728.011-1.081,0-.2-.009-.262.053-.261.258.007,2.258,0,4.514,0,6.772v.239Zm-6.1.005v-7.252H25.425v7.251Zm.235-7.268v7.262h1.259v-7.262Zm-7.89,7.265v-7.007a.653.653,0,0,0,0-.169.157.157,0,0,0-.081-.1c-.392-.006-.785,0-1.183,0v7.273Zm1.786-.008h1.248V187.87H20.88Zm4.317.008v-7.007a.691.691,0,0,0,0-.168c-.011-.038-.054-.1-.082-.1-.392-.006-.785,0-1.178,0v7.274Zm6.091,0v-7.257H30.039v7.257Zm1.8-7.263v7.255h1.247v-7.255Zm3.051,0v7.255H37.39V187.87Zm3.051,0v7.255h1.247v-7.255Z" transform="translate(-13.88 -170.639)" fill="#fff" stroke="#fff" stroke-width="0.3"/>
  </g>
</svg>
