<svg xmlns="http://www.w3.org/2000/svg" width="23.902" height="27.228" viewBox="0 0 23.902 27.228">
  <g id="Слой_4" data-name="Слой 4" transform="translate(0.15 0.15)">
    <path id="Path_41" data-name="Path 41" d="M17.44,22.406V18.487c0-1.195.005-2.389.005-3.584V9.147c0-.182.01-.2.195-.2H29.131c.189,0,.2.006.2.2v1.96c0,.8.008,1.6.008,2.406,0,1.3-.007,2.6-.008,3.894,0,.818.007,1.629.008,2.444v5.1q0,2.84-.008,5.68V35.66c0,.217,0,.218-.212.218H17.656c-.2,0-.2-.008-.2-.2V22.406ZM29.2,9.1H17.758c-.182,0-.182,0-.182.182v5.767q0,2.939.005,5.878v4.043q0,1.728-.005,3.461v7.144c0,.122.029.163.158.162H29.208Z" transform="translate(-17.44 -8.95)" fill="#fff" stroke="#fff" stroke-width="0.3"/>
    <path id="Path_42" data-name="Path 42" d="M24.936,29.322V16.732c0-.182,0-.182.175-.182H35.283c.182,0,.186,0,.186.187V41.908c0,.195,0,.2-.191.2H25.107c-.165,0-.17-.005-.17-.176V34.436c0-.859-.005-1.72-.007-2.58V29.327Zm.124,12.632H35.19c.122,0,.143-.037.143-.146V31.356q0-2.314,0-4.626V19.5q0-1.332.006-2.666c0-.111-.025-.144-.144-.144H25.06Z" transform="translate(-24.249 -15.859)" fill="#fff" stroke="#fff" stroke-width="0.3"/>
    <path id="Path_43" data-name="Path 43" d="M27.968,31.767V29.634q0-1.91-.006-3.819V24.269q0-2.4.009-4.8c0-.21,0-.21.214-.219h9.522c.226,0,.227,0,.227.228v1.328c0,.574.011,1.149.01,1.723,0,1.509-.008,3.017-.01,4.527,0,.7.008,1.405.01,2.108v2.219c0,.818-.009,1.644-.009,2.466,0,.657.01,1.314.009,1.972q0,2.332-.01,4.663v3.633c0,.182-.011.2-.2.2H28.26c-.324,0-.291.006-.292-.289V38.368q0-2.016-.008-4.031V31.771Zm4.99-12.387h-4.7c-.115,0-.155.026-.154.15q.012,2.06.014,4.118V39.354c0,.71-.009,1.421-.011,2.133v2.555c0,.107.035.132.135.132h9.427c.106,0,.14-.025.139-.138-.009-.885-.012-1.769-.014-2.654,0-.347.011-.694.011-1.041,0-1.521-.009-3.043-.011-4.564,0-.661.011-1.322.011-1.983,0-.831-.009-1.661-.011-2.492V29.145c0-.716.011-1.43.011-2.145,0-1.492-.009-2.985-.011-4.478,0-.566.009-1.132.011-1.7V19.551c0-.167,0-.168-.166-.168Z" transform="translate(-27.003 -18.313)" fill="#fff" stroke="#fff" stroke-width="0.3"/>
    <path id="Path_44" data-name="Path 44" d="M85.8,32.379V26.846c0-.216,0-.216.211-.216h3.621c.19,0,.2,0,.2.193v3.585q0,3.764.005,7.527c0,.194,0,.194-.191.194H85.961c-.16,0-.16,0-.161-.157Zm.622-5.125a.213.213,0,0,0-.012.035c0,1.14.007,2.282.007,3.422v7.163c0,.108.027.142.137.141q1.506-.005,3.013,0c.106,0,.14-.024.139-.137Q89.7,35.69,89.7,33.5c0-1.009.006-2.016.007-3.025s0-2.033,0-3.05v-.174Zm-.477,8.6h0v2.058c0,.033.016.091.03.091a.8.8,0,0,0,.273,0c.025-.005.039-.106.039-.164V27.311c0-.19,0-.191.195-.191h3c.216,0,.209,0,.217-.216.005-.117-.035-.146-.147-.146q-1.728.005-3.456,0c-.11,0-.149.025-.149.144v8.951Z" transform="translate(-79.583 -25.022)" fill="#fff" stroke="#fff" stroke-width="0.3"/>
    <path id="Path_45" data-name="Path 45" d="M85.8,166.734v-5.552c0-.182,0-.182.182-.182h3.67c.182,0,.182,0,.182.182v3.671q0,1.637-.005,3.274v4.13a.4.4,0,0,1-.006.147.264.264,0,0,1-.1.1c-.017.012-.048,0-.074,0H85.989c-.182,0-.189,0-.189-.188Zm3.89,5.133c0-.031.007-.055.007-.078V161.237c0-.1-.026-.134-.13-.134q-1.513.005-3.026,0c-.1,0-.135.025-.134.132q.005,2.338,0,4.674V171.8a.5.5,0,0,0,.01.067Zm-3.406-8.587v-1.947c0-.236,0-.234-.239-.228-.08,0-.1.026-.1.109q.01,2.237.013,4.475c0,.988-.007,1.975-.009,2.962V172.2c0,.165,0,.165.161.165h3.422a.245.245,0,0,0,.085,0,.21.21,0,0,0,.079-.083c.013-.026,0-.065,0-.1.008-.166.038-.182-.182-.177H86.488c-.2,0-.2,0-.2-.206Z" transform="translate(-79.583 -147.173)" fill="#fff" stroke="#fff" stroke-width="0.3"/>
    <path id="Path_46" data-name="Path 46" d="M35.645,32.393V26.777c-.009-.114.04-.148.154-.147h3.694c.156,0,.161.005.161.161V37.955c0,.176,0,.176-.176.176H35.794c-.122,0-.154-.04-.154-.156V34.86Zm3.889-5.144H36.4c-.162,0-.162,0-.162.169V37.885c0,.079.006.134.11.133h3.076c.091,0,.11-.029.11-.116q-.005-2.434,0-4.868V27.249Zm-3.421,5.33V27.322c0-.2,0-.2.2-.2H39.3c.235,0,.23,0,.237-.231,0-.1-.024-.131-.123-.131H35.891c-.091,0-.125.028-.125.128v4.029c0,.646.011,1.292.011,1.939,0,.59-.009,1.182-.011,1.772V37.8c0,.219,0,.214.215.218.1,0,.133-.027.133-.133Q36.112,35.232,36.113,32.579Z" transform="translate(-33.985 -25.022)" fill="#fff" stroke="#fff" stroke-width="0.3"/>
    <path id="Path_47" data-name="Path 47" d="M39.655,166.658v5.556c0,.194,0,.194-.19.194H35.818c-.167,0-.174-.005-.174-.174v-3.684c0-1.013-.006-2.025-.005-3.038q0-2.207.006-4.415c0-.187,0-.187.193-.187H39.5c.124,0,.163.029.162.157v3.213Zm-.122,5.133V168.1c0-.757-.017-1.512-.021-2.268,0-.255.02-.509.021-.765v-3.895c0-.125-.036-.151-.152-.15H36.4c-.167,0-.167,0-.167.172v10.448c0,.118.035.156.156.156h3.014Zm-3.421-5.325v-5.206c0-.247,0-.246-.249-.236-.071,0-.1.02-.1.1q.013,2.144.017,4.289c0,.39-.012.78-.014,1.17v5.541c0,.127.035.16.158.159.67-.005,1.34,0,2.009,0H39.4c.043,0,.121-.011.123-.026a.955.955,0,0,0,.011-.292c0-.021-.105-.039-.163-.039H36.38c-.3,0-.264.009-.264-.258Q36.112,169.065,36.112,166.465Z" transform="translate(-33.984 -147.091)" fill="#fff" stroke="#fff" stroke-width="0.3"/>
    <path id="Path_48" data-name="Path 48" d="M146.22,22.405V18.487q0-1.792.005-3.585V9.147c0-.187.011-.2.2-.2h11.486c.189,0,.2.006.2.2v1.96c0,.8.008,1.6.008,2.405,0,1.3-.007,2.6-.008,3.895,0,.818.007,1.629.008,2.444v5.1q0,2.84-.008,5.68V35.66c0,.217,0,.217-.211.217H146.433c-.2,0-.206-.007-.206-.2V22.405ZM157.981,9.1H146.537c-.182,0-.182,0-.182.182v5.768q0,2.938.005,5.878v4.043q0,1.728-.005,3.46v7.145c0,.122.029.162.158.162q5.669-.005,11.337,0h.135Z" transform="translate(-134.509 -8.95)" fill="#fff" stroke="#fff" stroke-width="0.3"/>
    <path id="Path_49" data-name="Path 49" d="M153.709,29.322V16.732c0-.182,0-.182.175-.182h10.17c.182,0,.187,0,.187.187v25.17c0,.195,0,.2-.191.2H153.878c-.166,0-.171-.005-.171-.176V34.435c0-.86-.005-1.72-.007-2.58V29.326Zm.122,12.633h10.133c.122,0,.143-.037.142-.145V19.5q0-1.332.006-2.666c0-.111-.025-.145-.144-.144H153.835Z" transform="translate(-141.309 -15.859)" fill="#fff" stroke="#fff" stroke-width="0.3"/>
    <path id="Path_50" data-name="Path 50" d="M156.7,31.776V29.643q0-1.91-.007-3.819V24.278q0-2.4.01-4.8c0-.21,0-.21.213-.219h9.524c.226,0,.226,0,.227.228v1.328c0,.574.011,1.149.01,1.723,0,1.509-.008,3.017-.01,4.526,0,.7.008,1.406.01,2.109v2.218c0,.818-.009,1.645-.01,2.467,0,.657.011,1.314.01,1.972,0,1.554-.008,3.108-.01,4.662v3.633c0,.186-.011.2-.2.2h-9.48c-.325,0-.292.006-.292-.29V38.378q0-2.016-.009-4.031V31.781Zm4.991-12.387h-4.7c-.116,0-.155.025-.154.15q.012,2.058.014,4.118V39.362c0,.711-.01,1.422-.011,2.133v2.555c0,.106.035.132.135.132H166.4c.106,0,.14-.025.139-.138-.009-.885-.012-1.769-.014-2.654,0-.347.011-.695.011-1.041,0-1.521-.009-3.043-.011-4.564,0-.661.011-1.322.01-1.984,0-.83-.008-1.661-.01-2.491V29.154c0-.716.011-1.43.011-2.145,0-1.493-.009-2.986-.011-4.478,0-.566.008-1.132.011-1.7V19.559c0-.166,0-.167-.167-.167Z" transform="translate(-144.027 -18.322)" fill="#fff" stroke="#fff" stroke-width="0.3"/>
    <path id="Path_51" data-name="Path 51" d="M214.58,32.379V26.846c0-.216,0-.216.21-.216h3.622c.19,0,.2,0,.2.193v3.587q0,3.764.006,7.527c0,.194,0,.194-.191.194h-3.683c-.16,0-.161,0-.161-.157Zm.621-5.125a.162.162,0,0,0-.011.035q0,1.711.007,3.422c0,1.062,0,2.123,0,3.183v3.98c0,.108.027.142.138.141q1.506-.005,3.013,0c.106,0,.139-.024.139-.137q-.011-2.188-.011-4.377c0-1.008.006-2.016.007-3.024s0-2.033,0-3.051v-.173Zm-.477,8.6h0v2.058c0,.033.016.091.029.091a.834.834,0,0,0,.273,0c.025-.006.039-.106.039-.164V27.311c0-.191,0-.191.195-.191h3c.216,0,.209,0,.218-.216,0-.118-.035-.146-.147-.146q-1.728.005-3.456,0c-.11,0-.149.025-.149.145,0,1.4,0,2.794,0,4.19v4.761Z" transform="translate(-196.652 -25.022)" fill="#fff" stroke="#fff" stroke-width="0.3"/>
    <path id="Path_52" data-name="Path 52" d="M214.58,166.734v-5.552c0-.182,0-.182.182-.182h3.676c.182,0,.182,0,.182.182v3.671c0,1.091-.005,2.183-.005,3.274v4.13a.4.4,0,0,1-.006.147.267.267,0,0,1-.1.1c-.016.011-.048,0-.073,0h-3.664c-.182,0-.189,0-.189-.188Zm3.89,5.133a.76.76,0,0,0,.008-.079v-10.55c0-.1-.026-.134-.13-.134q-1.512.005-3.026,0c-.1,0-.135.025-.135.132q.006,2.336,0,4.674V171.8a.4.4,0,0,0,.01.067Zm-3.4-8.587v-1.947c0-.236,0-.233-.239-.227-.08,0-.1.026-.1.108q.01,2.238.013,4.476c0,.988-.008,1.974-.009,2.962V172.2c0,.165,0,.165.161.165h3.423a.244.244,0,0,0,.085,0,.2.2,0,0,0,.078-.083c.014-.026,0-.065,0-.1.009-.166.039-.177-.182-.177h-3.023c-.2,0-.2,0-.2-.206v-8.519Z" transform="translate(-196.652 -147.173)" fill="#fff" stroke="#fff" stroke-width="0.3"/>
    <path id="Path_53" data-name="Path 53" d="M164.452,32.384V26.768c-.009-.114.04-.148.154-.148.955,0,1.91,0,2.865,0h.83c.156,0,.162.005.162.16V37.946c0,.175,0,.176-.176.176H164.6c-.123,0-.154-.041-.154-.156V34.851Zm3.89-5.146h-3.133c-.161,0-.161,0-.161.169V37.873c0,.079.005.133.11.133h3.077c.091,0,.11-.029.11-.116q-.005-2.434,0-4.868V27.24ZM164.92,32.57V27.313c0-.2,0-.2.2-.2h2.988c.235,0,.23,0,.236-.231,0-.1-.024-.131-.122-.131H164.7c-.1,0-.126.028-.125.128v4.028c0,.647.011,1.293.011,1.939,0,.591-.01,1.182-.011,1.772v3.175c0,.218,0,.214.215.218.1,0,.134-.027.134-.133Q164.917,35.223,164.92,32.57Z" transform="translate(-151.081 -25.013)" fill="#fff" stroke="#fff" stroke-width="0.3"/>
    <path id="Path_54" data-name="Path 54" d="M168.427,166.658v5.556c0,.193,0,.194-.19.194H164.59c-.167,0-.174-.005-.174-.175V168.55c0-1.012-.006-2.025-.006-3.037q0-2.208.006-4.415c0-.187,0-.187.193-.187h3.659c.123,0,.163.028.162.157-.005,1.07,0,2.142,0,3.213Zm-.122,5.133V168.1c0-.756-.017-1.511-.022-2.267,0-.255.021-.51.022-.765q0-1.948,0-3.895c0-.125-.036-.151-.153-.15H165.18c-.167,0-.167,0-.167.173v10.447c0,.118.035.156.155.156h3.015Zm-3.421-5.325v-5.206c0-.248,0-.246-.249-.236-.071,0-.1.02-.1.1q.013,2.144.018,4.289c0,.39-.012.78-.014,1.17v5.536c0,.128.035.161.158.16.669-.005,1.34,0,2.009,0h1.463c.043,0,.12-.012.123-.027a.979.979,0,0,0,.011-.291c0-.021-.105-.039-.163-.039h-2.988c-.3,0-.265.009-.265-.258Q164.883,169.065,164.884,166.465Z" transform="translate(-151.045 -147.091)" fill="#fff" stroke="#fff" stroke-width="0.3"/>
  </g>
</svg>
