<svg xmlns="http://www.w3.org/2000/svg" width="22.61" height="27.834" viewBox="0 0 22.61 27.834">
  <g id="Group_523" data-name="Group 523" transform="translate(-4535.095 -3785.849)">
    <path id="Path_1" data-name="Path 1" d="M13.45,24.318V10.9c0-.318.027-.345.346-.345H35.418c.325,0,.334.01.334.332V26.563c0,1.531.009,3.062.008,4.592q0,3.316-.009,6.632c0,.264-.03.3-.291.3h-21.7c-.269,0-.31-.041-.311-.3ZM35.533,10.827H14.1c-.448,0-.4-.064-.4.412V21.893c0,2.139.012,4.278.014,6.417,0,1.112-.013,2.224-.014,3.335v5.926c0,.176.049.237.233.237q10.734-.008,21.469,0a1.391,1.391,0,0,0,.14-.013Z" transform="translate(4521.795 3775.449)" fill="#fff" stroke="#fff" stroke-width="0.3"/>
    <path id="Path_2" data-name="Path 2" d="M27.05,36.761V32.8q0-4.092.008-8.183c0-.3,0-.3.307-.3H46.5c.328,0,.335.008.335.345V36.292c0,1.53.009,3.061.009,4.592q0,4.022-.008,8.045c0,.311-.012.323-.318.323H27.361c-.3,0-.3,0-.3-.307V44.158c0-1.557,0-3.113-.006-4.67V36.76Zm.242,12.219H46.3c.273,0,.275,0,.275-.282,0-1.707-.008-3.414-.007-5.122,0-2.433.007-4.867.007-7.3,0-2.159-.007-4.317-.007-6.476,0-1.649,0-3.292.007-4.946,0-.316.018-.276-.268-.276H27.292Z" transform="translate(4509.475 3762.984)" fill="#fff" stroke="#fff" stroke-width="0.3"/>
    <path id="Path_3" data-name="Path 3" d="M32.49,41.185v-2.53q.007-4.571.016-9.144c0-.29.02-.31.312-.31l18.052-.01c.325,0,.34.015.34.346v2.59c0,1.035.021,2.079.02,3.118,0,2.865-.016,5.729-.019,8.594,0,1.317.02,2.642.018,3.963,0,1.693-.014,3.386-.023,5.079,0,.314-.019.332-.336.332H36.449c-1.229,0-2.459-.006-3.689-.007-.173,0-.277-.058-.259-.252,0-.052,0-.1,0-.156V41.185Zm18.461.014v-5.69c0-1.138.011-2.276.014-3.414,0-.811-.007-1.622,0-2.433,0-.188-.059-.215-.222-.215H32.971c-.165,0-.21.051-.209.214q.015,3.925.022,7.848v3.9q-.01,5.327-.023,10.654c0,.215.019.433,0,.647s.063.247.255.247q7.33-.007,14.659,0c1.021,0,2.041,0,3.062,0,.194,0,.235-.057.234-.245q-.018-2.373-.018-4.747,0-3.389,0-6.775Z" transform="translate(4504.546 3758.563)" fill="#fff" stroke="#fff" stroke-width="0.3"/>
    <path id="Path_4" data-name="Path 4" d="M137.447,53.543V43.064c0-.322.013-.334.331-.334h6.928c.288,0,.309.02.309.315V55.74q.014,4.139.029,8.277c0,.3-.019.322-.323.322H137.7c-.241,0-.249-.007-.249-.258V56.662Q137.446,55.1,137.447,53.543Zm1.159-9.65c-.006.055-.013.094-.013.13V63.857c0,.274,0,.274.261.273h5.55c.351,0,.351,0,.351-.35V44.166c0-.267,0-.267-.264-.267h-5.884Zm-.886,16.191h0v3.885c0,.124.043.166.158.161h.177c.31,0,.31,0,.31-.316V44.021c0-.376,0-.376.362-.376h5.749c.3,0,.3,0,.292-.291a1.251,1.251,0,0,1,0-.2c.019-.151-.055-.188-.194-.188h-6.651c-.154,0-.2.052-.2.207q.008,3.857,0,7.713v9.2Z" transform="translate(4409.462 3746.297)" fill="#fff" stroke="#fff" stroke-width="0.3"/>
    <path id="Path_5" data-name="Path 5" d="M53.979,53.485v10.5c0,.277,0,.282-.282.282H46.752c-.3,0-.306,0-.306-.3V56.349c0-1.9-.007-3.807-.007-5.71q0-3.817.008-7.633a.454.454,0,0,1,.008-.194.357.357,0,0,1,.16-.154.491.491,0,0,1,.194-.006h6.866c.3,0,.3,0,.3.294v7.045Zm-.23-3.94h.023V44.071c0-.254,0-.255-.257-.254H47.921c-.358,0-.356,0-.356.35q.013,3.316.024,6.631c0,.692-.019,1.386-.022,2.079V63.8c0,.244,0,.248.257.248h5.751c.109,0,.182-.014.182-.16q-.008-4.653-.008-9.306Zm-6.423,4.291h0V43.888c0-.312,0-.316.32-.316H53.4c.36,0,.359,0,.352-.347a.546.546,0,0,1,0-.118c.032-.172-.054-.214-.209-.214H46.886c-.152,0-.215.037-.214.213q.023,3.777.026,7.553c0,.925-.017,1.848-.02,2.773V63.614c0,.453,0,.449.461.443.143,0,.188-.045.188-.194Q47.323,58.849,47.326,53.836Z" transform="translate(4491.909 3746.373)" fill="#fff" stroke="#fff" stroke-width="0.3"/>
  </g>
</svg>
