<svg xmlns="http://www.w3.org/2000/svg" width="24.871" height="27.024" viewBox="0 0 24.871 27.024">
  <g id="Слой_5" data-name="Слой 5" transform="translate(0.15 0.15)">
    <path id="Path_6" data-name="Path 6" d="M10,16.585V8.849c0-.18.016-.2.2-.2H22.662c.186,0,.192.005.193.191v9.037c0,.882.005,1.764,0,2.647q0,1.911-.005,3.822c0,.152-.017.17-.168.17H10.18c-.156,0-.18-.023-.18-.173ZM22.726,8.809H10.371c-.258,0-.232-.037-.232.238v6.14c0,1.233.007,2.466.008,3.7,0,.641-.007,1.281-.008,1.922v3.416c0,.1.028.136.134.136H22.647a.33.33,0,0,0,.081-.007Z" transform="translate(-10 -8.65)" fill="#fff" stroke="#fff" stroke-width="0.3"/>
    <path id="Path_7" data-name="Path 7" d="M18.17,24.105v-7c0-.175,0-.175.18-.175H29.379c.189,0,.193,0,.193.2v6.708c0,.882.005,1.764.005,2.647v4.637c0,.18-.007.186-.18.186H18.349c-.174,0-.175,0-.175-.18V24.1Zm.139,7.043H29.266c.158,0,.159,0,.159-.16V17.245c0-.18.011-.159-.154-.159H18.309Z" transform="translate(-17.434 -16.184)" fill="#fff" stroke="#fff" stroke-width="0.3"/>
    <path id="Path_8" data-name="Path 8" d="M21.44,26.774V25.316q0-2.635.009-5.27c0-.168.012-.18.18-.18q5.2,0,10.4-.005c.187,0,.2.008.2.2v1.493c0,.6.012,1.2.012,1.8,0,1.651-.01,3.3-.011,4.955,0,.761.011,1.522.01,2.284,0,.977-.008,1.952-.013,2.929,0,.18-.011.191-.194.191H21.6c-.1,0-.16-.034-.15-.145V26.774Zm10.64.008V23.5c0-.656.006-1.312.008-1.967,0-.468,0-.935,0-1.4,0-.105-.034-.124-.128-.124H21.712c-.095,0-.121.029-.12.123q.009,2.262.013,4.524v2.252q-.006,3.07-.013,6.141c0,.124.011.25,0,.373s.037.142.148.142H31.953c.112,0,.136-.033.135-.141q-.011-1.368-.01-2.737Q32.078,28.733,32.08,26.782Z" transform="translate(-20.409 -18.85)" fill="#fff" stroke="#fff" stroke-width="0.3"/>
    <path id="Path_9" data-name="Path 9" d="M84.6,34.279V28.243c0-.186.007-.193.19-.193h3.99c.167,0,.18.012.18.18v7.315q.008,2.385.017,4.775c0,.175-.011.186-.186.186H84.745c-.14,0-.144,0-.144-.149V34.279Zm.667-5.561c0,.032-.007.052-.007.074V40.223c0,.158,0,.158.15.158h3.2c.2,0,.2,0,.2-.2V28.871c0-.154,0-.153-.153-.153Zm-.509,9.328h0v2.24c0,.071.025.1.09.09h.1c.18,0,.18,0,.18-.18v-11.4c0-.214,0-.214.208-.214h3.314c.173,0,.173,0,.168-.168a.67.67,0,0,1,0-.113c.01-.09-.032-.11-.112-.11H84.87c-.09,0-.115.03-.114.119v9.741Z" transform="translate(-77.88 -26.302)" fill="#fff" stroke="#fff" stroke-width="0.3"/>
    <path id="Path_10" data-name="Path 10" d="M34.185,34.186v6.05c0,.16,0,.161-.161.161h-4c-.18,0-.18,0-.18-.172v-7.68q0-2.2,0-4.4a.27.27,0,0,1,0-.114.21.21,0,0,1,.09-.09.27.27,0,0,1,.112,0h3.961c.171,0,.174,0,.174.17Zm-.132-2.272h.013V28.761c0-.147,0-.147-.148-.147H30.693c-.206,0-.205,0-.205.2q.008,1.911.014,3.822c0,.4-.012.8-.013,1.2v6.3c0,.141,0,.142.149.142h3.314c.062,0,.1-.008.1-.09V34.823Q34.052,33.368,34.052,31.914Zm-3.7,2.474h0V28.654c0-.18,0-.18.18-.18h3.317c.208,0,.208,0,.2-.2a.349.349,0,0,1,0-.068c.019-.1-.031-.123-.12-.123H30.1c-.09,0-.124.021-.123.123q.013,2.176.014,4.353c0,.532-.009,1.066-.012,1.6v5.868c0,.261,0,.259.27.255.082,0,.11-.026.11-.111Q30.349,37.277,30.351,34.388Z" transform="translate(-28.053 -26.198)" fill="#fff" stroke="#fff" stroke-width="0.3"/>
    <path id="Path_11" data-name="Path 11" d="M152,22.369V18.487q0-1.776.005-3.551v-5.7c0-.186.011-.2.194-.2h11.378c.187,0,.194.006.194.194v1.941c0,.795.008,1.589.008,2.383,0,1.286-.007,2.572-.008,3.858,0,.806.007,1.613.008,2.421v5.048q0,2.813-.008,5.627V35.5c0,.215,0,.215-.209.215H152.211c-.2,0-.2-.007-.2-.2V22.369ZM163.648,9.187H152.312c-.18,0-.18,0-.18.18v5.714q0,2.911.005,5.823V24.91q0,1.712-.005,3.423v7.078c0,.121.029.16.157.16q5.616-.005,11.231,0h.133Z" transform="translate(-139.208 -9.005)" fill="#fff" stroke="#fff" stroke-width="0.3"/>
    <path id="Path_12" data-name="Path 12" d="M159.459,29.311V16.84c0-.18,0-.18.173-.18h10.074c.18,0,.186,0,.186.186V41.78c0,.192,0,.194-.189.194H159.627c-.164,0-.169-.005-.169-.175V34.377c0-.852-.005-1.7-.007-2.556V29.316Zm.121,12.514h10.038c.121,0,.141-.037.141-.144v-22.1q0-1.32.006-2.641c0-.11-.025-.143-.142-.142H159.583Z" transform="translate(-145.987 -15.938)" fill="#fff" stroke="#fff" stroke-width="0.3"/>
    <path id="Path_13" data-name="Path 13" d="M162.488,31.769V29.656q0-1.892-.007-3.784V24.341q0-2.377.01-4.754c0-.208,0-.208.211-.217h9.435c.223,0,.224,0,.225.226v1.315c0,.568.011,1.138.01,1.707,0,1.495-.008,2.989-.01,4.484,0,.7.008,1.393.01,2.089v2.2c0,.815-.009,1.63-.01,2.444,0,.65.011,1.3.01,1.953,0,1.54-.008,3.079-.01,4.619V44c0,.185-.011.195-.2.195h-9.387c-.322,0-.289.006-.289-.287v-5.6q0-2-.009-3.994V31.773ZM167.432,19.5h-4.657c-.115,0-.153.025-.152.149q.012,2.039.014,4.079V39.284c0,.7-.009,1.409-.011,2.113v2.531c0,.105.034.131.133.131H172.1c.105,0,.139-.025.138-.137-.009-.877-.012-1.752-.014-2.629,0-.344.011-.688.011-1.031,0-1.507-.009-3.014-.011-4.521,0-.655.011-1.31.01-1.966,0-.822-.008-1.645-.01-2.467V29.171c0-.709.011-1.417.011-2.125,0-1.479-.009-2.958-.011-4.436,0-.56.008-1.122.011-1.683V19.666c0-.165,0-.166-.166-.166Z" transform="translate(-148.744 -18.404)" fill="#fff" stroke="#fff" stroke-width="0.3"/>
    <path id="Path_14" data-name="Path 14" d="M220.33,32.457V26.974c0-.214,0-.214.208-.214h3.588c.188,0,.195,0,.195.191V30.5q0,3.729.006,7.456c0,.192,0,.192-.189.192h-3.648c-.159,0-.159,0-.159-.156Zm.615-5.077a.161.161,0,0,0-.014.032q0,1.695.007,3.39c0,1.052,0,2.1,0,3.153V37.9c0,.107.027.141.137.14q1.492-.005,2.985,0c.105,0,.138-.023.138-.136q-.011-2.167-.011-4.336c0-1,.006-2,.007-3s0-2.014,0-3.022v-.172Zm-.472,8.519h0v2.039c0,.032.016.09.029.09a.826.826,0,0,0,.27,0c.025-.006.039-.105.039-.162V27.433c0-.189,0-.189.193-.189h2.973c.214,0,.208,0,.216-.214,0-.117-.035-.145-.146-.145q-1.712.005-3.423,0c-.109,0-.148.024-.148.143,0,1.384,0,2.767,0,4.151v4.716Z" transform="translate(-201.382 -25.129)" fill="#fff" stroke="#fff" stroke-width="0.3"/>
    <path id="Path_15" data-name="Path 15" d="M220.33,166.744v-5.5c0-.18,0-.18.18-.18h3.637c.18,0,.18,0,.18.18v3.637c0,1.081-.005,2.162-.005,3.243v4.091a.393.393,0,0,1-.006.146.265.265,0,0,1-.1.1c-.016.011-.048,0-.072,0h-3.625c-.18,0-.187,0-.187-.186Zm3.853,5.084a.75.75,0,0,0,.008-.078V161.3c0-.1-.026-.132-.129-.132q-1.5.005-3,0c-.1,0-.133.025-.133.131q.005,2.315,0,4.63v5.834a.4.4,0,0,0,.01.067Zm-3.373-8.507v-1.929c0-.233,0-.231-.237-.225-.079,0-.1.026-.1.107q.01,2.218.013,4.434c0,.978-.008,1.956-.009,2.934v3.513c0,.163,0,.163.159.163h3.391a.243.243,0,0,0,.085,0,.2.2,0,0,0,.077-.082c.014-.026,0-.064,0-.1.009-.165.039-.176-.18-.176h-2.994c-.2,0-.2,0-.2-.2v-8.439Z" transform="translate(-201.382 -147.33)" fill="#fff" stroke="#fff" stroke-width="0.3"/>
    <path id="Path_16" data-name="Path 16" d="M170.2,32.442V26.877c-.009-.113.04-.147.152-.147.946,0,1.892,0,2.839,0h.822c.155,0,.16.005.16.159V37.949c0,.173,0,.174-.174.174h-3.649c-.122,0-.152-.041-.152-.155V34.884Zm3.854-5.1h-3.1c-.159,0-.159,0-.159.168V37.876c0,.078.005.132.109.132h3.048c.09,0,.109-.029.109-.115q-.005-2.411,0-4.822V27.344Zm-3.39,5.28V27.416c0-.2,0-.2.2-.2h2.96c.232,0,.228,0,.234-.229,0-.1-.023-.13-.121-.13h-3.489c-.095,0-.125.028-.124.127v3.99c0,.641.011,1.281.011,1.921,0,.586-.01,1.171-.011,1.756V37.8c0,.216,0,.212.212.216.1,0,.132-.027.132-.132Q170.663,35.253,170.666,32.624Z" transform="translate(-155.768 -25.101)" fill="#fff" stroke="#fff" stroke-width="0.3"/>
    <path id="Path_17" data-name="Path 17" d="M174.139,166.714v5.5c0,.191,0,.192-.188.192h-3.612c-.166,0-.172-.005-.172-.173v-3.649c0-1-.006-2.006-.006-3.009q0-2.187.006-4.374c0-.186,0-.186.191-.186h3.625c.122,0,.161.028.16.156-.005,1.06,0,2.122,0,3.183Zm-.12,5.084v-3.658c0-.749-.017-1.5-.022-2.246,0-.252.021-.505.022-.758q0-1.93,0-3.858c0-.123-.036-.15-.151-.149h-2.949c-.166,0-.166,0-.166.171v10.344c0,.117.034.154.153.154,1,0,1.991,0,2.986,0Zm-3.389-5.275v-5.158c0-.246,0-.244-.247-.234-.07,0-.1.02-.1.1q.013,2.125.018,4.249c0,.386-.012.773-.013,1.159v5.484c0,.127.034.159.157.159.663-.005,1.327,0,1.99,0h1.449c.042,0,.119-.012.122-.027a.969.969,0,0,0,.011-.288c0-.021-.1-.039-.161-.039H170.9c-.3,0-.262.009-.262-.256q-.005-2.575,0-5.148Z" transform="translate(-155.732 -147.294)" fill="#fff" stroke="#fff" stroke-width="0.3"/>
    <path id="Path_18" data-name="Path 18" d="M10,183H22.918c0,.427.008.845,0,1.261-.009.36-.056.726-.057,1.089q-.01,3.173,0,6.344c0,.712.037,1.423.061,2.134.006.159-.086.186-.206.186-.248,0-.5-.007-.745-.007H11.058c-.27,0-.541,0-.811.01-.19.01-.246-.055-.246-.251q.01-4.669,0-9.338Zm12.653,10.77v-1.581H10.234v1.585Zm-12.428-9.678H22.662v-.872H10.225Zm4.549.24c-.387,0-.759.01-1.129,0-.2-.007-.262.045-.262.257.008,2.374.005,4.748.005,7.117v.229h1.386Zm6.312,7.611v-7.61c-.384,0-.762.013-1.138-.005-.21-.01-.254.065-.253.263q.009,3.557,0,7.117v.239Zm-10.849-7.592v7.584h1.374v-7.584Zm7.683,7.592v-7.611c-.386,0-.759.013-1.129-.005-.21-.01-.253.068-.252.265q.008,3.557,0,7.117v.239Zm-4.763,0v-7.609h-1.3v7.61Zm3.147,0v-7.6H15.011v7.6Zm1.866-7.6v7.6h1.289v-7.6Zm4.455-.013c-.36,0-.721.012-1.075,0-.195-.009-.244.051-.243.247.006,2.387,0,4.775,0,7.16,0,.071.006.141.01.208h1.3Z" transform="translate(-10 -167.294)" fill="#fff" stroke="#fff" stroke-width="0.3"/>
  </g>
</svg>
