<svg xmlns="http://www.w3.org/2000/svg" width="22.202" height="20.352" viewBox="0 0 22.202 20.352">
  <g id="checkmark-2" transform="translate(0 -0.008)">
    <path id="Контур_1475" data-name="Контур 1475" d="M10.176,20.359A10.176,10.176,0,1,1,15.665,1.617a.694.694,0,0,1-.75,1.168,8.787,8.787,0,1,0,4.049,7.4c0-.29-.014-.576-.041-.858A.694.694,0,1,1,20.3,9.191q.047.49.047.993A10.188,10.188,0,0,1,10.176,20.359Zm0,0" fill="#6cb428"/>
    <path id="Контур_1476" data-name="Контур 1476" d="M154.2,32.911a.689.689,0,0,1-.49-.2l-4.163-4.163a.694.694,0,0,1,.981-.982l3.673,3.673,9.684-9.685a.694.694,0,1,1,.982.981L154.687,32.708A.7.7,0,0,1,154.2,32.911Zm0,0" transform="translate(-142.864 -20.414)" fill="#6cb428"/>
  </g>
</svg>
