<svg xmlns="http://www.w3.org/2000/svg" width="22.017" height="22.017" viewBox="0 0 22.017 22.017"><path d="M18.793,3.224A11.009,11.009,0,0,0,3.224,18.793,11.009,11.009,0,0,0,18.793,3.224Zm-.456,15.113A10.364,10.364,0,0,1,3.68,3.68,10.364,10.364,0,0,1,18.337,18.337Z" transform="translate(0)" fill="#aaa"/><path d="M152.931,150.539a.323.323,0,0,0-.323.323v1.109a1,1,0,0,0-.127.053l-3.631-3.631a.323.323,0,1,0-.456.456l3.631,3.631a1.011,1.011,0,0,0,.584,1.409v5.135a.323.323,0,0,0,.645,0v-5.135a1,1,0,0,0,.127-.053l.809.809a.323.323,0,0,0,.456-.456l-.809-.809a1.011,1.011,0,0,0-.583-1.409v-1.109A.323.323,0,0,0,152.931,150.539Zm0,2.758a.367.367,0,1,1,.367-.367A.367.367,0,0,1,152.931,153.3Z" transform="translate(-141.922 -141.921)" fill="#aaa"/><path d="M47.588,120.458a8.991,8.991,0,0,1-1.1.809l-.525-.909a.323.323,0,1,0-.559.323l.525.909a8.951,8.951,0,0,1-3.887,1.041v-1.049a.323.323,0,1,0-.645,0v1.049a8.952,8.952,0,0,1-3.888-1.039l.526-.911a.323.323,0,0,0-.559-.323l-.526.911a9.022,9.022,0,0,1-2.846-2.846l.911-.526a.323.323,0,0,0-.323-.559l-.911.526a8.952,8.952,0,0,1-1.039-3.888H33.8a.323.323,0,0,0,0-.645H32.747a8.952,8.952,0,0,1,1.041-3.887l.909.525a.323.323,0,0,0,.323-.559l-.909-.525a9,9,0,0,1,.809-1.1.323.323,0,1,0-.488-.422,9.627,9.627,0,0,0,6.959,15.907c.112,0,.223.006.334.006a9.593,9.593,0,0,0,6.285-2.335.323.323,0,0,0-.422-.488Z" transform="translate(-30.716 -102.645)" fill="#aaa"/><path d="M123.276,41.391a9.627,9.627,0,0,0-15.907-6.959.323.323,0,0,0,.422.488,8.985,8.985,0,0,1,1.1-.809l.525.908a.323.323,0,0,0,.559-.323l-.525-.909a8.956,8.956,0,0,1,3.887-1.041V33.8a.323.323,0,0,0,.645,0V32.747a8.952,8.952,0,0,1,3.888,1.039l-.526.911a.323.323,0,1,0,.559.323l.526-.911a9.022,9.022,0,0,1,2.846,2.846l-.911.526a.323.323,0,1,0,.323.559l.911-.526a8.952,8.952,0,0,1,1.039,3.888h-1.049a.323.323,0,0,0,0,.645h1.049a8.952,8.952,0,0,1-1.041,3.887l-.909-.525a.323.323,0,1,0-.323.559l.909.525a9,9,0,0,1-.809,1.1.322.322,0,1,0,.488.422A9.6,9.6,0,0,0,123.276,41.391Z" transform="translate(-102.644 -30.716)" fill="#aaa"/></svg>