<svg xmlns="http://www.w3.org/2000/svg" width="44.82" height="44.82" viewBox="0 0 44.82 44.82">
  <g id="clock-scheme" transform="translate(-1.078 -1.078)">
    <g id="Сгруппировать_902" data-name="Сгруппировать 902" transform="translate(1.078 1.078)">
      <path id="Контур_1822" data-name="Контур 1822" d="M22.41,0A22.41,22.41,0,1,0,44.82,22.41,22.436,22.436,0,0,0,22.41,0ZM4.669,23.344H2.8a.934.934,0,0,1,0-1.868H4.669a.934.934,0,0,1,0,1.868ZM21.476,2.8a.934.934,0,0,1,1.868,0V4.669a.934.934,0,0,1-1.868,0Zm1.868,39.218a.934.934,0,1,1-1.868,0V40.152a.934.934,0,1,1,1.868,0Zm8.13-10.545a.933.933,0,0,1-1.32,0l-7.289-7.289a1.8,1.8,0,0,1-.455.092,1.853,1.853,0,0,1-.176-3.7L28.1,8.009a.934.934,0,1,1,1.692.79l-5.87,12.578a1.817,1.817,0,0,1,.355,1.034,1.8,1.8,0,0,1-.092.455l7.289,7.289A.934.934,0,0,1,31.474,31.474Zm10.545-8.13H40.152a.934.934,0,1,1,0-1.868h1.867a.934.934,0,1,1,0,1.868Z" fill="#fff"/>
    </g>
  </g>
</svg>
