<svg xmlns="http://www.w3.org/2000/svg" width="37.324" height="38.092" viewBox="0 0 37.324 38.092">
  <g id="colors" transform="translate(-0.5)">
    <path id="Контур_1478" data-name="Контур 1478" d="M210.5,273.105v6.506l2.176-5.67Zm0,0" transform="translate(-194.377 -252.787)" fill="#fff"/>
    <path id="Контур_1479" data-name="Контур 1479" d="M210.5,144.57v7.172l2.976,1.142,2.4-6.251Zm0,0" transform="translate(-194.377 -133.814)" fill="#fff"/>
    <path id="Контур_1480" data-name="Контур 1480" d="M218.034,18.923,210.5,16.031V23.2l6.176,2.371,2-5.209a1.116,1.116,0,0,0-.642-1.442Zm0,0" transform="translate(-194.377 -14.839)" fill="#fff"/>
    <path id="Контур_1481" data-name="Контур 1481" d="M224.516,332.119l4.063-4.512-1.732-1.56Zm0,0" transform="translate(-207.35 -301.79)" fill="#fff"/>
    <path id="Контур_1482" data-name="Контур 1482" d="M269.929,206.047l-2.57,6.7,2.369,2.133,4.48-4.976Zm0,0" transform="translate(-247.006 -190.718)" fill="#fff"/>
    <path id="Контур_1483" data-name="Контур 1483" d="M321.988,91.446l-6-5.4-2.57,6.7,4.915,4.426,3.734-4.146A1.116,1.116,0,0,0,321.988,91.446Zm0,0" transform="translate(-289.641 -79.645)" fill="#fff"/>
    <path id="Контур_1484" data-name="Контур 1484" d="M220.789,396.49l5.411-2.757-1.058-2.077Zm0,0" transform="translate(-203.9 -362.518)" fill="#fff"/>
    <path id="Контур_1485" data-name="Контур 1485" d="M300.8,301.462l1.447,2.84,5.966-3.04-2.614-5.13Zm0,0" transform="translate(-277.956 -274.101)" fill="#fff"/>
    <path id="Контур_1486" data-name="Контур 1486" d="M395.267,207.8l-3.663-7.189-4.8,5.33,3,5.894,4.972-2.533A1.116,1.116,0,0,0,395.267,207.8Zm0,0" transform="translate(-357.565 -185.688)" fill="#fff"/>
    <path id="Контур_1487" data-name="Контур 1487" d="M12.776,0H1.616A1.116,1.116,0,0,0,.5,1.116V31.4a6.7,6.7,0,1,0,13.391,0V1.116A1.116,1.116,0,0,0,12.776,0ZM8.593,32.5a1.862,1.862,0,1,1,.544-1.315A1.875,1.875,0,0,1,8.593,32.5Zm0,0" fill="#fff"/>
  </g>
</svg>
