<svg xmlns="http://www.w3.org/2000/svg" width="36.809" height="45.887" viewBox="0 0 36.809 45.887">
  <g id="color-palette" transform="translate(-52.523)">
    <path id="Контур_1148" data-name="Контур 1148" d="M86.316,18.573l-2.48-2.743a3.932,3.932,0,0,0-1.15-5.234L79.108,8.122a3.941,3.941,0,0,0-2.476-3.805L68.719,1.161a3.9,3.9,0,0,0-2.942.013A3.922,3.922,0,0,0,62.976,0H54.457a3.939,3.939,0,0,0-3.934,3.934V37.694A8.189,8.189,0,0,0,64.094,43.87a.683.683,0,0,0,.06-.048l15.34-13.805a.674.674,0,1,0-.9-1l-.632.569-2.053-2.271,3.224-4.661,2.931,3.241-1.333,1.2a.674.674,0,0,0,.9,1l4.406-3.965a3.935,3.935,0,0,0,.28-5.557Zm-3.323-5.205a2.57,2.57,0,0,1-.417,1.935l-1.83,2.646L76.58,15.068l2.205-5.531L81.919,11.7A2.569,2.569,0,0,1,82.993,13.368Zm-6.4,10.593L73.8,22.034l2.265-5.682,3.911,2.7ZM72.43,29.972,71.025,29l2.265-5.682,2.531,1.75Zm1.037-10.736-1.953-.779a.674.674,0,0,0-.5,1.252l1.953.779-2.315,5.805L66.91,24.8V18.073l1.426.569a.674.674,0,0,0,.5-1.252l-1.925-.768V9.893l8.872,3.537Zm-7.9-4.205H57.93a.674.674,0,1,0,0,1.348h7.633v6.25H51.871v-6.25h3.188a.674.674,0,1,0,0-1.348H51.871V8.781H65.563v6.25ZM51.871,23.976H65.563v6.25H51.871Zm15.04,2.276,3.244,1.294L66.91,35.682Zm4.2,8,.747.826-3.492,3.143ZM68.2,36.093l2.316-5.808,1.151.8Zm.022-33.68,7.913,3.155a2.59,2.59,0,0,1,1.607,2.745c0,.005,0,.011,0,.016a2.6,2.6,0,0,1-.16.6l-1.3,3.25L66.91,8.442V3.934a3.911,3.911,0,0,0-.345-1.609,2.566,2.566,0,0,1,1.655.088ZM54.457,1.348h8.518a2.59,2.59,0,0,1,2.587,2.587v3.5H51.871v-3.5a2.59,2.59,0,0,1,2.587-2.587ZM51.871,37.694v-6.12H65.563v6.12a6.846,6.846,0,0,1-13.692,0Zm25.089-7.208-4.1,3.691L71.9,33.113l3.224-4.661Zm9.021-9.144a2.568,2.568,0,0,1-.847,1.788l-2.069,1.862-3.145-3.478,3.137-4.536,2.26,2.5a2.569,2.569,0,0,1,.665,1.865Z" transform="translate(2)" fill="#fff"/>
    <path id="Контур_1149" data-name="Контур 1149" d="M107.288,383.857a3.231,3.231,0,1,0,3.231,3.231A3.235,3.235,0,0,0,107.288,383.857Zm0,5.115a1.884,1.884,0,1,1,1.884-1.884A1.886,1.886,0,0,1,107.288,388.972Z" transform="translate(-48.319 -349.37)" fill="#fff"/>
  </g>
</svg>
