<svg id="construction" xmlns="http://www.w3.org/2000/svg" width="38" height="38.568" viewBox="0 0 38 38.568">
  <g id="Сгруппировать_277" data-name="Сгруппировать 277" transform="translate(37.008 9.783)">
    <g id="Сгруппировать_276" data-name="Сгруппировать 276" transform="translate(0 0)">
      <rect id="Прямоугольник_2674" data-name="Прямоугольник 2674" width="1" height="8" transform="translate(-0.008 0.354)" fill="#fff"/>
    </g>
  </g>
  <g id="Сгруппировать_279" data-name="Сгруппировать 279" transform="translate(0 9.783)">
    <g id="Сгруппировать_278" data-name="Сгруппировать 278" transform="translate(0 0)">
      <rect id="Прямоугольник_2675" data-name="Прямоугольник 2675" width="1" height="8" transform="translate(0 0.354)" fill="#fff"/>
    </g>
  </g>
  <g id="Сгруппировать_281" data-name="Сгруппировать 281" transform="translate(17.099 17.627)">
    <g id="Сгруппировать_280" data-name="Сгруппировать 280">
      <path id="Контур_644" data-name="Контур 644" d="M236.115,242.91V239.2a3.394,3.394,0,0,0-3.39-3.39h-.78A3.017,3.017,0,0,0,229.184,234H227v6.026h2.185a3.018,3.018,0,0,0,2.822-1.959h.718a1.131,1.131,0,0,1,1.13,1.13v3.712a3.394,3.394,0,0,0-3.013,3.368v8.663h8.286v-8.663A3.394,3.394,0,0,0,236.115,242.91Z" transform="translate(-227 -234)" fill="#fff"/>
    </g>
  </g>
  <g id="Сгруппировать_283" data-name="Сгруппировать 283" transform="translate(9.825 17.628)">
    <g id="Сгруппировать_282" data-name="Сгруппировать 282">
      <path id="Контур_645" data-name="Контур 645" d="M136.823,234.9a3.016,3.016,0,0,0-4.261,0l-2.131,2.131,2.131,2.131a3.013,3.013,0,0,0,4.261-4.261Z" transform="translate(-130.431 -234.018)" fill="#fff"/>
    </g>
  </g>
  <g id="Сгруппировать_285" data-name="Сгруппировать 285" transform="translate(13.707 8.413)">
    <g id="Сгруппировать_284" data-name="Сгруппировать 284" transform="translate(0 0)">
      <rect id="Прямоугольник_2676" data-name="Прямоугольник 2676" width="11" height="4" transform="translate(0.293 -0.276)" fill="#fff"/>
    </g>
  </g>
  <g id="Сгруппировать_287" data-name="Сгруппировать 287" transform="translate(7.608)">
    <g id="Сгруппировать_286" data-name="Сгруппировать 286">
      <path id="Контур_646" data-name="Контур 646" d="M120.962,0H104.39A3.394,3.394,0,0,0,101,3.39V19.661l.619-.619,2.131-2.13a5.238,5.238,0,0,1,3.729-1.543h5.2a5.273,5.273,0,0,1,3.988,1.825,5.657,5.657,0,0,1,5.2,5.632v2.085a5.659,5.659,0,0,1,2.395,2.43,7.944,7.944,0,0,0,.091-1.2V3.39A3.394,3.394,0,0,0,120.962,0Zm-1.13,14.915H105.52V6.779h14.312Z" transform="translate(-101)" fill="#fff"/>
    </g>
  </g>
  <g id="Сгруппировать_289" data-name="Сгруппировать 289" transform="translate(7.608 21.619)">
    <g id="Сгруппировать_288" data-name="Сгруппировать 288">
      <path id="Контур_647" data-name="Контур 647" d="M112.676,291.289h-4.444v-.055a5.361,5.361,0,0,1-.753.054,5.238,5.238,0,0,1-3.728-1.543l-2.131-2.131-.619-.619v4.52a7.918,7.918,0,0,0,7.909,7.909h3.164v-4.143a5.636,5.636,0,0,1,1.453-3.78q.164-.182.342-.348A5.281,5.281,0,0,1,112.676,291.289Z" transform="translate(-101 -286.995)" fill="#fff"/>
    </g>
  </g>
  <g id="Сгруппировать_291" data-name="Сгруппировать 291" transform="translate(3.013 3.427)">
    <g id="Сгруппировать_290" data-name="Сгруппировать 290">
      <path id="Контур_648" data-name="Контур 648" d="M43.088,68.208V45.5L40,47.016V67.1l3.1,1.524C43.092,68.489,43.088,68.349,43.088,68.208Z" transform="translate(-40 -45.497)" fill="#fff"/>
    </g>
  </g>
  <g id="Сгруппировать_293" data-name="Сгруппировать 293" transform="translate(32.456 3.427)">
    <g id="Сгруппировать_292" data-name="Сгруппировать 292">
      <path id="Контур_649" data-name="Контур 649" d="M430.88,45.5V68.208c0,.141,0,.28-.01.419l3.1-1.524V47.016Z" transform="translate(-430.87 -45.497)" fill="#fff"/>
    </g>
  </g>
</svg>
