<svg id="Capa_1" enable-background="new 0 0 512 512" height="512" viewBox="0 0 512 512" width="512" xmlns="http://www.w3.org/2000/svg"><g><path d="m451.996 30.002-20.001 30h80.005v-30z" fill="#07485e"/><path d="m210.998 110.007-20.001 50.003 185.995-20.001v-50.003h-130.992z" fill="#c48958"/><path d="m210.998 110.007-35.002-20.001h-130.992v50.003l165.994 20.001z" fill="#e3a76f"/><path d="m190.997 381.993h185.995v-241.984h-165.994z" fill="#e3a76f"/><path d="m45.004 140.009h165.994v241.984h-165.994z" fill="#f2d1a5"/><path d="m246 90.006h-35.002l-20.001 45.003 20.001 45.003h35.002z" fill="#9e6f46"/><path d="m175.996 90.006h35.002v90.006h-35.002z" fill="#c48958"/><path d="m421.996 30.002v336.991h-210.998l-10.001 15 10.001 15h240.998v-366.991z" fill="#87a0af"/><path d="m0 366.993h210.998v30h-210.998z" fill="#b4d2d7"/><circle cx="80.006" cy="431.996" fill="#07485e" r="50.002"/><path d="m80.006 411.994c-11.029 0-20.002 8.973-20.002 20.002s8.973 20.002 20.002 20.002 20.002-8.973 20.002-20.002-8.973-20.002-20.002-20.002z" fill="#e1ebf0"/><circle cx="341.99" cy="431.996" fill="#03232e" r="50.002"/><path d="m341.99 411.994c-11.029 0-20.002 8.973-20.002 20.002s8.973 20.002 20.002 20.002 20.002-8.973 20.002-20.002-8.972-20.002-20.002-20.002z" fill="#b4d2d7"/></g></svg>