<svg id="Сгруппировать_500" data-name="Сгруппировать 500" xmlns="http://www.w3.org/2000/svg" width="25.646" height="25.646" viewBox="0 0 25.646 25.646">
  <g id="Сгруппировать_249" data-name="Сгруппировать 249" transform="translate(14.988)">
    <g id="Сгруппировать_156" data-name="Сгруппировать 156">
      <path id="Контур_443" data-name="Контур 443" d="M303.745,4.379a2.24,2.24,0,0,0-.66-1.594L300.959.66A2.3,2.3,0,0,0,299.351,0h-.129V4.508h4.523V4.379Z" transform="translate(-299.222 0)" fill="#fff"/>
    </g>
  </g>
  <g id="Сгруппировать_250" data-name="Сгруппировать 250" transform="translate(0)">
    <g id="Сгруппировать_158" data-name="Сгруппировать 158">
      <path id="Контур_444" data-name="Контур 444" d="M13.722,15.5a3.016,3.016,0,0,1,.722-1.173l5.087-5.067V6.011H14.251a.731.731,0,0,1-.727-.751V0H2.254A2.257,2.257,0,0,0,0,2.254V23.392a2.257,2.257,0,0,0,2.254,2.254h15a2.274,2.274,0,0,0,2.274-2.254V17.784l-.826.806a2.988,2.988,0,0,1-1.168.721l-2.389.8-.364.02A1.878,1.878,0,0,1,13,17.653Zm-9.965-1.98h7.489a.751.751,0,0,1,0,1.5H3.757a.751.751,0,0,1,0-1.5ZM3.005,11.27a.751.751,0,0,1,.751-.751h7.489a.751.751,0,0,1,0,1.5H3.757A.751.751,0,0,1,3.005,11.27Zm0,6.011a.751.751,0,0,1,.751-.751h7.489a.751.751,0,0,1,0,1.5H3.757A.751.751,0,0,1,3.005,17.281Zm11.246,3.757a.751.751,0,0,1,0,1.5H9.743a.751.751,0,1,1,0-1.5ZM3.757,9.016a.751.751,0,0,1,0-1.5H14.251a.751.751,0,0,1,0,1.5Z" transform="translate(0)" fill="#fff"/>
    </g>
  </g>
  <g id="Сгруппировать_251" data-name="Сгруппировать 251" transform="translate(14.409 16.169)">
    <g id="Сгруппировать_160" data-name="Сгруппировать 160">
      <path id="Контур_445" data-name="Контур 445" d="M288.336,322.808l-.654,1.961a.376.376,0,0,0,.475.475l1.96-.655Z" transform="translate(-287.663 -322.808)" fill="#fff"/>
    </g>
  </g>
  <g id="Сгруппировать_252" data-name="Сгруппировать 252" transform="translate(15.97 9.983)">
    <g id="Сгруппировать_162" data-name="Сгруппировать 162">
      <path id="Контур_446" data-name="Контур 446" d="M323.768,199.307l-4.948,4.948,2.134,2.134,4.948-4.949Z" transform="translate(-318.82 -199.307)" fill="#fff"/>
    </g>
  </g>
  <g id="Сгруппировать_253" data-name="Сгруппировать 253" transform="translate(21.981 7.41)">
    <g id="Сгруппировать_164" data-name="Сгруппировать 164">
      <path id="Контур_447" data-name="Контур 447" d="M442.043,148.366a1.569,1.569,0,0,0-2.132,0l-1.092,1.092,2.134,2.134,1.092-1.092A1.512,1.512,0,0,0,442.043,148.366Z" transform="translate(-438.819 -147.949)" fill="#fff"/>
    </g>
  </g>
</svg>
