<svg xmlns="http://www.w3.org/2000/svg" width="39.607" height="45.072" viewBox="0 0 39.607 45.072">
  <g id="door" transform="translate(-27.429 1)">
    <g id="Сгруппировать_854" data-name="Сгруппировать 854" transform="translate(27.429)">
      <g id="Сгруппировать_853" data-name="Сгруппировать 853" transform="translate(0 -1)">
        <path id="Контур_1808" data-name="Контур 1808" d="M95.953,74.65h3.376a4.478,4.478,0,0,0-3.376-1.508,4.524,4.524,0,0,0,0,9.048,4.478,4.478,0,0,0,3.376-1.508H95.953a3.016,3.016,0,1,1,0-6.032Z" transform="translate(-86.151 -67.111)" fill="#fff"/>
        <path id="Контур_1810" data-name="Контур 1810" d="M128,111.222a1.508,1.508,0,0,0,1.508,1.508h21.865a1.508,1.508,0,1,0,0-3.016H129.508A1.508,1.508,0,0,0,128,111.222Z" transform="translate(-119.706 -100.667)" fill="#fff"/>
        <path id="Контур_1811" data-name="Контур 1811" d="M42.509,31.53a12.033,12.033,0,0,1,4.523-9.266V13.571h-4.6a5.956,5.956,0,0,1-5.2,3.016,6.032,6.032,0,1,1,0-12.063,5.956,5.956,0,0,1,5.2,3.016h4.6V2.262A2.262,2.262,0,0,0,44.77,0H29.691a2.262,2.262,0,0,0-2.262,2.262v37.7a2.262,2.262,0,0,0,2.262,2.262H44.77A2.275,2.275,0,0,0,46.82,40.9,12.033,12.033,0,0,1,42.509,31.53Z" transform="translate(-27.429)" fill="#fff"/>
        <g id="search" transform="translate(6.148 11.613)">
          <path id="Контур_1854" data-name="Контур 1854" d="M33.184,31.864l-5.4-5.4a9.457,9.457,0,1,0-1.325,1.325l5.4,5.395a.935.935,0,1,0,1.325-1.32ZM20.465,28.046a7.583,7.583,0,1,1,7.586-7.581A7.591,7.591,0,0,1,20.465,28.046Z" fill="#fff"/>
        </g>
      </g>
    </g>
  </g>
</svg>
