<svg id="Слой_1" data-name="Слой 1" xmlns="http://www.w3.org/2000/svg" xmlns:xlink="http://www.w3.org/1999/xlink" viewBox="0 0 69.39 75.04"><defs><style>.cls-1{fill:#fff;}.cls-1,.cls-5,.cls-6{stroke:#b3b4b4;}.cls-1,.cls-5{stroke-miterlimit:10;}.cls-2{fill:url(#Безымянный_градиент_19);}.cls-3{fill:#b3b4b4;}.cls-4{fill:#fffffe;}.cls-5{fill:url(#Безымянный_градиент_19-2);}.cls-6{fill:none;stroke-linecap:round;stroke-linejoin:bevel;stroke-width:0.75px;}</style><linearGradient id="Безымянный_градиент_19" x1="15.68" y1="44.1" x2="15.68" y2="6.04" gradientUnits="userSpaceOnUse"><stop offset="0" stop-color="#fff"/><stop offset="1" stop-color="#c0e7f9"/></linearGradient><linearGradient id="Безымянный_градиент_19-2" x1="49.88" y1="44.24" x2="49.88" y2="5.39" xlink:href="#Безымянный_градиент_19"/></defs><title>sБалконный блок с глухим окном</title><rect class="cls-1" x="0.51" y="0.5" width="30.36" height="48.43"/><rect class="cls-1" x="0.51" y="48.93" width="30.36" height="25.57"/><rect class="cls-2" x="6.18" y="6.04" width="18.99" height="38.06"/><path class="cls-3" d="M24.67,6.54V43.6h-18V6.54h18m1-1h-20V44.6h20V5.54Z"/><rect class="cls-4" x="6.18" y="53.37" width="18.99" height="15.58"/><path class="cls-3" d="M24.67,53.87V68.46h-18V53.87h18m1-1h-20V69.46h20V52.87Z"/><rect class="cls-1" x="30.88" y="0.5" width="38" height="48.71"/><rect class="cls-5" x="35.76" y="5.39" width="28.23" height="38.85"/><polyline class="cls-6" points="30.88 0.61 0.51 36.89 30.88 74.5 15.7 0 0.51 73.89"/><line class="cls-6" x1="48.26" y1="21.98" x2="52.68" y2="27.45"/><line class="cls-6" x1="52.68" y1="21.98" x2="48.26" y2="27.45"/></svg>