<svg id="Слой_1" data-name="Слой 1" xmlns="http://www.w3.org/2000/svg" xmlns:xlink="http://www.w3.org/1999/xlink" viewBox="0 0 92.19 74.92"><defs><style>.cls-1{fill:#fff;stroke:#b3b4b4;stroke-miterlimit:10;}.cls-2{fill:url(#Безымянный_градиент_19);}.cls-3{fill:#b3b4b4;}.cls-4{fill:url(#Безымянный_градиент_19-2);}.cls-5{fill:url(#Безымянный_градиент_19-3);}.cls-6{fill:#fffffe;}</style><linearGradient id="Безымянный_градиент_19" x1="47.69" y1="43.46" x2="47.69" y2="5.91" gradientUnits="userSpaceOnUse"><stop offset="0" stop-color="#fff"/><stop offset="1" stop-color="#c0e7f9"/></linearGradient><linearGradient id="Безымянный_градиент_19-2" x1="74.86" y1="43.46" x2="74.86" y2="5.91" xlink:href="#Безымянный_градиент_19"/><linearGradient id="Безымянный_градиент_19-3" x1="15.68" y1="44.04" x2="15.68" y2="5.98" xlink:href="#Безымянный_градиент_19"/></defs><title>sБалконный блок с 2 окнами</title><rect class="cls-1" x="30.88" y="0.51" width="60.88" height="48.36"/><rect class="cls-2" x="36.29" y="5.91" width="22.81" height="37.55"/><path class="cls-3" d="M58.6,6.41V43H36.79V6.41H58.6m1-1H35.79V44H59.6V5.41Z"/><rect class="cls-4" x="63.37" y="5.91" width="22.98" height="37.55"/><path class="cls-3" d="M85.85,6.41V43h-22V6.41h22m1-1h-24V44h24V5.41Z"/><rect class="cls-1" x="0.52" y="0.44" width="30.36" height="48.43"/><rect class="cls-1" x="0.52" y="48.87" width="30.36" height="25.57"/><rect class="cls-5" x="6.19" y="5.98" width="18.99" height="38.06"/><path class="cls-3" d="M24.68,6.48V43.54h-18V6.48h18m1-1h-20V44.54h20V5.48Z"/><rect class="cls-6" x="6.19" y="53.31" width="18.99" height="15.58"/><path class="cls-3" d="M24.68,53.81V68.39h-18V53.81h18m1-1h-20V69.39h20V52.81Z"/></svg>