<svg id="Слой_1" data-name="Слой 1" xmlns="http://www.w3.org/2000/svg" xmlns:xlink="http://www.w3.org/1999/xlink" viewBox="0 0 92.23 74.97"><defs><style>.cls-1{fill:#fff;stroke-miterlimit:10;}.cls-1,.cls-7{stroke:#b3b4b4;}.cls-2{fill:url(#Безымянный_градиент_19);}.cls-3{fill:#b3b4b4;}.cls-4{fill:url(#Безымянный_градиент_19-2);}.cls-5{fill:url(#Безымянный_градиент_19-3);}.cls-6{fill:#fffffe;}.cls-7{fill:none;stroke-linecap:round;stroke-linejoin:bevel;stroke-width:0.75px;}</style><linearGradient id="Безымянный_градиент_19" x1="47.65" y1="43.5" x2="47.65" y2="5.95" gradientUnits="userSpaceOnUse"><stop offset="0" stop-color="#fff"/><stop offset="1" stop-color="#c0e7f9"/></linearGradient><linearGradient id="Безымянный_градиент_19-2" x1="74.82" y1="43.5" x2="74.82" y2="5.95" xlink:href="#Безымянный_градиент_19"/><linearGradient id="Безымянный_градиент_19-3" x1="15.64" y1="44.08" x2="15.64" y2="6.02" xlink:href="#Безымянный_градиент_19"/></defs><title>sБалконный блок с двумя окнами</title><rect class="cls-1" x="30.83" y="0.55" width="60.88" height="48.36"/><rect class="cls-2" x="36.24" y="5.95" width="22.81" height="37.55"/><path class="cls-3" d="M58.56,6.45V43H36.74V6.45H58.56m1-1H35.74V44H59.56V5.45Z"/><rect class="cls-4" x="63.33" y="5.95" width="22.98" height="37.55"/><path class="cls-3" d="M85.81,6.45V43h-22V6.45h22m1-1h-24V44h24V5.45Z"/><rect class="cls-1" x="0.48" y="0.48" width="30.36" height="48.43"/><rect class="cls-1" x="0.48" y="48.91" width="30.36" height="25.57"/><rect class="cls-5" x="6.15" y="6.02" width="18.99" height="38.06"/><path class="cls-3" d="M24.64,6.52V43.58h-18V6.52h18m1-1h-20V44.58h20V5.52Z"/><rect class="cls-6" x="6.15" y="53.35" width="18.99" height="15.58"/><path class="cls-3" d="M24.64,53.85V68.44h-18V53.85h18m1-1h-20V69.44h20V52.85Z"/><polyline class="cls-7" points="30.83 1.08 0.46 37.36 30.83 74.98 15.64 0.48 0.46 74.37"/><polyline class="cls-7" points="86.18 5.82 63.73 24.5 86.18 43.88 74.95 5.5 63.73 43.57"/><line class="cls-7" x1="46.27" y1="22.32" x2="50.69" y2="27.78"/><line class="cls-7" x1="50.69" y1="22.32" x2="46.27" y2="27.78"/></svg>