<svg xmlns="http://www.w3.org/2000/svg" width="34.867" height="34.839" viewBox="0 0 34.867 34.839">
  <g id="ecology-and-environment" transform="translate(0)">
    <g id="Сгруппировать_207" data-name="Сгруппировать 207" transform="translate(7.263 0)">
      <g id="Сгруппировать_206" data-name="Сгруппировать 206">
        <path id="Контур_503" data-name="Контур 503" d="M134.2,2.11a.727.727,0,0,0-.671-.449c-5.451,0-10.424,1.719-13.3,4.6a6.679,6.679,0,0,0-1.707,6.418.727.727,0,0,0,1.325.189,32.578,32.578,0,0,1,4.878-6.206.726.726,0,0,1,1.027,1.027c-.558.558-1.065,1.111-1.546,1.661-.047.054-.09.108-.137.161a29.853,29.853,0,0,0-5.028,7.976c-.944-2.952-2.714-8.021-4.329-10.162a3.7,3.7,0,0,0-.426-4.707,9.77,9.77,0,0,0-6.907-2.4.727.727,0,0,0-.514,1.241,6.23,6.23,0,0,1,1.079,3.209,5.878,5.878,0,0,0,1.113,3.185,3.7,3.7,0,0,0,4.605.5c1.688,2.364,3.885,9.095,4.642,11.686a.725.725,0,0,0,.7.522h.017a.727.727,0,0,0,.689-.556,18.983,18.983,0,0,1,1.444-3.588,6.586,6.586,0,0,0,8.509-.713c1.244-1.244,1.621-3.54,2.021-5.971.431-2.621.877-5.332,2.361-6.817A.725.725,0,0,0,134.2,2.11Z" transform="translate(-106.657 -0.208)" fill="#fff"/>
      </g>
    </g>
    <g id="Сгруппировать_209" data-name="Сгруппировать 209" transform="translate(0 16.008)">
      <g id="Сгруппировать_208" data-name="Сгруппировать 208">
        <path id="Контур_504" data-name="Контур 504" d="M8.49,236.93c-1.245-1.181-6.224-1.562-7.72-1.65a.78.78,0,0,0-.542.2A.731.731,0,0,0,0,236v14.529a.727.727,0,0,0,.726.726H5.085a.726.726,0,0,0,.69-.5c.106-.325,2.609-9.462,2.939-13.239A.726.726,0,0,0,8.49,236.93Z" transform="translate(0 -235.28)" fill="#fff"/>
      </g>
    </g>
    <g id="Сгруппировать_211" data-name="Сгруппировать 211" transform="translate(7.552 20.104)">
      <g id="Сгруппировать_210" data-name="Сгруппировать 210">
        <path id="Контур_505" data-name="Контур 505" d="M133.848,300.778l-5.085,2.17c-1.408.068-4.335-.023-5.085-.013s-4.511-1.2-3.92-1.44a2.936,2.936,0,0,1,1.014-.013c3.318.276,8.717.944,8.717-1.453s-5.85-2.906-7.264-2.906-3.783-1.268-5.811-1.453c-.806-.073-1.913-.183-3.038-.253a77.346,77.346,0,0,1-2.486,9.864l7.7,3.484c2.882,1.09,4.842,2.481,10.9,0,0,0,8.717-3.7,8.717-5.811C138.207,301.211,136.209,299.962,133.848,300.778Z" transform="translate(-110.891 -295.419)" fill="#fff"/>
      </g>
    </g>
  </g>
</svg>
