<svg xmlns="http://www.w3.org/2000/svg" width="85.861" height="85.448" viewBox="0 0 85.861 85.448">
  <g id="email" transform="translate(0 -1.233)">
    <path id="Контур_487" data-name="Контур 487" d="M84.52,86.681H1.342A1.342,1.342,0,0,1,0,85.339v-48.3L42.066,1.55a1.342,1.342,0,0,1,1.73,0L85.861,37.042v48.3A1.342,1.342,0,0,1,84.52,86.681Z" transform="translate(0 0)" fill="#ffb357"/>
    <path id="Контур_488" data-name="Контур 488" d="M105.787,38.766H33.342A1.342,1.342,0,0,0,32,40.108v71.1a1.342,1.342,0,0,0,1.342,1.342h72.445a1.342,1.342,0,0,0,1.342-1.342v-71.1A1.342,1.342,0,0,0,105.787,38.766Z" transform="translate(-26.634 -31.238)" fill="#f3f1f1"/>
    <path id="Контур_489" data-name="Контур 489" d="M69.564,233.476,32,211.456v43.486a1.342,1.342,0,0,0,1.342,1.342h72.445a1.342,1.342,0,0,0,1.342-1.342V211.456Z" transform="translate(-26.634 -174.969)" fill="#e6e3e2"/>
    <path id="Контур_490" data-name="Контур 490" d="M3.02,264.113a1.334,1.334,0,0,0,.835.293H87.033a1.342,1.342,0,0,0,1.342-1.342v-48.3Z" transform="translate(-2.514 -177.724)" fill="#ffc44f"/>
    <path id="Контур_491" data-name="Контур 491" d="M48.125,353.526,3.02,379.6a1.335,1.335,0,0,0,.835.293H87.033a1.342,1.342,0,0,0,1.342-1.342V376.8Z" transform="translate(-2.514 -293.214)" fill="#ffb357"/>
    <path id="Контур_492" data-name="Контур 492" d="M0,214.766v48.3A1.342,1.342,0,0,0,1.342,264.4H84.52a1.335,1.335,0,0,0,.835-.293Z" transform="translate(0 -177.724)" fill="#ffd791"/>
    <path id="Контур_493" data-name="Контур 493" d="M167.412,71.969a21.875,21.875,0,0,0-14.617-5.2,20.8,20.8,0,1,0,.229,41.589h.442a1.342,1.342,0,0,0,1.342-1.342v-1.342a1.342,1.342,0,0,0-1.342-1.342h-.486a16.77,16.77,0,1,1-.184-33.54c9.874,0,16.77,6.344,16.77,15.428,0,7.33-5.074,9.325-8.049,9.864V77.5a1.342,1.342,0,0,0-1.342-1.342h-1.342A1.342,1.342,0,0,0,157.49,77.5v1.59a7.852,7.852,0,0,0-4.7-1.59c-4.808,0-8.72,4.514-8.72,10.062s3.912,10.062,8.72,10.062a7.852,7.852,0,0,0,4.7-1.59v2.261a2.012,2.012,0,0,0,2.012,2.012,16.323,16.323,0,0,0,8.11-2.318c2.727-1.7,5.977-5.129,5.977-11.768A18.724,18.724,0,0,0,167.412,71.969ZM152.794,93.6c-2.589,0-4.7-2.708-4.7-6.037s2.106-6.037,4.7-6.037,4.7,2.708,4.7,6.037S155.384,93.6,152.794,93.6Z" transform="translate(-109.864 -54.543)" fill="#9cc445"/>
  </g>
</svg>
