<svg xmlns="http://www.w3.org/2000/svg" width="14.967" height="11.76" viewBox="0 0 14.967 11.76">
  <g id="email" transform="translate(2 -7.131)">
    <g id="black-back-closed-envelope-shape" transform="translate(-2 7.131)">
      <g id="Сгруппировать_87" data-name="Сгруппировать 87">
        <path id="Контур_360" data-name="Контур 360" d="M30.116,328.1a1.279,1.279,0,0,0,.876-.33l-4.24-4.24-.293.211q-.476.351-.773.547a4.759,4.759,0,0,1-.789.4,2.406,2.406,0,0,1-.919.2h-.017a2.4,2.4,0,0,1-.919-.2,4.744,4.744,0,0,1-.789-.4q-.3-.2-.773-.547l-.293-.212-4.241,4.242a1.279,1.279,0,0,0,.876.33Z" transform="translate(-16.486 -316.337)" fill="#2d85b8"/>
        <path id="Контур_361" data-name="Контур 361" d="M.844,199.282A4.428,4.428,0,0,1,0,198.555v6.452l3.737-3.737Q2.616,200.486.844,199.282Z" transform="translate(0 -194.763)" fill="#2d85b8"/>
        <path id="Контур_362" data-name="Контур 362" d="M416.21,199.282q-1.706,1.155-2.9,1.989l3.736,3.736v-6.452A4.61,4.61,0,0,1,416.21,199.282Z" transform="translate(-402.078 -194.763)" fill="#2d85b8"/>
        <path id="Контур_363" data-name="Контур 363" d="M13.636,59.013H1.342a1.193,1.193,0,0,0-.99.434,1.685,1.685,0,0,0-.347,1.086,1.952,1.952,0,0,0,.459,1.14,4.143,4.143,0,0,0,.977.965q.284.2,1.712,1.19c.514.356.961.667,1.345.935l.843.59.125.089.23.166q.271.2.451.317t.434.271a2.534,2.534,0,0,0,.48.226,1.329,1.329,0,0,0,.418.075H7.5a1.329,1.329,0,0,0,.418-.075A2.529,2.529,0,0,0,8.4,66.2q.255-.15.434-.271t.451-.317l.23-.166.125-.089.845-.587,3.064-2.127a3.973,3.973,0,0,0,1.019-1.027,2.21,2.21,0,0,0,.409-1.261,1.347,1.347,0,0,0-1.336-1.336Z" transform="translate(-0.006 -59.013)" fill="#2d85b8"/>
      </g>
    </g>
  </g>
</svg>
