<svg id="factory_1_" data-name="factory (1)" xmlns="http://www.w3.org/2000/svg" width="51.307" height="51.307" viewBox="0 0 51.307 51.307">
  <path id="Контур_977" data-name="Контур 977" d="M94.037,45.384a.759.759,0,1,0-1.515.072l.118,2.472a.757.757,0,0,0,.756.721h.036a.758.758,0,0,0,.724-.794Z" transform="translate(-54.519 -27.381)" fill="#fff"/>
  <path id="Контур_978" data-name="Контур 978" d="M95.231,10.75a3.359,3.359,0,0,0-3.355,3.355.758.758,0,0,0,1.515,0,1.842,1.842,0,0,1,1.84-1.84h2.284a.758.758,0,0,0,0-1.515Z" transform="translate(-54.153 -8.152)" fill="#fff"/>
  <path id="Контур_979" data-name="Контур 979" d="M115.278,10.75h-3.993a.758.758,0,0,0,0,1.515h3.993a.758.758,0,1,0,0-1.515Z" transform="translate(-64.729 -8.152)" fill="#fff"/>
  <path id="Контур_980" data-name="Контур 980" d="M118.1,6.265h1.043a.758.758,0,0,0,0-1.515H118.1a.758.758,0,0,0,0,1.515Z" transform="translate(-68.592 -4.75)" fill="#fff"/>
  <path id="Контур_981" data-name="Контур 981" d="M86.633,11.461a.758.758,0,0,0,.758-.758,4.443,4.443,0,0,1,4.438-4.438h4.26a.758.758,0,0,0,0-1.515h-4.26A5.96,5.96,0,0,0,85.875,10.7.758.758,0,0,0,86.633,11.461Z" transform="translate(-50.751 -4.75)" fill="#fff"/>
  <path id="Контур_982" data-name="Контур 982" d="M55.3,61.973h-1.84V45.494a.758.758,0,0,0-.758-.758H47.44l-.87-18.25a.758.758,0,0,0,.449-.693V23.2a.758.758,0,0,0-.758-.758H37.6a.758.758,0,0,0-.758.758v2.6a.758.758,0,0,0,.449.693l-.871,18.25H26.1V41.191h1.839a.758.758,0,0,0,.758-.758v-2.6a.758.758,0,0,0-.758-.758H5.508a.758.758,0,0,0-.758.758v2.6a.758.758,0,0,0,.758.758h1.84V61.973H5.508a.758.758,0,0,0-.758.758v2.6a.758.758,0,0,0,.758.758H55.3a.758.758,0,0,0,.758-.758v-2.6A.758.758,0,0,0,55.3,61.973ZM38.359,23.955H45.5v1.082H38.359Zm.448,2.6h6.249l.866,18.185H37.94Zm13.137,19.7V61.974H26.1V46.252ZM6.265,38.593H27.181v1.082H6.265Zm2.6,2.6H24.584V61.973H20.079v-7.9a.758.758,0,0,0-.758-.758h-5.2a.758.758,0,0,0-.758.758v7.9h-4.5Zm9.7,20.782h-3.68V54.829h3.68Zm35.98,2.6H6.265V63.489H54.541Z" transform="translate(-4.75 -14.78)" fill="#fff"/>
  <path id="Контур_983" data-name="Контур 983" d="M28.408,83.03h2.6a.758.758,0,0,0,.758-.758v-2.6a.758.758,0,0,0-.758-.758h-2.6a.757.757,0,0,0-.758.758v2.6A.758.758,0,0,0,28.408,83.03Zm.758-2.6h1.082v1.082H29.165Z" transform="translate(-17.735 -46.805)" fill="#fff"/>
  <path id="Контур_984" data-name="Контур 984" d="M60.316,94.958h2.6a.758.758,0,0,0,.758-.758V91.6a.758.758,0,0,0-.758-.758h-2.6a.758.758,0,0,0-.758.758v2.6a.757.757,0,0,0,.758.758Zm.758-2.6h1.082v1.082H61.073Z" transform="translate(-35.828 -53.569)" fill="#fff"/>
  <path id="Контур_985" data-name="Контур 985" d="M79.908,94.958h2.6a.757.757,0,0,0,.758-.758V91.6a.758.758,0,0,0-.758-.758h-2.6a.758.758,0,0,0-.758.758v2.6a.757.757,0,0,0,.758.758Zm.758-2.6h1.082v1.082H80.665Z" transform="translate(-46.937 -53.569)" fill="#fff"/>
  <path id="Контур_986" data-name="Контур 986" d="M99.508,94.958h2.6a.757.757,0,0,0,.758-.758V91.6a.758.758,0,0,0-.758-.758h-2.6a.758.758,0,0,0-.758.758v2.6a.757.757,0,0,0,.758.758Zm.758-2.6h1.082v1.082h-1.082Z" transform="translate(-58.051 -53.569)" fill="#fff"/>
</svg>
