<svg xmlns="http://www.w3.org/2000/svg" width="31.5" height="36.346" viewBox="0 0 31.5 36.346">
  <g id="floor" transform="translate(-34.133)">
    <g id="Сгруппировать_639" data-name="Сгруппировать 639" transform="translate(34.133)">
      <g id="Сгруппировать_638" data-name="Сгруппировать 638" transform="translate(0)">
        <path id="Контур_1508" data-name="Контур 1508" d="M221.867,194.9h4.846v-24.23h-4.846Zm3.635-23.625a.606.606,0,1,1-.606.606A.606.606,0,0,1,225.5,171.273Zm-2.423,0a.606.606,0,1,1-.606.606A.606.606,0,0,1,223.078,171.273Z" transform="translate(-208.54 -158.552)" fill="#fff"/>
        <path id="Контур_1509" data-name="Контур 1509" d="M307.2,36.346h4.846V0H307.2Zm3.635-34.528a.606.606,0,1,1-.606.606A.606.606,0,0,1,310.835,1.817Zm0,31.5a.606.606,0,1,1-.606.606A.606.606,0,0,1,310.835,33.317Zm-2.423-31.5a.606.606,0,1,1-.606.606A.606.606,0,0,1,308.412,1.817Zm0,31.5a.606.606,0,1,1-.606.606A.606.606,0,0,1,308.412,33.317Z" transform="translate(-287.816)" fill="#fff"/>
        <path id="Контур_1510" data-name="Контур 1510" d="M136.533,23.625h4.846V0h-4.846Zm3.635-1.817a.606.606,0,1,1-.606.606A.606.606,0,0,1,140.168,21.807Zm-2.423,0a.606.606,0,1,1-.606.606A.606.606,0,0,1,137.745,21.807Z" transform="translate(-129.264)" fill="#fff"/>
        <path id="Контур_1511" data-name="Контур 1511" d="M136.533,361.376h4.846V349.867h-4.846Zm3.635-10.9a.606.606,0,1,1-.606.606A.606.606,0,0,1,140.168,350.473Zm-2.423,0a.606.606,0,1,1-.606.606A.606.606,0,0,1,137.745,350.473Z" transform="translate(-129.264 -325.031)" fill="#fff"/>
        <path id="Контур_1512" data-name="Контур 1512" d="M397.985,0h-5.452V16.961h6.058V.606A.605.605,0,0,0,397.985,0Zm-4.24,16.356a.606.606,0,1,1,.606-.606A.606.606,0,0,1,393.745,16.356Zm2.423,0a.606.606,0,1,1,.606-.606A.606.606,0,0,1,396.168,16.356Z" transform="translate(-367.091)" fill="#fff"/>
        <path id="Контур_1513" data-name="Контур 1513" d="M34.133.606V35.74a.605.605,0,0,0,.606.606h5.452V0H34.739A.605.605,0,0,0,34.133.606Zm4.846,1.212a.606.606,0,1,1-.606.606A.606.606,0,0,1,38.979,1.817Zm0,31.5a.606.606,0,1,1-.606.606A.606.606,0,0,1,38.979,33.317Zm-2.423-31.5a.606.606,0,1,1-.606.606A.606.606,0,0,1,36.556,1.817Zm0,31.5a.606.606,0,1,1-.606.606A.606.606,0,0,1,36.556,33.317Z" transform="translate(-34.133)" fill="#fff"/>
        <path id="Контур_1514" data-name="Контур 1514" d="M392.533,274.173h5.452a.605.605,0,0,0,.606-.606V256h-6.058Zm3.635-17.567a.606.606,0,1,1-.606.606A.606.606,0,0,1,396.168,256.606Zm-2.423,0a.606.606,0,1,1-.606.606A.606.606,0,0,1,393.745,256.606Z" transform="translate(-367.091 -237.827)" fill="#fff"/>
        <path id="Контур_1515" data-name="Контур 1515" d="M221.867,10.9h4.846V0h-4.846ZM225.5,9.086a.606.606,0,1,1-.606.606A.606.606,0,0,1,225.5,9.086Zm-2.423,0a.606.606,0,1,1-.606.606A.606.606,0,0,1,223.078,9.086Z" transform="translate(-208.54)" fill="#fff"/>
      </g>
    </g>
  </g>
</svg>
