<svg xmlns="http://www.w3.org/2000/svg" width="50.456" height="39.275" viewBox="0 0 50.456 39.275">
  <g id="gift-card" transform="translate(0 -0.501)">
    <path id="Контур_1818" data-name="Контур 1818" d="M327.971,220.024a.985.985,0,1,1-.985-.985A.985.985,0,0,1,327.971,220.024Zm0,0" transform="translate(-293.874 -197.002)" fill="#fff"/>
    <path id="Контур_1819" data-name="Контур 1819" d="M47.5,6.27H31.974A7.758,7.758,0,0,0,29.121.953a2.908,2.908,0,0,0-3.207.061L20.988,4.3H15.672L10.745,1.014A2.909,2.909,0,0,0,7.538.954,7.758,7.758,0,0,0,4.685,6.27H2.956A2.96,2.96,0,0,0,0,9.226V36.819a2.96,2.96,0,0,0,2.956,2.956H47.5a2.96,2.96,0,0,0,2.956-2.956V9.226A2.96,2.96,0,0,0,47.5,6.27ZM1.971,27.95H48.485v3.942H1.971Zm25.036-25.3A.956.956,0,0,1,28.041,2.6c1.085.712,1.9,2.57,2.077,4.735.185,2.225-.4,5.444-2.076,6.542a.94.94,0,0,1-.959-.008c-.237-.187-4.8-3.192-4.812-3.2V9.226h2.956a.985.985,0,1,0,0-1.971H22.271V5.812ZM10.956,15.327l4.716-3.144h1.1l-3.72,7.978-.89-1.462a.984.984,0,0,0-.991-.462l-1.693.258ZM20.3,10.212H16.359V6.27H20.3Zm.687,1.971L25.7,15.326,27.18,18.5l-1.693-.259a.984.984,0,0,0-.99.462l-.89,1.463-3.721-7.979ZM8.617,2.6a.955.955,0,0,1,1.035.052l4.736,3.157V7.255H11.431a.985.985,0,1,0,0,1.971h2.956V10.67c-.01.007-4.8,3.192-4.81,3.2a.942.942,0,0,1-.96.01C6.929,12.771,6.357,9.564,6.541,7.335c.177-2.164.992-4.022,2.076-4.733ZM2.956,8.241H4.533c0,3.229,1.179,6.09,3.006,7.287a2.761,2.761,0,0,0,.965.394L6.915,19.331a.985.985,0,0,0,1.042,1.39l2.863-.437,1.505,2.474a.986.986,0,0,0,1.735-.1l4.269-9.157,4.27,9.157a.985.985,0,0,0,.839.568l.054,0a.986.986,0,0,0,.842-.473l1.506-2.474,2.863.437a.985.985,0,0,0,1.042-1.39l-1.589-3.409a2.765,2.765,0,0,0,.967-.394c1.825-1.2,3-4.057,3-7.287H47.5a.986.986,0,0,1,.985.985V25.979H1.971V9.226a.986.986,0,0,1,.985-.985ZM47.5,37.8H2.956a.986.986,0,0,1-.985-.985V33.863H48.485v2.956A.987.987,0,0,1,47.5,37.8Zm0,0" fill="#fff"/>
    <path id="Контур_1820" data-name="Контур 1820" d="M366.985,221.01h8.475a.985.985,0,0,0,0-1.971h-8.475a.985.985,0,0,0,0,1.971Zm0,0" transform="translate(-329.932 -197.002)" fill="#fff"/>
  </g>
</svg>
