<svg id="_047-google-plus" data-name="047-google-plus" xmlns="http://www.w3.org/2000/svg" width="22.289" height="14.366" viewBox="0 0 22.289 14.366">
  <path id="Контур_372" data-name="Контур 372" d="M7.226,2.612a4.6,4.6,0,0,1,3.657,1.841l1.854-1.868a7.179,7.179,0,1,0,1.4,6.556,6.963,6.963,0,0,0,.274-1.959V6.53H7.879V9.142H11.34a4.544,4.544,0,0,1-4.114,2.613A4.614,4.614,0,0,1,2.612,7.183,4.614,4.614,0,0,1,7.226,2.612Zm0,0" transform="translate(0 0)" fill="#2d85b8"/>
  <path id="Контур_373" data-name="Контур 373" d="M365.571,90h-2.612v1.959H361v2.612h1.959V96.53h2.612V94.571h2V91.959h-2Zm0,0" transform="translate(-345.284 -86.082)" fill="#2d85b8"/>
</svg>
