<svg id="graphic" xmlns="http://www.w3.org/2000/svg" width="47.541" height="50.209" viewBox="0 0 47.541 50.209">
  <g id="Сгруппировать_412" data-name="Сгруппировать 412" transform="translate(0 14.382)">
    <g id="Сгруппировать_411" data-name="Сгруппировать 411">
      <path id="Контур_964" data-name="Контур 964" d="M60.163,180.521H58.012V149.29a2.639,2.639,0,0,0-2.636-2.636H50.568a2.639,2.639,0,0,0-2.636,2.636v31.231H42.47V163.44a2.639,2.639,0,0,0-2.636-2.636H35.026a2.639,2.639,0,0,0-2.636,2.636v17.081H26.929v-8.846a2.639,2.639,0,0,0-2.636-2.636H19.485a2.639,2.639,0,0,0-2.636,2.636v8.846H14.582a.981.981,0,1,0,0,1.961H60.163a.981.981,0,1,0,0-1.961Zm-35.2,0H18.81v-8.846a.676.676,0,0,1,.675-.675h4.808a.676.676,0,0,1,.675.675v8.846Zm15.542,0H34.351V163.44a.676.676,0,0,1,.675-.675h4.808a.676.676,0,0,1,.675.675Zm15.542,0H49.893V149.29a.676.676,0,0,1,.675-.675h4.808a.676.676,0,0,1,.675.675Z" transform="translate(-13.601 -146.654)" fill="#fff"/>
    </g>
  </g>
  <g id="Сгруппировать_414" data-name="Сгруппировать 414" transform="translate(8.409)">
    <g id="Сгруппировать_413" data-name="Сгруппировать 413">
      <path id="Контур_965" data-name="Контур 965" d="M135.346,1.031A.977.977,0,0,0,134.317,0l-.047,0h-5.933a.981.981,0,0,0,0,1.961H132l-9.695,9.695L118.65,8a.981.981,0,0,0-1.387,0L99.633,25.629a.981.981,0,0,0,1.387,1.387L117.956,10.08l3.656,3.656a.981.981,0,0,0,1.387,0L133.387,3.348V6.664a.981.981,0,1,0,1.961,0V1.079C135.348,1.063,135.347,1.047,135.346,1.031Z" transform="translate(-99.346)" fill="#fff"/>
    </g>
  </g>
  <g id="Сгруппировать_416" data-name="Сгруппировать 416" transform="translate(5.103 28.764)">
    <g id="Сгруппировать_415" data-name="Сгруппировать 415">
      <circle id="Эллипс_567" data-name="Эллипс 567" cx="0.981" cy="0.981" r="0.981" fill="#fff"/>
    </g>
  </g>
</svg>
