<svg xmlns="http://www.w3.org/2000/svg" width="51.117" height="44.658" viewBox="0 0 51.117 44.658">
  <g id="guarantee" transform="translate(-859.885 -8264.603)">
    <path id="Контур_1064" data-name="Контур 1064" d="M54.922,19.617H38.869v-6.8a.752.752,0,0,0-.752-.752h-16a.752.752,0,0,0-.752.752v6.8H5.309a.752.752,0,0,0-.752.752v35.6a.752.752,0,0,0,.752.752H54.922a.752.752,0,0,0,.752-.752v-35.6a.752.752,0,0,0-.752-.752ZM22.867,13.573h14.5v6.044H35.632V16a.752.752,0,0,0-.752-.752H25.351A.752.752,0,0,0,24.6,16v3.612H22.867ZM26.1,19.617v-2.86h8.024v2.86Zm-20.042,1.5H54.169V29.6H6.062ZM45.293,31.1H46.77v4.042H45.293Zm-31.83,0h1.474v4.042H13.462Zm-7.4,24.121V31.1h5.894v4.792a.752.752,0,0,0,.752.752h2.982a.752.752,0,0,0,.752-.752V31.1H43.789v4.792a.752.752,0,0,0,.752.752h2.982a.752.752,0,0,0,.752-.752V31.1h5.9V55.223Z" transform="translate(855.328 8252.534)" fill="#fff"/>
    <path id="Контур_1065" data-name="Контур 1065" d="M59.662,70.84a4.77,4.77,0,0,0,.868-5.583.752.752,0,0,0-1.2-.186l-2.519,2.518-.717.049.049-.717L58.66,64.4a.752.752,0,0,0-.186-1.2A4.787,4.787,0,0,0,51.8,69.139l-1.419,1.419L44.022,64.2a.752.752,0,1,0-1.064,1.064l6.354,6.356-6.151,6.149a1.978,1.978,0,0,0,2.795,2.795l4.889-4.889a2.605,2.605,0,0,0,.4.525l4.365,4.367a2.634,2.634,0,0,0,3.718,0h0a2.633,2.633,0,0,0,0-3.718l-4.363-4.364a2.619,2.619,0,0,0-.526-.4l.157-.157A4.766,4.766,0,0,0,59.662,70.84Zm-6.436-1a.752.752,0,0,0,.136-.878A3.284,3.284,0,0,1,56.733,64.2l-1.854,1.854a.755.755,0,0,0-.218.481L54.535,68.4a.752.752,0,0,0,.218.583.74.74,0,0,0,.583.218l1.858-.126a.755.755,0,0,0,.481-.219L59.529,67a3.284,3.284,0,0,1-4.758,3.371.751.751,0,0,0-.878.136l-1.259,1.259a2.616,2.616,0,0,0-.774.279l-.421-.421Zm-8.331,9.668a.473.473,0,0,1-.668-.669l6.151-6.149.421.421a2.615,2.615,0,0,0-.279.774ZM58.26,77.916a1.125,1.125,0,0,1-1.591,1.591l-4.362-4.363A1.125,1.125,0,0,1,53.9,73.552Z" transform="translate(833.62 8223.691)" fill="#fff"/>
  </g>
</svg>
