<svg xmlns="http://www.w3.org/2000/svg" width="35.651" height="35.324" viewBox="0 0 35.651 35.324">
  <g id="heating" transform="translate(0.001 -1.363)">
    <path id="Контур_1476" data-name="Контур 1476" d="M35.329,16.782,18.493,1.613a.973.973,0,0,0-1.3,0L.322,16.781a.972.972,0,0,0,.65,1.7H3.846L17.185,6.6a.972.972,0,0,1,1.314,0L31.837,18.477h2.841a.972.972,0,0,0,.651-1.695Z" fill="#fff"/>
    <path id="Контур_1477" data-name="Контур 1477" d="M42.077,73.342v15.7a.972.972,0,0,0,.972.972H66.688a.973.973,0,0,0,.972-.972v-15.7L54.869,61.968,42.077,73.342Zm7.829,4.776a4.327,4.327,0,0,1,0,4.565,1.727,1.727,0,0,0-.321,1.06,1.215,1.215,0,1,1-2.431,0,4.086,4.086,0,0,1,.651-2.282,1.909,1.909,0,0,0,0-2.12,4.326,4.326,0,0,1,0-4.565,1.727,1.727,0,0,0,.321-1.06,1.215,1.215,0,0,1,2.431,0A4.086,4.086,0,0,1,49.906,76a1.909,1.909,0,0,0,0,2.12Zm9.932,1.222a4.326,4.326,0,0,1,0-4.565,1.727,1.727,0,0,0,.321-1.06,1.215,1.215,0,0,1,2.431,0A4.086,4.086,0,0,1,61.939,76a1.909,1.909,0,0,0,0,2.12,4.327,4.327,0,0,1,0,4.565,1.727,1.727,0,0,0-.321,1.06,1.215,1.215,0,0,1-2.431,0,4.086,4.086,0,0,1,.651-2.282,1.91,1.91,0,0,0,0-2.12Zm-3.264-5.625A4.086,4.086,0,0,1,55.922,76a1.909,1.909,0,0,0,0,2.12,4.327,4.327,0,0,1,0,4.565,1.727,1.727,0,0,0-.321,1.06,1.215,1.215,0,1,1-2.431,0,4.086,4.086,0,0,1,.651-2.282,1.91,1.91,0,0,0,0-2.12,4.326,4.326,0,0,1,0-4.565,1.727,1.727,0,0,0,.321-1.06,1.215,1.215,0,0,1,2.431,0Z" transform="translate(-37.027 -53.33)" fill="#fff"/>
  </g>
</svg>
