<svg xmlns="http://www.w3.org/2000/svg" width="14.013" height="15.347" viewBox="0 0 14.013 15.347"><g transform="translate(-14.411 -11.759)"><path d="M17.749,27.1V24.413a.123.123,0,0,0-.083-.132c-.215-.083-.43-.166-.645-.244A3.268,3.268,0,0,1,15.373,22.7a4.867,4.867,0,0,1-.636-1.471,9.488,9.488,0,0,1-.249-1.276A10.973,10.973,0,0,1,14.42,18.2c.02-.464.059-.929.117-1.388a12.048,12.048,0,0,1,.264-1.511,3.92,3.92,0,0,1,1.207-1.985,5.342,5.342,0,0,1,1.643-.963,7.77,7.77,0,0,1,1.589-.42c.347-.054.694-.1,1.041-.132a9.726,9.726,0,0,1,1.413-.034c.372.02.748.039,1.119.078a11.393,11.393,0,0,1,2.141.4,5.246,5.246,0,0,1,1.74.87,3.792,3.792,0,0,1,1.266,1.833,8.332,8.332,0,0,1,.293,1.242c.049.318.093.636.122.958.029.3.039.6.044.9.01.479-.01.958-.039,1.437a7.962,7.962,0,0,1-.552,2.523,4.135,4.135,0,0,1-.611,1.08,3.661,3.661,0,0,1-1.315,1,5.92,5.92,0,0,1-1.555.455A12.4,12.4,0,0,1,23,24.677l-1.212.059c-.337.015-.68.02-1.017.029a.208.208,0,0,0-.166.078q-.785.8-1.574,1.6c-.21.21-.425.411-.636.621a.138.138,0,0,1-.112.044h-.464A.156.156,0,0,0,17.749,27.1Zm5.822-4.331a1.393,1.393,0,0,0,.142-.015.419.419,0,0,0,.112-.024A1.865,1.865,0,0,0,25.038,21.6a.572.572,0,0,0-.068-.6,1.533,1.533,0,0,0-.254-.249c-.249-.2-.508-.386-.763-.572a5.029,5.029,0,0,0-.479-.313.822.822,0,0,0-.6-.1.864.864,0,0,0-.528.406,1.031,1.031,0,0,1-.152.176.532.532,0,0,1-.6.112,3.906,3.906,0,0,1-1.726-1.281,3.3,3.3,0,0,1-.508-.939.637.637,0,0,1,.171-.7c.108-.1.22-.191.332-.288a.553.553,0,0,0,.161-.748,5.1,5.1,0,0,0-.777-1.173,5.219,5.219,0,0,0-.435-.435.575.575,0,0,0-.508-.127,1.673,1.673,0,0,0-.67.288,1.238,1.238,0,0,0-.533,1.31,1.98,1.98,0,0,0,.122.337c.142.347.274.7.44,1.036a9.567,9.567,0,0,0,1.281,1.926,10.129,10.129,0,0,0,2.053,1.853,11.868,11.868,0,0,0,1.985,1.09A1.556,1.556,0,0,0,23.572,22.765ZM25.415,17.7a3.677,3.677,0,0,0-.1-.831A3.5,3.5,0,0,0,24.1,14.924a3.54,3.54,0,0,0-3.08-.738.326.326,0,0,0-.264.4.337.337,0,0,0,.411.249,2.951,2.951,0,0,1,3.515,3.515.421.421,0,0,0,0,.156.331.331,0,0,0,.65-.01A4.455,4.455,0,0,0,25.415,17.7Zm-.987.049c-.01-.127-.01-.225-.02-.323a1.35,1.35,0,0,0-.029-.2A2.573,2.573,0,0,0,22.809,15.3a2.515,2.515,0,0,0-1.418-.171.333.333,0,0,0-.3.376.341.341,0,0,0,.391.288,1.264,1.264,0,0,1,.186-.02A1.865,1.865,0,0,1,22.9,16.1a1.9,1.9,0,0,1,.831,1.936.336.336,0,0,0,.284.386.332.332,0,0,0,.376-.288C24.4,17.994,24.412,17.857,24.427,17.75Zm-1-.024c-.02-.112-.029-.23-.054-.342a1.673,1.673,0,0,0-1.628-1.291.334.334,0,0,0-.083.655.963.963,0,0,0,.166.02,1,1,0,0,1,.738.416,1.037,1.037,0,0,1,.191.606.33.33,0,0,0,.3.308A.354.354,0,0,0,23.43,17.725Z" transform="translate(0 0)" fill="#2d85b8"/></g></svg>