<svg id="call_1_" data-name="call (1)" xmlns="http://www.w3.org/2000/svg" width="25.904" height="25.54" viewBox="0 0 25.904 25.54">
  <path id="Контур_319" data-name="Контур 319" d="M25.086,33.384l-.725-3.927a.406.406,0,0,0-.319-.324l-5.7-1.14a.406.406,0,0,0-.366.111l-2.511,2.511c-4.246-1.848-6.524-4.129-8.546-8.554l2.507-2.507a.405.405,0,0,0,.111-.366l-1.14-5.7a.405.405,0,0,0-.324-.319l-3.927-.725a.406.406,0,0,0-.163,0,5.229,5.229,0,0,0-2.542,1.4A5.734,5.734,0,0,0,.109,19.005c.6,3.794,2.451,9.069,5.867,12.5L6,31.527l.019.018.006.006c3.429,3.415,8.7,5.27,12.5,5.866a8.609,8.609,0,0,0,1.337.109,5.06,5.06,0,0,0,5.225-3.98A.407.407,0,0,0,25.086,33.384Z" transform="translate(0 -11.987)" fill="#ffd791"/>
  <path id="Контур_320" data-name="Контур 320" d="M6.917,22.249,3.98,12.633a5.229,5.229,0,0,0-2.542,1.4A5.734,5.734,0,0,0,.109,19.194c.6,3.794,2.451,9.069,5.867,12.5L6,31.716l.019.018.006.006c3.429,3.415,8.7,5.27,12.5,5.866a8.609,8.609,0,0,0,1.337.109,5.06,5.06,0,0,0,5.225-3.98L15.463,30.8C11.217,28.955,8.938,26.674,6.917,22.249Z" transform="translate(0 -12.176)" fill="#ffc44f"/>
  <path id="Контур_321" data-name="Контур 321" d="M20.679,56.971a8.6,8.6,0,0,1-1.337-.109c-3.794-.6-9.069-2.451-12.5-5.866l-.006-.006-.019-.018L6.8,50.947c-3.416-3.429-5.27-8.7-5.867-12.5A6.042,6.042,0,0,1,1.8,33.823c-.126.1-.249.215-.365.332A5.734,5.734,0,0,0,.109,39.312c.6,3.794,2.451,9.069,5.867,12.5L6,51.834l.019.018.006.006c3.429,3.415,8.7,5.27,12.5,5.866a8.608,8.608,0,0,0,1.337.109,4.987,4.987,0,0,0,4.307-2A5.353,5.353,0,0,1,20.679,56.971Z" transform="translate(0 -32.294)" fill="#ffb357"/>
  <path id="Контур_322" data-name="Контур 322" d="M230.814,3.594c-4.024,0-7.3,2.728-7.3,6.081a5.685,5.685,0,0,0,2.586,4.646l-1.333,2.887a.405.405,0,0,0,.565.524L229.17,15.6a8.756,8.756,0,0,0,1.643.155c4.024,0,7.3-2.728,7.3-6.081S234.838,3.594,230.814,3.594Z" transform="translate(-212.208 -3.594)" fill="#b0db51"/>
  <path id="Контур_323" data-name="Контур 323" d="M226.063,21.983a.409.409,0,0,1-.076-.451l1.332-2.887A5.685,5.685,0,0,1,224.733,14a6.079,6.079,0,0,1,4-5.425c-3.014.748-5.218,3.078-5.218,5.829a5.685,5.685,0,0,0,2.586,4.646l-1.333,2.887a.405.405,0,0,0,.565.524l.779-.433A.388.388,0,0,1,226.063,21.983Z" transform="translate(-212.209 -8.322)" fill="#9cc445"/>
  <g id="Сгруппировать_85" data-name="Сгруппировать 85" transform="translate(17.39 2.027)">
    <path id="Контур_324" data-name="Контур 324" d="M345.745,99.756h-1.622a.405.405,0,0,0-.405.405v4.46a.405.405,0,0,0,.405.405h1.622a.405.405,0,0,0,.405-.405v-4.46A.405.405,0,0,0,345.745,99.756Z" transform="translate(-343.718 -96.918)" fill="#f3f1f1"/>
    <path id="Контур_325" data-name="Контур 325" d="M344.934,43.662a1.216,1.216,0,1,0,1.216,1.216A1.218,1.218,0,0,0,344.934,43.662Z" transform="translate(-343.718 -43.662)" fill="#f3f1f1"/>
  </g>
</svg>
