<svg xmlns="http://www.w3.org/2000/svg" width="40.93" height="42.527" viewBox="0 0 40.93 42.527">
  <g id="icon-roller" transform="translate(-42.5 -17.2)">
    <path id="Контур_691" data-name="Контур 691" d="M82.3,22.016V17.4h33.05v4.616Zm3.117-1.539h3.925V18.939H85.417Z" transform="translate(-35.875 -0.18)" fill="#fff"/>
    <path id="Контур_692" data-name="Контур 692" d="M92.571,81.31c-.5.759-.976,1.489-1.479,2.18-.079.108-.355.108-.542.108-3.945.01-7.89,0-11.825,0q-11.391,0-22.773.01a.831.831,0,0,1-.828-.444c-.365-.621-.789-1.2-1.223-1.864C66.8,81.31,79.641,81.31,92.571,81.31Z" transform="translate(-10.276 -57.778)" fill="#fff"/>
    <path id="Контур_693" data-name="Контур 693" d="M74.5,121.1h2.249v32.28H74.5Z" transform="translate(-28.844 -93.653)" fill="#fff"/>
    <path id="Контур_694" data-name="Контур 694" d="M404.578,153.561H402.3V121.3h2.278Z" transform="translate(-324.314 -93.833)" fill="#fff"/>
    <path id="Контур_695" data-name="Контур 695" d="M141.137,121.4v1.46H114.4V121.4Z" transform="translate(-64.809 -93.923)" fill="#fff"/>
    <path id="Контур_696" data-name="Контур 696" d="M141.028,154.7H114.3v-1.5h26.728Z" transform="translate(-64.719 -122.587)" fill="#fff"/>
    <path id="Контур_697" data-name="Контур 697" d="M141.137,185.2v1.5H114.4v-1.5Z" transform="translate(-64.809 -151.431)" fill="#fff"/>
    <path id="Контур_698" data-name="Контур 698" d="M114.2,218.86V217.4h26.757v1.46Z" transform="translate(-64.629 -180.455)" fill="#fff"/>
    <path id="Контур_699" data-name="Контур 699" d="M141.137,249.2v1.5H114.4v-1.5Z" transform="translate(-64.809 -209.119)" fill="#fff"/>
    <path id="Контур_700" data-name="Контур 700" d="M114.5,281.2h26.718v1.5H114.5Z" transform="translate(-64.899 -237.963)" fill="#fff"/>
    <path id="Контур_701" data-name="Контур 701" d="M114.3,314.77V313.3h26.747v1.47Z" transform="translate(-64.719 -266.897)" fill="#fff"/>
    <path id="Контур_702" data-name="Контур 702" d="M114.3,346.77V345.3h26.747v1.47Z" transform="translate(-64.719 -295.741)" fill="#fff"/>
    <path id="Контур_703" data-name="Контур 703" d="M141.047,377.4v1.47H114.3V377.4Z" transform="translate(-64.719 -324.675)" fill="#fff"/>
    <path id="Контур_704" data-name="Контур 704" d="M42.5,17.2h2.249v4.655H42.5Z" fill="#fff"/>
    <path id="Контур_705" data-name="Контур 705" d="M436.588,17.3v4.645H434.3V17.3Z" transform="translate(-353.158 -0.09)" fill="#fff"/>
    <path id="Контур_706" data-name="Контур 706" d="M113.9,34.539V33h3.925v1.539Z" transform="translate(-64.358 -14.242)" fill="#fff"/>
  </g>
</svg>
