<svg id="icon-snow" xmlns="http://www.w3.org/2000/svg" width="52.16" height="52.16" viewBox="0 0 52.16 52.16">
  <g id="Сгруппировать_515" data-name="Сгруппировать 515" transform="translate(11.801 11.801)">
    <path id="Контур_1106" data-name="Контур 1106" d="M124.861,144.4a1.528,1.528,0,0,1-1.421-.967l-1.875-4.75-4.733-1.839a1.528,1.528,0,0,1-.848-2.033l2.033-4.685-2.046-4.647a1.528,1.528,0,0,1,.838-2.037l4.75-1.875,1.839-4.733a1.528,1.528,0,0,1,2.033-.848l4.685,2.033,4.647-2.046a1.528,1.528,0,0,1,2.037.838l1.875,4.75,4.733,1.839a1.528,1.528,0,0,1,.848,2.033l-2.033,4.685,2.046,4.647a1.528,1.528,0,0,1-.838,2.037l-4.75,1.875-1.839,4.733a1.528,1.528,0,0,1-2.033.848l-4.685-2.033-4.647,2.046a1.528,1.528,0,0,1-.616.13Zm-5.441-9.83,3.875,1.506a1.528,1.528,0,0,1,.868.863l1.537,3.894,3.8-1.675a1.529,1.529,0,0,1,1.224,0l3.84,1.667,1.506-3.875a1.528,1.528,0,0,1,.863-.868l3.894-1.537-1.675-3.8a1.528,1.528,0,0,1,0-1.224l1.667-3.84-3.875-1.506a1.529,1.529,0,0,1-.868-.863l-1.537-3.894-3.8,1.675a1.528,1.528,0,0,1-1.224,0l-3.84-1.667-1.506,3.875a1.529,1.529,0,0,1-.863.868l-3.894,1.537,1.675,3.8a1.528,1.528,0,0,1,0,1.224Z" transform="translate(-115.841 -115.841)" fill="#4793ff"/>
  </g>
  <path id="Контур_1107" data-name="Контур 1107" d="M270.149,134.762l-2.046-4.647,2.033-4.685a1.528,1.528,0,0,0-.848-2.033l-4.733-1.839-1.875-4.75a1.528,1.528,0,0,0-2.037-.838L256,118.015v3.2a1.528,1.528,0,0,0,.616-.129l3.8-1.675,1.537,3.894a1.529,1.529,0,0,0,.868.863l3.875,1.506-1.667,3.84a1.528,1.528,0,0,0,0,1.224l1.675,3.8-3.894,1.537a1.528,1.528,0,0,0-.863.868l-1.506,3.875-3.84-1.667a1.527,1.527,0,0,0-.608-.126v3.2l0,0,4.685,2.033a1.528,1.528,0,0,0,2.033-.848l1.839-4.733,4.75-1.875a1.528,1.528,0,0,0,.837-2.037Z" transform="translate(-229.92 -104.04)" fill="#525cdd"/>
  <path id="Контур_1108" data-name="Контур 1108" d="M209.891,23.83a1.528,1.528,0,0,0-2.087-.559l-3.581,2.067-3.581-2.067a1.528,1.528,0,0,0-1.528,2.647l4.222,2.438a1.521,1.521,0,0,0,.763.2c.042,0,.083,0,.124-.006s.083.006.124.006a1.521,1.521,0,0,0,.763-.2l4.222-2.438A1.528,1.528,0,0,0,209.891,23.83Z" transform="translate(-178.143 -20.716)" fill="#7dd5f4"/>
  <path id="Контур_1109" data-name="Контур 1109" d="M209.331,437.65l-4.222-2.438a2.073,2.073,0,0,0-1.774,0l-4.222,2.438a1.528,1.528,0,1,0,1.528,2.647l3.581-2.067L207.8,440.3a1.528,1.528,0,1,0,1.528-2.647Z" transform="translate(-178.142 -390.691)" fill="#7dd5f4"/>
  <path id="Контур_1110" data-name="Контур 1110" d="M438.229,204.222l2.067-3.581a1.528,1.528,0,1,0-2.647-1.528l-2.438,4.222a2.073,2.073,0,0,0,0,1.774l2.438,4.222A1.528,1.528,0,1,0,440.3,207.8Z" transform="translate(-390.691 -178.142)" fill="#4793ff"/>
  <path id="Контур_1111" data-name="Контур 1111" d="M28.355,203.336l-2.438-4.222a1.528,1.528,0,1,0-2.647,1.528l2.067,3.581L23.271,207.8a1.528,1.528,0,1,0,2.647,1.528l2.438-4.222a2.073,2.073,0,0,0,0-1.774Z" transform="translate(-20.716 -178.143)" fill="#7dd5f4"/>
  <path id="Контур_1112" data-name="Контур 1112" d="M374.09,366.073a1.528,1.528,0,0,0-1.872-1.081l-4.709,1.262a2.073,2.073,0,0,0-1.254,1.254l-1.262,4.709a1.528,1.528,0,1,0,2.952.791l1.07-3.994,3.994-1.07A1.528,1.528,0,0,0,374.09,366.073Z" transform="translate(-327.763 -327.762)" fill="#4793ff"/>
  <path id="Контур_1113" data-name="Контур 1113" d="M64.807,56.79a1.528,1.528,0,0,0-1.872,1.08l-1.07,3.994-3.994,1.07a1.528,1.528,0,1,0,.791,2.952l4.709-1.262a2.075,2.075,0,0,0,1.254-1.254l1.262-4.709A1.528,1.528,0,0,0,64.807,56.79Z" transform="translate(-50.959 -50.958)" fill="#7dd5f4"/>
  <path id="Контур_1114" data-name="Контур 1114" d="M373.009,62.935l-3.994-1.07-1.07-3.994a1.528,1.528,0,1,0-2.952.791l1.262,4.709a2.075,2.075,0,0,0,1.254,1.254l4.709,1.262a1.528,1.528,0,1,0,.791-2.952Z" transform="translate(-327.763 -50.958)" fill="#4793ff"/>
  <path id="Контур_1115" data-name="Контур 1115" d="M65.887,372.217l-1.262-4.709a2.073,2.073,0,0,0-1.254-1.254l-4.709-1.262a1.528,1.528,0,0,0-.791,2.952l3.994,1.07,1.07,3.994a1.528,1.528,0,0,0,2.952-.791Z" transform="translate(-50.958 -327.761)" fill="#7dd5f4"/>
  <path id="Контур_1116" data-name="Контур 1116" d="M50.632,24.552H29.769L44.521,9.8A1.528,1.528,0,1,0,42.36,7.639L27.608,22.391V1.528a1.528,1.528,0,0,0-3.056,0V22.391L9.8,7.639A1.528,1.528,0,0,0,7.639,9.8L22.391,24.552H1.528a1.528,1.528,0,0,0,0,3.056H22.391L7.639,42.36A1.528,1.528,0,1,0,9.8,44.521L24.552,29.769V50.632a1.528,1.528,0,1,0,3.056,0V29.769L42.36,44.521a1.528,1.528,0,1,0,2.161-2.161L29.769,27.608H50.632a1.528,1.528,0,0,0,0-3.056Z" fill="#7dd5f4"/>
  <g id="Сгруппировать_516" data-name="Сгруппировать 516" transform="translate(26.08)">
    <path id="Контур_1117" data-name="Контур 1117" d="M280.552,24.552H259.689L274.441,9.8a1.528,1.528,0,0,0-2.161-2.161L257.528,22.391V1.528A1.528,1.528,0,0,0,256,0V52.16a1.528,1.528,0,0,0,1.528-1.528V29.769L272.28,44.521a1.528,1.528,0,1,0,2.161-2.161L259.689,27.608h20.863a1.528,1.528,0,1,0,0-3.056Z" transform="translate(-256)" fill="#4793ff"/>
    <path id="Контур_1118" data-name="Контур 1118" d="M261.668,23.831a1.528,1.528,0,0,0-2.087-.559L256,25.339v3.216c.041,0,.083.006.124.006a1.521,1.521,0,0,0,.763-.2l4.222-2.438A1.528,1.528,0,0,0,261.668,23.831Z" transform="translate(-256 -20.716)" fill="#4793ff"/>
    <path id="Контур_1119" data-name="Контур 1119" d="M261.108,437.65l-4.222-2.438a1.52,1.52,0,0,0-.887-.2v3.216l3.581,2.067a1.528,1.528,0,0,0,1.528-2.647Z" transform="translate(-255.999 -390.691)" fill="#4793ff"/>
  </g>
</svg>
