<svg xmlns="http://www.w3.org/2000/svg" width="12.621" height="15.141" viewBox="0 0 12.621 15.141">
  <g id="img_198352" transform="translate(-74.168 -39.45)">
    <path id="Контур_368" data-name="Контур 368" d="M162.067,21.577c-.094-.144-.2-.289-.312-.432a5.931,5.931,0,0,0-2.076-1.785h-.015c-.487,0-1.406.876-1.938,2.315a10.794,10.794,0,0,1-5.072-6.757s3.039-.61,2.591-1.7a17.91,17.91,0,0,0-.856-1.844q-.123-.224-.256-.433a4.936,4.936,0,0,0-.294-.418,1.528,1.528,0,0,0-1.063-.722.727.727,0,0,0-.368.1c-2,1.232-2.555,1.915-2.517,2.947a3.965,3.965,0,0,0,.079.627c.036.187.082.386.136.6.077.307.167.646.264,1.027.988,2.873,1.628,4.826,4.689,7.406a30,30,0,0,0,3.029,1.969,5.877,5.877,0,0,0,.584.269,2.767,2.767,0,0,0,.692.179c.067.007.133.011.2.011.879,0,1.544-.66,2.842-1.788a1.191,1.191,0,0,0-.069-1.1A3.957,3.957,0,0,0,162.067,21.577Z" transform="translate(-75.723 29.65)" fill="#2d85b8"/>
  </g>
</svg>
