<svg id="icon-doc-bti" xmlns="http://www.w3.org/2000/svg" width="36.629" height="36.629" viewBox="0 0 36.629 36.629">
  <g id="Сгруппировать_249" data-name="Сгруппировать 249" transform="translate(21.407)">
    <g id="Сгруппировать_156" data-name="Сгруппировать 156">
      <path id="Контур_443" data-name="Контур 443" d="M305.682,6.254a3.2,3.2,0,0,0-.943-2.276L301.7.943a3.291,3.291,0,0,0-2.3-.943h-.184V6.439h6.46V6.254Z" transform="translate(-299.222)" fill="#fff"/>
    </g>
  </g>
  <g id="Сгруппировать_250" data-name="Сгруппировать 250" transform="translate(0)">
    <g id="Сгруппировать_158" data-name="Сгруппировать 158">
      <path id="Контур_444" data-name="Контур 444" d="M19.6,22.145a4.307,4.307,0,0,1,1.031-1.675L27.9,13.233V8.585h-7.54a1.043,1.043,0,0,1-1.038-1.073V0H3.219A3.223,3.223,0,0,0,0,3.219V33.41a3.223,3.223,0,0,0,3.219,3.219H24.647A3.248,3.248,0,0,0,27.9,33.41V25.4l-1.179,1.151a4.267,4.267,0,0,1-1.668,1.029L21.635,28.72l-.52.028a2.683,2.683,0,0,1-2.542-3.535ZM5.366,19.316h10.7a1.073,1.073,0,0,1,0,2.146H5.366a1.073,1.073,0,0,1,0-2.146ZM4.292,16.1a1.073,1.073,0,0,1,1.073-1.073h10.7a1.073,1.073,0,0,1,0,2.146H5.366A1.073,1.073,0,0,1,4.292,16.1Zm0,8.585a1.073,1.073,0,0,1,1.073-1.073h10.7a1.073,1.073,0,0,1,0,2.146H5.366A1.073,1.073,0,0,1,4.292,24.682Zm16.062,5.366a1.073,1.073,0,1,1,0,2.146H13.916a1.073,1.073,0,1,1,0-2.146ZM5.366,12.878a1.073,1.073,0,0,1,0-2.146H20.355a1.073,1.073,0,0,1,0,2.146Z" transform="translate(0)" fill="#fff"/>
    </g>
  </g>
  <g id="Сгруппировать_251" data-name="Сгруппировать 251" transform="translate(20.58 23.094)">
    <g id="Сгруппировать_160" data-name="Сгруппировать 160">
      <path id="Контур_445" data-name="Контур 445" d="M288.625,322.808l-.934,2.8a.536.536,0,0,0,.679.679l2.8-.935Z" transform="translate(-287.663 -322.808)" fill="#fff"/>
    </g>
  </g>
  <g id="Сгруппировать_252" data-name="Сгруппировать 252" transform="translate(22.809 14.258)">
    <g id="Сгруппировать_162" data-name="Сгруппировать 162">
      <path id="Контур_446" data-name="Контур 446" d="M325.887,199.307l-7.067,7.068,3.048,3.048,7.067-7.068Z" transform="translate(-318.82 -199.307)" fill="#fff"/>
    </g>
  </g>
  <g id="Сгруппировать_253" data-name="Сгруппировать 253" transform="translate(31.394 10.584)">
    <g id="Сгруппировать_164" data-name="Сгруппировать 164">
      <path id="Контур_447" data-name="Контур 447" d="M443.424,148.545a2.241,2.241,0,0,0-3.045,0l-1.559,1.559,3.047,3.048,1.56-1.56A2.16,2.16,0,0,0,443.424,148.545Z" transform="translate(-438.819 -147.949)" fill="#fff"/>
    </g>
  </g>
</svg>
