<svg xmlns="http://www.w3.org/2000/svg" width="59.68" height="53.063" viewBox="0 0 59.68 53.063">
  <g id="icon-security" transform="translate(100 18400)">
    <g id="vandalism" transform="translate(-100 -18400)">
      <path id="Контур_1218" data-name="Контур 1218" d="M96.319,29.764H129.5a1.666,1.666,0,0,1,1.664,1.664V46.839a.861.861,0,1,0,1.722,0V31.428a3.39,3.39,0,0,0-3.386-3.386H96.319a.861.861,0,1,0,0,1.722Z" transform="translate(-84.502 -28.042)" fill="#fff"/>
      <path id="Контур_1219" data-name="Контур 1219" d="M46.16,61.915a3.392,3.392,0,0,0,2.227-3.181V50.926a.861.861,0,0,0-1.722,0v7.807A1.665,1.665,0,0,1,45.1,60.393l-1.2-1.717h.177a.861.861,0,0,0,.861-.861V32.345a.861.861,0,0,0-.861-.861H4.3a.861.861,0,0,0-.861.861v25.47a.861.861,0,0,0,.861.861H29.675L31.4,60.4H3.386a1.666,1.666,0,0,1-1.664-1.664V31.427a1.666,1.666,0,0,1,1.664-1.664H7.757a.861.861,0,0,0,0-1.722H3.386A3.39,3.39,0,0,0,0,31.427V58.733a3.39,3.39,0,0,0,3.386,3.386,62.643,62.643,0,0,0,9.163.009c1.762-.277,1.433-.512,1.229-.958-.052-.106.257-.173.221-.386-.025-.093-.589-.386.164-.386l3.713,0,.3.653.527,1.08,14.419-.009.847.847a20.031,20.031,0,0,0,2.349,2.011.861.861,0,0,0,1.015-1.391c-.759-.554-6.007-5.395-6.007-5.395H41.9C45.246,62.958,48.534,65.369,46.16,61.915ZM26.44,33.206h0Zm-7.276,0H43.222V56.954H41.856l.238,1.237H31.766a8.919,8.919,0,0,1-2.849-1.009l-9.753-.228ZM14,56.954H8.027L14,42.925ZM14.86,41.2h-9.7V39.482h9.7a.861.861,0,0,0,.861-.861V33.206h1.722v14.02h0v9.727H15.721V42.064A.861.861,0,0,0,14.86,41.2Zm-.861-8V37.76H5.165V33.206ZM5.165,42.925H14L8.027,56.954H5.165Zm14,14.029Z" transform="translate(0 -28.041)" fill="#fff"/>
    </g>
    <g id="vandalism-2" data-name="vandalism" transform="translate(-73.678 -18380.039)">
      <path id="Контур_1221" data-name="Контур 1221" d="M253.928,222.643a6.443,6.443,0,0,0-3.149-1.595.387.387,0,0,1-.193-.11,51.1,51.1,0,0,1-9.1-11.234c-3.727-5.178-9.308-11.557-13.366-13.5a3.173,3.173,0,0,0-2.294,0,11.061,11.061,0,0,0-2.176,1.379,6.9,6.9,0,0,0-1.531,1.755c-.958,1.485-.875,3.026.313,4.8,1.2,1.8,7.577,7.576,7.651,7.649a19.916,19.916,0,0,0,2.178,1.842.861.861,0,0,0,1.015-1.391,18.316,18.316,0,0,1-2.146-1.837l-7.481-7.481a1.969,1.969,0,0,1,0-2.785l2.176-2.176a1.971,1.971,0,0,1,2.785,0l7.481,7.481a18.293,18.293,0,0,1,2.073,2.477l5.485,7.878a28.8,28.8,0,0,0,3.263,3.9l2.459,2.459a2.1,2.1,0,0,0,1.075.581,4.778,4.778,0,0,1,2.268,1.124.791.791,0,0,1,.274.43c0,.29-.6.876-1.073,1.346-.13.128-.275.269-.589.589-.47.478-1.056,1.072-1.346,1.073h0a.791.791,0,0,1-.43-.274,4.776,4.776,0,0,1-1.124-2.268,2.1,2.1,0,0,0-.581-1.075l-2.459-2.459a28.8,28.8,0,0,0-3.9-3.262l-5.036-3.506a.861.861,0,1,0-.984,1.413l5.036,3.506a44.681,44.681,0,0,1,6.124,5.526.39.39,0,0,1,.11.193,6.441,6.441,0,0,0,1.595,3.149,2.328,2.328,0,0,0,1.647.778h.007c1.008,0,1.765-.773,2.566-1.587.093-.094.476-.478.57-.57.814-.8,1.583-1.559,1.587-2.566a2.327,2.327,0,0,0-.779-1.654Zm-29.566-16.407-2.917-5.543a3.719,3.719,0,0,0-.1.838,3.667,3.667,0,0,0,1.081,2.61Z" transform="translate(-221.349 -195.969)" fill="#fff"/>
    </g>
    <g id="XMLID_1575_" transform="translate(-95.733 -18371.83)">
      <g id="XMLID_381_" transform="translate(0 0)">
        <path id="XMLID_550_" d="M20.012,125.285a.616.616,0,0,0-.8.337,9.315,9.315,0,0,1-3.942,4.538,5.654,5.654,0,0,0-.08-6.471l-4.119-5.78a.616.616,0,0,0-1,0l-4.119,5.78a5.654,5.654,0,0,0-.091,6.454,9.338,9.338,0,0,1-4.623-8.055,7.823,7.823,0,0,1,.926-3.7,13.212,13.212,0,0,0,1.347-4.855.143.143,0,0,1,.113-.134.127.127,0,0,1,.15.053,9.021,9.021,0,0,1,1.6,5.483c-.039.317-.046.517-.047.551a.616.616,0,0,0,1.224.115,5.732,5.732,0,0,0,.055-.576,7.586,7.586,0,0,1,2.464-4.763,4.635,4.635,0,0,0,1.8-4.755,7.02,7.02,0,0,1,3.255,5.348,9.8,9.8,0,0,1-.349,3.74.616.616,0,0,0,1.032.621,10.059,10.059,0,0,0,2.382-5.527.134.134,0,0,1,.112-.129.139.139,0,0,1,.162.07,15.194,15.194,0,0,1,2.374,6.817.616.616,0,1,0,1.227-.111,16.365,16.365,0,0,0-2.549-7.348,1.379,1.379,0,0,0-2.552.584,8.425,8.425,0,0,1-.556,2.282,10.372,10.372,0,0,0-.052-1.08,8.437,8.437,0,0,0-4.918-6.933.762.762,0,0,0-1.054.948,3.555,3.555,0,0,1-1.1,4.525,7.8,7.8,0,0,0-2.017,2.6,9.985,9.985,0,0,0-1.48-3.17,1.359,1.359,0,0,0-1.476-.535,1.373,1.373,0,0,0-1.022,1.214,12,12,0,0,1-1.241,4.453A8.95,8.95,0,0,0,0,122.089a10.568,10.568,0,0,0,20.349,4,.616.616,0,0,0-.337-.8Zm-9.446,6.138h0a2.084,2.084,0,0,1-2.081-2.081,3.326,3.326,0,0,1,1.449-2.593,5.386,5.386,0,0,0,.925-.989,5.431,5.431,0,0,1,1.788,3.582A2.084,2.084,0,0,1,10.566,131.423ZM6.949,124.4l3.617-5.076,3.617,5.076a4.427,4.427,0,0,1-.371,5.608,3.315,3.315,0,0,0,.068-.671,6.884,6.884,0,0,0-2.956-5.122.616.616,0,0,0-.974.5c0,.333-.32.64-.843,1.114a4.494,4.494,0,0,0-1.854,3.506,3.314,3.314,0,0,0,.068.671,4.427,4.427,0,0,1-.371-5.608Z" transform="translate(0 -107.762)" fill="#fff"/>
        <path id="XMLID_624_" d="M322.656,347.769a.616.616,0,1,0,.435.181A.621.621,0,0,0,322.656,347.769Z" transform="translate(-302.197 -332.981)" fill="#fff"/>
      </g>
    </g>
  </g>
</svg>
