<svg xmlns="http://www.w3.org/2000/svg" width="48.437" height="45.41" viewBox="0 0 48.437 45.41">
  <g id="icon-plant" transform="translate(0 -15.999)">
    <path id="Контур_1229" data-name="Контур 1229" d="M6.8,143.635l4.554,2.277V151a.946.946,0,0,0,.946.946H22.326a.946.946,0,0,0,.946-.946v-12.35a5.6,5.6,0,0,0-5.051-5.59c-.011,0-4-.626-5.853-2.478l-2.125-2.124a3.759,3.759,0,0,0-2.675-1.109v-7.568a3.784,3.784,0,1,0-7.568,0v12.851a12.3,12.3,0,0,0,6.8,11ZM1.892,119.784a1.892,1.892,0,0,1,3.784,0v8.075a3.783,3.783,0,0,0-.783,5.952l4.845,4.846a.946.946,0,1,0,1.338-1.338l-4.845-4.846a1.892,1.892,0,0,1,.707-3.122h0a1.89,1.89,0,0,1,1.968.447l2.125,2.124c2.193,2.193,6.986,3.019,7,3.021a3.715,3.715,0,0,1,3.354,3.708v11.4H13.245v-4.73a.946.946,0,0,0-.523-.846l-5.077-2.538a10.35,10.35,0,0,1-5.752-9.308Z" transform="translate(0 -90.541)" fill="#fff"/>
    <path id="Контур_1230" data-name="Контур 1230" d="M119.244,37.758a.946.946,0,0,0,1.892,0V34.92h3.621a9.634,9.634,0,0,0,9.623-9.623V20.729a.946.946,0,0,0-1.615-.669,5.477,5.477,0,0,1-3.9,1.615,9.615,9.615,0,0,0-7.731,3.9v-8.63a.946.946,0,1,0-1.892,0v4.846a9.615,9.615,0,0,0-7.731-3.9,5.477,5.477,0,0,1-3.9-1.615.946.946,0,0,0-1.615.669v4.567a9.634,9.634,0,0,0,9.623,9.623h3.621Zm9.623-14.191a7.364,7.364,0,0,0,3.621-.942V25.3a7.74,7.74,0,0,1-7.731,7.731h-1.729l5.3-3.973a.946.946,0,0,0-1.135-1.514l-6.055,4.541V31.3A7.74,7.74,0,0,1,128.868,23.567Zm-20.975-2.055V18.841a7.364,7.364,0,0,0,3.621.942,7.74,7.74,0,0,1,7.731,7.731V28.3l-6.055-4.541a.946.946,0,1,0-1.135,1.514l5.3,3.973h-1.729A7.74,7.74,0,0,1,107.892,21.513Z" transform="translate(-95.972 0)" fill="#fff"/>
    <circle id="Эллипс_600" data-name="Эллипс 600" cx="1" cy="1" r="1" transform="translate(42.895 50.152)" fill="#fff"/>
    <path id="Контур_1231" data-name="Контур 1231" d="M285.488,116a3.788,3.788,0,0,0-3.784,3.784v7.568a3.759,3.759,0,0,0-2.675,1.108l-2.125,2.124c-1.81,1.811-5.837,2.474-5.846,2.477A5.6,5.6,0,0,0,266,138.653V151a.946.946,0,0,0,.946.946h10.028a.946.946,0,0,0,.946-.946v-5.091l3.1-1.548a.946.946,0,0,0-.846-1.692l-3.619,1.809a.947.947,0,0,0-.523.846v4.73h-8.136v-11.4a3.717,3.717,0,0,1,3.361-3.709c.01,0,4.676-.708,6.988-3.021l2.125-2.124a1.89,1.89,0,0,1,1.967-.447h0a1.892,1.892,0,0,1,.707,3.122L278.2,137.32a.946.946,0,0,0,1.338,1.338l4.845-4.846a3.783,3.783,0,0,0-.784-5.952v-8.075a1.892,1.892,0,0,1,3.784,0v12.851a10.435,10.435,0,0,1-1.263,4.969.946.946,0,0,0,1.662.9,12.332,12.332,0,0,0,1.493-5.873V119.784A3.788,3.788,0,0,0,285.488,116Z" transform="translate(-240.835 -90.541)" fill="#fff"/>
  </g>
</svg>
