<svg xmlns="http://www.w3.org/2000/svg" width="48.025" height="25.773" viewBox="0 0 48.025 25.773">
  <g id="icon-windows-sill" transform="translate(-10.445 -8.621)">
    <path id="Контур_1141" data-name="Контур 1141" d="M23.749,34.394c-1.449-.92-2.92-1.863-4.392-2.805-2.575-1.656-5.1-3.334-7.7-4.921a2.149,2.149,0,0,1-1.2-2.207c.115-1.357.069-2.713.184-4.07a2.053,2.053,0,0,1,1.564-1.955c3.357-.989,6.691-2,10.026-3.012,2.322-.713,4.622-1.472,6.921-2.184,2.874-.9,5.749-1.817,8.623-2.713,1.978-.621,3.955-1.2,5.91-1.817A1.505,1.505,0,0,1,44.9,8.8q6.519,3.208,13.084,6.415c.138.069.253.138.483.276-.391.161-.69.276-.989.368-2.414.8-4.852,1.61-7.266,2.414l-6.553,2.207c-2.736.92-5.45,1.886-8.186,2.782-1.633.552-3.288,1.035-4.921,1.587-1.771.575-3.564,1.173-5.335,1.794a2.047,2.047,0,0,0-1.334,1.771,16.189,16.189,0,0,0-.161,2.138c-.046,1.472-.092,1.587-.069,2.345C23.68,33.52,23.7,34.026,23.749,34.394Z" transform="translate(0 0)" fill="#fff"/>
    <path id="Контур_1142" data-name="Контур 1142" d="M90.76,81.514V80c-.023-.759-.046-1.518-.069-2.253a.622.622,0,0,1,.506-.736c2.047-.667,4.047-1.38,6.094-2.07.138-.046.276-.069.483-.138.023.184.046.322.069.46.023,1.15.023,2.276.023,3.426,0,.253-.046.414-.322.506-2.116.736-4.231,1.495-6.346,2.23C91.082,81.445,90.967,81.468,90.76,81.514Z" transform="translate(-61.791 -50.961)" fill="#fff"/>
    <path id="Контур_1143" data-name="Контур 1143" d="M123.093,70.414V67.7c0-.368.023-.736,0-1.1a.534.534,0,0,1,.437-.621c1.633-.552,3.242-1.1,4.875-1.679.552-.184,1.1-.391,1.771-.6v1.288c0,.828,0,1.679.023,2.506a.532.532,0,0,1-.414.6c-1.472.506-2.943,1.058-4.438,1.587C124.656,69.909,123.921,70.138,123.093,70.414Z" transform="translate(-86.743 -42.413)" fill="#fff"/>
    <path id="Контур_1144" data-name="Контур 1144" d="M162.044,53.2v.736c-.046,1.035-.069,2.07-.138,3.081a.6.6,0,0,1-.322.46c-2,.736-4,1.426-6.025,2.138-.092.046-.207.046-.414.115V58.512c0-.828-.023-1.679-.046-2.506,0-.276.023-.506.345-.6,2.092-.69,4.185-1.4,6.277-2.116A1.932,1.932,0,0,1,162.044,53.2Z" transform="translate(-111.392 -34.328)" fill="#fff"/>
    <path id="Контур_1145" data-name="Контур 1145" d="M186.5,49.169V47.238c0-.6.023-1.219.023-1.817a.448.448,0,0,1,.322-.506c2.046-.69,4.07-1.4,6.117-2.093.046-.023.115,0,.184-.023a1.154,1.154,0,0,1,.046.276c-.069,1.15-.138,2.3-.184,3.449-.023.253-.092.414-.345.483-1.886.667-3.794,1.334-5.68,2A1.493,1.493,0,0,1,186.5,49.169Z" transform="translate(-135.572 -26.319)" fill="#fff"/>
    <path id="Контур_1146" data-name="Контур 1146" d="M74.774,85.5a3.435,3.435,0,0,1,.046.391c.023,1.173.069,2.322.092,3.5,0,.184-.069.483-.184.529-.667.3-.989.9-1.449,1.38-.506.552-.989,1.1-1.495,1.633a1.473,1.473,0,0,1-.437.3.575.575,0,0,1-.851-.575c.069-1.242.138-2.483.23-3.725.023-.46.092-.92.138-1.4a1.13,1.13,0,0,1,.9-1.1c.828-.276,1.679-.529,2.506-.8A3,3,0,0,0,74.774,85.5Z" transform="translate(-46.242 -59.2)" fill="#fff"/>
  </g>
</svg>
