<svg xmlns="http://www.w3.org/2000/svg" width="54.631" height="54.631" viewBox="0 0 54.631 54.631">
  <g id="icon-safety" transform="translate(-239.715 -1420.369)">
    <g id="thief_1_" data-name="thief (1)" transform="translate(250.346 1426.605)">
      <path id="Контур_1090" data-name="Контур 1090" d="M35.795,34.03,28.524,31H20.445l-7.271,3.03A6.58,6.58,0,0,0,9,40.223V51.2H39.969V40.223A6.58,6.58,0,0,0,35.795,34.03Z" transform="translate(-8.327 -11.476)" fill="#3f3f3f"/>
      <path id="Контур_1091" data-name="Контур 1091" d="M9,51H39.969v3.366H9Z" transform="translate(-8.327 -18.011)" fill="#b4b4b5"/>
      <path id="Контур_1092" data-name="Контур 1092" d="M39.969,44.366v-.875A6.305,6.305,0,0,0,39.5,41H9.471A6.305,6.305,0,0,0,9,43.491v.875Z" transform="translate(-8.327 -14.743)" fill="#b4b4b5"/>
      <path id="Контур_1093" data-name="Контур 1093" d="M18,41h1.346V54.465H18Z" transform="translate(-11.268 -14.743)" fill="#2b2b2b"/>
      <path id="Контур_1094" data-name="Контур 1094" d="M44,41h1.346V54.465H44Z" transform="translate(-19.764 -14.743)" fill="#2b2b2b"/>
      <path id="Контур_1095" data-name="Контур 1095" d="M31.679,53.887,30.6,52.81a.651.651,0,0,1,0-.943L41.1,41.9A4.43,4.43,0,0,1,47.433,48.1l-2.491,2.76a.721.721,0,0,1-.943.067.929.929,0,0,1-.2-.269L42.989,48.7a.734.734,0,0,1,.135-.741l2.02-2.02a1.428,1.428,0,0,0-2.02-2.02l-10.5,9.964a.651.651,0,0,1-.943,0Z" transform="translate(-15.32 -14.637)" fill="#d6d7d8"/>
      <path id="Контур_1096" data-name="Контур 1096" d="M22.648,33.356a10.892,10.892,0,0,0,11.58,0l1.616-1.01L32.478,31H24.4l-3.3,1.346Z" transform="translate(-12.281 -11.476)" fill="#ce7c5f"/>
      <path id="Контур_1097" data-name="Контур 1097" d="M44.346,17,43,17.673v4.039l1.952-.943a1.272,1.272,0,0,0,.741-1.212V18.346A1.35,1.35,0,0,0,44.346,17Z" transform="translate(-19.437 -6.901)" fill="#bc6d55"/>
      <path id="Контур_1098" data-name="Контур 1098" d="M18.346,17A1.35,1.35,0,0,0,17,18.346v1.212a1.272,1.272,0,0,0,.741,1.212l1.952.943V17.673Z" transform="translate(-10.941 -6.901)" fill="#bc6d55"/>
      <path id="Контур_1099" data-name="Контур 1099" d="M30.425,3H26.386A5.4,5.4,0,0,0,21,8.386v2.02H35.811V8.386A5.4,5.4,0,0,0,30.425,3Z" transform="translate(-12.248 -2.326)" fill="#3f3f3f"/>
      <path id="Контур_1100" data-name="Контур 1100" d="M35.811,13.314V19.1a6.718,6.718,0,0,1-3.972,6.126l-1.818.808a4.184,4.184,0,0,1-3.366,0l-1.818-.808A6.9,6.9,0,0,1,21,19.1v-5.79l.471-.2a20.254,20.254,0,0,1,13.8,0Z" transform="translate(-12.248 -5.234)" fill="#2b2b2b"/>
      <path id="Контур_1101" data-name="Контур 1101" d="M27.02,16h.539a1.834,1.834,0,0,1,1.414.606l.741.741.741-.741A1.938,1.938,0,0,1,31.867,16h.539a1.984,1.984,0,0,1,2.02,2.02v.673a1.984,1.984,0,0,1-2.02,2.02h-.539a1.834,1.834,0,0,1-1.414-.606l-.741-.741-.741.741a1.938,1.938,0,0,1-1.414.606H27.02A1.984,1.984,0,0,1,25,18.693V18.02A1.984,1.984,0,0,1,27.02,16Z" transform="translate(-13.555 -6.574)" fill="#ce7c5f"/>
      <path id="Контур_1102" data-name="Контур 1102" d="M26.693,21.059h.539a2.445,2.445,0,0,0,1.885-.808l.269-.269.269.269a2.973,2.973,0,0,0,1.885.808h.539a2.7,2.7,0,0,0,2.693-2.693v-.673A2.7,2.7,0,0,0,32.079,15H31.54a2.445,2.445,0,0,0-1.885.808l-.269.269-.269-.269A2.973,2.973,0,0,0,27.232,15h-.539A2.7,2.7,0,0,0,24,17.693v.673A2.7,2.7,0,0,0,26.693,21.059Zm-1.346-3.366a1.35,1.35,0,0,1,1.346-1.346h.539a1.329,1.329,0,0,1,.943.4l1.212,1.212L30.6,16.75a1.329,1.329,0,0,1,.943-.4h.539a1.35,1.35,0,0,1,1.346,1.346v.673a1.35,1.35,0,0,1-1.346,1.346H31.54a1.329,1.329,0,0,1-.943-.4L29.386,18.1l-1.212,1.212a1.329,1.329,0,0,1-.943.4h-.539a1.35,1.35,0,0,1-1.346-1.346Z" transform="translate(-13.228 -6.247)"/>
      <path id="Контур_1103" data-name="Контур 1103" d="M40.517,28.862c-.2-.2-.4-.337-.606-.539a7.361,7.361,0,0,0-4.174-4.443l-6.059-2.491a7.087,7.087,0,0,0,2.356-4.107l1.75-.875a2.027,2.027,0,0,0,1.144-1.818V13.445a1.984,1.984,0,0,0-2.02-2.02h-.135l-.539.269V8.059A6.034,6.034,0,0,0,26.177,2H22.138a6.034,6.034,0,0,0-6.059,6.059v3.635l-.539-.269h-.135a1.984,1.984,0,0,0-2.02,2.02v1.212a1.984,1.984,0,0,0,1.144,1.818l1.75.875a7.467,7.467,0,0,0,2.356,4.107l-6.059,2.491A7.26,7.26,0,0,0,8,30.747V42.394H40.315V36.335h-.067l.4-.471A5.041,5.041,0,0,0,40.517,28.862Zm-7.473-16.09a.656.656,0,0,1,.539.673v1.212a.647.647,0,0,1-.4.606l-.943.471V13.176ZM22.138,3.346h4.039A4.684,4.684,0,0,1,30.89,8.059V9.136a20.956,20.956,0,0,0-13.465,0V8.059A4.684,4.684,0,0,1,22.138,3.346Zm-7.406,11.31V13.445a.656.656,0,0,1,.539-.673l.808.4v2.558l-.943-.471A.72.72,0,0,1,14.732,14.657Zm2.693,1.212V10.55h.067a19.706,19.706,0,0,1,13.33,0h.067v5.319a6.146,6.146,0,0,1-3.568,5.521l-1.75.808a3.3,3.3,0,0,1-2.76,0l-1.818-.808a6.146,6.146,0,0,1-3.568-5.521ZM20.387,22.6l1.818.808a4.92,4.92,0,0,0,3.9,0l1.818-.808a1.085,1.085,0,0,0,.471-.269L30.082,23l-.471.337a10.165,10.165,0,0,1-10.839,0L18.3,23l1.683-.673A2.1,2.1,0,0,0,20.387,22.6Zm-7.271,2.558,3.635-1.481,1.279.808a11.62,11.62,0,0,0,12.32,0l1.279-.808,3.635,1.481a6.125,6.125,0,0,1,2.76,2.289,5.237,5.237,0,0,0-2.693.135H10.222a6.015,6.015,0,0,1,2.895-2.424Zm17.908,5.79H16.079v-2.02H33.112Zm-8.213,9.695.4.4H16.079v-2.02h6.53A1.317,1.317,0,0,0,22.811,40.644Zm10.772-4.982h1.481a2.29,2.29,0,0,0,.067.673l.539,1.346H33.583Zm2.424-1.346H33.65l2.76-2.558a.762.762,0,1,1,1.077,1.077Zm-3.77,3.366H30.082l2.154-2.02Zm-3.568,1.346h3.568v2.02H26.514Zm-4.713-1.346H16.079v-2.02h9.964ZM9.616,28.929h5.117v2.02H9.346v-.2A5.67,5.67,0,0,1,9.616,28.929ZM14.732,32.3v2.02H9.346V32.3Zm0,3.366v2.02H9.346v-2.02Zm12.724-1.346H16.079V32.3H29.611ZM9.346,39.028h5.386v2.02H9.346Zm29.622,2.02H33.583v-2.02h3.1a1.355,1.355,0,0,0,1.481-.337l.808-.875Zm.741-6.059-2.491,2.76L36.41,35.8l2.02-2.02a2.143,2.143,0,0,0-2.962-3.1l-10.637,10.1L23.754,39.7,31.563,32.3l2.693-2.558a4.761,4.761,0,0,1,1.212-.808H35.6a3.775,3.775,0,0,1,4.107,6.059Z" transform="translate(-8 -1.999)"/>
    </g>
    <g id="icon-safety-2" data-name="icon-safety" transform="translate(239.715 1420.369)">
      <path id="Контур_1104" data-name="Контур 1104" d="M48.666,10.51a18.845,18.845,0,0,0-2.113-2.433,18.87,18.87,0,0,0-2.433-2.113A26.816,26.816,0,0,0,8.077,8.077,26.857,26.857,0,0,0,5.965,44.153a25.091,25.091,0,0,0,4.513,4.513,26.857,26.857,0,0,0,36.076-2.113A26.815,26.815,0,0,0,48.666,10.51ZM6.509,27.315A20.8,20.8,0,0,1,39.575,10.51L10.542,39.575A20.4,20.4,0,0,1,6.509,27.315ZM42.04,42.04a20.781,20.781,0,0,1-14.725,6.082,20.4,20.4,0,0,1-12.26-4.033L44.121,15.055A20.829,20.829,0,0,1,42.04,42.04Z" fill="#fd003a"/>
      <path id="Контур_1105" data-name="Контур 1105" d="M78.1,116.289a27.154,27.154,0,0,0,38.188-38.156,18.846,18.846,0,0,0-2.113-2.433L75.7,114.176A24.628,24.628,0,0,0,78.1,116.289Zm33.643-33.611a20.782,20.782,0,0,1-29.065,29.033Z" transform="translate(-67.623 -67.623)" fill="#e50027"/>
    </g>
  </g>
</svg>
