<svg xmlns="http://www.w3.org/2000/svg" width="41.999" height="38.101" viewBox="0 0 41.999 38.101">
  <g id="icon-like-roller" transform="translate(0 -23.76)">
    <path id="Контур_1135" data-name="Контур 1135" d="M7.319,240.928v18.116H.676A.676.676,0,0,1,0,258.368V241.6a.676.676,0,0,1,.676-.676Z" transform="translate(0 -199.354)" fill="#009af2"/>
    <rect id="Прямоугольник_4572" data-name="Прямоугольник 4572" width="4.647" height="18.116" transform="translate(2.672 41.574)" fill="#006fd3"/>
    <path id="Контур_1136" data-name="Контур 1136" d="M137.963,39.731v1.6a2.312,2.312,0,0,1-2.312,2.312h-1.314a2.145,2.145,0,0,1,1.992,2.138v1.792a2.145,2.145,0,0,1-2.145,2.145h-1.839a1.936,1.936,0,0,1,1.937,1.937V53.2a1.937,1.937,0,0,1-1.937,1.937h-1.782a1.937,1.937,0,0,1,1.937,1.938v1.153a1.937,1.937,0,0,1-1.937,1.937H104.539V41.441a28.357,28.357,0,0,0,7.355-.826c6.2-1.672,7.484-5.594,7.484-9.034V25.25a1.489,1.489,0,0,1,1.488-1.49,4.8,4.8,0,0,1,4.8,4.8v6.2a2.658,2.658,0,0,0,2.658,2.658h7.325A2.314,2.314,0,0,1,137.963,39.731Z" transform="translate(-95.964)" fill="#ffc197"/>
    <path id="Контур_1137" data-name="Контур 1137" d="M111.386,230.8a29.462,29.462,0,0,1-6.847.7V250.23h6.847Z" transform="translate(-95.964 -190.06)" fill="#ff9e5c"/>
    <path id="Контур_1138" data-name="Контур 1138" d="M63.172,236.929H55.231a.676.676,0,0,1-.676-.676V215.148a.676.676,0,0,1,.676-.676h7.941a.676.676,0,0,1,.676.676v21.105A.676.676,0,0,1,63.172,236.929Z" transform="translate(-50.08 -175.068)" fill="#3bc3ff"/>
    <g id="Сгруппировать_517" data-name="Сгруппировать 517" transform="translate(8.488 56.104)">
      <path id="Контур_1139" data-name="Контур 1139" d="M104.106,449a.634.634,0,0,1-.634-.634v-.214a.634.634,0,1,1,1.268,0v.214A.634.634,0,0,1,104.106,449Z" transform="translate(-103.472 -445.103)" fill="#d7f4f9"/>
      <path id="Контур_1140" data-name="Контур 1140" d="M104.106,419.539a.634.634,0,0,1-.634-.634v-.214a.634.634,0,1,1,1.268,0v.214A.634.634,0,0,1,104.106,419.539Z" transform="translate(-103.472 -418.058)" fill="#d7f4f9"/>
    </g>
  </g>
</svg>
