<svg id="Слой_1" data-name="Слой 1" xmlns="http://www.w3.org/2000/svg" viewBox="0 0 512 512"><defs><style>.cls-1{fill:#d5e3ef;}.cls-2{fill:#99b4cd;}.cls-3{fill:#c9d5e3;}.cls-4{fill:#3689c9;}.cls-5{fill:#3d545f;}.cls-6{fill:#ee2c39;}.cls-7{fill:#cc202c;}.cls-8{fill:#f6b545;}.cls-9{fill:#e78825;}.cls-10{fill:#ffcb5b;}.cls-11{fill:#f19920;}.cls-12{fill:#1470b8;}.cls-13{fill:#4c9cd6;}.cls-14{fill:#82a7c4;}.cls-15{fill:#6c9abb;}.cls-16{fill:#e64c3c;}</style></defs><title>sМонтажная область 1</title><path class="cls-1" d="M377.61,140.84V415.45a17.76,17.76,0,0,1-17.72,17.71h-248a17.76,17.76,0,0,1-17.72-17.71V78.84a17.77,17.77,0,0,1,17.72-17.72h186v62a17.76,17.76,0,0,0,17.71,17.71Z"/><path class="cls-2" d="M377.61,140.84h-62a17.76,17.76,0,0,1-17.71-17.71v-62Z"/><path class="cls-3" d="M377.61,318l-79.72,62h39.86a25.75,25.75,0,0,0,8-1.78l31.89-15.94V318Z"/><polygon class="cls-3" points="377.61 140.84 324.46 140.84 377.61 176.28 377.61 140.84"/><path class="cls-4" d="M442.28,240.94,437,235.63a21.39,21.39,0,0,0-30.12,0l-11.51,11.51-88.58,88.58,35.43,35.44,88.58-88.59,11.51-11.51A20.76,20.76,0,0,0,448.48,256h0A23.11,23.11,0,0,0,442.28,240.94Z"/><path class="cls-5" d="M134,176.28h70.87a4.19,4.19,0,0,1,4.43,4.43h0a4.19,4.19,0,0,1-4.43,4.42H134a4.18,4.18,0,0,1-4.43-4.42h0A4.18,4.18,0,0,1,134,176.28Z"/><path class="cls-5" d="M187.16,229.43H258a4.18,4.18,0,0,1,4.42,4.42h0a4.18,4.18,0,0,1-4.42,4.43H187.16a4.18,4.18,0,0,1-4.43-4.43h0A4.18,4.18,0,0,1,187.16,229.43Z"/><path class="cls-5" d="M204.88,256h88.58a4.18,4.18,0,0,1,4.43,4.43h0a4.18,4.18,0,0,1-4.43,4.43H204.88a4.18,4.18,0,0,1-4.43-4.43h0A4.18,4.18,0,0,1,204.88,256Z"/><path class="cls-5" d="M134,202.85h53.15a4.18,4.18,0,0,1,4.43,4.43h0a4.18,4.18,0,0,1-4.43,4.43H134a4.18,4.18,0,0,1-4.43-4.43h0A4.18,4.18,0,0,1,134,202.85Z"/><path class="cls-5" d="M275.74,176.28h53.15a4.18,4.18,0,0,1,4.43,4.43h0a4.18,4.18,0,0,1-4.43,4.42H275.74a4.18,4.18,0,0,1-4.43-4.42h0A4.18,4.18,0,0,1,275.74,176.28Z"/><path class="cls-5" d="M222.59,176.28H258a4.18,4.18,0,0,1,4.42,4.43h0a4.18,4.18,0,0,1-4.42,4.42H222.59a4.19,4.19,0,0,1-4.43-4.42h0A4.19,4.19,0,0,1,222.59,176.28Z"/><path class="cls-5" d="M302.32,202.85H320a4.18,4.18,0,0,1,4.43,4.43h0a4.18,4.18,0,0,1-4.43,4.43H302.32a4.18,4.18,0,0,1-4.43-4.43h0A4.18,4.18,0,0,1,302.32,202.85Z"/><path class="cls-5" d="M311.17,256h17.72a4.18,4.18,0,0,1,4.43,4.43h0a4.18,4.18,0,0,1-4.43,4.43H311.17a4.18,4.18,0,0,1-4.42-4.43h0A4.18,4.18,0,0,1,311.17,256Z"/><path class="cls-5" d="M187.16,282.57h35.43A4.19,4.19,0,0,1,227,287h0a4.18,4.18,0,0,1-4.43,4.43H187.16a4.18,4.18,0,0,1-4.43-4.43h0A4.19,4.19,0,0,1,187.16,282.57Z"/><path class="cls-5" d="M266.88,371.16h35.44a4.19,4.19,0,0,1,4.43,4.43h0c0,2.65-8.86,4.42-8.86,4.42h-31a4.19,4.19,0,0,1-4.43-4.42h0A4.19,4.19,0,0,1,266.88,371.16Z"/><path class="cls-5" d="M275.74,229.43h35.43a4.18,4.18,0,0,1,4.43,4.42h0a4.18,4.18,0,0,1-4.43,4.43H275.74a4.18,4.18,0,0,1-4.43-4.43h0A4.18,4.18,0,0,1,275.74,229.43Z"/><path class="cls-5" d="M204.88,202.85H284.6a4.18,4.18,0,0,1,4.43,4.43h0a4.18,4.18,0,0,1-4.43,4.43H204.88a4.18,4.18,0,0,1-4.43-4.43h0A4.18,4.18,0,0,1,204.88,202.85Z"/><path class="cls-5" d="M196,140.84h79.72a4.18,4.18,0,0,1,4.43,4.43h0a4.18,4.18,0,0,1-4.43,4.43H196a4.18,4.18,0,0,1-4.43-4.43h0A4.19,4.19,0,0,1,196,140.84Z"/><path class="cls-5" d="M134,229.43h35.43a4.18,4.18,0,0,1,4.43,4.42h0a4.18,4.18,0,0,1-4.43,4.43H134a4.18,4.18,0,0,1-4.43-4.43h0A4.18,4.18,0,0,1,134,229.43Z"/><path class="cls-5" d="M134,256h53.15a4.18,4.18,0,0,1,4.43,4.43h0a4.18,4.18,0,0,1-4.43,4.43H134a4.18,4.18,0,0,1-4.43-4.43h0A4.18,4.18,0,0,1,134,256Z"/><path class="cls-5" d="M134,282.57h35.43a4.19,4.19,0,0,1,4.43,4.43h0a4.18,4.18,0,0,1-4.43,4.43H134a4.18,4.18,0,0,1-4.43-4.43h0A4.19,4.19,0,0,1,134,282.57Z"/><polygon class="cls-6" points="209.31 450.88 182.73 442.02 156.16 450.88 156.16 388.87 209.31 388.87 209.31 450.88"/><path class="cls-7" d="M209.31,409.25V397.73H156.16v53.15L182.73,442V415.45C192.47,415.45,201.33,413.68,209.31,409.25Z"/><circle class="cls-8" cx="182.73" cy="362.3" r="44.29" transform="translate(-191.61 518.89) rotate(-85.93)"/><circle class="cls-9" cx="182.73" cy="362.3" r="17.72" transform="translate(-191.61 518.89) rotate(-85.93)"/><path class="cls-10" d="M147.3,371.16c-5.32,0-8.86-3.55-8.86-8.86A43.86,43.86,0,0,1,182.73,318c5.32,0,8.86,3.54,8.86,8.86s-3.54,8.85-8.86,8.85a26.1,26.1,0,0,0-26.57,26.58C156.16,367.61,152.61,371.16,147.3,371.16Z"/><path class="cls-11" d="M218.16,353.44c5.32,0,8.86,3.54,8.86,8.86a43.86,43.86,0,0,1-44.29,44.29c-5.31,0-8.86-3.54-8.86-8.86s3.55-8.86,8.86-8.86a26.1,26.1,0,0,0,26.58-26.57C209.31,357,212.85,353.44,218.16,353.44Z"/><path class="cls-12" d="M448.48,256h0c0-8-9.75-11.52-15.06-6.2L327.12,356.1l15.06,15.06,88.58-88.59,11.52-11.51c1.77-1.77,3.54-3.54,4.42-6.2a31.36,31.36,0,0,0,1.78-8.86Z"/><path class="cls-13" d="M321.8,336.61c-.88,0-2.65,0-3.54-.89a4.28,4.28,0,0,1,0-6.2L344.83,303a4.39,4.39,0,1,1,6.21,6.2l-26.58,26.57A3.24,3.24,0,0,1,321.8,336.61Z"/><path class="cls-13" d="M359.89,298.52c-.88,0-2.65,0-3.54-.89a4.28,4.28,0,0,1,0-6.2l8.86-8.85a4.38,4.38,0,1,1,6.2,6.2l-8.86,8.85A8.87,8.87,0,0,1,359.89,298.52Z"/><polygon class="cls-14" points="342.18 371.16 297.89 380.01 306.75 335.72 342.18 371.16"/><polygon class="cls-15" points="297.89 380.01 342.18 371.16 327.12 356.1 297.89 380.01"/><path class="cls-16" d="M256,0C114.59,0,0,114.59,0,256s114.64,256,256.05,256,256-114.64,256-256S397.41,0,256,0ZM106,106A211.86,211.86,0,0,1,389.38,91.37l-298,298A211.86,211.86,0,0,1,106,106ZM405.8,405.8h0a212,212,0,0,1-283.18,14.83l298-298A212,212,0,0,1,405.8,405.8Z"/></svg>