<svg id="phone_2_" data-name="phone (2)" xmlns="http://www.w3.org/2000/svg" width="9.604" height="9.604" viewBox="0 0 9.604 9.604">
  <g id="Сгруппировать_182" data-name="Сгруппировать 182">
    <path id="Контур_464" data-name="Контур 464" d="M8.846,6.324A5.491,5.491,0,0,1,7.123,6.05a.738.738,0,0,0-.75.159l-1.09.823a6.09,6.09,0,0,1-2.71-2.71l.8-1.065a.765.765,0,0,0,.188-.773A5.489,5.489,0,0,1,3.286.758.759.759,0,0,0,2.528,0H.758A.759.759,0,0,0,0,.758,8.857,8.857,0,0,0,8.846,9.6.759.759,0,0,0,9.6,8.846V7.082A.759.759,0,0,0,8.846,6.324Z" fill="#fff"/>
  </g>
</svg>
