<svg xmlns="http://www.w3.org/2000/svg" width="42.078" height="42.076" viewBox="0 0 42.078 42.076">
  <g id="icon-hands" transform="translate(0.001 -0.01)">
    <g id="XMLID_827_" transform="translate(-0.001 0.01)">
      <path id="XMLID_841_" d="M40.675,196.34l-2.431,2.431a.822.822,0,0,0-.241.581,6.474,6.474,0,0,1-1.909,4.608L23.109,216.947a1.236,1.236,0,0,1-1.833-1.653l7.519-7.52a.822.822,0,0,0,0-1.162l0,0,0,0a.822.822,0,0,0-1.162,0l-9.067,9.077a1.236,1.236,0,0,1-1.833-1.653l9.162-9.162a.822.822,0,1,0-1.162-1.162L14.062,214.372a1.236,1.236,0,0,1-1.748-1.748L22.987,201.96a.822.822,0,0,0-1.162-1.162L12.3,210.316a1.236,1.236,0,0,1-1.653-1.833l3.118-3.118A.822.822,0,0,0,12.6,204.2l-1.6,1.6-3.168-3.169A15.9,15.9,0,0,1,3.7,195.408a.822.822,0,0,0-.214-.374L1.4,192.952a.822.822,0,1,0-1.162,1.162l1.926,1.926a17.552,17.552,0,0,0,4.508,7.75l3.169,3.169-.361.361a2.878,2.878,0,0,0,1.184,4.786,2.88,2.88,0,0,0,4.3,3.654,2.879,2.879,0,0,0,4.549,1.272,2.882,2.882,0,0,0,4.752,1.077l1.051-1.051.735.735a2.879,2.879,0,0,0,4.893-1.676,2.9,2.9,0,0,0,.488.042,2.877,2.877,0,0,0,2.88-2.878c0-.011,0-.022,0-.033h.031a2.877,2.877,0,0,0,2.88-2.878,2.916,2.916,0,0,0-.03-.413,2.879,2.879,0,0,0,1.73-4.9l-.869-.869a8.088,8.088,0,0,0,1.58-4.489l2.2-2.2a.822.822,0,0,0-1.162-1.162ZM28.968,216.63a1.237,1.237,0,0,1-1.748,0l-.727-.727,1.748-1.748.416.416.311.311a1.236,1.236,0,0,1,0,1.748Zm3.707-3.349a1.236,1.236,0,0,1-2.11.874l-.434-.434h0l-.727-.727,1.748-1.748,1.162,1.162a1.227,1.227,0,0,1,.362.874Zm2.548-2.036a1.237,1.237,0,0,1-1.748,0l-1.162-1.162,1.748-1.748,1.162,1.162a1.236,1.236,0,0,1,0,1.748Zm2.544-3.276a1.236,1.236,0,0,1-1.748,0l-.8-.8,1.748-1.748.8.8a1.236,1.236,0,0,1,0,1.748Z" transform="translate(0 -176.875)" fill="#fff"/>
      <path id="XMLID_877_" d="M9.751,10.924a.822.822,0,0,0,.581.241h4.242a13.437,13.437,0,0,1,8.446,3L29.7,19.586a5.382,5.382,0,0,1-5.615.327l-4.544-2.461a.822.822,0,0,0-.629-.064,15.249,15.249,0,0,1-8.781.023l-.081-.024a.822.822,0,1,0-.467,1.576l.08.024a16.886,16.886,0,0,0,9.392.072l1.184.641-2.409,2.409a.822.822,0,0,0,1.162,1.162l2.755-2.755,1.555.842a6.931,6.931,0,0,0,3.314.844,7.09,7.09,0,0,0,1.019-.074,6.937,6.937,0,0,0,3.934-1.974.822.822,0,0,0-.063-1.219l-6.633-5.387a12.611,12.611,0,0,1,6.575-1.895.822.822,0,0,0,.576-.241L41.836,1.6A.822.822,0,0,0,40.674.439L31.1,10.017a14.249,14.249,0,0,0-7.579,2.452,15.091,15.091,0,0,0-8.943-2.948h-3.9L1.4.251A.822.822,0,0,0,.24,1.413Z" transform="translate(0.001 -0.01)" fill="#fff"/>
      <path id="XMLID_878_" d="M182.441,298.04a.822.822,0,1,0,.582-.241A.827.827,0,0,0,182.441,298.04Z" transform="translate(-167.227 -273.326)" fill="#fff"/>
    </g>
  </g>
</svg>
