<svg id="icon-like" xmlns="http://www.w3.org/2000/svg" width="40.125" height="33.972" viewBox="0 0 40.125 33.972">
  <g id="Сгруппировать_420" data-name="Сгруппировать 420" transform="translate(8.496 21.284)">
    <g id="Сгруппировать_419" data-name="Сгруппировать 419">
      <circle id="Эллипс_568" data-name="Эллипс 568" cx="0.784" cy="0.784" r="0.784" fill="#fff"/>
    </g>
  </g>
  <g id="Сгруппировать_422" data-name="Сгруппировать 422">
    <g id="Сгруппировать_421" data-name="Сгруппировать 421">
      <path id="Контур_970" data-name="Контур 970" d="M40.125,54.78V54.7a3.3,3.3,0,0,0-3.291-3.291H27.441a14.163,14.163,0,0,0,1.9-6.872c.007-.407,0-.828,0-1.273,0-.288,0-.592,0-.92a3.086,3.086,0,0,0-3.074-3.084,3.05,3.05,0,0,0-2.2.915,2.961,2.961,0,0,0-.754,1.437,14.041,14.041,0,0,1-.854,2.755,19.186,19.186,0,0,1-5.448,7.264,18.288,18.288,0,0,1-1.966,1.392,2.205,2.205,0,0,0-2.122-1.614H.784A.784.784,0,0,0,0,52.192V72.447a.784.784,0,0,0,.784.784H12.919a2.2,2.2,0,0,0,2.193-2.012,8.243,8.243,0,0,0,5.412,2.012h16.31a3.29,3.29,0,0,0,2.13-5.8,3.285,3.285,0,0,0,1.162-2.507v-.1a3.285,3.285,0,0,0-1.162-2.507,3.285,3.285,0,0,0,1.162-2.507V59.8a3.285,3.285,0,0,0-1.162-2.507A3.285,3.285,0,0,0,40.125,54.78Zm-26.572-.466V71.029a.635.635,0,0,1-.634.634H10.063V64.836a.784.784,0,0,0-1.567,0v6.828H1.567V52.976H12.919a.635.635,0,0,1,.634.634v.7Zm21.11,3.757h2.171A1.726,1.726,0,0,1,38.558,59.8v.017a1.726,1.726,0,0,1-1.724,1.724H34.663a.784.784,0,0,0,0,1.567h2.171a1.726,1.726,0,0,1,1.724,1.724v.1a1.726,1.726,0,0,1-1.724,1.724H34.663a.784.784,0,0,0,0,1.567h2.171a1.724,1.724,0,1,1,0,3.447H20.524a6.688,6.688,0,0,1-4.664-1.882l-.739-.713V54.792A19.931,19.931,0,0,0,18,52.846,20.738,20.738,0,0,0,23.889,45a15.577,15.577,0,0,0,.953-3.06,1.377,1.377,0,0,1,.353-.678,1.461,1.461,0,0,1,1.026-.432h.033a1.517,1.517,0,0,1,1.514,1.517c0,.333,0,.641,0,.932,0,.436.007.847,0,1.236a12.643,12.643,0,0,1-2.406,7.222A.784.784,0,0,0,26,52.976H36.834A1.726,1.726,0,0,1,38.558,54.7v.081h0A1.726,1.726,0,0,1,36.834,56.5H34.663a.784.784,0,1,0,0,1.567Z" transform="translate(0 -39.259)" fill="#fff"/>
    </g>
  </g>
</svg>
