<svg xmlns="http://www.w3.org/2000/svg" width="47.871" height="38.858" viewBox="0 0 47.871 38.858">
  <g id="icon-wind" transform="translate(0.001 -0.001)">
    <path id="Контур_1128" data-name="Контур 1128" d="M17.927,385.2H1.4a1.4,1.4,0,0,1,0-2.8H17.927a1.4,1.4,0,0,1,0,2.8Z" transform="translate(-0.001 -351.152)" fill="#9bf0ff"/>
    <path id="Контур_1129" data-name="Контур 1129" d="M7.411,102.4H1.4a1.4,1.4,0,1,1,0-2.8H7.411a1.4,1.4,0,1,1,0,2.8Z" transform="translate(-0.001 -94.793)" fill="#9bf0ff"/>
    <path id="Контур_1130" data-name="Контур 1130" d="M42.411,122.467a5.548,5.548,0,0,0-5.62,5.541,2.069,2.069,0,1,0,4.139,0,1.388,1.388,0,0,1,.972-1.34,1.407,1.407,0,0,1,1.833,1.338,4.88,4.88,0,0,1-4.874,4.874H1.4a1.4,1.4,0,0,0-1.4,1.4v1.334a1.4,1.4,0,0,0,1.4,1.4H38.86a9,9,0,0,0,9.008-8.689,5.614,5.614,0,0,0-5.457-5.865Z" transform="translate(-0.001 -115.522)" fill="#17bcfe"/>
    <path id="Контур_1131" data-name="Контур 1131" d="M26.708,308.133H1.4a1.4,1.4,0,0,0-1.4,1.4v1.334a1.4,1.4,0,0,0,1.4,1.4H26.708a4.88,4.88,0,0,1,4.874,4.8,1.446,1.446,0,0,1-1.37,1.472,1.4,1.4,0,0,1-1.435-1.4,2.069,2.069,0,0,0-4.139,0,5.548,5.548,0,0,0,5.62,5.541,5.614,5.614,0,0,0,5.457-5.865A9,9,0,0,0,26.708,308.133Z" transform="translate(-0.001 -283.829)" fill="#2de1fd"/>
    <path id="Контур_1132" data-name="Контур 1132" d="M14.559,62.754H1.405a1.4,1.4,0,0,1-1.4-1.4V60.017a1.4,1.4,0,0,1,1.4-1.4H14.559a4.88,4.88,0,0,0,4.874-4.8,1.446,1.446,0,0,0-1.37-1.472,1.4,1.4,0,0,0-1.435,1.4,2.069,2.069,0,1,1-4.139,0A5.548,5.548,0,0,1,18.11,48.2a5.614,5.614,0,0,1,5.457,5.865A9,9,0,0,1,14.559,62.754Z" transform="translate(-0.004 -48.198)" fill="#2de1fd"/>
    <path id="Контур_1133" data-name="Контур 1133" d="M276.331,128.332a5.614,5.614,0,0,0-5.457-5.865,5.548,5.548,0,0,0-5.62,5.541,2.069,2.069,0,1,0,4.139,0,1.387,1.387,0,0,1,.972-1.34,1.407,1.407,0,0,1,1.833,1.338,4.88,4.88,0,0,1-4.874,4.874h-15.3v4.139h15.3A9.005,9.005,0,0,0,276.331,128.332Z" transform="translate(-228.465 -115.522)" fill="#0096ff"/>
    <path id="Контур_1134" data-name="Контур 1134" d="M260.048,317.078a1.446,1.446,0,0,1-1.37,1.472,1.4,1.4,0,0,1-1.435-1.4,2.069,2.069,0,0,0-4.139,0,5.548,5.548,0,0,0,5.62,5.541,5.614,5.614,0,0,0,5.457-5.865,9,9,0,0,0-9.008-8.689H252.03v4.139h3.144A4.88,4.88,0,0,1,260.048,317.078Z" transform="translate(-228.467 -283.83)" fill="#17bcfe"/>
  </g>
</svg>
