<svg xmlns="http://www.w3.org/2000/svg" width="55.762" height="55.762" viewBox="0 0 55.762 55.762">
  <g id="icon-sun" transform="translate(-1.75 -1.747)">
    <circle id="Эллипс_593" data-name="Эллипс 593" cx="17.578" cy="17.578" r="17.578" transform="translate(12.053 12.05)" fill="#fedb41"/>
    <g id="Сгруппировать_514" data-name="Сгруппировать 514" transform="translate(1.75 1.747)">
      <path id="Контур_1068" data-name="Контур 1068" d="M77.029,46.563a.783.783,0,0,1-.782-.782A13.226,13.226,0,0,0,63.034,32.568a.784.784,0,0,1,0-1.568,14.8,14.8,0,0,1,14.78,14.78.783.783,0,0,1-.785.782Z" transform="translate(-35.153 -17.898)" fill="#fea832"/>
      <g id="Сгруппировать_513" data-name="Сгруппировать 513" transform="translate(0 0)">
        <path id="Контур_1069" data-name="Контур 1069" d="M59.272,8.467a21.163,21.163,0,0,1,3.807.35c.017-.244.028-.493.028-.743,0-3.494-3.835-6.327-3.835-6.327S55.437,4.58,55.437,8.074c0,.252.012.5.029.743A21.16,21.16,0,0,1,59.272,8.467Z" transform="translate(-31.391 -1.747)" fill="#fea832"/>
        <path id="Контур_1070" data-name="Контур 1070" d="M59.273,110.813a21.206,21.206,0,0,0,3.807-.349c.017.244.028.49.028.742,0,3.493-3.835,6.327-3.835,6.327s-3.835-2.832-3.835-6.327c0-.252.012-.5.029-.742A21.2,21.2,0,0,0,59.273,110.813Z" transform="translate(-31.392 -61.771)" fill="#fea832"/>
        <path id="Контур_1071" data-name="Контур 1071" d="M93.786,24.615a21.206,21.206,0,0,1,2.444,2.939c.185-.16.367-.327.545-.5,2.471-2.471,1.762-7.185,1.762-7.185s-4.714-.708-7.185,1.762c-.179.179-.344.358-.5.545a21.207,21.207,0,0,1,2.939,2.444Z" transform="translate(-50.942 -11.698)" fill="#fea832"/>
        <path id="Контур_1072" data-name="Контур 1072" d="M24.618,93.783a21.155,21.155,0,0,0,2.939,2.444c-.16.185-.327.367-.5.545-2.471,2.471-7.185,1.762-7.185,1.762s-.709-4.714,1.762-7.185c.179-.179.358-.344.545-.5a21.181,21.181,0,0,0,2.444,2.939Z" transform="translate(-11.701 -50.939)" fill="#fea832"/>
        <path id="Контур_1073" data-name="Контур 1073" d="M110.816,59.273a21.2,21.2,0,0,1-.349,3.807c.244.017.49.029.742.029,3.493,0,6.327-3.835,6.327-3.835s-2.833-3.835-6.327-3.835c-.252,0-.5.011-.742.028A21.205,21.205,0,0,1,110.816,59.273Z" transform="translate(-61.774 -31.391)" fill="#fea832"/>
        <path id="Контур_1074" data-name="Контур 1074" d="M8.47,59.273a21.2,21.2,0,0,0,.349,3.807c-.244.017-.493.029-.742.029-3.494,0-6.327-3.836-6.327-3.836s2.833-3.835,6.327-3.835c.252,0,.5.011.742.028a21.2,21.2,0,0,0-.349,3.807Z" transform="translate(-1.75 -31.391)" fill="#fea832"/>
        <path id="Контур_1075" data-name="Контур 1075" d="M93.786,93.783a21.208,21.208,0,0,1-2.939,2.444c.16.185.327.367.5.545,2.471,2.471,7.185,1.762,7.185,1.762s.709-4.714-1.762-7.185c-.179-.179-.358-.344-.545-.5A21.182,21.182,0,0,1,93.786,93.783Z" transform="translate(-50.942 -50.939)" fill="#fea832"/>
        <path id="Контур_1076" data-name="Контур 1076" d="M24.618,24.615a21.207,21.207,0,0,0-2.444,2.939c-.185-.16-.367-.327-.545-.5-2.471-2.471-1.762-7.185-1.762-7.185s4.714-.708,7.185,1.762c.179.179.344.358.5.545A21.181,21.181,0,0,0,24.618,24.615Z" transform="translate(-11.701 -11.698)" fill="#fea832"/>
      </g>
    </g>
  </g>
</svg>
