<svg id="Слой_1" data-name="Слой 1" xmlns="http://www.w3.org/2000/svg" xmlns:xlink="http://www.w3.org/1999/xlink" viewBox="0 0 1656 1676"><defs><style>.cls-1{fill:url(#Безымянный_градиент_3);}.cls-2{fill:url(#Безымянный_градиент_3-2);}.cls-3{fill:url(#Безымянный_градиент_3-3);}</style><linearGradient id="Безымянный_градиент_3" x1="826" y1="-10022.69" x2="826" y2="-8338.69" gradientTransform="matrix(1, 0, 0, -1, 0, -8341.69)" gradientUnits="userSpaceOnUse"><stop offset="0" stop-color="#1a1b1e"/><stop offset="0.04" stop-color="#1b1d20"/><stop offset="0.64" stop-color="#2e323a"/><stop offset="1" stop-color="#353a44"/></linearGradient><linearGradient id="Безымянный_градиент_3-2" x1="1302.73" y1="-9248.19" x2="1302.73" y2="-9117.55" xlink:href="#Безымянный_градиент_3"/><linearGradient id="Безымянный_градиент_3-3" x1="762.86" y1="-9248.2" x2="762.86" y2="-9117.74" xlink:href="#Безымянный_градиент_3"/></defs><title>55Монтажная область 1_1</title><g id="Слой_8" data-name="Слой 8"><path class="cls-1" d="M-4,1681Q-2,839,0-3L1653.2,5.48q1.4,833.76,2.8,1667.52ZM459.37,953.61V819.72c0-25.29,18.85-43.37,45.55-43.85,22.72-.42,32.89,12.41,33.26,42.23.16,12.32,0,24.64,0,37v97.6h61.24c0-58.25,1.11-114.64-.39-171-1-37.1-24.28-57.43-61.32-59.17C504.17,721,478.06,735.7,456,759.42c-34.74-47.07-62.94-48.94-136.15-9.51-.71-7.08-1.38-13.83-2.11-21h-58.7V952.79h57.87c.91-2.92,1.61-4.12,1.62-5.33q.27-62.25.42-124.5c.06-26,10-38.88,35.06-45.25,25.31-6.45,42.76,5.86,43.37,31.74.7,29.81.29,59.66.34,89.49v54.67Zm723.56-113.05c-.11,69.87,49.69,119.89,119.66,120.18,69.38.29,121-51,120.52-119.71-.46-69.82-50.46-118.93-121-118.8C1232.69,722.35,1183,771.63,1182.93,840.56ZM761.82,722.4c-70.59.87-120.31,51-119.37,120.31.93,68.41,51.84,118.36,120.33,118,70.71-.32,121.57-51.78,120.49-121.85C882.15,770.76,830.85,721.54,761.82,722.4Zm224.28,231c0-46.2,1.95-90.31-.72-134.13-1.62-26.6,27.52-42.3,51.94-43.37,26.55-1.16,40.56,12.59,40.91,40.34.5,38.85.17,77.72.19,116.58v20.51h59.16c0-59.26,1.79-117.39-.69-175.34-1.4-32.46-25.22-51.22-57.84-54.92-34.6-3.93-64.43,7-91.64,30.34-1.09-10.09-1.89-17.43-2.68-24.69H927.16V953.41Z"/><path class="cls-2" d="M1359.81,840.42c.36,38.44-22.39,65.42-55.73,66.07-33.87.66-57.71-25.19-58.41-63.36-.72-39.06,22.62-66.74,56.73-67.27C1335.59,775.35,1359.44,802.17,1359.81,840.42Z"/><path class="cls-3" d="M761.33,906.5c-33.08-.65-56.42-28.17-56-66.11s24.58-64.72,57.84-64.34c34,.39,58.51,29.15,57.18,67.09C819,881.35,794.94,907.15,761.33,906.5Z"/></g></svg>