<svg xmlns="http://www.w3.org/2000/svg" width="52.484" height="60.723" viewBox="0 0 52.484 60.723">
  <g id="icon-form-pre" transform="translate(958 18848)">
    <g id="window_6_" data-name="window (6)" transform="translate(-958 -18848)">
      <path id="Контур_1246" data-name="Контур 1246" d="M149.278,47.229H128.908a.908.908,0,0,1-.908-.908V16.349a16.349,16.349,0,1,1,32.7,0v2.711H149.036L148.7,45.413C148.7,45.914,149.78,47.229,149.278,47.229Zm-19.461-1.816h19.2l.02-23.805V19.673l-.282-.265,9.6-.868.527.293V16.349a14.532,14.532,0,1,0-29.064,0Zm0,0" transform="translate(-128 0)" fill="#fff"/>
      <path id="Контур_1249" data-name="Контур 1249" d="M159.789,183.148h-30.88a.908.908,0,1,1,0-1.816h30.88a.908.908,0,1,1,0,1.816Zm0,0" transform="translate(-128 -165.892)" fill="#fff"/>
      <path id="Контур_1250" data-name="Контур 1250" d="M202.885,56.285a.908.908,0,0,1-.695-.321L192.2,44.157a.909.909,0,0,1,1.388-1.174l9.991,11.807a.908.908,0,0,1-.693,1.495Zm0,0" transform="translate(-186.537 -39.029)" fill="#fff"/>
      <path id="Контур_1251" data-name="Контур 1251" d="M310.24,17.256a.908.908,0,0,1-.908-.908V.908a.908.908,0,1,1,1.817,0V13.869l8.388-9.915a.909.909,0,0,1,1.388,1.174l-9.991,11.807a.9.9,0,0,1-.694.321Zm0,0" transform="translate(-293.892 0)" fill="#fff"/>
      <path id="Контур_1252" data-name="Контур 1252" d="M310.24,213.121a.908.908,0,0,1-.908-.908V182.24a.908.908,0,1,1,1.817,0v29.972A.908.908,0,0,1,310.24,213.121Zm0,0" transform="translate(-293.892 -166.318)" fill="#fff"/>
      <path id="Контур_1253" data-name="Контур 1253" d="M224.908,211.872A.891.891,0,0,1,224,211V182.2a.909.909,0,0,1,1.816,0V211A.891.891,0,0,1,224.908,211.872Zm0,0" transform="translate(-215.826 -164.984)" fill="#fff"/>
      <path id="Контур_1254" data-name="Контур 1254" d="M395.576,185.4c-.5,0-.908-.052-.908-.116v-3.84c0-.064.407-.116.908-.116s.908.052.908.116v3.84C396.484,185.353,396.078,185.4,395.576,185.4Zm0,0" transform="translate(-371.961 -165.892)" fill="#fff"/>
      <path id="Контур_1255" data-name="Контур 1255" d="M144.349,300.484h-15.44a.908.908,0,1,1,0-1.816h15.44a.908.908,0,1,1,0,1.816Zm0,0" transform="translate(-128 -273.237)" fill="#fff"/>
      <path id="Контур_1256" data-name="Контур 1256" d="M144.349,417.817h-15.44a.908.908,0,1,1,0-1.817h15.44a.908.908,0,1,1,0,1.817Zm0,0" transform="translate(-128 -380.578)" fill="#fff"/>
      <path id="Контур_1257" data-name="Контур 1257" d="M314.371,300.484h-4.759c-.155,0-.28-.406-.28-.908s.125-.908.28-.908h4.759c.155,0,.28.406.28.908S314.526,300.484,314.371,300.484Zm0,0" transform="translate(-293.892 -273.237)" fill="#fff"/>
      <path id="Контур_1258" data-name="Контур 1258" d="M314.925,417.817h-5.282c-.172,0-.311-.407-.311-.909s.139-.908.311-.908h5.282c.172,0,.311.407.311.908S315.1,417.817,314.925,417.817Zm0,0" transform="translate(-293.892 -380.578)" fill="#fff"/>
    </g>
    <g id="window_7_" data-name="window (7)" transform="translate(-938.274 -18829.863)">
      <path id="Контур_1284" data-name="Контур 1284" d="M70.689,42.586H39.569a.819.819,0,0,1-.819-.819V1.638A1.638,1.638,0,0,1,40.388,0H69.87a1.638,1.638,0,0,1,1.638,1.638V41.767a.819.819,0,0,1-.819.819Zm-30.3-1.638H69.87V1.638H40.388Zm0,0" transform="translate(-38.75 0)" fill="#fff"/>
      <path id="Контур_1285" data-name="Контур 1285" d="M106.8,78.7H82.233a.819.819,0,0,1-.819-.819v-34.4a.819.819,0,0,1,.819-.819H106.8a.819.819,0,0,1,.819.819v34.4A.819.819,0,0,1,106.8,78.7Zm-23.75-1.638h22.931V44.3H83.052Zm0,0" transform="translate(-78.138 -39.388)" fill="#fff"/>
      <path id="Контур_1286" data-name="Контур 1286" d="M106.8,186.246H82.233a.819.819,0,0,1-.819-.819v-3.276a.819.819,0,0,1,.819-.819H106.8a.819.819,0,0,1,.819.819v3.276A.819.819,0,0,1,106.8,186.246Zm-23.75-1.638h22.931V182.97H83.052Zm0,0" transform="translate(-78.138 -167.41)" fill="#fff"/>
      <path id="Контур_1287" data-name="Контур 1287" d="M242.233,246.112a.819.819,0,0,1-.819-.819V224.819a.819.819,0,0,1,1.638,0v20.474A.819.819,0,0,1,242.233,246.112Zm0,0" transform="translate(-225.854 -206.802)" fill="#fff"/>
      <path id="Контур_1288" data-name="Контур 1288" d="M106.8,353.638H82.233a.819.819,0,1,1,0-1.638H106.8a.819.819,0,0,1,0,1.638Zm0,0" transform="translate(-78.138 -324.974)" fill="#fff"/>
    </g>
  </g>
</svg>
