<svg id="icon-team" xmlns="http://www.w3.org/2000/svg" width="44.396" height="44.396" viewBox="0 0 44.396 44.396">
  <path id="Контур_1036" data-name="Контур 1036" d="M44.4,22.915V17.169a3.558,3.558,0,0,0-2.551-3.429l-4.609-1.383V11.269a5.007,5.007,0,0,0,2.148-4.107V5.013a5.013,5.013,0,0,0-10.025,0V7.161a5.005,5.005,0,0,0,2.148,4.107v1.088l-4.062,1.219a8.275,8.275,0,0,0-10.914-.125l-3.642-1.093V11.269a5.007,5.007,0,0,0,2.148-4.107V5.013a5.013,5.013,0,1,0-10.025,0V7.161a5.005,5.005,0,0,0,2.148,4.107v1.088L2.551,13.739A3.56,3.56,0,0,0,0,17.169v5.746H1.432V17.169a2.134,2.134,0,0,1,1.531-2.057l4.611-1.384a3.114,3.114,0,0,0,2.451,1.31,3.114,3.114,0,0,0,2.451-1.31l2.937.881a8.265,8.265,0,0,0-1.742,4.16A5.006,5.006,0,0,0,5.013,22.2v2.148a5.005,5.005,0,0,0,2.148,4.107v1.088L2.551,30.925A3.56,3.56,0,0,0,0,34.355v6.462H8.593a.717.717,0,0,1,.716.716V44.4H35.088V41.533a.717.717,0,0,1,.716-.716H44.4V34.355a3.558,3.558,0,0,0-2.551-3.429l-4.609-1.383V28.455a5.007,5.007,0,0,0,2.148-4.107V22.2a5.008,5.008,0,0,0-8.593-3.5v-.679a3.851,3.851,0,0,0-1.968-3.36l3.1-.93a2.949,2.949,0,0,0,4.9,0l4.612,1.384a2.134,2.134,0,0,1,1.53,2.057v5.746ZM10.025,1.432a3.585,3.585,0,0,1,3.58,3.58H10.322A1.741,1.741,0,0,1,9.1,4.506L8.593,4l-.506.506a1.741,1.741,0,0,1-1.222.506h-.42a3.585,3.585,0,0,1,3.58-3.58ZM6.445,7.161V6.445h.42a3.136,3.136,0,0,0,1.729-.513,3.136,3.136,0,0,0,1.729.513h3.284v.716a3.58,3.58,0,1,1-7.161,0Zm3.58,6.445a1.832,1.832,0,0,1-1.432-.913v-.73a4.97,4.97,0,0,0,2.864,0v.73a1.829,1.829,0,0,1-1.432.914ZM29.709,26.174a5.034,5.034,0,0,0,1.8,2.281v1.088L26.9,30.925a3.516,3.516,0,0,0-.443.169l-.677-.156V29.528a5.759,5.759,0,0,0,1.739-2.349,3.566,3.566,0,0,0,2.191-1ZM22.2,30.792a5.689,5.689,0,0,0,2.148-.422v.78L22.2,32.761,20.05,31.15v-.78A5.689,5.689,0,0,0,22.2,30.792ZM19.171,32.28l1.746,1.31-1.8,1.078L18.667,32.4Zm2.236,5.672H22.99l.557,5.013h-2.7Zm1.707-1.432H21.282l-.411-1.233,1.328-.8,1.327.8Zm.366-2.93,1.746-1.31.5.116-.454,2.271ZM28.8,25.076a2.148,2.148,0,0,1-.9.579,5.807,5.807,0,0,0,.031-.592V21.636a2.162,2.162,0,0,1,1.421,1.78,2.136,2.136,0,0,1-.548,1.659Zm-2.306-.013a4.3,4.3,0,1,1-8.593,0v-3.58h2.431a9.209,9.209,0,0,0,4.437-1.134l.566,1.134h1.159Zm-9.994.592a2.117,2.117,0,0,1-.031-4.017v3.426a5.807,5.807,0,0,0,.031.592Zm.379,1.524a5.746,5.746,0,0,0,1.739,2.349v1.411l-.677.156a3.705,3.705,0,0,0-.443-.169l-4.609-1.383V28.455a5.039,5.039,0,0,0,1.8-2.281,3.566,3.566,0,0,0,2.191,1Zm-6.854-8.561a3.585,3.585,0,0,1,3.58,3.58h-.42a1.741,1.741,0,0,1-1.222-.506l-.506-.506-.506.506a1.741,1.741,0,0,1-1.222.506H6.445a3.585,3.585,0,0,1,3.58-3.58Zm-3.58,5.729v-.716H9.729a3.136,3.136,0,0,0,1.729-.513,3.136,3.136,0,0,0,1.729.513h.42v.716a3.58,3.58,0,1,1-7.161,0Zm3.58,5.013a4.982,4.982,0,0,0,1.432-.211v.73a1.829,1.829,0,0,1-1.432.914,1.832,1.832,0,0,1-1.432-.913v-.73A5.006,5.006,0,0,0,10.025,29.359ZM8.593,39.385H5.729V34.372H4.3v5.013H1.432v-5.03A2.134,2.134,0,0,1,2.963,32.3l4.611-1.384a3.114,3.114,0,0,0,2.451,1.31,3.114,3.114,0,0,0,2.451-1.31l2.715.815-2,.46a4.99,4.99,0,0,0-3.885,4.884v.879h1.432v-.879a3.565,3.565,0,0,1,2.776-3.489l3.754-.866.844,4.222,1.5-.9.424,1.272-.627,5.651H15.754V37.236H14.322v5.729h-3.58V41.533a2.151,2.151,0,0,0-2.148-2.148ZM41.434,32.3a2.134,2.134,0,0,1,1.531,2.057v5.03H40.1V34.372H38.668v5.013H35.8a2.151,2.151,0,0,0-2.148,2.148v1.432h-3.58V37.236H28.643v5.729H24.988l-.628-5.651.424-1.272,1.5.9.844-4.222,3.755.866a3.565,3.565,0,0,1,2.776,3.489v.879h1.432v-.879A4.99,4.99,0,0,0,31.2,32.189l-2-.46,2.715-.815a2.948,2.948,0,0,0,4.9,0ZM35.8,29.879a1.58,1.58,0,0,1-2.864,0v-.73a4.962,4.962,0,0,0,2.864,0Zm-1.432-1.951a3.585,3.585,0,0,1-3.58-3.58v-.716h.42a3.136,3.136,0,0,0,1.729-.513,3.136,3.136,0,0,0,1.729.513h3.284v.716A3.585,3.585,0,0,1,34.372,27.927Zm0-9.309a3.585,3.585,0,0,1,3.58,3.58H34.668a1.741,1.741,0,0,1-1.222-.506l-.506-.506-.506.506a1.741,1.741,0,0,1-1.222.506h-.42a3.585,3.585,0,0,1,3.58-3.58Zm-5.013,2.209a3.762,3.762,0,0,0-2.271-.777h-.866l-.881-1.762-.675.45a7.785,7.785,0,0,1-4.333,1.312H17.309a3.762,3.762,0,0,0-2.271.777V19.768A6.879,6.879,0,0,1,26.781,14.9l.76.76.16.054a2.423,2.423,0,0,1,1.658,2.3Zm5.013-19.4a3.585,3.585,0,0,1,3.58,3.58h-.42a1.741,1.741,0,0,1-1.222-.506L35.8,4l-.506.506a1.741,1.741,0,0,1-1.222.506H30.791a3.585,3.585,0,0,1,3.58-3.58Zm-3.58,5.729V6.445h3.284A3.136,3.136,0,0,0,35.8,5.931a3.136,3.136,0,0,0,1.729.513h.42v.716a3.58,3.58,0,0,1-7.161,0Zm3.58,6.445a1.831,1.831,0,0,1-1.432-.913v-.73a4.962,4.962,0,0,0,2.864,0v.73a1.829,1.829,0,0,1-1.432.914Zm0,0" transform="translate(0 0)" fill="#fff"/>
</svg>
