<svg xmlns="http://www.w3.org/2000/svg" width="55.78" height="55.78" viewBox="0 0 55.78 55.78">
  <g id="icon-feather" transform="translate(0 -0.001)">
    <path id="Контур_1222" data-name="Контур 1222" d="M54.691,471.255H49.9v-1.447a1.089,1.089,0,1,0-2.179,0v1.447H28.979v-1.447a1.089,1.089,0,1,0-2.179,0v1.447H8.062v-1.447a1.089,1.089,0,1,0-2.179,0v1.447H1.089a1.089,1.089,0,0,0,0,2.179h53.6a1.089,1.089,0,0,0,0-2.179Zm0,0" transform="translate(0 -417.653)" fill="#fff"/>
    <path id="Контур_1223" data-name="Контур 1223" d="M40,429.089a1.089,1.089,0,0,0,1.089,1.09H52v1.447a1.089,1.089,0,1,0,2.179,0v-1.447H72.919v1.447a1.089,1.089,0,1,0,2.179,0v-1.447H90.336a1.089,1.089,0,0,0,0-2.179H41.093A1.089,1.089,0,0,0,40,429.089Zm0,0" transform="translate(-35.646 -381.371)" fill="#fff"/>
    <path id="Контур_1224" data-name="Контур 1224" d="M1.089,430.179a1.089,1.089,0,1,0-.77-1.86,1.089,1.089,0,0,0,.77,1.86Zm0,0" transform="translate(0 -381.371)" fill="#fff"/>
    <path id="Контур_1225" data-name="Контур 1225" d="M14.887,25.569a29.489,29.489,0,0,0,13.556,2.992,43.487,43.487,0,0,0,10.11-1.253c.219-.052.434-.106.649-.16a1.089,1.089,0,0,0,.5-.282l4.035-3.993.8,1.6a1.089,1.089,0,0,0,1.38.522,31.176,31.176,0,0,0,8.934-5.23,1.088,1.088,0,0,0,.372-.809l.025-2.321.511.511a1.09,1.09,0,0,0,1.649-.126c2.321-3.165,2.681-6.5,1.081-9.22q.776-.6,1.537-1.212l5.742-4.652A1.089,1.089,0,0,0,64.4.244L58.659,4.9q-.75.608-1.513,1.194a10.845,10.845,0,0,0-7.024-3.513c-3.273-.258-7,.964-11.392,3.733-.744.469-1.154.718-1.9,1.171l-.548.332a1.09,1.09,0,0,0-.073,1.814l.49.354-2.725-.454a1.092,1.092,0,0,0-.739.14C26.852,13.487,18.928,18.034,14.773,20.4a2.938,2.938,0,0,0,.115,5.164ZM56.355,14.656l-1.394-1.394a1.089,1.089,0,0,0-1.86.759l-.046,4.417a28.645,28.645,0,0,1-7.02,4.151l-1.021-2.034a1.089,1.089,0,0,0-1.74-.286l-4.89,4.837-.337.082a41.38,41.38,0,0,1-9.614,1.195,27.283,27.283,0,0,1-12.547-2.751h0c.028,0,.055,0,.083,0l.064,0a76.893,76.893,0,0,0,23.338-5.069A76.893,76.893,0,0,0,56.733,9.116a5.577,5.577,0,0,1-.379,5.541ZM34.012,11.742l6.907,1.15a1.089,1.089,0,0,0,.818-1.957l-2.92-2.113c.331-.2.649-.4,1.076-.669,3.982-2.51,7.273-3.625,10.059-3.4A8.518,8.518,0,0,1,55.38,7.407,74.3,74.3,0,0,1,17.517,21.346c4.3-2.463,10.935-6.283,16.495-9.6Zm0,0" transform="translate(-11.844 0)" fill="#fff"/>
    <path id="Контур_1226" data-name="Контур 1226" d="M114.716,356.515a1.089,1.089,0,1,0,0-2.179H114.7a1.089,1.089,0,0,0,0,2.179Zm0,0" transform="translate(-101.235 -315.732)" fill="#fff"/>
    <path id="Контур_1227" data-name="Контур 1227" d="M43.434,288.581a1.09,1.09,0,1,0,1.133-1.861,7.007,7.007,0,0,1-3.388-6.029,1.089,1.089,0,1,0-2.179,0,9.172,9.172,0,0,0,4.434,7.89Zm0,0" transform="translate(-34.751 -249.139)" fill="#fff"/>
    <path id="Контур_1228" data-name="Контур 1228" d="M400.973,233.511a1.089,1.089,0,0,0-2.179,0,3.708,3.708,0,0,1-3.7,3.7,1.089,1.089,0,0,0,0,2.179A5.89,5.89,0,0,0,400.973,233.511Zm0,0" transform="translate(-351.076 -207.1)" fill="#fff"/>
  </g>
</svg>
