<svg xmlns="http://www.w3.org/2000/svg" width="53.008" height="53.289" viewBox="0 0 53.008 53.289">
  <g id="icon-painting" transform="translate(-1.349 0)">
    <g id="Сгруппировать_556" data-name="Сгруппировать 556" transform="translate(43.426 40.526)">
      <g id="Сгруппировать_555" data-name="Сгруппировать 555">
        <path id="Контур_1239" data-name="Контур 1239" d="M411.1,389.815a3.712,3.712,0,1,0,1.923,3.563A3.75,3.75,0,0,0,411.1,389.815Zm-.325,4.709a2.049,2.049,0,1,1,.343-2.444A2.07,2.07,0,0,1,410.774,394.525Z" transform="translate(-405.62 -389.371)" fill="#fff"/>
      </g>
    </g>
    <g id="Сгруппировать_558" data-name="Сгруппировать 558" transform="translate(2.9 0)">
      <g id="Сгруппировать_557" data-name="Сгруппировать 557" transform="translate(0 0)">
        <path id="Контур_1240" data-name="Контур 1240" d="M66,40.431,55.076,29.5l3.956-3.956h0a4.159,4.159,0,0,0,0-5.875L49.8,10.436a.831.831,0,0,0-1.175,1.175l3.321,3.321L46.85,20.024l-3.8-3.8A.831.831,0,1,0,41.876,17.4l3.8,3.8L42.15,24.724,40.231,22.8a.831.831,0,1,0-1.175,1.175L40.975,25.9l-4.309,4.309-2.7-2.7a.831.831,0,1,0-1.175,1.175l2.7,2.7-4.309,4.309L18.257,22.766l1.488-1.488L24.563,26.1a2.493,2.493,0,0,0,3.525-3.525l-1.253-1.253a.831.831,0,0,1,1.175-1.175L32.867,25a2.493,2.493,0,1,0,3.525-3.525l-5.64-5.64a.831.831,0,1,1,1.175-1.175l1.253,1.253a2.493,2.493,0,1,0,3.525-3.525l-1.41-1.41A.831.831,0,0,1,36.47,9.8l3.29,3.29a2.493,2.493,0,0,0,3.525-3.525L37.371,3.651l1.645-1.645,6.06,6.06a.831.831,0,1,0,1.175-1.175L39.6.244a.831.831,0,0,0-1.175,0L16.494,22.178a.831.831,0,0,0,0,1.175L35.922,42.782a4.155,4.155,0,0,0,5.876,0L45.675,38.9,56.6,49.832a5.823,5.823,0,0,0,8.226,0L66,48.657a5.817,5.817,0,0,0,0-8.226ZM36.2,4.826l5.915,5.915a.831.831,0,0,1-1.175,1.175l-3.29-3.29a2.493,2.493,0,0,0-3.525,3.525l1.41,1.41a.831.831,0,1,1-1.175,1.175L33.1,13.483a2.493,2.493,0,1,0-3.525,3.525l5.64,5.64a.831.831,0,1,1-1.175,1.175l-4.857-4.857a2.493,2.493,0,0,0-3.525,3.525l1.253,1.253a.831.831,0,1,1-1.175,1.175L20.92,20.1ZM32.358,36.867l20.76-20.76.705.705-20.76,20.76Zm8.265,4.739a2.5,2.5,0,0,1-3.525,0l-2.859-2.859L55,17.987l2.859,2.859a2.5,2.5,0,0,1,0,3.525h0Zm24.207,5.876-1.175,1.175a4.159,4.159,0,0,1-5.875,0L46.85,37.729l7.05-7.05L64.829,41.607a4.155,4.155,0,0,1,0,5.875Z" transform="translate(-16.251 0)" fill="#fff"/>
      </g>
    </g>
    <g id="Сгруппировать_560" data-name="Сгруппировать 560" transform="translate(1.349 32.793)">
      <g id="Сгруппировать_559" data-name="Сгруппировать 559" transform="translate(0)">
        <path id="Контур_1241" data-name="Контур 1241" d="M9.278,315.418a.831.831,0,0,0-1.345,0c-.039.054-.969,1.338-2.131,3.139a.831.831,0,1,0,1.4.9c.542-.84,1.037-1.572,1.409-2.111,2.019,2.917,5.593,8.576,5.593,10.966a5.595,5.595,0,1,1-11.19,0c0-.67.335-2.371,2.575-6.23a.831.831,0,1,0-1.437-.834c-1.884,3.245-2.8,5.556-2.8,7.064a7.257,7.257,0,1,0,14.513,0C15.862,324.6,9.952,316.347,9.278,315.418Z" transform="translate(-1.349 -315.075)" fill="#fff"/>
      </g>
    </g>
    <g id="Сгруппировать_562" data-name="Сгруппировать 562" transform="translate(7.775 39.042)">
      <g id="Сгруппировать_561" data-name="Сгруппировать 561">
        <path id="Контур_1242" data-name="Контур 1242" d="M65.566,375.51a.831.831,0,1,0-1.422.859c2.619,4.335,2.708,5.684,2.71,5.73a2.939,2.939,0,0,1-2.936,2.936.831.831,0,0,0,0,1.662,4.6,4.6,0,0,0,4.6-4.6C68.516,381.7,68.3,380.039,65.566,375.51Z" transform="translate(-63.087 -375.109)" fill="#fff"/>
      </g>
    </g>
  </g>
</svg>
