<svg id="discount_1_" data-name="discount (1)" xmlns="http://www.w3.org/2000/svg" xmlns:xlink="http://www.w3.org/1999/xlink" width="22.629" height="25.526" viewBox="0 0 22.629 25.526">
  <defs>
    <linearGradient id="linear-gradient" x1="0.036" y1="0.484" x2="0.681" y2="0.305" gradientUnits="objectBoundingBox">
      <stop offset="0" stop-color="#ffb92d"/>
      <stop offset="1" stop-color="#f59500"/>
    </linearGradient>
    <linearGradient id="linear-gradient-2" x1="0.851" y1="0.36" x2="0.346" y2="0.362" gradientUnits="objectBoundingBox">
      <stop offset="0" stop-color="#be3f45" stop-opacity="0"/>
      <stop offset="1" stop-color="#be3f45"/>
    </linearGradient>
    <linearGradient id="linear-gradient-3" x1="0.02" y1="0.612" x2="0.687" y2="0.184" gradientUnits="objectBoundingBox">
      <stop offset="0" stop-color="#fff465"/>
      <stop offset="1" stop-color="#ffe600"/>
    </linearGradient>
    <linearGradient id="linear-gradient-4" x1="0.441" y1="-0.601" x2="0.096" y2="-0.255" gradientUnits="objectBoundingBox">
      <stop offset="0" stop-color="#ffe600" stop-opacity="0"/>
      <stop offset="1" stop-color="#f59500"/>
    </linearGradient>
    <linearGradient id="linear-gradient-5" x1="0.772" y1="-0.82" x2="0.142" y2="-0.312" xlink:href="#linear-gradient-4"/>
    <linearGradient id="linear-gradient-6" x1="1.1" y1="-2.423" x2="0.027" y2="-1.561" xlink:href="#linear-gradient-4"/>
    <linearGradient id="linear-gradient-7" x1="0.495" y1="-0.226" x2="0.495" y2="-1.338" gradientUnits="objectBoundingBox">
      <stop offset="0" stop-color="#fff"/>
      <stop offset="1" stop-color="#e2edf2"/>
    </linearGradient>
    <linearGradient id="linear-gradient-8" x1="0.915" y1="1.262" x2="-0.338" y2="1.824" xlink:href="#linear-gradient-4"/>
    <linearGradient id="linear-gradient-9" x1="0.233" y1="2.348" x2="1.163" y2="2.348" gradientUnits="objectBoundingBox">
      <stop offset="0" stop-color="#62e1fb"/>
      <stop offset="1" stop-color="#00a2f3"/>
    </linearGradient>
  </defs>
  <path id="Контур_276" data-name="Контур 276" d="M96.483,79.455l-6.95-12.691a2.4,2.4,0,0,0-1.974-1.223l-1.226-.07-4.517-.26-.088-.005c-.045,0-.088,0-.132,0h-.07a2.447,2.447,0,0,0-1.348.439,2.331,2.331,0,0,0-.635.661l-3.059,4.82a2.213,2.213,0,0,0-.074,2.259L83.357,86.07a2.714,2.714,0,0,0,1.626,1.292,2.84,2.84,0,0,0,1.722-.036,2.911,2.911,0,0,0,.358-.15l1.09-.549,7.176-3.616A2.58,2.58,0,0,0,96.483,79.455ZM82.709,71.379c-.032.029-.063.057-.1.084l-.044.035a1.64,1.64,0,0,1-.149.1c-.017.011-.034.021-.052.029a.5.5,0,0,1-.053.028,1.643,1.643,0,0,1-1.86-.276,1.484,1.484,0,0,1,0-2.161,1.642,1.642,0,0,1,2.08-.143c.042.03.083.063.124.1l.049.045A1.485,1.485,0,0,1,82.709,71.379Z" transform="translate(-74.169 -61.952)" fill="url(#linear-gradient)"/>
  <path id="Контур_277" data-name="Контур 277" d="M83.356,86.076a2.714,2.714,0,0,0,1.626,1.292,2.84,2.84,0,0,0,1.722-.036,2.908,2.908,0,0,0,.358-.15l1.09-.549,7.176-3.616a2.58,2.58,0,0,0,1.154-3.555l-3.247-5.929-4.791-4.6a2.367,2.367,0,0,0-.6-.5l-1.052-.61L82.84,65.539a2.458,2.458,0,0,0-1.047-.322l-.061,0-.057,0-.072,0c-.043,0-.085,0-.128,0l-.052,0a2.46,2.46,0,0,0-1.05.319l-.2.115a2.331,2.331,0,0,0-.634.66l-3.059,4.82a2.213,2.213,0,0,0-.074,2.259Zm-2.9-16.852a1.642,1.642,0,0,1,2.08-.143c.042.03.083.063.124.1l.049.045a1.485,1.485,0,0,1,0,2.161c-.032.029-.063.057-.1.084l-.044.035a1.636,1.636,0,0,1-.149.1c-.017.011-.034.021-.052.029a.5.5,0,0,1-.053.028,1.643,1.643,0,0,1-1.86-.276A1.484,1.484,0,0,1,80.455,69.224Z" transform="translate(-74.168 -61.958)" fill="url(#linear-gradient-2)"/>
  <path id="Контур_278" data-name="Контур 278" d="M51.977,68.434l-1.052-.61-3.948-2.288a2.479,2.479,0,0,0-2.466,0l-5.045,2.9A2.275,2.275,0,0,0,38.3,70.4v14.33a2.69,2.69,0,0,0,2.745,2.632h9.337a2.69,2.69,0,0,0,2.744-2.632V70.4A2.275,2.275,0,0,0,51.977,68.434Zm-7.385,2.948a1.484,1.484,0,0,1,0-2.161,1.643,1.643,0,0,1,2.08-.144,1.5,1.5,0,0,1,.124.1l.049.045a1.484,1.484,0,0,1,0,2.161c-.031.029-.063.058-.1.084-.014.012-.029.024-.044.035a1.586,1.586,0,0,1-.149.1l-.052.029c-.017.011-.035.02-.052.028A1.644,1.644,0,0,1,44.592,71.382Z" transform="translate(-38.305 -61.955)" fill="url(#linear-gradient-3)"/>
  <path id="Контур_279" data-name="Контур 279" d="M94.387,277.344v-.18l-9.206-8.828a2.27,2.27,0,0,0-1.419-.411q-1.94,0-1.94,1.715V271.7a1.579,1.579,0,0,0,.57,1.352l7.217,6.922h2.033A2.69,2.69,0,0,0,94.387,277.344Z" transform="translate(-79.561 -254.567)" fill="url(#linear-gradient-4)"/>
  <path id="Контур_280" data-name="Контур 280" d="M125.944,257.172a.66.66,0,0,0-.425-.153.434.434,0,0,0-.435.251l-5.315,10.242a.4.4,0,0,0-.058.209.492.492,0,0,0,.161.355l1.6,1.539h6.086a2.69,2.69,0,0,0,2.744-2.632v-5.6Z" transform="translate(-115.481 -244.205)" fill="url(#linear-gradient-5)"/>
  <path id="Контур_281" data-name="Контур 281" d="M208.478,362.554a2.27,2.27,0,0,0-1.419-.411q-1.94,0-1.94,1.714v2.063a1.578,1.578,0,0,0,.57,1.352l2.32,2.225h.522a2.69,2.69,0,0,0,2.744-2.632v-1.628Z" transform="translate(-196.449 -344.088)" fill="url(#linear-gradient-6)"/>
  <path id="Контур_282" data-name="Контур 282" d="M81.823,261.34v-2.063q0-1.714,1.94-1.715a2.27,2.27,0,0,1,1.419.411,1.54,1.54,0,0,1,.536,1.3v2.063a1.539,1.539,0,0,1-.536,1.3,2.269,2.269,0,0,1-1.419.411Q81.823,263.054,81.823,261.34Zm1.032-.023q0,.8.908.8t.923-.8V259.3q0-.8-.923-.8t-.908.8S82.855,261.317,82.855,261.317Zm.938,6.4a.4.4,0,0,1,.058-.209l5.315-10.242a.434.434,0,0,1,.435-.251.66.66,0,0,1,.425.153.467.467,0,0,1,.19.376.612.612,0,0,1-.043.223l-5.316,10.2a.5.5,0,0,1-.492.265.558.558,0,0,1-.41-.16A.492.492,0,0,1,83.792,267.721Zm4.439-1.654v-2.079q0-1.728,1.94-1.728a2.257,2.257,0,0,1,1.419.414,1.556,1.556,0,0,1,.536,1.313v2.079a1.556,1.556,0,0,1-.536,1.313,2.257,2.257,0,0,1-1.419.414Q88.231,267.794,88.231,266.066Zm1.032-.019q0,.813.908.813t.923-.813v-2.04q0-.813-.923-.813t-.908.813v2.04Z" transform="translate(-79.561 -244.205)" fill="url(#linear-gradient-7)"/>
  <path id="Контур_283" data-name="Контур 283" d="M169.311,70.4v4.873l-6.156-5.905a1.579,1.579,0,0,0-.129-.143l-.049-.045a.421.421,0,0,0-.034-.028c-.029-.025-.06-.049-.09-.07a1.643,1.643,0,0,0-2,.071v-3.7a2.483,2.483,0,0,1,2.087-.021,2.326,2.326,0,0,1,.216.111l3.948,2.288,1.051.61A2.275,2.275,0,0,1,169.311,70.4Z" transform="translate(-154.485 -61.955)" fill="url(#linear-gradient-8)"/>
  <path id="Контур_284" data-name="Контур 284" d="M161.9,9.013a1.023,1.023,0,0,1-1.044-1V1a1.045,1.045,0,0,1,2.087,0v7.01A1.023,1.023,0,0,1,161.9,9.013Z" transform="translate(-154.485)" fill="url(#linear-gradient-9)"/>
</svg>
