<svg id="icon-pre-window" xmlns="http://www.w3.org/2000/svg" width="45.51" height="52.471" viewBox="0 0 45.51 52.471">
  <path id="Контур_1186" data-name="Контур 1186" d="M580.385,52.8h-3.5a.874.874,0,0,1-.875-.874V1.2a.874.874,0,0,1,.875-.874h3.5a.874.874,0,0,1,.874.874V51.924A.874.874,0,0,1,580.385,52.8Zm-2.624-1.749h1.749V2.077h-1.749Zm0,0" transform="translate(-535.749 -0.328)" fill="#fff"/>
  <path id="Контур_1187" data-name="Контур 1187" d="M322.339,52.8a.89.89,0,0,1-.286-.048l-22.737-7.871a.874.874,0,0,1-.588-.826V9.071a.874.874,0,0,1,.588-.826L322.053.374a.875.875,0,0,1,1.161.826V51.923a.875.875,0,0,1-.874.874Zm-21.863-9.368L321.464,50.7V2.425L300.476,9.694Zm0,0" transform="translate(-281.202 -0.326)" fill="#fff"/>
  <path id="Контур_1188" data-name="Контур 1188" d="M358,103.555a.869.869,0,0,1-.282-.047l-15.741-5.352a.876.876,0,0,1-.593-.828V67.266a.875.875,0,0,1,.593-.827l15.741-5.352a.875.875,0,0,1,1.156.827v40.768a.874.874,0,0,1-.875.874ZM343.132,96.7l13.992,4.757V63.135l-13.992,4.756Zm0,0" transform="translate(-320.36 -56.062)" fill="#fff"/>
  <path id="Контур_1189" data-name="Контур 1189" d="M459.57,305.064a.866.866,0,0,1-.325-.062.874.874,0,0,1-.488-1.137l1.749-4.373a.875.875,0,0,1,.813-.55h1.749a.875.875,0,0,1,0,1.749h-1.157l-1.529,3.823A.874.874,0,0,1,459.57,305.064Zm0,0" transform="translate(-428.053 -274.455)" fill="#fff"/>
  <path id="Контур_1190" data-name="Контур 1190" d="M117.934,12.606a.512.512,0,0,1-.512-.512V.839a.512.512,0,0,1,1.023,0V12.094A.512.512,0,0,1,117.934,12.606Zm0,0" transform="translate(-111.79 22.815)" fill="#fff"/>
  <path id="Контур_1191" data-name="Контур 1191" d="M87.6,13.677a.512.512,0,0,1-.362-.15l-1.535-1.535a.512.512,0,0,1,.723-.723L87.6,12.442l1.173-1.173a.512.512,0,0,1,.723.723l-1.535,1.535a.511.511,0,0,1-.362.15Zm0,0" transform="translate(-81.459 12.535)" fill="#fff"/>
  <path id="Контур_1192" data-name="Контур 1192" d="M89.138,194.856a.511.511,0,0,1-.362-.15L87.6,193.533l-1.173,1.173a.512.512,0,0,1-.723-.723l1.535-1.535a.512.512,0,0,1,.723,0l1.535,1.535a.512.512,0,0,1-.362.873Zm0,0" transform="translate(-81.459 -159.948)" fill="#fff"/>
  <path id="Контур_1193" data-name="Контур 1193" d="M18.222,65.632a.511.511,0,0,1-.24-.06L7.417,59.945a.512.512,0,1,1,.481-.9l10.565,5.627a.512.512,0,0,1-.241.963Zm0,0" transform="translate(-6.803 -33.025)" fill="#fff"/>
  <path id="Контур_1194" data-name="Контур 1194" d="M.518,40.068A.512.512,0,0,1,.39,39.06l1.677-.431-.444-1.593a.512.512,0,1,1,.985-.275l.585,2.1a.512.512,0,0,1-.365.633l-2.183.563a.513.513,0,0,1-.127.015Zm0,0" transform="translate(-0.001 -11.503)" fill="#fff"/>
  <path id="Контур_1195" data-name="Контур 1195" d="M190.341,146.924a.512.512,0,0,1-.492-.374l-.585-2.1a.511.511,0,0,1,.365-.633l2.183-.563a.512.512,0,0,1,.256.991l-1.676.431.444,1.593a.512.512,0,0,1-.493.649Zm0,0" transform="translate(-180.168 -113.243)" fill="#fff"/>
  <path id="Контур_1196" data-name="Контур 1196" d="M7.653,65.632a.512.512,0,0,1-.241-.963l10.565-5.627a.512.512,0,0,1,.48.9L7.892,65.573a.509.509,0,0,1-.239.06Zm0,0" transform="translate(-6.798 -33.026)" fill="#fff"/>
  <path id="Контур_1197" data-name="Контур 1197" d="M2.228,146.942a.5.5,0,0,1-.138-.019.511.511,0,0,1-.355-.63L2.18,144.7.5,144.267a.512.512,0,0,1,.256-.991l2.183.563a.512.512,0,0,1,.365.633l-.585,2.1a.512.512,0,0,1-.493.373Zm0,0" transform="translate(-0.113 -113.261)" fill="#fff"/>
  <path id="Контур_1198" data-name="Контур 1198" d="M190.14,40.113a.516.516,0,0,1-.123-.015l-2.272-.563a.511.511,0,0,1-.368-.639l.609-2.1a.511.511,0,1,1,.982.286l-.46,1.586,1.756.434a.512.512,0,0,1-.122,1.009Zm0,0" transform="translate(-178.368 -11.547)" fill="#fff"/>
  <path id="Контур_1199" data-name="Контур 1199" d="M192.955,223.9a.875.875,0,0,1-.618-1.493l16.872-16.872-11.625-11.625a.875.875,0,0,1,1.237-1.236l12.243,12.243a.875.875,0,0,1,0,1.237l-17.49,17.49a.875.875,0,0,1-.619.256Zm0,0" transform="translate(-183.3 -176.674)" fill="#fff"/>
  <path id="Контур_1200" data-name="Контур 1200" d="M199.949,478.327h-7a.874.874,0,0,1-.874-.875v-7a.874.874,0,0,1,1.749,0v6.122h6.122a.874.874,0,0,1,0,1.749Zm0,0" transform="translate(-183.298 -431.103)" fill="#fff"/>
</svg>
