<?xml version="1.0" encoding="UTF-8" standalone="no"?>
<svg
   xmlns:dc="http://purl.org/dc/elements/1.1/"
   xmlns:cc="http://creativecommons.org/ns#"
   xmlns:rdf="http://www.w3.org/1999/02/22-rdf-syntax-ns#"
   xmlns:svg="http://www.w3.org/2000/svg"
   xmlns="http://www.w3.org/2000/svg"
   xmlns:sodipodi="http://sodipodi.sourceforge.net/DTD/sodipodi-0.dtd"
   xmlns:inkscape="http://www.inkscape.org/namespaces/inkscape"
   inkscape:version="1.0 (4035a4fb49, 2020-05-01)"
   sodipodi:docname="icon-logo-alfabank.svg"
   version="1.1"
   viewBox="0 0 1656 1676"
   id="Слой_1">
  <metadata
     id="metadata717">
    <rdf:RDF>
      <cc:Work
         rdf:about="">
        <dc:format>image/svg+xml</dc:format>
        <dc:type
           rdf:resource="http://purl.org/dc/dcmitype/StillImage" />
        <dc:title>55Монтажная область 2</dc:title>
      </cc:Work>
    </rdf:RDF>
  </metadata>
  <sodipodi:namedview
     inkscape:current-layer="Слой_1"
     inkscape:window-maximized="1"
     inkscape:window-y="-8"
     inkscape:window-x="-8"
     inkscape:cy="761.78491"
     inkscape:cx="81.5863"
     inkscape:zoom="0.32696897"
     inkscape:bbox-nodes="false"
     inkscape:bbox-paths="true"
     inkscape:snap-others="false"
     inkscape:snap-nodes="false"
     inkscape:snap-global="true"
     inkscape:snap-bbox="true"
     showgrid="false"
     id="namedview715"
     inkscape:window-height="715"
     inkscape:window-width="1366"
     inkscape:pageshadow="2"
     inkscape:pageopacity="0"
     guidetolerance="10"
     gridtolerance="10"
     objecttolerance="10"
     borderopacity="1"
     bordercolor="#666666"
     pagecolor="#ffffff" />
  <defs
     id="defs652">
    <style
       id="style650">.cls-1{fill:#ee3326;stroke:#ee3326;stroke-miterlimit:10;stroke-width:2px;}</style>
  </defs>
  <title
     id="title654">55Монтажная область 2</title>
  <path
     id="path656"
     d="M809.84,1011h236c14.35,0,14.35,0,14.35,14.6,0,26.15-.38,52.17.25,78.32.26,9.39-2.66,12.06-12.06,12.06q-174.79-.37-349.6-.25c-43,0-86.19-.26-129.23.25-9.27.13-12.31-2.41-12.19-12.06.64-26.4.13-52.94.26-79.34,0-13.58.13-13.58,13.45-13.58Z"
     class="cls-1"
     shape-rendering="auto" />
  <path
     id="path658"
     d="M143.28,1261l.2-.7c5.1.4,8.3-2.4,8-7.1-.8-14.2,6.5-25.8,11.5-38.2,1.1-2.7,2.8-4,5.9-3.9,4.4.2,8.9-.8,13.1.2,5.7,1.4,13.6-.6,16.5,5.8a188.23,188.23,0,0,1,9.3,25.7c5.3,18.4,11.4,36.5,17.3,54.7,7.6,23.6,14.9,47.2,23.2,70.5,3.6,10,5.3,20.3,7.2,31.3h-25.4c-1.9,0-3.4-.4-4.2-2.5-3.7-9.3-7.8-18.5-9.2-28.4-1-6.8-3.8-9.3-10.4-9.3-19,.1-38,.2-57.1-.1-4,0-6.7,1.5-9.5,4-5.5,4.9-4.3,12.2-6.1,18.2-5.3,17.9-4.6,18.1-23.3,18a7.52,7.52,0,0,0-1.5,0c-4.9.6-6.5-1.4-6.9-6.4-.6-7.6,4.5-12.7,6.4-19.1,3.3-11.4,8.9-22.1,11.3-33.8,1.3-6.5,5.8-11.9,6.9-18.2,2.2-11.9,7.9-22.5,11.3-34C140.58,1279.2,145.78,1270.8,143.28,1261Zm34.5,76.6h15.4c9.3,0,10.6-2,11.2-11.4.3-5-3.7-8.2-3.5-13.1.5-11.4-6.5-21.3-7.1-32.9-.5-11.3-9.5-20.9-8.4-33.1.5-4.8-2.4-7.9-7.2-8-5.2-.1-7.9,2.9-8,8.2,0,2.5.3,4.9-1.6,7.3a22.18,22.18,0,0,0-4.6,16.5,15.74,15.74,0,0,1-2.3,9.3c-3.1,6.2-7.1,12.7-6.6,19.7.6,8.2-3.6,15.2-4,23.1-.2,3.4-3.6,6.3.4,9.9,3.2,2.9,6.1,5,10.7,4.6C167.48,1337.3,172.68,1337.6,177.78,1337.6Z"
     class="cls-1"
     shape-rendering="auto"/>
  <path
     id="path660"
     d="M809.07,754.32c-29.32,0-58.77.51-88.09-.26-9.53-.25-14.22,3.18-17.14,11.68-8.76,26.53-18.28,52.68-26.91,79.22-6.1,19.16-6.73,19.8-25,12.31-22.85-9.52-45.57-19.3-68.55-28.44-7.62-3-8.63-6.6-6-14.09C601.52,749,625.13,683,649,617.22S697.11,485.71,721.1,420c7.11-19.55,12.06-40.24,24.5-57.38,18-24.88,43.67-35.42,73.5-31.23,30.09,4.19,52.18,21,63,50.4,27.8,75.4,55.85,150.81,83.27,226.47,22.09,60.67,43.54,121.48,65.25,182.16,3.3,9.14,6.86,18.28,10.28,27.42,1.65,4.57.89,8.12-4.19,10.16-26.53,10.66-53.06,21.32-79.46,32.49-7.24,3-10.67,2.54-13.46-6-9.52-29.71-20.18-59-30.21-88.61-2.79-8.25-6.6-12.44-16.76-12.19-28.94,1.15-58.39.51-87.72.64ZM734.94,404.46c2.16,8.51-4.57,10.66-6,15.49a358.21,358.21,0,0,1-14.22,39.1c-5.07,12.06-8.63,24.5-12.94,36.68-4.95,14.22-10,28.44-15,42.78-3.18,9-12.57,15-12.32,25.65.26,8.88-3,16.88-7,24.5-7.23,13.45-9.27,28.56-15.61,42.52-7,15.24-10.16,32.5-17,48.11-1.15,2.54-3.3,4.57-3.56,7.75-1.14,12.44-6.34,23.74-10.91,35.16-4.07,10-8.38,19.93-12.44,30-7.49,19.17-10.41,40.11-21.2,57.89-4.19,6.85-.39,9,3.8,12.44,15,12.56,35.55,12.82,51.8,23.1,4.31,2.79,11.68,2,17.26,4.57,2.29,1,6.09.89,7-3.17,2.41-10.67,11.68-19.42,8.25-31.61a4.49,4.49,0,0,1,1.27-3.43c12.7-13,13.08-30.72,17.9-46.59,3.68-11.93,11.05-20.69,20.82-20.69H901c10,0,16.63,6.48,20.44,15.23,8.25,18.92,9.14,40.75,22.85,57.51.89,1,.51,3.17.51,4.82.12,2.92-.13,5.84.12,8.76.89,18,5.21,20.06,22.73,16.25,7.36-1.52,10.91-8.63,17.77-8.51,7.36.13,12.69-3.93,18.79-6.34,7.74-3,14.09-8.89,22.85-9.78,5.58-.63,4.69-4.06,2.53-7.74-4.44-7.36,1.15-18.92-9.77-23.74-.13,0-.13-.63-.13-.89-.63-20.94-11.8-38.59-17.9-57.88-3.55-11.18-9.26-21.71-12.56-32.63-5.72-18.79-15.49-35.92-19.68-55.35-3.68-16.88-11.3-32.88-17.39-49.12-3.94-10.54-3.56-23.87-10.41-31.36-9.65-10.41-3.17-26.78-16-34.65-.5-.26-.25-1.91-.25-2.8a19.29,19.29,0,0,0-3.05-10.92c-7.87-12.94-10.15-28.3-15.61-42.39-6.85-17.4-14.85-34.91-18.41-53.7C886,407.13,876.23,396.72,878.26,383c.51-3.18-1.91-5.34-3.3-7.87-4.57-8.76-12.57-14.35-20.19-19.68-5.71-3.94-11.17-8.38-17.9-11.17-13.83-5.71-27.8-6.35-42-3.43-7.37,1.52-14.22,4.44-21.08,7.87-11.8,5.71-16.63,19-28.56,24-1.78.77-1.9,2.54-1.27,4.19,1,2.92-1.14,5.08-1.52,7.11C740.4,392,736.59,399.13,734.94,404.46Z"
     class="cls-1"
     shape-rendering="auto"/>
  <path
     id="path662"
     d="M679.88,1235.2v21.6c0,4.9,2.4,7.1,7.4,6.1,7.4-1.6,14.9-.9,22.3-1.1,22.8-.8,38.9,9.4,46.2,30.8,10.8,31.9,10.3,63.8-5.1,94.2-9.2,18.3-29.7,26.4-49.7,21.8-4.5-1-9.1-1.7-13.5-3.1-5.7-1.7-7.6.6-7.6,5.9.1,8.5,0,17,0,25.5,0,15.4,0,15.4-15.7,15.3-4.9,0-9.8-.1-14.7,0s-7.5-2-7.3-7.4c.3-10.5.2-21.1.1-31.6-.1-8.6-1.4-9.4-9.6-7.1-15.4,4.3-30.7,6.2-45.2-3.5-12.5-8.3-18-21.1-20.8-34.7a160.78,160.78,0,0,1-.3-65.9c2.1-10.1,5.9-19.6,12.9-27.6,6.8-7.8,15.8-11.5,25.7-12.3,9.7-.8,19.6-1.1,29.2.5,6.1,1.1,8.1-1.2,8.1-6.7V1222c0-15.6,0-15.6,15.2-15.6,4.6,0,9.3.2,13.9-.1,6.3-.3,8.8,2.6,8.6,8.8-.4,6.7-.1,13.4-.1,20.1Zm-3.4,4.8h0c0-6.7-.2-13.4.1-20.1.1-3.5-1.1-7-3.9-7.7-7.4-1.8-15.1-2.5-22.4.6-3.4,1.4-4.7,3.8-4.6,7.8.3,12.3.1,24.7.1,37,0,11.3-6.4,15.9-17,11.6s-21-4.2-30.7,1.1c-7.1,3.8-16,5.4-19.3,14.7-5.2,14.7-11.2,28.9-10.6,45.2.6,14.5.4,29.1,7,42.1,2.9,5.7.3,12.8,6.3,17.4,5.6,4.3,9.7,9.7,17.5,11.4,9.7,2,19.1,3.1,28.3-.3,4.9-1.9,10.3.4,14.9-3,1.2-.9,7.8,11.9,6.2,14.5-4.9,8.2-2,17-2.6,25.5-.4,5.3,2.7,8.1,8,8.1,5.1.1,10.3-.3,15.4.1,5.9.5,7.5-1.9,7.3-7.5-.4-10.8-.2-21.6,0-32.4.1-6.3,4.6-10.6,8.6-8.4,9.6,5.3,19.8,4.8,30.2,5.2,15.6.6,24.2-10.2,31.7-20.5,8-11,9.2-25.2,9.7-38.8.3-8.2.2-16.5,0-24.7-.3-14.7-6.4-27.2-15.3-38.6-2.5-3.1-7.3-3.1-8.5-5.7-3.6-7.8-10.6-7.3-16.9-7.6-10.8-.5-21.6-.3-32.4.1-5.2.2-7.6-1.3-7.3-6.8C676.78,1253.4,676.48,1246.7,676.48,1240Z"
     class="cls-1"
     shape-rendering="auto"/>
  <path
     id="path664"
     d="M403.48,1340c0,18.5-.2,37,.1,55.6.1,7.1-2.5,9.8-9.5,9.4a168.49,168.49,0,0,0-20.1,0c-6.3.3-8.6-2-8.6-8.5.2-29.3.1-58.6.1-88,0-12.6-1.3-13.9-14-14.8a17.7,17.7,0,0,0-2.3-.1c-18.7-.7-20.5,1.2-20.6,19.9-.1,21.3,1.3,42.6-4.2,63.6-4.5,17.4-16,28.9-33.6,31.5-4.9.7-8.6-.3-10.4-5.4a31.22,31.22,0,0,0-1.8-4.2c-4.6-8.2-6.5-15.1,2.8-22.5,6.4-5,8.2-14,9.3-22.2,3-22.5,1.1-45.2,1.5-67.8.3-13.7,4.3-18.8,17.8-21.5,25-5,50.2-5.6,75,.2,15.8,3.7,18.7,6,18.6,22.3-.2,17.6-.1,35.1-.1,52.5Zm-4.7-3.5c0-16.5-.3-32.9.1-49.4.2-7.4-3.4-11.5-9.3-14.2-9.8-4.6-20.6-5.3-31.1-5.9-15.2-1-30.4-.5-45.5,2.6-8,1.6-16.1,8.6-16.1,17.1,0,18.8-.2,37.5,0,56.3.2,15.3-3.1,29.2-13.6,40.9-4.8,5.4-1.1,11,1.4,16.2,2,4.2,6.2,3.1,8.8,2.2,12.5-4.1,28-16.6,28.1-32.6q.15-32.4.1-64.8c0-8.4,8-16.4,16.4-16.5,5.7-.1,11.4-.6,17,.1,11.1,1.3,16.4,5.7,16.1,15.6-.9,27.2-.2,54.5-.3,81.7,0,5.3,1.1,11,5.7,13.1,12.4,5.9,22.2-1,22.2-14.7Z"
     class="cls-1"
     shape-rendering="auto"/>
  <path
     id="path666"
     d="M1036.08,1307v-83.3c0-10.6,2.7-13.9,13.4-14.7,11-.8,22.1-1.1,33.1-1.2,20.3-.2,40.6.1,61-.1,6.4,0,9.7,2.1,9.2,9a128.9,128.9,0,0,0,0,13.9c.3,7-3.1,9.7-9.8,9.6-18.8-.2-37.5-.1-56.3-.1-9.6,0-10,.5-10,10v20.8c0,11.4.7,11.9,12.5,12.1,10.5.2,20.9.2,31.4,1.9,25.4,4,40.7,23.4,43.2,44.6,1.6,13.1,1.2,26.2-2.9,38.9-7.8,24.4-26.7,34.9-50.3,37.8-22.6,2.8-45.1.5-67.4-4.3-6.3-1.4-7.1-5.6-7.1-10.9q.15-42,0-84Zm4.7-.3c0,26.5.1,53-.1,79.4,0,4.5.8,8.2,5.2,10,9.8,4,20.6,4.8,30.8,5.9,18.8,2.1,37.8,1.4,55.2-8.3,2.3-1.3,6.2.9,7.3-2.8,1.3-4.6,5.4-6.7,8.1-10,6.2-7.7,12.4-15.2,10.9-26.3-1.9-14.3,3.3-29.1-6.3-42.8-4.8-6.9-10.6-13.2-17.1-16.2-9.5-4.3-20.2-7.5-31.2-7.4-7.7.1-15.4-.1-23.1,0-5.8.1-8.5-3.8-8.7-8.5-.5-11.8-.3-23.6-.1-35.5.1-5.6,9.3-13.2,13.8-10.7,7.7,4.2,15.6,2.2,23.3,2,10.5-.2,21.1,2.4,31.7-2.2,5.4-2.3,8.7-5.3,7.8-10.1s-2.7-10.7-10.4-9.2a8.47,8.47,0,0,1-5.2-.8c-7-4.1-15-3.1-21.7-1.4-10.7,2.7-20.6,3.7-31.1-.3-2.5-.9-6.2-1.1-8.3.1-5.3,3.1-10.9,2.4-16.4,2.5-12.2.1-14.5,2.4-14.5,14.6C1040.78,1254.8,1040.78,1280.7,1040.78,1306.7Z"
     class="cls-1"
     shape-rendering="auto"/>
  <path
     id="path668"
     d="M1291,1334.2c0,5.9.4,11.9-.1,17.7-1.2,13.1,1.5,25.1,10.1,35.2,3.9,4.5,1.4,7.1-2.2,9.1-5.5,3.2-11.4,6-17.1,8.9-3.3,1.7-6.4,1.6-9-1.5-.7-.8-1.5-1.4-2.2-2.2-9-9.6-9-9.6-20.1-2.2-21.3,14-50.4,9.3-63-11.9-13.5-22.6-6.2-59.7,24.1-68.2a134,134,0,0,1,32.6-4.9c3.5-.1,7.8.8,9.5-3.3s-.5-8.1-3-11.3c-5.3-6.7-12.9-8.7-21.1-9.3-9.2-.7-17.7,2.6-26.5,4.1-6.1,1.1-8-.9-8-6.4a142,142,0,0,0-.1-14.6c-.5-6,1.9-9.4,7.7-10.3,19.6-3.3,39.4-5.3,58.6,1.5,18.1,6.4,29,18.9,29.4,39,.2,10.3,0,20.6,0,30.8C1290.78,1334.2,1290.88,1334.2,1291,1334.2Zm-6.3-.9c0-10.8-.2-21.6.1-32.4.3-9.3-4.7-16.6-10.8-21.9-9.3-8.2-21-12.3-33.7-12.3-11.9,0-23.8-.6-35.5,3.1-6,1.9-2.9,6.3-3.5,9.5s-.1,6.2,4.5,6.1c9.5-.1,19,.1,28.5-.1,18.4-.4,24.3,12.1,22.7,26.8-.2,2.3-1,4.1-3.6,4-5.7-.3-11.3,3.2-16.1,2.6-12.8-1.4-22.4,5.3-32.9,9.8-5.5,2.3-9.2,6.9-12.4,12-5.6,9-2.9,18.9-3.1,28.5-.3,19,11.3,30.5,30.3,30.6,4.4,0,8.8.5,13.1-.1,7.4-1.1,15.1-3,20.8-7.8,6.4-5.5,9.7-6.8,15.2-.6,5.2,5.9,9.9,9.4,18.4,5.7,6.7-2.9,9.6-6.8,5-13.1-6.2-8.6-7.9-17.7-7.1-28C1285.18,1348.2,1284.68,1340.7,1284.68,1333.3Z"
     class="cls-1"
     shape-rendering="auto"
  />
  <path
     id="path670"
     d="M888.28,1335.7c0,6.2.3,12.4-.1,18.5-.7,11.7.9,22.5,9.2,31.6,4.2,4.6,2.9,8.2-2.4,10.9-3.9,1.9-8.1,3.5-11.5,6.1-7.8,5.9-12.6,2.6-17.7-4-6.2-8.1-6.5-7.8-15.1-1.7-18.6,13.4-43.5,13.2-59.1-.8-14.1-12.7-15.1-29.5-11.6-46.3,3.2-15.6,13.5-26,29.2-30.7a116.62,116.62,0,0,1,32.6-5c3.4,0,7.1-.1,8.7-3.7s.2-7-2.1-10.1c-8.3-11-20.1-11.1-32.1-9.6a153.13,153.13,0,0,0-17.4,3.5c-5,1.2-6.6-1-6.7-5.4-.1-4.1-.1-8.2-.1-12.3,0-12.1,0-12.6,11.8-14.3,17.9-2.6,35.7-3.7,53.4,1.9,18.9,5.9,29.8,21.2,30.7,41.5.6,9.8.3,19.9.3,29.9ZM830,1266.6c-10.7.6-21.5-1.9-31.1,5.4-5,3.8-4.5,8.5-2.4,11.9,1.5,2.4,5,10.3,10.6,2.5.7-.9,2.8-1,4.3-1,6.9-.1,14-.8,20.8.1,8.6,1.2,17.3,3.6,21.9,12.3,3.3,6.2,1.6,13,1,19.5-.2,1.7-2.3,1.7-3.8,1.8a197.25,197.25,0,0,0-28.6,2.5,62.15,62.15,0,0,0-21.7,8.1c-5.2,3.1-10.9,7.6-12.9,13.8-3.8,11.3-5.4,22.6-.7,34.6,4.1,10.7,16,21.2,27.4,21.5,12.1.3,24.1,1.1,33.5-8.8,1.2-1.2,3.6-2,5.3-2.6,4.5-1.5,10.2-3,13.7.8,9.5,10.4,10,10.8,21.5,4.8,2.5-1.3,3.1-1.2,2-4.6a139.46,139.46,0,0,1-7.4-30.1c-1.1-9.2,3.2-17.3,3.2-26.3.1-7-3.1-13.5-2.8-20.1.4-10.6-1.4-20.3-7.8-28.7-4.6-6.1-11-10.6-17.7-14.1C849.18,1265.2,839.28,1266.9,830,1266.6Z"
     class="cls-1"
     shape-rendering="auto"/>
  <path
     id="path672"
     d="M1437.38,1332.6c0,19.8-.2,39.6.1,59.4.1,6.8-2,10.1-9.3,9.6a155.35,155.35,0,0,0-19.3,0c-6.9.4-8.9-2.7-8.7-9.1.4-12.8-.1-25.7.2-38.5.1-5.8-1.7-8.5-7.9-8.2-9.5.4-19,.3-28.5,0-5.5-.2-7.1,2.2-7,7.3.2,12.8-.2,25.7.1,38.5.2,7-2,10.6-9.7,10.1-6.6-.5-13.4-.2-20-.1-4.9.1-7.5-1.5-7.5-7.1q.3-60.9,0-121.8c0-6.4,3.2-9,8.8-9.2,6.7-.3,13.4.1,20-.2,5.9-.2,8.4,2.4,8.3,8.3-.2,11.3.3,22.6-.2,33.9-.3,6.5,2.4,7.9,8.1,7.7,9.2-.3,18.5-.4,27.7,0,5.6.2,7.8-1.5,7.6-7.4-.4-10.8,0-21.6-.1-32.4-.1-7,2.6-10.6,10-10.2,6.1.3,12.3.1,18.5-.1s8.8,2.1,8.7,8.6C1437.18,1292,1437.38,1312.3,1437.38,1332.6Zm-4.5-1c0-18.5-.1-37,.1-55.5,0-4.5-1.1-6.7-6-6.4a145.91,145.91,0,0,1-16.2,0c-4.4-.2-5.9,1.6-5.8,5.9.2,10,.1,20,0,30.1-.1,8.5-5.4,14.6-13.7,13.2-10.8-1.8-21.5-2.4-32.4-3.2-4.7-.3-8.9-4.8-9.2-10.7-.3-4.6,2.9-10.5,2-12.8-2.6-6.4-1.3-12.6-2.1-18.7-.4-3.3-7.4-7.1-10.4-5.6-1.3.7-2.4,1.8-4.1,1.8-8.4-.4-10.3,4.8-10.3,11.8v104.8c0,8.9,1.8,10.1,13,10.2,9.6,0,11.7-1.6,11.8-9.9.1-9.5-.1-19,0-28.5.1-12.7,4.6-17.1,16.8-17.2h25.4c10.4,0,13.1,2.8,13.2,13.6,0,10.5.3,21.1-.1,31.6-.3,7.5,4.1,9.7,10.2,10.3,2.5.2,5.1-.1,7.7.1,7.2.4,10.2-2.9,10.1-10.1C1432.78,1368.1,1432.88,1349.9,1432.88,1331.6Z"
     class="cls-1"
     shape-rendering="auto"/>
  <path
     id="path674"
     d="M430.58,1332.8v-60.1c0-9.3,1.2-10.6,10.7-10.7,5.9-.1,11.8.1,17.7-.1,6.8-.1,9.8,2.8,9.6,9.8-.3,9.8.1,19.5-.1,29.3-.1,5.3,1.9,7.5,7.2,7.2,10-.5,20,.5,29.9,1.8,16.7,2.1,29.5,10.2,34.9,26.1,6.1,18,6.5,36.7-4.6,53.3-9,13.5-23.6,17.3-38.9,18.2-19.3,1.1-38.5-1-57.6-3.3-6.4-.8-9-3.7-8.9-10.5C430.88,1373.4,430.58,1353.1,430.58,1332.8Zm5.2.1v54c0,9.2,3.2,12.4,12.6,12.7,4.4.1,9.3-1.1,13,.5,11.7,5.1,23.9,2.8,35.5,1.8,5.8-.5,12.8-.6,18.3-3.4,15.6-7.8,23.1-20.7,22.7-38.4a98.37,98.37,0,0,0-2.8-21.6c-1.2-4.9-2.7-9-6.6-11.4-8.6-5.3-16.1-13.9-28.1-11.2a5.32,5.32,0,0,1-3-.5c-7.5-3.7-15-3.9-22.5-.1a3.92,3.92,0,0,1-5.4-1.3c-5.5-7.5-11.3-15.7-8.2-24.9,2-6,1.1-10.3-.5-15.6-2.6-8.7-9.3-7.3-15-6.4-4.7.7-10.4,1.8-10.2,9.5C436,1295.3,435.78,1314.1,435.78,1332.9Z"
     class="cls-1"
     shape-rendering="auto"/>
  <path
     id="path676"
     d="M143.28,1261c2.5,9.8-2.7,18.2-5.3,27-3.3,11.4-9.1,22-11.3,34-1.1,6.2-5.6,11.6-6.9,18.2-2.3,11.7-7.9,22.4-11.3,33.8-1.9,6.4-7,11.6-6.4,19.1.4,5.1,1.9,7.1,6.9,6.4a7.52,7.52,0,0,1,1.5,0c18.7.1,18-.1,23.3-18,1.8-6,.6-13.3,6.1-18.2,2.8-2.5,5.5-4.1,9.5-4,19,.2,38,.2,57.1.1,6.5,0,9.4,2.5,10.4,9.3,1.4,9.9,5.5,19.1,9.2,28.4.9,2.1,2.4,2.5,4.2,2.5h25.4c-1.9-11-3.7-21.3-7.2-31.3-8.3-23.3-15.6-47-23.2-70.5-5.9-18.2-12-36.3-17.3-54.7a202.58,202.58,0,0,0-9.3-25.7c-2.9-6.5-10.8-4.5-16.5-5.8-4.1-1-8.7-.1-13.1-.2a5.56,5.56,0,0,0-5.9,3.9c-5,12.4-12.3,24-11.5,38.2.3,4.7-3,7.4-8,7.1,3.4-16.9,10.8-32.5,16.1-48.8,1-2.9,3.5-3.6,6.2-3.6,9.5-.1,19,0,28.5-.1,4.8-.1,6.9,3,8.2,6.8q17.55,53.7,35,107.5c7.2,21.9,14.6,43.7,22,65.6.4,1.2.8,2.4,1.2,3.7,3.8,12.1,3.1,13.1-9.8,13.1-7.5,0-14.9-.1-22.4-.1-4.1,0-6.6-1.5-7.8-5.8-2.7-9.6-6-19.1-8.6-28.7-1.2-4.5-3.4-6.3-8.1-6.2-18,.2-36,.3-54-.1-5.2-.1-6.9,2.7-8,6.5-2.5,8.6-5.1,17.2-7,25.9-1.3,6.1-4.4,8.7-10.6,8.5-7.7-.3-15.4-.1-23.1-.1-6.2.1-8.4-2.4-6.2-8.6,7.4-21.2,14.7-42.6,22-63.8q11.25-32.7,22.8-65.2C140.58,1264.6,140.88,1262.1,143.28,1261Z"
     class="cls-1"
     shape-rendering="auto"/>
  <path
     id="path678"
     d="M1527.38,1358.9c-5.4-3.7-8.1-11.2-16.7-10.7-5.7.3-8.3,1.3-8,7.7.5,11.6.1,23.1.1,34.7,0,9.8-1,10.8-10.4,10.8-6.4,0-12.9-.1-19.3,0-4.8,0-6.9-2-6.9-7q.15-61.65,0-123.4c0-5.8,2.8-7.8,8-7.8,6.9,0,13.9.1,20.8-.1,5.5-.1,8,2.2,7.9,7.8-.2,11.8.2,23.7-.1,35.5-.2,6.2,2.2,7.9,8.1,7.7,10.6-.4,15.1-3.5,18.8-13.7,3.5-9.9,6.4-20.1,15.5-26.7,10-7.3,21.4-9.5,33.5-9,.7,0,1.9.1,2.2.6,3.7,5.3,1.1,11.4,1.7,17.1.3,2.6,0,5.6-3.3,6.1-11.8,1.6-15.1,11.4-18.9,20.2-3,6.9-5.9,13.6-13.1,17.3-3.9,2-1.7,3.9,0,6a193.25,193.25,0,0,1,28.6,47c2.3,5.5,3.5,11.2,4.9,17,1.1,4.8-.9,6.6-5.6,6.6-7.2-.1-14.4-.2-21.6.1-3.2.1-5.6-.8-6.9-3.7-4.2-9.8-8.3-19.7-12.5-29.5a9,9,0,0,1,1-.9c5.8,2.7,6.2,8.8,8.6,13.8,7.2,15.2,10.2,18.8,23.6,17.3a8.85,8.85,0,0,0,7.2-11.7,171.72,171.72,0,0,0-30.7-52c-4.9-5.7-3.7-12.5,2.6-16.1,5.2-3,8-8.1,10-13.3,3.6-9.5,9.1-17.6,17.3-23.2,3.3-2.3,5.2-3.9,4.2-7.5-1-3.8-3.9-5.2-8-5.9-12.2-2.2-33.4,15.6-34.8,28.4-1.2,11.8-7.8,17.5-17.9,20.8-12.2,3.9-19.4-1.6-19.4-14.8,0-7.5-.4-14.9.1-22.4.5-7.9-.1-14-10.5-12.1-.9.2-2-.4-2.9-.8-8-3.4-14.5.9-14.6,9.6V1382c0,17.9.1,18,18.1,17.6,6.2-.1,12.5-6.4,12.5-12.7.1-10.8,0-21.6,0-32.4,0-8.4,2.4-10.7,10.9-10.3a18.8,18.8,0,0,1,17.2,13.8A3.4,3.4,0,0,0,1527.38,1358.9Z"
     class="cls-1"
     shape-rendering="auto"/>
  <path
     id="path680"
     d="M961.38,1310.3c13.6,0,24.5,11.3,24.4,25.2-.1,13.7-10.7,24.1-24.5,24.1-14.1.1-24.7-10.5-24.7-24.7A24.44,24.44,0,0,1,961.38,1310.3Z"
     class="cls-1"
     shape-rendering="auto"/>
  <path
     id="path682"
     d="M1534.08,1369.2c-4-2.3-5-6.5-6.7-10.3a15.38,15.38,0,0,1,1.3-1.2c3.8,2.5,6.5,5.7,6.4,10.6C1534.78,1368.6,1534.38,1368.9,1534.08,1369.2Z"
     class="cls-1"
     shape-rendering="auto"/>
  <path
     id="path684"
     d="M177.78,1337.6c-5.1,0-10.3-.3-15.4.1-4.6.4-7.5-1.7-10.7-4.6-4-3.7-.7-6.5-.4-9.9.5-7.9,4.6-14.9,4-23.1-.5-6.9,3.5-13.5,6.6-19.7,1.6-3.2,2.6-6.1,2.3-9.3a22.18,22.18,0,0,1,4.6-16.5c1.9-2.3,1.6-4.8,1.6-7.3.1-5.3,2.7-8.3,8-8.2,4.9.1,7.7,3.2,7.2,8-1.2,12.2,7.9,21.8,8.4,33.1.5,11.6,7.5,21.5,7.1,32.9-.2,4.9,3.8,8,3.5,13.1-.6,9.4-1.9,11.4-11.2,11.4h-15.6ZM179,1246c-2.3.1-2.5,1.2-2.7,2.1-7,25.7-14,51.5-20.8,77.2-1.1,4.1.5,6.4,5,6.3,11.1-.1,22.1-.1,33.2,0,5.3,0,6.8-2.2,5.4-7.3-2.1-7.4-3.7-14.9-5.6-22.4C188.58,1283.2,183.68,1264.5,179,1246Z"
     class="cls-1"
     shape-rendering="auto"/>
  <path
     id="path686"
     d="M734.94,404.46c1.65-5.33,5.46-12.44,7.23-20.31.51-2.16,2.54-4.32,1.53-7.11-.51-1.65-.38-3.55,1.27-4.19,12.06-5,16.75-18.28,28.56-24,7-3.3,13.84-6.35,21.07-7.87,14.22-2.79,28.18-2.16,42,3.43,6.73,2.79,12.19,7.23,17.9,11.17,7.62,5.2,15.61,10.79,20.18,19.67,1.4,2.54,3.81,4.7,3.3,7.88-2,13.71,7.87,24,10.16,36.43,3.68,18.79,11.55,36.18,18.41,53.7,5.58,14.09,7.74,29.32,15.61,42.39a19.37,19.37,0,0,1,3.05,10.92c0,1-.26,2.54.25,2.79,12.82,7.88,6.35,24.25,16,34.66,6.85,7.36,6.34,20.82,10.41,31.36,6.09,16.24,13.71,32.24,17.39,49.12,4.19,19.42,14,36.56,19.67,55.35,3.3,10.79,9,21.45,12.57,32.62,6.09,19.3,17.26,36.95,17.9,57.89,0,.38,0,.89.13.89,10.91,4.7,5.45,16.25,9.77,23.74,2.16,3.68,3,7.23-2.54,7.74-8.63.89-15.1,6.73-22.85,9.78-6.22,2.41-11.55,6.47-18.79,6.34-6.85-.12-10.41,7-17.77,8.51-17.64,3.68-21.83,1.78-22.72-16.25-.13-2.92,0-5.84-.13-8.76,0-1.65.38-3.68-.51-4.82C930.43,800.78,929.42,779,921.16,760c-3.8-8.76-10.4-15.23-20.43-15.23H714.63c-9.78,0-17.14,8.76-20.82,20.69-4.82,15.87-5.21,33.64-17.9,46.59-.76.89-1.65,2.54-1.27,3.43,3.43,12.18-5.84,21.07-8.25,31.61-.89,4.06-4.7,4.19-7,3.17-5.72-2.54-12.95-1.78-17.27-4.57-16.25-10.28-36.68-10.54-51.79-23.1-4.19-3.43-8-5.72-3.81-12.44,10.79-17.78,13.71-38.72,21.2-57.89,3.94-10,8.38-19.93,12.44-30,4.57-11.42,9.78-22.72,10.92-35.16.25-3.3,2.41-5.21,3.55-7.75,7-15.61,10-32.87,17-48.11,6.35-14,8.38-29.07,15.62-42.52,4.06-7.49,7.36-15.49,7-24.5-.25-10.67,9.14-16.63,12.31-25.65,4.95-14.21,10-28.43,15-42.78,4.32-12.31,7.87-24.75,13-36.68,5.33-12.82,10.41-25.77,14.22-39.1C730.37,415.12,737.1,413.09,734.94,404.46ZM807.42,669.9c20.82,0,41.77-.25,62.59.13,7.11.12,9.64-4.19,13.45-9,4.45-5.45-.63-6.47-2.41-9.26-.76-1.27-.51-3.3-1.14-4.7-3.94-7.74-4.44-16.63-8.38-24.12-2.41-4.57-4.44-8.63-5.46-14-2-11.05-5.46-22.6-10-31.87-5.2-10.4-6.85-21.83-9.64-32-2.42-9-7.62-17-9.4-26.53-3.3-17.77-12.31-34.4-17.14-51.92-1.9-6.6-4.57-13.07-9.9-14.09-6.22-1.14-9.39,6.6-13.07,11.3-.51.76-.38,2.16-1,2.67-6.22,6.09-2.28,14.85-6,21.83-6.1,11.81-9.14,25-12.83,37.58-5.33,18.15-14.85,34.91-18.4,53.69-1.91,10.16-6.6,19.68-9.78,29.71-4.69,14.72-10.66,28.94-14.72,43.92-2.67,9.9.63,16.76,11.42,16.76C766.42,670,786.86,669.9,807.42,669.9Z"
     class="cls-1"
     shape-rendering="auto"/>
  <path
     id="path688"
     d="M676.48,1240c0,6.7.3,13.4-.1,20.1-.3,5.6,2.1,7,7.3,6.8,10.8-.4,21.6-.6,32.4-.1,6.3.3,13.2-.3,16.9,7.6,1.2,2.7,6.1,2.6,8.5,5.7,9,11.4,15,23.9,15.3,38.6.2,8.2.3,16.5,0,24.7-.5,13.6-1.6,27.8-9.7,38.8-7.5,10.3-16.1,21.1-31.7,20.5-10.4-.4-20.7,0-30.2-5.2-4-2.2-8.5,2.1-8.6,8.4-.2,10.8-.4,21.6,0,32.4.2,5.7-1.4,8-7.3,7.5-5.1-.4-10.3,0-15.4-.1-5.3-.1-8.4-2.9-8-8.1.6-8.5-2.3-17.3,2.6-25.5,1.5-2.6-5.1-15.4-6.2-14.5-4.6,3.5-10,1.2-14.9,3-9.1,3.4-18.6,2.4-28.3.3-7.8-1.6-11.9-7.1-17.5-11.4-6-4.6-3.5-11.7-6.3-17.4-6.6-13-6.4-27.6-7-42.1-.6-16.3,5.3-30.5,10.6-45.2,3.3-9.3,12.3-10.9,19.3-14.7,9.7-5.3,20.1-5.4,30.7-1.1s17-.3,17-11.6c0-12.3.2-24.7-.1-37-.1-3.9,1.3-6.4,4.6-7.8,7.4-3,15-2.4,22.4-.6,2.8.7,4,4.2,3.9,7.7-.4,7-.2,13.7-.2,20.3Zm0,102.6c0,6.4-.1,11.1,0,15.7.4,22.4-3.4,18.2,19.5,20.1,15.4,1.3,22.9-7,29.4-17.9,1.8-3,3.9-6.2,3.8-10.6-.5-11.3.3-22.6-.3-33.9-.5-7.9-4.1-15.8-10.2-20.4a37.35,37.35,0,0,0-24.1-7.6c-17.6.5-20.1,5.7-19.1,21.1C676.18,1320.9,675.78,1332.7,676.48,1342.6Zm-30.8-7.3c0-11.6-.2-23.1.1-34.7.1-4.8-2.2-8.3-5.9-8.5-6.7-.5-12.7-3.9-19.4-3.7-8.7.2-18.6,9.6-21.3,17.8-4.5,13.9-2.7,27.9-2.8,41.9a34.44,34.44,0,0,0,7.7,22.8c9.8,11.5,23.1,6.8,35.3,6.2,5-.2,6.6-3.6,6.4-8.6C645.58,1357.4,645.78,1346.4,645.68,1335.3Z"
     class="cls-1"
     shape-rendering="auto"/>
  <path
     id="path690"
     d="M398.78,1336.5v47.8c0,13.8-9.8,20.6-22.2,14.7-4.5-2.2-5.7-7.8-5.7-13.1.1-27.3-.5-54.5.3-81.7.3-10-5-14.4-16.1-15.6-5.6-.7-11.3-.2-17-.1-8.5.1-16.4,8.1-16.4,16.5-.1,21.6,0,43.2-.1,64.8-.1,16-15.6,28.5-28.1,32.6-2.6.8-6.8,2-8.8-2.2-2.4-5.2-6.2-10.8-1.4-16.2,10.5-11.8,13.8-25.6,13.6-40.9-.2-18.8-.1-37.5,0-56.3,0-8.5,8-15.5,16.1-17.1a169.9,169.9,0,0,1,45.5-2.6c10.5.7,21.3,1.4,31.1,5.9,5.9,2.7,9.5,6.9,9.3,14.2C398.48,1303.6,398.78,1320.1,398.78,1336.5Z"
     class="cls-1"
     shape-rendering="auto"/>
  <path
     id="path692"
     d="M1040.78,1306.7v-77.9c0-12.3,2.3-14.5,14.5-14.6,5.6-.1,11.1.6,16.4-2.5,2.1-1.2,5.8-1,8.3-.1,10.4,4,20.4,3,31.1.3,6.7-1.7,14.6-2.7,21.7,1.4a8.47,8.47,0,0,0,5.2.8c7.6-1.5,9.5,4.5,10.4,9.2,1,4.9-2.4,7.8-7.8,10.1-10.6,4.6-21.2,2-31.7,2.2-7.7.2-15.6,2.2-23.3-2-4.5-2.5-13.8,5.2-13.8,10.7-.1,11.8-.4,23.7.1,35.5.2,4.6,2.9,8.5,8.7,8.5,7.7-.1,15.4.1,23.1,0,11-.1,21.7,3,31.2,7.4,6.5,3,12.3,9.3,17.1,16.2,9.6,13.7,4.4,28.6,6.3,42.8,1.5,11.2-4.7,18.6-10.9,26.3-2.7,3.3-6.8,5.4-8.1,10-1.1,3.7-5,1.5-7.3,2.8-17.4,9.7-36.5,10.4-55.2,8.3-10.2-1.2-21-1.9-30.8-5.9-4.4-1.8-5.3-5.5-5.2-10C1040.88,1359.6,1040.78,1333.2,1040.78,1306.7Zm35.4,40.7h0c0,7.7.2,15.4-.1,23.1-.2,5.2,1.4,7.7,7,7.2,4.3-.4,8.7,0,13.1-.3,22.1-1.1,32.3-13.9,28.8-35.8-2.5-15.1-9.1-21.4-24.4-22.6-5.9-.5-11.8-.3-17.7-.6-4.8-.2-7,1.3-6.7,6.5C1076.48,1332.5,1076.18,1339.9,1076.18,1347.4Z"
     class="cls-1"
     shape-rendering="auto"/>
  <path
     id="path694"
     d="M1284.68,1333.3c0,7.5.4,14.9-.1,22.3-.7,10.2.9,19.4,7.1,28,4.6,6.3,1.7,10.2-5,13.1-8.5,3.7-13.2.2-18.4-5.7-5.4-6.1-8.7-4.9-15.2.6-5.7,4.8-13.3,6.7-20.8,7.8-4.3.6-8.7.1-13.1.1-19-.1-30.6-11.6-30.3-30.6.2-9.5-2.5-19.5,3.1-28.5,3.1-5.1,6.9-9.7,12.4-12,10.5-4.5,20.1-11.2,32.9-9.8,4.8.5,10.5-2.9,16.1-2.6,2.6.1,3.4-1.7,3.6-4,1.6-14.7-4.3-27.2-22.7-26.8-9.5.2-19,0-28.5.1-4.6.1-5.1-2.9-4.5-6.1s-2.5-7.7,3.5-9.5c11.7-3.6,23.6-3,35.5-3.1,12.7,0,24.4,4.1,33.7,12.3,6.1,5.4,11.1,12.6,10.8,21.9C1284.48,1311.7,1284.68,1322.5,1284.68,1333.3Zm-28.2,9.7c.9-6.6-4-7.1-8.5-8.2-5.1-1.2-9.2,2.8-13.8,2.8-8.7,0-14.9,2.4-20,10.2-6.4,9.7-3.2,25.3,7.6,29.7,10.2,4.1,20.9,3.9,31.5,3.2,6.2-.4,9.7-7.3,7.6-12.9-1.5-3.9-2-8.5,0-11.9,3.5-6.1-.5-8.8-4.1-11.9A.66.66,0,0,1,1256.48,1343Z"
     class="cls-1"
     shape-rendering="auto"/>
  <path
     id="path696"
     d="M830,1266.6c9.4.3,19.3-1.4,28.2,3.3,6.7,3.5,13.1,8,17.7,14.1,6.4,8.4,8.2,18.1,7.8,28.7-.3,6.6,2.9,13.1,2.8,20.1-.1,9-4.3,17.1-3.2,26.3,1.2,10.4,4,20.3,7.4,30.1,1.2,3.4.5,3.3-2,4.6-11.5,6-12,5.6-21.5-4.8-3.4-3.8-9.2-2.3-13.7-.8-1.8.6-4.2,1.4-5.3,2.6-9.4,9.9-21.5,9.1-33.5,8.8-11.4-.3-23.2-10.9-27.4-21.5-4.7-12-3.1-23.3.7-34.6,2.1-6.1,7.7-10.6,12.9-13.8a62.15,62.15,0,0,1,21.7-8.1,184.13,184.13,0,0,1,28.6-2.5c1.5,0,3.7,0,3.8-1.8.6-6.5,2.2-13.3-1-19.5-4.6-8.7-13.2-11.1-21.9-12.3-6.8-.9-13.9-.2-20.8-.1-1.5,0-3.6.1-4.3,1-5.6,7.8-9.1-.2-10.6-2.5-2.1-3.4-2.6-8.1,2.4-11.9C808.48,1264.7,819.28,1267.2,830,1266.6Zm9,71.2c-3.8,0-7.7-.1-11.5,0-5.3.2-11.7,1.8-14.2,5.2-5.5,7.6-5.4,16.7-2.1,26,3.1,8.7,11.5,8,17.6,11.1,7.2,3.6,23,.3,27.2-4.2,5.2-5.6,2.3-12.2,2.5-18.4C859.18,1337.1,859,1337.4,839,1337.8Z"
     class="cls-1"
     shape-rendering="auto"/>
  <path
     id="path698"
     d="M1432.88,1331.6c0,18.2-.1,36.5.1,54.7.1,7.2-3,10.5-10.1,10.1-2.6-.1-5.2.2-7.7-.1-6.1-.6-10.5-2.7-10.2-10.3.4-10.5.1-21.1.1-31.6,0-10.9-2.8-13.6-13.2-13.6h-25.4c-12.2,0-16.6,4.5-16.8,17.2-.1,9.5.1,19,0,28.5-.1,8.2-2.1,9.9-11.8,9.9-11.3,0-13-1.3-13-10.2V1281.4c0-6.9,1.9-12.1,10.3-11.8,1.6.1,2.7-1.1,4.1-1.8,3-1.5,10,2.3,10.4,5.6.8,6.2-.5,12.3,2.1,18.7.9,2.3-2.3,8.3-2,12.8.4,5.8,4.5,10.4,9.2,10.7,10.8.7,21.6,1.4,32.4,3.2,8.3,1.4,13.7-4.7,13.7-13.2.1-10,.2-20,0-30.1-.1-4.3,1.4-6.1,5.8-5.9,5.4.2,10.8.3,16.2,0,4.9-.3,6.1,2,6,6.4C1432.78,1294.6,1432.88,1313.1,1432.88,1331.6Z"
     class="cls-1"
     shape-rendering="auto"/>
  <path
     id="path700"
     d="M435.78,1332.9c0-18.8.3-37.5-.1-56.3-.2-7.7,5.5-8.8,10.2-9.5,5.6-.9,12.4-2.3,15,6.4,1.6,5.4,2.5,9.6.5,15.6-3.1,9.2,2.7,17.5,8.2,24.9a3.92,3.92,0,0,0,5.4,1.3,24.19,24.19,0,0,1,22.5.1,5.32,5.32,0,0,0,3,.5c11.9-2.7,19.4,5.9,28.1,11.2,3.9,2.4,5.4,6.5,6.6,11.4a99.16,99.16,0,0,1,2.8,21.6c.5,17.6-7.1,30.6-22.7,38.4-5.5,2.8-12.5,2.9-18.3,3.4-11.6,1-23.8,3.3-35.5-1.8-3.7-1.6-8.6-.4-13-.5-9.4-.3-12.6-3.5-12.6-12.7C435.78,1368.9,435.78,1350.9,435.78,1332.9Zm44.6,47.7c7.8,1.1,14.2-.8,20.7-4.6a23.87,23.87,0,0,0,5.8-36.6c-5.8-6.5-14.2-5.6-21.4-7.4-5.6-1.4-12.4-2.1-18,.8-6.8,3.5-9.6,16.6-5.4,24.6,2.1,4,2.6,7.6,0,11.3-1.3,1.9-1.8,3.6.1,5.4C467.28,1379.4,473.08,1383,480.38,1380.6Z"
     class="cls-1"
     shape-rendering="auto"/>
  <path
     id="path702"
     d="M1535.08,1368.3c.1-4.9-2.6-8.1-6.4-10.6a18.8,18.8,0,0,0-17.2-13.8c-8.5-.4-10.9,1.9-10.9,10.3v32.4c0,6.3-6.4,12.6-12.5,12.7-18,.4-18.1.3-18.1-17.6V1278.4c0-8.7,6.6-13,14.6-9.6.9.4,2,1,2.9.8,10.5-1.9,11.1,4.2,10.5,12.1-.5,7.4-.1,14.9-.1,22.4,0,13.1,7.2,18.7,19.4,14.8,10.1-3.2,16.7-9,17.9-20.8,1.3-12.9,22.6-30.6,34.8-28.4,4,.7,6.9,2.1,8,5.9,1,3.6-.9,5.2-4.2,7.5-8.2,5.6-13.7,13.7-17.3,23.2-2,5.2-4.8,10.3-10,13.3-6.3,3.6-7.4,10.3-2.6,16.1a170.89,170.89,0,0,1,30.7,52,8.8,8.8,0,0,1-7.2,11.7c-13.4,1.5-16.4-2.1-23.6-17.3C1541.28,1377.1,1540.88,1371,1535.08,1368.3Z"
     class="cls-1" />
  <path
     id="path704"
     d="M676.48,1342.6c-.7-9.9-.3-21.7-1.1-33.4-1.1-15.4,1.5-20.6,19.1-21.1a37.35,37.35,0,0,1,24.1,7.6c6.1,4.6,9.7,12.4,10.2,20.4.7,11.3-.1,22.6.3,33.9.2,4.3-2,7.6-3.8,10.6-6.5,10.9-13.9,19.2-29.4,17.9-22.9-1.9-19.1,2.3-19.5-20.1C676.38,1353.7,676.48,1349,676.48,1342.6Zm3.1-8.5v32.3c0,2.4-.5,5.1,2.4,6.7,8.7,5,28.4,1.1,34.3-7.1,9.2-12.8,9.1-27.4,7.9-42.1-1.9-23.5-12.3-32.1-35.6-29.9a7.72,7.72,0,0,0-1.5.2c-5.4.2-7.7,2.9-7.6,8.3C679.68,1313.1,679.58,1323.6,679.58,1334.1Z"
     class="cls-1"
     shape-rendering="auto"/>
  <path
     id="path706"
     d="M645.78,1335.3c0,11-.2,22.1.1,33.1.1,4.9-1.4,8.4-6.4,8.6-12.2.5-25.5,5.3-35.3-6.2-5.4-6.3-7.8-14.5-7.7-22.8.1-14-1.7-28,2.8-41.9,2.7-8.2,12.6-17.6,21.3-17.8,6.8-.1,12.7,3.3,19.4,3.7,3.7.3,6.1,3.8,5.9,8.5C645.48,1312.2,645.68,1323.8,645.78,1335.3Zm-3.3-.2v-32.3c0-2.8,0-5.7-2.9-7.4-8.6-5.2-28.6-.6-33.5,8.3-8.9,16.1-9,33.3-4.2,50.7,5.9,21.3,16.7,21.8,34.3,20,4.4-.5,6.6-2.7,6.4-7.6C642.28,1356.1,642.48,1345.6,642.48,1335.1Z"
     class="cls-1"
     shape-rendering="auto"/>
  <path
     id="path708"
     d="M1256.48,1343c-10.8-3.7-21.5-1.4-31.6,1.9-6.1,2-8.6,8.1-8.1,15.1s4.6,10.9,10.3,12.8c7,2.3,14.5,2.6,22,2.8,5.1.2,7.4-1.6,7.2-7.1-.3-8.2.2-16.3.3-24.5,3.7,3.2,7.7,5.8,4.1,11.9-2,3.4-1.5,8,0,11.9,2.1,5.6-1.4,12.5-7.6,12.9-10.6.7-21.3.9-31.5-3.2-10.8-4.4-14-20-7.6-29.7,5.1-7.8,11.3-10.2,20-10.2,4.6,0,8.7-4,13.8-2.8C1252.48,1335.8,1257.38,1336.4,1256.48,1343Z"
     class="cls-1"
     shape-rendering="auto"/>
  <path
     id="path710"
     d="M839,1337.8c20-.5,20.2-.7,19.5,19.7-.2,6.1,2.7,12.8-2.5,18.4-4.2,4.5-20,7.8-27.2,4.2-6.1-3-14.5-2.4-17.6-11.1-3.3-9.2-3.4-18.4,2.1-26,2.5-3.4,8.9-5,14.2-5.2C831.28,1337.7,835.08,1337.8,839,1337.8Zm13.6,20.8c-.6-18.6,4.1-16.8-17.4-16.4a57.56,57.56,0,0,0-9.1,1.5c-7.1,1.5-11.2,6-12.1,13.1-1,7.7,3.2,12.8,9.8,15.8,3.2,1.4,7,1.8,10.5,2.1C852.58,1376.6,852.58,1376.6,852.58,1358.6Z"
     class="cls-1"
     shape-rendering="auto"/>
  <path
     id="path712"
     d="M480.38,1380.6c-7.4,2.4-13.2-1.2-18.4-6.4-1.8-1.8-1.4-3.5-.1-5.4,2.7-3.7,2.1-7.3,0-11.3-4.1-8-1.3-21.1,5.4-24.6,5.6-2.9,12.5-2.2,18-.8,7.2,1.8,15.6.8,21.4,7.4a23.89,23.89,0,0,1-5.8,36.6C494.58,1379.8,488.18,1381.7,480.38,1380.6Zm-13-24.2c0,3.8.2,7.7-.1,11.5-.4,5.8,2.2,7.8,7.7,7.6,6.1-.2,12.3-.1,18.3-1.8,9.6-2.6,14-8.7,13.4-18.4-.7-10.5-7.5-16.5-19.7-17.2C467.38,1337,467.38,1337,467.38,1356.4Z"
     class="cls-1"
     shape-rendering="auto"/>
</svg>
