<svg id="calculate" xmlns="http://www.w3.org/2000/svg" xmlns:xlink="http://www.w3.org/1999/xlink" width="21.642" height="25.037" viewBox="0 0 21.642 25.037">
  <defs>
    <linearGradient id="linear-gradient" x1="0.44" y1="0.555" x2="1.284" y2="-0.145" gradientUnits="objectBoundingBox">
      <stop offset="0" stop-color="#777"/>
      <stop offset="1" stop-color="#3b4041"/>
    </linearGradient>
    <linearGradient id="linear-gradient-2" x1="0.514" y1="2.452" x2="-0.029" y2="1.231" xlink:href="#linear-gradient"/>
    <linearGradient id="linear-gradient-3" x1="0.497" y1="3.319" x2="0.497" y2="4.54" gradientUnits="objectBoundingBox">
      <stop offset="0" stop-color="#a7f3ce"/>
      <stop offset="1" stop-color="#61db99"/>
    </linearGradient>
    <linearGradient id="linear-gradient-4" x1="0.497" y1="3.944" x2="0.497" y2="2.723" xlink:href="#linear-gradient-3"/>
    <linearGradient id="linear-gradient-5" x1="0.604" y1="-0.285" x2="0.049" y2="0.364" gradientUnits="objectBoundingBox">
      <stop offset="0" stop-color="#3b4041" stop-opacity="0"/>
      <stop offset="1" stop-color="#3b4041"/>
    </linearGradient>
    <linearGradient id="linear-gradient-6" x1="0.915" y1="-0.137" x2="0.374" y2="0.217" xlink:href="#linear-gradient-5"/>
    <linearGradient id="linear-gradient-7" x1="0.612" y1="-2.096" x2="0.25" y2="-1.509" xlink:href="#linear-gradient-5"/>
    <linearGradient id="linear-gradient-8" x1="0.726" y1="-1.957" x2="0.339" y2="-1.504" xlink:href="#linear-gradient-5"/>
    <linearGradient id="linear-gradient-9" x1="0.209" y1="0.728" x2="0.801" y2="0.136" gradientUnits="objectBoundingBox">
      <stop offset="0" stop-color="#fff"/>
      <stop offset="1" stop-color="#c3c3c3"/>
    </linearGradient>
    <linearGradient id="linear-gradient-10" x1="0.8" y1="-0.559" x2="0.039" y2="0.423" gradientUnits="objectBoundingBox">
      <stop offset="0" stop-color="#c3c3c3" stop-opacity="0"/>
      <stop offset="0.267" stop-color="#a4a4a4" stop-opacity="0.267"/>
      <stop offset="0.542" stop-color="#8b8b8b" stop-opacity="0.541"/>
      <stop offset="0.794" stop-color="#7c7c7c" stop-opacity="0.792"/>
      <stop offset="1" stop-color="#777"/>
    </linearGradient>
    <linearGradient id="linear-gradient-11" x1="-0.02" y1="0.181" x2="0.976" y2="0.181" gradientUnits="objectBoundingBox">
      <stop offset="0" stop-color="#ffb92d"/>
      <stop offset="1" stop-color="#f59500"/>
    </linearGradient>
    <linearGradient id="linear-gradient-12" x1="0.369" y1="0.573" x2="0.669" y2="0.274" xlink:href="#linear-gradient-9"/>
    <linearGradient id="linear-gradient-13" x1="0.807" y1="-0.205" x2="0.046" y2="0.554" xlink:href="#linear-gradient-10"/>
    <linearGradient id="linear-gradient-14" x1="-0.01" y1="0.394" x2="0.986" y2="0.394" xlink:href="#linear-gradient-11"/>
    <linearGradient id="linear-gradient-15" x1="0.196" y1="-1.454" x2="0.785" y2="-2.043" xlink:href="#linear-gradient-11"/>
    <linearGradient id="linear-gradient-16" x1="0.628" y1="-6.03" x2="-0.01" y2="-5.044" gradientUnits="objectBoundingBox">
      <stop offset="0" stop-color="#be3f45" stop-opacity="0"/>
      <stop offset="1" stop-color="#be3f45"/>
    </linearGradient>
    <linearGradient id="linear-gradient-17" x1="0.656" y1="-3.249" x2="-0.119" y2="-2.371" xlink:href="#linear-gradient-16"/>
    <linearGradient id="linear-gradient-18" x1="0.214" y1="-1.467" x2="0.806" y2="-2.06" xlink:href="#linear-gradient-9"/>
    <linearGradient id="linear-gradient-19" x1="0.611" y1="-3.595" x2="-0.029" y2="-2.955" xlink:href="#linear-gradient-10"/>
    <linearGradient id="linear-gradient-20" x1="0.746" y1="-4.414" x2="-0.015" y2="-3.432" xlink:href="#linear-gradient-10"/>
    <linearGradient id="linear-gradient-21" x1="-0.01" y1="-13.294" x2="0.986" y2="-13.294" xlink:href="#linear-gradient-11"/>
    <linearGradient id="linear-gradient-22" x1="0.269" y1="-7.482" x2="0.967" y2="-8.18" xlink:href="#linear-gradient-11"/>
    <linearGradient id="linear-gradient-23" x1="0.605" y1="-7.561" x2="0.117" y2="-6.999" xlink:href="#linear-gradient-10"/>
    <linearGradient id="linear-gradient-24" x1="0.269" y1="-11.772" x2="0.967" y2="-12.47" xlink:href="#linear-gradient-11"/>
  </defs>
  <path id="Контур_240" data-name="Контур 240" d="M53.251,25.037H35.18a1.751,1.751,0,0,1-1.786-1.713V1.713A1.751,1.751,0,0,1,35.18,0H53.251a1.751,1.751,0,0,1,1.786,1.713v21.61A1.751,1.751,0,0,1,53.251,25.037Z" transform="translate(-33.395 0)" fill="url(#linear-gradient)"/>
  <path id="Контур_241" data-name="Контур 241" d="M53.251,0H35.18a1.751,1.751,0,0,0-1.786,1.713v6.76H55.037V1.713A1.751,1.751,0,0,0,53.251,0Z" transform="translate(-33.395 0)" fill="url(#linear-gradient-2)"/>
  <path id="Контур_242" data-name="Контур 242" d="M61.03,22.641H77.074a1,1,0,0,1,1.023.981v3.611a1,1,0,0,1-1.023.981H61.03a1,1,0,0,1-1.023-.981V23.622A1,1,0,0,1,61.03,22.641Z" transform="translate(-58.231 -21.192)" fill="url(#linear-gradient-3)"/>
  <path id="Контур_243" data-name="Контур 243" d="M80.345,31.328H64.683a.947.947,0,0,1-.966-.927V27.138a.947.947,0,0,1,.966-.927H80.345a.947.947,0,0,1,.966.927V30.4A.947.947,0,0,1,80.345,31.328Z" transform="translate(-61.693 -24.533)" fill="url(#linear-gradient-4)"/>
  <path id="Контур_244" data-name="Контур 244" d="M88.777,158.078v.6a1.636,1.636,0,0,1-.023.273,1.766,1.766,0,0,1-1.763,1.44H80.8l-10.067-9.657a3.455,3.455,0,0,1-1.183-2.591,3.606,3.606,0,0,1,3.678-3.529,3.741,3.741,0,0,1,2.7,1.134Z" transform="translate(-67.135 -135.359)" fill="url(#linear-gradient-5)"/>
  <path id="Контур_245" data-name="Контур 245" d="M221.01,149.005v9.677a1.637,1.637,0,0,1-.023.273l-8.565-8.216a3.481,3.481,0,0,1-1.127-1.98,3.381,3.381,0,0,1-.055-.612,3.606,3.606,0,0,1,3.678-3.529,3.742,3.742,0,0,1,2.7,1.134Z" transform="translate(-199.368 -135.359)" fill="url(#linear-gradient-6)"/>
  <path id="Контур_246" data-name="Контур 246" d="M83.1,273.859H72.706l-1.975-1.894a3.455,3.455,0,0,1-1.183-2.591,3.606,3.606,0,0,1,3.678-3.529,3.741,3.741,0,0,1,2.7,1.134Z" transform="translate(-67.136 -248.822)" fill="url(#linear-gradient-7)"/>
  <path id="Контур_247" data-name="Контур 247" d="M221.01,270.232v1.914a1.638,1.638,0,0,1-.023.273,1.766,1.766,0,0,1-1.763,1.44H214.4l-1.975-1.894a3.481,3.481,0,0,1-1.127-1.98,3.379,3.379,0,0,1-.055-.612,3.606,3.606,0,0,1,3.678-3.529,3.742,3.742,0,0,1,2.7,1.134Z" transform="translate(-199.368 -248.822)" fill="url(#linear-gradient-8)"/>
  <ellipse id="Эллипс_136" data-name="Эллипс 136" cx="3.679" cy="3.529" rx="3.679" ry="3.529" transform="translate(11.871 9.26)" fill="url(#linear-gradient-9)"/>
  <path id="Контур_248" data-name="Контур 248" d="M244.574,192.429l-1.62-1.615a.23.23,0,0,0-.162-.066H239.5a.221.221,0,0,0-.225.216v.844a.212.212,0,0,0,.066.153l2.853,2.726A3.618,3.618,0,0,0,244.574,192.429Z" transform="translate(-225.531 -178.533)" fill="url(#linear-gradient-10)"/>
  <path id="Контур_249" data-name="Контур 249" d="M242.655,190.748H239.5a.227.227,0,0,0-.232.222v.705a.227.227,0,0,0,.232.222h3.151a.227.227,0,0,0,.232-.222v-.706A.227.227,0,0,0,242.655,190.748Z" transform="translate(-225.529 -178.534)" fill="url(#linear-gradient-11)"/>
  <ellipse id="Эллипс_137" data-name="Эллипс 137" cx="3.679" cy="3.529" rx="3.679" ry="3.529" transform="translate(2.414 9.26)" fill="url(#linear-gradient-12)"/>
  <path id="Контур_250" data-name="Контур 250" d="M102.888,175.5l-2.828-2.775a.23.23,0,0,0-.161-.065H99.02a.221.221,0,0,0-.225.216v.942h-.982a.221.221,0,0,0-.225.216v.844a.212.212,0,0,0,.066.153l2.853,2.726A3.618,3.618,0,0,0,102.888,175.5Z" transform="translate(-93.302 -161.6)" fill="url(#linear-gradient-13)"/>
  <path id="Контур_251" data-name="Контур 251" d="M100.969,173.814h-.744a.227.227,0,0,1-.232-.222v-.714a.227.227,0,0,0-.232-.222h-.735a.227.227,0,0,0-.232.222v.714a.227.227,0,0,1-.232.222h-.744a.227.227,0,0,0-.232.222v.705a.227.227,0,0,0,.232.222h.744a.227.227,0,0,1,.232.222v.714a.227.227,0,0,0,.232.222h.735a.227.227,0,0,0,.232-.222v-.714a.227.227,0,0,1,.232-.222h.744a.227.227,0,0,0,.232-.222v-.706A.227.227,0,0,0,100.969,173.814Z" transform="translate(-93.302 -161.6)" fill="url(#linear-gradient-14)"/>
  <ellipse id="Эллипс_138" data-name="Эллипс 138" cx="3.679" cy="3.529" rx="3.679" ry="3.529" transform="translate(11.871 17.023)" fill="url(#linear-gradient-15)"/>
  <path id="Контур_252" data-name="Контур 252" d="M244.247,329.043a3.623,3.623,0,0,1-1.332,1.267,3.763,3.763,0,0,1-1.614.465l-1.965-1.877a.212.212,0,0,1-.066-.153V327.9a.221.221,0,0,1,.225-.216h3.293a.23.23,0,0,1,.162.066Z" transform="translate(-225.526 -306.702)" fill="url(#linear-gradient-16)"/>
  <path id="Контур_253" data-name="Контур 253" d="M244.748,298.078a3.4,3.4,0,0,1-.5,1.55,3.623,3.623,0,0,1-1.332,1.267l-2.744-2.626-.835-.8a.212.212,0,0,1-.066-.153v-.844a.221.221,0,0,1,.225-.216h3.294a.23.23,0,0,1,.161.065Z" transform="translate(-225.528 -277.286)" fill="url(#linear-gradient-17)"/>
  <g id="Сгруппировать_81" data-name="Сгруппировать 81" transform="translate(13.743 18.97)">
    <path id="Контур_254" data-name="Контур 254" d="M242.655,327.686H239.5a.227.227,0,0,0-.232.222v.705a.227.227,0,0,0,.232.222h3.151a.227.227,0,0,0,.232-.222v-.705A.227.227,0,0,0,242.655,327.686Z" transform="translate(-239.272 -325.673)" fill="#fff"/>
    <path id="Контур_255" data-name="Контур 255" d="M242.655,296.253H239.5a.227.227,0,0,0-.232.222v.705a.227.227,0,0,0,.232.222h3.151a.227.227,0,0,0,.232-.222v-.705A.227.227,0,0,0,242.655,296.253Z" transform="translate(-239.272 -296.253)" fill="#fff"/>
  </g>
  <ellipse id="Эллипс_139" data-name="Эллипс 139" cx="3.679" cy="3.529" rx="3.679" ry="3.529" transform="translate(2.414 17.023)" fill="url(#linear-gradient-18)"/>
  <path id="Контур_256" data-name="Контур 256" d="M114.057,283.444a.813.813,0,0,0-.587-.247.784.784,0,0,0-.8.768.751.751,0,0,0,.258.563l1.423,1.365q.021.022.044.043t.044.043q.021.022.044.043t.044.043q.021.022.044.043t.044.043c.014.015.029.029.044.043s.029.029.044.043.029.029.044.043.029.029.044.043.029.029.044.043.029.029.044.043.029.029.044.043.029.029.044.043.029.029.044.043.029.029.044.043.029.029.044.043.029.029.044.043a.813.813,0,0,0,.587.247.784.784,0,0,0,.8-.768.751.751,0,0,0-.258-.563q-.021-.022-.044-.043t-.044-.043c-.014-.015-.029-.029-.044-.043s-.029-.029-.044-.043-.029-.029-.044-.043-.029-.029-.044-.043-.029-.029-.044-.043-.029-.029-.044-.043-.029-.029-.044-.043-.029-.029-.044-.043Z" transform="translate(-107.378 -265.063)" fill="url(#linear-gradient-19)"/>
  <path id="Контур_257" data-name="Контур 257" d="M102.888,313.651l-1.62-1.615a.23.23,0,0,0-.162-.066H97.813a.221.221,0,0,0-.225.216v.844a.212.212,0,0,0,.066.153l2.853,2.726A3.618,3.618,0,0,0,102.888,313.651Z" transform="translate(-93.302 -291.993)" fill="url(#linear-gradient-20)"/>
  <path id="Контур_258" data-name="Контур 258" d="M100.969,311.97H97.818a.227.227,0,0,0-.232.222v.705a.227.227,0,0,0,.232.222h3.151a.227.227,0,0,0,.232-.222v-.705A.227.227,0,0,0,100.969,311.97Z" transform="translate(-93.302 -291.994)" fill="url(#linear-gradient-21)"/>
  <ellipse id="Эллипс_140" data-name="Эллипс 140" cx="0.8" cy="0.768" rx="0.8" ry="0.768" transform="translate(5.292 18.134)" fill="url(#linear-gradient-22)"/>
  <path id="Контур_259" data-name="Контур 259" d="M115.759,336.6l-1.7-1.632a.813.813,0,0,0-.587-.247.784.784,0,0,0-.8.768.751.751,0,0,0,.258.563l1.294,1.242A3.733,3.733,0,0,0,115.759,336.6Z" transform="translate(-107.379 -313.291)" fill="url(#linear-gradient-23)"/>
  <ellipse id="Эллипс_141" data-name="Эллипс 141" cx="0.8" cy="0.768" rx="0.8" ry="0.768" transform="translate(5.292 21.433)" fill="url(#linear-gradient-24)"/>
  <g id="Сгруппировать_82" data-name="Сгруппировать 82" transform="translate(9.714 2.345)">
    <path id="Контур_260" data-name="Контур 260" d="M178.914,37.394a.242.242,0,0,1,.112-.21l.556-.513a.2.2,0,0,1,.144-.056.32.32,0,0,1,.174.049.149.149,0,0,1,.077.131v3.394a.147.147,0,0,1-.086.131.431.431,0,0,1-.4,0,.147.147,0,0,1-.083-.131V37.338l-.187.226a.166.166,0,0,1-.118.051.17.17,0,0,1-.136-.069A.235.235,0,0,1,178.914,37.394Z" transform="translate(-178.914 -36.615)" fill="#fff"/>
    <path id="Контур_261" data-name="Контур 261" d="M202.375,40.265v-.5a.72.72,0,0,1,.174-.451,2.034,2.034,0,0,1,.43-.4l.513-.358a2.208,2.208,0,0,0,.436-.394.673.673,0,0,0,.179-.43.541.541,0,0,0-.147-.376.553.553,0,0,0-.43-.161.581.581,0,0,0-.39.127.466.466,0,0,0-.15.377.175.175,0,0,1-.083.143.356.356,0,0,1-.217.061q-.257,0-.257-.3a.794.794,0,0,1,.323-.654,1.3,1.3,0,0,1,1.582.032.927.927,0,0,1,.334.739,1.019,1.019,0,0,1-.179.576,1.8,1.8,0,0,1-.433.455q-.254.187-.508.353a3.13,3.13,0,0,0-.433.335.47.47,0,0,0-.179.328v.194h1.571a.165.165,0,0,1,.131.069.256.256,0,0,1,.056.167.279.279,0,0,1-.056.172.161.161,0,0,1-.13.074h-1.89a.313.313,0,0,1-.167-.051A.149.149,0,0,1,202.375,40.265Z" transform="translate(-200.808 -36.691)" fill="#fff"/>
    <path id="Контур_262" data-name="Контур 262" d="M241.289,39.569a.228.228,0,0,1,.059-.182.323.323,0,0,1,.2-.049.4.4,0,0,1,.232.049.188.188,0,0,1,.061.156.392.392,0,0,0,.163.315.732.732,0,0,0,.468.131.685.685,0,0,0,.489-.151.646.646,0,0,0,.158-.485v-.1q0-.559-.652-.559-.182,0-.182-.213t.182-.218a.633.633,0,0,0,.414-.118.562.562,0,0,0,.142-.446.47.47,0,0,0-.535-.528.619.619,0,0,0-.428.12.39.39,0,0,0-.128.3q0,.219-.267.219a.376.376,0,0,1-.238-.051.269.269,0,0,1-.056-.2.764.764,0,0,1,.053-.277A.947.947,0,0,1,241.6,37a.854.854,0,0,1,.353-.226,1.543,1.543,0,0,1,.543-.087q1.074,0,1.074.918a1.167,1.167,0,0,1-.115.537.669.669,0,0,1-.313.317.778.778,0,0,1,.545.794v.1a1.019,1.019,0,0,1-.337.847,1.371,1.371,0,0,1-.882.269,1.258,1.258,0,0,1-.879-.277A.831.831,0,0,1,241.289,39.569Z" transform="translate(-237.125 -36.687)" fill="#fff"/>
    <path id="Контур_263" data-name="Контур 263" d="M280.363,39.4a.226.226,0,0,1,.032-.113l1.294-2.443a.262.262,0,0,1,.246-.149.347.347,0,0,1,.187.062.176.176,0,0,1,.1.149.194.194,0,0,1-.027.082l-1.1,2.107h.786v-.712q0-.181.283-.18a.405.405,0,0,1,.2.046.146.146,0,0,1,.083.134V39.1h.262a.161.161,0,0,1,.142.076.313.313,0,0,1,.051.178.278.278,0,0,1-.059.17.167.167,0,0,1-.134.079h-.262v.665a.148.148,0,0,1-.086.132.429.429,0,0,1-.4,0,.148.148,0,0,1-.083-.132V39.6h-1.315a.2.2,0,0,1-.142-.053A.191.191,0,0,1,280.363,39.4Z" transform="translate(-273.591 -36.691)" fill="#fff"/>
  </g>
</svg>
