<svg id="Слой_1" data-name="Слой 1" xmlns="http://www.w3.org/2000/svg" viewBox="0 0 512 512"><defs><style>.cls-1{fill:#f1d0a5;}.cls-2{fill:#f1b986;}.cls-3{fill:#78c2a4;}.cls-4{fill:#66b394;}.cls-5{fill:#e0f8c5;}.cls-6{fill:#ccf49f;}.cls-7{fill:#365e7d;}.cls-8{fill:#f6e266;}.cls-9{fill:#ecbe6b;}.cls-10{fill:#e64c3c;}</style></defs><title>sМонтажная область 1_1</title><path class="cls-1" d="M314.74,206.12l64.94,63.11a48.61,48.61,0,0,1,6.25,62.28l-30.69,44.91a32.36,32.36,0,0,0-5.66,18.29v34.21H301V217.06Z"/><path class="cls-2" d="M379.68,269.23l-64.94-63.11-11.46,9.1,55.58,54a48.59,48.59,0,0,1,6.25,62.28l-30.69,44.91a32.43,32.43,0,0,0-5.65,18.29v34.21h20.81V394.71a32.36,32.36,0,0,1,5.66-18.29l30.69-44.91a48.61,48.61,0,0,0-6.25-62.28Z"/><path class="cls-2" d="M344.44,310.91a6.45,6.45,0,0,1-4.65-2l-56.48-58.72a6.46,6.46,0,0,1,9.31-9L349.1,300a6.47,6.47,0,0,1-4.66,10.94Z"/><path class="cls-3" d="M127.41,376.3a8.25,8.25,0,0,1-8.25-8.26V44.2a8.25,8.25,0,0,1,8.25-8.26H306.48a8.26,8.26,0,0,1,8.26,8.26V368a8.26,8.26,0,0,1-8.26,8.26Z"/><path class="cls-4" d="M314.74,44.2a8.26,8.26,0,0,0-8.26-8.26H290.12a8.26,8.26,0,0,1,8.26,8.26V368a8.26,8.26,0,0,1-8.26,8.26h16.36a8.26,8.26,0,0,0,8.26-8.26Z"/><path class="cls-5" d="M179.28,350.77a1.31,1.31,0,0,0,1.31,1.27H253.3a1.32,1.32,0,0,0,1.32-1.27,35.89,35.89,0,0,1,35.86-34.62V97.38a1.32,1.32,0,0,0-1.27-1.32,35.88,35.88,0,0,1-34.59-34.59,1.32,1.32,0,0,0-1.32-1.27H180.59a1.31,1.31,0,0,0-1.31,1.27,35.9,35.9,0,0,1-34.59,34.59,1.32,1.32,0,0,0-1.28,1.32V314.86a1.33,1.33,0,0,0,1.28,1.32,35.89,35.89,0,0,1,34.59,34.59Z"/><path class="cls-6" d="M254.62,61.47a1.32,1.32,0,0,0-1.32-1.27H234.9a35.9,35.9,0,0,0,19.91,32.14,28.83,28.83,0,0,1,16,25.81V294.08a28.86,28.86,0,0,1-16,25.82A35.89,35.89,0,0,0,234.9,352h18.4a1.32,1.32,0,0,0,1.32-1.27,35.89,35.89,0,0,1,35.86-34.62V97.38a1.32,1.32,0,0,0-1.27-1.32,35.88,35.88,0,0,1-34.59-34.59Z"/><path class="cls-7" d="M201.71,231.3a24.21,24.21,0,0,1-4.12-.35,25.74,25.74,0,0,1-21.47-25.23c-.06-8.88.76-13.89,6-21.86a6.46,6.46,0,0,1,10.81,7.07c-3.57,5.45-3.92,7.65-3.87,14.71a12.67,12.67,0,0,0,10.69,12.57c2.56.43,8.8.6,11.52-7.09,3.81-10.76,6.79-17,10.29-21.44,4.16-5.31,11.38-7.73,18.83-6.32a21.5,21.5,0,0,1,16.86,14.75c4.33,14.37-2.6,28.46-2.9,29a6.46,6.46,0,0,1-11.56-5.77c.09-.18,4.9-10.22,2.09-19.55a8.73,8.73,0,0,0-6.88-5.79c-2.66-.49-5.12.13-6.27,1.6-3.2,4.08-6,11.27-8.28,17.78C220,225.29,211.5,231.3,201.71,231.3Z"/><path class="cls-7" d="M261.42,212.14h-89a6.46,6.46,0,0,1,0-12.92h89a6.46,6.46,0,0,1,0,12.92Z"/><path class="cls-7" d="M217,297.28a6.46,6.46,0,0,1-6.46-6.46V274a6.46,6.46,0,0,1,12.92,0v16.8A6.46,6.46,0,0,1,217,297.28Z"/><path class="cls-7" d="M217,144.67a6.46,6.46,0,0,1-6.46-6.46v-16.8a6.46,6.46,0,0,1,12.92,0v16.8A6.46,6.46,0,0,1,217,144.67Z"/><path class="cls-5" d="M285.08,354.63h-1.62a6.47,6.47,0,0,1,0-12.93h1.62a6.47,6.47,0,0,1,0,12.93Z"/><path class="cls-5" d="M150.43,354.63h-1.62a6.47,6.47,0,0,1,0-12.93h1.62a6.47,6.47,0,0,1,0,12.93Z"/><path class="cls-5" d="M285.08,70.53h-1.62a6.46,6.46,0,1,1,0-12.92h1.62a6.46,6.46,0,1,1,0,12.92Z"/><path class="cls-5" d="M150.43,70.53h-1.62a6.46,6.46,0,0,1,0-12.92h1.62a6.46,6.46,0,0,1,0,12.92Z"/><path class="cls-1" d="M283.35,428.92l-.77-37.37a51,51,0,0,0-2.83-15.61,42.78,42.78,0,0,1,7.36-41.3,7.66,7.66,0,0,0,.78-8.58l-30.28-58.54a15.38,15.38,0,0,1,24.75-17.74l56.48,58.72L324.2,367.17l-7.62,61.75Z"/><path class="cls-8" d="M365.73,464.19H270.64a7.62,7.62,0,0,1-7.62-7.61V436.53a7.62,7.62,0,0,1,7.62-7.61h95.09a7.61,7.61,0,0,1,7.61,7.61v20.05A7.61,7.61,0,0,1,365.73,464.19Z"/><path class="cls-9" d="M365.55,428.92H348.34a7.62,7.62,0,0,1,7.8,7.44v20.4a7.62,7.62,0,0,1-7.8,7.43h17.21a7.62,7.62,0,0,0,7.79-7.43v-20.4a7.62,7.62,0,0,0-7.79-7.44Z"/><path class="cls-10" d="M256.78,0C115.37,0,.73,114.59.73,256s114.64,256,256,256S512.83,397.41,512.83,256,398.2,0,256.78,0ZM106.8,106A211.87,211.87,0,0,1,390.17,91.37l-298,298A211.86,211.86,0,0,1,106.8,106ZM406.59,405.8h0A212,212,0,0,1,123.4,420.63l298-298A212,212,0,0,1,406.59,405.8Z"/></svg>