<svg id="Слой_1" data-name="Слой 1" xmlns="http://www.w3.org/2000/svg" viewBox="0 0 1656 1676"><defs><style>.cls-1{fill:#4ab54a;}.cls-2{fill:#45b649;}</style></defs><title>55Монтажная область 3</title><g id="Слой_7" data-name="Слой 7"><path class="cls-1" d="M442.42,353.64V736.26a672.78,672.78,0,0,1,99.38,0c31.49,2.28,61.41,4.38,95.35,14,27.29,7.7,90.1,25.37,138.21,80.48,39.54,45.31,49.52,93.78,59.49,141.71a448.48,448.48,0,0,1,3.5,161h385.42V353.64Zm619,621.44H999.31a438.71,438.71,0,0,0-42-154.84c-39.19-81.35-92.73-127.89-105.85-139.09-59-49.69-116.87-69.28-146.09-78.73a467.32,467.32,0,0,0-101.47-21v-63l457.51-2.62Z"/><rect x="442.42" y="832.49" width="304.25" height="304.25"/><path class="cls-2" d="M253.65,1262.88a52.17,52.17,0,0,0-8.75-26.24c-8.22-11.73-19.25-16.45-25-18.73a64.49,64.49,0,0,0-23.62-4.54l-112-1.75v171.1h47.76V1325H153.4c19.42,0,23.62,1.22,35,.52,9.8-.52,17.85-1.22,28-4.9a59.5,59.5,0,0,0,19.77-11,53.25,53.25,0,0,0,11.9-14.52C255.22,1281.77,254.17,1268.48,253.65,1262.88Zm-58.26,22.92a25.45,25.45,0,0,1-13.65,6.47H130.13v-47.59l53.71,1.75a19.39,19.39,0,0,1,9.1,3c8.92,5.6,9.8,16.44,10,17.84A26.35,26.35,0,0,1,195.39,1285.8Z"/><path class="cls-2" d="M274.12,1259.38v123.34h43.74v-69.1a45.58,45.58,0,0,1,7.87-16.63c2.27-3,8-10.67,18-14,2.8-1,7.87-1.4,18-2.28,5.6-.52,10.32-.7,13.65-.87v-25.37a76.73,76.73,0,0,0-21,.88A50.72,50.72,0,0,0,318,1279.15v-19.77Z"/><rect class="cls-2" x="396.59" y="1260.25" width="44.26" height="122.47"/><rect class="cls-2" x="396.59" y="1211.62" width="46.89" height="30.27"/><path class="cls-2" d="M457.82,1259.73c17.85,40.76,35.52,81.7,53.36,122.47h49l53.71-123.35H565.42L536,1344.58l-30.62-85.73Z"/><path class="cls-2" d="M763.64,1377a29.84,29.84,0,0,1-2.8-12.25,342.9,342.9,0,0,1,.7-37.79c2.63-30.62,1.23-35.86.18-39.19a46.67,46.67,0,0,0-13-20.64c-9.1-7.88-18.89-9.28-36.39-11.55a141.17,141.17,0,0,0-36.39,0c-9.62,1-16.45,1.92-24.49,6.12a47.25,47.25,0,0,0-26.77,36.92h43.74a17.08,17.08,0,0,1,3.15-11.9c1.22-1.57,3.85-4.37,11-6.12,3-.7,20.64-6.12,30.27,2.27a15.15,15.15,0,0,1,4,5.25,24.12,24.12,0,0,1-2.63,18.37c-3.49,4.2-9.62,3.5-19.24,3.5,0,0-9.62,0-23.27,1.4-10,.88-19.07,1.93-29.39,6.65-6.65,3-12.6,5.77-17.15,12.25-5.6,7.87-5.6,16.27-5.77,21,0,5.6-.18,14.7,5.77,22.39s14.17,9.8,24.5,12.25c12.24,3,22.22,2.1,32,1.4,8.75-.7,14.35-1.23,21.52-4.37a51.39,51.39,0,0,0,17.15-12.25l2.62,13.65,46.37.52A23.34,23.34,0,0,1,763.64,1377Zm-57.38-21a30.62,30.62,0,0,1-21.7,6.65c-8.22-.87-19.59-6.12-20.12-13.82-.52-6.65,7-11.9,8.58-13,6.47-4.54,12.07-3.85,23.09-5.77a118.45,118.45,0,0,0,21.87-5.77C718.15,1325.86,720.08,1344.76,706.26,1356Z"/><path class="cls-2" d="M800.38,1221.06v37.27H772.74v26.24h28v64.74c0,2.27-2.1,9.09.35,17a28.54,28.54,0,0,0,11.73,15.39c4,2.45,7.52,3.15,13.47,4,4.55.7,11.19,1.39,27.47,0,5.07-.35,11.89-1,20.12-2.28,0-8.4.17-16.79.35-25a22.09,22.09,0,0,1-6.65,3.5c-1.75.53-13,3.85-19.25-3-4.2-4.55-3.67-11-3.5-12.6v-63h29.4v-23.62H844v-38Z"/><path class="cls-2" d="M1069.29,1332.16a42.81,42.81,0,0,0-11-24,53,53,0,0,0-29.39-17,47.37,47.37,0,0,0,17.84-10c3.5-3.15,10.15-9.1,12.77-18.9,3.5-13.29-2.62-24.67-4.9-28.52-11.72-18.89-35.34-19.59-37.26-19.76l-121.07-1V1382.2h71.21a512.58,512.58,0,0,0,52-1.23c12.07-.87,21.34-1.92,30.27-8.22a48.43,48.43,0,0,0,14-15.75A43.41,43.41,0,0,0,1069.29,1332.16ZM943.5,1246.43h50.91a16.27,16.27,0,0,1,11.37,2.63,17.22,17.22,0,0,1,6.82,13.29,16.65,16.65,0,0,1-16.62,16.8H943.5ZM1013,1346.86a17.94,17.94,0,0,1-12.24,5.07H943.5v-40.06h55.81a16.58,16.58,0,0,1,12.42,3.14c7.17,5.6,7.35,15,7.35,16.28A21.66,21.66,0,0,1,1013,1346.86Z"/><path class="cls-2" d="M1229,1377a29.84,29.84,0,0,1-2.8-12.25,342.9,342.9,0,0,1,.7-37.79c2.63-30.62,1.23-35.86.18-39.19a46.58,46.58,0,0,0-12.95-20.64c-9.1-7.88-18.89-9.28-36.39-11.55a141.17,141.17,0,0,0-36.39,0c-9.62,1-16.44,1.92-24.49,6.12a47.25,47.25,0,0,0-26.77,36.92h43.74a17.08,17.08,0,0,1,3.15-11.9c1.22-1.57,3.85-4.37,11-6.12,3-.7,20.64-6.12,30.27,2.27a15,15,0,0,1,4,5.25,24.16,24.16,0,0,1-2.62,18.37c-3.5,4.2-9.63,3.5-19.25,3.5,0,0-9.62,0-23.27,1.4-10,.88-19.24,1.93-29.39,6.65-6.65,3-12.6,5.77-17.15,12.25-5.59,7.87-5.59,16.27-5.77,21,0,5.6-.17,14.7,5.77,22.39s14.18,9.8,24.5,12.25c12.24,3,22.22,2.1,32,1.4,8.75-.7,14.35-1.23,21.52-4.37a51.39,51.39,0,0,0,17.15-12.25l2.62,13.65,46.37.52A23.34,23.34,0,0,1,1229,1377Zm-57.38-21a30.62,30.62,0,0,1-21.7,6.65c-8.22-.87-19.59-6.12-20.12-13.82-.52-6.65,7-11.9,8.58-13,6.47-4.54,12.07-3.85,23.09-5.77a118.45,118.45,0,0,0,21.87-5.77C1183.53,1325.86,1185.46,1344.76,1171.64,1356Z"/><path class="cls-2" d="M1260.87,1258.5v124.75h44.26v-77.51a28.36,28.36,0,0,1,7.17-15.92,29.17,29.17,0,0,1,18-8.57c3.85-.53,10.5-1.23,16.8,3.15,7.87,5.42,9.1,14.69,9.27,16.27v82.23h46.89v-81a48.23,48.23,0,0,0-3.5-19.24,43.58,43.58,0,0,0-12.25-18c-8.4-7.18-17.67-8.57-25.37-9.8a69.92,69.92,0,0,0-33.94,3.15A69.19,69.19,0,0,0,1303,1273.9c-.18-5.07-.35-10.15-.53-15.4Z"/><path class="cls-2" d="M1426.72,1383.07h45.49v-39.54l12.77-12.77,39.19,52.14h50.74l-61.76-73.13,59.49-48.47-54.24-1.22-47.76,45.49c.17-31,.35-61.76.52-92.73h-45Z"/></g></svg>