<svg id="icon-monitor" xmlns="http://www.w3.org/2000/svg" width="40.66" height="40.66" viewBox="0 0 40.66 40.66">
  <g id="Сгруппировать_568" data-name="Сгруппировать 568">
    <g id="Сгруппировать_567" data-name="Сгруппировать 567">
      <circle id="Эллипс_601" data-name="Эллипс 601" cx="0.726" cy="0.726" r="0.726" transform="translate(19.604 4.356)" fill="#fff"/>
      <circle id="Эллипс_602" data-name="Эллипс 602" cx="0.726" cy="0.726" r="0.726" transform="translate(19.604 13.795)" fill="#fff"/>
      <path id="Контур_1295" data-name="Контур 1295" d="M178.426,90.2a2.135,2.135,0,0,1,2.82,0l5.16-3.083a2.157,2.157,0,0,1-.036-.353c0-.044.01-.085.013-.129L181.317,84a2.153,2.153,0,0,1-2.961,0l-5.067,2.639c0,.043.013.085.013.129a2.161,2.161,0,0,1-.036.353Z" transform="translate(-159.506 -77.329)" fill="#fff"/>
      <path id="Контур_1296" data-name="Контур 1296" d="M123.94,493.714h-5.083v1.452h21.782v-1.452h-16.7Z" transform="translate(-109.418 -454.506)" fill="#fff"/>
      <circle id="Эллипс_603" data-name="Эллипс 603" cx="0.726" cy="0.726" r="0.726" transform="translate(10.891 8.713)" fill="#fff"/>
      <rect id="Прямоугольник_5123" data-name="Прямоугольник 5123" width="10.165" height="1.452" transform="translate(15.248 36.304)" fill="#fff"/>
      <path id="Контур_1297" data-name="Контур 1297" d="M0,386.178a2.181,2.181,0,0,0,2.178,2.178h36.3a2.181,2.181,0,0,0,2.178-2.178V384H0Z" transform="translate(0 -353.505)" fill="#fff"/>
      <circle id="Эллипс_604" data-name="Эллипс 604" cx="0.726" cy="0.726" r="0.726" transform="translate(28.317 8.713)" fill="#fff"/>
      <circle id="Эллипс_605" data-name="Эллипс 605" cx="0.726" cy="0.726" r="0.726" transform="translate(28.317 18.152)" fill="#fff"/>
      <circle id="Эллипс_606" data-name="Эллипс 606" cx="0.726" cy="0.726" r="0.726" transform="translate(10.891 18.152)" fill="#fff"/>
      <path id="Контур_1298" data-name="Контур 1298" d="M272.4,139.723a2.168,2.168,0,0,1-.712-.421l-5.137,3.068a2.139,2.139,0,0,1-1.413,2.435v5.35a2.166,2.166,0,0,1,.709.418l5.118-3.277c-.005-.06-.018-.118-.018-.179a2.175,2.175,0,0,1,1.452-2.044v-5.35Z" transform="translate(-244.086 -128.239)" fill="#fff"/>
      <path id="Контур_1299" data-name="Контур 1299" d="M162.689,144.805a2.139,2.139,0,0,1-1.413-2.435L156.14,139.3a2.167,2.167,0,0,1-.712.421v5.35a2.175,2.175,0,0,1,1.452,2.044c0,.061-.013.119-.018.179l5.118,3.277a2.167,2.167,0,0,1,.709-.418Z" transform="translate(-143.085 -128.239)" fill="#fff"/>
      <path id="Контур_1300" data-name="Контур 1300" d="M38.482,0H2.178A2.181,2.181,0,0,0,0,2.178V29.043H40.66V2.178A2.181,2.181,0,0,0,38.482,0ZM29.865,20.9a2.175,2.175,0,0,1-2.38-.5l-5.013,3.21a2.179,2.179,0,1,1-4.285,0L13.175,20.4a2.174,2.174,0,1,1-2.284-3.562v-5.35a2.172,2.172,0,1,1,2.323-3.514l4.968-2.588a2.147,2.147,0,0,1-.03-.3,2.178,2.178,0,0,1,4.357,0,2.146,2.146,0,0,1-.03.3l4.968,2.588a2.172,2.172,0,1,1,2.323,3.514v5.35a2.172,2.172,0,0,1,.1,4.063Z" fill="#fff"/>
      <circle id="Эллипс_607" data-name="Эллипс 607" cx="0.726" cy="0.726" r="0.726" transform="translate(19.604 23.234)" fill="#fff"/>
    </g>
  </g>
</svg>
