<svg xmlns="http://www.w3.org/2000/svg" width="44.743" height="43.301" viewBox="0 0 44.743 43.301">
  <g id="icon-standards" transform="translate(2268.658 14426.605)">
    <path id="Контур_1560" data-name="Контур 1560" d="M3.608,39.095H22.371V37.651H3.608a2.165,2.165,0,0,1-2.165-2.165V3.733A2.165,2.165,0,0,1,3.608,1.568H35.361a2.164,2.164,0,0,1,2.165,2.165v16.6H38.97V3.733A3.613,3.613,0,0,0,35.361.125H3.608A3.613,3.613,0,0,0,0,3.733V35.486A3.613,3.613,0,0,0,3.608,39.095Zm0,0" transform="translate(-2268.658 -14426.73)" fill="#fff"/>
    <path id="Контур_1561" data-name="Контур 1561" d="M69.323,191.707,67.49,193.54a3.619,3.619,0,1,0,1.02,1.021l1.833-1.833Zm-3.82,7.005a2.165,2.165,0,1,1,0-4.33,2.127,2.127,0,0,1,.928.216l-1.437,1.438,1.02,1.021,1.439-1.437a2.125,2.125,0,0,1,.216.927A2.165,2.165,0,0,1,65.5,198.712Zm0,0" transform="translate(-2327.667 -14609.441)" fill="#fff"/>
    <path id="Контур_1562" data-name="Контур 1562" d="M69.323,378.723l-1.833,1.833a3.62,3.62,0,1,0,1.02,1.021l1.833-1.833Zm-3.82,7.005a2.165,2.165,0,0,1,0-4.33,2.129,2.129,0,0,1,.928.216l-1.437,1.438,1.02,1.02,1.439-1.437a2.126,2.126,0,0,1,.216.927A2.165,2.165,0,0,1,65.5,385.728Zm0,0" transform="translate(-2327.667 -14787.798)" fill="#fff"/>
    <path id="Контур_1563" data-name="Контур 1563" d="M264.941,436.492h12.268v1.443H264.941Zm0,0" transform="translate(-2521.332 -14842.891)" fill="#fff"/>
    <path id="Контур_1564" data-name="Контур 1564" d="M264.941,498.836h5.052v1.443h-5.052Zm0,0" transform="translate(-2521.332 -14902.349)" fill="#fff"/>
    <path id="Контур_1565" data-name="Контур 1565" d="M405.2,498.836h5.773v1.443H405.2Zm0,0" transform="translate(-2655.098 -14902.349)" fill="#fff"/>
    <path id="Контур_1566" data-name="Контур 1566" d="M561.047,436.492h2.887v1.443h-2.887Zm0,0" transform="translate(-2803.727 -14842.891)" fill="#fff"/>
    <path id="Контур_1567" data-name="Контур 1567" d="M69.323,565.738l-1.833,1.833a3.619,3.619,0,1,0,1.02,1.02l1.833-1.833Zm-3.82,7.005a2.165,2.165,0,0,1,0-4.33,2.123,2.123,0,0,1,.928.216l-1.437,1.438,1.02,1.02,1.439-1.437a2.127,2.127,0,0,1,.216.927A2.165,2.165,0,0,1,65.5,572.743Zm0,0" transform="translate(-2327.667 -14966.152)" fill="#fff"/>
    <path id="Контур_1568" data-name="Контур 1568" d="M264.941,623.512h9.381v1.444h-9.381Zm0,0" transform="translate(-2521.332 -15021.251)" fill="#fff"/>
    <path id="Контур_1569" data-name="Контур 1569" d="M264.941,685.852h5.052V687.3h-5.052Zm0,0" transform="translate(-2521.332 -15080.704)" fill="#fff"/>
    <path id="Контур_1570" data-name="Контур 1570" d="M405.2,685.852h2.886V687.3H405.2Zm0,0" transform="translate(-2655.098 -15080.704)" fill="#fff"/>
    <path id="Контур_1571" data-name="Контур 1571" d="M509.536,489.314a10.825,10.825,0,1,0-10.825-10.825A10.825,10.825,0,0,0,509.536,489.314Zm0-20.207a9.382,9.382,0,1,1-9.382,9.382A9.382,9.382,0,0,1,509.536,469.107Zm0,0" transform="translate(-2744.276 -14872.619)" fill="#fff"/>
    <path id="Контур_1572" data-name="Контур 1572" d="M610.812,587.285l-1.292.645,1.443,2.887a.722.722,0,0,0,.53.39.8.8,0,0,0,.112.009.723.723,0,0,0,.51-.211l8.66-8.66-1.02-1.021-7.952,7.952Zm0,0" transform="translate(-2849.955 -14981.017)" fill="#fff"/>
    <path id="Контур_1580" data-name="Контур 1580" d="M264.941,436.492h12.268v1.443H264.941Zm0,0" transform="translate(-2521.332 -14851.806)" fill="#fff"/>
    <path id="Контур_1581" data-name="Контур 1581" d="M264.941,498.836h5.052v1.443h-5.052Zm0,0" transform="translate(-2521.332 -14911.263)" fill="#fff"/>
    <path id="Контур_1582" data-name="Контур 1582" d="M405.2,498.836h5.773v1.443H405.2Zm0,0" transform="translate(-2655.098 -14911.263)" fill="#fff"/>
    <path id="Контур_1583" data-name="Контур 1583" d="M561.047,436.492h2.887v1.443h-2.887Zm0,0" transform="translate(-2803.727 -14851.806)" fill="#fff"/>
  </g>
</svg>
