<svg xmlns="http://www.w3.org/2000/svg" width="43.798" height="41.364" viewBox="0 0 43.798 41.364">
  <g id="icon-contract" transform="translate(0 0)">
    <g id="Сгруппировать_566" data-name="Сгруппировать 566" transform="translate(0 0)">
      <g id="Сгруппировать_565" data-name="Сгруппировать 565" transform="translate(0 0)">
        <path id="Контур_1290" data-name="Контур 1290" d="M163.367,31.7h9.185l-10.584-10.28V29.94C161.968,30.792,162.515,31.7,163.367,31.7Z" transform="translate(-143.11 -20.147)" fill="#fff"/>
        <path id="Контур_1291" data-name="Контур 1291" d="M17.033,24.809V15.624H2.616A2.433,2.433,0,0,0,0,18.118V53.4a2.844,2.844,0,0,0,2.616,2.981h24.94A3.041,3.041,0,0,0,30.415,53.4v-25H20.257A3.493,3.493,0,0,1,17.033,24.809ZM5.05,33.872H15.391a.912.912,0,1,1,0,1.825H5.05a.912.912,0,1,1,0-1.825ZM24.515,50.3H5.05a.912.912,0,0,1,0-1.825H24.515a.912.912,0,0,1,0,1.825Zm.912-8.212a.913.913,0,0,1-.912.912H5.05a.912.912,0,1,1,0-1.825H24.515A.913.913,0,0,1,25.427,42.084Z" transform="translate(0 -15.015)" fill="#fff"/>
        <path id="Контур_1292" data-name="Контур 1292" d="M347.39,327.146l1.581-3.224h-3.1Z" transform="translate(-305.599 -287.424)" fill="#fff"/>
        <path id="Контур_1293" data-name="Контур 1293" d="M317.31,41.8h-.791v.669h-1.947a1.277,1.277,0,0,0-.73.426,1.035,1.035,0,0,0-.365.73v10.4a.912.912,0,0,0,1.825,0V44.537h1.216v8.82h4.258V41.8Z" transform="translate(-276.979 -38.15)" fill="#fff"/>
        <path id="Контур_1294" data-name="Контур 1294" d="M352.3,11.73a1.156,1.156,0,0,0-.3-.791,1.338,1.338,0,0,0-.912-.487c-.669,0-1.034.791-1.034,1.46v.973H352.3Z" transform="translate(-309.292 -10.453)" fill="#fff"/>
        <rect id="Прямоугольник_5121" data-name="Прямоугольник 5121" width="4.258" height="1.217" transform="translate(39.54 17.032)" fill="#fff"/>
        <rect id="Прямоугольник_5122" data-name="Прямоугольник 5122" width="4.258" height="14.599" transform="translate(39.54 20.074)" fill="#fff"/>
      </g>
    </g>
  </g>
</svg>
