<svg xmlns="http://www.w3.org/2000/svg" width="51.948" height="51.945" viewBox="0 0 51.948 51.945">
  <g id="icon-strength" transform="translate(0 0)">
    <path id="Контур_1232" data-name="Контур 1232" d="M50.934,471.042H46.47v-1.348a1.015,1.015,0,1,0-2.029,0v1.348H26.989v-1.348a1.015,1.015,0,0,0-2.029,0v1.348H7.508v-1.348a1.015,1.015,0,0,0-2.029,0v1.348H1.015a1.015,1.015,0,1,0,0,2.029H50.934a1.015,1.015,0,0,0,0-2.029Zm0,0" transform="translate(0 -421.127)" fill="#fff"/>
    <path id="Контур_1233" data-name="Контур 1233" d="M493.015,429.99a1.015,1.015,0,1,0-.717-.3A1.023,1.023,0,0,0,493.015,429.99Zm0,0" transform="translate(-442.081 -384.54)" fill="#fff"/>
    <path id="Контур_1234" data-name="Контур 1234" d="M1.015,429.99H15.232v1.348a1.015,1.015,0,0,0,2.029,0V429.99H34.713v1.348a1.015,1.015,0,1,0,2.029,0V429.99H46.875a1.015,1.015,0,1,0,0-2.029H1.015a1.015,1.015,0,1,0,0,2.029Zm0,0" transform="translate(0 -384.54)" fill="#fff"/>
    <path id="Контур_1235" data-name="Контур 1235" d="M4.2,40.646a3,3,0,0,0,4.237,0L22.922,26.156a2.561,2.561,0,0,0,.635-2.562l6.5-6.5,1.324-.984.271.271-.231.875a1.014,1.014,0,0,0,.264.977l2.782,2.783a1.015,1.015,0,0,0,1.435,0l5.725-5.725a1.015,1.015,0,0,0,0-1.435l-2.782-2.782a1.015,1.015,0,0,0-.977-.264L37,11.035l-.354-.354.279-.511a1.014,1.014,0,0,0-.173-1.2L30.221,2.439a8.352,8.352,0,0,0-11.8,0l-2.1,2.1a1.015,1.015,0,0,0,0,1.435l1.757,1.757a1.014,1.014,0,0,0,1.435,0,2.315,2.315,0,0,1,3.274,0l1.82,1.82a1.407,1.407,0,0,1,0,1.989h0l-6.69,6.69a3,3,0,0,0-2.737.811l-3.821,3.821A1.015,1.015,0,0,0,12.8,24.293l3.821-3.821a.968.968,0,0,1,1.367,0l.331.331.952.952-5.081,5.08a1.015,1.015,0,1,0,1.435,1.435L20.7,23.19l.782.783a.53.53,0,0,1,0,.749L7,39.211a.967.967,0,0,1-1.367,0L4.561,38.142l4.167-4.167a1.015,1.015,0,0,0-1.435-1.435L3.127,36.707l-.687-.687a.968.968,0,0,1,0-1.367l4.973-4.974a1.015,1.015,0,0,0-1.435-1.435L1,33.218a3,3,0,0,0,0,4.237ZM24.228,6.292a4.35,4.35,0,0,0-5.343-.634l-.405-.405,1.378-1.378a6.32,6.32,0,0,1,8.928,0l5.991,5.991-.279.511a1.014,1.014,0,0,0,.174,1.2l1.3,1.3a1.015,1.015,0,0,0,.977.264l.875-.231,1.653,1.653-4.291,4.291-1.653-1.652.231-.875a1.014,1.014,0,0,0-.264-.977l-1.3-1.3a1.015,1.015,0,0,0-1.323-.1l-1.384,1.029-2.837-2.837a3.441,3.441,0,0,0-.61-4.035Zm1.1,7.4,2.632,2.632-5.629,5.629L19.7,19.317Zm0,0" transform="translate(-0.115 0)" fill="#fff"/>
    <path id="Контур_1236" data-name="Контур 1236" d="M82.765,250.58a1.015,1.015,0,1,0-.717-.3A1.023,1.023,0,0,0,82.765,250.58Zm0,0" transform="translate(-73.455 -223.333)" fill="#fff"/>
  </g>
</svg>
