<svg xmlns="http://www.w3.org/2000/svg" width="55.104" height="61.217" viewBox="0 0 55.104 61.217">
  <g id="icon-pre-window" transform="translate(-177 16254.572)">
    <g id="window_4_" data-name="window (4)" transform="translate(179.009 -16254.572)">
      <path id="Контур_1186" data-name="Контур 1186" d="M581.114,61.544h-4.081a1.02,1.02,0,0,1-1.021-1.02V1.348a1.02,1.02,0,0,1,1.021-1.02h4.081a1.02,1.02,0,0,1,1.02,1.02V60.524A1.02,1.02,0,0,1,581.114,61.544Zm-3.061-2.04h2.04V2.368h-2.04Zm0,0" transform="translate(-529.038 -0.328)" fill="#fff"/>
      <path id="Контур_1187" data-name="Контур 1187" d="M326.275,61.543a1.038,1.038,0,0,1-.334-.056L299.414,52.3a1.02,1.02,0,0,1-.686-.964V10.529a1.02,1.02,0,0,1,.686-.964L325.941.382a1.021,1.021,0,0,1,1.354.964V60.523a1.02,1.02,0,0,1-1.02,1.02ZM300.767,50.614l24.487,8.48V2.775l-24.487,8.481Zm0,0" transform="translate(-278.28 -0.326)" fill="#fff"/>
      <path id="Контур_1188" data-name="Контур 1188" d="M360.768,110.642a1.013,1.013,0,0,1-.328-.055l-18.365-6.244a1.021,1.021,0,0,1-.692-.966V68.3a1.021,1.021,0,0,1,.692-.965l18.365-6.245a1.02,1.02,0,0,1,1.349.965v47.563a1.02,1.02,0,0,1-1.021,1.02Zm-17.345-7.995,16.325,5.549V63.484l-16.325,5.549Zm0,0" transform="translate(-316.855 -55.232)" fill="#fff"/>
      <path id="Контур_1189" data-name="Контур 1189" d="M459.716,306.084a1.01,1.01,0,0,1-.379-.072,1.02,1.02,0,0,1-.569-1.326l2.04-5.1a1.021,1.021,0,0,1,.948-.642h2.04a1.02,1.02,0,0,1,0,2.041h-1.35l-1.784,4.46A1.019,1.019,0,0,1,459.716,306.084Zm0,0" transform="translate(-422.945 -270.374)" fill="#fff"/>
      <path id="Контур_1190" data-name="Контур 1190" d="M118.019,14.652a.6.6,0,0,1-.6-.6V.925a.6.6,0,0,1,1.194,0v13.13A.6.6,0,0,1,118.019,14.652Zm0,0" transform="translate(-110.851 26.672)" fill="#fff"/>
      <path id="Контур_1191" data-name="Контур 1191" d="M87.943,14.1a.6.6,0,0,1-.422-.175l-1.79-1.79a.6.6,0,0,1,.844-.844l1.368,1.369,1.368-1.369a.6.6,0,0,1,.844.844l-1.791,1.79a.6.6,0,0,1-.422.175Zm0,0" transform="translate(-80.775 16.479)" fill="#fff"/>
      <path id="Контур_1192" data-name="Контур 1192" d="M89.733,195.282a.6.6,0,0,1-.422-.175l-1.368-1.368-1.368,1.368a.6.6,0,0,1-.844-.844l1.79-1.79a.6.6,0,0,1,.844,0l1.791,1.79a.6.6,0,0,1-.422,1.019Zm0,0" transform="translate(-80.775 -154.555)" fill="#fff"/>
      <path id="Контур_1193" data-name="Контур 1193" d="M20.068,66.741a.6.6,0,0,1-.28-.07L7.462,60.106a.6.6,0,1,1,.561-1.054l12.326,6.565a.6.6,0,0,1-.281,1.124Zm0,0" transform="translate(-6.746 -28.699)" fill="#fff"/>
      <path id="Контур_1194" data-name="Контур 1194" d="M.6,40.684a.6.6,0,0,1-.149-1.177L2.412,39l-.519-1.859a.6.6,0,1,1,1.149-.32l.683,2.447a.6.6,0,0,1-.426.738l-2.547.656a.6.6,0,0,1-.149.017Zm0,0" transform="translate(-0.001 -7.357)" fill="#fff"/>
      <path id="Контур_1195" data-name="Контур 1195" d="M190.523,147.538a.6.6,0,0,1-.574-.436l-.682-2.447a.6.6,0,0,1,.426-.738l2.546-.656a.6.6,0,0,1,.3,1.157l-1.956.5.518,1.859a.6.6,0,0,1-.575.757Zm0,0" transform="translate(-178.655 -108.242)" fill="#fff"/>
      <path id="Контур_1196" data-name="Контур 1196" d="M7.738,66.741a.6.6,0,0,1-.281-1.124l12.326-6.565a.6.6,0,0,1,.56,1.054L8.018,66.671a.594.594,0,0,1-.279.07Zm0,0" transform="translate(-6.741 -28.699)" fill="#fff"/>
      <path id="Контур_1197" data-name="Контур 1197" d="M2.58,147.556a.589.589,0,0,1-.161-.022A.6.6,0,0,1,2,146.8l.519-1.859-1.957-.5a.6.6,0,0,1,.3-1.156l2.547.656a.6.6,0,0,1,.426.738l-.683,2.447a.6.6,0,0,1-.575.435Zm0,0" transform="translate(-0.112 -108.261)" fill="#fff"/>
      <path id="Контур_1198" data-name="Контур 1198" d="M190.6,40.728a.6.6,0,0,1-.144-.017l-2.651-.656a.6.6,0,0,1-.43-.746l.71-2.447a.6.6,0,1,1,1.146.334l-.537,1.85,2.049.506a.6.6,0,0,1-.143,1.177Zm0,0" transform="translate(-176.87 -7.401)" fill="#fff"/>
      <path id="Контур_1199" data-name="Контур 1199" d="M193.1,229.143a1.021,1.021,0,0,1-.721-1.742l19.684-19.684L198.5,194.155a1.02,1.02,0,0,1,1.443-1.442L214.228,207a1.021,1.021,0,0,1,0,1.443l-20.406,20.406a1.021,1.021,0,0,1-.722.3Zm0,0" transform="translate(-181.836 -174.048)" fill="#fff"/>
      <path id="Контур_1200" data-name="Контур 1200" d="M201.261,479.784H193.1a1.02,1.02,0,0,1-1.02-1.021V470.6a1.02,1.02,0,0,1,2.04,0v7.142h7.142a1.02,1.02,0,1,1,0,2.04Zm0,0" transform="translate(-181.835 -424.689)" fill="#fff"/>
    </g>
    <g id="window_5_" data-name="window (5)" transform="translate(177 -16250.649)">
      <path id="Контур_1205" data-name="Контур 1205" d="M37.7,44.253a6.123,6.123,0,1,1,6.123-6.123A6.123,6.123,0,0,1,37.7,44.253Zm0-10.2a4.082,4.082,0,1,0,2.886,1.2A4.082,4.082,0,0,0,37.7,34.049Zm0,0" transform="translate(-28.517 -28.946)" fill="#fff"/>
      <path id="Контур_1206" data-name="Контур 1206" d="M85.934,5.106a1.02,1.02,0,0,1-1.02-1.021V1.024a1.02,1.02,0,1,1,2.041,0V4.086A1.021,1.021,0,0,1,85.934,5.106Zm0,0" transform="translate(-76.751 -0.004)" fill="#fff"/>
      <path id="Контур_1207" data-name="Контур 1207" d="M85.934,143.774a1.02,1.02,0,0,1-1.02-1.021v-3.061a1.02,1.02,0,1,1,2.041,0v3.061A1.02,1.02,0,0,1,85.934,143.774Zm0,0" transform="translate(-76.751 -125.406)" fill="#fff"/>
      <path id="Контур_1208" data-name="Контур 1208" d="M44.819,16.169a1.022,1.022,0,0,1-.885-.51L42.4,13.005a1.021,1.021,0,0,1,1.768-1.021L45.7,14.638a1.021,1.021,0,0,1-.883,1.531Zm0,0" transform="translate(-38.187 -10.382)" fill="#fff"/>
      <path id="Контур_1209" data-name="Контур 1209" d="M114.151,136.251a1.02,1.02,0,0,1-.885-.51l-1.531-2.653a1.02,1.02,0,0,1,1.767-1.02l1.531,2.653a1.02,1.02,0,0,1-.883,1.531Zm0,0" transform="translate(-100.885 -118.977)" fill="#fff"/>
      <path id="Контур_1210" data-name="Контур 1210" d="M14.711,46.276a1.015,1.015,0,0,1-.51-.136l-2.653-1.531a1.021,1.021,0,0,1,1.021-1.768l2.653,1.531a1.021,1.021,0,0,1-.51,1.9Zm0,0" transform="translate(-9.946 -38.622)" fill="#fff"/>
      <path id="Контур_1211" data-name="Контур 1211" d="M134.8,115.607a1.019,1.019,0,0,1-.51-.137l-2.653-1.531a1.02,1.02,0,0,1,1.02-1.767l2.653,1.53a1.021,1.021,0,0,1-.51,1.9Zm0,0" transform="translate(-118.543 -101.32)" fill="#fff"/>
      <path id="Контур_1212" data-name="Контур 1212" d="M3.664,87.381H.6a1.02,1.02,0,0,1,0-2.041H3.664a1.02,1.02,0,0,1,0,2.041Zm0,0" transform="translate(0.418 -77.176)" fill="#fff"/>
      <path id="Контур_1213" data-name="Контур 1213" d="M142.328,87.381h-3.062a1.02,1.02,0,0,1,0-2.041h3.062a1.02,1.02,0,0,1,0,2.041Zm0,0" transform="translate(-124.98 -77.176)" fill="#fff"/>
      <path id="Контур_1214" data-name="Контур 1214" d="M12.043,115.607a1.02,1.02,0,0,1-.51-1.9l2.653-1.53a1.02,1.02,0,0,1,1.02,1.767l-2.653,1.531a1.017,1.017,0,0,1-.51.137Zm0,0" transform="translate(-9.928 -101.32)" fill="#fff"/>
      <path id="Контур_1215" data-name="Контур 1215" d="M132.132,46.276a1.021,1.021,0,0,1-.51-1.9l2.653-1.531a1.021,1.021,0,0,1,1.021,1.768l-2.653,1.531A1.015,1.015,0,0,1,132.132,46.276Zm0,0" transform="translate(-118.528 -38.622)" fill="#fff"/>
      <path id="Контур_1216" data-name="Контур 1216" d="M43.276,136.145a1.02,1.02,0,0,1-.882-1.531l1.531-2.653a1.02,1.02,0,1,1,1.767,1.02l-1.531,2.653a1.02,1.02,0,0,1-.885.51Zm0,0" transform="translate(-38.175 -118.87)" fill="#fff"/>
      <path id="Контур_1217" data-name="Контур 1217" d="M112.609,16.169a1.021,1.021,0,0,1-.883-1.531l1.531-2.653a1.021,1.021,0,0,1,1.768,1.021l-1.531,2.653a1.022,1.022,0,0,1-.885.51Zm0,0" transform="translate(-100.874 -10.382)" fill="#fff"/>
    </g>
  </g>
</svg>
