<svg xmlns="http://www.w3.org/2000/svg" width="56.637" height="55.07" viewBox="0 0 56.637 55.07">
  <g id="icon-outline" transform="translate(-16 -16)">
    <path id="Контур_1184" data-name="Контур 1184" d="M20.969,67.4H65.563V65.563H21.507V49.769H19.671V66.1l-1.836,1.836v-48.8l1.836,1.836V41.814h1.836V21.507H41.432V19.671H20.969l-1.836-1.836h48.8L66.1,19.671H49.769v1.836H65.563V46.1H67.4V20.969l1.836-1.836V49.463H71.07V16.918A.918.918,0,0,0,70.152,16H16.918a.918.918,0,0,0-.918.918V70.152a.918.918,0,0,0,.918.918H67.9V69.235H19.134Z" fill="#fff"/>
    <path id="Контур_1185" data-name="Контур 1185" d="M96.645,83.258l3.022,3.022,1.3-1.3L97.943,81.96l.269-.269a.918.918,0,0,0,0-1.3l-12.85-12.85a.918.918,0,0,0-.649-.269H71.139l-1.111-1.153V59.394L77.1,52.32a.918.918,0,0,0,0-1.3l-2.754-2.754a.918.918,0,0,0-1.3,0L64.79,56.529l1.3,1.3L73.7,50.216l1.456,1.456L51.671,75.155,50.216,73.7,64.252,59.663l-1.3-1.3L48.269,73.05a.918.918,0,0,0,0,1.3L51.022,77.1a.918.918,0,0,0,1.3,0l7.074-7.074h6.442l1.507,1.562a2.752,2.752,0,0,0,1.768,4.863,2.757,2.757,0,0,0,2.754,2.754,2.757,2.757,0,0,0,2.754,2.754,2.757,2.757,0,0,0,2.754,2.754H80l5.433,5.634A2.862,2.862,0,0,0,90.2,89.3h.024a.915.915,0,0,0,.649-.269l.269-.269,7.612,7.612,1.3-1.3-7.612-7.612ZM69.271,70.946l-1.695-1.757,1.456-1.455,3.1,3.212ZM68.192,61.23v4.747l-2.216,2.216H61.23Zm8.261,20.73v-.918a.918.918,0,0,0-.918-.918h-.918a.919.919,0,0,1-.918-.918v-.918a.918.918,0,0,0-.918-.918h-.918a.919.919,0,0,1-.918-.918v-.918a.918.918,0,0,0-.918-.918H69.11a.918.918,0,0,1,0-1.836h10.1V70.946H74.679l-1.77-1.836H84.333L96.265,81.042,90.22,87.087l-1-1,4.4-4.4-1.3-1.3-4.4,4.4L86.28,83.146a.918.918,0,0,0-.649-.269H77.371A.919.919,0,0,1,76.453,81.96ZM88.22,89.087a1.028,1.028,0,0,1-1.468-.013l-4.2-4.361h2.7l3.13,3.13A1.027,1.027,0,0,1,88.22,89.087Z" transform="translate(-28.328 -28.328)" fill="#fff"/>
    <rect id="Прямоугольник_5117" data-name="Прямоугольник 5117" width="1.836" height="20.13" transform="translate(48.414 26.766) rotate(-46.848)" fill="#fff"/>
    <rect id="Прямоугольник_5118" data-name="Прямоугольник 5118" width="1.836" height="20.768" transform="translate(25.447 49.691) rotate(-45)" fill="#fff"/>
    <rect id="Прямоугольник_5119" data-name="Прямоугольник 5119" width="1.836" height="10.384" transform="matrix(0.707, -0.707, 0.707, 0.707, 53.9, 25.827)" fill="#fff"/>
    <rect id="Прямоугольник_5120" data-name="Прямоугольник 5120" width="1.836" height="10.384" transform="matrix(0.707, -0.707, 0.707, 0.707, 24.53, 55.198)" fill="#fff"/>
  </g>
</svg>
