<svg xmlns="http://www.w3.org/2000/svg" width="47.066" height="47.073" viewBox="0 0 47.066 47.073">
  <g id="icon-enable-sound" transform="translate(-0.035)">
    <path id="Контур_1120" data-name="Контур 1120" d="M18.636,282.479,16.329,269.8l-6.555,2.977-6.388,2.9L4.87,283.86a4.086,4.086,0,0,0-1.4,0,4.138,4.138,0,1,0,4.816,3.323l-1.8-9.883L9.774,275.8l4.478-2.034.97,5.384a4.129,4.129,0,1,0,3.413,3.324Z" transform="translate(0 -244.993)" fill="#9bf"/>
    <path id="Контур_1121" data-name="Контур 1121" d="M111.412,279.156a4.129,4.129,0,1,0,3.413,3.325L112.519,269.8l-6.555,2.977v3.03l4.478-2.034Z" transform="translate(-96.19 -244.994)" fill="#8095ff"/>
    <path id="Контур_1122" data-name="Контур 1122" d="M196.11,1.531,191.485,2l-1.669,12.625A5.481,5.481,0,0,0,181,18.175a5.516,5.516,0,1,0,10.917,1.587l2.017-15.24,2.179-.22,12.067-1.207-1.3,9.818a5.446,5.446,0,0,0-2.568-1.117,5.516,5.516,0,1,0,4.665,6.25c0-.006,2.395-18.046,2.395-18.046Z" transform="translate(-164.27)" fill="#9bf"/>
    <path id="Контур_1123" data-name="Контур 1123" d="M356.735,12.912a5.446,5.446,0,0,0-2.568-1.117,5.516,5.516,0,1,0,4.665,6.25c0-.006,2.395-18.046,2.395-18.046L345.965,1.531V4.3l12.067-1.207Z" transform="translate(-314.125)" fill="#8095ff"/>
    <path id="Контур_1124" data-name="Контур 1124" d="M295.423,274.428l-4.515,9.456a4.026,4.026,0,0,0-2.728-1.225,4.138,4.138,0,1,0-.2,8.271c.067,0,.131-.024.2-.028a4.128,4.128,0,0,0,3.543-2.324h0l3.32-6.952,1.491,4.217,2.6-.918Z" transform="translate(-257.719 -249.197)" fill="#ffd480"/>
    <path id="Контур_1125" data-name="Контур 1125" d="M334.508,288.578h0l3.32-6.952,1.491,4.217,2.6-.918-3.71-10.5-4.515,9.456a4.025,4.025,0,0,0-2.728-1.225V290.9A4.128,4.128,0,0,0,334.508,288.578Z" transform="translate(-300.504 -249.197)" fill="#fb3"/>
    <path id="Контур_1126" data-name="Контур 1126" d="M36.9,46.67l-7.225-4.787-2.054-1.361,2.054,10.121.031.152c-.01,0-.021,0-.031,0a4.108,4.108,0,1,0,3.507,3.253L31.649,46.5l3.728,2.471Z" transform="translate(-22.66 -36.796)" fill="#ffd480"/>
    <path id="Контур_1127" data-name="Контур 1127" d="M79.471,67.487l-1.534-7.55,3.728,2.471,1.525-2.3-7.225-4.787v8.76l.031.152c-.01,0-.021,0-.031,0v8.151A4.122,4.122,0,0,0,79.471,67.487Z" transform="translate(-68.948 -50.235)" fill="#fb3"/>
  </g>
</svg>
