<svg id="_025-instagram" data-name="025-instagram" xmlns="http://www.w3.org/2000/svg" width="14.57" height="14.57" viewBox="0 0 14.57 14.57">
  <path id="Контур_369" data-name="Контур 369" d="M12.436,0H2.134A2.137,2.137,0,0,0,0,2.134v10.3A2.137,2.137,0,0,0,2.134,14.57h10.3a2.137,2.137,0,0,0,2.134-2.134V2.134A2.137,2.137,0,0,0,12.436,0ZM7.314,11.1a3.842,3.842,0,1,1,3.842-3.842A3.846,3.846,0,0,1,7.314,11.1Zm4.269-6.83a1.281,1.281,0,1,1,1.281-1.281A1.282,1.282,0,0,1,11.582,4.269Zm0,0" fill="#2d85b8"/>
  <path id="Контур_370" data-name="Контур 370" d="M392.427,90a.427.427,0,1,0,.427.427A.427.427,0,0,0,392.427,90Zm0,0" transform="translate(-380.845 -87.439)" fill="#2d85b8"/>
  <path id="Контур_371" data-name="Контур 371" d="M154.988,150a2.988,2.988,0,1,0,2.988,2.988A2.992,2.992,0,0,0,154.988,150Zm0,0" transform="translate(-147.674 -145.731)" fill="#2d85b8"/>
</svg>
