<svg id="like" xmlns="http://www.w3.org/2000/svg" width="42.777" height="36.217" viewBox="0 0 42.777 36.217">
  <g id="Сгруппировать_420" data-name="Сгруппировать 420" transform="translate(9.058 22.69)">
    <g id="Сгруппировать_419" data-name="Сгруппировать 419">
      <circle id="Эллипс_568" data-name="Эллипс 568" cx="0.835" cy="0.835" r="0.835" fill="#fff"/>
    </g>
  </g>
  <g id="Сгруппировать_422" data-name="Сгруппировать 422">
    <g id="Сгруппировать_421" data-name="Сгруппировать 421">
      <path id="Контур_970" data-name="Контур 970" d="M42.777,55.806V55.72a3.513,3.513,0,0,0-3.509-3.509H29.254a15.1,15.1,0,0,0,2.024-7.326c.007-.434,0-.882,0-1.357,0-.307,0-.631,0-.981A3.29,3.29,0,0,0,28,39.26a3.252,3.252,0,0,0-2.344.975,3.157,3.157,0,0,0-.8,1.532,14.969,14.969,0,0,1-.911,2.937,20.454,20.454,0,0,1-5.808,7.744,19.5,19.5,0,0,1-2.1,1.484,2.351,2.351,0,0,0-2.262-1.721H.835A.836.836,0,0,0,0,53.047V74.641a.836.836,0,0,0,.835.835H13.773a2.35,2.35,0,0,0,2.338-2.144,8.788,8.788,0,0,0,5.77,2.144H39.268a3.507,3.507,0,0,0,2.27-6.182,3.5,3.5,0,0,0,1.238-2.673v-.1a3.5,3.5,0,0,0-1.238-2.673,3.5,3.5,0,0,0,1.238-2.673v-.018a3.5,3.5,0,0,0-1.238-2.673A3.5,3.5,0,0,0,42.777,55.806Zm-28.328-.5V73.129a.677.677,0,0,1-.676.676H10.728V66.526a.835.835,0,0,0-1.671,0v7.279H1.671V53.882h12.1a.677.677,0,0,1,.676.676v.751Zm22.505,4.005h2.314a1.84,1.84,0,0,1,1.838,1.838v.018a1.84,1.84,0,0,1-1.838,1.838H36.954a.835.835,0,0,0,0,1.671h2.314a1.84,1.84,0,0,1,1.838,1.838v.1a1.84,1.84,0,0,1-1.838,1.838H36.954a.835.835,0,0,0,0,1.671h2.314a1.838,1.838,0,1,1,0,3.675H21.881A7.13,7.13,0,0,1,16.908,71.8l-.788-.76V55.818a21.248,21.248,0,0,0,3.065-2.075,22.108,22.108,0,0,0,6.283-8.368,16.607,16.607,0,0,0,1.016-3.262,1.468,1.468,0,0,1,.376-.723,1.558,1.558,0,0,1,1.093-.46h.035A1.618,1.618,0,0,1,29.6,42.548c0,.355,0,.683,0,.994,0,.464.007.9,0,1.317a13.478,13.478,0,0,1-2.565,7.7.835.835,0,0,0,.678,1.324H39.268a1.84,1.84,0,0,1,1.838,1.838v.087h0a1.84,1.84,0,0,1-1.838,1.838H36.954a.835.835,0,1,0,0,1.671Z" transform="translate(0 -39.259)" fill="#fff"/>
    </g>
  </g>
</svg>
