<svg xmlns="http://www.w3.org/2000/svg" width="34.402" height="33.025" viewBox="0 0 34.402 33.025">
  <g id="likes" transform="translate(0 -9.137)">
    <g id="Сгруппировать_275" data-name="Сгруппировать 275" transform="translate(0 9.136)">
      <path id="Контур_633" data-name="Контур 633" d="M159.938,27.477a4.713,4.713,0,0,0,1.183-3.2,4.184,4.184,0,0,0-4.127-4.129h-5.956a5.415,5.415,0,0,1,.172-.516,3.6,3.6,0,0,1,.236-.473q.15-.258.215-.387.387-.731.592-1.2a8.784,8.784,0,0,0,.408-1.29,6.7,6.7,0,0,0,.2-1.634c0-.344,0-.624-.011-.838a9.252,9.252,0,0,0-.107-.968,5.429,5.429,0,0,0-.258-1.075,5.01,5.01,0,0,0-.516-.968,3.015,3.015,0,0,0-.86-.871,4.712,4.712,0,0,0-1.29-.559,6.421,6.421,0,0,0-1.774-.226,1.323,1.323,0,0,0-.967.409,3.734,3.734,0,0,0-.731,1.075,6.4,6.4,0,0,0-.42,1.118q-.118.473-.268,1.312-.194.9-.291,1.3a6.878,6.878,0,0,1-.376,1.043,3.3,3.3,0,0,1-.667,1.032A31.788,31.788,0,0,0,142.156,19q-1.054,1.376-2.172,2.6t-1.634,1.269a1.41,1.41,0,0,0-.924.441,1.3,1.3,0,0,0-.387.935V38.034a1.287,1.287,0,0,0,.408.957,1.422,1.422,0,0,0,.967.42,15.721,15.721,0,0,1,3.4.946q1.655.558,2.591.849t2.612.624a15.976,15.976,0,0,0,3.1.333h2.774a5.342,5.342,0,0,0,4.236-1.677,5.169,5.169,0,0,0,1.054-3.892,4.183,4.183,0,0,0,1.161-2.021,4.422,4.422,0,0,0,0-2.515,4.462,4.462,0,0,0,.924-2.946A5.125,5.125,0,0,0,159.938,27.477Z" transform="translate(-126.719 -9.136)" fill="#fff"/>
      <path id="Контур_634" data-name="Контур 634" d="M7.569,191.864H1.376a1.322,1.322,0,0,0-.968.409A1.322,1.322,0,0,0,0,193.24V207a1.323,1.323,0,0,0,.409.967,1.325,1.325,0,0,0,.968.408H7.569A1.395,1.395,0,0,0,8.945,207V193.24a1.4,1.4,0,0,0-1.376-1.376ZM5.1,205.227a1.34,1.34,0,0,1-.968.4,1.376,1.376,0,0,1-.978-2.343,1.362,1.362,0,0,1,1.946,0,1.362,1.362,0,0,1,0,1.946Z" transform="translate(0 -178.103)" fill="#fff"/>
    </g>
  </g>
</svg>
