<svg xmlns="http://www.w3.org/2000/svg" width="39.944" height="52.881" viewBox="0 0 39.944 52.881">
  <g id="list" transform="translate(-62.63)">
    <g id="Сгруппировать_507" data-name="Сгруппировать 507" transform="translate(62.63)">
      <path id="Контур_1022" data-name="Контур 1022" d="M98.669,0H82.742a.775.775,0,0,0,0,1.549h8.474V3.9a.269.269,0,0,1-.269.27H88.862a.775.775,0,0,0-.775.775V7.035a.269.269,0,0,1-.269.269H77.385a.269.269,0,0,1-.269-.269V4.948a.775.775,0,0,0-.775-.775H74.255a.269.269,0,0,1-.269-.27V1.549h5.14a.775.775,0,1,0,0-1.549H66.534a3.909,3.909,0,0,0-3.9,3.9V8.453a.775.775,0,0,0,1.549,0V3.9a2.358,2.358,0,0,1,2.355-2.355h5.9V3.9a1.826,1.826,0,0,0,.022.27H67.578a.775.775,0,0,0-.775.775V47.933a.775.775,0,0,0,.775.775H97.625a.775.775,0,0,0,.775-.775v-15.2a.775.775,0,1,0-1.549,0V47.158h-28.5V5.723h7.214V7.035a1.82,1.82,0,0,0,1.818,1.818H87.819a1.82,1.82,0,0,0,1.818-1.818V5.723h7.214v23.4a.775.775,0,0,0,1.549,0V4.948a.775.775,0,0,0-.775-.775H92.744a1.813,1.813,0,0,0,.022-.27V1.549h5.9A2.358,2.358,0,0,1,101.024,3.9V48.977a2.358,2.358,0,0,1-2.355,2.355H66.534a2.358,2.358,0,0,1-2.355-2.355V12.068a.775.775,0,1,0-1.549,0V48.977a3.909,3.909,0,0,0,3.9,3.9H98.669a3.909,3.909,0,0,0,3.9-3.9V3.9a3.909,3.909,0,0,0-3.9-3.9Z" transform="translate(-62.63)" fill="#fff"/>
      <path id="Контур_1023" data-name="Контур 1023" d="M138.223,124.25a2.861,2.861,0,1,0,2.861,2.861A2.865,2.865,0,0,0,138.223,124.25Zm0,4.173a1.312,1.312,0,1,1,1.312-1.312A1.313,1.313,0,0,1,138.223,128.423Z" transform="translate(-127.85 -111.417)" fill="#fff"/>
      <path id="Контур_1024" data-name="Контур 1024" d="M222.915,124.25H206.848a.775.775,0,0,0,0,1.549h16.067a.775.775,0,0,0,0-1.549Z" transform="translate(-191.258 -111.417)" fill="#fff"/>
      <path id="Контур_1025" data-name="Контур 1025" d="M206.848,166.205h11.894a.775.775,0,0,0,0-1.549H206.848a.775.775,0,1,0,0,1.549Z" transform="translate(-191.258 -147.65)" fill="#fff"/>
      <path id="Контур_1026" data-name="Контур 1026" d="M138.223,197.992a2.861,2.861,0,1,0,2.861,2.861A2.865,2.865,0,0,0,138.223,197.992Zm0,4.173a1.312,1.312,0,1,1,1.312-1.312A1.313,1.313,0,0,1,138.223,202.165Z" transform="translate(-127.85 -177.543)" fill="#fff"/>
      <path id="Контур_1027" data-name="Контур 1027" d="M222.915,197.992H206.848a.775.775,0,0,0,0,1.549h16.067a.775.775,0,0,0,0-1.549Z" transform="translate(-191.258 -177.543)" fill="#fff"/>
      <path id="Контур_1028" data-name="Контур 1028" d="M206.848,239.947h11.894a.775.775,0,0,0,0-1.549H206.848a.775.775,0,1,0,0,1.549Z" transform="translate(-191.258 -213.776)" fill="#fff"/>
      <path id="Контур_1029" data-name="Контур 1029" d="M138.223,271.733a2.861,2.861,0,1,0,2.861,2.861A2.865,2.865,0,0,0,138.223,271.733Zm0,4.173a1.312,1.312,0,1,1,1.312-1.312A1.314,1.314,0,0,1,138.223,275.906Z" transform="translate(-127.85 -243.668)" fill="#fff"/>
      <path id="Контур_1030" data-name="Контур 1030" d="M222.915,271.733H206.848a.775.775,0,1,0,0,1.549h16.067a.775.775,0,0,0,0-1.549Z" transform="translate(-191.258 -243.668)" fill="#fff"/>
      <path id="Контур_1031" data-name="Контур 1031" d="M206.848,313.69h11.894a.775.775,0,0,0,0-1.549H206.848a.775.775,0,1,0,0,1.549Z" transform="translate(-191.258 -279.902)" fill="#fff"/>
      <path id="Контур_1032" data-name="Контур 1032" d="M138.223,345.476a2.861,2.861,0,1,0,2.861,2.861A2.865,2.865,0,0,0,138.223,345.476Zm0,4.173a1.312,1.312,0,1,1,1.312-1.312A1.313,1.313,0,0,1,138.223,349.649Z" transform="translate(-127.85 -309.794)" fill="#fff"/>
      <path id="Контур_1033" data-name="Контур 1033" d="M223.69,346.251a.775.775,0,0,0-.775-.775H206.848a.775.775,0,1,0,0,1.549h16.067A.775.775,0,0,0,223.69,346.251Z" transform="translate(-191.258 -309.794)" fill="#fff"/>
      <path id="Контур_1034" data-name="Контур 1034" d="M206.848,385.882a.775.775,0,1,0,0,1.549h11.894a.775.775,0,0,0,0-1.549Z" transform="translate(-191.258 -346.027)" fill="#fff"/>
    </g>
  </g>
</svg>
