<svg id="Слой_1" data-name="Слой 1" xmlns="http://www.w3.org/2000/svg" xmlns:xlink="http://www.w3.org/1999/xlink" viewBox="0 0 104.5 50.28"><defs><style>.cls-1{fill:#fff;stroke-miterlimit:10;}.cls-1,.cls-7{stroke:#b3b4b4;}.cls-2{fill:url(#Безымянный_градиент_19);}.cls-3{fill:#b3b4b4;}.cls-4{fill:url(#Безымянный_градиент_19-2);}.cls-5{fill:url(#Безымянный_градиент_19-3);}.cls-6{fill:url(#Безымянный_градиент_19-4);}.cls-7{fill:none;stroke-linecap:round;stroke-linejoin:bevel;stroke-width:0.75px;}</style><linearGradient id="Безымянный_градиент_19" x1="15.61" y1="44.22" x2="15.61" y2="6.17" gradientUnits="userSpaceOnUse"><stop offset="0" stop-color="#fff"/><stop offset="1" stop-color="#c0e7f9"/></linearGradient><linearGradient id="Безымянный_градиент_19-2" x1="40.15" y1="44.22" x2="40.15" y2="6.17" xlink:href="#Безымянный_градиент_19"/><linearGradient id="Безымянный_градиент_19-3" x1="64.71" y1="44.22" x2="64.71" y2="6.17" xlink:href="#Безымянный_градиент_19"/><linearGradient id="Безымянный_градиент_19-4" x1="88.86" y1="44.22" x2="88.86" y2="6.17" xlink:href="#Безымянный_градиент_19"/></defs><title>sЛоджия1</title><rect class="cls-1" x="0.74" y="0.69" width="103.2" height="49"/><rect class="cls-2" x="6.23" y="6.17" width="18.77" height="38.06"/><path class="cls-3" d="M24.5,6.67V43.72H6.73v-37H24.5m1-1H5.73V44.72H25.5v-39Z"/><rect class="cls-4" x="30.18" y="6.17" width="19.95" height="38.06"/><path class="cls-3" d="M49.62,6.67V43.72H30.68v-37H49.62m1-1H29.68V44.72H50.62v-39Z"/><rect class="cls-5" x="55.18" y="6.17" width="19.07" height="38.06"/><path class="cls-3" d="M73.75,6.67V43.72H55.68v-37H73.75m1-1H54.68V44.72H74.75v-39Z"/><rect class="cls-6" x="79.33" y="6.17" width="19.07" height="38.06"/><path class="cls-3" d="M97.9,6.67V43.72H79.83v-37H97.9m1-1H78.83V44.72H98.9v-39Z"/><polyline class="cls-7" points="49.72 5.98 30.58 24.67 49.72 44.04 40.15 5.67 30.58 43.73"/><polyline class="cls-7" points="74.29 6.32 55.14 25.01 74.29 44.38 64.71 6.01 55.14 44.07"/><line class="cls-7" x1="14" y1="22.46" x2="18.42" y2="27.93"/><line class="cls-7" x1="18.42" y1="22.46" x2="14" y2="27.93"/><line class="cls-7" x1="86.65" y1="22.46" x2="91.07" y2="27.93"/><line class="cls-7" x1="91.07" y1="22.46" x2="86.65" y2="27.93"/></svg>