<svg id="Слой_1" data-name="Слой 1" xmlns="http://www.w3.org/2000/svg" xmlns:xlink="http://www.w3.org/1999/xlink" viewBox="0 0 104.35 50.25"><defs><style>.cls-1{fill:#fff;stroke:#b3b4b4;stroke-miterlimit:10;}.cls-2{fill:url(#Безымянный_градиент_19);}.cls-3{fill:#b3b4b4;}.cls-4{fill:url(#Безымянный_градиент_19-2);}.cls-5{fill:url(#Безымянный_градиент_19-3);}.cls-6{fill:url(#Безымянный_градиент_19-4);}</style><linearGradient id="Безымянный_градиент_19" x1="15.4" y1="44.22" x2="15.4" y2="6.17" gradientUnits="userSpaceOnUse"><stop offset="0" stop-color="#fff"/><stop offset="1" stop-color="#c0e7f9"/></linearGradient><linearGradient id="Безымянный_градиент_19-2" x1="39.94" y1="44.22" x2="39.94" y2="6.17" xlink:href="#Безымянный_градиент_19"/><linearGradient id="Безымянный_градиент_19-3" x1="64.5" y1="44.22" x2="64.5" y2="6.17" xlink:href="#Безымянный_градиент_19"/><linearGradient id="Безымянный_градиент_19-4" x1="88.65" y1="44.22" x2="88.65" y2="6.17" xlink:href="#Безымянный_градиент_19"/></defs><title>sЛоджия</title><rect class="cls-1" x="0.53" y="0.69" width="103.2" height="49"/><rect class="cls-2" x="6.01" y="6.17" width="18.77" height="38.06"/><path class="cls-3" d="M24.29,6.67V43.72H6.51v-37H24.29m1-1H5.51V44.72H25.29v-39Z"/><rect class="cls-4" x="29.97" y="6.17" width="19.95" height="38.06"/><path class="cls-3" d="M49.41,6.67V43.72H30.47v-37H49.41m1-1H29.47V44.72H50.41v-39Z"/><rect class="cls-5" x="54.97" y="6.17" width="19.07" height="38.06"/><path class="cls-3" d="M73.54,6.67V43.72H55.47v-37H73.54m1-1H54.47V44.72H74.54v-39Z"/><rect class="cls-6" x="79.11" y="6.17" width="19.07" height="38.06"/><path class="cls-3" d="M97.68,6.67V43.72H79.61v-37H97.68m1-1H78.61V44.72H98.68v-39Z"/></svg>