<svg id="Слой_1" data-name="Слой 1" xmlns="http://www.w3.org/2000/svg" xmlns:xlink="http://www.w3.org/1999/xlink" viewBox="0 0 104.19 75.14"><defs><style>.cls-1{fill:#fff;stroke:#b3b4b4;stroke-miterlimit:10;}.cls-2{fill:url(#Безымянный_градиент_19);}.cls-3{fill:#b3b4b4;}.cls-4{fill:url(#Безымянный_градиент_19-2);}.cls-5{fill:url(#Безымянный_градиент_19-3);}.cls-6{fill:url(#Безымянный_градиент_19-4);}.cls-7{fill:url(#Безымянный_градиент_19-5);}.cls-8{fill:url(#Безымянный_градиент_19-6);}.cls-9{fill:url(#Безымянный_градиент_19-7);}.cls-10{fill:url(#Безымянный_градиент_19-8);}</style><linearGradient id="Безымянный_градиент_19" x1="15.71" y1="44.19" x2="15.71" y2="6.13" gradientUnits="userSpaceOnUse"><stop offset="0" stop-color="#fff"/><stop offset="1" stop-color="#c0e7f9"/></linearGradient><linearGradient id="Безымянный_градиент_19-2" x1="40.02" y1="44.19" x2="40.02" y2="6.13" xlink:href="#Безымянный_градиент_19"/><linearGradient id="Безымянный_градиент_19-3" x1="64.83" y1="44.19" x2="64.83" y2="6.13" xlink:href="#Безымянный_градиент_19"/><linearGradient id="Безымянный_градиент_19-4" x1="88.58" y1="44.19" x2="88.58" y2="6.13" xlink:href="#Безымянный_градиент_19"/><linearGradient id="Безымянный_градиент_19-5" x1="15.71" y1="69.05" x2="15.71" y2="53.47" xlink:href="#Безымянный_градиент_19"/><linearGradient id="Безымянный_градиент_19-6" x1="40.24" y1="69.05" x2="40.24" y2="53.47" xlink:href="#Безымянный_градиент_19"/><linearGradient id="Безымянный_градиент_19-7" x1="64.83" y1="69.05" x2="64.83" y2="53.47" xlink:href="#Безымянный_градиент_19"/><linearGradient id="Безымянный_градиент_19-8" x1="88.58" y1="69.05" x2="88.58" y2="53.47" xlink:href="#Безымянный_градиент_19"/></defs><title>sФранцузское остекление лоджии</title><rect class="cls-1" x="0.54" y="0.59" width="103.2" height="48.43"/><rect class="cls-1" x="0.54" y="49.02" width="103.2" height="25.57"/><rect class="cls-2" x="6.21" y="6.13" width="18.99" height="38.06"/><path class="cls-3" d="M24.7,6.63V43.69h-18V6.63h18m1-1h-20V44.69h20V5.63Z"/><rect class="cls-4" x="30.09" y="6.13" width="19.86" height="38.06"/><path class="cls-3" d="M49.45,6.63V43.69H30.59V6.63H49.45m1-1H29.59V44.69H50.45V5.63Z"/><rect class="cls-5" x="55.34" y="6.13" width="18.99" height="38.06"/><path class="cls-3" d="M73.82,6.63V43.69h-18V6.63h18m1-1h-20V44.69h20V5.63Z"/><rect class="cls-6" x="79.09" y="6.13" width="18.99" height="38.06"/><path class="cls-3" d="M97.57,6.63V43.69h-18V6.63h18m1-1h-20V44.69h20V5.63Z"/><rect class="cls-7" x="6.21" y="53.47" width="18.99" height="15.58"/><path class="cls-3" d="M24.7,54V68.55h-18V54h18m1-1h-20V69.55h20V53Z"/><rect class="cls-8" x="30.53" y="53.47" width="19.42" height="15.58"/><path class="cls-3" d="M49.45,54V68.55H31V54H49.45m1-1H30V69.55H50.45V53Z"/><rect class="cls-9" x="55.34" y="53.47" width="18.99" height="15.58"/><path class="cls-3" d="M73.82,54V68.55h-18V54h18m1-1h-20V69.55h20V53Z"/><rect class="cls-10" x="79.09" y="53.47" width="18.99" height="15.58"/><path class="cls-3" d="M97.57,54V68.55h-18V54h18m1-1h-20V69.55h20V53Z"/></svg>