<svg id="Слой_1" data-name="Слой 1" xmlns="http://www.w3.org/2000/svg" xmlns:xlink="http://www.w3.org/1999/xlink" viewBox="0 0 137.57 75"><defs><style>.cls-1{fill:#fff;stroke:#b3b4b4;stroke-miterlimit:10;}.cls-2{fill:url(#Безымянный_градиент_19);}.cls-3{fill:#b3b4b4;}.cls-4{fill:url(#Безымянный_градиент_19-2);}.cls-5{fill:url(#Безымянный_градиент_19-3);}.cls-6{fill:url(#Безымянный_градиент_19-4);}.cls-7{fill:url(#Безымянный_градиент_19-5);}.cls-8{fill:url(#Безымянный_градиент_19-6);}.cls-9{fill:url(#Безымянный_градиент_19-7);}.cls-10{fill:url(#Безымянный_градиент_19-8);}.cls-11{fill:url(#Безымянный_градиент_19-9);}.cls-12{fill:url(#Безымянный_градиент_19-10);}</style><linearGradient id="Безымянный_градиент_19" x1="15.79" y1="44.1" x2="15.79" y2="6.04" gradientUnits="userSpaceOnUse"><stop offset="0" stop-color="#fff"/><stop offset="1" stop-color="#c0e7f9"/></linearGradient><linearGradient id="Безымянный_градиент_19-2" x1="40.1" y1="44.1" x2="40.1" y2="6.04" xlink:href="#Безымянный_градиент_19"/><linearGradient id="Безымянный_градиент_19-3" x1="64.91" y1="44.1" x2="64.91" y2="6.04" xlink:href="#Безымянный_градиент_19"/><linearGradient id="Безымянный_градиент_19-4" x1="88.66" y1="44.1" x2="88.66" y2="6.04" xlink:href="#Безымянный_градиент_19"/><linearGradient id="Безымянный_градиент_19-5" x1="15.79" y1="68.96" x2="15.79" y2="53.37" xlink:href="#Безымянный_градиент_19"/><linearGradient id="Безымянный_градиент_19-6" x1="40.32" y1="68.96" x2="40.32" y2="53.37" xlink:href="#Безымянный_градиент_19"/><linearGradient id="Безымянный_градиент_19-7" x1="64.91" y1="68.96" x2="64.91" y2="53.37" xlink:href="#Безымянный_градиент_19"/><linearGradient id="Безымянный_градиент_19-8" x1="88.66" y1="68.96" x2="88.66" y2="53.37" xlink:href="#Безымянный_градиент_19"/><linearGradient id="Безымянный_градиент_19-9" x1="121.84" y1="44.1" x2="121.84" y2="6.04" xlink:href="#Безымянный_градиент_19"/><linearGradient id="Безымянный_градиент_19-10" x1="121.84" y1="68.96" x2="121.84" y2="53.37" xlink:href="#Безымянный_градиент_19"/></defs><title>sГ-образный французский балкон</title><rect class="cls-1" x="0.63" y="0.5" width="103.2" height="48.43"/><rect class="cls-1" x="0.63" y="48.93" width="103.2" height="25.57"/><rect class="cls-2" x="6.3" y="6.04" width="18.99" height="38.06"/><path class="cls-3" d="M24.78,6.54V43.6H6.8V6.54h18m1-1H5.8V44.6h20V5.54Z"/><rect class="cls-4" x="30.17" y="6.04" width="19.86" height="38.06"/><path class="cls-3" d="M49.53,6.54V43.6H30.67V6.54H49.53m1-1H29.67V44.6H50.53V5.54Z"/><rect class="cls-5" x="55.42" y="6.04" width="18.99" height="38.06"/><path class="cls-3" d="M73.91,6.54V43.6h-18V6.54h18m1-1h-20V44.6h20V5.54Z"/><rect class="cls-6" x="79.17" y="6.04" width="18.99" height="38.06"/><path class="cls-3" d="M97.66,6.54V43.6h-18V6.54h18m1-1h-20V44.6h20V5.54Z"/><rect class="cls-7" x="6.3" y="53.37" width="18.99" height="15.58"/><path class="cls-3" d="M24.78,53.87V68.46H6.8V53.87h18m1-1H5.8V69.46h20V52.87Z"/><rect class="cls-8" x="30.61" y="53.37" width="19.42" height="15.58"/><path class="cls-3" d="M49.53,53.87V68.46H31.11V53.87H49.53m1-1H30.11V69.46H50.53V52.87Z"/><rect class="cls-9" x="55.42" y="53.37" width="18.99" height="15.58"/><path class="cls-3" d="M73.91,53.87V68.46h-18V53.87h18m1-1h-20V69.46h20V52.87Z"/><rect class="cls-10" x="79.17" y="53.37" width="18.99" height="15.58"/><path class="cls-3" d="M97.66,53.87V68.46h-18V53.87h18m1-1h-20V69.46h20V52.87Z"/><rect class="cls-1" x="106.68" y="0.5" width="30.36" height="48.43"/><rect class="cls-1" x="106.68" y="48.93" width="30.36" height="25.57"/><rect class="cls-11" x="112.35" y="6.04" width="18.99" height="38.06"/><path class="cls-3" d="M130.84,6.54V43.6h-18V6.54h18m1-1h-20V44.6h20V5.54Z"/><rect class="cls-12" x="112.35" y="53.37" width="18.99" height="15.58"/><path class="cls-3" d="M130.84,53.87V68.46h-18V53.87h18m1-1h-20V69.46h20V52.87Z"/></svg>