<svg id="Слой_1" data-name="Слой 1" xmlns="http://www.w3.org/2000/svg" xmlns:xlink="http://www.w3.org/1999/xlink" viewBox="0 0 136.42 50.02"><defs><style>.cls-1{fill:#fff;stroke-miterlimit:10;}.cls-1,.cls-8{stroke:#b3b4b4;}.cls-2{fill:url(#Безымянный_градиент_19);}.cls-3{fill:#b3b4b4;}.cls-4{fill:url(#Безымянный_градиент_19-2);}.cls-5{fill:url(#Безымянный_градиент_19-3);}.cls-6{fill:url(#Безымянный_градиент_19-4);}.cls-7{fill:url(#Безымянный_градиент_19-5);}.cls-8{fill:none;stroke-linecap:round;stroke-linejoin:bevel;stroke-width:0.75px;}</style><linearGradient id="Безымянный_градиент_19" x1="15.41" y1="44.08" x2="15.41" y2="6.02" gradientUnits="userSpaceOnUse"><stop offset="0" stop-color="#fff"/><stop offset="1" stop-color="#c0e7f9"/></linearGradient><linearGradient id="Безымянный_градиент_19-2" x1="39.95" y1="44.08" x2="39.95" y2="6.02" xlink:href="#Безымянный_градиент_19"/><linearGradient id="Безымянный_градиент_19-3" x1="64.51" y1="44.08" x2="64.51" y2="6.02" xlink:href="#Безымянный_градиент_19"/><linearGradient id="Безымянный_градиент_19-4" x1="88.66" y1="44.08" x2="88.66" y2="6.02" xlink:href="#Безымянный_градиент_19"/><linearGradient id="Безымянный_градиент_19-5" x1="121.14" y1="44.08" x2="121.14" y2="6.02" xlink:href="#Безымянный_градиент_19"/></defs><title>sБалкон с глухой боковой створкой</title><rect class="cls-1" x="106.44" y="0.55" width="29.41" height="49"/><rect class="cls-1" x="0.54" y="0.55" width="103.2" height="49"/><rect class="cls-2" x="6.02" y="6.02" width="18.77" height="38.06"/><path class="cls-3" d="M24.3,6.52V43.58H6.52V6.52H24.3m1-1H5.52V44.58H25.3V5.52Z"/><rect class="cls-4" x="29.98" y="6.02" width="19.95" height="38.06"/><path class="cls-3" d="M49.42,6.52V43.58H30.48V6.52H49.42m1-1H29.48V44.58H50.42V5.52Z"/><rect class="cls-5" x="54.98" y="6.02" width="19.07" height="38.06"/><path class="cls-3" d="M73.55,6.52V43.58H55.48V6.52H73.55m1-1H54.48V44.58H74.55V5.52Z"/><rect class="cls-6" x="79.12" y="6.02" width="19.07" height="38.06"/><path class="cls-3" d="M97.69,6.52V43.58H79.62V6.52H97.69m1-1H78.62V44.58H98.69V5.52Z"/><rect class="cls-7" x="111.61" y="6.02" width="19.07" height="38.06"/><path class="cls-3" d="M130.18,6.52V43.58H112.11V6.52h18.07m1-1H111.11V44.58h20.07V5.52Z"/><polyline class="cls-8" points="49.43 6 30.28 24.69 49.43 44.07 39.86 5.69 30.28 43.75"/><polyline class="cls-8" points="73.99 6.34 54.85 25.03 73.99 44.41 64.42 6.03 54.85 44.09"/><line class="cls-8" x1="13.38" y1="22.15" x2="17.8" y2="27.61"/><line class="cls-8" x1="17.8" y1="22.15" x2="13.38" y2="27.61"/><line class="cls-8" x1="86.45" y1="22.32" x2="90.87" y2="27.78"/><line class="cls-8" x1="90.87" y1="22.32" x2="86.45" y2="27.78"/><line class="cls-8" x1="119.29" y1="22.49" x2="123.71" y2="27.95"/><line class="cls-8" x1="123.71" y1="22.49" x2="119.29" y2="27.95"/></svg>