<svg id="Слой_1" data-name="Слой 1" xmlns="http://www.w3.org/2000/svg" xmlns:xlink="http://www.w3.org/1999/xlink" viewBox="0 0 168.92 50.1"><defs><style>.cls-1{fill:#fff;stroke-miterlimit:10;}.cls-1,.cls-9{stroke:#b3b4b4;}.cls-2{fill:url(#Безымянный_градиент_19);}.cls-3{fill:#b3b4b4;}.cls-4{fill:url(#Безымянный_градиент_19-2);}.cls-5{fill:url(#Безымянный_градиент_19-3);}.cls-6{fill:url(#Безымянный_градиент_19-4);}.cls-7{fill:url(#Безымянный_градиент_19-5);}.cls-8{fill:url(#Безымянный_градиент_19-6);}.cls-9{fill:none;stroke-linecap:round;stroke-linejoin:bevel;stroke-width:0.75px;}</style><linearGradient id="Безымянный_градиент_19" x1="47.76" y1="44.12" x2="47.76" y2="6.06" gradientUnits="userSpaceOnUse"><stop offset="0" stop-color="#fff"/><stop offset="1" stop-color="#c0e7f9"/></linearGradient><linearGradient id="Безымянный_градиент_19-2" x1="72.3" y1="44.12" x2="72.3" y2="6.06" xlink:href="#Безымянный_градиент_19"/><linearGradient id="Безымянный_градиент_19-3" x1="96.86" y1="44.12" x2="96.86" y2="6.06" xlink:href="#Безымянный_градиент_19"/><linearGradient id="Безымянный_градиент_19-4" x1="121.01" y1="44.12" x2="121.01" y2="6.06" xlink:href="#Безымянный_градиент_19"/><linearGradient id="Безымянный_градиент_19-5" x1="153.72" y1="44.12" x2="153.72" y2="6.06" xlink:href="#Безымянный_градиент_19"/><linearGradient id="Безымянный_градиент_19-6" x1="15.26" y1="44.12" x2="15.26" y2="6.06" xlink:href="#Безымянный_градиент_19"/></defs><title>sБалкон с двумя открывающимися боковыми створками</title><rect class="cls-1" x="139.02" y="0.59" width="29.41" height="49"/><rect class="cls-1" x="32.89" y="0.59" width="103.2" height="49"/><rect class="cls-2" x="38.38" y="6.06" width="18.77" height="38.06"/><path class="cls-3" d="M56.65,6.56V43.62H38.88V6.56H56.65m1-1H37.88V44.62H57.65V5.56Z"/><rect class="cls-4" x="62.33" y="6.06" width="19.95" height="38.06"/><path class="cls-3" d="M81.78,6.56V43.62h-19V6.56h19m1-1h-21V44.62h21V5.56Z"/><rect class="cls-5" x="87.33" y="6.06" width="19.07" height="38.06"/><path class="cls-3" d="M105.9,6.56V43.62H87.83V6.56H105.9m1-1H86.83V44.62H106.9V5.56Z"/><rect class="cls-6" x="111.48" y="6.06" width="19.07" height="38.06"/><path class="cls-3" d="M130.05,6.56V43.62H112V6.56h18.07m1-1H111V44.62h20.07V5.56Z"/><rect class="cls-7" x="144.19" y="6.06" width="19.07" height="38.06"/><path class="cls-3" d="M162.76,6.56V43.62H144.69V6.56h18.07m1-1H143.69V44.62h20.07V5.56Z"/><rect class="cls-1" x="0.55" y="0.59" width="29.41" height="49"/><rect class="cls-8" x="5.72" y="6.06" width="19.07" height="38.06"/><path class="cls-3" d="M24.29,6.56V43.62H6.22V6.56H24.29m1-1H5.22V44.62H25.29V5.56Z"/><polyline class="cls-9" points="81.6 5.7 62.46 24.39 81.6 43.76 72.03 5.39 62.46 43.45"/><polyline class="cls-9" points="106.17 6.04 87.02 24.73 106.17 44.1 96.59 5.73 87.02 43.79"/><line class="cls-9" x1="45.56" y1="22.36" x2="49.97" y2="27.82"/><line class="cls-9" x1="49.97" y1="22.36" x2="45.56" y2="27.82"/><line class="cls-9" x1="118.8" y1="22.36" x2="123.22" y2="27.82"/><line class="cls-9" x1="123.22" y1="22.36" x2="118.8" y2="27.82"/><polyline class="cls-9" points="24.83 6.21 5.69 24.9 24.83 44.27 15.26 5.9 5.69 43.96"/><polyline class="cls-9" points="163.29 5.7 144.15 24.39 163.29 43.76 153.72 5.39 144.15 43.45"/></svg>