<svg id="Слой_1" data-name="Слой 1" xmlns="http://www.w3.org/2000/svg" xmlns:xlink="http://www.w3.org/1999/xlink" viewBox="0 0 104.3 75.08"><defs><style>.cls-1{fill:#fff;stroke-miterlimit:10;}.cls-1,.cls-11{stroke:#b3b4b4;}.cls-2{fill:url(#Безымянный_градиент_19);}.cls-3{fill:#b3b4b4;}.cls-4{fill:url(#Безымянный_градиент_19-2);}.cls-5{fill:url(#Безымянный_градиент_19-3);}.cls-6{fill:url(#Безымянный_градиент_19-4);}.cls-7{fill:url(#Безымянный_градиент_19-5);}.cls-8{fill:url(#Безымянный_градиент_19-6);}.cls-9{fill:url(#Безымянный_градиент_19-7);}.cls-10{fill:url(#Безымянный_градиент_19-8);}.cls-11{fill:none;stroke-linecap:round;stroke-linejoin:bevel;stroke-width:0.75px;}</style><linearGradient id="Безымянный_градиент_19" x1="15.73" y1="44.1" x2="15.73" y2="6.04" gradientUnits="userSpaceOnUse"><stop offset="0" stop-color="#fff"/><stop offset="1" stop-color="#c0e7f9"/></linearGradient><linearGradient id="Безымянный_градиент_19-2" x1="40.04" y1="44.1" x2="40.04" y2="6.04" xlink:href="#Безымянный_градиент_19"/><linearGradient id="Безымянный_градиент_19-3" x1="64.85" y1="44.1" x2="64.85" y2="6.04" xlink:href="#Безымянный_градиент_19"/><linearGradient id="Безымянный_градиент_19-4" x1="88.6" y1="44.1" x2="88.6" y2="6.04" xlink:href="#Безымянный_градиент_19"/><linearGradient id="Безымянный_градиент_19-5" x1="15.73" y1="68.96" x2="15.73" y2="53.38" xlink:href="#Безымянный_градиент_19"/><linearGradient id="Безымянный_градиент_19-6" x1="40.26" y1="68.96" x2="40.26" y2="53.38" xlink:href="#Безымянный_градиент_19"/><linearGradient id="Безымянный_градиент_19-7" x1="64.85" y1="68.96" x2="64.85" y2="53.38" xlink:href="#Безымянный_градиент_19"/><linearGradient id="Безымянный_градиент_19-8" x1="88.6" y1="68.96" x2="88.6" y2="53.38" xlink:href="#Безымянный_градиент_19"/></defs><title>sФранцузское остекление лоджии_1</title><rect class="cls-1" x="0.56" y="0.5" width="103.2" height="48.43"/><rect class="cls-1" x="0.56" y="48.93" width="103.2" height="25.57"/><rect class="cls-2" x="6.23" y="6.04" width="18.99" height="38.06"/><path class="cls-3" d="M24.72,6.54V43.6h-18V6.54h18m1-1h-20V44.6h20V5.54Z"/><rect class="cls-4" x="30.11" y="6.04" width="19.86" height="38.06"/><path class="cls-3" d="M49.47,6.54V43.6H30.61V6.54H49.47m1-1H29.61V44.6H50.47V5.54Z"/><rect class="cls-5" x="55.36" y="6.04" width="18.99" height="38.06"/><path class="cls-3" d="M73.84,6.54V43.6h-18V6.54h18m1-1h-20V44.6h20V5.54Z"/><rect class="cls-6" x="79.11" y="6.04" width="18.99" height="38.06"/><path class="cls-3" d="M97.59,6.54V43.6h-18V6.54h18m1-1h-20V44.6h20V5.54Z"/><rect class="cls-7" x="6.23" y="53.38" width="18.99" height="15.58"/><path class="cls-3" d="M24.72,53.88V68.46h-18V53.88h18m1-1h-20V69.46h20V52.88Z"/><rect class="cls-8" x="30.55" y="53.38" width="19.42" height="15.58"/><path class="cls-3" d="M49.47,53.88V68.46H31.05V53.88H49.47m1-1H30.05V69.46H50.47V52.88Z"/><rect class="cls-9" x="55.36" y="53.38" width="18.99" height="15.58"/><path class="cls-3" d="M73.84,53.88V68.46h-18V53.88h18m1-1h-20V69.46h20V52.88Z"/><rect class="cls-10" x="79.11" y="53.38" width="18.99" height="15.58"/><path class="cls-3" d="M97.59,53.88V68.46h-18V53.88h18m1-1h-20V69.46h20V52.88Z"/><polyline class="cls-11" points="49.45 6.03 30.31 24.71 49.45 44.09 39.88 5.71 30.31 43.77"/><polyline class="cls-11" points="74.11 6.2 54.97 24.88 74.11 44.26 64.54 5.88 54.97 43.95"/><line class="cls-11" x1="13.79" y1="22.56" x2="18.2" y2="28.02"/><line class="cls-11" x1="18.2" y1="22.56" x2="13.79" y2="28.02"/><line class="cls-11" x1="86.59" y1="22.34" x2="91" y2="27.8"/><line class="cls-11" x1="91" y1="22.34" x2="86.59" y2="27.8"/></svg>