<svg id="Слой_1" data-name="Слой 1" xmlns="http://www.w3.org/2000/svg" xmlns:xlink="http://www.w3.org/1999/xlink" viewBox="0 0 137.46 75.1"><defs><style>.cls-1{fill:#fff;stroke-miterlimit:10;}.cls-1,.cls-13{stroke:#b3b4b4;}.cls-2{fill:url(#Безымянный_градиент_19);}.cls-3{fill:#b3b4b4;}.cls-4{fill:url(#Безымянный_градиент_19-2);}.cls-5{fill:url(#Безымянный_градиент_19-3);}.cls-6{fill:url(#Безымянный_градиент_19-4);}.cls-7{fill:url(#Безымянный_градиент_19-5);}.cls-8{fill:url(#Безымянный_градиент_19-6);}.cls-9{fill:url(#Безымянный_градиент_19-7);}.cls-10{fill:url(#Безымянный_градиент_19-8);}.cls-11{fill:url(#Безымянный_градиент_19-9);}.cls-12{fill:url(#Безымянный_градиент_19-10);}.cls-13{fill:none;stroke-linecap:round;stroke-linejoin:bevel;stroke-width:0.75px;}</style><linearGradient id="Безымянный_градиент_19" x1="15.71" y1="44.19" x2="15.71" y2="6.13" gradientUnits="userSpaceOnUse"><stop offset="0" stop-color="#fff"/><stop offset="1" stop-color="#c0e7f9"/></linearGradient><linearGradient id="Безымянный_градиент_19-2" x1="40.02" y1="44.19" x2="40.02" y2="6.13" xlink:href="#Безымянный_градиент_19"/><linearGradient id="Безымянный_градиент_19-3" x1="64.83" y1="44.19" x2="64.83" y2="6.13" xlink:href="#Безымянный_градиент_19"/><linearGradient id="Безымянный_градиент_19-4" x1="88.58" y1="44.19" x2="88.58" y2="6.13" xlink:href="#Безымянный_градиент_19"/><linearGradient id="Безымянный_градиент_19-5" x1="15.71" y1="69.05" x2="15.71" y2="53.46" xlink:href="#Безымянный_градиент_19"/><linearGradient id="Безымянный_градиент_19-6" x1="40.24" y1="69.05" x2="40.24" y2="53.46" xlink:href="#Безымянный_градиент_19"/><linearGradient id="Безымянный_градиент_19-7" x1="64.83" y1="69.05" x2="64.83" y2="53.46" xlink:href="#Безымянный_градиент_19"/><linearGradient id="Безымянный_градиент_19-8" x1="88.58" y1="69.05" x2="88.58" y2="53.46" xlink:href="#Безымянный_градиент_19"/><linearGradient id="Безымянный_градиент_19-9" x1="121.76" y1="44.19" x2="121.76" y2="6.13" xlink:href="#Безымянный_градиент_19"/><linearGradient id="Безымянный_градиент_19-10" x1="121.76" y1="69.05" x2="121.76" y2="53.46" xlink:href="#Безымянный_градиент_19"/></defs><title>sБалкон с открывающейся боковой створкой_1</title><rect class="cls-1" x="0.54" y="0.59" width="103.2" height="48.43"/><rect class="cls-1" x="0.54" y="49.02" width="103.2" height="25.57"/><rect class="cls-2" x="6.21" y="6.13" width="18.99" height="38.06"/><path class="cls-3" d="M24.7,6.63V43.69h-18V6.63h18m1-1h-20V44.69h20V5.63Z"/><rect class="cls-4" x="30.09" y="6.13" width="19.86" height="38.06"/><path class="cls-3" d="M49.45,6.63V43.69H30.59V6.63H49.45m1-1H29.59V44.69H50.45V5.63Z"/><rect class="cls-5" x="55.34" y="6.13" width="18.99" height="38.06"/><path class="cls-3" d="M73.83,6.63V43.69h-18V6.63h18m1-1h-20V44.69h20V5.63Z"/><rect class="cls-6" x="79.09" y="6.13" width="18.99" height="38.06"/><path class="cls-3" d="M97.58,6.63V43.69h-18V6.63h18m1-1h-20V44.69h20V5.63Z"/><rect class="cls-7" x="6.21" y="53.46" width="18.99" height="15.58"/><path class="cls-3" d="M24.7,54V68.55h-18V54h18m1-1h-20V69.55h20V53Z"/><rect class="cls-8" x="30.53" y="53.46" width="19.42" height="15.58"/><path class="cls-3" d="M49.45,54V68.55H31V54H49.45m1-1H30V69.55H50.45V53Z"/><rect class="cls-9" x="55.34" y="53.46" width="18.99" height="15.58"/><path class="cls-3" d="M73.83,54V68.55h-18V54h18m1-1h-20V69.55h20V53Z"/><rect class="cls-10" x="79.09" y="53.46" width="18.99" height="15.58"/><path class="cls-3" d="M97.58,54V68.55h-18V54h18m1-1h-20V69.55h20V53Z"/><rect class="cls-1" x="106.6" y="0.59" width="30.36" height="48.43"/><rect class="cls-1" x="106.6" y="49.02" width="30.36" height="25.57"/><rect class="cls-11" x="112.27" y="6.13" width="18.99" height="38.06"/><path class="cls-3" d="M130.76,6.63V43.69h-18V6.63h18m1-1h-20V44.69h20V5.63Z"/><rect class="cls-12" x="112.27" y="53.46" width="18.99" height="15.58"/><path class="cls-3" d="M130.76,54V68.55h-18V54h18m1-1h-20V69.55h20V53Z"/><polyline class="cls-13" points="49.84 6.02 30.7 24.7 49.84 44.08 40.27 5.7 30.7 43.77"/><polyline class="cls-13" points="74.4 6.02 55.26 24.7 74.4 44.08 64.83 5.7 55.26 43.77"/><line class="cls-13" x1="13.54" y1="23.13" x2="17.95" y2="28.59"/><line class="cls-13" x1="17.95" y1="23.13" x2="13.54" y2="28.59"/><line class="cls-13" x1="86.34" y1="22.91" x2="90.75" y2="28.37"/><line class="cls-13" x1="90.75" y1="22.91" x2="86.34" y2="28.37"/><polyline class="cls-13" points="131.35 6.29 112.2 24.97 131.35 44.35 121.78 5.97 112.2 44.04"/></svg>