<svg id="Слой_1" data-name="Слой 1" xmlns="http://www.w3.org/2000/svg" xmlns:xlink="http://www.w3.org/1999/xlink" viewBox="0 0 170.59 75"><defs><style>.cls-1{fill:#fff;stroke-miterlimit:10;}.cls-1,.cls-15{stroke:#b3b4b4;}.cls-2{fill:url(#Безымянный_градиент_19);}.cls-3{fill:#b3b4b4;}.cls-4{fill:url(#Безымянный_градиент_19-2);}.cls-5{fill:url(#Безымянный_градиент_19-3);}.cls-6{fill:url(#Безымянный_градиент_19-4);}.cls-7{fill:url(#Безымянный_градиент_19-5);}.cls-8{fill:url(#Безымянный_градиент_19-6);}.cls-9{fill:url(#Безымянный_градиент_19-7);}.cls-10{fill:url(#Безымянный_градиент_19-8);}.cls-11{fill:url(#Безымянный_градиент_19-9);}.cls-12{fill:url(#Безымянный_градиент_19-10);}.cls-13{fill:url(#Безымянный_градиент_19-11);}.cls-14{fill:url(#Безымянный_градиент_19-12);}.cls-15{fill:none;stroke-linecap:round;stroke-linejoin:bevel;stroke-width:0.75px;}</style><linearGradient id="Безымянный_градиент_19" x1="48.93" y1="44.13" x2="48.93" y2="6.07" gradientUnits="userSpaceOnUse"><stop offset="0" stop-color="#fff"/><stop offset="1" stop-color="#c0e7f9"/></linearGradient><linearGradient id="Безымянный_градиент_19-2" x1="73.24" y1="44.13" x2="73.24" y2="6.07" xlink:href="#Безымянный_градиент_19"/><linearGradient id="Безымянный_градиент_19-3" x1="98.06" y1="44.13" x2="98.06" y2="6.07" xlink:href="#Безымянный_градиент_19"/><linearGradient id="Безымянный_градиент_19-4" x1="121.81" y1="44.13" x2="121.81" y2="6.07" xlink:href="#Безымянный_градиент_19"/><linearGradient id="Безымянный_градиент_19-5" x1="48.93" y1="68.99" x2="48.93" y2="53.41" xlink:href="#Безымянный_градиент_19"/><linearGradient id="Безымянный_градиент_19-6" x1="73.46" y1="68.99" x2="73.46" y2="53.41" xlink:href="#Безымянный_градиент_19"/><linearGradient id="Безымянный_градиент_19-7" x1="98.06" y1="68.99" x2="98.06" y2="53.41" xlink:href="#Безымянный_градиент_19"/><linearGradient id="Безымянный_градиент_19-8" x1="121.81" y1="68.99" x2="121.81" y2="53.41" xlink:href="#Безымянный_градиент_19"/><linearGradient id="Безымянный_градиент_19-9" x1="154.99" y1="44.13" x2="154.99" y2="6.07" xlink:href="#Безымянный_градиент_19"/><linearGradient id="Безымянный_градиент_19-10" x1="154.99" y1="68.99" x2="154.99" y2="53.41" xlink:href="#Безымянный_градиент_19"/><linearGradient id="Безымянный_градиент_19-11" x1="15.71" y1="44.13" x2="15.71" y2="6.07" xlink:href="#Безымянный_градиент_19"/><linearGradient id="Безымянный_градиент_19-12" x1="15.71" y1="68.99" x2="15.71" y2="53.41" xlink:href="#Безымянный_градиент_19"/></defs><title>sБалкон с двумя открывающимися боковыми створками_1</title><rect class="cls-1" x="33.77" y="0.53" width="103.2" height="48.43"/><rect class="cls-1" x="33.77" y="48.96" width="103.2" height="25.57"/><rect class="cls-2" x="39.44" y="6.07" width="18.99" height="38.06"/><path class="cls-3" d="M57.92,6.57V43.63h-18V6.57h18m1-1h-20V44.63h20V5.57Z"/><rect class="cls-4" x="63.31" y="6.07" width="19.86" height="38.06"/><path class="cls-3" d="M82.67,6.57V43.63H63.81V6.57H82.67m1-1H62.81V44.63H83.67V5.57Z"/><rect class="cls-5" x="88.56" y="6.07" width="18.99" height="38.06"/><path class="cls-3" d="M107.05,6.57V43.63h-18V6.57h18m1-1h-20V44.63h20V5.57Z"/><rect class="cls-6" x="112.31" y="6.07" width="18.99" height="38.06"/><path class="cls-3" d="M130.8,6.57V43.63h-18V6.57h18m1-1h-20V44.63h20V5.57Z"/><rect class="cls-7" x="39.44" y="53.41" width="18.99" height="15.58"/><path class="cls-3" d="M57.92,53.91V68.49h-18V53.91h18m1-1h-20V69.49h20V52.91Z"/><rect class="cls-8" x="63.75" y="53.41" width="19.42" height="15.58"/><path class="cls-3" d="M82.67,53.91V68.49H64.25V53.91H82.67m1-1H63.25V69.49H83.67V52.91Z"/><rect class="cls-9" x="88.56" y="53.41" width="18.99" height="15.58"/><path class="cls-3" d="M107.05,53.91V68.49h-18V53.91h18m1-1h-20V69.49h20V52.91Z"/><rect class="cls-10" x="112.31" y="53.41" width="18.99" height="15.58"/><path class="cls-3" d="M130.8,53.91V68.49h-18V53.91h18m1-1h-20V69.49h20V52.91Z"/><rect class="cls-1" x="139.82" y="0.53" width="30.36" height="48.43"/><rect class="cls-1" x="139.82" y="48.96" width="30.36" height="25.57"/><rect class="cls-11" x="145.49" y="6.07" width="18.99" height="38.06"/><path class="cls-3" d="M164,6.57V43.63H146V6.57h18m1-1H145V44.63h20V5.57Z"/><rect class="cls-12" x="145.49" y="53.41" width="18.99" height="15.58"/><path class="cls-3" d="M164,53.91V68.49H146V53.91h18m1-1H145V69.49h20V52.91Z"/><rect class="cls-1" x="0.54" y="0.53" width="30.36" height="48.43"/><rect class="cls-1" x="0.54" y="48.96" width="30.36" height="25.57"/><rect class="cls-13" x="6.21" y="6.07" width="18.99" height="38.06"/><path class="cls-3" d="M24.7,6.57V43.63h-18V6.57h18m1-1h-20V44.63h20V5.57Z"/><rect class="cls-14" x="6.21" y="53.41" width="18.99" height="15.58"/><path class="cls-3" d="M24.7,53.91V68.49h-18V53.91h18m1-1h-20V69.49h20V52.91Z"/><polyline class="cls-15" points="83.06 5.87 63.92 24.56 83.06 43.93 73.49 5.56 63.92 43.62"/><polyline class="cls-15" points="107.63 5.87 88.48 24.56 107.63 43.93 98.06 5.56 88.48 43.62"/><line class="cls-15" x1="46.76" y1="22.98" x2="51.18" y2="28.44"/><line class="cls-15" x1="51.18" y1="22.98" x2="46.76" y2="28.44"/><line class="cls-15" x1="119.56" y1="22.76" x2="123.98" y2="28.23"/><line class="cls-15" x1="123.98" y1="22.76" x2="119.56" y2="28.23"/><polyline class="cls-15" points="25.28 5.87 6.14 24.56 25.28 43.93 15.71 5.56 6.14 43.62"/><polyline class="cls-15" points="164.56 5.87 145.41 24.56 164.56 43.93 154.99 5.56 145.41 43.62"/></svg>