<svg id="Слой_1" data-name="Слой 1" xmlns="http://www.w3.org/2000/svg" xmlns:xlink="http://www.w3.org/1999/xlink" viewBox="0 0 168.88 50.01"><defs><style>.cls-1{fill:#fff;stroke-miterlimit:10;}.cls-1,.cls-9{stroke:#b3b4b4;}.cls-2{fill:url(#Безымянный_градиент_19);}.cls-3{fill:#b3b4b4;}.cls-4{fill:url(#Безымянный_градиент_19-2);}.cls-5{fill:url(#Безымянный_градиент_19-3);}.cls-6{fill:url(#Безымянный_градиент_19-4);}.cls-7{fill:url(#Безымянный_градиент_19-5);}.cls-8{fill:url(#Безымянный_градиент_19-6);}.cls-9{fill:none;stroke-linecap:round;stroke-linejoin:bevel;stroke-width:0.75px;}</style><linearGradient id="Безымянный_градиент_19" x1="47.74" y1="44.09" x2="47.74" y2="6.03" gradientUnits="userSpaceOnUse"><stop offset="0" stop-color="#fff"/><stop offset="1" stop-color="#c0e7f9"/></linearGradient><linearGradient id="Безымянный_градиент_19-2" x1="72.28" y1="44.09" x2="72.28" y2="6.03" xlink:href="#Безымянный_градиент_19"/><linearGradient id="Безымянный_градиент_19-3" x1="96.84" y1="44.09" x2="96.84" y2="6.03" xlink:href="#Безымянный_градиент_19"/><linearGradient id="Безымянный_градиент_19-4" x1="120.99" y1="44.09" x2="120.99" y2="6.03" xlink:href="#Безымянный_градиент_19"/><linearGradient id="Безымянный_градиент_19-5" x1="153.7" y1="44.09" x2="153.7" y2="6.03" xlink:href="#Безымянный_градиент_19"/><linearGradient id="Безымянный_градиент_19-6" x1="15.24" y1="44.09" x2="15.24" y2="6.03" xlink:href="#Безымянный_градиент_19"/></defs><title>sБалкон с одной открывающейся боковой створкой</title><rect class="cls-1" x="139" y="0.56" width="29.41" height="49"/><rect class="cls-1" x="32.87" y="0.56" width="103.2" height="49"/><rect class="cls-2" x="38.35" y="6.03" width="18.77" height="38.06"/><path class="cls-3" d="M56.63,6.53V43.59H38.85V6.53H56.63m1-1H37.85V44.59H57.63V5.53Z"/><rect class="cls-4" x="62.31" y="6.03" width="19.95" height="38.06"/><path class="cls-3" d="M81.75,6.53V43.59H62.81V6.53H81.75m1-1H61.81V44.59H82.75V5.53Z"/><rect class="cls-5" x="87.31" y="6.03" width="19.07" height="38.06"/><path class="cls-3" d="M105.88,6.53V43.59H87.81V6.53h18.07m1-1H86.81V44.59h20.07V5.53Z"/><rect class="cls-6" x="111.45" y="6.03" width="19.07" height="38.06"/><path class="cls-3" d="M130,6.53V43.59H112V6.53H130m1-1H111V44.59H131V5.53Z"/><rect class="cls-7" x="144.16" y="6.03" width="19.07" height="38.06"/><path class="cls-3" d="M162.74,6.53V43.59H144.66V6.53h18.08m1-1H143.66V44.59h20.08V5.53Z"/><rect class="cls-1" x="0.53" y="0.56" width="29.41" height="49"/><rect class="cls-8" x="5.7" y="6.03" width="19.07" height="38.06"/><path class="cls-3" d="M24.27,6.53V43.59H6.2V6.53H24.27m1-1H5.2V44.59H25.27V5.53Z"/><polyline class="cls-9" points="81.58 5.67 62.44 24.36 81.58 43.74 72.01 5.36 62.44 43.42"/><polyline class="cls-9" points="106.14 6.02 87 24.7 106.14 44.08 96.57 5.7 87 43.77"/><line class="cls-9" x1="45.53" y1="22.33" x2="49.95" y2="27.79"/><line class="cls-9" x1="49.95" y1="22.33" x2="45.53" y2="27.79"/><line class="cls-9" x1="118.78" y1="22.33" x2="123.2" y2="27.79"/><line class="cls-9" x1="123.2" y1="22.33" x2="118.78" y2="27.79"/><line class="cls-9" x1="151.49" y1="22.33" x2="155.91" y2="27.79"/><line class="cls-9" x1="155.91" y1="22.33" x2="151.49" y2="27.79"/><polyline class="cls-9" points="24.81 6.19 5.66 24.88 24.81 44.25 15.23 5.88 5.66 43.94"/></svg>