<svg id="Слой_1" data-name="Слой 1" xmlns="http://www.w3.org/2000/svg" xmlns:xlink="http://www.w3.org/1999/xlink" viewBox="0 0 170.13 75.23"><defs><style>.cls-1{fill:#fff;stroke-miterlimit:10;}.cls-1,.cls-15{stroke:#b3b4b4;}.cls-2{fill:url(#Безымянный_градиент_19);}.cls-3{fill:#b3b4b4;}.cls-4{fill:url(#Безымянный_градиент_19-2);}.cls-5{fill:url(#Безымянный_градиент_19-3);}.cls-6{fill:url(#Безымянный_градиент_19-4);}.cls-7{fill:url(#Безымянный_градиент_19-5);}.cls-8{fill:url(#Безымянный_градиент_19-6);}.cls-9{fill:url(#Безымянный_градиент_19-7);}.cls-10{fill:url(#Безымянный_градиент_19-8);}.cls-11{fill:url(#Безымянный_градиент_19-9);}.cls-12{fill:url(#Безымянный_градиент_19-10);}.cls-13{fill:url(#Безымянный_градиент_19-11);}.cls-14{fill:url(#Безымянный_градиент_19-12);}.cls-15{fill:none;stroke-linecap:round;stroke-linejoin:bevel;stroke-width:0.75px;}</style><linearGradient id="Безымянный_градиент_19" x1="48.88" y1="44.28" x2="48.88" y2="6.22" gradientUnits="userSpaceOnUse"><stop offset="0" stop-color="#fff"/><stop offset="1" stop-color="#c0e7f9"/></linearGradient><linearGradient id="Безымянный_градиент_19-2" x1="73.19" y1="44.28" x2="73.19" y2="6.22" xlink:href="#Безымянный_градиент_19"/><linearGradient id="Безымянный_градиент_19-3" x1="98" y1="44.28" x2="98" y2="6.22" xlink:href="#Безымянный_градиент_19"/><linearGradient id="Безымянный_градиент_19-4" x1="121.75" y1="44.28" x2="121.75" y2="6.22" xlink:href="#Безымянный_градиент_19"/><linearGradient id="Безымянный_градиент_19-5" x1="48.88" y1="69.14" x2="48.88" y2="53.55" xlink:href="#Безымянный_градиент_19"/><linearGradient id="Безымянный_градиент_19-6" x1="73.41" y1="69.14" x2="73.41" y2="53.55" xlink:href="#Безымянный_градиент_19"/><linearGradient id="Безымянный_градиент_19-7" x1="98" y1="69.14" x2="98" y2="53.55" xlink:href="#Безымянный_градиент_19"/><linearGradient id="Безымянный_градиент_19-8" x1="121.75" y1="69.14" x2="121.75" y2="53.55" xlink:href="#Безымянный_градиент_19"/><linearGradient id="Безымянный_градиент_19-9" x1="154.94" y1="44.28" x2="154.94" y2="6.22" xlink:href="#Безымянный_градиент_19"/><linearGradient id="Безымянный_градиент_19-10" x1="154.94" y1="69.14" x2="154.94" y2="53.55" xlink:href="#Безымянный_градиент_19"/><linearGradient id="Безымянный_градиент_19-11" x1="15.66" y1="44.28" x2="15.66" y2="6.22" xlink:href="#Безымянный_градиент_19"/><linearGradient id="Безымянный_градиент_19-12" x1="15.66" y1="69.14" x2="15.66" y2="53.55" xlink:href="#Безымянный_градиент_19"/></defs><title>sБалкон с одной открывающейся боковой створкой_1</title><rect class="cls-1" x="33.72" y="0.68" width="103.2" height="48.43"/><rect class="cls-1" x="33.72" y="49.11" width="103.2" height="25.57"/><rect class="cls-2" x="39.39" y="6.22" width="18.99" height="38.06"/><path class="cls-3" d="M57.87,6.72V43.78h-18V6.72h18m1-1h-20V44.78h20V5.72Z"/><rect class="cls-4" x="63.26" y="6.22" width="19.86" height="38.06"/><path class="cls-3" d="M82.62,6.72V43.78H63.76V6.72H82.62m1-1H62.76V44.78H83.62V5.72Z"/><rect class="cls-5" x="88.51" y="6.22" width="18.99" height="38.06"/><path class="cls-3" d="M107,6.72V43.78H89V6.72h18m1-1H88V44.78h20V5.72Z"/><rect class="cls-6" x="112.26" y="6.22" width="18.99" height="38.06"/><path class="cls-3" d="M130.75,6.72V43.78h-18V6.72h18m1-1h-20V44.78h20V5.72Z"/><rect class="cls-7" x="39.39" y="53.55" width="18.99" height="15.58"/><path class="cls-3" d="M57.87,54.05V68.64h-18V54.05h18m1-1h-20V69.64h20V53.05Z"/><rect class="cls-8" x="63.7" y="53.55" width="19.42" height="15.58"/><path class="cls-3" d="M82.62,54.05V68.64H64.2V54.05H82.62m1-1H63.2V69.64H83.62V53.05Z"/><rect class="cls-9" x="88.51" y="53.55" width="18.99" height="15.58"/><path class="cls-3" d="M107,54.05V68.64H89V54.05h18m1-1H88V69.64h20V53.05Z"/><rect class="cls-10" x="112.26" y="53.55" width="18.99" height="15.58"/><path class="cls-3" d="M130.75,54.05V68.64h-18V54.05h18m1-1h-20V69.64h20V53.05Z"/><rect class="cls-1" x="139.77" y="0.68" width="30.36" height="48.43"/><rect class="cls-1" x="139.77" y="49.11" width="30.36" height="25.57"/><rect class="cls-11" x="145.44" y="6.22" width="18.99" height="38.06"/><path class="cls-3" d="M163.93,6.72V43.78h-18V6.72h18m1-1h-20V44.78h20V5.72Z"/><rect class="cls-12" x="145.44" y="53.55" width="18.99" height="15.58"/><path class="cls-3" d="M163.93,54.05V68.64h-18V54.05h18m1-1h-20V69.64h20V53.05Z"/><rect class="cls-1" x="0.49" y="0.68" width="30.36" height="48.43"/><rect class="cls-1" x="0.49" y="49.11" width="30.36" height="25.57"/><rect class="cls-13" x="6.16" y="6.22" width="18.99" height="38.06"/><path class="cls-3" d="M24.65,6.72V43.78h-18V6.72h18m1-1h-20V44.78h20V5.72Z"/><rect class="cls-14" x="6.16" y="53.55" width="18.99" height="15.58"/><path class="cls-3" d="M24.65,54.05V68.64h-18V54.05h18m1-1h-20V69.64h20V53.05Z"/><polyline class="cls-15" points="83.01 6.02 63.87 24.7 83.01 44.08 73.44 5.7 63.87 43.77"/><polyline class="cls-15" points="107.58 6.02 88.43 24.7 107.58 44.08 98 5.7 88.43 43.77"/><line class="cls-15" x1="46.71" y1="23.13" x2="51.13" y2="28.59"/><line class="cls-15" x1="51.13" y1="23.13" x2="46.71" y2="28.59"/><line class="cls-15" x1="119.51" y1="22.91" x2="123.93" y2="28.37"/><line class="cls-15" x1="123.93" y1="22.91" x2="119.51" y2="28.37"/><polyline class="cls-15" points="25.23 6.02 6.09 24.7 25.23 44.08 15.66 5.7 6.09 43.77"/><line class="cls-15" x1="152.74" y1="22.16" x2="157.16" y2="27.62"/><line class="cls-15" x1="157.16" y1="22.16" x2="152.74" y2="27.62"/></svg>