<svg id="Слой_1" data-name="Слой 1" xmlns="http://www.w3.org/2000/svg" xmlns:xlink="http://www.w3.org/1999/xlink" viewBox="0 0 170.65 74.97"><defs><style>.cls-1{fill:#fff;stroke-miterlimit:10;}.cls-1,.cls-15{stroke:#b3b4b4;}.cls-2{fill:url(#Безымянный_градиент_19);}.cls-3{fill:#b3b4b4;}.cls-4{fill:url(#Безымянный_градиент_19-2);}.cls-5{fill:url(#Безымянный_градиент_19-3);}.cls-6{fill:url(#Безымянный_градиент_19-4);}.cls-7{fill:url(#Безымянный_градиент_19-5);}.cls-8{fill:url(#Безымянный_градиент_19-6);}.cls-9{fill:url(#Безымянный_градиент_19-7);}.cls-10{fill:url(#Безымянный_градиент_19-8);}.cls-11{fill:url(#Безымянный_градиент_19-9);}.cls-12{fill:url(#Безымянный_градиент_19-10);}.cls-13{fill:url(#Безымянный_градиент_19-11);}.cls-14{fill:url(#Безымянный_градиент_19-12);}.cls-15{fill:none;stroke-linecap:round;stroke-linejoin:bevel;stroke-width:0.75px;}</style><linearGradient id="Безымянный_градиент_19" x1="48.89" y1="44.1" x2="48.89" y2="6.04" gradientUnits="userSpaceOnUse"><stop offset="0" stop-color="#fff"/><stop offset="1" stop-color="#c0e7f9"/></linearGradient><linearGradient id="Безымянный_градиент_19-2" x1="73.21" y1="44.1" x2="73.21" y2="6.04" xlink:href="#Безымянный_градиент_19"/><linearGradient id="Безымянный_градиент_19-3" x1="98.02" y1="44.1" x2="98.02" y2="6.04" xlink:href="#Безымянный_градиент_19"/><linearGradient id="Безымянный_градиент_19-4" x1="121.77" y1="44.1" x2="121.77" y2="6.04" xlink:href="#Безымянный_градиент_19"/><linearGradient id="Безымянный_градиент_19-5" x1="48.89" y1="68.96" x2="48.89" y2="53.37" xlink:href="#Безымянный_градиент_19"/><linearGradient id="Безымянный_градиент_19-6" x1="73.43" y1="68.96" x2="73.43" y2="53.37" xlink:href="#Безымянный_градиент_19"/><linearGradient id="Безымянный_градиент_19-7" x1="98.02" y1="68.96" x2="98.02" y2="53.37" xlink:href="#Безымянный_градиент_19"/><linearGradient id="Безымянный_градиент_19-8" x1="121.77" y1="68.96" x2="121.77" y2="53.37" xlink:href="#Безымянный_градиент_19"/><linearGradient id="Безымянный_градиент_19-9" x1="154.95" y1="44.1" x2="154.95" y2="6.04" xlink:href="#Безымянный_градиент_19"/><linearGradient id="Безымянный_градиент_19-10" x1="154.95" y1="68.96" x2="154.95" y2="53.37" xlink:href="#Безымянный_градиент_19"/><linearGradient id="Безымянный_градиент_19-11" x1="15.67" y1="44.1" x2="15.67" y2="6.04" xlink:href="#Безымянный_градиент_19"/><linearGradient id="Безымянный_градиент_19-12" x1="15.67" y1="68.96" x2="15.67" y2="53.37" xlink:href="#Безымянный_градиент_19"/></defs><title>sБалкон с двумя глухими боковыми створками_1</title><rect class="cls-1" x="33.73" y="0.5" width="103.2" height="48.43"/><rect class="cls-1" x="33.73" y="48.93" width="103.2" height="25.57"/><rect class="cls-2" x="39.4" y="6.04" width="18.99" height="38.06"/><path class="cls-3" d="M57.89,6.54V43.6h-18V6.54h18m1-1h-20V44.6h20V5.54Z"/><rect class="cls-4" x="63.28" y="6.04" width="19.86" height="38.06"/><path class="cls-3" d="M82.64,6.54V43.6H63.78V6.54H82.64m1-1H62.78V44.6H83.64V5.54Z"/><rect class="cls-5" x="88.53" y="6.04" width="18.99" height="38.06"/><path class="cls-3" d="M107,6.54V43.6H89V6.54h18m1-1H88V44.6h20V5.54Z"/><rect class="cls-6" x="112.28" y="6.04" width="18.99" height="38.06"/><path class="cls-3" d="M130.76,6.54V43.6h-18V6.54h18m1-1h-20V44.6h20V5.54Z"/><rect class="cls-7" x="39.4" y="53.37" width="18.99" height="15.58"/><path class="cls-3" d="M57.89,53.87V68.46h-18V53.87h18m1-1h-20V69.46h20V52.87Z"/><rect class="cls-8" x="63.71" y="53.37" width="19.42" height="15.58"/><path class="cls-3" d="M82.64,53.87V68.46H64.21V53.87H82.64m1-1H63.21V69.46H83.64V52.87Z"/><rect class="cls-9" x="88.53" y="53.37" width="18.99" height="15.58"/><path class="cls-3" d="M107,53.87V68.46H89V53.87h18m1-1H88V69.46h20V52.87Z"/><rect class="cls-10" x="112.28" y="53.37" width="18.99" height="15.58"/><path class="cls-3" d="M130.76,53.87V68.46h-18V53.87h18m1-1h-20V69.46h20V52.87Z"/><rect class="cls-1" x="139.79" y="0.5" width="30.36" height="48.43"/><rect class="cls-1" x="139.79" y="48.93" width="30.36" height="25.57"/><rect class="cls-11" x="145.46" y="6.04" width="18.99" height="38.06"/><path class="cls-3" d="M163.94,6.54V43.6H146V6.54h18m1-1H145V44.6h20V5.54Z"/><rect class="cls-12" x="145.46" y="53.37" width="18.99" height="15.58"/><path class="cls-3" d="M163.94,53.87V68.46H146V53.87h18m1-1H145V69.46h20V52.87Z"/><rect class="cls-1" x="0.51" y="0.5" width="30.36" height="48.43"/><rect class="cls-1" x="0.51" y="48.93" width="30.36" height="25.57"/><rect class="cls-13" x="6.18" y="6.04" width="18.99" height="38.06"/><path class="cls-3" d="M24.67,6.54V43.6h-18V6.54h18m1-1h-20V44.6h20V5.54Z"/><rect class="cls-14" x="6.18" y="53.37" width="18.99" height="15.58"/><path class="cls-3" d="M24.67,53.87V68.46h-18V53.87h18m1-1h-20V69.46h20V52.87Z"/><polyline class="cls-15" points="83.03 5.84 63.88 24.53 83.03 43.9 73.46 5.53 63.88 43.59"/><polyline class="cls-15" points="107.59 5.84 88.45 24.53 107.59 43.9 98.02 5.53 88.45 43.59"/><line class="cls-15" x1="46.72" y1="22.95" x2="51.14" y2="28.41"/><line class="cls-15" x1="51.14" y1="22.95" x2="46.72" y2="28.41"/><line class="cls-15" x1="119.52" y1="22.73" x2="123.94" y2="28.2"/><line class="cls-15" x1="123.94" y1="22.73" x2="119.52" y2="28.2"/><line class="cls-15" x1="13.65" y1="22.73" x2="18.07" y2="28.2"/><line class="cls-15" x1="18.07" y1="22.73" x2="13.65" y2="28.2"/><line class="cls-15" x1="153.1" y1="22.73" x2="157.52" y2="28.2"/><line class="cls-15" x1="157.52" y1="22.73" x2="153.1" y2="28.2"/></svg>