<svg id="Слой_1" data-name="Слой 1" xmlns="http://www.w3.org/2000/svg" xmlns:xlink="http://www.w3.org/1999/xlink" viewBox="0 0 136.56 50"><defs><style>.cls-1{fill:#fff;stroke-miterlimit:10;}.cls-1,.cls-8{stroke:#b3b4b4;}.cls-2{fill:url(#Безымянный_градиент_19);}.cls-3{fill:#b3b4b4;}.cls-4{fill:url(#Безымянный_градиент_19-2);}.cls-5{fill:url(#Безымянный_градиент_19-3);}.cls-6{fill:url(#Безымянный_градиент_19-4);}.cls-7{fill:url(#Безымянный_градиент_19-5);}.cls-8{fill:none;stroke-linecap:round;stroke-linejoin:bevel;stroke-width:0.75px;}</style><linearGradient id="Безымянный_градиент_19" x1="15.62" y1="44.02" x2="15.62" y2="5.96" gradientUnits="userSpaceOnUse"><stop offset="0" stop-color="#fff"/><stop offset="1" stop-color="#c0e7f9"/></linearGradient><linearGradient id="Безымянный_градиент_19-2" x1="40.16" y1="44.02" x2="40.16" y2="5.96" xlink:href="#Безымянный_градиент_19"/><linearGradient id="Безымянный_градиент_19-3" x1="64.72" y1="44.02" x2="64.72" y2="5.96" xlink:href="#Безымянный_градиент_19"/><linearGradient id="Безымянный_градиент_19-4" x1="88.87" y1="44.02" x2="88.87" y2="5.96" xlink:href="#Безымянный_градиент_19"/><linearGradient id="Безымянный_градиент_19-5" x1="121.35" y1="44.02" x2="121.35" y2="5.96" xlink:href="#Безымянный_градиент_19"/></defs><title>sБалкон с открывающейся боковой створкой</title><rect class="cls-1" x="106.65" y="0.49" width="29.41" height="49"/><rect class="cls-1" x="0.74" y="0.49" width="103.2" height="49"/><rect class="cls-2" x="6.23" y="5.96" width="18.77" height="38.06"/><path class="cls-3" d="M24.5,6.46V43.52H6.73V6.46H24.5m1-1H5.73V44.52H25.5V5.46Z"/><rect class="cls-4" x="30.18" y="5.96" width="19.95" height="38.06"/><path class="cls-3" d="M49.63,6.46V43.52h-19V6.46h19m1-1h-21V44.52h21V5.46Z"/><rect class="cls-5" x="55.18" y="5.96" width="19.07" height="38.06"/><path class="cls-3" d="M73.75,6.46V43.52H55.68V6.46H73.75m1-1H54.68V44.52H74.75V5.46Z"/><rect class="cls-6" x="79.33" y="5.96" width="19.07" height="38.06"/><path class="cls-3" d="M97.9,6.46V43.52H79.83V6.46H97.9m1-1H78.83V44.52H98.9V5.46Z"/><rect class="cls-7" x="111.82" y="5.96" width="19.07" height="38.06"/><path class="cls-3" d="M130.39,6.46V43.52H112.32V6.46h18.07m1-1H111.32V44.52h20.07V5.46Z"/><polyline class="cls-8" points="49.63 5.95 30.49 24.63 49.63 44.01 40.06 5.63 30.49 43.7"/><polyline class="cls-8" points="74.2 6.29 55.05 24.97 74.2 44.35 64.63 5.97 55.05 44.04"/><line class="cls-8" x1="13.59" y1="22.09" x2="18.01" y2="27.55"/><line class="cls-8" x1="18.01" y1="22.09" x2="13.59" y2="27.55"/><line class="cls-8" x1="86.66" y1="22.26" x2="91.07" y2="27.72"/><line class="cls-8" x1="91.07" y1="22.26" x2="86.66" y2="27.72"/><polyline class="cls-8" points="130.92 5.95 111.78 24.63 130.92 44.01 121.35 5.63 111.78 43.7"/></svg>