<svg id="Слой_1" data-name="Слой 1" xmlns="http://www.w3.org/2000/svg" xmlns:xlink="http://www.w3.org/1999/xlink" viewBox="0 0 136.4 50.02"><defs><style>.cls-1{fill:#fff;stroke:#b3b4b4;stroke-miterlimit:10;}.cls-2{fill:url(#Безымянный_градиент_19);}.cls-3{fill:#b3b4b4;}.cls-4{fill:url(#Безымянный_градиент_19-2);}.cls-5{fill:url(#Безымянный_градиент_19-3);}.cls-6{fill:url(#Безымянный_градиент_19-4);}.cls-7{fill:url(#Безымянный_градиент_19-5);}</style><linearGradient id="Безымянный_градиент_19" x1="15.4" y1="44.08" x2="15.4" y2="6.02" gradientUnits="userSpaceOnUse"><stop offset="0" stop-color="#fff"/><stop offset="1" stop-color="#c0e7f9"/></linearGradient><linearGradient id="Безымянный_градиент_19-2" x1="39.94" y1="44.08" x2="39.94" y2="6.02" xlink:href="#Безымянный_градиент_19"/><linearGradient id="Безымянный_градиент_19-3" x1="64.5" y1="44.08" x2="64.5" y2="6.02" xlink:href="#Безымянный_градиент_19"/><linearGradient id="Безымянный_градиент_19-4" x1="88.65" y1="44.08" x2="88.65" y2="6.02" xlink:href="#Безымянный_градиент_19"/><linearGradient id="Безымянный_градиент_19-5" x1="121.13" y1="44.08" x2="121.13" y2="6.02" xlink:href="#Безымянный_градиент_19"/></defs><title>sГ-образный балкон</title><rect class="cls-1" x="106.43" y="0.55" width="29.41" height="49"/><rect class="cls-1" x="0.53" y="0.55" width="103.2" height="49"/><rect class="cls-2" x="6.01" y="6.02" width="18.77" height="38.06"/><path class="cls-3" d="M24.29,6.52V43.58H6.51V6.52H24.29m1-1H5.51V44.58H25.29V5.52Z"/><rect class="cls-4" x="29.97" y="6.02" width="19.95" height="38.06"/><path class="cls-3" d="M49.41,6.52V43.58H30.47V6.52H49.41m1-1H29.47V44.58H50.41V5.52Z"/><rect class="cls-5" x="54.97" y="6.02" width="19.07" height="38.06"/><path class="cls-3" d="M73.54,6.52V43.58H55.47V6.52H73.54m1-1H54.47V44.58H74.54V5.52Z"/><rect class="cls-6" x="79.11" y="6.02" width="19.07" height="38.06"/><path class="cls-3" d="M97.68,6.52V43.58H79.61V6.52H97.68m1-1H78.61V44.58H98.68V5.52Z"/><rect class="cls-7" x="111.6" y="6.02" width="19.07" height="38.06"/><path class="cls-3" d="M130.17,6.52V43.58H112.1V6.52h18.07m1-1H111.1V44.58h20.07V5.52Z"/></svg>