<svg id="Слой_1" data-name="Слой 1" xmlns="http://www.w3.org/2000/svg" xmlns:xlink="http://www.w3.org/1999/xlink" viewBox="0 0 168.96 50.06"><defs><style>.cls-1{fill:#fff;stroke-miterlimit:10;}.cls-1,.cls-9{stroke:#b3b4b4;}.cls-2{fill:url(#Безымянный_градиент_19);}.cls-3{fill:#b3b4b4;}.cls-4{fill:url(#Безымянный_градиент_19-2);}.cls-5{fill:url(#Безымянный_градиент_19-3);}.cls-6{fill:url(#Безымянный_градиент_19-4);}.cls-7{fill:url(#Безымянный_градиент_19-5);}.cls-8{fill:url(#Безымянный_градиент_19-6);}.cls-9{fill:none;stroke-linecap:round;stroke-linejoin:bevel;stroke-width:0.75px;}</style><linearGradient id="Безымянный_градиент_19" x1="47.71" y1="44.02" x2="47.71" y2="5.96" gradientUnits="userSpaceOnUse"><stop offset="0" stop-color="#fff"/><stop offset="1" stop-color="#c0e7f9"/></linearGradient><linearGradient id="Безымянный_градиент_19-2" x1="72.25" y1="44.02" x2="72.25" y2="5.96" xlink:href="#Безымянный_градиент_19"/><linearGradient id="Безымянный_градиент_19-3" x1="96.81" y1="44.02" x2="96.81" y2="5.96" xlink:href="#Безымянный_градиент_19"/><linearGradient id="Безымянный_градиент_19-4" x1="120.96" y1="44.02" x2="120.96" y2="5.96" xlink:href="#Безымянный_градиент_19"/><linearGradient id="Безымянный_градиент_19-5" x1="153.67" y1="44.02" x2="153.67" y2="5.96" xlink:href="#Безымянный_градиент_19"/><linearGradient id="Безымянный_градиент_19-6" x1="15.2" y1="44.02" x2="15.2" y2="5.96" xlink:href="#Безымянный_градиент_19"/></defs><title>sБалкон с двумя глухими боковыми створками</title><rect class="cls-1" x="138.96" y="0.49" width="29.41" height="49"/><rect class="cls-1" x="32.83" y="0.49" width="103.2" height="49"/><rect class="cls-2" x="38.32" y="5.96" width="18.77" height="38.06"/><path class="cls-3" d="M56.6,6.46V43.52H38.82V6.46H56.6m1-1H37.82V44.52H57.6V5.46Z"/><rect class="cls-4" x="62.27" y="5.96" width="19.95" height="38.06"/><path class="cls-3" d="M81.72,6.46V43.52H62.77V6.46H81.72m1-1H61.77V44.52H82.72V5.46Z"/><rect class="cls-5" x="87.27" y="5.96" width="19.07" height="38.06"/><path class="cls-3" d="M105.85,6.46V43.52H87.77V6.46h18.08m1-1H86.77V44.52h20.08V5.46Z"/><rect class="cls-6" x="111.42" y="5.96" width="19.07" height="38.06"/><path class="cls-3" d="M130,6.46V43.52H111.92V6.46H130m1-1H110.92V44.52H131V5.46Z"/><rect class="cls-7" x="144.13" y="5.96" width="19.07" height="38.06"/><path class="cls-3" d="M162.7,6.46V43.52H144.63V6.46H162.7m1-1H143.63V44.52H163.7V5.46Z"/><rect class="cls-1" x="0.5" y="0.49" width="29.41" height="49"/><rect class="cls-8" x="5.67" y="5.96" width="19.07" height="38.06"/><path class="cls-3" d="M24.24,6.46V43.52H6.17V6.46H24.24m1-1H5.17V44.52H25.24V5.46Z"/><polyline class="cls-9" points="81.55 5.6 62.41 24.29 81.55 43.66 71.98 5.29 62.41 43.35"/><polyline class="cls-9" points="106.11 5.94 86.97 24.63 106.11 44 96.54 5.63 86.97 43.69"/><line class="cls-9" x1="45.5" y1="22.26" x2="49.92" y2="27.72"/><line class="cls-9" x1="49.92" y1="22.26" x2="45.5" y2="27.72"/><line class="cls-9" x1="13" y1="22.26" x2="17.41" y2="27.72"/><line class="cls-9" x1="17.41" y1="22.26" x2="13" y2="27.72"/><line class="cls-9" x1="118.75" y1="22.26" x2="123.17" y2="27.72"/><line class="cls-9" x1="123.17" y1="22.26" x2="118.75" y2="27.72"/><line class="cls-9" x1="151.46" y1="22.26" x2="155.88" y2="27.72"/><line class="cls-9" x1="155.88" y1="22.26" x2="151.46" y2="27.72"/></svg>