<svg id="Слой_1" data-name="Слой 1" xmlns="http://www.w3.org/2000/svg" xmlns:xlink="http://www.w3.org/1999/xlink" viewBox="0 0 169.04 49.92"><defs><style>.cls-1{fill:#fff;stroke:#b3b4b4;stroke-miterlimit:10;}.cls-2{fill:url(#Безымянный_градиент_19);}.cls-3{fill:#b3b4b4;}.cls-4{fill:url(#Безымянный_градиент_19-2);}.cls-5{fill:url(#Безымянный_градиент_19-3);}.cls-6{fill:url(#Безымянный_градиент_19-4);}.cls-7{fill:url(#Безымянный_градиент_19-5);}.cls-8{fill:url(#Безымянный_градиент_19-6);}</style><linearGradient id="Безымянный_градиент_19" x1="47.75" y1="44.06" x2="47.75" y2="6" gradientUnits="userSpaceOnUse"><stop offset="0" stop-color="#fff"/><stop offset="1" stop-color="#c0e7f9"/></linearGradient><linearGradient id="Безымянный_градиент_19-2" x1="72.29" y1="44.06" x2="72.29" y2="6" xlink:href="#Безымянный_градиент_19"/><linearGradient id="Безымянный_градиент_19-3" x1="96.86" y1="44.06" x2="96.86" y2="6" xlink:href="#Безымянный_градиент_19"/><linearGradient id="Безымянный_градиент_19-4" x1="121" y1="44.06" x2="121" y2="6" xlink:href="#Безымянный_градиент_19"/><linearGradient id="Безымянный_градиент_19-5" x1="153.71" y1="44.06" x2="153.71" y2="6" xlink:href="#Безымянный_градиент_19"/><linearGradient id="Безымянный_градиент_19-6" x1="15.25" y1="44.06" x2="15.25" y2="6" xlink:href="#Безымянный_градиент_19"/></defs><title>sП-образный балкон</title><rect class="cls-1" x="139.01" y="0.53" width="29.41" height="49"/><rect class="cls-1" x="32.88" y="0.53" width="103.2" height="49"/><rect class="cls-2" x="38.37" y="6" width="18.77" height="38.06"/><path class="cls-3" d="M56.64,6.5V43.56H38.87V6.5H56.64m1-1H37.87V44.56H57.64V5.5Z"/><rect class="cls-4" x="62.32" y="6" width="19.95" height="38.06"/><path class="cls-3" d="M81.77,6.5V43.56H62.82V6.5H81.77m1-1H61.82V44.56H82.77V5.5Z"/><rect class="cls-5" x="87.32" y="6" width="19.07" height="38.06"/><path class="cls-3" d="M105.89,6.5V43.56H87.82V6.5h18.07m1-1H86.82V44.56h20.07V5.5Z"/><rect class="cls-6" x="111.47" y="6" width="19.07" height="38.06"/><path class="cls-3" d="M130,6.5V43.56H112V6.5H130m1-1H111V44.56H131V5.5Z"/><rect class="cls-7" x="144.18" y="6" width="19.07" height="38.06"/><path class="cls-3" d="M162.75,6.5V43.56H144.68V6.5h18.07m1-1H143.68V44.56h20.07V5.5Z"/><rect class="cls-1" x="0.55" y="0.53" width="29.41" height="49"/><rect class="cls-8" x="5.71" y="6" width="19.07" height="38.06"/><path class="cls-3" d="M24.29,6.5V43.56H6.21V6.5H24.29m1-1H5.21V44.56H25.29V5.5Z"/></svg>