<svg id="Слой_1" data-name="Слой 1" xmlns="http://www.w3.org/2000/svg" xmlns:xlink="http://www.w3.org/1999/xlink" viewBox="0 0 170.62 74.96"><defs><style>.cls-1{fill:#fff;stroke:#b3b4b4;stroke-miterlimit:10;}.cls-2{fill:url(#Безымянный_градиент_19);}.cls-3{fill:#b3b4b4;}.cls-4{fill:url(#Безымянный_градиент_19-2);}.cls-5{fill:url(#Безымянный_градиент_19-3);}.cls-6{fill:url(#Безымянный_градиент_19-4);}.cls-7{fill:url(#Безымянный_градиент_19-5);}.cls-8{fill:url(#Безымянный_градиент_19-6);}.cls-9{fill:url(#Безымянный_градиент_19-7);}.cls-10{fill:url(#Безымянный_градиент_19-8);}.cls-11{fill:url(#Безымянный_градиент_19-9);}.cls-12{fill:url(#Безымянный_градиент_19-10);}.cls-13{fill:url(#Безымянный_градиент_19-11);}.cls-14{fill:url(#Безымянный_градиент_19-12);}</style><linearGradient id="Безымянный_градиент_19" x1="48.9" y1="44.11" x2="48.9" y2="6.05" gradientUnits="userSpaceOnUse"><stop offset="0" stop-color="#fff"/><stop offset="1" stop-color="#c0e7f9"/></linearGradient><linearGradient id="Безымянный_градиент_19-2" x1="73.21" y1="44.11" x2="73.21" y2="6.05" xlink:href="#Безымянный_градиент_19"/><linearGradient id="Безымянный_градиент_19-3" x1="98.03" y1="44.11" x2="98.03" y2="6.05" xlink:href="#Безымянный_градиент_19"/><linearGradient id="Безымянный_градиент_19-4" x1="121.78" y1="44.11" x2="121.78" y2="6.05" xlink:href="#Безымянный_градиент_19"/><linearGradient id="Безымянный_градиент_19-5" x1="48.9" y1="68.97" x2="48.9" y2="53.39" xlink:href="#Безымянный_градиент_19"/><linearGradient id="Безымянный_градиент_19-6" x1="73.43" y1="68.97" x2="73.43" y2="53.39" xlink:href="#Безымянный_градиент_19"/><linearGradient id="Безымянный_градиент_19-7" x1="98.03" y1="68.97" x2="98.03" y2="53.39" xlink:href="#Безымянный_градиент_19"/><linearGradient id="Безымянный_градиент_19-8" x1="121.78" y1="68.97" x2="121.78" y2="53.39" xlink:href="#Безымянный_градиент_19"/><linearGradient id="Безымянный_градиент_19-9" x1="154.96" y1="44.11" x2="154.96" y2="6.05" xlink:href="#Безымянный_градиент_19"/><linearGradient id="Безымянный_градиент_19-10" x1="154.96" y1="68.97" x2="154.96" y2="53.39" xlink:href="#Безымянный_градиент_19"/><linearGradient id="Безымянный_градиент_19-11" x1="15.68" y1="44.11" x2="15.68" y2="6.05" xlink:href="#Безымянный_градиент_19"/><linearGradient id="Безымянный_градиент_19-12" x1="15.68" y1="68.97" x2="15.68" y2="53.39" xlink:href="#Безымянный_градиент_19"/></defs><title>sП-образный французский балкон</title><rect class="cls-1" x="33.74" y="0.51" width="103.2" height="48.43"/><rect class="cls-1" x="33.74" y="48.94" width="103.2" height="25.57"/><rect class="cls-2" x="39.41" y="6.05" width="18.99" height="38.06"/><path class="cls-3" d="M57.89,6.55V43.61h-18V6.55h18m1-1h-20V44.61h20V5.55Z"/><rect class="cls-4" x="63.28" y="6.05" width="19.86" height="38.06"/><path class="cls-3" d="M82.64,6.55V43.61H63.78V6.55H82.64m1-1H62.78V44.61H83.64V5.55Z"/><rect class="cls-5" x="88.53" y="6.05" width="18.99" height="38.06"/><path class="cls-3" d="M107,6.55V43.61H89V6.55h18m1-1H88V44.61h20V5.55Z"/><rect class="cls-6" x="112.28" y="6.05" width="18.99" height="38.06"/><path class="cls-3" d="M130.77,6.55V43.61h-18V6.55h18m1-1h-20V44.61h20V5.55Z"/><rect class="cls-7" x="39.41" y="53.39" width="18.99" height="15.58"/><path class="cls-3" d="M57.89,53.89V68.47h-18V53.89h18m1-1h-20V69.47h20V52.89Z"/><rect class="cls-8" x="63.72" y="53.39" width="19.42" height="15.58"/><path class="cls-3" d="M82.64,53.89V68.47H64.22V53.89H82.64m1-1H63.22V69.47H83.64V52.89Z"/><rect class="cls-9" x="88.53" y="53.39" width="18.99" height="15.58"/><path class="cls-3" d="M107,53.89V68.47H89V53.89h18m1-1H88V69.47h20V52.89Z"/><rect class="cls-10" x="112.28" y="53.39" width="18.99" height="15.58"/><path class="cls-3" d="M130.77,53.89V68.47h-18V53.89h18m1-1h-20V69.47h20V52.89Z"/><rect class="cls-1" x="139.79" y="0.51" width="30.36" height="48.43"/><rect class="cls-1" x="139.79" y="48.94" width="30.36" height="25.57"/><rect class="cls-11" x="145.46" y="6.05" width="18.99" height="38.06"/><path class="cls-3" d="M164,6.55V43.61H146V6.55h18m1-1H145V44.61h20V5.55Z"/><rect class="cls-12" x="145.46" y="53.39" width="18.99" height="15.58"/><path class="cls-3" d="M164,53.89V68.47H146V53.89h18m1-1H145V69.47h20V52.89Z"/><rect class="cls-1" x="0.51" y="0.51" width="30.36" height="48.43"/><rect class="cls-1" x="0.51" y="48.94" width="30.36" height="25.57"/><rect class="cls-13" x="6.18" y="6.05" width="18.99" height="38.06"/><path class="cls-3" d="M24.67,6.55V43.61h-18V6.55h18m1-1h-20V44.61h20V5.55Z"/><rect class="cls-14" x="6.18" y="53.39" width="18.99" height="15.58"/><path class="cls-3" d="M24.67,53.89V68.47h-18V53.89h18m1-1h-20V69.47h20V52.89Z"/></svg>