<svg id="Слой_1" data-name="Слой 1" xmlns="http://www.w3.org/2000/svg" xmlns:xlink="http://www.w3.org/1999/xlink" viewBox="0 0 137.38 75.1"><defs><style>.cls-1{fill:#fff;stroke-miterlimit:10;}.cls-1,.cls-13{stroke:#b3b4b4;}.cls-2{fill:url(#Безымянный_градиент_19);}.cls-3{fill:#b3b4b4;}.cls-4{fill:url(#Безымянный_градиент_19-2);}.cls-5{fill:url(#Безымянный_градиент_19-3);}.cls-6{fill:url(#Безымянный_градиент_19-4);}.cls-7{fill:url(#Безымянный_градиент_19-5);}.cls-8{fill:url(#Безымянный_градиент_19-6);}.cls-9{fill:url(#Безымянный_градиент_19-7);}.cls-10{fill:url(#Безымянный_градиент_19-8);}.cls-11{fill:url(#Безымянный_градиент_19-9);}.cls-12{fill:url(#Безымянный_градиент_19-10);}.cls-13{fill:none;stroke-linecap:round;stroke-linejoin:bevel;stroke-width:0.75px;}</style><linearGradient id="Безымянный_градиент_19" x1="15.74" y1="44.17" x2="15.74" y2="6.11" gradientUnits="userSpaceOnUse"><stop offset="0" stop-color="#fff"/><stop offset="1" stop-color="#c0e7f9"/></linearGradient><linearGradient id="Безымянный_градиент_19-2" x1="40.05" y1="44.17" x2="40.05" y2="6.11" xlink:href="#Безымянный_градиент_19"/><linearGradient id="Безымянный_градиент_19-3" x1="64.87" y1="44.17" x2="64.87" y2="6.11" xlink:href="#Безымянный_градиент_19"/><linearGradient id="Безымянный_градиент_19-4" x1="88.62" y1="44.17" x2="88.62" y2="6.11" xlink:href="#Безымянный_градиент_19"/><linearGradient id="Безымянный_градиент_19-5" x1="15.74" y1="69.03" x2="15.74" y2="53.44" xlink:href="#Безымянный_градиент_19"/><linearGradient id="Безымянный_градиент_19-6" x1="40.27" y1="69.03" x2="40.27" y2="53.44" xlink:href="#Безымянный_градиент_19"/><linearGradient id="Безымянный_градиент_19-7" x1="64.87" y1="69.03" x2="64.87" y2="53.44" xlink:href="#Безымянный_градиент_19"/><linearGradient id="Безымянный_градиент_19-8" x1="88.62" y1="69.03" x2="88.62" y2="53.44" xlink:href="#Безымянный_градиент_19"/><linearGradient id="Безымянный_градиент_19-9" x1="121.8" y1="44.17" x2="121.8" y2="6.11" xlink:href="#Безымянный_градиент_19"/><linearGradient id="Безымянный_градиент_19-10" x1="121.8" y1="69.03" x2="121.8" y2="53.44" xlink:href="#Безымянный_градиент_19"/></defs><title>sБалкон с глухой боковой створкой_1</title><rect class="cls-1" x="0.58" y="0.57" width="103.2" height="48.43"/><rect class="cls-1" x="0.58" y="49" width="103.2" height="25.57"/><rect class="cls-2" x="6.25" y="6.11" width="18.99" height="38.06"/><path class="cls-3" d="M24.73,6.61V43.67h-18V6.61h18m1-1h-20V44.67h20V5.61Z"/><rect class="cls-4" x="30.12" y="6.11" width="19.86" height="38.06"/><path class="cls-3" d="M49.48,6.61V43.67H30.62V6.61H49.48m1-1H29.62V44.67H50.48V5.61Z"/><rect class="cls-5" x="55.37" y="6.11" width="18.99" height="38.06"/><path class="cls-3" d="M73.86,6.61V43.67h-18V6.61h18m1-1h-20V44.67h20V5.61Z"/><rect class="cls-6" x="79.12" y="6.11" width="18.99" height="38.06"/><path class="cls-3" d="M97.61,6.61V43.67h-18V6.61h18m1-1h-20V44.67h20V5.61Z"/><rect class="cls-7" x="6.25" y="53.44" width="18.99" height="15.58"/><path class="cls-3" d="M24.73,53.94V68.53h-18V53.94h18m1-1h-20V69.53h20V52.94Z"/><rect class="cls-8" x="30.56" y="53.44" width="19.42" height="15.58"/><path class="cls-3" d="M49.48,53.94V68.53H31.06V53.94H49.48m1-1H30.06V69.53H50.48V52.94Z"/><rect class="cls-9" x="55.37" y="53.44" width="18.99" height="15.58"/><path class="cls-3" d="M73.86,53.94V68.53h-18V53.94h18m1-1h-20V69.53h20V52.94Z"/><rect class="cls-10" x="79.12" y="53.44" width="18.99" height="15.58"/><path class="cls-3" d="M97.61,53.94V68.53h-18V53.94h18m1-1h-20V69.53h20V52.94Z"/><rect class="cls-1" x="106.63" y="0.57" width="30.36" height="48.43"/><rect class="cls-1" x="106.63" y="49" width="30.36" height="25.57"/><rect class="cls-11" x="112.3" y="6.11" width="18.99" height="38.06"/><path class="cls-3" d="M130.79,6.61V43.67h-18V6.61h18m1-1h-20V44.67h20V5.61Z"/><rect class="cls-12" x="112.3" y="53.44" width="18.99" height="15.58"/><path class="cls-3" d="M130.79,53.94V68.53h-18V53.94h18m1-1h-20V69.53h20V52.94Z"/><polyline class="cls-13" points="49.88 6 30.73 24.68 49.88 44.06 40.3 5.68 30.73 43.74"/><polyline class="cls-13" points="74.44 6 55.29 24.68 74.44 44.06 64.87 5.68 55.29 43.74"/><line class="cls-13" x1="13.57" y1="23.1" x2="17.99" y2="28.57"/><line class="cls-13" x1="17.99" y1="23.1" x2="13.57" y2="28.57"/><line class="cls-13" x1="86.37" y1="22.89" x2="90.79" y2="28.35"/><line class="cls-13" x1="90.79" y1="22.89" x2="86.37" y2="28.35"/><line class="cls-13" x1="120.08" y1="22.05" x2="124.5" y2="27.52"/><line class="cls-13" x1="124.5" y1="22.05" x2="120.08" y2="27.52"/></svg>