<svg xmlns="http://www.w3.org/2000/svg" viewBox="0 0 1534 378.18"><defs><style>.cls-1{fill:#20465b;}</style></defs><title>sМонтажная область 12</title><g id="Слой_9" data-name="Слой 9"><path class="cls-1" d="M1052.44,184V66.72h6.07c11.83,0,23.67.22,35.49-.09,4.55-.12,6,1.11,5.93,5.8-.18,39.49-.1,79-.1,118.48,0,21.16-.12,42.33.08,63.49,0,4.06-1.27,5.14-5.15,5.08-13-.21-26,.06-39-.25a9.59,9.59,0,0,1-6.57-3.21q-32.54-43-64.69-86.37c-5.68-7.61-11.28-15.27-17-22.88-1.17-1.57-2.51-3-4.7-5.62-.19,2.81-.38,4.33-.38,5.84,0,35.67-.05,71.33.09,107,0,4-.76,5.6-5.16,5.51-12.82-.28-25.66-.21-38.49,0-3.76.06-4.81-1.2-4.81-4.89q.14-91.74,0-183.48c0-3.62,1.23-4.48,4.63-4.44,13.16.17,26.33-.07,39.49.23a9.54,9.54,0,0,1,6.55,3.24c16.43,21.6,32.62,43.39,48.86,65.13q17.64,23.61,35.27,47.22a12.75,12.75,0,0,0,2.13,1.86Z"/><path class="cls-1" d="M527.06,259.07c-.09-1.86-.24-3.47-.24-5.08,0-60.46.07-120.92-.1-181.38,0-5,1.59-6,6.21-6,26.65.2,53.32-.52,79.94.26,34.35,1,61.16,16.18,79.4,45.64a93.51,93.51,0,0,1,14,52.26c-1.07,44.22-29.17,81.9-73.73,92.73a64.45,64.45,0,0,1-14.78,1.76c-28.82.18-57.63.12-86.44.12C530,259.4,528.71,259.21,527.06,259.07Zm47.79-96c0,16.66.09,33.32-.07,50,0,3.43.89,4.71,4.46,4.64,10.16-.19,20.38.59,30.48-.23,16.8-1.36,30.81-8.5,39.34-23.66,8.65-15.37,9.5-31.71,5.08-48.71-4.8-18.49-20.55-33.41-39.54-35.31-11.54-1.15-23.23-.75-34.84-1.37-4.18-.22-5,1.41-5,5.18C574.94,130.1,574.85,146.6,574.85,163.09Z"/><path class="cls-1" d="M1293.87,259.34c-20.31,0-39.61.08-58.9-.15-1.68,0-3.79-1.81-5-3.35q-24.75-32.94-49.27-66.06c-3.24-4.35-6.56-8.63-9.84-12.94l-1.44.38a47.66,47.66,0,0,0-.5,4.89c-.06,24-.17,48,0,72,0,4.19-1.13,5.45-5.31,5.37-12.49-.24-25-.17-37.49,0-3.42,0-4.59-1-4.59-4.55q.14-92.25.05-184.49c0-1,.18-1.94.35-3.67h10.39c10.5,0,21,.13,31.49-.09,3.85-.08,5.2.95,5.16,5-.21,22.49-.13,45-.12,67.49,0,2.06.27,4.13.41,6.2l1.25.49c2.46-3.17,5-6.29,7.37-9.53,16.24-22.16,32.41-44.37,48.72-66.48,1-1.42,3.07-3,4.66-3,18.31-.21,36.61-.13,56-.13a42.1,42.1,0,0,1-2.52,4.12q-34.11,42.1-68.34,84.13c-2.3,2.82-1.45,4.42.44,6.8q37.65,47.29,75.12,94.74C1292.46,257.13,1292.86,257.82,1293.87,259.34Z"/><path class="cls-1" d="M777.87,66.77c16.65,0,33,.11,49.3-.08,3.89,0,4.2,2.75,5,5,5.93,16.24,11.69,32.55,17.57,48.82q24.5,67.77,49,135.53c.28.75.47,1.54.84,2.8a34.16,34.16,0,0,1-4,.48c-14.16,0-28.33-.07-42.49.09-3.13,0-4.45-1.3-5.39-4-3-8.48-6.24-16.86-9.06-25.39-1-3.14-2.65-4.11-5.79-4.09q-29.49.13-59,0c-3.17,0-4.67,1.17-5.74,4.21-3.1,8.78-6.51,17.45-10,26.07-.54,1.32-2.34,3-3.58,3-15.33.18-30.66.09-46,0-.43,0-.86-.37-1.67-.74Zm46.35,120.77-19.45-60.11-2,.1c-6.49,19.86-13,39.72-19.62,60Z"/><path class="cls-1" d="M1437.64,217.65V259c-1.51.16-2.79.41-4.07.41-40.65,0-81.3-.07-121.94.09-4.51,0-5.88-1.08-5.86-5.81q.26-90.7.09-181.42V67.07h131.61v41.18c-1.49.1-2.93.27-4.36.28-24.66,0-49.31.11-74-.08-4.26,0-5.46,1.34-5.32,5.4.26,7.49.3,15,0,22.49-.2,4.47,1,6.08,5.79,6,23.15-.23,46.31-.09,69.47-.08h5.81c.1,2.21.25,4,.26,5.76,0,10-.19,20,.13,30,.14,4.33-1,5.77-5.52,5.73-23.16-.21-46.32,0-69.47-.21-5-.06-6.79,1.25-6.49,6.42a216.11,216.11,0,0,1,0,22.48c-.2,4.32,1.43,5.29,5.43,5.27,24.32-.15,48.64-.08,73-.09Z"/><path class="cls-1" d="M185.77,377.37c-81.51.5-151-54.13-175.17-129.26C3.31,225.43-.71,202.17,1.14,178.39c3.05-39.17,15.69-75,40-106.25C67.38,38.49,101.28,16.5,142.6,6.23c19.85-4.93,40.1-5.29,60.49-4C240,4.56,274.19,16.38,307.93,30.35c24.26,10,49,19,73.07,29.41,37.89,16.35,60.52,46,71.77,85.11a150.23,150.23,0,0,1,5.39,56.8c-4.56,45.54-22.55,84.14-62.69,109.14-12,7.49-25.71,12.4-38.93,17.75-28.65,11.6-57.39,23-86.3,33.93A180.93,180.93,0,0,1,222,373.74C209.88,374.81,197.83,376.15,185.77,377.37Zm7.73-9.83c27.21,0,58.19-5.94,88.05-18.24q41.77-17.19,84-33.29c23.33-8.85,43.54-21.82,58-42.4C450.44,235.2,456.92,192.85,444.9,148c-10.38-38.8-33.73-67.14-71.62-82.35-26.58-10.68-53.36-20.84-79.8-31.83-32.76-13.61-66.39-22.3-102.12-23.27C131.26,8.89,82.83,32,46.61,79.22c-32.73,42.7-43.48,91.5-33.74,144.45a173.72,173.72,0,0,0,47.68,91.78C95.53,351.14,138.23,369,193.5,367.54Z"/><path class="cls-1" d="M1160.88,330.62c-.55-15.44,12.39-25.23,25-25.43,16.22-.26,27.16,10.63,27.13,26.48,0,14.78-11,25.34-25.91,25.68C1170.92,357.73,1160.23,344.93,1160.88,330.62Zm26.17-13.44A13.7,13.7,0,0,0,1173,330.81c0,8,6.25,14.88,13.64,15,7.58.1,14.36-6.85,14.44-14.83A13.84,13.84,0,0,0,1187.05,317.18Z"/><path class="cls-1" d="M703.23,305.19c12.54-.24,26.17,9.46,26,25.34-.17,14.41-8.73,26.86-26,26.73-16.14-.13-26.47-10.38-26.53-26.51C676.63,316,687.85,305.16,703.23,305.19Zm-.36,12c-8.09,0-14,5.73-14,13.63,0,8.18,6.51,15.05,14.22,14.91s13.81-6.76,13.8-14.82S711,317.21,702.87,317.2Z"/><path class="cls-1" d="M937.16,305.19c13-.33,26.36,10.51,25.92,25.68-.47,16-10.59,26.5-26.14,26.44S910.42,346,910.53,330.42C910.62,316.21,922.37,305.09,937.16,305.19Zm13.65,25.52a13.56,13.56,0,0,0-15-13.52,14.2,14.2,0,0,0-13,13.8c0,7.84,7,15,14.52,14.79S950.93,338.7,950.81,330.71Z"/><path class="cls-1" d="M1021.57,355.43c-6.63.72-12.34,1.48-16.42-5.77-3.8-6.75-9.2-12.61-13.95-18.82-1.12-1.46-2.5-2.73-4.68-5.09-.26,2.73-.46,4-.47,5.18q-.06,9.24,0,18.48c0,6.45,0,6.25-6.25,6.45-3.94.13-5.19-1.19-5.13-5.15.22-13,.19-26,0-39,0-3.73.75-5.25,4.92-5.34,5-.1,8.3,1.22,11.1,5.54,4.25,6.54,9.15,12.67,13.87,18.89,1.34,1.77,3,3.29,4.52,4.92l1.25-.44V306.91h11.27Z"/><path class="cls-1" d="M568.67,326c-.2,2.44-.43,4-.44,5.51,0,6.82-.2,13.66,0,20.48.15,4.33-2.61,4-5.27,3.77s-6.4,1.62-6.36-3.66c.11-14,.08-28,0-42,0-2.51.85-3.4,3.44-3.63,5.56-.51,9.71.77,13,5.85,4.79,7.39,10.38,14.25,15.53,21.42a15.18,15.18,0,0,1,1.43,3.77l2-1.55a20.66,20.66,0,0,0,.52-3.18c0-6.49,0-13,0-19.48s2.7-8.6,9.2-6.56c1,.3,2,2.11,2,3.23.15,14,.07,28,.14,42,0,2.76-1.08,3.63-3.82,3.89-5.6.54-9.54-.8-12.82-6-4.66-7.44-10.42-14.21-15.76-21.23A25.79,25.79,0,0,0,568.67,326Z"/><path class="cls-1" d="M618.05,307.2c8.39-2.42,13.54.62,17.81,7.42,4.58,7.3,10.25,13.92,15.47,20.82.16.21.6.21,1.58.52a20.08,20.08,0,0,0,.68-3.51c.06-7.16.24-14.34-.05-21.49-.2-4.74,2.65-4.43,5.79-4.44s5.72-.13,5.6,4.58c-.32,12.49,0,25-.18,37.49,0,2.37-1,6.67-1.86,6.75-4,.38-8.63,2.28-11.93-2.29-5.45-7.56-11.1-15-16.7-22.44-1-1.38-2.26-2.61-3.4-3.91l-1.26.38c-.14,2.18-.37,4.36-.4,6.54-.06,5.67-.29,11.35,0,17,.26,4.28-1.37,5.69-5.41,5.23a55.17,55.17,0,0,0-5.79,0Z"/><path class="cls-1" d="M1224.58,331.34c0-6.81.11-13.63,0-20.44-.07-3.13.82-4.59,4.21-4.39,8.2.48,16.61-1.25,24.4,3a25.28,25.28,0,0,1,12.49,27.06c-2.38,10.8-10.56,18.18-21.51,19-5.13.38-10.3.07-15.45.26-3,.11-4.16-1-4.1-4,.15-6.81,0-13.62,0-20.44Zm11.58-.16h0c0,3.5.06,7,0,10.49-.06,2.73,1.12,3.88,3.88,3.92,7.77.12,13.68-5.7,13.93-13.9s-5.28-14.17-13.2-14.45c-3.4-.13-5,.8-4.67,4.45C1236.36,324.83,1236.16,328,1236.16,331.18Z"/><path class="cls-1" d="M1153.14,355.22c-1.13.39-1.29.46-1.45.49-8.47,1.41-15.24-.21-18.53-9.4-1-2.79-3.32-5.11-5-7.65l-1.56.35v15.81a11.44,11.44,0,0,1-1.89.83c-9.91.88-9.89.88-9.87-8.88,0-11.81.14-23.62-.07-35.42-.07-3.71,1-5.12,4.78-4.8,6.74.56,13.58.36,20.23,1.4,5.93.92,9,5.51,9.55,11.31.59,6.07-.49,11.84-6.66,14.82-3.54,1.71-2.75,3.25-.91,5.64C1145.53,344.68,1149.15,349.78,1153.14,355.22Zm-26.79-33.12c.64,2.68-1.66,6.94,3.87,6.83,4-.08,6.82-2.8,6.83-6.42,0-3.86-2.89-6.46-7.24-6.52C1124.79,315.92,1127,319.77,1126.35,322.1Z"/><path class="cls-1" d="M1319.34,307.13c-.68,12.77-1,25.34-2.14,37.85-.53,5.86-6.82,10.84-12.89,11.59a54.17,54.17,0,0,1-7,.5c-13.54-.16-20-6.81-20-20.51,0-8.49.27-17-.16-25.47-.24-4.75,2.3-4.69,5.52-4.54,3,.13,6.45-1.06,6.23,4.36a227.6,227.6,0,0,0,.15,25.46,14.16,14.16,0,0,0,4.25,8.94c4.3,3.67,11.5.94,12.45-4.77,1.11-6.66.93-13.54,1.28-20.33.07-1.33,0-2.66,0-4C1307.19,305.7,1307.19,305.7,1319.34,307.13Z"/><path class="cls-1" d="M839,355.82c-4.25,0-7.45.43-10.45-.19-1.43-.29-3.19-2.4-3.54-4-.91-4-3.17-5.11-6.84-4.79a22.52,22.52,0,0,1-5,.05c-5-.69-8.67.42-10,6.09-.28,1.17-2.48,2.43-4,2.66-2.73.42-5.57.12-9.14.12,2.74-7.76,5.27-15,7.9-22.29,2.79-7.63,5.85-15.17,8.43-22.88,1-3.06,2.5-4.4,5.69-4.11,2.15.2,4.35-.16,6.47.14a4.22,4.22,0,0,1,3,1.91C827.37,323.91,833,339.32,839,355.82Zm-30.17-17.57a79.22,79.22,0,0,0,8.21-.1c.87-.1,2.44-1.49,2.32-1.91-1.26-4.42-2.8-8.75-4.26-13.11l-1.59.3C812.12,327.94,810.7,332.45,808.87,338.25Z"/><path class="cls-1" d="M1067.23,330.78c0-6.83-.11-13.65.11-20.47,0-1.25,1.42-3.53,2.14-3.52,8.09.18,16.34-.14,24.22,1.38s10.35,7.32,9.52,18.24c-.51,6.76-4.5,11-11.59,12.23a53.44,53.44,0,0,1-5.88,1c-6.74.43-6.74.38-6.75,7.36v1c0,8.17,0,8-7.76,7.86-3.07-.06-4.11-1.15-4.07-4.11.11-7,0-14,0-21Zm12-8c1,2.43-2,7,3.7,7,5.36,0,8.32-2.35,8.31-6.5,0-4.77-2.7-6.93-8.31-7C1077.55,316.17,1080.06,320.28,1079.25,322.77Z"/><path class="cls-1" d="M1487.68,20.13c3.59,0,6.92-.3,10.15.15a5.41,5.41,0,0,1,3.63,3.06c2.1,6.45,3.77,13,5.66,19.57a9.55,9.55,0,0,0,3.06,4.89c2.14-6.9,4.76-13.7,6.29-20.74,1.25-5.76,4-7.81,9.62-6.88a33.41,33.41,0,0,0,5.23,0V60.09h-7.5V28.81l-1.44-.27c-1.28,3.64-2.66,7.26-3.82,10.94-1.74,5.53-3.24,11.13-5,16.65-.66,2-.82,4.59-4.3,4.35-3-.21-3.77-1.74-4.49-4.28-2.59-9.22-5.45-18.36-8.2-27.53l-1.39.07V60.11h-7.5Z"/><path class="cls-1" d="M735.85,306.51c3.8,0,6.87-.46,9.7.17a7.12,7.12,0,0,1,4.19,3.84c3.4,8.24,6.44,16.62,10.08,26.2a45.71,45.71,0,0,0,2.81-4.85c2.59-6.47,5.48-12.87,7.45-19.53,1.41-4.75,3.78-6.51,8.51-5.82a50.54,50.54,0,0,0,6.47,0c-5.47,13.29-10.64,25.83-15.81,38.37-.76,1.84-1.66,3.65-2.23,5.55-1,3.49-2.53,5.46-6.87,5.51s-5.66-2.33-6.95-5.56c-5.34-13.41-10.75-26.8-16.13-40.2C736.72,309.34,736.47,308.4,735.85,306.51Z"/><path class="cls-1" d="M1448.05,309.63l-3.79,7.77c-3.33-.64-6.1-1.8-8.69-1.47-2,.25-3.78,2.36-5.66,3.65,1.39,1.67,2.51,3.77,4.25,4.9,2,1.31,4.66,1.67,7,2.61,8,3.28,10.5,8,9,17.05a15,15,0,0,1-13.57,12.56c-9.21.91-13.72-.16-20.46-5l4.41-9c2.85,1.39,5.37,3.08,8.15,3.83a10,10,0,0,0,6.55-.42c4.45-2.24,4.36-6.35,0-8.72a44.15,44.15,0,0,0-7.84-3.07c-4.5-1.41-8.41-3.33-9.08-8.67-.82-6.54-.41-12.71,5.58-17C1430.15,304.18,1437.66,303.68,1448.05,309.63Z"/><path class="cls-1" d="M1365.38,320.48c-9.22-4.56-15.5-4.08-20,1a15.33,15.33,0,0,0-1,18.55c4.1,5.78,9.54,6.48,20.45,2.64.18.23.57.5.54.72-.45,4-1,8-1.44,11.94-5.56.27-11.44,1.84-16.6.55-12.58-3.17-19.16-15.52-17.2-29.89,1.47-10.76,12.82-20.6,24.34-20.71a29.21,29.21,0,0,1,8.74,1.71,4,4,0,0,1,2.07,2.95C1365.56,313.19,1365.38,316.49,1365.38,320.48Z"/><path class="cls-1" d="M1408.07,316.7c-1.54.23-2.5.47-3.47.52-7.15.37-7.18.36-7.2,7.32,0,9-.22,18,.07,27,.17,5.45-3.47,4.05-6.39,4.24s-5.46.2-5.31-4.25c.32-9.49-.16-19,.21-28.49.18-4.68-1.29-6.41-5.89-5.8a25.92,25.92,0,0,1-4.92-.29V306.61c10.38,0,20.49-.05,30.6.12.78,0,2.07,1.56,2.2,2.52A57.57,57.57,0,0,1,1408.07,316.7Z"/><path class="cls-1" d="M845.63,306.56c9.77,0,19.23,0,28.69,0,3.49,0,3.14,2.45,2.8,4.53s1.94,5.65-2.67,6.2c-7.71.92-7.67,1-7.64,8.79,0,8.33-.21,16.67.07,25,.14,4.29-1.81,5-5.43,4.81-3.28-.18-6.24.31-6.1-4.71.29-11,.09-21.93.09-33.43l-9.81-.8Z"/><path class="cls-1" d="M542.55,331.23c0,6.83-.13,13.66.06,20.48.09,3-.92,4.05-4,4.12-7.75.19-7.76.32-7.76-7.27,0-12.48.26-25-.09-37.45-.16-5.7,3.38-4.38,6.52-4.58,3.45-.21,5.64.24,5.37,4.74-.41,6.63-.11,13.31-.11,20Z"/><path class="cls-1" d="M887.08,307.51a7,7,0,0,1,1.07-.61c10.51-1.52,10.62-1.43,10.63,8.92,0,11.83-.21,23.67.09,35.49.15,5.74-3.64,4.26-6.7,4.51s-5.26-.13-5.18-4.39C887.24,336.79,887.08,322.15,887.08,307.51Z"/><path class="cls-1" d="M1482.06,20.24c1.46,4.35-.08,5.42-3.57,5.48-7.42.13-7.43.26-7.45,7.75,0,7.64,0,15.28,0,22.92,0,2.46-.29,4.08-3.44,4.09s-3.87-1.37-3.83-4.23c.14-8.31-.13-16.62.11-24.91.13-4.28-1.24-6.3-5.68-5.73a6.86,6.86,0,0,1-3.44-.08c-1.1-.5-2.51-1.64-2.59-2.61-.08-.81,1.54-2.54,2.44-2.56C1463.71,20.17,1472.82,20.24,1482.06,20.24Z"/><path class="cls-1" d="M296.63,321.4c39.32-36.1,59.53-79.94,59.73-132.09S336.75,93.16,298.88,56.88l21.27,8.33c17,6.68,34.38,12.71,51.06,20.18,28.63,12.84,45.58,36.18,54.47,65.47,10.29,33.88,7.29,66.95-9.52,98.24-11,20.56-27.14,35.93-49.29,44.62-22.61,8.87-45,18.22-67.55,27.34A16.93,16.93,0,0,1,296.63,321.4Z"/><path class="cls-1" d="M331.94,183.78c-.3,72.82-40.15,131.44-101.78,153C175.35,356,125.42,344.91,82.48,306.37,47,274.53,30.6,233.21,31.49,186,32.78,117.19,76.14,57.75,141.84,39.1,190.42,25.3,235.15,35,274.19,66.72,313,98.31,330.64,140.57,331.94,183.78ZM180.77,332.22c6-.57,11.68-.91,17.27-1.67,39.46-5.36,70.82-24.58,93.82-56.75,21.16-29.61,29.67-63.19,25.85-99.3-3.69-34.93-18-65.11-43.52-89.81C227.62,39.58,154.57,34.55,102.76,73.15A144.45,144.45,0,0,0,58.42,250.84C82.78,302.34,124.36,328.85,180.77,332.22Z"/><path class="cls-1" d="M145.71,72.8c11.82.75,22.92,2,34,2,10.93,0,21.87-1.21,33-1.9-1.61,5.68-3.66,11.41-4.84,17.32-4.33,21.72.1,42.29,10.57,61.25,9.4,17,20.35,33.2,30.62,49.74,1.09,1.76,2.23,3.5,3.77,5.91-10.79,0-20.57.1-30.35-.11a5.92,5.92,0,0,1-4-2.36c-25.79-35.88-51.06-72.07-66.81-113.84C149.53,85.06,147.8,79.15,145.71,72.8Z"/><path class="cls-1" d="M133,254.49c3.9-6.92,8.15-13,10.84-19.61,3.21-8,8.39-11,16.75-11.55,19.59-1.18,39.11-3.3,58.68-4.72a264,264,0,0,1,70,4.5c2.76.54,5.49,1.25,9.25,2.11-14.2,18.68-25.8,38.26-33.53,60.87-2.4-2.89-4.24-5.14-6.1-7.35-13.1-15.58-30.2-23.54-50-26.47-19.31-2.86-38.52-1-57.76.76C145.37,253.56,139.59,254,133,254.49Z"/><path class="cls-1" d="M96,286.47A219.27,219.27,0,0,0,61.2,225.76c3.62-.69,6.37-1.13,9.08-1.73,22.26-5,38.25-18.53,50.68-37,12.61-18.78,21.15-39.6,30.42-60.06.54-1.19,1.13-2.36,2.05-4.25,4.38,7.94,8,15.59,12.64,22.59,3.23,4.9,3.2,8.88,1,14.15-14.6,34.14-29.12,68.32-50.26,99.11-5.73,8.36-12.31,16.13-18.46,24.2A43,43,0,0,0,96,286.47Z"/></g></svg>