<svg id="Слой_1" data-name="Слой 1" xmlns="http://www.w3.org/2000/svg" viewBox="0 0 526.99 135.45"><defs><style>.cls-1{fill:#e2202b;}.cls-2{fill:#252020;}</style></defs><title>66Монтажная область 3</title><path class="cls-1" d="M0,124.85V0H127.48c-7.32,7.39-14.17,14.51-21.31,21.34-1,1-3.42.89-5.19.89q-36,.07-72,0H22.82V71.84c1.41-1.17,2.52-2,3.48-2.9,7-6.93,13.78-14,21-20.74a12.39,12.39,0,0,1,7.27-3.11c8.78-.37,17.59-.14,25.4-.14Z"/><path class="cls-1" d="M136.21,135.45H10.44L90.79,55c0,9.15.1,18.89-.12,28.62,0,1.37-1.42,2.89-2.52,4-6.89,7-13.89,13.93-20.83,20.89-1.11,1.12-2.13,2.34-3.75,4.12h50.26v-5.9c0-23.83.09-47.66-.09-71.49a11.36,11.36,0,0,1,3.87-9.11c6.08-5.8,11.87-11.9,18.6-18.72Z"/><path class="cls-2" d="M522.86,49.52h-26.2c-2.87-7.81-9.06-11.13-17.19-8.63-2.09.65-4.82,2.79-5.11,4.59s1.95,4.79,3.77,5.51c5.83,2.32,12,3.8,18,5.64,4.76,1.46,9.63,2.67,14.22,4.55,8.81,3.61,15.24,9.52,16.36,19.61,1.28,11.45-2,21.18-11.75,27.86a36.11,36.11,0,0,1-11.21,5.24c-4,1-5.71,3.1-6.89,6.72-3,9.23-3.14,9.19-12.81,9.19q-7.5,0-15-.06a11.21,11.21,0,0,1-1.7-.46l4.8-13.42c-10.63-3-20.78-7-25.79-17.62-2.05-4.38-2.8-9.37-4.36-14.81h29.06c.94,2.48,1.51,5.51,3.08,7.88,3.7,5.58,17.06,6.32,21.8,1.5,3.47-3.52,2.69-8.55-2.19-10.41-7-2.65-14.22-4.55-21.32-6.85a95.91,95.91,0,0,1-10.79-3.83c-18-8.29-20.55-31.89-4.68-44.07,11.26-8.64,24.29-9.13,37.6-7.46,7.2.9,13.95,3.29,19.44,8.27C520.13,34,523,41,522.86,49.52Z"/><path class="cls-2" d="M257.05,83.26h28.24c3.24,11.31,11.12,15.57,21.27,11.62,3.21-1.25,6-3.38,5.18-6.9a9.38,9.38,0,0,0-4.83-5.93c-6.63-2.6-13.59-4.35-20.41-6.48-3-.94-6.05-1.84-9-3-9-3.62-15.92-9-16.72-19.69-.87-11.6,2.75-21.42,13.11-27.13,16.47-9.08,33.59-8.83,50.12-.1C333,30.35,336.7,38.86,337,49.36H310.56c-2.73-7.93-10.13-11.44-18.07-8.09-1.74.73-3.89,2.71-4.08,4.33s1.49,4.32,3,5a145,145,0,0,0,14.55,5c6.94,2.24,14.18,3.8,20.81,6.75,20.32,9,16.45,35.45,4.49,44.71-10.2,7.89-22,9.79-34.37,9.61-10.89-.16-21.15-2.64-29.73-9.81C260,100.82,257.07,92.85,257.05,83.26Z"/><path class="cls-2" d="M439.47,114.32H410.2c-1-3.25-1.9-6.76-3.26-10.06-.49-1.18-2.12-2.64-3.25-2.67-8.81-.22-17.63-.12-26.62-.12-1.49,4.46-2.89,8.68-4.31,13h-29l6-16.3c8.92-24.16,17.91-48.3,26.67-72.53,1.1-3,2.46-4.11,5.64-4,7,.23,14,0,21,.19,1.38.05,3.52,1.24,4,2.4q16.45,44.42,32.54,88.94C439.68,113.39,439.53,113.76,439.47,114.32ZM400.23,80.67c-2.66-9.15-5.14-17.7-8-27.59-3.12,9.88-5.85,18.52-8.71,27.59Z"/><path class="cls-2" d="M253.48,114.41H224.25a67.33,67.33,0,0,1-2.29-7.56c-.74-4-2.47-5.83-7-5.51a171.07,171.07,0,0,1-19.48,0c-3.39-.15-5,.84-5.92,4.21-2.59,9-2.77,9-12.27,9q-9,0-18,0a13.2,13.2,0,0,1-1.49-.3c3.65-9.84,7.27-19.6,10.88-29.36C176,65.21,183.31,45.59,190.41,25.9c1.11-3.08,2.34-4.52,5.9-4.35,7,.35,14,0,21,.23a5.16,5.16,0,0,1,3.89,2.54c10.94,29.62,21.69,59.3,32.47,89C253.7,113.43,253.61,113.62,253.48,114.41Zm-55.9-33.79h16.68c-2.63-9-5.13-17.54-7.62-26.07l-.92.09C203.05,63.15,200.39,71.66,197.58,80.62Z"/></svg>