<svg id="Слой_1" data-name="Слой 1" xmlns="http://www.w3.org/2000/svg" viewBox="0 0 689.17 133"><title>55Монтажная область 11</title><path d="M65.93,2.9q25.74,0,51.48,0c8.15,0,12.12,4.14,12.12,12.33,0,34-.24,68,.14,102,.11,9.43-5.79,13.78-13.79,13.77q-50.23,0-100.47,0c-8.16,0-13.52-5.25-13.53-13.37q-.07-50.74,0-101.47c0-9,4.39-13.21,13.55-13.21ZM14.41,66.1c0,15.31.12,30.63-.07,46-.05,4.71,1.6,6.53,6.38,6.47,13.49-.19,27-.13,40.46,0,3.22,0,4.65-1.11,4.65-4.27q0-15.73,0-31.46c0-3.36-1.6-4.78-5-4.61s-7,0-10.48.09c-2.94.08-4.41-1.41-4.45-4.17-.08-5,0-10,.08-15,0-2.85,1.53-4.18,4.45-4.08,3.5.11,7,0,10.49,0s5-1.49,5-5.15q-.23-15,0-30c.06-3.64-1.57-4.58-4.82-4.56-13.82.08-27.64.12-41.46,0-4.15,0-5.4,1.62-5.35,5.7C14.53,36.13,14.4,51.11,14.41,66.1Zm71.47.65c0-12,0-12-12-12a14.71,14.71,0,0,0-2,0c-3.38.44-4.34,2.88-2.26,5.66,3.87,5.16,3.86,7.42.48,12.37C69.3,73.9,68.5,76,69,77s2.7,1.73,4.19,1.81C85.89,79.5,85.89,79.45,85.88,66.75Zm-18.79.15c-1.34-2.65-2.38-6.72-3.61-6.77-3.45-.17-4.8,3-4.79,6.28s1,6.72,4.85,6.8C64.59,73.23,65.72,69.45,67.09,66.9Z"/><path d="M429.11,38.56c-11.83,0-23.66.13-35.49-.08-3.8-.07-5.11,1.38-5.07,4.92.07,6.33.21,12.67-.07,19-.19,4.44,1.56,5.77,5.85,5.73,20-.16,40-.07,60-.09,10.67,0,15.5,4.74,15.49,15.43,0,8.49.23,17-.32,25.47-.6,9.38-4.45,13.21-13.76,14.86a39.4,39.4,0,0,1-7,.46q-30.25,0-60.49,0c-8.22,0-13.24-3.87-15.36-11.63-1.17-4.3,0-5.87,4.44-5.86l68.49.06c6.75,0,7.16-.47,7.09-7,0-2.84-.18-5.68,0-8.5.34-4.72-1.64-6.59-6.39-6.55q-26.51.22-53,0a70.78,70.78,0,0,1-11.88-1.2c-5.84-1-9.33-5.15-9.41-11.17-.15-11.66-.26-23.33,0-35,.23-9.91,6-15.17,15.87-15.16,22.33,0,44.67.3,67-.15,8.57-.18,12.22,6.19,14.06,12.28,1,3.32-.93,4.36-4.12,4.33-12-.1-24,0-36,0Z"/><path d="M263.32,75.61c0-13.32-.41-26.66.13-40,.4-9.65,5.2-13.42,14.83-13.42h66c10.45,0,16.58,5.17,16.72,15.55.31,24.15.18,48.31,0,72.46,0,6.3-3.79,10.27-10,12.13-4,1.2-5.66-.18-5.63-4.21q.08-13.75,0-27.49c0-6.16-.81-6.9-6.93-6.9q-25.73,0-51.47,0c-7.31,0-7.71.41-7.71,7.54,0,9.16.06,18.33,0,27.49,0,5.37-.64,5.77-5.78,4.49-9.54-2.39-10.62-3.8-10.61-13.69q0-17,0-34ZM312.51,68c9.15,0,18.3,0,27.45,0,3.63,0,5.59-1.41,5.5-5.34-.15-6.32-.12-12.64-.06-19,0-3.56-1.62-5.2-5.13-5.2-18.46,0-36.93.06-55.4,0-4,0-5.72,1.68-5.62,5.7.15,6,.24,12,0,18-.2,4.41,1.61,6,5.84,5.89C294.21,67.94,303.36,68,312.51,68Z"/><path d="M589.15,75.42c0-12.16-.15-24.32.09-36.47a27.11,27.11,0,0,1,2.08-10.08c2-4.54,5.59-6.81,11.07-6.75,23.14.24,46.29.08,69.44.1,7.8,0,12.93,4.1,14.53,11.66a35.64,35.64,0,0,1,.88,7.41q.12,33.46,0,66.95c0,8-3.66,12.32-11.23,14.41-3.92,1.09-5.62.09-5.57-4.12.11-9.32.07-18.65,0-28,0-6.42-.52-6.83-6.76-6.82-17.82,0-35.64.12-53.46-.1-4,0-5.39,1.38-5.36,5.15.09,10,0,20,.1,30,.06,4.28-.86,6-5.79,4.68-8.4-2.17-10.09-3.76-10.1-12.56V75.42ZM638,38.55v0c-9.31,0-18.63.15-27.93-.07-3.72-.09-5.17,1.3-5.14,4.87,0,6.65,0,13.3-.06,20-.06,3.33,1.23,4.83,4.7,4.82q27.93-.12,55.87,0c3.56,0,5.18-1.4,5.11-5-.12-6.32-.11-12.64,0-19,.06-3.89-1.32-5.72-5.59-5.6C656,38.73,647,38.55,638,38.55Z"/><path d="M480.92,75.11c0-12.82-.09-25.64.05-38.46,0-4.52.67-9.16,4.88-11.91a13.6,13.6,0,0,1,6.77-2.43q35.46-.24,70.94,0c8.2,0,14.76,6.17,14.83,14.42.21,24.65.14,49.29,0,73.94,0,5.95-6.44,12.2-12.43,12.15-1.1,0-3-2.38-3.11-3.75-.35-5.64-.14-11.31-.14-17q0-27.72,0-55.45c0-7.78-.25-8-8.23-8.05-4,0-8,.08-12,.05-3.3,0-4.91,1.49-4.86,4.85.06,3.83.09,7.66,0,11.49-.15,5.28-3,8.2-7.91,8.28-5.12.09-8.3-3-8.4-8.26-.07-3.83-.08-7.67,0-11.49.07-3.5-1.19-5.24-5-5-4.32.26-8.66,0-13,.08-5.77,0-6.67.87-6.68,6.66q-.06,35.72,0,71.44a14.27,14.27,0,0,1-.27,4.45,4.47,4.47,0,0,1-2.42,2.7c-6.18,1.62-12.91-3.68-13-10.2-.09-12.82,0-25.65,0-38.47Z"/><path d="M154.74,74.05c0-11.66.22-23.33-.06-35-.24-9.69,6.06-17.32,16.85-17,22.31.63,44.65.18,67,.18,6.52,0,13.73,7.05,13.4,13.48-.05,1-2,2.58-3.24,2.69-4.13.37-8.31.26-12.48.26-19.49,0-39,.08-58.47-.18-4.63-.06-6.29,1.5-6.26,6q.15,28.49,0,57c0,4.76,2.49,5.39,6.36,5.38,21.65-.09,43.31-.14,65,.05,3.74,0,9.66-2.43,9.49,5-.13,5.93-3.66,12.44-10.35,12.45l-32.49,0c-10.49,0-21,.15-31.48-.07a83.41,83.41,0,0,1-13.82-1.54c-6.27-1.2-9.32-5.22-9.35-11.71C154.7,98.71,154.74,86.38,154.74,74.05Z"/></svg>