<svg id="Слой_1" data-name="Слой 1" xmlns="http://www.w3.org/2000/svg" viewBox="0 0 146 43.4"><defs><style>.cls-1{fill:#1152b2;}</style></defs><title>sМонтажная область 1</title><g id="лМонтажная_область_1_1" data-name="лМонтажная область 1 1"><path id="Path_344" data-name="Path 344" class="cls-1" d="M1.75,4.36,39,.86l.7,5.4-35.3.2c.1,7.8.1,15.7.1,23.5C3.55,21.46,2.65,12.86,1.75,4.36Z"/><path id="Path_345" data-name="Path 345" class="cls-1" d="M4.85,37.86l35.5-.4.2-23.7c.8,8.6,1.5,17.3,2.3,25.9l-37.7,3.8Z"/><path id="Path_346" data-name="Path 346" class="cls-1" d="M0,23.36a48.54,48.54,0,0,1,13.8-4.5,47.15,47.15,0,0,1,15.9,0,42.19,42.19,0,0,1,14.6,5.4c0,.4-.1.9-.1,1.3A31.56,31.56,0,0,0,39,23c-4.9-1.9-9-2.1-13.6-2.3a66.49,66.49,0,0,0-14.1,1,75.35,75.35,0,0,0-11.3,3A2.85,2.85,0,0,0,0,23.36Z"/><path id="Path_347" data-name="Path 347" class="cls-1" d="M21.45,0v.2c3.2,11.3,3.4,12.3,3.4,12.3a47.39,47.39,0,0,1,.1,18,30.62,30.62,0,0,1-1,3.9l1.5.1c.2-.9.6-2,.9-3.5a47.49,47.49,0,0,0,.3-18.4A50.87,50.87,0,0,0,22.55.06Z"/><path id="Path_348" data-name="Path 348" class="cls-1" d="M64.85,13.66h0l2.3-11.4h3.5l-3.9,16.8h-3.1L60.45,8h-.1l-3.1,11.1h-3.1l-3.9-16.8h3.5L56,13.66h.1l3-11.4h2.7Z"/><path id="Path_349" data-name="Path 349" class="cls-1" d="M75.75,3.56h-3.4V1.06h3.4Zm0,15.5h-3.4V6.56h3.4Z"/><path id="Path_350" data-name="Path 350" class="cls-1" d="M81.55,6.56l.2,1.8a5.36,5.36,0,0,1,1.5-1.5,3.51,3.51,0,0,1,2-.5,3.85,3.85,0,0,1,3,1.2,6,6,0,0,1,1.1,3.9v7.6H86v-7.6a2.62,2.62,0,0,0-.5-1.9,2,2,0,0,0-1.4-.6,2.77,2.77,0,0,0-1.3.3,1.76,1.76,0,0,0-.9.8v9h-3.4V6.56Z"/><path id="Path_351" data-name="Path 351" class="cls-1" d="M91.35,12.86a8.09,8.09,0,0,1,1.3-4.8,4,4,0,0,1,3.6-1.8,3.29,3.29,0,0,1,1.7.4,3.74,3.74,0,0,1,1.3,1.2V1.06h3.4v18h-2.9l-.3-1.5a4.36,4.36,0,0,1-1.4,1.3,4.07,4.07,0,0,1-1.8.5,4.31,4.31,0,0,1-3.6-1.7,7.2,7.2,0,0,1-1.3-4.5Zm3.3.3a4.75,4.75,0,0,0,.6,2.6,1.92,1.92,0,0,0,1.8.9,3.08,3.08,0,0,0,1.3-.3,2,2,0,0,0,.9-.9v-5.3a2,2,0,0,0-.9-.9,2.77,2.77,0,0,0-1.3-.3,1.89,1.89,0,0,0-1.8,1.1,7.17,7.17,0,0,0-.6,2.9Z"/><path id="Path_352" data-name="Path 352" class="cls-1" d="M104.65,12.66a6.49,6.49,0,0,1,1.6-4.6,6,6,0,0,1,8.6,0,7,7,0,0,1,1.6,4.6v.2a6.49,6.49,0,0,1-1.6,4.6,6.16,6.16,0,0,1-8.7,0,7,7,0,0,1-1.6-4.6Zm3.4.3a6,6,0,0,0,.6,2.7,1.89,1.89,0,0,0,1.9,1,2.28,2.28,0,0,0,1.9-1,6.26,6.26,0,0,0,.6-2.7v-.2a6.26,6.26,0,0,0-.6-2.7,2.19,2.19,0,0,0-3.8,0,6.26,6.26,0,0,0-.6,2.7Z"/><path id="Path_353" data-name="Path 353" class="cls-1" d="M129.45,14.36h0l1.6-7.9h3.3L131.15,19h-2.8l-2.3-7.2H126l-2.3,7.2h-2.8l-3.2-12.4H121l1.5,7.8h.1l2.3-7.8h2.3Z"/><path id="Path_354" data-name="Path 354" class="cls-1" d="M142.75,15.56a1.39,1.39,0,0,0-.5-1,4.79,4.79,0,0,0-2-.7,7.89,7.89,0,0,1-3.3-1.3,2.64,2.64,0,0,1-1.1-2.4,3.19,3.19,0,0,1,1.4-2.7,5.16,5.16,0,0,1,3.6-1.1,5.68,5.68,0,0,1,3.8,1.1,3.5,3.5,0,0,1,1.4,2.8v.1h-3.3a1.66,1.66,0,0,0-.5-1.2,2.42,2.42,0,0,0-2.7-.1,1.23,1.23,0,0,0-.5,1,1.05,1.05,0,0,0,.5.9,6.79,6.79,0,0,0,2,.7,7.26,7.26,0,0,1,3.4,1.4,3,3,0,0,1,1.1,2.5,3.5,3.5,0,0,1-1.4,2.8,6.48,6.48,0,0,1-3.8,1.1,5.59,5.59,0,0,1-3.9-1.3,3.7,3.7,0,0,1-1.4-2.9v-.1h3.1a1.8,1.8,0,0,0,.7,1.5,2.4,2.4,0,0,0,1.6.4,2.3,2.3,0,0,0,1.4-.4A2.1,2.1,0,0,0,142.75,15.56Z"/><path id="Path_355" data-name="Path 355" class="cls-1" d="M61.45,37.46a4.5,4.5,0,0,1-1.9,1.4,8.66,8.66,0,0,1-3.2.6,5.32,5.32,0,0,1-5.5-5v-3.3a5.05,5.05,0,0,1,1.5-3.9,5,5,0,0,1,3.8-1.5A5.27,5.27,0,0,1,60,27a4,4,0,0,1,1.3,3.1v.1h-2.5a2.72,2.72,0,0,0-.6-1.7,2.79,2.79,0,0,0-1.8-.6,2.52,2.52,0,0,0-2,.9,3.56,3.56,0,0,0-.7,2.4V34a3.75,3.75,0,0,0,.8,2.5,2.81,2.81,0,0,0,2.1,1,3.89,3.89,0,0,0,1.5-.2,4.05,4.05,0,0,0,.9-.5v-2.6h-2.6v-1.8h5.1Z"/><path id="Path_356" data-name="Path 356" class="cls-1" d="M68.75,31.66h-1a3.55,3.55,0,0,0-1,.2,1.34,1.34,0,0,0-.6.7v6.7h-2.7v-9.9H66l.1,1.5a2.73,2.73,0,0,1,.9-1.2,2,2,0,0,1,1.3-.4h.4a.37.37,0,0,1,.3.1Z"/><path id="Path_357" data-name="Path 357" class="cls-1" d="M69.55,34.26a5.33,5.33,0,0,1,1.2-3.7,4.89,4.89,0,0,1,6.9,0,4.8,4.8,0,0,1,1.2,3.6v.2a5.24,5.24,0,0,1-1.2,3.6,4.15,4.15,0,0,1-3.5,1.4,4,4,0,0,1-3.4-1.4,4.8,4.8,0,0,1-1.2-3.6Zm2.6.1a4.19,4.19,0,0,0,.5,2.2,1.56,1.56,0,0,0,1.5.8,1.76,1.76,0,0,0,1.5-.8,5.45,5.45,0,0,0,.5-2.2v-.2a4.42,4.42,0,0,0-.5-2.2,1.56,1.56,0,0,0-1.5-.8,1.76,1.76,0,0,0-1.5.8,5.37,5.37,0,0,0-.5,2.1Z"/><path id="Path_358" data-name="Path 358" class="cls-1" d="M86.55,37.76a3.45,3.45,0,0,1-1.2,1.2,3.17,3.17,0,0,1-1.6.4,2.89,2.89,0,0,1-2.4-1.1,4.89,4.89,0,0,1-.9-3.3v-5.7h2.7v5.8a3,3,0,0,0,.4,1.8,1.61,1.61,0,0,0,1.1.5,3.59,3.59,0,0,0,1.1-.2,1.56,1.56,0,0,0,.8-.6v-7.2h2.7v9.9h-2.2Z"/><path id="Path_359" data-name="Path 359" class="cls-1" d="M100.05,34.56a5.34,5.34,0,0,1-1,3.5,3.15,3.15,0,0,1-2.8,1.3,3.53,3.53,0,0,1-1.4-.3,2.72,2.72,0,0,1-1-.8V43h-2.7V29.36h2.3l.2,1.2a2.66,2.66,0,0,1,1.1-1,3.26,3.26,0,0,1,1.4-.4,3.7,3.7,0,0,1,2.9,1.4,6.21,6.21,0,0,1,1,3.8Zm-2.7-.2a4.56,4.56,0,0,0-.5-2.3,1.69,1.69,0,0,0-1.4-.9,3,3,0,0,0-1,.2,2.34,2.34,0,0,0-.7.7v4.5a1.34,1.34,0,0,0,.7.6,1.8,1.8,0,0,0,1,.2,1.6,1.6,0,0,0,1.4-.8,4.65,4.65,0,0,0,.5-2.1Z"/></g></svg>