<svg id="Слой_1" data-name="Слой 1" xmlns="http://www.w3.org/2000/svg" viewBox="0 0 1018.92 525.29"><defs><style>.cls-1{fill:#e41d24;}.cls-2{fill:#081c26;}.cls-3{fill:#091c26;}</style></defs><title>55Монтажная область 9</title><path class="cls-1" d="M913.73,165.91c-3.05,1.49-6.22,3-9.32,4.56-20.24,10.49-40.8,20.32-61.83,29.09q-28.19,11.77-57.13,21.64-38.25,13-77.54,22.29c-17.42,4.13-34.93,8-52.71,10.48-11.79,1.66-23.48,4.06-35.27,5.68-9,1.24-18.19,1.25-27.11,2.84-4.76.85-6-1.47-7.8-4.53-14.46-25-29-50-43.45-75.06-9.91-17.21-19.7-34.49-29.52-51.76-1.14-2-1.76-3-3.37-.13C503,141,497,150.87,491.26,160.82c-6.67,11.5-13.24,23.05-19.88,34.57-7,12.2-14.15,24.36-21.16,36.58-5.66,9.86-11.25,19.76-16.85,29.66a2.43,2.43,0,0,1-2.71,1.39c-8.57-1.1-17.13-2.31-25.72-3.2-10-1-19.86-2.56-29.75-4.13-12.85-2.05-25.67-4.22-38.41-6.84q-32.52-6.69-64.44-15.87c-22.22-6.38-44.11-13.75-65.72-21.9-16.13-6.08-32-12.74-47.74-19.85-14.77-6.68-29.29-13.84-43.78-21.1a20.71,20.71,0,0,1-2.22-1.08c-1.33-.86-2.68-2.81-4.15-1.81s.2,2.87.55,4.19c6.73,25.34,13.69,50.62,20.49,75.95,5.78,21.5,11.4,43,17.1,64.57,1.22,4.62,2.32,9.28,3.75,13.85.78,2.49.58,3.56-2.37,3.55q-29.94-.11-59.9,0c-2.09,0-3-.55-3.6-2.89-9-33.92-18.37-67.76-27.43-101.67-8.28-31-16.22-62.11-24.48-93.13C25.31,103.41,17.54,75.24,9.92,47,6.93,36,4.05,24.92,1,13.26,15.7,25.52,30.22,37,45.21,48c15.62,11.39,31.67,22.16,48,32.49,15.3,9.67,31,18.64,47,27.11q25.78,13.7,52.62,25.35A831.07,831.07,0,0,0,277,164.34a741.29,741.29,0,0,0,73.36,18.93c15.82,3.24,31.7,6.54,47.86,7.94,1.6.14,2-.18,2.72-1.43q17.39-30.32,34.94-60.55c12-20.63,24-41.2,36-61.85,10.9-18.87,21.69-37.81,32.54-56.72,1.84-3.2,3.72-6.39,5.81-10C515,9,519.6,17,524.25,25.05c11,18.83,22,37.63,32.88,56.49,9,15.55,17.78,31.21,26.76,46.76,9.73,16.85,19.6,33.62,29.39,50.44,1.52,2.61,3.35,5.12,4.33,7.93,1.65,4.73,5,5,9,4.35,27.69-4.48,55.24-9.74,82.39-16.86,14.39-3.78,28.73-7.84,42.9-12.46,19.62-6.4,39-13.37,58.14-21.19a771.62,771.62,0,0,0,70.38-33.18A772.36,772.36,0,0,0,955,62.18c16.63-11.44,33-23.23,48.56-36.09,4.85-4,9.83-7.88,15.38-12.31-1,6.66-2.92,12.34-4.46,18.12q-14.43,54.44-29,108.85c-8.48,31.51-17.28,62.93-25.74,94.45C952,264.09,944.53,293.05,936.91,322c-1.94,7.35-2,7.34-9.91,7.34-17.45,0-34.91,0-52.36,0-2.68,0-4.3.31-3.17-3.68,5.87-20.77,11.35-41.65,16.91-62.5q12.63-47.31,25.15-94.65C913.72,167.79,914.76,167.2,913.73,165.91Z"/><path class="cls-2" d="M689.45,448.5q6.46-29.56,12.92-59.08c2.47-11.23,5.07-22.43,7.43-33.69.48-2.28,1.52-3,3.67-3q38.94,0,77.9,0c2.73,0,3.25,1.16,3.21,3.53-.12,5.44,0,10.89,0,16.33,0,47.33,0,94.65.1,142,0,4.11-1.21,5.1-5.17,5q-21.15-.36-42.3,0c-3.72,0-4.67-1-4.66-4.69.14-39.37.09-78.74.09-118.11V392c-2.44,1.26-1.67,3.56-2.05,5.24q-12.94,58.42-25.62,116.93c-.83,3.79-2.09,5.58-6.49,5.46-13.26-.35-26.53-.18-39.79-.08-2.88,0-4.45-.5-5.15-3.8-5.64-26.42-11.49-52.8-17.28-79.18q-4.77-21.72-9.58-43.43a21.86,21.86,0,0,0-1.29-2.9v5.92c0,39.51-.05,79,.08,118.52,0,3.8-.93,5-4.85,4.92-14.37-.23-28.76-.17-43.14,0-3,0-4.11-.69-4.11-3.94q.15-79.58,0-159.15c0-3,1-3.77,3.84-3.76q38.33.13,76.65,0c2.69,0,3.84.78,4.45,3.59,4.83,22.63,9.86,45.21,14.84,67.81,1.64,7.44,3.33,14.87,5,22.31C688.28,447.22,688.14,448.16,689.45,448.5Z"/><path class="cls-3" d="M85.7,436.13c0-26.24.07-52.49-.08-78.73,0-3.63.86-4.73,4.63-4.72,32,.16,63.95-.56,95.89.31,23.84.65,44.24,13,49.83,38.14a51,51,0,0,1,1.4,11.11q0,32.86,0,65.75c0,25.9-14.08,43.79-39.32,49.81a61.18,61.18,0,0,1-14.42,1.73c-31,0-62-.1-93,.07-4.11,0-5.07-1.19-5-5.16C85.78,488.34,85.7,462.23,85.7,436.13Zm61.16-.07c0,14.78.06,29.55,0,44.33,0,3,.31,4.59,4,4.05,3.26-.47,6.66,0,10,.15,8.11.42,14.48-4.79,14.5-12.1q.06-36,0-71.93A12.22,12.22,0,0,0,162.72,388c-3.91,0-7.82.21-11.71-.06-3.36-.24-4.25,1-4.22,4.24C147,406.78,146.87,421.42,146.86,436.06Z"/><path class="cls-2" d="M418.34,435.93c0-26.24.06-52.49-.07-78.73,0-3.41.84-4.52,4.39-4.51,32.95.14,65.91-.62,98.83.31,25.41.71,44.86,15,48.27,42.32,2.46,19.6-9.38,38.82-29.67,46.3-.91.33-1.86.58-2.78.89-1.47.5-2.2.86-1.15,2.85,12.38,23.56,24.54,47.23,36.93,70.78,1.5,2.85.88,3.38-1.9,3.38-19,0-38,0-57,0-2.32,0-3.19-1.21-3.93-3q-7.8-18.66-15.63-37.31c-3.65-8.72-7.41-17.39-10.87-26.19-1-2.59-2.81-2.28-4.72-2.25-2.7,0-2.08,2.13-2.08,3.68,0,20.1-.1,40.2.05,60.3,0,3.53-.68,4.85-4.55,4.79-16.61-.22-33.23-.19-49.84,0-3.54,0-4.42-1.08-4.4-4.5C418.4,488.7,418.34,462.32,418.34,435.93ZM477,403.17c0,5.29,0,10.59,0,15.88,0,1.32-.38,3.19,1.7,3.17,7.4-.06,15,1.5,21.57-3.93,6-5,8.67-11.23,7.58-18.74-1-6.81-5.17-11.59-11.7-14-5.45-2-11.17-1.88-16.87-1.77-2.27,0-2.3,1.48-2.3,3.1C477,392.31,477,397.74,477,403.17Z"/><path class="cls-2" d="M404.09,433.87c0,12.28.15,22.19,0,32.1-.24,12.6-2.83,24.4-11.24,34.5C386,508.66,377.3,514,367.67,517.74a86.08,86.08,0,0,1-34.22,6c-12.92-.34-25.91.61-38.47-3.45-17.52-5.67-32.58-14.44-39.92-32.53a45.84,45.84,0,0,1-3.42-17c-.1-23-.44-46.07.09-69.09.43-18.83,9.46-33,26-42.28,18.65-10.47,39-12.93,59.78-11.46,16.15,1.15,31.85,5,45.39,14.76,12.14,8.79,19,20.38,20.51,35.53C404.66,410.92,403.42,423.58,404.09,433.87Zm-90.49,2.2v41a13.76,13.76,0,0,0,13,14c8.56.64,15.4-6.32,15.44-13.54q.18-41.43,0-82.84c0-7.66-7.13-13.51-15.21-13.49-6,0-13.67,6.81-13.38,13.86C314,408.72,313.6,422.41,313.6,436.07Z"/><path class="cls-2" d="M885.63,352.77c14.93,0,29.87.11,44.8-.08,3.29,0,4.28,1.31,4.89,4.16,4.85,22.76,9.85,45.48,14.74,68.23q8.21,38.18,16.31,76.39c1.1,5.14,2.13,10.31,3.45,15.41.58,2.22-.1,2.65-2.1,2.65q-28.69-.06-57.37,0c-2.45,0-3.28-1-3.61-3.44-.92-6.85-2.18-13.66-3.35-20.48-.41-2.36-1.25-3.91-4.3-3.83q-13.59.33-27.21,0c-3-.07-4,1.34-4.36,3.77-1.16,6.82-2.43,13.63-3.35,20.48-.33,2.41-1,3.5-3.55,3.5q-28.68-.07-57.36,0c-2.54,0-2.58-.91-2.11-3,2.68-12.18,5.19-24.39,7.81-36.58q8.28-38.58,16.63-77.16c3.36-15.57,6.78-31.13,10.13-46.7.57-2.63,2-3.41,4.69-3.39C855.48,352.84,870.56,352.77,885.63,352.77Zm0,41.64c-2.23,8.19-3,15.58-4.31,22.86q-3.59,20-7.08,40c-.4,2.26.16,3.7,3,3.61,5.15-.17,10.33-.25,15.47,0,3.84.2,4.52-1.32,3.86-4.7-1.45-7.47-2.65-15-4-22.46C890.31,421,888,408.21,885.59,394.41Z"/></svg>