<svg id="Слой_1" data-name="Слой 1" xmlns="http://www.w3.org/2000/svg" viewBox="0 0 206.44 53.35"><defs><style>.cls-1{fill:#174889;}.cls-2{fill:none;stroke:#174889;stroke-miterlimit:10;}.cls-3{fill:#134a8a;}</style></defs><title>66Монтажная область 2</title><path class="cls-1" d="M10.35,52.24H0V2c.5,0,1-.09,1.42-.09,7.06,0,14.12-.07,21.17,0a21.59,21.59,0,0,1,6.3.92c5.68,1.85,9.27,6.94,9.49,13.34a23.66,23.66,0,0,1-.57,6.17C36.08,29.65,30.75,33.89,23.3,34c-4.22.09-8.44,0-12.95,0V52.24Zm.1-26.92c3.89,0,7.68.21,11.44-.06a6,6,0,0,0,5.95-5.65,20.59,20.59,0,0,0,.06-2.72c-.1-3.22-1.64-5.45-4.83-5.85-4.14-.51-8.36-.47-12.62-.67Z"/><path class="cls-1" d="M75.43,36A17.36,17.36,0,0,1,68.38,49.6C60,55.9,46.4,54,40.66,45.78,36,39,36.08,27.48,41.08,21c4.09-5.33,9.81-7.21,16.28-6.91C68.69,14.59,75.43,22,75.43,36ZM47.18,33.12c.25,2,.32,3.47.63,4.93.94,4.32,3.78,6.8,7.82,7,4.74.19,7.78-1.8,9-6a18.3,18.3,0,0,0-.07-10.89,7.92,7.92,0,0,0-7.87-5.88c-4.13-.1-7,1.67-8.34,5.41A39.91,39.91,0,0,0,47.18,33.12Z"/><path class="cls-1" d="M180.39,14c12.61.22,19.94,9.18,18.71,22.29-.43,4.6-1.89,8.83-5.43,12-6.31,5.62-13.66,6.34-21.29,3.6-7.28-2.61-10.57-8.45-11.24-15.91a23.8,23.8,0,0,1,1-9.81C164.78,18.37,171.52,13.9,180.39,14Zm9.05,19.57A48.41,48.41,0,0,0,188,27.21c-1.29-3.43-4.08-4.93-7.67-5s-6.53,1.34-8,4.82a17,17,0,0,0,0,13.12c1.37,3.42,4.13,4.95,8.22,4.86,3.66-.08,6.38-1.8,7.53-5.15A55.21,55.21,0,0,0,189.44,33.58Z"/><path class="cls-1" d="M110.9,52.26h-9.69V50.49q0-9.47,0-18.93c0-.75,0-1.5,0-2.25-.15-4.76-1.77-6.79-5.64-7.06a7.41,7.41,0,0,0-8.29,6.33A19.75,19.75,0,0,0,87,31.93c0,6.15,0,12.3,0,18.45v1.84h-9.6V15.11h9.15V20l.33.12c.47-.6.92-1.21,1.41-1.78,3.55-4.23,8.22-4.92,13.26-3.92a10.77,10.77,0,0,1,9,8.32,14.67,14.67,0,0,1,.47,3.49c0,8.28,0,16.57,0,24.86C111,51.43,110.93,51.79,110.9,52.26Z"/><path class="cls-1" d="M145.64,44.19v8h-32.1c0-2.45-.05-4.84,0-7.23a2.66,2.66,0,0,1,.8-1.32Q123,33.84,131.63,24c.24-.28.47-.58.91-1.13H114.93V15.1H145c0,2.59,0,5.19,0,7.78,0,.44-.55.89-.9,1.28L127.61,42.61c-.39.44-.76.88-1.35,1.58Z"/><path class="cls-1" d="M148.71,15c3,0,5.88,0,8.8.06.31,0,.82.84.83,1.3.07,3,0,6,0,9V52.21h-9.67Z"/><path class="cls-1" d="M148.62,10.44v-9h9.75c0,2.77,0,5.53,0,8.28,0,.24-.53.67-.82.68C154.59,10.46,151.67,10.44,148.62,10.44Z"/><circle class="cls-2" cx="200.41" cy="5.95" r="5.32"/><path class="cls-3" d="M198.57,3.18a8.4,8.4,0,0,1,1.51-.12,2.46,2.46,0,0,1,1.75.49,1.51,1.51,0,0,1,.48,1.16,1.57,1.57,0,0,1-1.14,1.54v0a1.51,1.51,0,0,1,.89,1.23,9.36,9.36,0,0,0,.47,1.66h-.81a7.45,7.45,0,0,1-.41-1.45c-.18-.84-.5-1.15-1.21-1.18h-.74V9.17h-.79ZM199.36,6h.8c.84,0,1.37-.46,1.37-1.15s-.57-1.13-1.4-1.14a3.51,3.51,0,0,0-.77.07Z"/></svg>