<svg id="Слой_1" data-name="Слой 1" xmlns="http://www.w3.org/2000/svg" viewBox="0 0 2367.5 375.67"><defs><style>.cls-1{fill:#8e8e8e;}.cls-2{fill:#bd013c;}</style></defs><title>55Монтажная область 12</title><path class="cls-1" d="M3.1,187.69V9.05c0-1.05,0-2.11,0-3.16.07-4.55.07-4.61,4.7-4.61q40.85,0,81.68,0c5.07,0,5.11,0,5.11,5.26q0,65.6,0,131.21c0,7.85-.92,7,7.05,7q97,0,193.93,0c7.09,0,6.51.73,6.52-6.5q0-64.54,0-129.1V7c0-6.15-.25-5.74,5.7-5.74h79.57a18.54,18.54,0,0,0,2.11,0C392.37.92,393.19,2.42,393,5c-.09,1,0,2.1,0,3.16q0,179.69,0,359.38c0,7.66.8,6.83-6.68,6.83q-38.73,0-77.46,0H306.7c-4.52-.08-4.58-.08-4.59-4.73q0-41.89,0-83.79V234.22c0-1.23,0-2.46,0-3.69,0-1.69-.63-2.67-2.45-2.64-1.05,0-2.11,0-3.16,0h-196c-6.38,0-5.85-.42-5.85,6.1q0,66.39,0,132.79c0,1.23,0,2.46,0,3.69-.11,3.79-.12,3.87-3.79,3.91-5.45.08-10.89,0-16.34,0H9.64c-1.23,0-2.46-.05-3.69,0-2,.08-2.93-.77-2.85-2.79.06-1.4,0-2.81,0-4.22Z"/><path class="cls-1" d="M2036.24,187.63V9c0-1.41.11-2.83,0-4.22-.29-2.87,1.13-3.74,3.73-3.51,1,.1,2.11,0,3.16,0q158.1,0,316.2,0c7.53,0,6.68-.76,6.69,6.82q0,30.57,0,61.13c0,1.41,0,2.81-.05,4.21a2.14,2.14,0,0,1-2.32,2.29c-1.76.08-3.52.08-5.27.08H2130.18c-8.09,0-7.25-.84-7.27,7.38q0,30.3,0,60.61c0,1.23.05,2.46,0,3.69-.11,2.42.94,3.58,3.44,3.41,1.4-.09,2.81,0,4.22,0h191.29c6.94,0,6.36-.6,6.36,6.1q0,30.84,0,61.66c0,1.23,0,2.46,0,3.69,0,1.74-.76,2.59-2.51,2.58-1.58,0-3.17,0-4.75,0H2130.71c-1.23,0-2.46,0-3.69,0-3.89.14-4.09.25-4.09,4.33q-.06,31.62,0,63.24c0,3.77.12,3.78,3.83,3.9,1.22,0,2.45,0,3.68,0h228.72c7.64,0,6.84-.75,6.84,6.68q0,32.42,0,64.82c0,1.23-.05,2.46,0,3.69.09,2.05-.94,2.83-2.89,2.75-1.22-.06-2.46,0-3.69,0H2042.71c-7.16,0-6.46.66-6.47-6.52Q2036.23,277.74,2036.24,187.63Z"/><path class="cls-1" d="M1322.33,187.73V9.6c0-1.23,0-2.46,0-3.69.08-4.56.08-4.62,4.71-4.63q27.68,0,55.34,0,131.22,0,262.45,0c7.45,0,6.64-.81,6.65,6.85q0,30,0,60.08c0,1.23-.07,2.46,0,3.69.17,2.39-.7,3.65-3.28,3.47-1.57-.1-3.16,0-4.74,0q-113.57,0-227.14,0c-8.64,0-7.31-.06-7.33,7.41,0,20.56,0,41.11,0,61.66,0,1.23.06,2.46,0,3.69-.08,2,.81,2.91,2.81,2.82,1.41-.06,2.81,0,4.22,0h191.3c7.1,0,6.54-.64,6.54,6.5q0,30.57,0,61.13c0,1.06-.06,2.11,0,3.17.11,2.16-.73,3.3-3,3.19-1.58-.07-3.16,0-4.74,0H1415.32c-6.84,0-6.32-.6-6.32,6.16q0,29.52,0,59c0,1.05.07,2.11,0,3.16-.14,2.16.63,3.33,3,3.17,1.4-.09,2.81,0,4.22,0h228.72c7.17,0,6.57-.74,6.58,6.42q0,32.67,0,65.35c0,.7,0,1.4,0,2.1-.11,3.94-.12,3.94-4.22,4-.87,0-1.75,0-2.63,0q-157.58,0-315.15,0c-7.87,0-7.15.88-7.16-6.93Q1322.32,277.59,1322.33,187.73Z"/><path class="cls-2" d="M425.29,374.36c-.1-1.71.75-2.65,1.35-3.68Q531.12,188.12,635.52,5.52c1.9-3.33,3.87-4.58,7.74-4.54,18.62.23,37.24.07,55.86.12,7.09,0,5.42-1,8.89,5.1q52.23,92.05,104.35,184.14Q863,279.66,913.57,369c.92,1.62,2.39,3.06,2.29,5.16-1.38.72-2.81.39-4.18.39-30.39,0-60.78-.05-91.17.1-3.65,0-5.55-1.15-7.35-4.33-13.22-23.37-26.73-46.58-40-69.93-1.86-3.28-3.91-4.61-7.78-4.61q-94.32.2-188.66,0c-3.9,0-5.9,1.36-7.74,4.65-13.2,23.58-26.63,47-39.88,70.59-1.32,2.36-2.57,3.64-5.57,3.63-32.15-.13-64.29-.08-96.44-.09A18.09,18.09,0,0,1,425.29,374.36ZM600,221.43H740.58c-3.4-8.35-66.37-120.09-69.21-122.75C647.66,139.44,624,180.16,600,221.43Z"/><path class="cls-1" d="M948.46,187.83q0-90.12,0-180.24c0-6.91-.6-6.32,6.14-6.32h323.06c.52,0,1,0,1.58,0,4.54.08,4.6.08,4.6,4.72q0,32.42,0,64.82c0,4.43-.08,4.44-4.29,4.55-1.41,0-2.81,0-4.22,0H1043.45c-1.23,0-2.46,0-3.69,0-4.57.1-4.64.11-4.65,4.82q0,32.94,0,65.88c0,4.82.05,4.86,5,4.87h200.78c6.16,0,5.8-.37,5.8,5.63q0,31.37,0,62.72c0,5.63,0,5.65-5.8,5.65H1042.71c-8.38,0-7.6-.73-7.61,7.67q0,67.72,0,135.44c0,6.89.49,6.32-6.18,6.32H953c-4.5-.07-4.56-.07-4.56-4.73q0-32.94,0-65.88Z"/><path class="cls-1" d="M1689.29,187.78q0-90.09,0-180.18c0-6.92-.53-6.32,6.15-6.33q37.14,0,74.28,0c.7,0,1.41,0,2.11,0,3.93.11,3.94.12,4,4.21,0,1.23,0,2.46,0,3.69q0,140.14,0,280.29c0,7.85-.91,7,7,7q105.38,0,210.74,0c7.45,0,6.63-.75,6.64,6.87q0,32.4,0,64.81c0,1.23,0,2.46,0,3.68,0,1.77-.79,2.58-2.54,2.54-1.23,0-2.46,0-3.69,0H1695.35c-.88,0-1.76-.06-2.63,0-2.41.21-3.65-.69-3.44-3.26.1-1.4,0-2.81,0-4.22Z"/><path class="cls-2" d="M469,44c0-13,0-26,0-39,0-3.76.08-3.86,3.71-3.86q39.78,0,79.56,0c3.83,0,3.92.08,3.92,3.64q0,39.78,0,79.56c0,3.79-.08,3.9-3.7,3.91q-39.78,0-79.56,0C469.1,88.2,469,88.1,469,84Q469,64,469,44Z"/><path class="cls-2" d="M831.21,1.08q19.47,0,38.94,0c4.43,0,4.49,0,4.49,4.12q0,39.48,0,79c0,4-.07,4-4.07,4q-39.48,0-79,0c-4.21,0-4.26-.08-4.26-4.43q0-39.21,0-78.42c0-4.21.06-4.26,4.37-4.27Q811.47,1.06,831.21,1.08Z"/></svg>