<svg xmlns="http://www.w3.org/2000/svg" viewBox="0 0 568.75 93.5"><defs><style>.cls-1{fill:#b2c7ba;}.cls-2{fill:#27af4b;}</style></defs><title>sМонтажная область 19</title><g id="Слой_15" data-name="Слой 15"><path d="M160.43,25.22l-13.07,5q-2.81-8.91-10.23-8.92a7.57,7.57,0,0,0-5.52,2,6.27,6.27,0,0,0-2,4.62,5.79,5.79,0,0,0,2.4,4.87q2.4,1.83,10.05,4.78A59,59,0,0,1,153,42.67a19.13,19.13,0,0,1,6.44,6.88,20.28,20.28,0,0,1,2.45,10.1,21.55,21.55,0,0,1-6.94,16.53q-6.93,6.46-18.59,6.46-19.56,0-25-19.77l13.81-4q2.53,10.88,11.55,10.87a10,10,0,0,0,6.67-2.14A6.93,6.93,0,0,0,145.93,62a7.06,7.06,0,0,0-1.79-4.72q-1.8-2.09-8.23-4.41a75.84,75.84,0,0,1-12.34-5.35,18.92,18.92,0,0,1-6.69-6.86,19.52,19.52,0,0,1-2.64-10.15q0-9.7,6.25-15.9T137,8.45Q155.8,8.45,160.43,25.22Z"/><path d="M195.36,9.55h15.93l20.57,72H215.68l-3.6-14.87H191.81l-3.53,14.87H173.74Zm13.75,44.78-7.28-29.49-7,29.49Z"/><path d="M246.38,9.55H262.2V50.69q0,8.7.79,12.13A8.39,8.39,0,0,0,266.28,68a10.39,10.39,0,0,0,6.15,1.77,9.43,9.43,0,0,0,6.27-2,8.25,8.25,0,0,0,2.85-5.17,88.59,88.59,0,0,0,.53-12V9.55h13.23v40.5q0,12.14-1.39,18.09a17.76,17.76,0,0,1-7.12,10.23q-5.73,4.27-15.74,4.27-9.39,0-14.77-3.13a17.54,17.54,0,0,1-7.65-8.81q-2.26-5.67-2.26-20Z"/><path d="M318.75,9.55h24.57q8.65,0,13.05,1.38a13.56,13.56,0,0,1,7.39,6,21,21,0,0,1,3,11.55q0,12.08-10.29,15.5,12.24,4.32,12.24,17.67a20.38,20.38,0,0,1-3.32,11.83,16,16,0,0,1-8.2,6.44q-4.89,1.6-13.85,1.61H318.75Zm15.19,29.06h5.11q7.65,0,9.62-2.74a10.45,10.45,0,0,0,2-6.28,9.23,9.23,0,0,0-2-5.82q-2-2.57-8.46-2.56h-6.27Zm0,30.59h7.75q10.9,0,10.91-9.42,0-5.23-2.71-7.37c-1.81-1.43-4.55-2.14-8.2-2.14h-7.75Z"/><path d="M389.27,9.55H433V21.89h-28V38.61h21.73V51H405.09V68.67h28V81.54H389.27Z"/><path d="M450.62,9.55h22.63a63.68,63.68,0,0,1,10.09.61,16.94,16.94,0,0,1,7.1,3.27,17.7,17.7,0,0,1,5.61,7.28,25.34,25.34,0,0,1,2,10.36q0,13.5-10.12,19L501.2,81.54H484l-9.63-28.48h-7.91V81.54H450.62Zm15.82,11.66v20.2h7q9.28,0,9.29-10.39a11.27,11.27,0,0,0-1.38-5.88A7.28,7.28,0,0,0,478.12,22a13.45,13.45,0,0,0-5.35-.82Z"/><path d="M544,43.15h25V81.54h-6.7l-2.05-8.23q-5.81,9.33-17.4,9.33A23,23,0,0,1,523.39,73q-7.2-9.68-7.2-26,0-17.76,7.09-28.13t21-10.36q22.1,0,24.78,24.68l-14.24,2.32q-1.47-14.13-10.23-14.14-5.32,0-8.51,5.22t-3.19,19.78q0,12.92,3.11,18.19a10,10,0,0,0,9.12,5.28q9.64,0,9.7-14.29H544Z"/><path class="cls-1" d="M0,75.42V91.75c1.57-.21,4.09-.54,7.17-1a356.73,356.73,0,0,0,36.66-7.5A87.09,87.09,0,0,0,60,77.58a34.66,34.66,0,0,0,8-4.83,26.44,26.44,0,0,0,7.5-9.33c1.66-3.59,1.93-6.55,2.33-11a58.47,58.47,0,0,0-.16-12.17l-15.34,5c.2,2.55.29,4.7.34,6.33.12,4.46-.07,5.6-.67,6.67a7.78,7.78,0,0,1-3.83,3.17C53.72,63.4,31.06,68.85,0,75.42Z"/><path class="cls-2" d="M92,16.33V0c-1.69.21-4.39.54-7.69,1C78.45,1.81,63.89,4,45,8.5a97.81,97.81,0,0,0-17.34,5.67A37.75,37.75,0,0,0,19.05,19a27,27,0,0,0-8,9.33c-1.78,3.59-2.07,6.55-2.51,11A55.37,55.37,0,0,0,8.68,51.5l16.45-5c-.21-2.55-.31-4.7-.36-6.33-.13-4.46.08-5.6.72-6.67a8.24,8.24,0,0,1,4.11-3.17C34.37,28.35,58.68,22.9,92,16.33Z"/></g></svg>