<svg id="Слой_1" data-name="Слой 1" xmlns="http://www.w3.org/2000/svg" viewBox="0 0 516.81 161.55"><defs><style>.cls-1{fill:#79797c;}.cls-2{fill:#de7c3c;}.cls-3{fill:#e3955d;}.cls-4{fill:#e8af83;}.cls-5{fill:#efc9ab;}</style></defs><title>55Монтажная область 6</title><path class="cls-1" d="M450.15,2.64h50.24c7.51,0,12.12,4.64,12.13,12.16,0,9.67-.08,19.33.06,29,0,2.29-.68,2.86-2.82,2.71a52,52,0,0,0-7.49,0c-2.18.16-2.63-.71-2.61-2.71.1-8.5,0-17,.09-25.5,0-2.1-.41-2.84-2.71-2.83q-47,.12-94,0c-2,0-2.68.45-2.67,2.59q.11,43,0,86c0,2.08.54,2.63,2.62,2.63q47-.11,94,0c2.23,0,2.79-.6,2.75-2.79-.13-8.16-.15-16.33,0-24.49.05-2.42-.79-2.83-3-2.82-14.75.09-29.5,0-44.25.1-2.11,0-2.72-.59-2.59-2.65.18-2.74.11-5.5,0-8.25-.06-1.48.35-2,1.93-2,16.5,0,33,0,49.49.07,6.45,0,11.09,5,11.11,11.41q0,16.36,0,32.74A11.13,11.13,0,0,1,501,119.5q-51,0-102,0a11.16,11.16,0,0,1-11.44-11.39q0-47,0-94c0-6.68,4.86-11.46,11.58-11.47Q424.66,2.62,450.15,2.64Z"/><path class="cls-2" d="M311.32,1.65c10.25,0,20.5,0,30.75,0a49.7,49.7,0,0,1,15,2.3C368.94,7.84,376,16.73,377,29.16c.48,5.94.48,5.95-5.56,5.94-1.75,0-3.8.49-5.16-.25-1.54-.84-.72-3.18-1.07-4.84-1.77-8.29-7.13-13.23-16.4-14.87a63.84,63.84,0,0,0-10.95-1q-28-.06-56,0a42.87,42.87,0,0,0-9.17.94c-6.13,1.33-10,5-11.48,11.13a28,28,0,0,0-.54,10.67c1.11,7.35,5.81,11.54,12.61,13.69,7.08,2.23,14.4,2.69,21.74,2.66,11.91-.06,23.82-.39,35.73-.35,8.59,0,17.15.76,25.45,3.22C370.5,60.38,377.91,70.32,378,85.29a61,61,0,0,1-.72,11.46c-2.37,13.13-9.05,19.83-22.21,22.25a59.75,59.75,0,0,1-10.68,1q-30.12,0-60.25,0a41.86,41.86,0,0,1-14.93-2.61c-11.81-4.49-17.93-13.32-19.22-25.67-.58-5.55-.47-5.57,5-5.56,1.92,0,4.15-.55,5.66.25,1.72.9.8,3.46,1.18,5.26,1.54,7.27,6,11.69,12.88,13.9a43.9,43.9,0,0,0,13.57,1.79q27,0,54,0a43.32,43.32,0,0,0,8-.63c10.59-2,15.56-7.6,16.16-18.41.67-12.06-5-19.19-17.35-21.75-9.88-2-19.89-1.6-29.88-1.53-11.07.08-22.15.88-33.22,0A75.85,75.85,0,0,1,268.56,62c-12.09-3.87-18.66-12.29-19.62-24.93a47.23,47.23,0,0,1,.75-13.43c2.66-12.52,11.39-20,24.91-21.55,7.56-.87,15.15-.36,22.72-.48,4.67-.08,9.34,0,14,0Z"/><path class="cls-1" d="M142.55,60.59q0-22.12,0-44.25c0-8.6,5.65-14.27,14.22-14.27,26.59,0,53.17,0,79.75,0,2.18,0,3,.48,2.78,2.73a37.26,37.26,0,0,0,0,7.24c.3,2.7-.82,3.1-3.23,3.09q-36.87-.13-73.75,0c-2.2,0-5-1-6.46.51s-.38,4.14-.39,6.29c0,9.83.06,19.67-.06,29.5,0,2.25.52,2.92,2.86,2.91,25.08-.09,50.16,0,75.25-.11,2.38,0,3.26.52,3,3a43.69,43.69,0,0,0,0,7.5c.16,2.16-.67,2.57-2.67,2.56q-37.63-.1-75.25,0c-3.58,0-3.16-.42-3.17,3.23,0,11.16.06,22.33-.05,33.49,0,2.21.57,2.8,2.78,2.79,26.09-.08,52.17,0,78.25-.11,2.34,0,3,.65,2.85,2.91a50.61,50.61,0,0,0,0,7.49c.15,2.12-.59,2.64-2.65,2.64-19.67-.08-39.33,0-59,0H157.39c-9.23,0-14.84-5.56-14.84-14.72Z"/><path class="cls-3" d="M80.21,58.08c-4.75,0-9.49,0-14.24,0-1.28,0-2-.21-2-1.76.25-9.48-.29-19,.45-28.44A27.27,27.27,0,0,1,83.87,4.28C95,1,107.08,4.8,113.8,13.9c6.59,8.92,7.79,18.68,2.92,28.68S103.44,57.83,92.19,58.14c-4,.11-8,0-12,0Z"/><path class="cls-2" d="M64.06,82.07c0-4.75,0-9.5,0-14.25,0-1,0-1.8,1.39-1.76,10.06.26,20.17-.59,30.2.55,13.9,1.58,24,14.16,23.43,28.63a27.35,27.35,0,0,1-25.63,25.94C76.72,122,64,109.84,64,93.06c0-3.67,0-7.33,0-11Z"/><path class="cls-4" d="M56,82.1c-.39,5.64.59,12-1,18.24a28,28,0,0,1-27.57,20.73c-12.6-.34-23.89-9.76-26.34-22a27.46,27.46,0,0,1,27.05-33c8.5,0,17,.09,25.49,0,1.85,0,2.46.45,2.39,2.37C55.92,72.77,56,77.11,56,82.1Z"/><path class="cls-5" d="M56,41.5c0,4.83,0,9.66,0,14.48,0,1.62-.46,2.17-2.12,2.15-7.66-.09-15.32,0-23-.08-8.49-.12-16.38-2.1-22.32-8.66-7.12-7.85-9.57-17-6.35-27.24C5.59,11.61,13.05,5.2,23.78,3.25a27.27,27.27,0,0,1,31.95,22.3c.88,5.17.14,10.62.14,16Z"/><path class="cls-1" d="M404.35,149.67c-4.76,4.16-10.76,4.4-14.34.77-3.32-3.38-3.46-10.41-.27-14.06,3.41-3.9,9.6-3.92,14.65.09a10,10,0,0,0,.09-1.24c-.06-1.09.61-1.17,1.45-1.16s1.1.5,1.1,1.27c0,6.24,0,12.48-.15,18.72a6.35,6.35,0,0,1-3.73,5.56,13.45,13.45,0,0,1-11.59.23,5.17,5.17,0,0,1-3-3.51c-.15-.53-.69-1.38.39-1.6.6-.13,1.47-.32,1.74.5a4.17,4.17,0,0,0,3.19,3.16,11.9,11.9,0,0,0,6.64-.19C403.62,157.09,404.71,154.69,404.35,149.67Zm.13-6.35c.08-4.44-2.75-7.38-7.18-7.45s-7.17,2.57-7.27,7c-.11,4.85,2.3,7.6,6.77,7.72S404.39,147.81,404.48,143.32Z"/><path class="cls-1" d="M496.09,136.14c5-3.57,10.59-3.52,13.82.05,3.36,3.72,3.35,10.81,0,14.53s-8.49,3.74-13.82-.14c-.56,2.61-.12,5.15-.27,7.65-.05.94.31,2.08-1.33,2.12s-1.35-1.09-1.35-2c0-7.24,0-14.48,0-21.72,0-.89-.75-2.24,1-2.59S495.65,135.25,496.09,136.14Zm13.64,7.27c0-4.72-2.55-7.5-6.8-7.53-4.42,0-7.44,3.12-7.36,7.66s3,7.61,7.21,7.6S509.76,148.08,509.73,143.41Z"/><path class="cls-1" d="M155,144.14c-2.25,0-4.5.08-6.74,0-1.76-.08-2,.7-1.52,2.12a6.48,6.48,0,0,0,5.52,4.79c3,.38,6.06.24,7.92-2.85a6,6,0,0,1,.47-.87,1.79,1.79,0,0,1,2.28-.33c.79.46.07,1.2-.18,1.73-2.13,4.45-9,6.32-14,3.86-3.4-1.67-5.38-5.68-5-10.11s2.73-7.43,6.5-8.56c6.9-2.08,12.87,1.6,13.62,8.33.15,1.36-.12,2-1.66,1.94C159.77,144.07,157.36,144.14,155,144.14Zm-1.25-2.09c2,0,4,0,6,0,1.13,0,1.45-.34,1.14-1.47-.76-2.77-3.77-4.86-7.11-4.83s-6.37,2.21-7,4.94c-.23,1,0,1.38,1,1.36C149.71,142,151.7,142.05,153.7,142.05Z"/><path class="cls-1" d="M260.82,153.55a13.54,13.54,0,0,1-5.57-.86,5.43,5.43,0,0,1-3.6-4.14c-.12-.6-.46-1.42.55-1.6.7-.12,1.38-.22,1.93.64a8.31,8.31,0,0,0,10.52,2.92,2.89,2.89,0,0,0,1.94-2.9,2.41,2.41,0,0,0-2.2-2.34c-2.36-.48-4.76-.76-7.13-1.22-3.68-.71-5.18-2.21-5.15-5s2-4.83,5.47-5.43a14.21,14.21,0,0,1,6.67.4,5.67,5.67,0,0,1,4.1,4c.17.57.58,1.41-.38,1.67a1.66,1.66,0,0,1-2-.55c-2.31-3.08-5.21-4-8.74-3-1.38.43-2.35,1.21-2.32,2.83s1.08,2,2.27,2.21c2.53.51,5.09.86,7.59,1.44,3.29.76,4.54,2.11,4.64,4.69.1,2.74-1.6,4.88-4.59,5.75A11.62,11.62,0,0,1,260.82,153.55Z"/><path class="cls-1" d="M232.3,153.56c-6.36,0-10.44-4-10.42-10.19,0-6,4.21-10,10.4-10s10.23,4,10.23,10.1S238.56,153.54,232.3,153.56Zm-.16-17.69c-4.66,0-7.62,3-7.6,7.7s3.12,7.6,7.76,7.58a7.23,7.23,0,0,0,7.6-7.73C239.82,138.78,236.79,135.84,232.14,135.87Z"/><path class="cls-1" d="M299,143.42c0,6.14-4,10.11-10.18,10.14s-10.4-3.86-10.48-9.87c-.08-6.18,4.05-10.29,10.34-10.31S299,137.35,299,143.42Zm-10.36,7.73c4.7,0,7.61-2.9,7.62-7.63s-2.8-7.64-7.55-7.65-7.67,2.91-7.67,7.59S284,151.13,288.62,151.15Z"/><path class="cls-1" d="M455.65,143.77c-.19,6.21-4.22,10-10.48,9.79-5.76-.17-9.54-4.34-9.4-10.36s4.25-10,10.23-9.81S455.84,137.7,455.65,143.77Zm-17.22-.47c0,4.81,2.64,7.78,7.09,7.85s7.43-2.86,7.5-7.48-2.64-7.72-7.14-7.79S438.48,138.56,438.43,143.3Z"/><path class="cls-1" d="M312.22,136.67a9.55,9.55,0,0,1,9.52-3c3.06.58,5.05,2.39,5.28,5.5.3,4.22.16,8.48.23,12.72,0,1-.61,1.19-1.47,1.19s-1.25-.55-1.25-1.43q0-4.87,0-9.74c0-4.36-1.37-5.91-5.19-6-4.62-.12-7.22,1.9-7.37,5.9-.12,3.07,0,6.16,0,9.24,0,1,.22,2-1.39,2s-1.43-1-1.43-2c0-4.83,0-9.66,0-14.48,0-1-.73-2.47,1.31-2.59S311.7,135.49,312.22,136.67Z"/><path class="cls-1" d="M188.89,150.41a9.92,9.92,0,0,1-9.41,3c-3.29-.61-5.3-2.55-5.5-5.88-.26-4.07-.12-8.16-.18-12.24,0-1,.44-1.29,1.37-1.29s1.35.3,1.34,1.3c0,3.33,0,6.67,0,10,0,4,1.42,5.67,4.88,5.87,4.51.26,7.43-1.78,7.67-5.64.2-3.15.07-6.33.08-9.5,0-1-.23-2,1.39-2s1.39,1,1.39,2c0,4.84,0,9.67,0,14.5,0,.91.71,2.28-1.1,2.54S189.23,151.82,188.89,150.41Z"/><path class="cls-1" d="M350.48,143.38c0-3.64,1.16-6.79,4.5-8.59a11.22,11.22,0,0,1,11-.07,6.9,6.9,0,0,1,3.27,3.64c.24.6,1,1.48-.14,1.85a1.73,1.73,0,0,1-2.31-.77,7.39,7.39,0,0,0-10.06-2.71c-3.29,1.81-4.58,6.77-2.75,10.59,1.57,3.28,6,4.78,9.68,3.33a5.15,5.15,0,0,0,3.15-3.32,1.66,1.66,0,0,1,2.56-1.06c1,.52.12,1.47-.18,2.14-1.89,4.17-6.31,6-11.37,4.85C353.07,152.15,350.46,148.65,350.48,143.38Z"/><path class="cls-1" d="M479.94,150.3a9.27,9.27,0,0,1-9,3.1c-3.14-.57-5.14-2.48-5.35-5.71-.28-4.14-.14-8.31-.21-12.47,0-1,.48-1.26,1.39-1.24s1.26.5,1.25,1.41c0,3.33,0,6.66,0,10,0,3.9,1.36,5.56,4.64,5.76,4.23.26,7.1-1.7,7.36-5.35.24-3.23.09-6.48.12-9.73,0-.94-.31-2.06,1.33-2.09s1.36,1.09,1.36,2.05c0,4.82,0,9.65,0,14.48,0,.9.72,2.29-1.08,2.54S480.17,151.79,479.94,150.3Z"/><path class="cls-1" d="M205.78,136.88c1.67-2,3.47-3.39,6-3.46,1.1,0,2.17-.19,2.21,1.52s-1,1.35-2,1.35c-4,0-6.32,2.21-6.51,6.27-.13,2.9-.06,5.81-.05,8.72,0,1,0,1.78-1.41,1.78s-1.36-.87-1.36-1.83c0-4.9,0-9.8,0-14.7,0-1-.71-2.49,1.33-2.55S205.11,135.6,205.78,136.88Z"/><path class="cls-1" d="M420.32,137c1.47-2.19,3.29-3.52,5.81-3.61,1,0,2-.21,2.06,1.38s-.67,1.51-1.84,1.5c-4,0-6.2,2.23-6.36,6.36-.11,2.81,0,5.64,0,8.46,0,.89.21,1.86-1.24,1.93-1.63.07-1.41-1-1.42-2,0-4.73-.06-9.47,0-14.2,0-1-1-2.72,1.25-2.81S419.5,135.93,420.32,137Z"/><path class="cls-1" d="M340.72,143.65c0,2.57,0,5.14,0,7.71,0,1.06-.22,1.73-1.51,1.69s-1.24-.79-1.24-1.67c0-5.22,0-10.45,0-15.67,0-1.09.22-1.7,1.5-1.67s1.26.76,1.26,1.65Q340.72,139.67,340.72,143.65Z"/><path class="cls-1" d="M340.71,128.68c-.07,1,.4,2.26-1.41,2.25s-1.3-1.17-1.3-2.09-.38-2.07,1.28-2.13S340.79,127.61,340.71,128.68Z"/></svg>