<svg id="Слой_1" data-name="Слой 1" xmlns="http://www.w3.org/2000/svg" viewBox="0 0 2183 573"><title>55Монтажная область 10</title><path d="M303.65.64C313.86,2,324.12,3,334.27,4.67A275.31,275.31,0,0,1,449.85,51.72c55.53,39,93.48,91.11,111.84,156.52,20.94,74.56,12.71,146.35-23.57,214.85-.61,1.16-1.31,2.27-2.26,3.93l-17.7-14.83c-12.89-10.79-25.74-21.65-38.73-32.32-2.4-2-2.5-3.47-1.33-6.28,32.84-79,24-153.11-29.25-220.19-36-45.24-84.24-70.21-141.86-75.84a210.11,210.11,0,0,0-230,224.65c7,99.45,84.12,180.68,183.69,193.07,52.9,6.57,101.54-5.73,145.67-35.68,1.34-.9,2.56-2,4.21-3.28l-82.05-68.75,45.87-54.69L597,519.44l-45.82,54.7c-10-8.4-19.73-16.48-29.4-24.58-16.09-13.46-32.22-26.87-48.19-40.47-2.69-2.29-4.28-2.36-7.09-.09-39.86,32.17-85.06,52.75-135.71,60.33-68,10.17-132.24-1.41-191-37.41C62.64,484.71,17.25,415.82,3.47,326.32,2.32,318.79,1.58,311.2.65,303.64v-34a35.78,35.78,0,0,0,.82-4.3c2.24-32,9.24-63,22.63-92.08C66.9,80.18,138.61,23.57,239.55,4.62c9.93-1.86,20.06-2.68,30.1-4Z"/><path d="M1908,485c2.4-.15,3.53-.28,4.66-.28,26,0,52-.09,78,0,1.47,0,3.86,1,4.24,2.07,6,17.42,19.8,24,36.55,25.5,15.15,1.38,30.26.59,44.91-4.42,16.25-5.56,24.15-17.77,27.81-33.72,4-17.71,2.56-35.61,2.89-54.75-4.35,5.15-7.66,9.41-11.33,13.33-13,13.89-29.5,20.76-48,23.36-25.35,3.57-50.22,2-74-8.34-29.32-12.73-49-35-61.3-64-10.87-25.49-13.25-52.36-12.21-79.77.86-22.86,4.65-45.07,13.92-66.05,13.42-30.36,34.31-53.71,66.32-64.69,29.89-10.27,60.17-10.58,89.84,1.69,14.55,6,25.73,16.34,34.63,29.21.91,1.31,1.91,2.54,3.65,4.83V176.74h74.7v5.6q0,130-.07,259.94c0,18.83-1,37.68-6,56-8.69,31.93-30.35,51.52-60.69,62.49-27.18,9.83-55.45,12.29-84.09,11.86-24.66-.37-48.85-3.6-71.5-14-23.39-10.73-41-27.15-48.61-52.51C1910.36,499.48,1909.51,492.52,1908,485Zm199.49-172.83c-.68-7.95-1-16-2.17-23.84a90.86,90.86,0,0,0-4.33-16.89c-9.49-26.93-30-40.94-59.17-40.8-27.26.14-47.16,14.46-56.06,41.17-8.67,26-8.66,52.48-1,78.63,7.56,25.8,24.56,41.48,52.1,43.78,28.11,2.34,51.55-8.42,62.85-37C2105.43,342.77,2107,327.61,2107.47,312.15Z"/><path d="M1240.48,457.75h-23.25c-17.5,0-35-.17-52.5.12-4.43.07-7-1.3-8-5.44-2-8.53-4-17.1-5.94-25.66-.16-.73-.23-1.49-.34-2.23-5.64,5.92-10.74,12.06-16.62,17.31-13.88,12.38-30.38,19.62-48.54,23.14-20,3.88-40.13,4.36-60-.85-31.84-8.36-52.41-32.49-56.63-65.71-1.86-14.62-2.12-29.2.93-43.74,5-23.76,19-40.16,40.65-50.5,19.8-9.45,41-13.4,62.48-16.58,16.45-2.43,32.89-5,49.26-7.93,4.33-.77,8.54-2.81,12.55-4.79,7.84-3.88,13.92-9.3,13.71-19-.25-11.46-4-21-15.33-25.8-13.07-5.52-27-6.2-40.75-4.66a85.75,85.75,0,0,0-23.48,6c-11.69,4.91-17.14,14.72-17.44,27.36,0,1.62-.15,3.23-.23,5H977.83c-.9-25.65,5.6-48.28,24.29-66.42,16.75-16.26,37.38-24.87,60-28.34,35.49-5.45,70.82-4.25,105.31,6.44,20.68,6.41,38.69,17.1,49.54,37a61.84,61.84,0,0,1,7.57,29.73c.16,55.66.1,111.33.23,167,0,9.7.71,19.38,6.62,27.72.95,1.35,1.92,3,3.29,3.68C1242.4,444.09,1241.43,450.52,1240.48,457.75Zm-90.41-138.33c-2.39.67-3.2.8-3.93,1.11-16.29,7-33.45,10.94-50.75,14.4-12.9,2.59-25.8,5.14-37.39,11.93-13.53,7.94-17,20.32-15.23,34.71,1.64,13.18,9.51,21.68,21.93,25.91,11,3.77,22.37,2.9,33.62,1.08,25.94-4.2,44.63-21.18,49.23-47C1149.94,348.12,1149.29,334.13,1150.07,319.42Z"/><path d="M1875.36,457.55H1797v-6.48c0-55.33.11-110.66-.22-166a116.12,116.12,0,0,0-3.52-26.6c-3.58-14.69-13.55-23.31-28.48-25.89-15.49-2.67-30.71-1.66-44.77,5.8-18.2,9.67-27,25.71-28.18,45.86-.63,10.63-.24,21.33-.24,32q0,67.5,0,135v6.19h-78.18V176.77h76.23V207.6l1.34.88c1.07-1.35,2.06-2.77,3.21-4,21.87-24.16,49.51-35.15,81.69-35.75,16.44-.3,32.67,1.24,48.18,7,27.66,10.26,43,31,48.41,59.3a169.75,169.75,0,0,1,3,31.25c.27,62,.13,124,.12,186C1875.58,454,1875.44,455.73,1875.36,457.55Z"/><path d="M1380,457.46V76.7h77.89V457.46Z"/><path d="M871.3,457.49H793V176.76H865.6v44.88c10.73-16.63,22.3-32,39.45-42.23,17.31-10.27,36.27-12.29,56.72-10.7v18.45c0,17.5-.12,35,.08,52.49,0,4.1-1.08,5.33-5.28,5.4-13,.21-26.15-.38-38.84,1.75-28.71,4.84-44.67,24-46.1,53.11q-.3,6.24-.31,12.49,0,69.24,0,138.48Z"/><path d="M1339.94,457.5h-78V176.78h78Z"/><path d="M1575.7,176.77V457.31h-77.78V176.77Z"/><path d="M598.16,358.44c6-25.81,7.64-51.44,7.59-77.47H756c.09,1.52.27,3.1.27,4.68,0,22.66-.12,45.31.1,68,0,4.4-1.49,5.2-5.46,5.19q-73.47-.18-146.93-.09C602.22,358.72,600.46,358.55,598.16,358.44Z"/><path d="M1261.57,144.33c0-21.86,0-43.34.14-64.81,0-1.06,2-3,3.15-3q36-.27,72,0c1.13,0,3.24,2,3.24,3,.2,21.47.15,42.94.15,64.82Z"/><path d="M1497.93,76.62h77.79V144.4h-77.79Z"/></svg>