<svg id="Слой_1" data-name="Слой 1" xmlns="http://www.w3.org/2000/svg" viewBox="0 0 758.5 216.54"><defs><style>.cls-1{fill:#c1272e;}.cls-2{fill:none;stroke:#c1272e;stroke-linecap:round;stroke-linejoin:round;stroke-width:20px;}</style></defs><title>55Монтажная область 13</title><rect class="cls-1" x="2.5" y="12.04" width="23" height="203.5" rx="11.5" ry="11.5"/><rect class="cls-1" x="182.5" y="12.04" width="23" height="203.5" rx="11.5" ry="11.5"/><rect class="cls-1" x="117.52" y="-8.9" width="23" height="245.39" rx="11.5" ry="11.5" transform="translate(91.91 -54.19) rotate(36.13)"/><rect class="cls-1" x="168.5" y="74.04" width="10.5" height="0.5"/><rect class="cls-1" x="54.92" y="-40.38" width="23" height="127.83" rx="11.5" ry="11.5" transform="translate(42.88 89.96) rotate(-90)"/><path class="cls-1" d="M93.52,100.42h-82a133.07,133.07,0,0,1-1.37,20h83.4c4.59,0,8.31-4.46,8.31-10S98.11,100.42,93.52,100.42Z"/><rect class="cls-1" x="428.19" width="23" height="215.54" rx="11.5" ry="11.5"/><path class="cls-1" d="M368.42,67.66a33.88,33.88,0,0,1,2.26-7.14,4.41,4.41,0,0,1,.25-.43L300.28,13.41A11.5,11.5,0,1,0,287.6,32.6l70.85,46.81A118.89,118.89,0,0,1,368.42,67.66Z"/><rect class="cls-1" x="391.15" y="-18.04" width="23" height="118" rx="11.5" ry="11.5" transform="translate(182.48 -298.65) rotate(51.24)"/><rect class="cls-1" x="529.05" y="-45.08" width="20.33" height="139.9" rx="9.9" ry="9.9" transform="translate(564.09 -514.34) rotate(90)"/><rect class="cls-1" x="529.05" y="37.82" width="20.33" height="139.9" rx="9.9" ry="9.9" transform="translate(646.99 -431.45) rotate(90)"/><rect class="cls-1" x="529.05" y="126.82" width="20.33" height="139.9" rx="9.9" ry="9.9" transform="translate(735.99 -342.45) rotate(90)"/><rect class="cls-1" x="679.19" width="23" height="215.54" rx="11.5" ry="11.5" transform="translate(59.76 408.76) rotate(-34.37)"/><rect class="cls-1" x="679.19" width="23" height="215.54" rx="11.5" ry="11.5" transform="translate(1199.92 586.67) rotate(-145.63)"/><path class="cls-2" d="M222.5,26a61.65,61.65,0,0,1,16,1c5.72,1.12,16.22,3.39,26,12a47.3,47.3,0,0,1,14,22c.43,1.51,3.93,14.44-.5,26.5-6.34,17.26-27.57,29.06-52.5,28l104,81"/></svg>