<svg id="Слой_1" data-name="Слой 1" xmlns="http://www.w3.org/2000/svg" viewBox="0 0 412.25 286.71"><defs><style>.cls-1,.cls-2{fill:#fb7317;}.cls-2{stroke:#fb7317;stroke-miterlimit:10;}</style></defs><title>55Монтажная область 4</title><path class="cls-1" d="M141.15,108.29l20.5-22.5,63.25.5,22.38,22.39Z"/><path class="cls-1" d="M265.7,1.5a37.6,37.6,0,0,0-17.3,2.38,38.37,38.37,0,0,0-18.83,16.33c-.75,1.26-8.48,14.77-4.34,30.67,2.57,9.87,8.65,16.41,16.34,24.66,6.22,6.7,13.66,13.67,13.66,13.67,7,6.54,9.35,8.13,11,12.33,3.23,8.22-.36,16-.66,16.67a22.06,22.06,0,0,1-13.67,11.33H160.23l19.34,19.34h74a40.21,40.21,0,0,0,25.32-14.67,38.29,38.29,0,0,0,7-14.33c2.4-9.88,0-18-1.33-22.34-3-9.69-8.25-16-11.67-20-3.9-4.57-4.49-4-18.67-17.66-5.59-5.37-8.06-7.92-9.66-12.34-.71-1.94-2.87-7.88-.34-14.33,3.47-8.83,12.88-11.38,14-11.67q2.85-.28,5.84-.5a161.23,161.23,0,0,1,18.83-.16Z"/><path class="cls-2" d="M23.79,181.88c5.37,0,11.44.18,16.64,3.43,3.52,2.2,8,6.6,8,14.87a18.27,18.27,0,0,1-4,11.71c-5.89,7.39-13.46,7.3-18.83,7.3H15.52v23.06H1.44V181.88Zm.62,26.75c2.11,0,5.19-.09,7.48-2.2a8.39,8.39,0,0,0,2.46-6,7.91,7.91,0,0,0-2.28-5.81c-2.12-1.94-5.11-2.2-7.4-2.2H15.52v16.19Z"/><path class="cls-2" d="M84.16,181.88c7,0,12.59,1.85,15.84,4.75a17.18,17.18,0,0,1,5.46,12.85c0,7.83-4.23,13.81-10.65,16.37l11.79,26.4H91l-9.68-23.76H71v23.76H56.88V181.88ZM71,207.93H81.35c2.64,0,5.45-.09,7.74-2.29A7.68,7.68,0,0,0,91.38,200,7.5,7.5,0,0,0,89,194.37c-2.11-1.76-5.63-1.93-7.39-1.93H71Z"/><path class="cls-2" d="M159.31,187.16c5.37,4.84,9.68,13.29,9.68,24.9,0,10.21-3.34,18.92-9.06,24.29-3.43,3.26-9.33,6.78-18.13,6.78s-14.69-3.52-18.13-6.78c-5.72-5.37-9.06-14.08-9.06-24.29,0-11.61,4.31-20.06,9.68-24.9C130.1,182,136.79,181,141.8,181S153.5,182,159.31,187.16Zm-26.4,9.68c-1.14,1.85-3.16,6.07-3.16,15s1.93,13.28,3.16,15.31a10,10,0,0,0,17.78,0c1.23-2,3.17-6.34,3.17-15.31s-2-13.2-3.17-15c-2.55-4.05-5.63-5.28-8.89-5.28S135.47,192.79,132.91,196.84Z"/><path class="cls-2" d="M219.86,193H192.93v13h21.56V216.2H192.93v26.05H178.85V181.88h41Z"/><path class="cls-2" d="M241.77,242.25H227.69V181.88h14.08Z"/><path class="cls-2" d="M268.61,231.16H294.3v11.09H254.53V181.88h14.08Z"/><path class="cls-2" d="M337.25,204.05a17.89,17.89,0,0,0-2-7.21c-2-3.7-4.66-5.28-8.8-5.28-4.66,0-7.74,2.2-9.94,6.95-1.59,3.52-2.11,7.57-2.11,13.29,0,6.07.52,10.38,2.11,13.73,2.64,5.8,6.86,7,9.85,7a9.7,9.7,0,0,0,8.36-4.32,18.47,18.47,0,0,0,2.82-8.09l12.93,1.23a24.78,24.78,0,0,1-7.12,15.14,23.48,23.48,0,0,1-17,6.6c-12.84,0-19.71-7.48-22.7-12.68s-4.4-12.4-4.4-18.48c0-10.29,3.61-18.83,8.71-23.93,6.43-6.42,13.91-7,18.48-7s11.71,1.06,17.16,6.42A24.69,24.69,0,0,1,350.44,203Z"/><path class="cls-2" d="M401.48,187.16c5.37,4.84,9.68,13.29,9.68,24.9,0,10.21-3.34,18.92-9.06,24.29-3.43,3.26-9.33,6.78-18.13,6.78s-14.69-3.52-18.13-6.78c-5.71-5.37-9.06-14.08-9.06-24.29,0-11.61,4.31-20.06,9.68-24.9C372.27,182,379,181,384,181S395.68,182,401.48,187.16Zm-26.4,9.68c-1.14,1.85-3.16,6.07-3.16,15s1.93,13.28,3.16,15.31a10,10,0,0,0,17.78,0c1.23-2,3.17-6.34,3.17-15.31s-2-13.2-3.17-15c-2.55-4.05-5.63-5.28-8.89-5.28S377.64,192.79,375.08,196.84Z"/><path class="cls-2" d="M83,280.14H80.05l-2-6.17H70.43l-1.92,6.17H66.09L73,258.87h3.07Zm-8.71-18.41-3.2,10.07h6.36Z"/><path class="cls-2" d="M89.16,280.14H86.8V258.87h2.36Z"/><path class="cls-2" d="M107.67,280.14H105.5V277h-.07a5.05,5.05,0,0,1-4.86,3.44,4.74,4.74,0,0,1-3.72-1.55,7.29,7.29,0,0,1-1.46-4.74v-9.83h2.35v9.83a5.66,5.66,0,0,0,.81,3.26,3.14,3.14,0,0,0,2.39,1c2.26,0,4.37-1.89,4.37-5.68v-8.4h2.36Z"/><path class="cls-2" d="M113.9,280.14V264.39H116v3h0a5.31,5.31,0,0,1,4.8-3.41,4.08,4.08,0,0,1,3.32,1.46,5.15,5.15,0,0,1,1,2.26,6.83,6.83,0,0,1,1.58-2.39,4.83,4.83,0,0,1,3.51-1.33,4.37,4.37,0,0,1,3.47,1.43,6.33,6.33,0,0,1,1.24,4.18v10.51h-2.36v-9.92a5.26,5.26,0,0,0-.62-3.13,2.54,2.54,0,0,0-2.2-1,3.78,3.78,0,0,0-2.76,1.11,4.83,4.83,0,0,0-1.45,3.88v9.08h-2.36v-9.92a5,5,0,0,0-.74-3.13,2.68,2.68,0,0,0-2.33-1,3.44,3.44,0,0,0-2.42.9,5.26,5.26,0,0,0-1.55,4.09v9.08Z"/><path class="cls-2" d="M143.75,261.6h-2.61v-2.73h2.61Zm-.13,18.54h-2.35V264.33h2.35Z"/><path class="cls-2" d="M149.85,280.14V264.39H152v2.92h.07a5.54,5.54,0,0,1,5.24-3.29,4.82,4.82,0,0,1,3.72,1.46,6.2,6.2,0,0,1,1.21,4.28v10.38H159.9v-9.79a5.4,5.4,0,0,0-.65-3.26,2.91,2.91,0,0,0-2.42-1,4.29,4.29,0,0,0-2.94,1.14,6,6,0,0,0-1.68,4.59v8.34Z"/><path class="cls-2" d="M171,261.6h-2.61v-2.73H171Zm-.13,18.54h-2.35V264.33h2.35Z"/><path class="cls-2" d="M189.35,280.14h-2.17V277h-.06a5.06,5.06,0,0,1-4.87,3.44,4.74,4.74,0,0,1-3.72-1.55,7.35,7.35,0,0,1-1.46-4.74v-9.83h2.36v9.83a5.64,5.64,0,0,0,.8,3.26,3.14,3.14,0,0,0,2.39,1c2.27,0,4.37-1.89,4.37-5.68v-8.4h2.36Z"/><path class="cls-2" d="M195.58,280.14V264.39h2.14v3h0a5.33,5.33,0,0,1,4.81-3.41,4.07,4.07,0,0,1,3.31,1.46,5.28,5.28,0,0,1,1.06,2.26,6.7,6.7,0,0,1,1.58-2.39A4.8,4.8,0,0,1,212,264a4.36,4.36,0,0,1,3.47,1.43,6.33,6.33,0,0,1,1.24,4.18v10.51h-2.35v-9.92a5.33,5.33,0,0,0-.62-3.13,2.56,2.56,0,0,0-2.2-1,3.78,3.78,0,0,0-2.76,1.11,4.81,4.81,0,0,0-1.46,3.88v9.08H205v-9.92a5,5,0,0,0-.74-3.13,2.68,2.68,0,0,0-2.33-1,3.42,3.42,0,0,0-2.41.9,5.26,5.26,0,0,0-1.55,4.09v9.08Z"/><path class="cls-2" d="M243.29,264.42a5.12,5.12,0,0,0-1.61-2.45,5.84,5.84,0,0,0-3.75-1.11,5.38,5.38,0,0,0-2.86.68,3.15,3.15,0,0,0-1.49,2.76c0,1.89,1.8,2.64,3.82,3.13l3.16.78a9.58,9.58,0,0,1,3.91,1.67,5.32,5.32,0,0,1,1.95,4.19,6.13,6.13,0,0,1-2.36,4.83,8.23,8.23,0,0,1-5.33,1.55,9.36,9.36,0,0,1-5.61-1.42,8.44,8.44,0,0,1-3.32-4.62l2.39-.53a6,6,0,0,0,2.11,3,6.7,6.7,0,0,0,4.18,1.24c4.41,0,5.09-2.42,5.09-3.66,0-2.6-2.54-3.32-3.54-3.56l-3.53-.87c-4-1-5.58-3-5.58-5.65,0-4,3.13-5.86,7.22-5.86,5.18,0,7,2.86,7.57,5.21Z"/><path class="cls-2" d="M256,281.63a6.92,6.92,0,0,1-1.67,2.82,4,4,0,0,1-3,1.15,6.2,6.2,0,0,1-2-.31v-1.83a5.34,5.34,0,0,0,1.7.22,2.5,2.5,0,0,0,1.77-.53,6,6,0,0,0,1.49-2.76l.18-.53L249,264.33h2.73l4.09,12.16,4.25-12.16h2.17Z"/><path class="cls-2" d="M274.63,268.42a3.79,3.79,0,0,0-3.85-2.48c-2.82,0-3.31,1.58-3.31,2.42,0,1.77,2,2,2.79,2.17l2.14.41a7.6,7.6,0,0,1,3.87,1.51,4.34,4.34,0,0,1,1.27,3.26,4.24,4.24,0,0,1-1.55,3.38,7.19,7.19,0,0,1-4.74,1.36,9.18,9.18,0,0,1-4.37-.86,5.46,5.46,0,0,1-2.79-3.63l2.35-.47a3.53,3.53,0,0,0,1.12,2,5.4,5.4,0,0,0,3.57,1.08,4.72,4.72,0,0,0,2.76-.74,2.29,2.29,0,0,0,.93-1.89c0-1.83-1.71-2.17-3.07-2.45l-2.39-.47c-1.95-.37-4.62-1.33-4.62-4.4a4,4,0,0,1,1.43-3.19,6.92,6.92,0,0,1,4.58-1.37,6.58,6.58,0,0,1,4.69,1.55,5.43,5.43,0,0,1,1.42,2.39Z"/><path class="cls-2" d="M284.8,264.33h3.56v1.92H284.8v9.34a2.88,2.88,0,0,0,.74,2.23,2.75,2.75,0,0,0,1.92.59,11.82,11.82,0,0,0,1.77-.19v1.92a12.76,12.76,0,0,1-2.26.19,4.84,4.84,0,0,1-3.48-1.12,4.63,4.63,0,0,1-1.05-3.28v-9.68h-2.76v-1.92h2.76v-4l2.36-.25Z"/><path class="cls-2" d="M305.69,275.83a6.44,6.44,0,0,1-2.57,3.45,7,7,0,0,1-4.06,1.17,6.76,6.76,0,0,1-5.37-2.29,8.5,8.5,0,0,1-1.92-5.8c0-4.22,2.36-8.34,7.35-8.34,5.89,0,6.85,5.46,6.85,8v.56H294.5a7.61,7.61,0,0,0,.53,3.07,4.12,4.12,0,0,0,4.12,2.76,4.25,4.25,0,0,0,3.29-1.37,4.84,4.84,0,0,0,1-1.67Zm-2.45-5.17a6.52,6.52,0,0,0-.74-2.89,3.76,3.76,0,0,0-3.35-1.83,4.4,4.4,0,0,0-3.44,1.62,5.41,5.41,0,0,0-1.09,3.1Z"/><path class="cls-2" d="M310.77,280.14V264.39h2.14v3h0a5.34,5.34,0,0,1,4.81-3.41,4.09,4.09,0,0,1,3.32,1.46,5.27,5.27,0,0,1,1.05,2.26,6.7,6.7,0,0,1,1.58-2.39,4.82,4.82,0,0,1,3.51-1.33,4.37,4.37,0,0,1,3.47,1.43,6.33,6.33,0,0,1,1.24,4.18v10.51h-2.36v-9.92a5.26,5.26,0,0,0-.62-3.13,2.55,2.55,0,0,0-2.2-1,3.78,3.78,0,0,0-2.76,1.11,4.84,4.84,0,0,0-1.46,3.88v9.08h-2.35v-9.92a5,5,0,0,0-.75-3.13,2.67,2.67,0,0,0-2.32-1,3.44,3.44,0,0,0-2.42.9,5.26,5.26,0,0,0-1.55,4.09v9.08Z"/><path class="cls-2" d="M347.11,268.42a3.79,3.79,0,0,0-3.85-2.48c-2.82,0-3.32,1.58-3.32,2.42,0,1.77,2,2,2.8,2.17l2.13.41a7.63,7.63,0,0,1,3.88,1.51,4.34,4.34,0,0,1,1.27,3.26,4.24,4.24,0,0,1-1.55,3.38,7.2,7.2,0,0,1-4.74,1.36,9.15,9.15,0,0,1-4.37-.86,5.5,5.5,0,0,1-2.8-3.63l2.36-.47a3.53,3.53,0,0,0,1.12,2,5.38,5.38,0,0,0,3.56,1.08,4.68,4.68,0,0,0,2.76-.74,2.26,2.26,0,0,0,.93-1.89c0-1.83-1.7-2.17-3.07-2.45l-2.38-.47c-2-.37-4.62-1.33-4.62-4.4a4.05,4.05,0,0,1,1.42-3.19,6.94,6.94,0,0,1,4.59-1.37,6.56,6.56,0,0,1,4.68,1.55,5.45,5.45,0,0,1,1.43,2.39Z"/></svg>