<svg id="Слой_1" data-name="Слой 1" xmlns="http://www.w3.org/2000/svg" viewBox="0 0 539.47 334.2"><defs><style>.cls-1{fill:#ef6d04;}.cls-2{fill:#343436;}</style></defs><title>55Монтажная область 8</title><path class="cls-1" d="M36.11,99.21c-.31-13.09,5.14-24,13.45-33.49C62.8,50.56,80.1,41.27,98.2,33.35c33.05-14.48,67.85-22.35,103.47-27,2.81-.37,5.61-.77,8.41-1.13,3.11-.4,3.53.79,2.15,3.38Q202,27.74,191.86,46.92q-27.17,51.4-54.28,102.82c-4,7.5-8.13,14.9-12,22.48-1.32,2.61-3.08,2.25-4.95,1.52-24.79-9.56-48.85-20.4-68.27-39.3C41.78,124.1,36.17,112,36.11,99.21Z"/><path class="cls-1" d="M504.17,98.61c.11,16.11-8.16,28.08-19.34,38.46C467.69,153,447,163,425.55,171.33c-9.28,3.62-9.52,3.43-14.19-5.38q-26.08-49.15-52-98.4-15.16-28.66-30.39-57.3c-.74-1.4-2.46-2.83-1.24-4.48,1-1.34,2.81-.48,4.25-.3,39.51,4.8,78.08,13.28,114.5,29.86,15.83,7.21,30.74,16,42.71,28.86C498.12,73.81,504.1,85,504.17,98.61Z"/><path class="cls-1" d="M270.45,116.39c16.66,0,33.31.07,50-.07,4,0,6.17.82,7.3,5.25,5.38,20.94,11.21,41.77,16.82,62.65,1.44,5.36,1.07,5.66-5.73,6.65a488.08,488.08,0,0,1-102.64,3.87c-12.79-.84-25.5-2.42-38.21-4.06-3-.39-3.43-1.63-2.68-4.34,6.13-22.11,12.23-44.24,18.14-66.41,1-3.65,3.34-3.55,6.06-3.55Q245,116.41,270.45,116.39Z"/><path class="cls-2" d="M233.94,279.17c0-16.32.09-32.65-.06-49,0-3.33.6-4.77,4.34-4.7,15.66.3,31.33,0,47,.48,30.39.88,46.72,16.21,49.14,46.54,1.45,18.17-2.23,35-15.74,48.6-6.47,6.5-14.61,9.25-23.2,10.5-19.38,2.81-38.94.89-58.4,1.47-3.46.1-3.05-2.25-3.05-4.42Zm34.4-.2h0V301.4c-.1,2.08-.17,4.11,2.8,4.19,3.81.11,7.64.58,11.44.37,8.46-.48,14-4.92,15.85-12.66a60.47,60.47,0,0,0,.55-26.2c-1.48-7.54-6.49-12-14.1-13.48-4.29-.82-8.59-.62-12.9-.82-2.88-.14-3.74.94-3.68,3.75C268.45,264,268.34,271.5,268.34,279Z"/><path class="cls-2" d="M102,279.81c0,16.33-.12,32.65.08,49,0,3.84-1.21,4.87-4.88,4.77-8.48-.23-17-.23-25.48,0-3.42.09-4.62-.81-4.54-4.43.24-11.15-.07-22.32.19-33.47.09-3.86-1.2-4.83-4.84-4.72q-11.73.38-23.48,0c-3.36-.1-4.31,1-4.26,4.22.15,11.33-.09,22.66.15,34,.07,3.6-1.06,4.54-4.52,4.44-8.32-.23-16.65-.17-25,0-3,.05-4.48-.42-4.46-4q.19-49.71,0-99.44c0-3.33,1-4.31,4.3-4.22,8.66.22,17.33.22,26,.07,3,0,3.68,1,3.64,3.78-.15,9.33.1,18.66-.16,28-.11,3.84,1.17,4.8,4.84,4.67,7.82-.29,15.66-.25,23.48,0,3.3.09,4.33-.93,4.26-4.22-.19-9.32,0-18.66-.14-28-.07-3.3,1-4.34,4.28-4.26,8.49.22,17,.29,25.48,0,3.92-.13,5.18.88,5.12,5-.24,16.32-.1,32.65-.1,49Z"/><path class="cls-1" d="M269.87,80q-20.25,0-40.5,0c-5.46,0-5.79-.36-4.33-5.7,6.22-22.78,12.49-45.55,18.63-68.35.59-2.2,1.64-3,3.75-3.12,15.33-1,30.65-.58,46,0,3.45.13,3.7,2.82,4.32,5.21q8.1,31.17,16.19,62.36c2.48,9.55,2.49,9.56-7.53,9.57q-18.25,0-36.5,0Z"/><path class="cls-2" d="M423.11,279.53c0-16.15.14-32.3-.09-48.45-.06-4.09,1.2-5,5.14-4.9,8,.27,16,.11,24-.23,3.81-.16,4.77,1.09,4.74,4.81-.18,22.81,0,45.62-.19,68.42,0,3.86.94,5.25,5,5.17,12.64-.26,25.3,0,37.95-.17,3.24,0,4.45.91,4.35,4.24-.21,6.66-.22,13.32,0,20,.11,3.33-1.09,4.3-4.31,4.29q-36.46-.15-72.92,0c-3.4,0-3.72-1.46-3.71-4.24C423.16,312.16,423.11,295.84,423.11,279.53Z"/><path class="cls-2" d="M179,307c.44,5.68-.81,12.56.62,19.31,1.28,6.05,1.45,6-4.79,6-3.83,0-7.66,0-11.49,0-1.15,0-3,.16-3.33-.41-2.8-5.34-5.65-1.6-8.65-.35a36.63,36.63,0,0,1-23,2.07c-7.06-1.67-11.72-7.66-12.24-15.24-.59-8.57,3.07-14,11.69-17.6A57.35,57.35,0,0,1,145.21,297c3-.25,6-.38,8.84-1.47,1.54-.59,3.17-1.26,3.27-3.33a4.73,4.73,0,0,0-2.64-4.49c-4-2.31-10.43-.9-12.77,3.11-1,1.72-2,2.34-3.85,2.31-5.33-.1-10.67-.15-16,0-3.37.1-3.53-1.59-2.79-4.11,2.11-7.26,6.85-11.52,14.11-13.83a54.79,54.79,0,0,1,34.32.13c8.52,2.76,11.25,7.08,11.27,16C179,296.2,179,301,179,307Zm-32.64,14.73c7-.42,11.29-5,11.23-11.4,0-1.73-.25-3.18-2.38-2.63-3.82,1-7.91.82-11.5,2.77-2.89,1.56-4.75,3.72-3.82,7.17S143.73,321.77,146.33,321.72Z"/><path class="cls-2" d="M387.88,308.56c-6,0-12,.09-18-.05-3.32-.07-3.94,1.25-3.24,4.27,1.82,7.82,10.74,11.34,16.59,5.86,3-2.79,5.8-3.22,9.33-3.11a83.93,83.93,0,0,0,11-.08c4.46-.45,3.82,1.23,2.3,4.08a27.49,27.49,0,0,1-17.64,14.22,43.22,43.22,0,0,1-29.3-2.41c-12.12-5.38-16.25-16.88-15.21-30.23,1.61-20.45,17.77-28.58,36.22-27.77s29.75,15.22,29.39,31.26c-.06,3-.82,4.14-3.95,4C399.55,308.41,393.71,308.56,387.88,308.56Zm-11.11-10.67v0c2.5,0,5-.07,7.5,0,2.28.08,2.91-.93,2.62-3.06a10,10,0,0,0-8.71-8.39c-5-.61-9.45,1.83-11,6s-.77,5.39,3.6,5.44C372.77,297.91,374.77,297.89,376.77,297.89Z"/><path class="cls-2" d="M193.06,303.65c0-8.15.11-16.3-.05-24.45,0-2.87,1-3.81,3.75-3.74,5.65.14,11.31.09,17,0,2.58,0,3.5,1,3.49,3.59q-.12,25,0,49.9c0,2.68-1.08,3.46-3.59,3.41-5.65-.12-11.32-.19-17,0-3,.11-3.68-1-3.64-3.78C193.15,320.29,193.06,312,193.06,303.65Z"/><path class="cls-2" d="M538,303.93c0,8.14-.12,16.29.07,24.42.07,3.06-.88,4.14-4,4-5.47-.18-11-.16-16.44,0-2.86.1-3.7-.92-3.68-3.75.11-16.44.07-32.89,0-49.34,0-2.68.71-4,3.66-3.87,5.47.17,11,.17,16.44,0,3-.08,4,1,4,4.06C537.88,287.65,538,295.79,538,303.93Z"/><path class="cls-2" d="M205.72,252.84c3.2.53,8.41-1.86,10.71,1,1.9,2.33.26,7.34.7,11.1.5,4.14-1,5.27-5,5a138.25,138.25,0,0,0-15,0c-3,.14-4.5-.64-4.11-3.82a8.35,8.35,0,0,0,0-1C192.92,252.88,192.92,252.88,205.72,252.84Z"/><path class="cls-2" d="M525.66,269.85c-11.59,0-11.43,0-11.69-11.79-.09-4.05.85-5.66,5.18-5.33a145.51,145.51,0,0,0,15.49.05c2.63-.07,3.73.89,3.38,3.49a8.32,8.32,0,0,0,0,1C538.13,269.84,538.13,269.84,525.66,269.85Z"/></svg>