<svg xmlns="http://www.w3.org/2000/svg" width="146.001" height="43.417" viewBox="0 0 146.001 43.417">
  <g id="лМонтажная_область_1_1" data-name="лМонтажная область 1_1" transform="translate(-1.548 -2.438)">
    <path id="Контур_344" data-name="Контур 344" d="M3.408,6.851,40.653,3.365l.7,5.382L6,8.944q.047,11.752.1,23.5Q4.754,19.648,3.408,6.851Z" transform="translate(-0.065 -0.033)" fill="#2792de"/>
    <path id="Контур_345" data-name="Контур 345" d="M6.607,40.769l35.452-.4.2-23.7Q43.4,29.617,44.55,42.554l-37.644,3.8Z" transform="translate(-0.178 -0.5)" fill="#2792de"/>
    <path id="Контур_346" data-name="Контур 346" d="M1.548,26.505a49.1,49.1,0,0,1,13.842-4.482,47.677,47.677,0,0,1,15.935,0A45.192,45.192,0,0,1,45.964,27.4c-.032.431-.067.863-.1,1.294a32.273,32.273,0,0,0-5.177-2.588c-4.93-1.933-9.025-2.12-13.643-2.29a67.3,67.3,0,0,0-14.141.986,68.519,68.519,0,0,0-11.256,3C1.615,27.375,1.583,26.937,1.548,26.505Z" transform="translate(0 -0.665)" fill="#2792de"/>
    <path id="Контур_347" data-name="Контур 347" d="M23.742,2.438l.052.131c3.229,11.251,3.432,12.326,3.432,12.326a47.194,47.194,0,0,1,.1,18.026c-.34,1.649-.72,2.988-.986,3.883l1.494.1c.247-.853.584-2.046.895-3.486a47.722,47.722,0,0,0,.3-18.425A47.769,47.769,0,0,0,24.935,2.536Z" transform="translate(-0.78)" fill="#2792de"/>
    <path id="Контур_348" data-name="Контур 348" d="M68.225,16.153h.069L70.525,4.735H74L70.074,21.56H66.943l-3.1-11.081h-.069L60.691,21.572H57.561L53.631,4.735h3.476L59.35,16.141h.069l3.03-11.407h2.727Z" transform="translate(-1.831 -0.081)" fill="#2792de"/>
    <path id="Контур_349" data-name="Контур 349" d="M79.894,6.02H76.519V3.49h3.375Zm0,15.5H76.519V9.015h3.375Z" transform="translate(-2.636 -0.037)" fill="#2792de"/>
    <path id="Контур_350" data-name="Контур 350" d="M85.974,9.208l.15,1.79a4.6,4.6,0,0,1,1.538-1.479,4,4,0,0,1,2.044-.53,3.719,3.719,0,0,1,2.958,1.218,5.782,5.782,0,0,1,1.063,3.856v7.647H90.342V14.067a3,3,0,0,0-.468-1.9,1.726,1.726,0,0,0-1.4-.56,2.931,2.931,0,0,0-1.324.284,2.569,2.569,0,0,0-.942.779v9.047H82.83V9.208Z" transform="translate(-2.858 -0.23)" fill="#2792de"/>
    <path id="Контур_351" data-name="Контур 351" d="M96.2,15.37A8.125,8.125,0,0,1,97.473,10.6a4.148,4.148,0,0,1,3.6-1.814,3.481,3.481,0,0,1,1.686.4,4.023,4.023,0,0,1,1.316,1.156V3.49h3.387V21.516h-2.877L104.3,19.98a4.191,4.191,0,0,1-1.4,1.324,3.71,3.71,0,0,1-1.849.456,4.227,4.227,0,0,1-3.577-1.689,7.206,7.206,0,0,1-1.277-4.46Zm3.363.247a5.1,5.1,0,0,0,.555,2.584,1.936,1.936,0,0,0,1.8.942,2.611,2.611,0,0,0,1.27-.3,2.325,2.325,0,0,0,.89-.86V12.653a2.613,2.613,0,0,0-.883-.92,2.357,2.357,0,0,0-1.255-.328,1.9,1.9,0,0,0-1.807,1.1,6.224,6.224,0,0,0-.574,2.867Z" transform="translate(-3.328 -0.037)" fill="#2792de"/>
    <path id="Контур_352" data-name="Контур 352" d="M110.042,15.354a6.709,6.709,0,0,1,1.56-4.583,5.439,5.439,0,0,1,4.322-1.785,5.5,5.5,0,0,1,4.346,1.78,6.662,6.662,0,0,1,1.57,4.588V15.6a6.681,6.681,0,0,1-1.565,4.593,6.178,6.178,0,0,1-8.668,0,6.687,6.687,0,0,1-1.565-4.593Zm3.363.247a5.429,5.429,0,0,0,.6,2.744,2.08,2.08,0,0,0,1.94,1.035,2.054,2.054,0,0,0,1.913-1.04,5.406,5.406,0,0,0,.606-2.739v-.247a5.334,5.334,0,0,0-.611-2.712,2.076,2.076,0,0,0-1.93-1.053,2.049,2.049,0,0,0-1.913,1.053,5.406,5.406,0,0,0-.606,2.712Z" transform="translate(-3.815 -0.23)" fill="#2792de"/>
    <path id="Контур_353" data-name="Контур 353" d="M135.266,17.073h.069l1.514-7.857h3.281l-3.178,12.5h-2.82l-2.322-7.211h-.069l-2.322,7.211h-2.8l-3.183-12.5h3.281l1.536,7.822h.071l2.332-7.822h2.256Z" transform="translate(-4.286 -0.238)" fill="#2792de"/>
    <path id="Контур_354" data-name="Контур 354" d="M149.206,18.243a1.169,1.169,0,0,0-.537-.954,5.583,5.583,0,0,0-1.992-.7,7.954,7.954,0,0,1-3.335-1.329,2.9,2.9,0,0,1-1.139-2.416,3.451,3.451,0,0,1,1.366-2.739,5.491,5.491,0,0,1,3.626-1.132,5.938,5.938,0,0,1,3.8,1.132,3.316,3.316,0,0,1,1.371,2.82l-.025.069H149.09a1.639,1.639,0,0,0-.493-1.233,2.273,2.273,0,0,0-2.682-.069,1.257,1.257,0,0,0-.473.986,1.119,1.119,0,0,0,.493.942,5.406,5.406,0,0,0,1.994.653,8.128,8.128,0,0,1,3.427,1.358,2.983,2.983,0,0,1,1.127,2.465,3.306,3.306,0,0,1-1.445,2.761,6.242,6.242,0,0,1-3.814,1.075,5.793,5.793,0,0,1-3.944-1.265,3.54,3.54,0,0,1-1.381-2.884l.022-.069h3.094a1.747,1.747,0,0,0,.658,1.457,2.734,2.734,0,0,0,1.629.449,2.312,2.312,0,0,0,1.427-.375A1.218,1.218,0,0,0,149.206,18.243Z" transform="translate(-4.935 -0.23)" fill="#2792de"/>
    <path id="Контур_355" data-name="Контур 355" d="M64.86,40.813A5.054,5.054,0,0,1,63,42.226a7.306,7.306,0,0,1-3.185.6,5.234,5.234,0,0,1-5.48-5.463V34.583a5.41,5.41,0,0,1,1.491-3.944,5.055,5.055,0,0,1,3.824-1.511A5.439,5.439,0,0,1,63.4,30.287a3.816,3.816,0,0,1,1.255,3.086l-.02.057H62.117a2.182,2.182,0,0,0-.614-1.652,2.473,2.473,0,0,0-1.785-.592,2.4,2.4,0,0,0-1.972.947,3.806,3.806,0,0,0-.74,2.438v2.8a3.789,3.789,0,0,0,.767,2.465,2.512,2.512,0,0,0,2.058.952,4.748,4.748,0,0,0,1.506-.192,2.29,2.29,0,0,0,.855-.493V37.51H59.619V35.661H64.86Z" transform="translate(-1.856 -0.939)" fill="#2792de"/>
    <path id="Контур_356" data-name="Контур 356" d="M72.591,35.169l-.986-.03a1.775,1.775,0,0,0-.986.247,1.548,1.548,0,0,0-.584.7v6.686H67.372V32.859H69.85l.121,1.464a3.106,3.106,0,0,1,.9-1.213,2.017,2.017,0,0,1,1.277-.434,1.931,1.931,0,0,1,.37.032c.113.022.227.047.343.076Z" transform="translate(-2.315 -1.063)" fill="#2792de"/>
    <path id="Контур_357" data-name="Контур 357" d="M73.607,37.718a5.313,5.313,0,0,1,1.233-3.629,4.89,4.89,0,0,1,6.871,0,5.3,5.3,0,0,1,1.245,3.634v.192a5.341,5.341,0,0,1-1.233,3.636,4.289,4.289,0,0,1-3.451,1.4,4.345,4.345,0,0,1-3.434-1.4A5.259,5.259,0,0,1,73.6,37.911Zm2.662.192a4.292,4.292,0,0,0,.476,2.172,1.639,1.639,0,0,0,1.536.818,1.62,1.62,0,0,0,1.514-.823,4.275,4.275,0,0,0,.481-2.167v-.192a4.23,4.23,0,0,0-.493-2.15,1.644,1.644,0,0,0-1.528-.833,1.62,1.62,0,0,0-1.514.836,4.279,4.279,0,0,0-.481,2.147Z" transform="translate(-2.534 -1.063)" fill="#2792de"/>
    <path id="Контур_358" data-name="Контур 358" d="M91.057,41.3A3.372,3.372,0,0,1,89.9,42.535a3.089,3.089,0,0,1-1.637.429,3.016,3.016,0,0,1-2.448-1.06,5.069,5.069,0,0,1-.883-3.294V32.866h2.662v5.761a3.178,3.178,0,0,0,.353,1.78,1.262,1.262,0,0,0,1.092.481,2.64,2.64,0,0,0,1.1-.207,1.844,1.844,0,0,0,.752-.606V32.866h2.67v9.9H91.335Z" transform="translate(-2.932 -1.07)" fill="#2792de"/>
    <path id="Контур_359" data-name="Контур 359" d="M104.885,38.083a5.688,5.688,0,0,1-1.016,3.533,3.355,3.355,0,0,1-2.837,1.334,3.163,3.163,0,0,1-1.381-.288,2.808,2.808,0,0,1-1.033-.846v4.748H95.956v-13.7h2.406l.155,1.171a3.18,3.18,0,0,1,1.055-1,2.867,2.867,0,0,1,1.442-.353,3.294,3.294,0,0,1,2.855,1.437,6.426,6.426,0,0,1,1.016,3.777Zm-2.672-.2a4.8,4.8,0,0,0-.466-2.268,1.523,1.523,0,0,0-1.427-.87,2.019,2.019,0,0,0-1.03.247,1.74,1.74,0,0,0-.671.7v4.336a1.615,1.615,0,0,0,.671.641,2.28,2.28,0,0,0,1.048.219,1.538,1.538,0,0,0,1.422-.759,3.994,3.994,0,0,0,.454-2.058Z" transform="translate(-3.32 -1.063)" fill="#2792de"/>
  </g>
</svg>
