<svg id="material" xmlns="http://www.w3.org/2000/svg" width="40.607" height="21.791" viewBox="0 0 40.607 21.791">
  <path id="Контур_1141" data-name="Контур 1141" d="M21.694,30.413c-1.225-.778-2.469-1.575-3.714-2.372-2.178-1.4-4.316-2.819-6.513-4.161a1.817,1.817,0,0,1-1.011-1.867c.1-1.147.058-2.294.156-3.441a1.736,1.736,0,0,1,1.322-1.653c2.839-.836,5.658-1.692,8.477-2.547,1.964-.6,3.908-1.244,5.852-1.847,2.43-.758,4.861-1.536,7.291-2.294,1.672-.525,3.344-1.011,5-1.536a1.273,1.273,0,0,1,1.03.078q5.512,2.712,11.063,5.425c.117.058.214.117.408.233-.331.136-.583.233-.836.311-2.042.681-4.1,1.361-6.144,2.042L38.532,18.65c-2.314.778-4.608,1.594-6.922,2.353-1.38.467-2.78.875-4.161,1.342-1.5.486-3.014.992-4.511,1.517a1.731,1.731,0,0,0-1.128,1.5,13.688,13.688,0,0,0-.136,1.808c-.039,1.244-.078,1.342-.058,1.983C21.636,29.674,21.655,30.1,21.694,30.413Z" transform="translate(-10.445 -8.622)" fill="#fff"/>
</svg>
