<svg xmlns="http://www.w3.org/2000/svg" width="42.862" height="27.626" viewBox="0 0 42.862 27.626">
  <g id="measuring-tape" transform="translate(0 0.001)">
    <g id="Сгруппировать_110" data-name="Сгруппировать 110" transform="translate(0 -0.001)">
      <g id="Сгруппировать_109" data-name="Сгруппировать 109">
        <path id="Контур_399" data-name="Контур 399" d="M11.3,91.062C4.779,91.7,0,97.564,0,104.118v5.719a6.279,6.279,0,0,0,6.279,6.279H25.115V103.558A12.572,12.572,0,0,0,11.3,91.062Zm1.255,20.03a7.534,7.534,0,1,1,7.534-7.534A7.543,7.543,0,0,1,12.557,111.092Z" transform="translate(0 -91.001)" fill="#fff"/>
      </g>
    </g>
    <g id="Сгруппировать_112" data-name="Сгруппировать 112" transform="translate(7.534 7.533)">
      <g id="Сгруппировать_111" data-name="Сгруппировать 111">
        <path id="Контур_400" data-name="Контур 400" d="M95.023,181a5.023,5.023,0,1,0,5.023,5.023A5.028,5.028,0,0,0,95.023,181Z" transform="translate(-90 -181)" fill="#fff"/>
      </g>
    </g>
    <g id="Сгруппировать_114" data-name="Сгруппировать 114" transform="translate(27.626 17.579)">
      <g id="Сгруппировать_113" data-name="Сгруппировать 113">
        <path id="Контур_401" data-name="Контур 401" d="M343.98,301H330v7.534h2.511v-1.256a1.256,1.256,0,1,1,2.511,0v1.256h2.6v-1.256a1.256,1.256,0,0,1,2.511,0v1.256h2.6v1.256a1.256,1.256,0,0,0,2.511,0v-7.534A1.255,1.255,0,0,0,343.98,301Z" transform="translate(-330 -301)" fill="#fff"/>
      </g>
    </g>
  </g>
</svg>
