<svg id="measuring-tape" xmlns="http://www.w3.org/2000/svg" width="31.671" height="20.413" viewBox="0 0 31.671 20.413">
  <g id="Сгруппировать_110" data-name="Сгруппировать 110">
    <g id="Сгруппировать_109" data-name="Сгруппировать 109">
      <path id="Контур_399" data-name="Контур 399" d="M8.351,91.046A9.56,9.56,0,0,0,0,100.693v4.225a4.639,4.639,0,0,0,4.639,4.639H18.557v-9.278A9.289,9.289,0,0,0,8.351,91.046Zm.928,14.8a5.567,5.567,0,1,1,5.567-5.567A5.573,5.573,0,0,1,9.278,105.846Z" transform="translate(0 -91.001)" fill="#fff"/>
    </g>
  </g>
  <g id="Сгруппировать_112" data-name="Сгруппировать 112" transform="translate(5.567 5.567)">
    <g id="Сгруппировать_111" data-name="Сгруппировать 111">
      <path id="Контур_400" data-name="Контур 400" d="M93.711,181a3.711,3.711,0,1,0,3.711,3.711A3.715,3.715,0,0,0,93.711,181Z" transform="translate(-90 -181)" fill="#fff"/>
    </g>
  </g>
  <g id="Сгруппировать_114" data-name="Сгруппировать 114" transform="translate(20.413 12.99)">
    <g id="Сгруппировать_113" data-name="Сгруппировать 113">
      <path id="Контур_401" data-name="Контур 401" d="M340.33,301H330v5.567h1.856v-.928a.928.928,0,1,1,1.856,0v.928h1.918v-.928a.928.928,0,0,1,1.856,0v.928H339.4v.928a.928.928,0,1,0,1.856,0v-5.567A.927.927,0,0,0,340.33,301Z" transform="translate(-330 -301)" fill="#fff"/>
    </g>
  </g>
</svg>
