<svg id="mobile-phone" xmlns="http://www.w3.org/2000/svg" width="21.679" height="22.467" viewBox="0 0 21.679 22.467">
  <g id="Сгруппировать_95" data-name="Сгруппировать 95">
    <path id="Контур_381" data-name="Контур 381" d="M57.177,32.195H54.639a1.2,1.2,0,0,0-1.2,1.2v.13a1.2,1.2,0,0,0,1.2,1.2h2.537a1.2,1.2,0,0,0,1.2-1.2v-.132A1.2,1.2,0,0,0,57.177,32.195Z" transform="translate(-36.699 -21.872)" fill="#fff"/>
    <path id="Контур_382" data-name="Контур 382" d="M21.709,7.327H21.18V1.518A1.522,1.522,0,0,0,19.662,0H9.645A1.522,1.522,0,0,0,8.127,1.518V5.686c-2.02,1.142-4.1,2.335-4.109,2.338C2.887,8.49,1.23,9.992,1.23,13.539a8.561,8.561,0,0,0,.05.892c.009.083.02.162.031.242q.044.311.109.594c.016.067.028.138.045.2a5.85,5.85,0,0,0,.2.617c.038.1.08.184.122.275s.09.189.139.276c.056.105.112.207.174.3.015.022.031.043.046.066A5.371,5.371,0,0,0,6.3,19.226H8.127V20.95a1.522,1.522,0,0,0,1.518,1.517H19.662A1.522,1.522,0,0,0,21.18,20.95v-2.1h.527a1.2,1.2,0,0,0,1.2-1.2v-.131a1.2,1.2,0,0,0-1.2-1.2H19.169a1.2,1.2,0,0,0-1.2,1.2v.133a1.2,1.2,0,0,0,1.2,1.2h.954v.813H9.183V8.761c.55-.349,1.058-.684,1.349-.909C12,6.715,13.4,5.81,13.586,4.989c.246-1.066-.572-1.963-1.991-1.226-.447.232-1.364.741-2.412,1.329V2.405l10.94,0v4.92h-.953a1.2,1.2,0,0,0-1.2,1.2v.13a1.2,1.2,0,0,0,1.2,1.2h2.539a1.2,1.2,0,0,0,1.2-1.2V8.526A1.2,1.2,0,0,0,21.709,7.327ZM14.652,20.193a.759.759,0,1,1-.758.759A.759.759,0,0,1,14.652,20.193Zm1.6-18.732H13.051a.184.184,0,1,1,0-.367h3.205a.184.184,0,0,1,0,.367Z" transform="translate(-1.23)" fill="#fff"/>
    <path id="Контур_383" data-name="Контур 383" d="M57.173,41.538H54.635a1.2,1.2,0,0,0-1.2,1.2v.131a1.2,1.2,0,0,0,1.2,1.2h2.538a1.2,1.2,0,0,0,1.2-1.2v-.131A1.2,1.2,0,0,0,57.173,41.538Z" transform="translate(-36.696 -28.219)" fill="#fff"/>
  </g>
</svg>
