<svg xmlns="http://www.w3.org/2000/svg" width="40.593" height="42.069" viewBox="0 0 40.593 42.069">
  <g id="mobile-phone" transform="translate(0.001 0)">
    <g id="Сгруппировать_95" data-name="Сгруппировать 95" transform="translate(-0.001 0)">
      <path id="Контур_381" data-name="Контур 381" d="M60.437,32.195H55.684a2.246,2.246,0,0,0-2.244,2.248v.244a2.247,2.247,0,0,0,2.246,2.25h4.751a2.252,2.252,0,0,0,2.25-2.25l0-.247A2.244,2.244,0,0,0,60.437,32.195Z" transform="translate(-22.093 -12.865)" fill="#fff"/>
      <path id="Контур_382" data-name="Контур 382" d="M39.576,13.72h-.99V2.842A2.851,2.851,0,0,0,35.743,0H16.987a2.851,2.851,0,0,0-2.842,2.842v7.8c-3.783,2.139-7.685,4.373-7.693,4.378C4.333,15.9,1.23,18.709,1.23,25.352a16.031,16.031,0,0,0,.094,1.67c.017.155.037.3.058.453q.082.583.2,1.113c.029.126.052.258.084.378a10.954,10.954,0,0,0,.38,1.156c.072.181.15.345.229.515s.169.354.259.518c.105.2.21.388.325.569.028.042.058.08.086.123C5.685,35.98,10.731,36,10.731,36h3.414v3.23a2.85,2.85,0,0,0,2.842,2.84H35.742a2.851,2.851,0,0,0,2.843-2.84V35.289h.433v0h.553a2.246,2.246,0,0,0,2.249-2.249l0-.245a2.248,2.248,0,0,0-2.25-2.244H34.82a2.243,2.243,0,0,0-2.244,2.246v.249a2.248,2.248,0,0,0,2.246,2.247h1.786v1.521H16.122V16.4c1.029-.653,1.982-1.281,2.525-1.7,2.753-2.129,5.366-3.825,5.719-5.362.461-2-1.071-3.676-3.728-2.3-.837.435-2.555,1.388-4.517,2.489V4.5l20.485,0v9.212H35.381v0h-.558a2.249,2.249,0,0,0-2.25,2.25v.244a2.246,2.246,0,0,0,2.247,2.247h4.755a2.246,2.246,0,0,0,2.246-2.247v-.25A2.244,2.244,0,0,0,39.576,13.72ZM26.362,37.81a1.421,1.421,0,1,1-1.419,1.422A1.421,1.421,0,0,1,26.362,37.81Zm3-35.074h-6a.344.344,0,1,1,0-.687h6a.344.344,0,0,1,0,.687Z" transform="translate(-1.23)" fill="#fff"/>
      <path id="Контур_383" data-name="Контур 383" d="M60.435,41.538H55.682a2.25,2.25,0,0,0-2.247,2.249v.246a2.246,2.246,0,0,0,2.247,2.247h4.752a2.249,2.249,0,0,0,2.249-2.247v-.246A2.248,2.248,0,0,0,60.435,41.538Z" transform="translate(-22.091 -16.599)" fill="#fff"/>
    </g>
  </g>
</svg>
