<svg id="Сгруппировать_498" data-name="Сгруппировать 498" xmlns="http://www.w3.org/2000/svg" width="32.592" height="32.569" viewBox="0 0 32.592 32.569">
  <g id="Сгруппировать_257" data-name="Сгруппировать 257" transform="translate(0 0)">
    <path id="Контур_575" data-name="Контур 575" d="M272,118.906h6.738V117.4a3.911,3.911,0,0,1-1.861-5.231H275.04l-3.04,3.04Zm0,0" transform="translate(-252.908 -104.306)" fill="#fff"/>
    <path id="Контур_577" data-name="Контур 577" d="M357.615,98.976a2.808,2.808,0,1,1-2.808-2.808A2.808,2.808,0,0,1,357.615,98.976Zm0,0" transform="translate(-327.293 -89.43)" fill="#fff"/>
    <g id="Сгруппировать_256" data-name="Сгруппировать 256">
      <path id="Контур_576" data-name="Контур 576" d="M128,128.168v7.26l7.26-7.26Zm0,0" transform="translate(-119.015 -119.183)" fill="#fff"/>
      <path id="Контур_578" data-name="Контур 578" d="M3.369,22.629V.168H1.685A1.687,1.687,0,0,0,0,1.853V23.192a2.793,2.793,0,0,1,1.685-.563Zm0,0" transform="translate(0 -0.168)" fill="#fff"/>
      <path id="Контур_579" data-name="Контур 579" d="M96,96.168V111.1l14.929-14.929Zm1.123,1.123h11.094L97.123,108.385Zm0,0" transform="translate(-89.262 -89.43)" fill="#fff"/>
      <path id="Контур_580" data-name="Контур 580" d="M16.584,76.266l5.072,1.44,8.923,8.923h1.991V64.168H4.493V83.261H1.685a1.685,1.685,0,1,0,0,3.369h21.69l-5.32-5.32ZM5.616,65.292H24.379l-1.123,1.123H24.77a3.929,3.929,0,1,1,2.745,6.738,3.957,3.957,0,0,1-.562-.045V75.4H17.969V71.7L5.616,84.055ZM8.423,85.507H7.3V84.384H8.423Zm8.984,0H9.546V84.384h7.861Zm0,0" transform="translate(0 -59.676)" fill="#fff"/>
      <path id="Контур_581" data-name="Контур 581" d="M275.648,277.494l2.013-2.014,9.141,9.141-2.013,2.014Zm0,0" transform="translate(-256.3 -256.156)" fill="#fff"/>
      <path id="Контур_582" data-name="Контур 582" d="M420.076,417.9l-.879-.879-2.014,2.014.879.879a1.424,1.424,0,1,0,2.014-2.014Zm0,0" transform="translate(-387.901 -387.764)" fill="#fff"/>
    </g>
  </g>
  <path id="Контур_583" data-name="Контур 583" d="M261.792,260.4l-2.058-.585.6,2.045Zm0,0" transform="translate(-241.503 -241.591)" fill="#fff"/>
</svg>
