<svg id="money_1_" data-name="money (1)" xmlns="http://www.w3.org/2000/svg" width="41.427" height="49.292" viewBox="0 0 41.427 49.292">
  <path id="Контур_473" data-name="Контур 473" d="M104.008,131.047a10.555,10.555,0,1,0,10.555-10.555A10.555,10.555,0,0,0,104.008,131.047Zm10.555.667a3.468,3.468,0,0,1-.881-6.828v-.892a.731.731,0,1,1,1.463,0v.848a3.434,3.434,0,0,1,2.861,3.407.723.723,0,1,1-1.446,0,2,2,0,1,0-2,2,3.463,3.463,0,0,1,.583,6.873V138a.731.731,0,0,1-1.463,0v-.917a3.5,3.5,0,0,1-2.607-3.363.74.74,0,1,1,1.48,0,2.007,2.007,0,0,0,1.788,1.99.763.763,0,0,1,.114-.009.737.737,0,0,1,.164.019,2,2,0,0,0-.058-4Zm0,0" transform="translate(-93.177 -107.901)" fill="#fff"/>
  <path id="Контур_474" data-name="Контур 474" d="M95.9,353.782l-.017.009L89.091,357a5.247,5.247,0,0,1,.095,1.141.731.731,0,0,1-.731.711h-.021l-9.938-.273a.732.732,0,0,1,.04-1.463l9.135.251a3.771,3.771,0,0,0-3.607-3.134l-6.045-.166a7.959,7.959,0,0,1-3.425-.885l-.615-.318a9.293,9.293,0,0,0-9.486.534l-.242,8.794,1.039-.556a4.518,4.518,0,0,1,3.368-.369l10.259,2.88a9.582,9.582,0,0,0,5.871-.656L99,354.3a2.658,2.658,0,0,0-3.1-.514Zm0,0" transform="translate(-57.574 -315.049)" fill="#fff"/>
  <path id="Контур_475" data-name="Контур 475" d="M.359,353.635l.36-13.084,5.167.142-.36,13.084Zm0,0" transform="translate(-0.359 -304.965)" fill="#fff"/>
  <path id="Контур_476" data-name="Контур 476" d="M199.049,8.673V.731a.731.731,0,0,0-1.463,0V8.673a.731.731,0,0,0,1.463,0Zm0,0" transform="translate(-176.977)" fill="#fff"/>
  <path id="Контур_477" data-name="Контур 477" d="M259.049,44.493V40.731a.731.731,0,1,0-1.463,0v3.762a.731.731,0,1,0,1.463,0Zm0,0" transform="translate(-230.707 -35.82)" fill="#fff"/>
  <path id="Контур_478" data-name="Контур 478" d="M139.049,44.493V40.731a.731.731,0,1,0-1.463,0v3.762a.731.731,0,0,0,1.463,0Zm0,0" transform="translate(-123.247 -35.82)" fill="#fff"/>
</svg>
