<svg id="month" xmlns="http://www.w3.org/2000/svg" width="22.208" height="22.018" viewBox="0 0 22.208 22.018">
  <g id="Сгруппировать_341" data-name="Сгруппировать 341">
    <path id="Контур_755" data-name="Контур 755" d="M20.294,1.518H19.145V.38a.383.383,0,0,0-.766,0V1.518H15.316V.38a.383.383,0,0,0-.766,0V1.518H11.487V.38a.383.383,0,0,0-.766,0V1.518H7.658V.38a.383.383,0,0,0-.766,0V1.518H3.829V.38a.383.383,0,0,0-.766,0V1.518H1.915A1.912,1.912,0,0,0,0,3.417v16.7a1.907,1.907,0,0,0,1.915,1.9H20.294a1.907,1.907,0,0,0,1.915-1.9V3.417A1.912,1.912,0,0,0,20.294,1.518ZM1.915,2.278H3.063V3.417a.383.383,0,0,0,.766,0V2.278H6.892V3.417a.383.383,0,0,0,.766,0V2.278h3.063V3.417a.383.383,0,0,0,.766,0V2.278H14.55V3.417a.383.383,0,0,0,.766,0V2.278h3.063V3.417a.383.383,0,0,0,.766,0V2.278h1.149a1.142,1.142,0,0,1,1.149,1.139V6.833H.766V3.417A1.147,1.147,0,0,1,1.915,2.278ZM20.294,21.258H1.915A1.142,1.142,0,0,1,.766,20.12V7.592H21.443V20.12A1.142,1.142,0,0,1,20.294,21.258Z" fill="#aaa"/>
    <path id="Контур_756" data-name="Контур 756" d="M145.241,255.045a2.411,2.411,0,0,0,2.441-2.364v-5.517a2.443,2.443,0,0,0-4.883,0v5.517A2.406,2.406,0,0,0,145.241,255.045Zm-1.628-7.881a1.628,1.628,0,0,1,3.255,0v5.517a1.628,1.628,0,0,1-3.255,0Z" transform="translate(-137.527 -236.18)" fill="#aaa"/>
    <path id="Контур_757" data-name="Контур 757" d="M326.807,254.061a.394.394,0,1,0,0,.788h4.069a.394.394,0,1,0,0-.788h-1.221V245a.259.259,0,0,0-.008-.079c0-.008-.008-.024-.008-.032s-.008-.024-.016-.039-.016-.024-.024-.039-.008-.024-.016-.032a.5.5,0,0,0-.114-.11c-.008-.008-.024-.008-.033-.016s-.024-.016-.041-.024-.024-.008-.041-.016-.024-.008-.033-.008a.232.232,0,0,0-.073-.008h0a.232.232,0,0,0-.073.008c-.016,0-.024.008-.033.008s-.024.008-.041.016-.024.016-.041.024-.024.008-.033.016c-.024.016-.041.032-.065.047l-2.441,2.364a.382.382,0,0,0,0,.56.416.416,0,0,0,.285.118.4.4,0,0,0,.285-.118l1.75-1.694v8.117Z" transform="translate(-314.347 -235.984)" fill="#aaa"/>
    <path id="Контур_758" data-name="Контур 758" d="M64.257,535.5H46.089a.2.2,0,0,0,0,.394H64.257a.2.2,0,0,0,0-.394Z" transform="translate(-44.069 -515.65)" fill="#aaa"/>
    <path id="Контур_759" data-name="Контур 759" d="M173.807,276.582a.8.8,0,0,1,.814-.788.2.2,0,1,0,0-.394,1.2,1.2,0,0,0-1.221,1.182.2.2,0,0,0,.407,0Z" transform="translate(-166.917 -265.175)" fill="#aaa"/>
    <path id="Контур_760" data-name="Контур 760" d="M46.089,148.294H64.257a.2.2,0,0,0,0-.394H46.089a.2.2,0,0,0,0,.394Z" transform="translate(-44.069 -142.399)" fill="#aaa"/>
  </g>
</svg>
