<svg id="no-fire" xmlns="http://www.w3.org/2000/svg" width="44" height="44" viewBox="0 0 44 44">
  <g id="Сгруппировать_205" data-name="Сгруппировать 205" transform="translate(0 0)">
    <path id="Контур_502" data-name="Контур 502" d="M37.556,6.444A22,22,0,0,0,6.444,37.556,22,22,0,0,0,37.556,6.444ZM22,41.422A19.421,19.421,0,0,1,7.386,9.209l6.446,6.446a9.561,9.561,0,0,0-1.862,6.517l-1.553-2.02-.193,3.466c-.013.227-.019.452-.019.667a11.822,11.822,0,0,0,8.571,11.351,5.9,5.9,0,0,1-.711-9.323l1.057-.949.842,1.144a.993.993,0,0,0,.245.252,1.211,1.211,0,0,0,.4-.633,2.28,2.28,0,0,0-.372-2.024l-1.784-2.418,2.982.374a7.433,7.433,0,0,1,3.287,1.42C26.17,24.571,27.9,26.711,27.9,30.7a5.9,5.9,0,0,1-2.67,4.933,11.816,11.816,0,0,0,5.336-3.243l4.222,4.222A19.279,19.279,0,0,1,22,41.422Zm14.614-6.631-4.473-4.473a11.806,11.806,0,0,0,1.271-9.062l-.719-2.736L31.1,20.856a6.9,6.9,0,0,1-.73.829,22,22,0,0,0-.6-4.46C28.511,12.072,25.4,8.8,20.767,7.755l-2.09-.471.563,2.067c1.115,4.093.489,6.684-.456,7.61L9.209,7.386A19.421,19.421,0,0,1,36.614,34.791Z" transform="translate(0 0)" fill="#fff"/>
  </g>
</svg>
