<svg id="Слой_1" xmlns="http://www.w3.org/2000/svg" viewBox="0 0 861.89 849.16"><defs><style>.cls-1{fill:#ed1c24;}</style></defs><title>55Монтажная область 3</title><path  shape-rendering="crispEdges" class="cls-1" d="M353,590.52c0-19.8-.1-39.61,0-59.41.12-16.63,7.71-24.26,24.27-24.31q54-.15,107.92,0c19.19.07,26.22,7.15,26.26,26.33.09,36,0,71.94,0,107.92,0,27.38,5.25,32.63,32.18,32.64,16.17,0,32.35-.31,48.5.24,4.13.13,8.17,3,12.25,4.56-2.11,3.46-3.64,7.49-6.42,10.29Q524.49,763,450.69,836.91c-15.54,15.61-25.55,15.65-40.95.19q-74.4-74.73-148.67-149.57c-2.47-2.5-3.47-6.44-5.15-9.71,3.56-1.36,7.1-3.82,10.68-3.89,20.46-.4,40.92-.12,61.39-.29,17.28-.14,24.71-7.45,24.9-24.71C353.11,629.46,353,610,353,590.52Z"/><path class="cls-1" d="M179.27,424.72V578.16c0,2.31.5,4.76-.11,6.9-1.37,4.73-3.3,9.31-5,14-4.54-2.17-10.1-3.31-13.48-6.66-38.66-38.33-77-77-115.41-115.57Q27.1,458.54,8.94,440.3c-11.89-11.93-12-20.82.2-32.95Q76.93,340,144.92,272.94c6.33-6.27,12.39-12.85,19.13-18.65,2.66-2.29,7.69-4.77,10.07-3.7,2.62,1.19,3.9,6.24,4.9,9.84.77,2.77.24,5.9.24,8.87Q179.28,347,179.27,424.72Z"/><path class="cls-1" d="M685.52,424V270.61c0-2.31-.43-4.73.12-6.9a90.39,90.39,0,0,1,3.59-9.78c3,1.46,6.68,2.26,9,4.47q43.78,42.27,87.21,84.9,31.86,31.09,63.71,62.21c14.33,14.06,14.33,22.54.2,36.54q-74.16,73.47-148.47,146.8c-2.92,2.87-7.47,4.07-11.27,6-1.35-4.2-3.86-8.39-3.88-12.6C685.43,529.53,685.52,476.76,685.52,424Z"/><path class="cls-1" d="M353,260.14c0,19.8-.1,39.6,0,59.4.12,16.64,7.71,24.26,24.27,24.31q54,.15,107.92,0c19.19-.06,26.22-7.14,26.26-26.32.09-36,0-71.95,0-107.92,0-27.38,5.25-32.63,32.18-32.64,16.17,0,32.35.3,48.5-.24,4.13-.14,8.17-3,12.25-4.56-2.11-3.46-3.64-7.49-6.42-10.29Q524.49,87.68,450.69,13.75c-15.54-15.61-25.55-15.66-40.95-.19q-74.4,74.71-148.67,149.57c-2.47,2.49-3.47,6.44-5.15,9.71,3.56,1.35,7.1,3.82,10.68,3.89,20.46.4,40.92.11,61.39.29,17.28.14,24.71,7.45,24.9,24.7C353.11,221.19,353,240.67,353,260.14Z"/></svg>