<svg xmlns="http://www.w3.org/2000/svg" width="43.591" height="43.59" viewBox="0 0 43.591 43.59">
  <g id="open-window" transform="translate(-0.001)">
    <path id="Контур_1525" data-name="Контур 1525" d="M387.113,167.715l-3.114.934v6.937l3.114.934Zm0,0" transform="translate(-351.306 -153.436)" fill="#fff"/>
    <path id="Контур_1526" data-name="Контур 1526" d="M146.285,119.807l1.557.467V116.2l-1.557-.6Zm0,0" transform="translate(-133.83 -105.752)" fill="#fff"/>
    <path id="Контур_1527" data-name="Контур 1527" d="M387.113,94.254,384,95.465v4.352l3.114-.934Zm0,0" transform="translate(-351.306 -86.229)" fill="#fff"/>
    <path id="Контур_1528" data-name="Контур 1528" d="M111.32,62.5V41.774a1.547,1.547,0,0,1,.993-1.451l9.648-3.752H94.452l9.648,3.752a1.547,1.547,0,0,1,.993,1.451V62.5a1.547,1.547,0,0,1-.993,1.451l-9.648,3.752H121.96l-9.648-3.752A1.547,1.547,0,0,1,111.32,62.5Zm0,0" transform="translate(-86.41 -33.457)" fill="#fff"/>
    <path id="Контур_1529" data-name="Контур 1529" d="M67.311,45.64,54.856,40.8V71.214l12.455-4.843ZM65.754,64.773a.778.778,0,0,1-.5.725l-3.092,1.2-4.691,1.824a.778.778,0,0,1-1.06-.726V44.21a.778.778,0,0,1,1.06-.725l4.691,1.824,3.092,1.2a.778.778,0,0,1,.5.725Zm0,0" transform="translate(-50.185 -37.324)" fill="#fff"/>
    <path id="Контур_1530" data-name="Контур 1530" d="M91.43,98.883l3.114.934V95.465L91.43,94.254Zm0,0" transform="translate(-83.645 -86.229)" fill="#fff"/>
    <path id="Контур_1531" data-name="Контур 1531" d="M146.285,190.175l1.557-.467v-5.069l-1.557-.467Zm0,0" transform="translate(-133.83 -168.492)" fill="#fff"/>
    <path id="Контур_1532" data-name="Контур 1532" d="M91.43,176.521l3.114-.934v-6.937l-3.114-.934Zm0,0" transform="translate(-83.645 -153.436)" fill="#fff"/>
    <path id="Контур_1533" data-name="Контур 1533" d="M146.285,272.97l1.557-.6v-4.076l-1.557.467Zm0,0" transform="translate(-133.83 -245.448)" fill="#fff"/>
    <path id="Контур_1534" data-name="Контур 1534" d="M348.987,115.594l-1.557.6v4.076l1.557-.467Zm0,0" transform="translate(-317.85 -105.753)" fill="#fff"/>
    <path id="Контур_1535" data-name="Контур 1535" d="M57.983,0H19.063a.779.779,0,0,0-.779.779V37.363H58.762V.779A.779.779,0,0,0,57.983,0ZM57.2,35.028a.778.778,0,0,1-.055.271c-.007.018-.013.035-.02.052a.755.755,0,0,1-.144.213c-.012.012-.024.023-.037.033a.76.76,0,0,1-.083.073.784.784,0,0,1-.089.044c-.026.013-.051.027-.078.038a.772.772,0,0,1-.272.055H20.62a.774.774,0,0,1-.271-.055.675.675,0,0,1-.078-.038A.4.4,0,0,1,20.1,35.6a.439.439,0,0,1-.037-.033.748.748,0,0,1-.144-.213c-.008-.017-.013-.034-.02-.052a.772.772,0,0,1-.056-.271V2.335a.781.781,0,0,1,.055-.271c.007-.018.013-.035.02-.052A.76.76,0,0,1,20.06,1.8a.493.493,0,0,1,.037-.033.727.727,0,0,1,.083-.073.848.848,0,0,1,.108-.059c.015-.006.027-.015.041-.021a.791.791,0,0,1,.262-.053c.009,0,.018,0,.028,0H56.426a.224.224,0,0,1,.025.006.756.756,0,0,1,.266.053c.013.005.024.014.037.019a.5.5,0,0,1,.194.132.494.494,0,0,1,.037.033.76.76,0,0,1,.144.213c.008.017.013.034.02.052a.781.781,0,0,1,.055.271Zm0,0" transform="translate(-16.727)" fill="#fff"/>
    <path id="Контур_1536" data-name="Контур 1536" d="M310.855,66.37l12.455,4.843V40.8L310.855,45.64Zm1.557-19.133a.779.779,0,0,1,.5-.726l3.092-1.2,4.691-1.824a.778.778,0,0,1,1.062.725V67.8a.778.778,0,0,1-1.06.726L316,66.7l-3.093-1.2a.778.778,0,0,1-.5-.729Zm0,0" transform="translate(-284.389 -37.323)" fill="#fff"/>
    <path id="Контур_1537" data-name="Контур 1537" d="M348.987,268.756l-1.557-.467v4.076l1.557.6Zm0,0" transform="translate(-317.85 -245.447)" fill="#fff"/>
    <path id="Контур_1538" data-name="Контур 1538" d="M387.113,280.192,384,279.257v4.352l3.114,1.211Zm0,0" transform="translate(-351.306 -255.482)" fill="#fff"/>
    <path id="Контур_1539" data-name="Контур 1539" d="M43.591,460.258H6.228a.778.778,0,1,1,0-1.557H43.11l-.779-1.557H1.26L.481,458.7H3.114a.778.778,0,1,1,0,1.557H0v1.557H43.591Zm0,0" transform="translate(0 -418.224)" fill="#fff"/>
    <path id="Контур_1540" data-name="Контур 1540" d="M348.987,184.172l-1.557.467v5.069l1.557.467Zm0,0" transform="translate(-317.85 -168.492)" fill="#fff"/>
    <path id="Контур_1541" data-name="Контур 1541" d="M91.43,284.821l3.114-1.211v-4.352l-3.114.934Zm0,0" transform="translate(-83.645 -255.483)" fill="#fff"/>
  </g>
</svg>
