<svg xmlns="http://www.w3.org/2000/svg" viewBox="0 0 1301.61 213.33"><defs><style>.cls-1{fill:#faed23;}.cls-2{fill:#1086b6;}.cls-3{fill:#6c6b69;}</style></defs><title>sМонтажная область 6</title><g id="Слой_5" data-name="Слой 5"><rect class="cls-1" x="44.8" y="20" width="148.67" height="148.67"/><path class="cls-2" d="M375.13,0h-97.5a12,12,0,0,0-12,12V97a12,12,0,0,0,12,12h97.5a12,12,0,0,0,12-12V12A12,12,0,0,0,375.13,0Zm-18.5,83.5h-63.5V27h63.5Z"/><path class="cls-2" d="M496.3,1.5a14,14,0,0,0-7.17-2.33l-95,.83V109h30V69.33l68,.34a10.85,10.85,0,0,0,9.34-9.34V7.83A14.16,14.16,0,0,0,496.3,1.5ZM476.88,38.38A6.89,6.89,0,0,1,470,45.25H431.26a6.9,6.9,0,0,1-6.88-6.87V30.13a6.9,6.9,0,0,1,6.88-6.88H470a6.89,6.89,0,0,1,6.87,6.88Z"/><polygon class="cls-2" points="519.63 0 519.63 109 620.13 109 620.13 83.5 547.97 83.5 547.97 64.5 590.3 64.5 590.3 41.5 547.97 41.67 547.8 22.67 620.13 22.5 620.13 0 519.63 0"/><polygon class="cls-2" points="636.88 0 636.88 109 663.13 109 663.13 48.25 725.88 109 751.63 109 751.63 0 723.63 0 723.88 62.25 660.13 0 636.88 0"/><polygon class="cls-2" points="801.13 0 801.13 27.25 841.13 27.25 841.13 109 870.88 109 870.88 27.25 908.88 27.25 908.88 0 801.13 0"/><polygon class="cls-2" points="924.63 -0.42 924.63 108.58 1025.13 108.58 1025.13 83.08 952.97 83.08 952.97 64.08 995.3 64.08 995.3 41.08 952.97 41.25 952.8 22.25 1025.13 22.08 1025.13 -0.42 924.63 -0.42"/><path class="cls-2" d="M1165.47,42.33V11.58c0-6.6-5-12-11.18-12h-90.81c-6.15,0-11.18,5.4-11.18,12v85c0,6.6,5,12,11.18,12h90.81c6.15,0,11.18-5.4,11.18-12V62.33h-28.41V83.08h-59.15V26.58h59.15V42.33Z"/><polygon class="cls-2" points="1181.13 0 1181.13 110.5 1212.13 110.5 1212.13 70 1257.63 110.5 1299.63 110.5 1231.13 51 1299.63 -0.42 1255.13 0 1210.13 36.5 1210.63 -0.42 1181.13 0"/><path class="cls-2" d="M200.13,0h-156a12,12,0,0,0-12,12V178a12,12,0,0,0,12,12h156a12,12,0,0,0,12-12V12A12,12,0,0,0,200.13,0Zm-11.5,161.83H55.47V27H188.63Z"/><polygon class="cls-2" points="0.8 54.5 229.47 55.25 229.47 86 158.8 86 160.13 213.33 130.13 213.33 130.13 83.5 0.8 83.5 0.8 58 0.8 54.5"/><path class="cls-3" d="M332.05,186.65H320.77l-4.59-19.28-4.67,19.28H300.24l-9.58-32.45h12l4,20.35,4-20.35h10.84l4.16,20.29,4.16-20.29h12Z"/><path class="cls-3" d="M386.29,187.78c-10.71,0-16.88-7.18-16.88-17.64,0-10.77,7.18-17,17.64-17s16.76,7.12,16.76,17.45C403.81,181.48,397,187.78,386.29,187.78Zm.51-26.08c-4.6,0-5.55,5-5.55,8.56s1,8.83,5.36,8.83c4.66,0,5.35-5,5.35-8.64C392,167.18,391,161.7,386.8,161.7Z"/><path class="cls-3" d="M446.46,154.2v4.28c2.2-4.22,4.41-5.42,9.26-5.42h2.46v10.59c-.76-.06-1.58-.06-2.33-.06-2.52,0-6.24.37-7.75,2.71-.82,1.19-.88,3.15-.88,4.59v15.76H435.37V154.2Z"/><path class="cls-3" d="M488,186.65V142.17H500v44.48Z"/><path class="cls-3" d="M554.57,186.65v-3.47c-2.27,3.28-5.3,4.41-9.14,4.41-9.7,0-13.92-8.06-13.92-16.76s4-17.58,14-17.58c3.91,0,6.18,1.2,8.82,3.85V142.17h11.53v44.48Zm-5.23-25.39c-4.73,0-5.67,5.85-5.67,9.45s.82,9.07,5.42,9.07c5.16,0,5.48-5.55,5.48-9.39C554.57,166.86,553.94,161.26,549.34,161.26Z"/><path class="cls-3" d="M659.08,187.78c-10.71,0-16.88-7.18-16.88-17.64,0-10.77,7.18-17,17.64-17s16.76,7.12,16.76,17.45C676.6,181.48,669.79,187.78,659.08,187.78Zm.51-26.08c-4.6,0-5.55,5-5.55,8.56s1,8.83,5.36,8.83c4.66,0,5.35-5,5.35-8.64C664.75,167.18,663.81,161.7,659.59,161.7Z"/><path class="cls-3" d="M721.07,162v24.7h-11.9V162h-4.29V154.2h4.29v-1.7c0-7.75,3.71-10.78,11.21-10.78a69.54,69.54,0,0,1,7.25.38v8c-.51,0-2-.06-3-.06-2.9,0-3.53,1.7-3.53,4.16h6.56V162Z"/><path class="cls-3" d="M814.63,154.2v3.21c2.64-2.77,5-4.16,9-4.16,9.64,0,13.73,9.27,13.73,17,0,9.46-5.1,17.33-14.11,17.33a11.73,11.73,0,0,1-8.63-3.53v13.55H803.1V154.2Zm5,7.12c-4.92,0-5.36,5.92-5.36,9.32s.57,9,5.23,9c5.23,0,5.61-6,5.61-9.89C825.15,166.23,824,161.32,819.67,161.32Z"/><path class="cls-3" d="M884.37,187.78c-10.71,0-16.89-7.18-16.89-17.64,0-10.77,7.19-17,17.65-17s16.75,7.12,16.75,17.45C901.88,181.48,895.08,187.78,884.37,187.78Zm.5-26.08c-4.6,0-5.54,5-5.54,8.56s1,8.83,5.35,8.83c4.67,0,5.36-5,5.36-8.64C890,167.18,889.09,161.7,884.87,161.7Z"/><path class="cls-3" d="M933.38,186.65V142.17h11.91v44.48Z"/><path class="cls-3" d="M998.27,188.66c-2,6.43-4.91,9.26-11.78,9.26h-8.06v-9.64h3.46c1.64,0,3.84-.31,3.84-2.45A11.24,11.24,0,0,0,985,183L975,154.2h12.79L992.29,178l4.22-23.81h12.66Z"/><path class="cls-3" d="M1078.28,186.65v-18.4c0-2.58-.38-5.92-3.65-5.92-3.72,0-4.16,3.4-4.16,6.3v18h-11.91V168c0-2.52-.38-5.61-3.59-5.61-3.84,0-4.22,3.53-4.22,6.49v17.77h-11.84V154.2h11.27v4.85c2.15-4,6-5.8,10.4-5.8a9.12,9.12,0,0,1,9.07,6.05,10.8,10.8,0,0,1,10.15-6.05c8.63,0,10.33,6.12,10.33,11.72v21.68Z"/><path class="cls-3" d="M1139.14,153.06c12.73,0,16.95,9.71,16.95,19.09v1.08h-22.31c.19,3.15,1.64,5.92,5.23,5.92,2.21,0,3.53-1.14,4.6-3l12.1.82c-3.28,7.3-8.38,10.77-16.38,10.77-11,0-17.64-6.62-17.64-17.45S1128.49,153.06,1139.14,153.06Zm4.85,13.8c-.38-3-1.51-5.35-4.91-5.35s-4.73,2.33-5.23,5.35Z"/><path class="cls-3" d="M1198.74,154.2v4.28c2.2-4.22,4.41-5.42,9.26-5.42h2.45v10.59c-.75-.06-1.57-.06-2.33-.06-2.52,0-6.23.37-7.75,2.71-.82,1.19-.88,3.15-.88,4.59v15.76h-11.84V154.2Z"/><path class="cls-3" d="M1257.52,163.46c-.38-2.46-2.08-3-4-3-1,0-3.53.25-3.53,2.14,0,1.38,1.2,1.76,3.65,2.39l4.79,1.26c2.21.57,10.84,2.84,10.84,10.59,0,5.79-4.92,11-15,11-11,0-15.37-4.16-16.57-11l11.47-.5c0,3.72,4,4,4.66,4,2.33,0,4-.69,4-2.21,0-1.89-1.89-2.45-4.47-3.15l-5.48-1.44c-2.08-.57-9.27-2.59-9.27-9.77,0-6.05,4.92-10.59,14.62-10.59,9.51,0,14.81,3.78,15.56,10Z"/></g></svg>