<svg xmlns="http://www.w3.org/2000/svg" width="38.84" height="33.984" viewBox="0 0 38.84 33.984">
  <g id="payment" transform="translate(0)">
    <g id="Сгруппировать_99" data-name="Сгруппировать 99" transform="translate(0 7.281)">
      <g id="Сгруппировать_98" data-name="Сгруппировать 98">
        <path id="Контур_391" data-name="Контур 391" d="M16.993,130.42v-2.428H2.428A2.432,2.432,0,0,0,0,130.42v4.855H17.5A21.735,21.735,0,0,1,16.993,130.42Z" transform="translate(0 -127.992)" fill="#fff"/>
      </g>
    </g>
    <g id="Сгруппировать_101" data-name="Сгруппировать 101" transform="translate(0 19.419)">
      <g id="Сгруппировать_100" data-name="Сгруппировать 100">
        <path id="Контур_392" data-name="Контур 392" d="M38.741,287.992a21.834,21.834,0,0,1-7.8,6.8,3.647,3.647,0,0,1-3.619,0,21.943,21.943,0,0,1-7.8-6.8H0V300.13a2.43,2.43,0,0,0,2.428,2.428H36.413a2.428,2.428,0,0,0,2.428-2.428V287.992Zm-27.817,7.283H6.069a1.214,1.214,0,1,1,0-2.428h4.855a1.214,1.214,0,1,1,0,2.428Z" transform="translate(0 -287.992)" fill="#fff"/>
      </g>
    </g>
    <g id="Сгруппировать_103" data-name="Сгруппировать 103" transform="translate(19.42)">
      <g id="Сгруппировать_102" data-name="Сгруппировать 102">
        <path id="Контур_393" data-name="Контур 393" d="M274.685,35.748l-8.5-3.641a1.218,1.218,0,0,0-.959,0l-8.5,3.641A1.211,1.211,0,0,0,256,36.862v4.855c0,6.678,2.469,10.582,9.106,14.4a1.22,1.22,0,0,0,1.209,0c6.637-3.814,9.106-7.717,9.106-14.4V36.862A1.209,1.209,0,0,0,274.685,35.748ZM270.3,41.263l-4.855,6.069a1.227,1.227,0,0,1-.949.454h-.051a1.218,1.218,0,0,1-.959-.539l-2.428-3.641a1.213,1.213,0,1,1,2.02-1.345l1.508,2.26,3.816-4.773a1.214,1.214,0,0,1,1.9,1.515Z" transform="translate(-256 -32.008)" fill="#fff"/>
      </g>
    </g>
  </g>
</svg>
