<svg id="payment_2_" data-name="payment (2)" xmlns="http://www.w3.org/2000/svg" width="42.707" height="39.86" viewBox="0 0 42.707 39.86">
  <g id="Сгруппировать_443" data-name="Сгруппировать 443">
    <g id="Сгруппировать_442" data-name="Сгруппировать 442">
      <path id="Контур_1015" data-name="Контур 1015" d="M39.86,27.388H37.042L12.243,16.25a2.847,2.847,0,0,0-3.764,1.43L4.121,27.388H2.847A2.847,2.847,0,0,0,0,30.235V53.012a2.847,2.847,0,0,0,2.847,2.847H39.86a2.847,2.847,0,0,0,2.847-2.847V30.235A2.847,2.847,0,0,0,39.86,27.388Zm-5.694,1.424h4.895a23.516,23.516,0,0,1-.9,4.982H34.166Zm0,6.406h3.5c-.9,2.231-2.135,3.753-3.5,4.153ZM9.78,18.263a1.424,1.424,0,0,1,1.882-.715l21.906,9.84H26.621L9.2,19.562ZM27.715,35.217a12.242,12.242,0,0,0,2.075,3.738A12.766,12.766,0,0,1,23.9,35.217Zm-4.92-1.424a12.741,12.741,0,0,1-1.964-4.982h5.59a25.343,25.343,0,0,0,.841,4.982Zm6.452,1.424h3.5v4.153C31.381,38.97,30.147,37.449,29.246,35.217Zm-.5-1.424a23.556,23.556,0,0,1-.9-4.982h4.9v4.982Zm-21-11,.866-1.931,14.532,6.527H17.937l-10.2-4.58Zm-.59,1.315,7.3,3.281H5.681Zm34.127,28.9a1.424,1.424,0,0,1-1.424,1.424H2.847a1.424,1.424,0,0,1-1.424-1.424V30.235a1.424,1.424,0,0,1,1.424-1.424H19.393a14.213,14.213,0,0,0,21.891,9.745Zm0-16.207a12.794,12.794,0,0,1-4.146,2.128,12.289,12.289,0,0,0,2.056-3.716h2.091Zm0-3.012H39.646a25.212,25.212,0,0,0,.828-4.84,1.424,1.424,0,0,1,.809,1.281Z" transform="translate(0 -15.999)" fill="#fff"/>
    </g>
  </g>
  <g id="Сгруппировать_445" data-name="Сгруппировать 445" transform="translate(3.559 14.948)">
    <g id="Сгруппировать_444" data-name="Сгруппировать 444" transform="translate(0 0)">
      <path id="Контур_1016" data-name="Контур 1016" d="M49.253,184H40.712a.712.712,0,0,0-.712.712v5.694a.712.712,0,0,0,.712.712h8.541a.712.712,0,0,0,.712-.712v-5.694A.712.712,0,0,0,49.253,184Zm-7.83,1.424h1.424v1.424H41.424Zm4.271,4.271H41.424v-1.424h2.135a.712.712,0,0,0,.712-.712v-2.135h1.424Zm2.847,0H47.118v-4.271h1.424Z" transform="translate(-40 -184.002)" fill="#fff"/>
    </g>
  </g>
  <g id="Сгруппировать_447" data-name="Сгруппировать 447" transform="translate(27.028 29.182)">
    <g id="Сгруппировать_446" data-name="Сгруппировать 446">
      <path id="Контур_1017" data-name="Контур 1017" d="M313.774,344.706a3.554,3.554,0,0,0-2.149-.718v1.424a2.135,2.135,0,1,1,0,4.271,2.073,2.073,0,0,1-1.19-.372c.031-.054.054-.112.083-.167a3.411,3.411,0,0,0,.294-.783c.015-.065.028-.131.04-.2a3.48,3.48,0,0,0,.062-.616,3.434,3.434,0,0,0-.067-.662,3.324,3.324,0,0,0-.105-.375c-.025-.08-.043-.16-.071-.238a3.489,3.489,0,0,0-.214-.441c-.023-.042-.043-.085-.071-.127a3.546,3.546,0,0,0-.312-.427c-.017-.021-.029-.044-.047-.064h0a3.559,3.559,0,1,0-.533,5.164,3.554,3.554,0,1,0,4.284-5.671Zm-4.333,3.288c-.005.021-.014.041-.02.062a2.173,2.173,0,0,1-.468.888s0,.009-.007.013a2.136,2.136,0,1,1,.008-2.808,2.193,2.193,0,0,1,.469.893c0,.019.014.038.018.058a2.06,2.06,0,0,1,.048.448A2.106,2.106,0,0,1,309.441,347.994Z" transform="translate(-303.775 -343.986)" fill="#fff"/>
    </g>
  </g>
  <g id="Сгруппировать_449" data-name="Сгруппировать 449" transform="translate(4.325 26.412)">
    <g id="Сгруппировать_448" data-name="Сгруппировать 448" transform="translate(0 0)">
      <rect id="Прямоугольник_4543" data-name="Прямоугольник 4543" width="1.681" height="1.681" fill="#fff"/>
    </g>
  </g>
  <g id="Сгруппировать_451" data-name="Сгруппировать 451" transform="translate(4.325 32.293)">
    <g id="Сгруппировать_450" data-name="Сгруппировать 450" transform="translate(0 0)">
      <rect id="Прямоугольник_4544" data-name="Прямоугольник 4544" width="1.681" height="0.84" fill="#fff"/>
    </g>
  </g>
  <g id="Сгруппировать_453" data-name="Сгруппировать 453" transform="translate(6.845 26.412)">
    <g id="Сгруппировать_452" data-name="Сгруппировать 452" transform="translate(0 0)">
      <rect id="Прямоугольник_4545" data-name="Прямоугольник 4545" width="1.681" height="1.681" fill="#fff"/>
    </g>
  </g>
  <g id="Сгруппировать_455" data-name="Сгруппировать 455" transform="translate(10.207 26.412)">
    <g id="Сгруппировать_454" data-name="Сгруппировать 454" transform="translate(0 0)">
      <rect id="Прямоугольник_4546" data-name="Прямоугольник 4546" width="0.84" height="1.681" fill="#fff"/>
    </g>
  </g>
  <g id="Сгруппировать_457" data-name="Сгруппировать 457" transform="translate(12.728 26.412)">
    <g id="Сгруппировать_456" data-name="Сгруппировать 456" transform="translate(0 0)">
      <rect id="Прямоугольник_4547" data-name="Прямоугольник 4547" width="1.681" height="1.681" fill="#fff"/>
    </g>
  </g>
  <g id="Сгруппировать_459" data-name="Сгруппировать 459" transform="translate(16.088 26.412)">
    <g id="Сгруппировать_458" data-name="Сгруппировать 458" transform="translate(0 0)">
      <rect id="Прямоугольник_4548" data-name="Прямоугольник 4548" width="0.84" height="1.681" fill="#fff"/>
    </g>
  </g>
  <g id="Сгруппировать_461" data-name="Сгруппировать 461" transform="translate(18.609 26.412)">
    <g id="Сгруппировать_460" data-name="Сгруппировать 460" transform="translate(0 0)">
      <rect id="Прямоугольник_4549" data-name="Прямоугольник 4549" width="1.681" height="1.681" fill="#fff"/>
    </g>
  </g>
  <g id="Сгруппировать_463" data-name="Сгруппировать 463" transform="translate(21.131 26.412)">
    <g id="Сгруппировать_462" data-name="Сгруппировать 462" transform="translate(0 0)">
      <rect id="Прямоугольник_4550" data-name="Прямоугольник 4550" width="1.681" height="1.681" fill="#fff"/>
    </g>
  </g>
  <g id="Сгруппировать_465" data-name="Сгруппировать 465" transform="translate(24.492 26.412)">
    <g id="Сгруппировать_464" data-name="Сгруппировать 464" transform="translate(0 0)">
      <rect id="Прямоугольник_4551" data-name="Прямоугольник 4551" width="0.84" height="1.681" fill="#fff"/>
    </g>
  </g>
  <g id="Сгруппировать_467" data-name="Сгруппировать 467" transform="translate(6.845 32.293)">
    <g id="Сгруппировать_466" data-name="Сгруппировать 466" transform="translate(0 0)">
      <rect id="Прямоугольник_4552" data-name="Прямоугольник 4552" width="6.722" height="0.84" fill="#fff"/>
    </g>
  </g>
  <g id="Сгруппировать_469" data-name="Сгруппировать 469" transform="translate(4.325 34.815)">
    <g id="Сгруппировать_468" data-name="Сгруппировать 468" transform="translate(0 0)">
      <rect id="Прямоугольник_4553" data-name="Прямоугольник 4553" width="9.243" height="1.681" fill="#fff"/>
    </g>
  </g>
  <g id="Сгруппировать_471" data-name="Сгруппировать 471" transform="translate(16.088 32.293)">
    <g id="Сгруппировать_470" data-name="Сгруппировать 470" transform="translate(0 0)">
      <rect id="Прямоугольник_4554" data-name="Прямоугольник 4554" width="1.681" height="0.84" fill="#fff"/>
    </g>
  </g>
  <g id="Сгруппировать_473" data-name="Сгруппировать 473" transform="translate(19.45 32.293)">
    <g id="Сгруппировать_472" data-name="Сгруппировать 472" transform="translate(0 0)">
      <rect id="Прямоугольник_4555" data-name="Прямоугольник 4555" width="5.882" height="0.84" fill="#fff"/>
    </g>
  </g>
  <g id="Сгруппировать_475" data-name="Сгруппировать 475" transform="translate(16.088 34.815)">
    <g id="Сгруппировать_474" data-name="Сгруппировать 474" transform="translate(0 0)">
      <rect id="Прямоугольник_4556" data-name="Прямоугольник 4556" width="9.243" height="1.681" fill="#fff"/>
    </g>
  </g>
  <g id="Сгруппировать_477" data-name="Сгруппировать 477" transform="translate(29.534 32.293)">
    <g id="Сгруппировать_476" data-name="Сгруппировать 476" transform="translate(0 0)">
      <rect id="Прямоугольник_4557" data-name="Прямоугольник 4557" width="1.681" height="0.84" fill="#fff"/>
    </g>
  </g>
</svg>
