<svg xmlns="http://www.w3.org/2000/svg" width="17.465" height="18.163" viewBox="0 0 17.465 18.163">
  <g id="percentage-discount" transform="translate(-6.161)">
    <g id="Layer_5_90_" transform="translate(6.161)">
      <g id="Сгруппировать_189" data-name="Сгруппировать 189" transform="translate(0)">
        <path id="Контур_468" data-name="Контур 468" d="M13.7,7.052a4.209,4.209,0,0,0,1.087-2.871A4.114,4.114,0,0,0,10.463,0,4.232,4.232,0,0,0,7.242,1.311a4.22,4.22,0,0,0-1.081,2.87,4.105,4.105,0,0,0,4.3,4.181A4.259,4.259,0,0,0,13.7,7.052ZM10.463,1.944a2.156,2.156,0,0,1,2.262,2.239,2.273,2.273,0,0,1-.556,1.529,2.181,2.181,0,0,1-1.681.682,2.182,2.182,0,0,1-2.32-2.238A2.134,2.134,0,0,1,10.463,1.944Z" transform="translate(-6.161)" fill="#fff"/>
        <path id="Контур_469" data-name="Контур 469" d="M37.4,27.925a1.234,1.234,0,0,0-.78.356L23.854,42.471a.268.268,0,0,0,.207.459h1.67a1.2,1.2,0,0,0,.779-.348L39.195,28.4c.172-.192.16-.5-.265-.5Z" transform="translate(-22.776 -26.312)" fill="#fff"/>
        <path id="Контур_470" data-name="Контур 470" d="M169.359,175.822a4.011,4.011,0,0,0-4.221,4.1,4.027,4.027,0,0,0,4.221,4.1,4.179,4.179,0,0,0,3.173-1.286,4.129,4.129,0,0,0,1.066-2.816A4.036,4.036,0,0,0,169.359,175.822Zm.025,6.321a2.158,2.158,0,0,1-2.257-2.246,2.288,2.288,0,0,1,.556-1.535,2.3,2.3,0,0,1,3.934,1.562,2.289,2.289,0,0,1-.555,1.535A2.171,2.171,0,0,1,169.384,182.143Z" transform="translate(-156.133 -165.863)" fill="#fff"/>
      </g>
    </g>
  </g>
</svg>
