<svg id="_041---Forging" data-name="041---Forging" xmlns="http://www.w3.org/2000/svg" width="39.831" height="40.506" viewBox="0 0 39.831 40.506">
  <path id="Shape" d="M44.7,53.051a.675.675,0,0,0-.675-.675h-.675v-2.7a.675.675,0,0,0-1.35,0v2.7H17.7v-2.7a.675.675,0,0,0-1.35,0v2.7h-.675a.675.675,0,0,0-.675.675v2.7a.675.675,0,0,0,.675.675H44.03a.675.675,0,0,0,.675-.675Z" transform="translate(-4.873 -15.92)" fill="#fff"/>
  <path id="Shape-2" data-name="Shape" d="M44.7,23.675A.675.675,0,0,0,44.03,23H15.675a.675.675,0,0,0-.675.675v6.751a.675.675,0,0,0,.675.675H44.03a.675.675,0,0,0,.675-.675Zm-25.654,2.7H17.7a.675.675,0,1,1,0-1.35h1.35a.675.675,0,1,1,0,1.35Zm19.578,0H21.751a.675.675,0,0,1,0-1.35H38.629a.675.675,0,1,1,0,1.35Z" transform="translate(-4.873 -7.473)" fill="#fff"/>
  <path id="Shape-3" data-name="Shape" d="M42.253,47.127c-2.031-3.953-2.441-6.173-.779-10.127h-18.7c1.661,3.953,1.252,6.173-.779,10.127Z" transform="translate(-7.148 -12.021)" fill="#fff"/>
  <path id="Shape-4" data-name="Shape" d="M1.028,25.87C1.585,29.726,3.9,30.4,9.107,30.4V25H1.585c-.387,0-.622.425-.558.87Z" transform="translate(-0.33 -8.122)" fill="#fff"/>
  <path id="Shape-5" data-name="Shape" d="M14,.675V8.1a.675.675,0,1,0,1.35,0V.675a.675.675,0,0,0-1.35,0Z" transform="translate(-4.549)" fill="#fff"/>
  <path id="Shape-6" data-name="Shape" d="M6.675,15.35h3.376a.675.675,0,1,0,0-1.35H6.675a.675.675,0,0,0,0,1.35Z" transform="translate(-1.949 -4.549)" fill="#fff"/>
  <path id="Shape-7" data-name="Shape" d="M6.2,7.156l2.7,2.7A.675.675,0,0,0,9.857,8.9l-2.7-2.7a.675.675,0,0,0-.955.955Z" transform="translate(-1.953 -1.953)" fill="#fff"/>
  <path id="Shape-8" data-name="Shape" d="M1.2,1.2a.675.675,0,0,0,0,.955L2.548,3.5A.675.675,0,0,0,3.5,2.548L2.152,1.2a.675.675,0,0,0-.955,0Z" transform="translate(-0.325 -0.325)" fill="#fff"/>
  <path id="Shape-9" data-name="Shape" d="M.675,15.35h1.35a.675.675,0,0,0,0-1.35H.675a.675.675,0,0,0,0,1.35Z" transform="translate(0 -4.549)" fill="#fff"/>
  <path id="Shape-10" data-name="Shape" d="M26.025,0A2.025,2.025,0,0,0,24,2.025V12.152a2.025,2.025,0,0,0,2.025,2.025h5.4a2.025,2.025,0,0,0,2.025-2.025V2.025A2.025,2.025,0,0,0,31.426,0Z" transform="translate(-7.797)" fill="#fff"/>
  <path id="Shape-11" data-name="Shape" d="M19,9.24v.81a1.35,1.35,0,0,0,1.316,1.35l.709.02V7.87l-.709.02A1.35,1.35,0,0,0,19,9.24Z" transform="translate(-6.173 -2.557)" fill="#fff"/>
  <path id="Shape-12" data-name="Shape" d="M52.827,8.35A1.35,1.35,0,0,0,51.443,7L40,7.283v4.159l6.751.169V9.7a.675.675,0,1,1,1.35,0v1.924c0,.007-.007.014-.007.02l1.357.034V9.7a.675.675,0,0,1,1.35,0v1.992c0,.007-.007.014-.007.02l.648.014a1.35,1.35,0,0,0,1.384-1.35Z" transform="translate(-12.996 -2.274)" fill="#fff"/>
</svg>
