<svg xmlns="http://www.w3.org/2000/svg" viewBox="0 0 1768 1184"><defs><style>.cls-1{fill:#365f97;}</style></defs><title>sМонтажная область 5</title><g id="Слой_4" data-name="Слой 4"><path class="cls-1" d="M674.92,736.17c-1.56,2.13-2.77,3.68-3.86,5.31q-40,60-79.93,120c-2.28,3.46-4.68,4.59-8.74,4.59Q326.28,866,70.17,866H64.42c-.3-1.7-.6-2.88-.69-4.07-.11-1.4,0-2.82,0-4.23V397.67c0-9.79-.47-8.66,8.54-8.67Q336.1,389,600,389c9.75,0,7.24-1.09,12.18,6.66q32.31,50.7,64.48,101.5c1,1.56,2.07,3.07,3.54,5.25,1.59-2.16,2.94-3.79,4.06-5.55q22.31-35.08,44.55-70.2c6.88-10.84,13.93-21.58,20.56-32.57,2.3-3.82,4.86-5.22,9.36-5.21q138.87.21,277.73.1h45.35c.23,1.63.48,2.82.55,4,.09,1.4,0,2.81,0,4.22q0,148,0,296.06c0,2.08.1,4.16.15,6.25l1.27.1c1-4.82,2-9.62,3-14.45q10.57-54.09,21.13-108.2,13-66.3,25.9-132.6,4.9-25.09,9.84-50.18c1-5.19,1.1-5.21,6.32-5.21h106.67q17.86,0,35.72,0c4.86,0,4.9,0,6.53,4.77q28.5,83,57,166,11.88,34.62,23.72,69.26c.65,1.89,1.44,3.73,2.16,5.58,2.49-.38,2.28-2.37,2.67-3.66,4.86-16,9.6-32.07,14.4-48.11q28.23-94.41,56.49-188.82c1.5-5,1.53-5,6.74-5q71.19,0,142.39,0c1.52,0,3,.17,5,.3q42.91,236.67,85.73,472.86a21.51,21.51,0,0,1,0,3.53h-139C1545.9,808,1536,750.14,1525.7,692.36l-1.1-.28c-.92,1.49-1.93,2.93-2.73,4.47q-19.5,37.77-38.95,75.55-23,44.65-46,89.36c-1.71,3.33-3.6,4.69-7.5,4.67q-51.45-.25-102.91,0c-3.78,0-5.85-1.13-7.65-4.51Q1275.35,780,1231.56,698.5c-1.13-2.1-2.45-4.09-3.89-6.5-2.07,4.35-10.9,60.09-14.66,87-4,28.8-8.79,57.49-13.29,86.55-1.37.18-2.56.45-3.74.48-3.14.06-6.27,0-9.4,0H770.69a10.61,10.61,0,0,0-1.87,0c-3.94.67-6.19-1.23-8.35-4.41q-40.94-60.49-82.12-120.83C677.41,739.43,676.37,738.12,674.92,736.17Zm-314-57.93H244.34c-1.41,0-2.82,0-4.23,0-4,.15-4.31.47-4.47,4.29,0,.47,0,.94,0,1.41V744.1c0,.94,0,1.88,0,2.82,0,2.17,1.2,3.08,3.26,3.07,1.26,0,2.51,0,3.76,0h58.74q86.46,0,172.92.09a10.24,10.24,0,0,0,9.34-4.73c7.33-10.15,15-20.06,22.54-30.07q35.47-47.1,70.92-94.21c2.69-3.56,2.66-3.62.16-7.3q-41.74-61.37-83.44-122.76c-1.88-2.77-3.83-3.92-7.22-3.92q-122.88.14-245.75.08c-1.52,0-3,.18-4.42.26-1.25,4.84-1.13,82.78.19,87h74.91c8.3,0,16.61-.07,24.91,0s16.5-.39,24.59.3C362.19,579.51,362.14,673.48,360.93,678.24Zm543.3-217.32C899.78,464.29,774,614.45,772.34,618.11c1,1.25,2,2.62,3.1,3.93q43.48,52.46,87,104.89,18.9,22.79,37.82,45.54c1,1.21,1.71,3,4,2.94Z"/><path class="cls-1" d="M1711.94,55V306.16c-1.16.2-2.18.48-3.22.55-1.4.09-2.82,0-4.23,0q-816.29,0-1632.59,0c-8.42,0-8.22,1.61-8.22-8.42q0-118,0-235.91c0-8.32-.24-7.68,7.66-7.68H1704.87C1707.15,54.71,1709.43,54.92,1711.94,55Zm-410,140.57h5.46c8.92,0,17.85.12,26.77,0a87,87,0,0,1,23.18,3,13.18,13.18,0,0,1,5.49,3.25,15.09,15.09,0,0,1,4.62,11.37,218.35,218.35,0,0,0,1,22.45c.62,5.72,2.31,11.32,3.54,17,.94,4.34,1.17,4.64,5.53,4.67q16.44.09,32.88,0a36.85,36.85,0,0,0,4.74-.69c-.8-1.65-1.17-2.67-1.74-3.57-3.51-5.44-4.5-11.65-5-17.87-.89-10.91-1.09-21.88-2.1-32.77-.67-7.16-3.93-13.16-10.71-16.61-2.32-1.18-4.72-2.23-7.49-3.54,4-2.55,7.67-4.86,11.31-7.2a24.37,24.37,0,0,0,10.2-13.08c6.55-19.68.45-45.42-25.8-55a67.72,67.72,0,0,0-23.43-4.1h-90.67c-1.51,0-3,.2-4.68.31V256.71a47.4,47.4,0,0,0,4.87.53c8.92,0,17.85,0,26.77,0,.79,0,1.57-.06,2.35-.12a2.75,2.75,0,0,0,2.86-3c0-1.4.05-2.81.06-4.22V195.6Zm-306.84,61-79.35-90.24,25.14-21c8.3-6.92,16.63-13.79,24.88-20.77S982.41,111.2,990,103.44a15,15,0,0,0-4.69-.66c-13,0-26,.09-39-.08a11.52,11.52,0,0,0-8.38,3.23q-32.18,28.48-64.55,56.77c-1.31,1.15-2.72,2.21-4.71,3.82V144.81c0-7.05,0-14.1,0-21.14,0-6.82.25-13.66-.21-20.32-6.35-1-35.15-.75-38.43.24-.9,5.73-.64,149.48.28,152.85,4.6,1.27,33.79,1.14,38.37-.4v-5.27c0-14.09,0-28.18,0-42.28,0-1.63,0-3.91,1-4.78,5.13-4.53,10.57-8.69,16.15-13.18,2,2.07,3.57,3.74,5.14,5.45q26.55,28.88,53,57.8a9.56,9.56,0,0,0,7.71,3.54c12.37-.14,24.74,0,37.11-.09C990.57,257.23,992.2,256.9,995.08,256.59ZM505.2,103.06a29,29,0,0,0-.63,3.37c-.1,1.56-.05,3.13-.05,4.7q0,43.69,0,87.39c0,3.89-.27,7.81-.65,11.69-.93,9.31-6.25,15.41-14.48,19.31-11.19,5.31-22.79,6.12-34.76,3.32-12.82-3-19.72-11.42-21.88-24a74.64,74.64,0,0,1-1-12.14q-.11-43.68,0-87.38v-6.5c-12.64,0-24.59,0-36.9,0-.13,2.67-.32,4.66-.32,6.65,0,30.06-.13,60.13.07,90.2a104.27,104.27,0,0,0,1.93,20.51C400,236.72,408.67,249.55,425,256a82.64,82.64,0,0,0,12.16,3.4c14.95,3.38,30.14,3.49,45.31,2.63,8.72-.49,17.41-1.92,25.6-5.35,21.08-8.83,35.67-26,35.56-51.36-.13-32.57,0-65.14,0-97.72,0-1.49-.21-3-.33-4.57Z"/><path class="cls-1" d="M67.32,1154.68c-.1-2.35-.22-3.88-.22-5.41q0-93,0-186c0-1.1,0-2.2.06-3.29a2.3,2.3,0,0,1,2.38-2.38c.93-.07,1.88-.09,2.81-.09,37.11.08,74.22.26,111.33.2,10.87,0,21.43,1.85,32.11,3.43,9.72,1.44,18.15,5.25,24.91,12,12.6,12.59,18.75,27.81,12.63,45.27a54.28,54.28,0,0,1-24.43,29.32c-1.21.71-2.45,1.38-3.63,2.13-.18.11-.15.55-.32,1.3,2,.55,4,1.06,6,1.67,16.53,5,27.85,16,34.51,31.56,5.11,11.92,3.18,24-2.44,35.41a65.9,65.9,0,0,1-18.51,22.78,38.43,38.43,0,0,1-21.44,8.51c-8.56.65-17.06,2.09-25.62,2.69-8.73.62-17.5.86-26.26.88-32.72.1-65.45,0-98.17,0Zm48.51-31.39c1.86,0,3.87,0,5.88,0l54.47-1c4.07-.08,8.14-.36,12.21-.25,7.14.19,13.45-2.2,19.55-5.59a20.48,20.48,0,0,0,7.63-7.44c4.56-7.38,5.47-22.64-4.29-31.61a27.06,27.06,0,0,0-15.07-7.07,212.38,212.38,0,0,0-23.33-2c-17.54-.3-35.08-.13-52.62-.13-1.53,0-3.07.16-4.45.23C114.27,1073,114.27,1118.71,115.83,1123.29Zm0-88.32h5.37c15,0,30.07.1,45.11,0a107.19,107.19,0,0,0,17.29-1.14,78.88,78.88,0,0,0,15.62-4.7,16.21,16.21,0,0,0,9.45-10.51c3.4-10.56-.49-19-10.45-25.59-4.37-2.9-9.78-4-15.25-4-21,0-42,0-63,0-1.52,0-3,.14-4.41.21C114.24,994.38,114.38,1030.62,115.84,1035Z"/><path class="cls-1" d="M1707.24,952.42l-97.89,85.48c6.27,8,13,15.14,19.38,22.57s13,14.88,19.44,22.31l19.78,22.66q9.73,11.14,19.48,22.29c6.47,7.41,12.92,14.84,19.83,22.77a23.73,23.73,0,0,1-3.59.63c-19.73,0-39.47,0-59.21.08-3,0-4.92-1.27-6.78-3.37q-21.17-23.94-42.42-47.79-11.71-13.17-23.39-26.35c-1-1.17-1.86-2.51-3-4.06-6.56,4.63-12.34,8.6-18,12.79-.8.59-1.14,2.18-1.21,3.34-.18,2.81-.07,5.64-.07,8.46v56.18a23.12,23.12,0,0,1-3.88.7q-25.85.06-51.69,0a19.36,19.36,0,0,1-2.36-.33c-.18-2.07-.53-4.18-.54-6.3-.06-9.24,0-18.48,0-27.72q0-78.94,0-157.89c0-2,.17-4,.25-5.86,3.74-1.08,51.93-1.34,57.93-.32.1,1.69.29,3.5.29,5.31q0,28,0,55.92c0,1.8.18,3.6.34,6.51,2.15-1.61,3.51-2.51,4.74-3.57q26.88-23.14,53.72-46.35c6.28-5.42,12.59-10.81,18.82-16.3a7.81,7.81,0,0,1,5.48-2.14c23.81.06,47.62,0,71.43,0C1704.89,952.13,1705.61,952.26,1707.24,952.42Z"/><path class="cls-1" d="M1048,1024.81c-.35,21.21-.11,42.43-.15,63.64s0,42.49,0,64.08h-44.61c-.15-.16-.26-.27-.36-.39s-.27-.23-.28-.36c-.12-1.55-.31-3.11-.31-4.66q0-95.61.09-191.22a6.1,6.1,0,0,1,.62-1.64c1.43-.08,3-.25,4.47-.25,12.22,0,24.43.07,36.65-.08a7.65,7.65,0,0,1,7,3.52q45.82,61.92,91.86,123.7c1.27,1.71,2.68,3.33,4.53,5.62a26.56,26.56,0,0,0,1-3.72c.14-1.55.06-3.13.06-4.69V955.07c3.8-1.26,36.54-1.61,43-.64.11.11.23.22.33.34a1.05,1.05,0,0,1,.24.38,10.72,10.72,0,0,1,.27,1.85q0,96.54,0,193.1a20.79,20.79,0,0,1-.35,2.37c-1.61.14-3.26.4-4.9.4-12.69,0-25.37-.1-38.06.1-3.55.06-5.65-1.17-7.73-4q-44.13-60.24-88.49-120.33c-1.08-1.48-2.27-2.87-3.41-4.3Z"/><path class="cls-1" d="M510.1,1154.36c.88-2,1.48-3.39,2.13-4.78q43.5-92.1,87-184.2c4.4-9.29,2-7.8,12.4-7.87,12.22-.09,24.44,0,36.65-.07,3.14,0,5.08.79,6.59,3.89q46.38,94.89,93,189.67c.41.84.74,1.71,1.3,3a15.59,15.59,0,0,1-3.05.64c-14.57,0-29.13-.05-43.7.1-3.06,0-4.46-1.3-5.57-3.86-5.21-12.07-10.7-24-15.73-36.16-1.64-4-3.8-5.29-8.07-5.26q-43.46.29-86.92,0c-4.08,0-6.11,1.36-7.67,5.09-5.14,12.27-10.69,24.36-16,36.57-1.06,2.45-2.38,3.62-5.23,3.6-14.88-.13-29.76-.06-44.64-.07C512.06,1154.67,511.46,1154.53,510.1,1154.36Zm120.48-151.72-1.28,0c-.64,1.18-1.37,2.32-1.9,3.55q-14.45,33.58-28.83,67.19c-.57,1.33-.87,2.79-1.4,4.52h65.68C652,1052.38,641.33,1027.49,630.58,1002.64Z"/><path class="cls-1" d="M1303.73,165.77c-.07-13.23-.08-25.65,0-38.45,2.17-.14,3.68-.32,5.2-.32,13.28,0,26.57,0,39.86.09a60.12,60.12,0,0,1,10.7,1.1c9.79,1.91,15,10.07,13.15,20.35-.64,3.59-1.87,7-4.59,9.55a13.13,13.13,0,0,1-4.63,2.94c-10,3.28-20.17,5.26-30.8,4.8-7.8-.33-15.63-.06-23.45-.06Z"/></g></svg>