<svg xmlns="http://www.w3.org/2000/svg" viewBox="0 0 2608 1312.57"><defs><style>.cls-1{fill:#eccc1f;}.cls-2{fill:#027f47;}.cls-3{fill:#007f46;}</style></defs><title>sМонтажная область 6</title><g id="Слой_5" data-name="Слой 5"><path class="cls-1" d="M1647.58,436.56c7.66,110.15-79.34,202-93.58,217-79.31,83.71-184.52,97.66-229.57,103.64-63.26,8.39-119.22.83-147-3-54.4-7.51-81.6-11.27-106.49-25.5-88.88-50.82-92.54-196.48-95-292.15-2.5-99.36-4.46-177.26,51-248,5.92-7.55,59.1-72.26,145.72-93.13,26.57-6.41,60.47-7.23,128.28-8.87,46.27-1.12,79.77.16,97,1,64.27,3.14,96.44,4.62,116,13,22.88,9.8,51.59,34.2,109,83,22.24,18.9,35.34,31.08,56,32,29.84,1.33,48.25-22,61-13,10.07,7.12,9.59,29.46,4,44-6.39,16.62-18.16,19.65-21,37-2.07,12.66,3.51,15.19,1,23-6.54,20.36-47.47,12.56-68.65,31.32C1632,358.54,1645.07,400.4,1647.58,436.56Z"/><path class="cls-2" d="M1303.48,811.93c-99.32,0-198.65.39-298-.18-44-.26-79.79-25.83-95.76-67.46-4.14-10.8-5.93-23.15-6-34.8q-.51-297.14-.18-594.27c0-49.41,34.3-91.2,83.18-101.4a137.58,137.58,0,0,1,27.88-3q291.75-.29,583.49-.18c44.15,0,84,26.14,99.45,66.67,4.52,11.85,6.68,25.12,7.25,37.86,1.13,25.4.48,50.89.38,76.34,0,6.14,1.06,9,8.14,6.14a72.43,72.43,0,0,1,18.25-4.54c17.75-2.13,24.76,9.32,26.88,24.24,3.54,24.86-6.82,44.52-24.81,60.63-4.31,3.86-6,6.67-3.17,12.51,6,12.55,1.65,28.44-11,35.08-12.14,6.35-14.65,14.86-14.6,27.74q.75,178,.11,356.07c-.3,57.78-45.65,102.13-102.74,102.42-99.59.52-199.19.15-298.79.15Zm-39.34-711.16c2,2.74,3.28,5.26,5.25,6.9,32.5,27,44.88,63.75,48.81,103.85,2.33,23.84-4.16,47-11.88,69.42a174.47,174.47,0,0,1-35.11,60.16A203.5,203.5,0,0,1,1228.15,378c-33.71,21.32-69.28,30.83-108.68,20.3-37.52-10-57.87-37.29-65.2-72.82a142.84,142.84,0,0,1,8.44-83.81c21-50.63,55.47-88.71,106.64-110.37,5-2.12,10.47-3.22,15.61-5.07,4.18-1.51,6.07-3.68,1.92-7.71a84.76,84.76,0,0,1-10.94-12.35c-4-5.79-8.26-5.93-14.19-3.25-56.45,25.5-102.38,62.87-134.37,116.68-17.07,28.72-30.17,59.15-34.81,92-4.77,33.76-4.25,68,11.19,99.82,15,30.88,38.11,53.13,72,61.82,27.36,7,54.63,4.61,81.38-4.32,47.46-15.84,85.46-45.16,116.43-83.63,20.28-25.19,34.88-53.79,46.22-84.25,10.58-28.44,17.36-57.36,17.54-87.7.12-18.88-2.52-37.51-10.91-54.49-6.16-12.46-14.45-23.87-21.77-35.76-1.05-1.71-2-3.47-3.79-6.51,12,0,22.51.26,33-.1,6.06-.21,9.52,2,12.27,7.48,17.2,34.34,27.67,69.88,22.79,108.94-2.77,22.22-7.3,43.8-15.3,64.78-17.42,45.71-43.94,86-77.17,121.1-45.25,47.79-85.55,98.85-118.35,155.94-26.81,46.65-49.12,95.16-64.11,146.93-2.63,9.1-2.77,9,6.34,9.06q109.55.08,219.11.12c1.45,0,2.9-.84,5.53-1.64-4.48-4-8.26-7-11.69-10.45-23.22-23.08-35-51.69-39.14-83.59-2.86-21.83-.79-43.66,4.25-64.93,6.73-28.47,19.28-54.48,38.28-76.88,22.55-26.6,49.09-47.34,83-58.77,22.5-7.59,45.13-10.37,67.37-4.57,41.23,10.77,63.4,40,70.74,81.22,4.73,26.55.19,51.94-9,77-17.09,46.62-46.75,82.44-90.26,106.4-11.39,6.28-23.65,11-37.16,17.18,6.86,6.29,12.87,12.2,19.38,17.49a8.29,8.29,0,0,0,7.33.9c13.33-6.49,27-12.58,39.49-20.44,42.88-26.9,75.62-63.59,100.65-107.33,16.32-28.52,26.93-59.42,30.69-91.76,3-25.56,2.53-51.53-5.45-77-16.64-53.13-54.17-75-97.42-80.61-22.21-2.88-44.06,2-65,9.27-43.58,15.1-79.1,42-107.83,77.66a309.06,309.06,0,0,0-57.66,112c-8,28.8-14,57.5-8.45,87.86,3.62,19.66,10,37.67,21.26,54,3.16,4.57,6.62,8.93,11.15,15-17,0-31.82.33-46.61-.32-2.59-.11-6.19-3.88-7.3-6.74-5.14-13.3-11-26.56-14-40.4-9.23-42.82-3.42-84.52,13.09-124.72,18.72-45.58,47.48-84.56,79.7-121.49,38-43.61,84.13-73.09,141.22-83.64,27.79-5.14,55.65-4.48,81.51,9.54,9.17,5,18.44,9.84,27.13,15.57,16.86,11.12,35.23,14,54.53,10.2,9.48-1.85,20.13-3.9,23.62-15.18,1.58-5.12.76-10.94,2-16.22.56-2.42,3.19-5.86,5.27-6.17,11.7-1.7,23.67-1.79,35.24-4a70.39,70.39,0,0,0,23.52-8.94c10.52-6.57,12.33-16.92,6.15-28-2.69-4.84-1.6-7.31,2.26-11.05,12.7-12.32,23.39-25.87,28.19-43.75,2.4-8.94-.14-15.79-4.52-22.11-4.61-6.65-12.18-3.46-18.5-2.44-3.73.61-7.32,2.48-10.78,4.17-7.39,3.61-14.64,7.5-22,11.21-4.59,2.33-8.12,2.93-11.77-2.6-8.09-12.27-18-14.81-31.44-8.55-10.71,5-21,10.77-31.55,16.15-3.24,1.66-6.56,3.16-10.3,5,.91-13.29-2.93-21.67-12-23.16-7.71-1.26-16.27-1.56-23.71.45a137.64,137.64,0,0,0-53.06,27.6c-13.62,11.41-25.19,24.25-32.26,41.72a51.79,51.79,0,0,0,6.4.95c9.66.13,19.37-.47,29,.31,17.5,1.43,34.91,4.77,52.4,5.21a246.73,246.73,0,0,0,49.33-3.39c15.49-2.77,30.67-8.1,45.44-13.73,8.87-3.38,16.59-9.68,25.07-14.23,2-1.09,5-.4,7.55-.54-.55,2.44-.79,5-1.75,7.27-.6,1.39-2.27,2.35-3.52,3.44-25.48,22.13-55.84,33.41-88.83,35.24-24.38,1.36-49-1.72-73.54-2.85a17.12,17.12,0,0,1-2.44-.44c-25.16-4.84-50.11-1.08-74.76,3.18-18.25,3.15-36,9-54.85,13.85,44.61-65.74,78.94-136.18,101.58-214.32Zm414.55,97.82c.23-3.18.61-6.05.62-8.93.06-23.24,0-46.48.08-69.72A78.34,78.34,0,0,0,1665.45,75c-17.56-26-42.34-38.35-73.58-38.34q-281.38.07-562.77.16c-11,0-22.23.16-33,2.16-37.63,7-67.16,41.82-67.22,80.09q-.42,265.2-.19,530.4c0,19.36-.22,38.74.31,58.09a71.3,71.3,0,0,0,3.69,21c12.73,36.78,44.32,58.75,83.12,58.74q267.69-.09,535.38-.07c13.84,0,27.68-.21,41.5.11,47.39,1.12,87.09-37,86.85-86.46-.57-116.75-.18-233.52-.2-350.28,0-9.8-1.32-10.8-11.16-9.75-5.07.55-8.36,2.2-7.8,8.21.39,4.11,0,8.29,0,12.44,0,112.06.14,224.12-.31,336.17,0,10.79-1.84,22.46-6.25,32.17-12.28,27.06-34.46,38.8-64.26,38.74q-250.26-.46-500.51-.22c-27.39,0-54.82.65-82.15-.6-32.49-1.49-59-30.94-59.13-63.4q-.93-290.92-.14-581.86a71.57,71.57,0,0,1,4.6-24c9.67-26.35,32.37-43.13,64.61-43.07q257.72.43,515.45.13c19.1,0,38.19-.22,57.28.08,11.53.19,22.93,1,33.64,6.64,25.79,13.51,36.66,35.48,37,63.56.26,20.19-.1,40.4.31,60.59.07,3.16,2,7.61,4.48,9.09C1668.51,197.69,1673.34,197.56,1678.69,198.59Z"/><path class="cls-3" d="M658.58,1066.62q0-49.38,0-98.76c0-19-4.13-24.6-23-27.93-7.7-1.36-7.47-5.59-7.37-11.11.11-6.84,5-6.37,9.36-6.21,23.7.86,47.39,2.21,71.1,2.66,9.9.19,19.82-1.44,29.74-2.19,3.72-.28,7.72-.52,7.3,5-.34,4.47,2.29,9.9-5.69,11.44-21.11,4.06-25.76,10.19-25.77,31.39q0,98.34,0,196.69c0,7.73-.4,16.25,8.38,19.91a21.22,21.22,0,0,0,13,.92c10.08-2.86,18.17,1.63,17.15,12.16a332.46,332.46,0,0,1-7.81,47.17c-3.53,14.32-9,28.22-14.35,42-1.62,4.19-5,9.45-8.76,10.73-11.93,4.06-14.79.15-14.58-12.25.3-17.27,1.67-35.39-2.79-51.68-6.49-23.7-20.55-27.38-37.89-26.31-30.33,1.87-60.78,1.8-91.19,2.06-36.23.31-72.48.42-108.71,0-22.38-.24-44.75-2.06-67.13-2.18-14.05-.08-28.13,1.55-42.18,2.65-4.17.32-7.47-.22-7.5-5.12,0-4.25-2.64-9.92,4.7-11.22l.81-.18c20.49-3.89,25.4-8.17,25.4-34.83q0-96.27-.1-192.54c0-20.24-4.74-26-24.62-29.34-6.86-1.16-6.42-5.56-6.36-10.37.07-5.72,3.43-6.5,8.31-6.31,24.28,1,48.56,2,72.84,2.28,9,.11,18.05-1.84,27.1-2.59,4.46-.37,8.38.27,8.05,6.49-.26,5,1,9.64-6.75,10.6-18,2.24-24,9.38-24,27.3q-.11,98.34,0,196.69c0,16.69,7,23.87,23.39,24.14,13,.21,26,.32,39,0,14.65-.4,21.66-7.74,21.67-22.35q.09-98.76,0-197.52c0-18.19-5.49-24.86-23.45-28.19-6.24-1.16-7.39-4.56-7.26-9.86.15-6.45,4.45-6.79,9.16-6.65,23.48.72,46.94,1.81,70.42,2.07,10.17.11,20.36-1.4,30.54-2.3,4-.36,7.47,0,7.52,5.09,0,4.83,1.24,10.16-6.11,11.52-9.39,1.73-19.76,2.45-23.48,13.78a34.33,34.33,0,0,0-1.69,10.5q-.15,101.67-.07,203.33c0,12.94,7.36,20.42,20.51,20.61,15.48.23,31,.12,46.46-.22,12.8-.28,16.63-4.23,16.69-17.28C658.68,1135.78,658.58,1101.2,658.58,1066.62Z"/><path class="cls-3" d="M2274.6,1198.06V1213c-64.6-1-105.81-1.3-111.17-.37-.74.12-4.47.86-6.1-1a4.06,4.06,0,0,1-.63-3.33c.54-4-3.53-9.74,5.17-11.39,21.48-4.08,26-10.22,26-32.07,0-27.38-.17-54.77.17-82.15.09-7.94-2.46-10.31-10.56-10.19-31.23.48-62.47.38-93.7,0-7.37-.1-9.6,2.16-9.52,9.41.32,27.94.57,55.89-.05,83.82-.18,8.16.72,15.29,5.74,22.14,5.51,7.5,13.67,10.57,18.58,11.91l7.8,3.31c.75,2.35,1.38,5.69-.33,7.8-2,2.55-6.44,2.08-8,2-11.63-1-78.4-2.37-98.14.39-2.14.3-8.56,1.3-11.59-2.16-1.4-1.6-1.73-4.14-1.24-8,.28-2.19,2.85-5.42,4.85-5.83,24-5,27.2-11.11,27.13-36.39q-.26-95.43-.27-190.87c0-21.81-3.78-26.59-25.18-30.32-7.12-1.24-7.08-5.7-6.77-10.91.43-7.23,5.81-6.15,10.4-6,24.83.83,49.66,2.06,74.49,2.5,9.07.16,18.15-1.9,27.24-2,2.56,0,6.68,2.72,7.41,5,1.43,4.49.88,9.19-5.41,11-25.77,7.38-26.54,8.46-26.62,35.18-.06,21,.23,42-.05,63.07-.09,6.7,2,9.25,9,9.3,21.81.18,43.62,1.29,65.43,1.49,10.19.09,20.4-1.54,30.6-1.48,6.65,0,8.71-2.41,8.65-8.71-.2-23.79.09-47.58-.14-71.36-.17-17.54-6.05-24.79-23.66-26.74-9.56-1.06-7.61-6.9-7.54-12.32.1-6.77,5.22-4.82,9.16-4.7,25.67.79,51.33,1.93,77,2.2,10.31.1,20.65-1.72,30.72-2.64,4,13.34,2.85,15.42-8.63,17.27-13.18,2.13-19.34,8.35-20.46,21.86-.74,8.8-.68,17.68-.68,26.52q-.06,87.55.06,175.11a98.81,98.81,0,0,0,.85,12.39c1.4,11.31,5.48,15.92,16.43,18.88C2265.27,1195.74,2269.57,1196.78,2274.6,1198.06Z"/><path class="cls-3" d="M318.7,1063.28c-1.13,51.48-20.42,96.32-62.11,130.33-24.78,20.21-54.31,25.23-85.44,24.09-51.1-1.87-89.72-25.21-116-68.47-13.77-22.64-18.39-48.2-18.45-74.57-.09-40.44,10.67-77.09,37.36-108.37,34-39.8,76.86-54.52,128-45.82,38.35,6.52,69,25.84,92.38,56.82,13.44,17.82,19.82,38.42,22.89,60.14C318.48,1045.34,318.23,1053.43,318.7,1063.28Zm-217.23-8.71c1.14,12.37,2.6,24.71,3.34,37.1,1.78,29.7,10.72,56.66,30.39,79.34,22.54,26,56.43,33.21,83.62,8.11,15.61-14.4,25.94-32.75,28.86-53.5a510.26,510.26,0,0,0,4.95-73.38c-.15-28.37-6.62-55.78-23-79.75-11.66-17.07-27.23-28.84-48.6-30.58-27.1-2.21-60.61,21.75-69.51,48.36C104.56,1011.21,101.8,1032.58,101.47,1054.57Z"/><path class="cls-3" d="M1345.73,1301.32c1.49-14.44,3.24-27.23,4-40.08a116.29,116.29,0,0,0-1.18-23.12c-1.65-11.53-13.78-22-27.37-24.12a135.06,135.06,0,0,0-19.79-1.58c-33.74-.13-67.5-.34-101.23.19-10.31.16-20.61,2.42-30.87,4-9,1.4-14,8-16.31,15.82-3.6,12.36-6.07,25.06-8.49,37.72-1.59,8.36-2,16.94-3.52,25.32a7.88,7.88,0,0,1-4.93,5.07c-15.27,3.5-18.93.81-20.25-15-2.19-26.14-4.06-52.31-6.15-78.46a48.19,48.19,0,0,0-1.61-8.9c-1.9-6.86,1-12,7.76-10.51,18,4,26.81-5.91,33.14-20,8.57-19,16.94-38.14,24.81-57.44,9.22-22.6,17.87-45.44,26.68-68.2q21.22-54.87,42.34-109.77c2.68-6.94,5.21-13.95,8.09-20.81,2.6-6.16,6.46-11.3,14.1-10.53,7.92.79,10.37,6.94,12.36,13.55q5.82,19.35,12.13,38.54c6.56,20.07,13.37,40.07,19.92,60.14q10.35,31.72,20.39,63.54c8,25.41,15.79,50.89,23.8,76.29,2.89,9.17,5.8,18.35,9.35,27.27,4,10.17,7.42,11.47,17.76,8.35,8.4-2.53,15.83,2.6,15,11.47a190.53,190.53,0,0,1-5.47,30.83c-5.47,20.42-12.18,40.52-17.52,61-2,7.72-6.44,9.48-13.13,9.41C1355.15,1301.28,1350.79,1301.32,1345.73,1301.32ZM1245,995.6h-2.43c-2.2,5.72-4.71,11.35-6.54,17.2-9.38,30.09-18.47,60.28-27.91,90.37-7,22.27-14.47,44.39-21.47,66.66-2.94,9.37,1.62,17.24,10.71,17.36,33.71.45,67.43.3,101.15.39,5.07,0,6.21-2.62,4.83-7q-12.11-38.52-24.21-77c-8.36-26.71-16.63-53.46-25-80.17C1251.23,1014.06,1248.07,1004.84,1245,995.6Z"/><path class="cls-3" d="M2398.61,1049.64c9.52-8.15,18.42-14.93,26.35-22.71,21-20.57,41.51-41.57,62.18-62.44a23.59,23.59,0,0,0,4-5.19c7.4-13.58,2.72-21.78-12.67-22.24-5.51-.16-11,0-16.5,0-3.83-12.18-1.43-15,10.67-14.46,25.08,1.16,50.18,2.14,75.28,2.61,8.49.16,17-1.49,25.51-2.23,4.74-.41,8.06.86,8.37,6.52.29,5.39-.93,9.14-7,10-17.13,2.58-31.67,10.22-44.37,22q-38.31,35.65-77.22,70.67c-5.09,4.61-5.66,8.88-1.69,14.36,25.76,35.6,51.08,71.53,77.38,106.72,8.12,10.87,18.4,20.27,28.5,29.45,9.69,8.8,20.89,14.75,34.48,8.86,3.94,11.29,3.19,12.9-6.8,16.25-9.1,3-18.07,6.6-27.33,9.06-24.74,6.57-44.92-3.84-61.3-20.41a399.74,399.74,0,0,1-44.91-53.76c-16.32-23.66-30.05-49.09-44.72-73.87-2.55-4.3-4.2-9.15-6.26-13.74l-2.57.31a53.2,53.2,0,0,0-1,7.27q-.08,51,0,102.06c0,4.68.12,9.57,1.48,14s3.36,10,6.77,11.68c9.19,4.6,8.36,11.74,7.54,20.44h-8.92c-54.58-1.08-75.74,0-81.14,1.78-.92.31-5.61,1.91-8.34-.09-1-.7-1.63-2-1.83-4.3-.49-5.57-.81-10.09,7.28-11.94,18.05-4.13,22.41-7.84,22.68-29.74.82-65.82.66-131.66.13-197.48-.17-21.41-4.62-27.26-24.06-29.67-6.84-.85-6.39-5.55-6.38-10.39,0-6.2,4-6,8.5-5.85,22.35.87,44.7,1.9,67.06,2.17,10.17.12,20.36-1.62,30.56-2,4-.15,9.26-1.47,10,5.46.67,6.19-1.52,8.48-7.89,9.5-16.34,2.63-22.83,9.73-23.2,26.12-.59,26-.27,52-.23,78C2397,1044.43,2397.87,1046.41,2398.61,1049.64Z"/><path class="cls-3" d="M1512.23,948.91c0,7.88,0,15.83,0,23.78,0,21,.26,42,.07,63-.06,6.14,1.86,8.16,8.2,7.68,15.69-1.17,31.44-2.32,47.15-2.17,15.16.14,30.22,2.29,43.81,10,19.74,11.15,29.52,29.49,33.9,50.52,4.35,20.83,2.53,41.47-7.27,61-13.56,27.1-35.06,43.76-65,47.35-17.43,2.1-35.27,1-52.92,1.05-29.3.09-58.61,0-87.91-.14-8.14,0-10.43-2.36-8.25-9.73.72-2.45,4.63-4.76,7.53-5.6,8.09-2.36,17.57-2.27,21.38-11.73a39.7,39.7,0,0,0,2.78-14.33q.22-102.45,0-204.91c0-16.88-5.15-22.28-22.11-25-5.49-.87-10.44-1.61-10-9.19.28-4.8,2.09-7.44,6.88-7.29,5.47.18,10.92,1.11,16.39,1.12,41.46.13,82.92.57,124.37-.12,13.13-.22,26.24-3.38,39.29-5.59,6.56-1.12,8.42,1.1,9.16,7.64,1.92,16.92,4.51,33.8,7.6,50.56,1.35,7.34-.74,8.91-7.78,9.27-9.48.48-15.29-1.62-18.24-11.77-4.71-16.25-18.09-23.78-33.54-25.12C1549.68,947.71,1531.43,948.91,1512.23,948.91Zm.18,171.63h.14c0,16.58-.07,33.17,0,49.76.06,8.83,5.33,13.68,12.82,17.45,21.76,11,50.32-9.56,55.66-25.44,4.78-14.17,6-28.45,4.36-43.59-1.66-15.69-6.47-28.83-18.46-39.11-12.84-11-27.72-16.61-44.67-16.19-6.58.17-10.43,2.64-10.07,10.66C1512.89,1089.55,1512.41,1105.06,1512.41,1120.54Z"/><path class="cls-3" d="M1659.93,1212.93c-2.8-13.26-2.26-14.13,8.45-17.52,10.4-3.29,18.66-9.16,23-19.62q22.23-53.19,44.53-106.35,22.1-52.82,44.16-105.66,10.47-25,21-50c.75-1.78,1.11-4.18,2.47-5.17,4.22-3,8.72-7.37,13.31-7.61,3.5-.19,9.14,4.33,10.64,8,7,17.3,12.85,35.07,19.19,52.64,14.52,40.29,29.15,80.54,43.61,120.84,9.46,26.37,19,52.71,28,79.26,5.38,16,11.94,30.21,30.42,34.56,7.77,1.83,3.95,8.58,4.16,13.18.05.93-5,3-7.74,3-32.28.07-64.57-.35-96.84-.2-13.26.06-13.54.25-12.22-13,5.94-2,12.08-3.45,17.67-6.09,6.83-3.22,9.46-9,7-16.53-6.42-19.89-12.71-39.82-19.58-59.55-.77-2.21-4.94-4.57-7.56-4.61-25.16-.37-50.33-.42-75.48,0-2.62,0-6.8,3.19-7.51,5.68-5,17.65-9.86,35.4-13.77,53.34-2.58,11.85,2.24,18.62,13.88,22.52,3.15,1,6.32,2.31,9.56,2.69,7.5.86,6.56,6.26,6.31,11.15-.31,6-5,4.74-8.7,4.62-21.52-.68-43-1.87-64.57-2C1682.33,1210.37,1671.33,1212,1659.93,1212.93Zm139.74-217-2.38-.7c-1.23,1.83-2.85,3.51-3.64,5.52q-15,38.31-29.9,76.69c-3,7.79-2.28,9.35,6.06,9.5,17.38.31,34.78.2,52.17.24,6.33,0,8.75-2.39,5.72-8.71a88.17,88.17,0,0,1-3.62-10Q1811.86,1032.22,1799.67,995.94Z"/><path class="cls-3" d="M1079.07,1197.9c1.79,15.5,1,17.21-14.21,15-31.48-4.58-62.84-3.21-94.27-.38-2.43.22-4.89,0-8,0v-13.66c5.45-1.59,10.83-2.7,15.85-4.73,7.63-3.08,10.64-9.49,8.13-17.38-6.07-19.09-12.53-38-18.68-57.12-1.68-5.21-4.73-7.44-10.32-7.39-24.34.23-48.69,0-73,.44-2.73,0-7.12,2.91-7.82,5.32-5.06,17.37-9.92,34.84-13.72,52.52-2.8,13,1.82,19.45,14.51,23.52a65.24,65.24,0,0,0,9.59,2.63c6.76,1,6.38,5.94,6,10.7-.43,5.32-4.15,5.45-8.43,5.22-19-1-38.09-2.22-57.14-2.39-11.84-.1-23.69,1.83-35.55,2.15-2.29.06-6.61-3.18-6.58-4.84.06-3.47,1.87-9.54,3.87-9.94,20.08-4,28.59-18.69,35.48-35.63,13.24-32.59,26.94-65,40.27-97.55,18.74-45.75,37.29-91.59,56-137.36,2.39-5.82,5.72-11.28,7.89-17.17,2.61-7.07,8.25-10.87,14.54-9.44,4.3,1,9,6.14,10.91,10.57,5.79,13.65,10.33,27.84,15.32,41.83q12.63,35.31,25.21,70.63,21.75,60.91,43.56,121.81c3.91,10.88,8.09,21.66,12.35,32.41,4.41,11.15,14.21,15.37,24.63,18.7C1076.69,1196.82,1077.92,1197.42,1079.07,1197.9Zm-157-110.6v0c8.84,0,17.69,0,26.53,0,4.95,0,7.3-1.8,5.37-7.2-2.47-6.94-4.5-14-6.88-21q-10-29.3-20.15-58.53c-.47-1.34-2-2.3-3-3.44-1.22,1.17-3,2.12-3.59,3.55-10.26,26-20.21,52.14-30.64,78.08-2.72,6.76-.23,8.57,5.84,8.59C904.37,1087.33,913.21,1087.3,922.06,1087.3Z"/></g></svg>