<svg xmlns="http://www.w3.org/2000/svg" viewBox="0 0 3676.67 660.31"><defs><style>.cls-1{fill:#60b14b;}.cls-2{fill:#1c1b1b;}</style></defs><title>sМонтажная область 3</title><g id="Слой_3" data-name="Слой 3"><path class="cls-1" d="M276.79,20.94c85.7,0,171.4.12,257.1-.19,7.88,0,9.33,2.38,9.32,9.66q-.3,256.68,0,513.37c0,8.16-2.2,9.81-10,9.78q-120.28-.45-240.56,0c-7.15,0-9.16-1.53-9.16-9,0-32.47,1.74-65-3.18-97.35-7.94-52.21-27.53-97.89-72.15-129.57-28-19.9-59.94-29.44-93.58-34.28-32.08-4.63-64.34-3-96.55-3-6.21,0-7.69-1.58-7.67-7.73q.33-121.94,0-243.87c0-7,2.46-7.91,8.49-7.9Q147.82,21.09,276.79,20.94Zm156,265.78c0-49-.15-98.09.17-147.14.05-7-1.81-8.54-8.62-8.51-68.88.27-137.77.16-206.66.16-30,0-60.06.15-90.1-.13-5.82-.06-7.59,1.6-7.32,7.38.46,9.62.33,19.28,0,28.92-.14,4.76,1.2,6.61,6.29,7.19a325.51,325.51,0,0,1,43,8.06c58.81,14.95,110.06,42.7,150.11,89.18,40.67,47.2,61.27,103.05,69.57,164,.88,6.47,2.92,8.33,9.14,8a213.83,213.83,0,0,1,26.43,0c6.7.46,8.17-1.91,8.14-8.28C432.64,385.92,432.75,336.32,432.75,286.72Z"/><path class="cls-1" d="M2445.68,392.82c0-50.44.11-100.87-.13-151.31,0-6,1.28-7.9,7.65-7.88q141.39.33,282.79,0c5.78,0,7.45,1.42,7.29,7.26-.42,15.7-.5,31.43,0,47.12.22,6.53-2,7.57-7.93,7.55-63.39-.21-126.78,0-190.17-.29-6.95,0-9.7,1.16-9.28,8.87.72,13.46.51,27,.05,40.5-.2,6.09,1.36,7.93,7.71,7.9,35.55-.16,71.12-.43,106.65.56a174.1,174.1,0,0,1,73.95,18.23c59,29.55,60.3,106.35,31.28,139.53-17.33,19.82-40,29.47-64.8,35.42a248.89,248.89,0,0,1-57.35,6.39c-60.09.24-120.17,0-180.26.28-6.48,0-7.64-2.09-7.61-8C2445.77,494.25,2445.67,443.54,2445.68,392.82ZM2585,490.56h20.64c16.26.05,32.53,0,48.1-5.57,12.89-4.62,21.8-13,22.82-27.39,1.07-15-4.69-26.82-18.06-34.42a57.91,57.91,0,0,0-21.8-7.2c-32.09-3.84-64.33-1-96.49-1.89-4.29-.13-4.08,2.39-4.08,5.29,0,21.74.14,43.49-.08,65.23-.05,4.67,1.29,6.14,6,6.05C2556.35,490.38,2570.67,490.56,2585,490.56Z"/><path class="cls-1" d="M776.77,233.78c51.25,0,102.5.11,153.75-.13,6.21,0,8.28,1.21,8.27,8q-.37,151.68,0,303.37c0,6.88-2.23,8-8.38,8-24.25-.32-48.5-.43-72.74,0-7.22.14-9.19-1.66-9.16-9,.28-79.35.18-158.71.17-238.07,0-10.43,0-10.43-10.82-10.43-41.33,0-82.67.21-124-.19-7.72-.07-10.17,1.49-10.13,9.76.35,79.63.1,159.27.38,238.9,0,7.24-1.67,9.24-9,9.09-24.52-.51-49.05-.35-73.57-.08-5.49.06-7.61-1-7.6-7.11q.29-152.52,0-305c0-6,1.88-7.15,7.46-7.13C673.16,233.87,725,233.78,776.77,233.78Z"/><path class="cls-1" d="M1060.61,349.85c14.85-14.52,29.84-25.05,47.78-30.5,36.77-11.18,73.1-9.6,107.68,7.33,37.65,18.44,55.84,50.83,60.35,91.49,4.59,41.3-3,79.36-34,109.35-29.29,28.39-65.94,36.26-105.31,33-26.33-2.21-50.5-10.79-70-29.91-2.68,1.84-1.35,4.55-1.36,6.74-.11,30.85-.22,61.71.06,92.57.05,5.78-1.54,7.46-7.37,7.38q-34.29-.48-68.59,0c-5.78.08-7.42-1.64-7.41-7.4q.24-150.84,0-301.67c0-5.34,1.37-7,6.85-7,21.49.3,43,.36,64.47,0,6.23-.11,7.35,2.19,6.93,7.66C1060.24,335.06,1060.61,341.34,1060.61,349.85Zm1,87.8c.62,10.38,1.15,18.06,2.78,25.62,6.7,31.07,27.43,49.84,57.06,51.56,31.94,1.85,55.13-13.14,64.57-42.68a114.69,114.69,0,0,0,.52-69.86c-8.38-27.22-29.82-42.71-58.65-43.08-30-.39-51.77,14.61-61.11,42.09C1062.49,414,1061.7,427.11,1061.63,437.65Z"/><path class="cls-1" d="M1804.73,432.67c6.51,1.62,13.12,2.94,19.52,4.92,18.63,5.77,36.18,13.63,42.29,34.28,9.57,32.39.84,63.26-39,74.4-16.3,4.55-33,6.21-49.84,6.31-55.91.35-111.83.11-167.75.37-5.7,0-6.73-1.93-6.72-7.1q.22-109.08,0-218.16c0-5,1.25-6.5,6.4-6.48,58.67.24,117.35.06,176,.41,15.74.09,31.26,2.78,45.68,9.66a50.2,50.2,0,0,1,8.76,85.87C1829.61,425.07,1817.62,429.26,1804.73,432.67Zm-81.28,22.62c-11.75,0-21.65.14-31.55-.07-4-.09-5.93.66-5.83,5.32.3,13.48.27,27,0,40.44-.09,4.52,1.63,5.54,5.78,5.49,17.33-.21,34.67.16,52-.29,9.58-.26,19.24-1.17,28.16-5.37,9.88-4.65,13.84-12,12.27-22.64-1.7-11.53-8.91-17.95-23.2-21C1748,454.43,1734.78,455.62,1723.45,455.29Zm-3.71-87.54c-10.56,0-19.37.23-28.15-.1-4.42-.16-5.61,1.35-5.5,5.62.27,11,.31,22,0,33-.14,4.87,1.68,6,6.19,5.92,14.56-.26,29.14.18,43.68-.29,9.84-.32,19.82-.95,28.79-5.86,13.25-7.24,13.71-24.21.87-32.15a38.34,38.34,0,0,0-12.3-4.44C1741.6,366.89,1729.75,368.12,1719.74,367.75Z"/><path class="cls-1" d="M2152.5,457.85c0,22-.25,44.09.11,66.13.16,10.19,2.22,20,13.66,24,1.51.54,2.44,1.51,2,3-.55,2.12-2.51,1.76-4.11,1.76-8.81,0-17.63,0-26.45,0-16.81,0-33.62-.16-50.43.09-4.64.07-7-1.21-8-5.94-1.28-5.59-2.12-14.08-5.67-15.66-4.56-2-8.72,5.74-13.4,8.83-19.39,12.81-41,18.3-63.79,20.34-24.09,2.17-48,.87-70.87-7.54-33.19-12.17-49.23-41.81-41-74.77,4.38-17.56,15.82-29.3,31.29-37.44,21-11.08,44.06-15.32,67.31-18.29,21.84-2.79,43.82-4.52,65.6-7.7,15.56-2.27,20.3-6.93,21.66-17.42,2-15.59-3.2-27.5-16.28-32.82-20.86-8.49-42-7.73-62.42,1.87a27.39,27.39,0,0,0-7.81,5.46c-3.75,3.77-5.36,7.85-6.87,11.61a52.26,52.26,0,0,0-3.14,11.43c-6.8.43-12.17.8-15.25,1-18.42,1.3-36.93-.3-55.39.23-6.77.2-7.82-2.19-7-8,3.65-24.44,15.9-43,37.2-55.59,19.13-11.31,40.18-16.46,62-18.37,34.19-3,68.32-2.85,101.5,7.49,27.58,8.59,48.82,24.26,55.15,54.47,3.08,14.7,1.5,29.65,1.39,44.52-.1,12.39,0,24.79,0,37.19Zm-81.43-15.46c-21.63,9.72-44.71,10.12-67,14.36-8.72,1.65-17.15,4.1-24.47,9.25-17.4,12.24-15.28,34.92,4,43.74,5.81,2.66,12,3.82,18.3,4.73,30.14,4.37,59.56-13.14,67.09-39.88C2071.85,464.38,2071.67,454,2071.07,442.39Z"/><path class="cls-1" d="M2980.78,528.9c-15.89,15.58-34.49,24-55,28.24-29.87,6.23-59.75,6.43-89-2.8-37-11.68-55-44.52-44.13-79.26,5.09-16.27,16.37-27.08,31.1-34.69,20.88-10.79,43.62-15,66.58-18,22.1-2.88,44.31-5,66.43-7.79,9.66-1.22,18.5-4.3,20.85-15.56,2.75-13.21-2.23-26.17-12.45-32.75-16.84-10.84-54.5-9.42-70.33,2.63a30.5,30.5,0,0,0-12.27,21.66c-.44,4.11-1.61,5.47-5.88,5.43-22.6-.22-45.21-.28-67.81,0-5.7.07-6-1.91-5.4-6.76,3.68-29.14,19.77-48.84,45.69-61.3,17.1-8.21,35.34-12.41,54.06-13.93,33.91-2.76,67.78-2.74,100.71,7.52,25.63,8,46.21,21.93,54.18,49.49,2.63,9.13,2.9,18.46,2.75,27.84q-.84,54.57-1.66,109.14a122,122,0,0,0,1.25,22.25c1.32,7.81,4.35,14.2,12.1,17.37,1.58.64,3.25,1,2.92,3.19-.36,2.44-2.35,1.9-3.86,1.9-26.46,0-52.92,0-79.38.11-3.82,0-4.53-2.28-5.37-4.91C2984.91,542,2983,536,2980.78,528.9Zm-2.5-71.78c0-3-.19-6.07,0-9.08.34-4.55-1.76-5.25-5.4-3.72-17.78,7.44-36.9,8.21-55.57,11.23-11.44,1.86-22.78,4.26-32.18,11.68-14.74,11.64-13.33,32.52,3,41.09C2920.92,525.43,2979.46,509.67,2978.28,457.12Z"/><path class="cls-1" d="M3363,437.14c0,36.09-.11,72.2.12,108.29,0,5.61-1.25,7.61-7.24,7.52q-34.71-.51-69.44,0c-5.84.09-6.81-2.13-6.78-7.17.17-27.56-.07-55.12.19-82.67.06-6.05-1-8.69-8-8.59-28.37.41-56.76.35-85.14,0-6-.07-7.22,1.91-7.16,7.48.26,27.83,0,55.66.25,83.49,0,5.67-1.31,7.51-7.23,7.42-23.14-.35-46.3-.29-69.44,0-5.1.05-6.5-1.47-6.49-6.51q.21-109.54,0-219.08c0-4.56,1.09-6.16,5.92-6.12,23.7.24,47.4.3,71.1,0,5.6-.08,6.12,2.17,6.08,6.76-.18,24.25.06,48.5-.19,72.75-.06,5.36.73,7.72,7,7.64q43-.51,86,0c5.9.06,7.39-1.86,7.33-7.52-.28-24,.11-48-.28-71.92-.1-6.34,1.79-7.8,7.88-7.7,22.32.37,44.65.41,67,0,6.71-.13,8.83,1.43,8.75,8.5C3362.82,365.48,3363,401.31,3363,437.14Z"/><path class="cls-2" d="M114.46,553.29c-32.23,0-64.45-.2-96.67.17-6.37.08-7.57-1.76-7.55-7.76q.33-96.26,0-192.52c0-6.57,1.76-8.16,8.2-8.14q95.85.36,191.7,0c7,0,8.59,2.07,8.56,8.79q-.37,95.43.07,190.87c.05,7.76-2.44,8.84-9.27,8.76C177.81,553.1,146.13,553.29,114.46,553.29Z"/><path class="cls-1" d="M1484.11,525.34c-3.14,2.46-4.86,3.72-6.47,5.1-35.32,30.08-76.17,36.84-120.1,26.8-34.64-7.92-55.4-34.54-58.52-71.19-2.18-25.59-.88-51.21-1.12-76.82-.25-27,.07-54-.16-81,0-5.26,1.2-7.12,6.83-7.05q34.71.49,69.42,0c5.88-.08,7.34,1.74,7.31,7.43-.23,39.95-.16,79.9-.1,119.84,0,7.16.18,14.33.61,21.48,2,33.52,22.29,49.71,55.42,44.41,26.1-4.17,41.81-20.37,45.38-47.2a168.16,168.16,0,0,0,1.44-21.39c.13-38.85.24-77.7-.11-116.54-.06-6.71,2-8.14,8.27-8,22.86.36,45.74.3,68.6,0,5.19-.06,6.38,1.48,6.37,6.5q-.26,109.1,0,218.2c0,5.23-1.1,7.13-6.74,7.05-23.14-.32-46.28-.28-69.42,0-5.29.05-7.44-1.23-7-6.85C1484.48,539.84,1484.11,533.53,1484.11,525.34Z"/><path class="cls-1" d="M3484.71,415c1.73-2.42,3.19-5.1,5.22-7.23,25.88-27.11,51.91-54.08,77.72-81.25,3.49-3.67,6.93-5.33,12.11-5.28,27.74.27,55.48.13,85.42.13l-7.71,7.3c-33.81,32-67.54,64.14-101.52,96-4.31,4-4.09,6.15-.1,10.21Q3609.72,489.7,3663.18,545c2,2.08,4.79,3.66,5.84,7.86h-9c-26.46,0-52.92-.16-79.37.13-5.23,0-8.61-1.62-12-5.46q-39.57-45-79.5-89.71c-1.72-1.94-2.83-4.72-6.63-5.49-.13,2.81-.35,5.4-.35,8,0,28.39-.16,56.77.1,85.16.05,5.6-1.22,7.6-7.22,7.51-23.15-.35-46.3-.28-69.45,0-5,.05-6.61-1.39-6.6-6.49q.21-109.54,0-219.1c0-4.61,1.27-6.14,6-6.1,23.7.22,47.41.28,71.1,0,5.61-.08,6.15,2.25,6.12,6.84-.16,28.37-.08,56.74-.08,85.11Z"/><path class="cls-1" d="M2296.61,321.33c41.6,0,83.2.14,124.8-.15,6.59-.05,9.27,1.23,8.83,8.43a310,310,0,0,0,0,31.39c.22,5.51-1.6,6.93-7,6.87-25.89-.27-51.79.09-77.69-.28-6.19-.09-7.75,1.54-7.72,7.73.25,56.48,0,113,.29,169.44,0,6.44-1.56,8.34-8.14,8.22-22.59-.43-45.19-.37-67.77,0-5.92.09-7.26-1.76-7.24-7.42.2-56.48,0-113,.3-169.44,0-6.94-1.76-8.64-8.6-8.53-25.62.44-51.25,0-76.86.31-5.6.07-7.05-1.69-6.88-7,.36-10.73.56-21.51-.06-32.22-.39-6.77,2.47-7.47,8.14-7.44C2212.85,321.42,2254.73,321.33,2296.61,321.33Z"/></g></svg>