<svg xmlns="http://www.w3.org/2000/svg" width="45.053" height="35.758" viewBox="0 0 45.053 35.758">
  <g id="production-plant" transform="translate(0 0)">
    <g id="Сгруппировать_104" data-name="Сгруппировать 104" transform="translate(0 0)">
      <rect id="Прямоугольник_329" data-name="Прямоугольник 329" width="4.911" height="4.062" transform="translate(31.071 19.553)" fill="#fff"/>
      <rect id="Прямоугольник_330" data-name="Прямоугольник 330" width="4.911" height="4.062" transform="translate(22.502 19.553)" fill="#fff"/>
      <path id="Контур_396" data-name="Контур 396" d="M42.5,67.565v-21.3H36.784V34.584H30.27V46.263H28.215V34.584H21.7V46.263H2.556v21.3H0v2.778H45.053V67.564H42.5ZM30.27,53.335h6.515V59H30.27S30.27,53.335,30.27,53.335Zm-8.57,0h6.515V59H21.7Zm-15.435.8H17.891V67.565H6.265V54.137Zm37.986,15.4H.8V68.367H44.252v1.175Z" transform="translate(0 -34.584)" fill="#fff"/>
      <rect id="Прямоугольник_331" data-name="Прямоугольник 331" width="15.335" height="0.802" transform="translate(2.957 8.245)" fill="#fff"/>
    </g>
  </g>
</svg>
