<svg xmlns="http://www.w3.org/2000/svg" width="35.217" height="43.67" viewBox="0 0 35.217 43.67">
  <path id="profi-worker" d="M37.287,31.991H30.053a11.3,11.3,0,0,0,5.464-7.078,3.511,3.511,0,0,0,.362-6.938V16.5H38.7a.7.7,0,0,0,.7-.7V12.974a.7.7,0,0,0-.7-.7h-.74A11.979,11.979,0,0,0,26.017,1H23.2A11.979,11.979,0,0,0,11.262,12.27h-.74a.7.7,0,0,0-.7.7v2.817a.7.7,0,0,0,.7.7h2.817v1.48a3.511,3.511,0,0,0,.362,6.938,11.3,11.3,0,0,0,5.464,7.078H11.93A4.937,4.937,0,0,0,7,36.922v7.043a.7.7,0,0,0,.7.7H41.513a.7.7,0,0,0,.7-.7V36.922A4.937,4.937,0,0,0,37.287,31.991Zm0,11.27H11.93V40.444H37.287ZM19.735,33.4a4.924,4.924,0,0,0,9.748,0h2.169v5.635H17.565V33.4Zm8.325,0a3.522,3.522,0,0,1-6.9,0Zm-11.9,5.635H14.748V33.4h1.409Zm16.9,0V33.4H34.47v5.635Zm4.226-17.609a2.109,2.109,0,0,1-1.49,2.009,11.4,11.4,0,0,0,.082-1.3V19.443a2.11,2.11,0,0,1,1.409,1.983ZM34.5,6.705l-2.761,1.84-.592-.592,1.9-2.846A10.614,10.614,0,0,1,34.5,6.705Zm-8.485-4.3c.184,0,.363.018.544.027L25.441,8.043H23.778L22.656,2.436c.181-.009.36-.027.544-.027Zm-9.4,2.314,2.153,3.231-.592.592L14.949,6.393A10.69,10.69,0,0,1,16.618,4.723ZM14.149,7.552l3.73,2.486a.7.7,0,0,0,.889-.088l1.409-1.409a.7.7,0,0,0,.088-.889l-2.486-3.73A10.472,10.472,0,0,1,21.252,2.6l1.258,6.29a.7.7,0,0,0,.69.566h2.817a.7.7,0,0,0,.69-.566L27.966,2.6A10.517,10.517,0,0,1,31.94,4.229L29.658,7.653a.7.7,0,0,0,.088.889L31.154,9.95a.7.7,0,0,0,.889.088l3.229-2.152a10.487,10.487,0,0,1,1.276,4.384H12.671A10.475,10.475,0,0,1,14.149,7.552Zm-2.923,6.126H37.991v1.409H11.226Zm.7,7.748a2.11,2.11,0,0,1,1.409-1.983V22.13a11.4,11.4,0,0,0,.082,1.3,2.109,2.109,0,0,1-1.49-2.009Zm2.817.7V16.5H34.47V22.13a9.861,9.861,0,1,1-19.722,0ZM8.409,36.922A3.526,3.526,0,0,1,11.93,33.4h1.409v5.635H11.226a.7.7,0,0,0-.7.7v3.522H8.409Zm32.4,6.339H38.7V39.739a.7.7,0,0,0-.7-.7H35.878V33.4h1.409a3.526,3.526,0,0,1,3.522,3.522Z" transform="translate(-7 -1)" fill="#fff"/>
</svg>
