<svg xmlns="http://www.w3.org/2000/svg" width="36.017" height="42.928" viewBox="0 0 36.017 42.928">
  <g id="project" transform="translate(-0.499 0)">
    <path id="Контур_1350" data-name="Контур 1350" d="M24.851,10.671A2.07,2.07,0,1,0,21.923,13.6l3.526,3.526a2.07,2.07,0,0,0,2.927,0L35.91,9.591a2.07,2.07,0,1,0-2.927-2.927l-.831.831a8,8,0,0,0-2.006-1.119V5.434a2.072,2.072,0,0,0-2.07-2.07h-6.49V2.645A2.648,2.648,0,0,0,18.941,0H11.7A2.648,2.648,0,0,0,9.058,2.645V5.634a1.471,1.471,0,0,0,1.47,1.47h9.589a1.471,1.471,0,0,0,1.47-1.47V4.624h6.49a.811.811,0,0,1,.81.81v.58a8,8,0,1,0,0,15.682V40.859a.811.811,0,0,1-.81.81H2.568a.811.811,0,0,1-.81-.81V5.434a.811.811,0,0,1,.81-.81H6.755a.63.63,0,0,0,0-1.26H2.568A2.072,2.072,0,0,0,.5,5.434V40.859a2.072,2.072,0,0,0,2.07,2.07H28.076a2.072,2.072,0,0,0,2.07-2.07V21.332a8,8,0,0,0,5.15-7.2.63.63,0,0,0-1.259-.043,6.707,6.707,0,0,1-4.665,6.183.6.6,0,0,0-.105.034A6.743,6.743,0,1,1,27.3,7.113a6.729,6.729,0,0,1,3.952,1.281l-4.34,4.34ZM20.327,5.634a.21.21,0,0,1-.21.21H10.528a.21.21,0,0,1-.21-.21V2.645A1.387,1.387,0,0,1,11.7,1.26h7.238a1.387,1.387,0,0,1,1.385,1.385ZM33.874,7.555A.81.81,0,1,1,35.019,8.7l-7.534,7.534a.81.81,0,0,1-1.146,0l-3.526-3.526a.81.81,0,1,1,1.146-1.146l2.508,2.508a.63.63,0,0,0,.891,0Zm0,0" fill="#fff"/>
    <path id="Контур_1351" data-name="Контур 1351" d="M114.206,188.547h-7.674a.63.63,0,0,0,0,1.259h7.674a.63.63,0,1,0,0-1.259Zm0,0" transform="translate(-96.567 -172.738)" fill="#fff"/>
    <path id="Контур_1352" data-name="Контур 1352" d="M45.887,111.012H41.649a.63.63,0,1,0,0,1.26h4.238a.63.63,0,1,0,0-1.26Zm0,0" transform="translate(-37.123 -101.704)" fill="#fff"/>
    <path id="Контур_1353" data-name="Контур 1353" d="M106.532,224.654h7.674a.63.63,0,1,0,0-1.259h-7.674a.63.63,0,0,0,0,1.259Zm0,0" transform="translate(-96.566 -204.664)" fill="#fff"/>
    <path id="Контур_1354" data-name="Контур 1354" d="M116.857,279.648H106.532a.63.63,0,0,0,0,1.26h10.325a.63.63,0,0,0,0-1.26Zm0,0" transform="translate(-96.566 -256.201)" fill="#fff"/>
    <path id="Контур_1355" data-name="Контур 1355" d="M106.532,315.756h5.163a.63.63,0,0,0,0-1.26h-5.163a.63.63,0,0,0,0,1.26Zm0,0" transform="translate(-96.566 -288.128)" fill="#fff"/>
    <path id="Контур_1356" data-name="Контур 1356" d="M106.532,372.107h7.674a.63.63,0,1,0,0-1.26h-7.674a.63.63,0,0,0,0,1.26Zm0,0" transform="translate(-96.566 -339.754)" fill="#fff"/>
    <path id="Контур_1357" data-name="Контур 1357" d="M106.532,406.955h10.325a.63.63,0,1,0,0-1.259H106.532a.63.63,0,0,0,0,1.259Zm0,0" transform="translate(-96.566 -371.68)" fill="#fff"/>
    <path id="Контур_1358" data-name="Контур 1358" d="M36.677,182.035a2.544,2.544,0,1,0,2.544,2.544A2.547,2.547,0,0,0,36.677,182.035Zm0,3.828a1.284,1.284,0,1,1,1.284-1.284A1.286,1.286,0,0,1,36.677,185.863Zm0,0" transform="translate(-30.814 -166.772)" fill="#fff"/>
    <path id="Контур_1359" data-name="Контур 1359" d="M36.677,274.242a2.544,2.544,0,1,0,2.544,2.544A2.547,2.547,0,0,0,36.677,274.242Zm0,3.828a1.284,1.284,0,1,1,1.284-1.284A1.286,1.286,0,0,1,36.677,278.07Zm0,0" transform="translate(-30.814 -251.248)" fill="#fff"/>
    <path id="Контур_1360" data-name="Контур 1360" d="M36.677,365.441a2.544,2.544,0,1,0,2.544,2.544A2.547,2.547,0,0,0,36.677,365.441Zm0,3.828a1.284,1.284,0,1,1,1.284-1.284A1.286,1.286,0,0,1,36.677,369.269Zm0,0" transform="translate(-30.814 -334.801)" fill="#fff"/>
  </g>
</svg>
