<svg xmlns="http://www.w3.org/2000/svg" width="53.189" height="49.768" viewBox="0 0 53.189 49.768">
  <g id="_quality" data-name=" quality" transform="translate(0 -0.5)">
    <path id="Контур_1361" data-name="Контур 1361" d="M217.058,99.616a.787.787,0,0,0,1.186-.135l5.186-7.826a.779.779,0,1,0-1.3-.861l-4.673,7.053-2.6-2.466a.779.779,0,1,0-1.073,1.13l3.27,3.1Zm0,0" transform="translate(-191.361 -80.602)" fill="#fff"/>
    <path id="Контур_1362" data-name="Контур 1362" d="M127.841,30.9a1.154,1.154,0,0,0,.478.1h.007a1.14,1.14,0,0,0,.483-.11C140.656,25.258,142.664,13.1,143,9.509a1.862,1.862,0,0,0-1.149-1.9,6.809,6.809,0,0,1-4.184-5.714A1.539,1.539,0,0,0,136.137.5h-.009L120.166.593a1.526,1.526,0,0,0-1.52,1.422,6.81,6.81,0,0,1-4.123,5.756,1.856,1.856,0,0,0-1.12,1.911c.375,3.588,2.525,15.721,14.438,21.216ZM115.135,9.2A8.362,8.362,0,0,0,120.2,2.151l15.916-.093a8.363,8.363,0,0,0,5.137,6.99.313.313,0,0,1,.195.318c-.312,3.366-2.182,14.716-13.13,20.035C117.305,24.211,115.3,12.883,114.952,9.52a.307.307,0,0,1,.183-.316Zm0,0" transform="translate(-101.612)" fill="#fff"/>
    <path id="Контур_1363" data-name="Контур 1363" d="M143.836,38.881a.822.822,0,0,0,.956.547.78.78,0,0,0,.547-.956c-.2-.731-.365-1.473-.5-2.207a10.958,10.958,0,0,0,4.458-5.842l11.252-.066a10.957,10.957,0,0,0,4.526,5.79c-.122.737-.28,1.48-.471,2.214a.779.779,0,1,0,1.509.391c.223-.862.4-1.737.54-2.6a1.191,1.191,0,0,0-.562-1.208,9.4,9.4,0,0,1-4.135-5.3,1.2,1.2,0,0,0-1.145-.845h-.007l-11.78.069a1.205,1.205,0,0,0-1.142.859,9.4,9.4,0,0,1-4.073,5.349,1.191,1.191,0,0,0-.547,1.215c.145.862.337,1.734.57,2.592Zm0,0" transform="translate(-128.367 -25.357)" fill="#fff"/>
    <path id="Контур_1364" data-name="Контур 1364" d="M179.293,147.593a.779.779,0,0,0-1.017.423,19.625,19.625,0,0,1-8.474,9.865,19.633,19.633,0,0,1-8.6-9.781.779.779,0,0,0-1.434.61,21.136,21.136,0,0,0,9.461,10.636,1.193,1.193,0,0,0,1.156-.006,21.13,21.13,0,0,0,9.329-10.73.778.778,0,0,0-.423-1.017Zm0,0" transform="translate(-143.117 -131.759)" fill="#fff"/>
    <path id="Контур_1365" data-name="Контур 1365" d="M24.343,384.273A2.757,2.757,0,1,0,27.1,387.03,2.76,2.76,0,0,0,24.343,384.273Zm0,3.955a1.2,1.2,0,1,1,1.2-1.2A1.2,1.2,0,0,1,24.343,388.228Zm0,0" transform="translate(-19.343 -343.905)" fill="#fff"/>
    <path id="Контур_1366" data-name="Контур 1366" d="M52.631,244.574a3.246,3.246,0,0,0-4.482-.867l-10.186,6.817-2.174-.122-.056-.557a4.729,4.729,0,0,0-4.053-4.224l-.041,0-10.975-.962c-.371-.058-1.56-.4-4.826-2.272a12.12,12.12,0,0,0-5.553-1.6v-2.038a1.857,1.857,0,0,0-1.855-1.855H1.855A1.857,1.857,0,0,0,0,238.746v20.075a1.857,1.857,0,0,0,1.855,1.855H8.43a1.857,1.857,0,0,0,1.855-1.855v-.553l9.594,3.633a5.367,5.367,0,0,0,2.233.164l15.941-2.3.012,0A7.838,7.838,0,0,0,41.78,258.1l.028-.024,10.3-9.26a3.246,3.246,0,0,0,.527-4.243Zm-1.566,3.081-10.285,9.25a6.278,6.278,0,0,1-2.956,1.32l-15.929,2.3-.014,0h-.008a3.5,3.5,0,0,1-1.475-.094L10.285,256.6v-8.9a.779.779,0,1,0-1.558,0v11.117a.3.3,0,0,1-.3.3H1.855a.3.3,0,0,1-.3-.3V238.746a.3.3,0,0,1,.3-.3H8.43a.3.3,0,0,1,.3.3v5.439a.779.779,0,0,0,1.558,0v-1.84a10.554,10.554,0,0,1,4.777,1.39c3.939,2.259,5.039,2.415,5.4,2.466l.041,0,10.976.962a3.175,3.175,0,0,1,2.7,2.833l.041.415-14.7.907-.029,0a1.776,1.776,0,0,1-1.212-.634.779.779,0,1,0-1.2,1,3.374,3.374,0,0,0,2.27,1.189c.481.05,15.72-.949,15.72-.949l3.055.172a.777.777,0,0,0,.477-.131L49.016,245a1.68,1.68,0,0,1,2.048,2.654Zm0,0" transform="translate(0 -211.834)" fill="#fff"/>
  </g>
</svg>
