<svg xmlns="http://www.w3.org/2000/svg" width="38.46" height="38.459" viewBox="0 0 38.46 38.459">
  <g id="quality-like" transform="translate(0)">
    <path id="Контур_1301" data-name="Контур 1301" d="M38.4,14.514a1.2,1.2,0,0,0-.961-.8L25.6,11.945,20.268.687A1.2,1.2,0,0,0,19.183,0a1.265,1.265,0,0,0-1.09.7L12.834,11.987,1.018,13.833a1.2,1.2,0,0,0-.673,2.03l8.62,8.767L6.979,37.07A1.2,1.2,0,0,0,8.75,38.307l10.539-5.868,10.581,5.8a1.2,1.2,0,0,0,1.764-1.252L29.561,24.558l8.56-8.823a1.2,1.2,0,0,0,.274-1.221ZM19.23,20.432a3.412,3.412,0,0,1,0,6.811h-2a1.2,1.2,0,0,1,0-2.4h2a1.027,1.027,0,0,0,0-2h-2a1.2,1.2,0,0,1-1.2-1.2V17.227a1.2,1.2,0,0,1,1.2-1.2h4.006a1.2,1.2,0,1,1,0,2.4h-2.8v2Z" transform="translate(0 0)" fill="#fff"/>
  </g>
</svg>
