<svg xmlns="http://www.w3.org/2000/svg" width="50.646" height="47.388" viewBox="0 0 50.646 47.388">
  <g id="quality" transform="translate(-651 -8262)">
    <path id="Контур_1062" data-name="Контур 1062" d="M24.211,384.273a2.625,2.625,0,1,0,2.625,2.625A2.628,2.628,0,0,0,24.211,384.273Zm0,3.766a1.141,1.141,0,1,1,1.141-1.141A1.142,1.142,0,0,1,24.211,388.039Zm0,0" transform="translate(631.549 7915.689)" fill="#fff"/>
    <g id="Сгруппировать_591" data-name="Сгруппировать 591" transform="translate(0 285)">
      <path id="Контур_1059" data-name="Контур 1059" d="M127.15,29.445a1.1,1.1,0,0,0,.455.1h.006a1.086,1.086,0,0,0,.46-.105c11.281-5.365,13.193-16.941,13.51-20.361a1.773,1.773,0,0,0-1.094-1.81A6.484,6.484,0,0,1,136.5,1.827,1.465,1.465,0,0,0,135.049.5h-.009l-15.2.089a1.453,1.453,0,0,0-1.447,1.354,6.485,6.485,0,0,1-3.926,5.481A1.767,1.767,0,0,0,113.4,9.243c.357,3.416,2.4,14.969,13.748,20.2Zm-12.1-20.657a7.962,7.962,0,0,0,4.82-6.716l15.155-.089a7.963,7.963,0,0,0,4.891,6.655.3.3,0,0,1,.185.3c-.3,3.205-2.078,14.012-12.5,19.077-10.484-4.941-12.39-15.728-12.725-18.929a.292.292,0,0,1,.175-.3Zm0,0" transform="translate(548.824 7976.5)" fill="#fff"/>
      <path id="Контур_1061" data-name="Контур 1061" d="M178.356,147.59a.741.741,0,0,0-.969.4,18.687,18.687,0,0,1-8.069,9.394,18.694,18.694,0,0,1-8.185-9.314.742.742,0,0,0-1.366.581,20.126,20.126,0,0,0,9.009,10.128,1.136,1.136,0,0,0,1.1-.006,20.119,20.119,0,0,0,8.883-10.217.741.741,0,0,0-.4-.968Zm0,0" transform="translate(507.09 7844.011)" fill="#fff"/>
      <path id="Контур_1063" data-name="Контур 1063" d="M50.114,244.207a3.09,3.09,0,0,0-4.268-.825l-9.7,6.491-2.07-.116-.053-.53a4.5,4.5,0,0,0-3.859-4.022l-.039,0-10.451-.916c-.354-.055-1.485-.38-4.6-2.164A11.54,11.54,0,0,0,9.794,240.6v-1.941a1.768,1.768,0,0,0-1.766-1.766H1.767A1.768,1.768,0,0,0,0,238.657v19.116a1.768,1.768,0,0,0,1.766,1.766H8.027a1.768,1.768,0,0,0,1.766-1.766v-.527l9.135,3.459a5.108,5.108,0,0,0,2.126.157l15.179-2.188.011,0a7.463,7.463,0,0,0,3.537-1.585l.027-.023,9.8-8.817a3.09,3.09,0,0,0,.5-4.04Zm-1.491,2.934-9.793,8.808a5.978,5.978,0,0,1-2.815,1.257l-15.168,2.187-.013,0h-.007a3.332,3.332,0,0,1-1.4-.09l-9.629-3.646v-8.473a.742.742,0,1,0-1.484,0v10.586a.283.283,0,0,1-.282.282H1.767a.283.283,0,0,1-.282-.282V238.657a.283.283,0,0,1,.282-.282H8.027a.283.283,0,0,1,.282.282v5.179a.742.742,0,0,0,1.484,0v-1.752a10.049,10.049,0,0,1,4.549,1.323c3.751,2.151,4.8,2.3,5.143,2.348l.039,0,10.452.916a3.023,3.023,0,0,1,2.572,2.7l.039.4-13.993.864-.028,0a1.691,1.691,0,0,1-1.154-.6.742.742,0,0,0-1.139.95,3.213,3.213,0,0,0,2.162,1.132c.458.048,14.969-.9,14.969-.9l2.909.163a.74.74,0,0,0,.454-.124l9.906-6.63a1.6,1.6,0,0,1,1.951,2.527Zm0,0" transform="translate(651 7763.492)" fill="#fff"/>
    </g>
  </g>
</svg>
