<svg xmlns="http://www.w3.org/2000/svg" viewBox="0 0 619.93 231.21"><defs><style>.cls-1{fill:#5b5859;}.cls-2{fill:#eb0d8c;}.cls-3{fill:#9bcb3c;}.cls-4{fill:#bdbcbc;}</style></defs><title>sМонтажная область 5</title><g id="Слой_4" data-name="Слой 4"><g id="g10"><g id="g12"><path id="path14" class="cls-1" d="M207.06,178.37v52.84H171.24V104.9h63.59c15.37,0,20.87,14.89,20.87,23.31v26.36a12.44,12.44,0,0,1-9.52,12.08c9.88,1.83,10.25,8.42,10.25,15.38v48.7H220.18V186.79c0-7.69-3.66-8.79-9.52-8.79Zm0-51.75v30.15a20.44,20.44,0,0,0,5.43,0c3.66-.37,7.69-6.59,7.33-15.38s-2.2-14.77-5.86-14.77h-6.9"/><path id="path16" class="cls-1" d="M388.66,104.9v52.23H375.42V104.9H339.6V231.21h35.82V178.37h13.24v52.84h35.82V104.9H388.66"/><path id="path18" class="cls-1" d="M452.67,104.9h69.56V231.21H486.42V178.37H473.17v52.84H437.36V126.75C437.36,120.16,439.21,104.9,452.67,104.9Zm20.5,32.1v20.13h13.25V127.48s-13.25-4-13.25,9.52"/><path id="path20" class="cls-1" d="M328.19,209.86h-23.5V178.37h23.5V157.13h-23.5v-31h23.5V104.9H268.88V231.21h35.81v-.12h23.5V209.86"/><path id="path22" class="cls-1" d="M535.11,202.9v-98h35.82v96.17s-.74,10.25,6.59,10.25,6.59-10.25,6.59-10.25V104.9h35.82v98c0,27.46-12.39,29.29-42.41,29.29S535.11,229.63,535.11,202.9Zm56.62-82.58a10.18,10.18,0,1,0,10.21-10.08,10.13,10.13,0,0,0-10.21,10.08Zm1.84,0a8.35,8.35,0,1,1,8.37,8.69A8.34,8.34,0,0,1,593.57,120.32Zm4.42,6h1.84v-5.1h1.95l3.22,5.1h2l-3.39-5.23c1.76-.19,3.12-1.08,3.12-3.22s-1.33-3.39-4.15-3.39H598Zm1.84-10.35h2.44c1.24,0,2.59.25,2.59,1.81,0,1.87-1.48,2-3.11,2h-1.92v-3.77"/><path id="path24" class="cls-2" d="M32,122.23c43,38.28,100.17,6.29,99.59-38.43C102.17,108.24,70.24,122.1,32,122.23"/><path id="path26" class="cls-3" d="M44.83,12.05c-55,17-57.19,82.47-18.62,105.11-5.72-37.8-1.06-72.29,18.62-105.11"/><path id="path28" class="cls-4" d="M136.73,73.16C148.42,16.83,92.12-16.74,53.67,6.1c35.87,13.26,63.82,34,83.06,67.06"/></g></g></g></svg>