<svg id="rocket_1_" data-name="rocket (1)" xmlns="http://www.w3.org/2000/svg" width="41.846" height="41.602" viewBox="0 0 41.846 41.602">
  <g id="Сгруппировать_424" data-name="Сгруппировать 424" transform="translate(0 39.957)">
    <g id="Сгруппировать_423" data-name="Сгруппировать 423" transform="translate(0)">
      <circle id="Эллипс_569" data-name="Эллипс 569" cx="0.822" cy="0.822" r="0.822" fill="#fff"/>
    </g>
  </g>
  <g id="Сгруппировать_426" data-name="Сгруппировать 426" transform="translate(21.001 19.106)">
    <g id="Сгруппировать_425" data-name="Сгруппировать 425">
      <circle id="Эллипс_570" data-name="Эллипс 570" cx="0.821" cy="0.821" r="0.821" fill="#fff"/>
    </g>
  </g>
  <g id="Сгруппировать_428" data-name="Сгруппировать 428" transform="translate(26.607 8.502)">
    <g id="Сгруппировать_427" data-name="Сгруппировать 427">
      <path id="Контур_971" data-name="Контур 971" d="M331.512,106.539a3.491,3.491,0,1,0,0,4.939A3.469,3.469,0,0,0,331.512,106.539Zm-1.16,3.779a1.851,1.851,0,1,1,0-2.618A1.854,1.854,0,0,1,330.351,110.318Z" transform="translate(-325.551 -105.516)" fill="#fff"/>
    </g>
  </g>
  <g id="Сгруппировать_430" data-name="Сгруппировать 430" transform="translate(2.644 30.985)">
    <g id="Сгруппировать_429" data-name="Сгруппировать 429" transform="translate(0 0)">
      <path id="Контур_972" data-name="Контур 972" d="M39.956,383.136a.821.821,0,0,0-1.1.369l-.977,1.963a2.708,2.708,0,0,1-2.231,1.489l-1.137.078a.486.486,0,0,1-.518-.518l.078-1.137a2.708,2.708,0,0,1,1.489-2.231l1.963-.977a.821.821,0,1,0-.731-1.469l-1.963.977a4.355,4.355,0,0,0-2.395,3.588l-.078,1.137a2.127,2.127,0,0,0,2.122,2.273c.048,0,.1,0,.145,0l1.137-.078a4.355,4.355,0,0,0,3.588-2.395l.977-1.963A.82.82,0,0,0,39.956,383.136Z" transform="translate(-32.35 -380.616)" fill="#fff"/>
    </g>
  </g>
  <g id="Сгруппировать_432" data-name="Сгруппировать 432" transform="translate(0.001 0)">
    <g id="Сгруппировать_431" data-name="Сгруппировать 431">
      <path id="Контур_973" data-name="Контур 973" d="M41.3,2.039A1.9,1.9,0,0,0,39.841,1.5l-.764.049a24.757,24.757,0,0,0-17.589,9.072l-1.8,2.214-4.706-.138h-.024a13.882,13.882,0,0,0-9.881,4.093l-4.82,4.82a.82.82,0,0,0,.538,1.4l10.2.524-.416.512a.82.82,0,0,0-.084.909q.24.441.5.868l-2.42,2.873a.821.821,0,0,0-.114.88A10.684,10.684,0,0,0,13.6,34.7a.821.821,0,0,0,.868-.1c.521-.423,1.122-.924,1.7-1.409.414-.346.838-.7,1.234-1.025q.355.213.719.412a.82.82,0,0,0,.9-.072l.559-.434L20.1,42.314a.82.82,0,0,0,1.4.538l4.82-4.82a13.882,13.882,0,0,0,4.093-9.881V23.656l1.9-1.476a24.659,24.659,0,0,0,9.522-18.3l.02-.4A1.9,1.9,0,0,0,41.3,2.039ZM2.724,21.461l3.515-3.515a12.252,12.252,0,0,1,8.708-3.612l3.44.1-6.106,7.517ZM15.118,31.927c-.428.357-.867.724-1.275,1.059a9.014,9.014,0,0,1-3.656-3.652l1.772-2.1a19.023,19.023,0,0,0,1.755,2.037h0a19.024,19.024,0,0,0,2.259,1.942Zm13.657-3.776a12.251,12.251,0,0,1-3.612,8.72l-3.515,3.515-.491-9.545,7.618-5.911v3.221ZM40.2,3.8a23.019,23.019,0,0,1-8.889,17.08L18.442,30.87a17.375,17.375,0,0,1-2.972-2.194l4.339-4.339a.821.821,0,0,0-1.16-1.16l-4.335,4.335a17.372,17.372,0,0,1-2.1-2.869L22.762,11.652a23.111,23.111,0,0,1,16.42-8.469l.764-.049a.259.259,0,0,1,.275.271Z" transform="translate(-0.018 -1.492)" fill="#fff"/>
    </g>
  </g>
</svg>
