<svg xmlns="http://www.w3.org/2000/svg" width="36.371" height="38.795" viewBox="0 0 36.371 38.795">
  <g id="roof-2" transform="translate(-16)">
    <path id="Контур_1542" data-name="Контур 1542" d="M322.82,12.275V.993a6.349,6.349,0,0,0-6.82,0V12.275a6.349,6.349,0,0,1,6.82,0Z" transform="translate(-277.268 0)" fill="#fff"/>
    <path id="Контур_1543" data-name="Контур 1543" d="M226,30h4.546V41.442H226Z" transform="translate(-194.088 -27.727)" fill="#fff"/>
    <path id="Контур_1544" data-name="Контур 1544" d="M226,211h4.546v9.093H226Z" transform="translate(-194.088 -195.012)" fill="#fff"/>
    <path id="Контур_1545" data-name="Контур 1545" d="M112.82,12.275V.993a6.349,6.349,0,0,0-6.82,0V12.275a6.349,6.349,0,0,1,6.82,0Z" transform="translate(-83.18 0)" fill="#fff"/>
    <path id="Контур_1546" data-name="Контур 1546" d="M226,361h4.546v11.442H226Z" transform="translate(-194.088 -333.646)" fill="#fff"/>
    <path id="Контур_1547" data-name="Контур 1547" d="M16,30h4.546V41.442H16Z" transform="translate(0 -27.727)" fill="#fff"/>
    <path id="Контур_1548" data-name="Контур 1548" d="M436,30h4.546V41.442H436Z" transform="translate(-388.175 -27.727)" fill="#fff"/>
    <path id="Контур_1549" data-name="Контур 1549" d="M436,361h4.546v11.442H436Z" transform="translate(-388.175 -333.646)" fill="#fff"/>
    <path id="Контур_1550" data-name="Контур 1550" d="M16,361h4.546v11.442H16Z" transform="translate(0 -333.646)" fill="#fff"/>
    <path id="Контур_1551" data-name="Контур 1551" d="M109.41,340.333a4.242,4.242,0,0,1,3.41,1.7V330.595a4.264,4.264,0,0,0-6.82,0v11.442A4.242,4.242,0,0,1,109.41,340.333Z" transform="translate(-83.18 -303.97)" fill="#fff"/>
    <path id="Контур_1552" data-name="Контур 1552" d="M319.41,340.333a4.243,4.243,0,0,1,3.41,1.7V330.595a4.264,4.264,0,0,0-6.82,0v11.442A4.242,4.242,0,0,1,319.41,340.333Z" transform="translate(-277.268 -303.97)" fill="#fff"/>
    <path id="Контур_1553" data-name="Контур 1553" d="M436,211h4.546v9.093H436Z" transform="translate(-388.175 -195.012)" fill="#fff"/>
    <path id="Контур_1554" data-name="Контур 1554" d="M16,211h4.546v9.093H16Z" transform="translate(0 -195.012)" fill="#fff"/>
    <path id="Контур_1555" data-name="Контур 1555" d="M112.82,188.977v-8.382a4.264,4.264,0,0,0-6.82,0v8.382a6.349,6.349,0,0,1,6.82,0Z" transform="translate(-83.18 -165.336)" fill="#fff"/>
    <path id="Контур_1556" data-name="Контур 1556" d="M322.82,188.977v-8.382a4.264,4.264,0,0,0-6.82,0v8.382a6.349,6.349,0,0,1,6.82,0Z" transform="translate(-277.268 -165.336)" fill="#fff"/>
  </g>
</svg>
