<svg xmlns="http://www.w3.org/2000/svg" width="38.317" height="37.824" viewBox="0 0 38.317 37.824">
  <g id="roof" transform="translate(0 -3.287)">
    <g id="Сгруппировать_724" data-name="Сгруппировать 724" transform="translate(0 3.287)">
      <path id="Контур_1557" data-name="Контур 1557" d="M38.181,3.534a.641.641,0,0,0-.5-.247H16.915a.623.623,0,0,0-.136.03.628.628,0,0,0-.186-.03H6.133a.641.641,0,0,0-.628.512L4.751,7.483a0,0,0,0,0,0,0L3.206,15.014,1.662,22.543s0,0,0,.006L.118,30.071a5.759,5.759,0,0,0,10.138,4.762,5.753,5.753,0,0,0,10.038,2.059A5.76,5.76,0,0,0,31.487,36.5l1.543-7.526a.029.029,0,0,1,0,0l1.543-7.523s0,0,0-.005l1.543-7.523v0l1.531-7.236c0-.02.008-.04.012-.06L38.3,4.083A.641.641,0,0,0,38.181,3.534ZM26.562,4.568a5.162,5.162,0,0,1-5.484,3,4.5,4.5,0,0,1-3.354-3ZM6,7.743,6.527,5.19a6.384,6.384,0,0,0,4.25,1.939,9.909,9.909,0,0,0,4.76-1.413l-.75,3.827a4.458,4.458,0,0,1-.653,1.566c-.015.023-.029.049-.045.072-.035.051-.076.1-.113.147A4.491,4.491,0,0,1,9.5,13.035a4.361,4.361,0,0,1-.692-.206L8.721,12.8a4.474,4.474,0,0,1-.627-.313l-.053-.033a4.529,4.529,0,0,1-1.506-1.546c-.013-.022-.027-.044-.04-.066a4.559,4.559,0,0,1-.284-.607c-.013-.035-.026-.07-.038-.106a4.487,4.487,0,0,1-.179-.651c0-.024-.006-.048-.01-.071a4.309,4.309,0,0,1-.068-.719s0,0,0-.006A4.763,4.763,0,0,1,6,7.743Zm3.772,19.7a4.491,4.491,0,0,1-3.809.536c-.026-.008-.051-.02-.077-.028-.118-.039-.234-.08-.347-.128-.009,0-.017-.009-.026-.012A4.491,4.491,0,0,1,2.845,23.3c0-.016,0-.032,0-.047.015-.15.038-.3.069-.451l.817-3.983c0,.008.01.015.013.023a5.857,5.857,0,0,0,.3.512c.017.026.038.051.056.077.094.138.193.272.3.4.044.053.092.1.137.154.086.1.174.195.266.286.055.054.113.106.17.158.091.083.183.164.28.241.063.05.127.1.191.146q.148.109.3.208c.068.044.136.086.206.127.11.063.222.122.336.178.07.035.138.071.21.1.127.056.259.106.391.154.063.023.124.049.188.07a5.506,5.506,0,0,0,1.24.254c.065.006.131.006.2.01.111.007.224.017.336.017.032,0,.063,0,.1,0,.06,0,.119-.005.178-.008.142-.007.282-.019.421-.036.061-.007.122-.015.183-.024q.239-.037.473-.095l.1-.02c.185-.049.366-.107.544-.173.051-.019.1-.041.15-.061.129-.053.257-.108.382-.17.057-.028.113-.056.169-.086.126-.067.247-.138.367-.213.043-.027.087-.051.129-.079q.234-.156.453-.334c.007-.006.015-.01.022-.017L11.7,24.6c-.027.133-.061.262-.1.39,0,.014-.006.028-.011.042A4.447,4.447,0,0,1,9.777,27.443Zm10.417,6.746a4.483,4.483,0,0,1-8.784-1.8l.816-3.978.009.015A5.768,5.768,0,0,0,16.188,31.4a5.829,5.829,0,0,0,.578.088c.026,0,.052,0,.078,0a5.7,5.7,0,0,0,1.387-.047c.04-.006.08-.01.12-.017.122-.022.241-.05.361-.079.047-.012.094-.022.141-.035.115-.031.228-.068.341-.106l.151-.053c.108-.04.213-.083.319-.129l.165-.077c.1-.047.2-.1.293-.149.06-.033.118-.07.177-.1s.149-.083.22-.131c.017-.011.031-.024.047-.035.109-.073.213-.152.317-.233.041-.031.086-.06.125-.092Zm1.164-12.216A4.484,4.484,0,0,1,15.148,20.7q-.123-.187-.227-.384a4.464,4.464,0,0,1-.324-.79c0-.007-.005-.013-.007-.02a4.462,4.462,0,0,1-.092-2.17v0l.817-3.978a5.772,5.772,0,0,0,8.783,1.8l-.816,3.979A4.455,4.455,0,0,1,21.359,21.973Zm10.418,6.745a4.483,4.483,0,1,1-8.784-1.8l.817-3.984c0,.008.009.014.013.022a5.923,5.923,0,0,0,.3.516c.013.02.03.04.044.06.1.143.2.283.311.417.042.051.087.1.131.147.088.1.177.2.272.293.054.053.111.1.167.154.092.085.186.167.283.245.062.049.126.1.19.145.1.073.2.142.305.209.067.043.134.086.2.126.11.064.223.122.338.179.07.035.138.07.209.1.127.057.259.106.391.154.063.023.124.049.189.07a5.482,5.482,0,0,0,1.237.254c.071.007.141.007.212.011.108.006.216.016.323.016.03,0,.06,0,.09,0,.064,0,.127-.005.19-.008.138-.006.273-.018.409-.035.064-.008.128-.015.191-.025.157-.024.311-.056.464-.092.034-.008.069-.014.1-.023a5.674,5.674,0,0,0,.544-.172c.049-.019.1-.04.145-.06.132-.053.262-.11.389-.172.054-.026.108-.054.161-.082.131-.069.257-.143.382-.222.038-.024.077-.045.114-.07a5.713,5.713,0,0,0,.462-.34l.019-.013ZM34.864,13.66a4.484,4.484,0,0,1-5.292,3.492c-.15-.031-.3-.069-.44-.113l-.078-.029c-.117-.039-.234-.08-.346-.127l-.031-.015a4.481,4.481,0,0,1-1.691-1.289c-.09-.111-.176-.228-.256-.35a4.553,4.553,0,0,1-.413-.783s0-.006,0-.01a4.452,4.452,0,0,1-.234-2.568l1.057-4.175a5.217,5.217,0,0,0,2.156,2.573l.021.013a4.617,4.617,0,0,0,.432.227c.061.029.124.053.187.079.11.045.218.092.332.129a5.087,5.087,0,0,0,.592.162c.2.041.4.071.6.092.075.008.149.01.224.015.126.009.251.018.376.019.023,0,.045,0,.069,0,.041,0,.081-.007.122-.008.189,0,.376-.016.562-.037.063-.007.127-.013.19-.022a5.974,5.974,0,0,0,.683-.138c.038-.01.075-.025.113-.036a5.663,5.663,0,0,0,.565-.2c.06-.024.118-.048.176-.074a5.779,5.779,0,0,0,.63-.323,5.685,5.685,0,0,0,.488-.335l.018-.012Zm1.545-7.3h0v.007c-.018.086-.043.17-.066.254-.017.064-.033.13-.053.193s-.054.146-.082.218-.045.124-.072.184-.067.135-.1.2-.058.119-.09.175-.077.124-.117.184-.071.114-.11.168-.086.11-.129.163-.085.111-.131.163-.091.094-.137.141-.1.106-.154.156-.094.079-.14.118-.117.1-.179.149c-.044.033-.091.062-.136.094-.069.047-.137.1-.209.141-.042.026-.086.047-.128.071-.079.045-.158.091-.24.131-.038.019-.078.033-.117.05-.09.041-.179.082-.272.117-.033.012-.069.021-.1.033-.1.035-.2.069-.305.1-.026.007-.054.011-.08.018-.113.028-.227.054-.343.074-.02,0-.04,0-.06.008-.124.019-.248.036-.375.045l-.053,0c-.13.008-.261.013-.395.011H32.01a5.018,5.018,0,0,1-.894-.1,3.777,3.777,0,0,1-2.594-2.007,4.777,4.777,0,0,1-.274-.64c-.012-.034-.026-.068-.036-.1a5.205,5.205,0,0,1-.168-.658c-.008-.041-.015-.083-.022-.125a5.562,5.562,0,0,1-.072-.7c0-.027,0-.054,0-.082a5.742,5.742,0,0,1,.027-.7c0-.014,0-.028,0-.043h8.879Z" transform="translate(0 -3.287)" fill="#fff"/>
    </g>
  </g>
</svg>
