<svg xmlns="http://www.w3.org/2000/svg" viewBox="0 0 2129.73 649.28"><defs><style>.cls-1{fill:#00894f;}.cls-2{fill:#060907;}.cls-3{fill:#088d56;}.cls-4{fill:#82c692;}.cls-5{fill:#fefefe;}.cls-6{fill:#cbe6cc;}</style></defs><title>sМонтажная область 8</title><g id="Слой_6" data-name="Слой 6"><path class="cls-1" d="M1051.39,198c0,12.24,0,24.49,0,36.74,0,3.16.33,6.32.36,9.48q.7,60.74,1.36,121.45c.07,6.32,0,6.38-6.34,6.41-7.5,0-15-.2-22.49.08-4.48.17-6-1.17-6-5.9.19-39.49.11-79,.11-118.47V163.25h7.33c14.5,0,29,.16,43.49-.1,3.94-.08,5.47,1.34,6.52,4.91q21.42,72.85,43.07,145.65a10.54,10.54,0,0,0,2.86,5.1c.58-1.59,1.24-3.14,1.73-4.75q22-72.42,43.91-144.89c1.42-4.73,3.48-6.15,8.28-6,13.83.33,27.67.38,41.49,0,5.32-.15,6.38,1.75,6.31,6.57-.23,18-.09,36-.09,54V365.14c0,6.95,0,7-6.93,7-7.5,0-15-.21-22.49.08-4.4.17-5.67-1.35-5.6-5.74q1-68.46,1.73-136.93c.12-10.47,0-20.94-.81-31.81a47.84,47.84,0,0,0-2.14,4.82q-23.67,74.28-47.25,148.57c-1.81,5.7-3.72,11.36-5.38,17.1-.83,2.87-2.42,4-5.38,3.94-6-.13-12-.26-18,.05-3.89.2-5.56-1.34-6.65-4.94-9.24-30.51-18.64-61-28-91.44q-11.18-36.43-22.32-72.86c-.52-1.71-1.25-3.36-1.89-5Z"/><path class="cls-1" d="M1457.93,163.28c14.67,0,29-.12,43.28.19,1.35,0,3.15,2.54,3.89,4.27q22.49,52.76,44.75,105.6,10.58,25,21.14,50.08a9.18,9.18,0,0,0,3.5,4.41c0-1.9,0-3.79,0-5.69q-1.12-76.21-2.27-152.42c-.09-6.46-.11-6.47,6.5-6.47h27.83c.1,2.28.25,4.05.25,5.83q0,98.47.12,197c0,4.85-1.38,6.31-6.18,6.18-11.32-.31-22.67-.29-34,0-4.48.11-6.71-1.28-8.5-5.57q-31.74-76.17-63.9-152.19a13.75,13.75,0,0,0-3.67-5.49,40.71,40.71,0,0,0-.36,4.11q.83,76.72,1.79,153.44c.06,4.48-1.42,5.81-5.71,5.67-8.16-.25-16.33-.13-24.5-.05-3,0-4.49-.8-4.48-4.25q.12-101,.09-202A20.33,20.33,0,0,1,1457.93,163.28Z"/><path class="cls-1" d="M1657.93,163.56c1.56-.12,2.86-.3,4.16-.3,20,0,40-.68,60,.18,24.64,1.06,47.23,8.15,64.13,27.58,11.55,13.27,18,29.11,21,46.23,4.43,24.51,4.77,49-3.4,72.91-11.42,33.38-34.44,54-69.39,60.12-9.75,1.71-19.89,1.48-29.87,1.67-14.16.28-28.33.11-42.49.18-2.86,0-4.66-.44-4.66-4.06q.13-101.25.11-202.49A13.08,13.08,0,0,1,1657.93,163.56Zm37.89,179.73c5.93,0,11.36.17,16.78,0,24.74-.88,43.39-13.78,51.63-37.05,9.28-26.25,9-52.93,0-79.21-5.85-17.1-18.19-28.16-35.79-32.32-8.31-2-17.05-2.39-25.63-2.92-6.92-.42-7,0-7,6.7V343.29Z"/><path class="cls-1" d="M1994.5,163.62c1.83-.17,3-.35,4.09-.35,22.33,0,44.66-.27,67,.11,13.48.22,26.31,3.2,37.35,11.83,27.89,21.78,25.26,69.89-5,86.63-4.55,2.52-9.71,3.93-14.75,5.91.23.45.35,1.1.65,1.19,10,3,16.15,10.12,19.41,19.4,9.49,26.92,18.48,54,27.64,81.07a13.32,13.32,0,0,1,.25,2.34c-1.58.13-3,.35-4.48.36-9.83,0-19.66-.16-29.49.09-3.89.1-5.57-1.43-6.65-5q-8.36-27.65-17.11-55.17a107.59,107.59,0,0,0-6.24-15.72c-5.45-10.84-21.13-17.78-32.3-14.23-1.42.45-2.69,3.83-2.7,5.86-.19,25.32-.12,50.65-.13,76,0,1.33-.09,2.67,0,4,.23,3-1,4.25-4,4.23-9.82-.07-19.66-.13-29.48,0-4,.06-4.06-2.21-4-5.16.06-21,0-42,0-63V163.62Zm36.57,58.62c0,9.16.08,18.33,0,27.49,0,3.42,1.16,4.81,4.67,4.58,7.46-.49,15-.23,22.38-1.19,14.81-1.94,25-13.75,25.46-28.74.58-17.61-7.1-28.7-23-31.68-7.94-1.49-16.18-1.35-24.28-2.08-3.92-.35-5.33,1.21-5.25,5.12C2031.19,204.57,2031.06,213.4,2031.07,222.24Z"/><path class="cls-1" d="M990.1,371.55c-2.16.23-3.73.54-5.3.55-9.49,0-19-.12-28.48.09-3.72.08-5.15-1.37-6.1-4.89-3.73-13.77-7.9-27.42-11.69-41.18-.94-3.41-2.38-4.77-6.13-4.73q-31.73.28-63.46,0c-3.76,0-5.6,1-6.71,4.76-4,13.7-8.54,27.25-12.58,40.94-1.15,3.9-3.08,5.24-7.09,5.1-8.15-.27-16.32-.05-24.48-.1-1.75,0-3.49-.26-5.88-.46,4-12.17,7.75-23.64,11.56-35.08Q851.6,253,879.35,169.32c1.59-4.81,3.69-6.44,8.74-6.2,9.64.45,19.33.46,29,0,4.85-.23,6.51,1.64,7.89,5.95q29.81,93.21,59.95,186.3C986.57,360.53,988.22,365.71,990.1,371.55Zm-60.89-78.64-26.53-97.77-1.61.23-29.54,97.54Z"/><path class="cls-1" d="M1429.52,372.05c-12.53,0-24.17.16-35.8-.22-1.41,0-3.42-2.79-4-4.64-4.11-13.67-8.06-27.39-11.75-41.17-1-3.6-2.63-4.64-6.24-4.62q-31.74.24-63.48,0c-3.61,0-5.29,1.08-6.34,4.57-4.18,13.82-8.8,27.52-12.92,41.36-1.12,3.77-2.93,4.94-6.69,4.86-10-.21-19.9-.07-30.47-.07.75-2.79,1.2-4.85,1.86-6.84q32.82-98.28,65.57-196.56c1.37-4.14,3.13-5.74,7.61-5.58,10.32.36,20.66.27,31,0,3.65-.09,5.14,1.11,6.25,4.6q26.22,82.1,52.72,164.09,5.58,17.31,11.09,34.63C1428.44,368,1428.84,369.63,1429.52,372.05Zm-87.1-176.77-1.62-.06-29.74,97.56h57.59Z"/><path class="cls-1" d="M499.3,371.36c.58-2.1.94-3.69,1.45-5.23q32.93-98.78,65.81-197.56c1.39-4.23,3.38-5.6,7.8-5.43,9.81.36,19.67.38,29.48,0,4.63-.18,6.64,1.27,8.06,5.73Q638.24,251.69,665,334.41c3.9,12.15,7.84,24.29,11.92,36.92a25.43,25.43,0,0,1-4.06.75c-10,.06-20-.07-30,.09-3.52.06-4.87-1.44-5.76-4.7-3.75-13.77-7.88-27.45-11.64-41.22-1-3.64-2.68-4.91-6.56-4.87q-31.5.31-63,0c-3.8,0-5.58,1.11-6.7,4.82q-6.31,21-13.32,41.75c-.57,1.7-2.92,3.9-4.51,4-9.66.36-19.33.18-29,.14A18.41,18.41,0,0,1,499.3,371.36Zm90.38-176.23-1.55,0c-9.88,32.38-19.76,64.76-29.8,97.68H616Z"/><path class="cls-1" d="M1845.83,163.51c1.91-.1,3.53-.25,5.15-.25,32.16,0,64.32.07,96.47-.11,4.33,0,6,1,5.69,5.53a163.58,163.58,0,0,0,0,18c.19,4-1.33,5-5.19,5-19.82-.18-39.65-.09-59.48-.09h-5.75c-.2,2.14-.49,3.76-.5,5.38,0,15.83.1,31.66-.09,47.49,0,4.36,1.45,5.77,5.81,5.72,18.82-.19,37.65,0,56.48-.15,4,0,5.68.93,5.44,5.26-.35,6.31-.27,12.66,0,19,.14,3.58-1.18,4.56-4.61,4.54-18.82-.13-37.65.09-56.48-.17-5-.07-6.73,1.27-6.65,6.42.27,17.32.23,34.66,0,52-.06,4.7,1.29,6.35,6.21,6.29,20.65-.25,41.32-.1,62-.1h6.46c0,9.2.13,17.82-.2,26.41,0,.89-2.85,2.36-4.41,2.39-9.49.23-19,.12-28.49.12-24.16,0-48.32-.07-72.48.07-4.15,0-5.77-1-5.76-5.55q.22-99.22.12-198.44C1845.53,166.74,1845.71,165.29,1845.83,163.51Z"/><path class="cls-1" d="M476.66,167.51c-.65,10.56-1.26,20.29-1.85,29.77-8.69-2.46-16.81-5.53-25.21-6.91a71.77,71.77,0,0,0-21.75-.26c-11.15,1.62-19.31,9.86-20.94,19.43-2.05,12,1.71,22,12,28.49,9.66,6.17,19.88,11.46,29.93,17,14.77,8.12,27.36,18.24,34,34.45,13.49,33-3.14,78.2-47.31,84.27-21,2.88-41.38.34-61.38-6.33-2.87-1-3.91-2.47-3.65-5.44.82-9.27,1.47-18.54,2.24-28.6,2.08,1,3.78,1.85,5.49,2.67,14.81,7.08,30.23,11.62,46.73,8.27a29.23,29.23,0,0,0,15.62-48.71c-4-4.33-9.1-7.8-14.19-10.83-9.57-5.7-19.47-10.84-29.28-16.14-32.35-17.51-36.46-58.54-20.8-82.09,9.42-14.17,23.28-21.64,39.46-24.88C436.5,157.5,456.58,161.9,476.66,167.51Z"/><path class="cls-1" d="M704.37,163.27c12.17,0,23.47-.08,34.77.13,1,0,2.5,1.7,2.92,2.91.52,1.49.18,3.28.18,4.95V334.18c0,8.54,0,8.54,8.78,8.54,13.82,0,27.65.12,41.47-.07,4.09,0,5.61,1.19,5.4,5.41-.32,6.48-.26,13,0,19.49.14,3.57-1.27,4.62-4.64,4.61q-42-.12-84,0c-4.08,0-5-1.6-5-5.35.13-24,.06-48,.06-72V163.27Z"/><path class="cls-2" d="M307,41.48a10.7,10.7,0,0,0-4.85-8.33c-5.21-3.42-11-5.19-17-6.43A156.29,156.29,0,0,0,262.33,24c-6.34-.37-12.68-.65-19-.76a1.92,1.92,0,0,1-1.57-.66,15.92,15.92,0,0,0-10.14-5.05c-8.44-1.13-16.45.81-24.35,3.5-7.71,2.61-13.81,7.51-19.25,13.37-6.06,6.54-11.46,13.66-17.7,20a113.42,113.42,0,0,1-11.56,10.35,3.74,3.74,0,0,1-2.16.77c-4.68.31-9.36.56-14,1a197.12,197.12,0,0,0-20.93,3.28,224.78,224.78,0,0,0-26.13,7.15c-.07,0-.17,0-.41-.06a12.65,12.65,0,0,1,3.87-3c3.35-1.77,7-2.82,10.49-4.17a19.14,19.14,0,0,0,8.18-5.3c2.61-3.06,6.38-4.57,10-6.14,6.64-2.88,13.62-4.8,20.47-7.09a56.67,56.67,0,0,0,9-3.58,14.75,14.75,0,0,0,2.18-1.41c2.68-2.16,2.14-5.71-1.06-7.07-2.49-1-5-.47-7.39.19-4.66,1.27-9,3.41-13.4,5.3a45.13,45.13,0,0,1-8.29,3c-.93.2-2,.55-2.7-.31s-.29-2,.2-2.94a34.53,34.53,0,0,1,6-7.67c4.64-5,9.74-9.45,14.09-14.68a21.85,21.85,0,0,0,3.84-6c1.41-3.59-.44-7-4.13-7.49a7,7,0,0,0-4.85,1.52,38.36,38.36,0,0,0-8.07,8.27c-4.85,6.2-9,12.9-13.77,19.15A24.55,24.55,0,0,1,116,41.8c-.62.5-1.29,1.33-2.15.76s-.64-1.46-.55-2.29A43.77,43.77,0,0,1,115,32.69c1.75-5.92,4-11.7,5.37-17.73.61-2.61,1.23-5.24.71-8a4.32,4.32,0,0,0-7.14-2.73,12.36,12.36,0,0,0-3.85,5.92c-1.91,5.14-2.77,10.53-3.68,15.91s-1.44,10.82-2.87,16.1c-.05.21-.15.41-.2.62-.73,2.85-2.14,2.62-4,1-2.1-1.9-3.24-4.48-4.48-7-1.94-3.87-3.47-8-5.9-11.57-1.22-1.81-2.51-3.59-4.84-4.07a5.29,5.29,0,0,0-5,1.76c-1.33,1.37-1.18,3-.54,4.63,1.1,2.73,3,4.94,4.79,7.26,3.43,4.55,6.82,9.11,8.8,14.53a43.88,43.88,0,0,1,1.27,4.48,1.42,1.42,0,0,1-.84,1.92C85.42,59.89,78.29,64,71.23,68.3a86.13,86.13,0,0,0-15.5,11.41c-5.88,5.68-9,12.45-8.38,20.74a5.43,5.43,0,0,0,1.82,3.48c2.37,2.4,5.43,3.53,8.54,4.52a86.46,86.46,0,0,0,16.18,3.12c4.38.52,8.78.81,13.48,1.13-2.27,1.27-4.31,2.37-6.31,3.53a108.61,108.61,0,0,0-40.66,40.6,114.14,114.14,0,0,0-13.18,37,131.72,131.72,0,0,0-2,26.07A160,160,0,0,0,32.32,263c7.26,23.82,18.91,45.38,33.76,65.27a256.09,256.09,0,0,0,23.39,27.15c2.5,2.53,5,5.11,7.46,7.71a49.65,49.65,0,0,0-7.62,3.8c-4.83,3-8.81,6.79-10.45,12.48-1.47,5.07-.57,10,1.34,14.72,2.86,7.12,7.51,13.06,12.46,18.79,3.78,4.38,8,8.35,11.91,12.61.82.89.48,1.18-.41,1.48a9,9,0,0,1-6.33-.54,43.49,43.49,0,0,1-9.41-5.5c-5.72-4.12-11-8.79-16.59-13.07-3.58-2.75-7.16-5.52-11.42-7.19a9.13,9.13,0,0,0-4.59-.67c-4,.56-5.84,4.56-3.51,7.89a22.58,22.58,0,0,0,6.34,5.54c5.71,3.82,11.88,6.84,17.84,10.23a71.28,71.28,0,0,1,9.3,6,9.44,9.44,0,0,1,2.86,3.17c.5,1.06.29,1.43-.86,1.49a22,22,0,0,1-6.54-1c-8.63-2.21-17-5.3-25.5-7.95a153,153,0,0,0-20.06-5.29c-3.46-.59-7-1.1-10.47-.16a5.93,5.93,0,0,0-3.77,2.58l-.08-.1h0c-.69.68-.52,2.22-.37,3.08s.45,1.55.67,2.34c3.75,3.79,8.6,5.05,13.35,6.38a241.72,241.72,0,0,0,25.17,5.09c8.32,1.4,16.72,2.4,24.94,4.45.83.2,1.63.53,2.63.86a10,10,0,0,1-4.25,1.71c-6,1.43-12,2.75-17.93,4.21a39.58,39.58,0,0,0-11,4.17,9.39,9.39,0,0,0-3.64,3.46,4.9,4.9,0,0,0-.07,5.2c1.06,1.69,2.87,1.84,4.65,1.66,4.68-.47,8.94-2.36,13.22-4.14,6.47-2.69,12.75-5.84,19.41-8.11a25.84,25.84,0,0,1,4.92-1.14c.57-.08,1.27-.07,1.58.36s-.2,1-.48,1.38c-2.22,3.24-5,6-7.4,9.1a20.51,20.51,0,0,0-3.68,5.94c-.73,2.18-.43,3.61.92,4.6a5.13,5.13,0,0,0,5.85.23,11,11,0,0,0,3-3.43c6.08-10.15,15-16.46,25.8-20.41,1.36-1.48,3.51-1.74,5.43-1.76.47-.12,1.09-.27,1.91-.53a46.47,46.47,0,0,1,5.55-1.4c5.23-1,7.22-4.58,7.52-9.4s-.74-9.24-2-13.72c-.78-2.76-1.67-5.49-2.52-8.23a1.51,1.51,0,0,1-.05-1.15c1.76,2.49,3.11,5,4.55,7.37,5.84,9.79,11.27,19.8,16.16,30.09,3.2,6.76,6.14,13.63,8.76,20.64a197.75,197.75,0,0,1,8.6,29.19,128,128,0,0,1,2.76,33.69,91.6,91.6,0,0,1-13.11,43.07c-1.32,2.16-2.71,4.25-4.17,6.31a2.9,2.9,0,0,1-.52.57,1.11,1.11,0,0,1-.12.27,7.26,7.26,0,0,1-1,1.48l-.21.18a9.59,9.59,0,0,1-1.44,1.9c-9.74,12-21.78,21.39-34.93,29.39-9.72,5.91-19.94,10.85-30.18,15.77a101.72,101.72,0,0,0-13.86,7.48,12.18,12.18,0,0,0-3.46,3.29,4.42,4.42,0,0,0-.66,2.85A2.5,2.5,0,0,0,73.81,649a19.82,19.82,0,0,0,7.52-.16c14.66-2.43,28.31-7.87,41.6-14.28A204.09,204.09,0,0,0,165.61,607,170.23,170.23,0,0,0,186.1,586.8l.24-.26a7.76,7.76,0,0,1,2.44-2.83l0,0c2.12-2.64,4.19-5.32,6.15-8.09a141.43,141.43,0,0,0,21.92-46.68,2.68,2.68,0,0,1,.17-.48,1.4,1.4,0,0,1,.1-.39,6.41,6.41,0,0,1,.13-1,2.45,2.45,0,0,1,.38-.89,2.15,2.15,0,0,1,.09-.92,113.18,113.18,0,0,0,2.49-13.42,1.05,1.05,0,0,1,.21-.58c.05-.6.12-1.19.19-1.78,0-.1,0-.2.07-.3s0-.54.07-.93a149.46,149.46,0,0,0,.93-16.65,166.63,166.63,0,0,0-.84-17.44c-.7-6.53-1.62-13-2.94-19.44q-.9-4.41-2-8.77a4,4,0,0,1-.1-.56l-.09-.27a1.48,1.48,0,0,1-.12-.29,1.91,1.91,0,0,1-.06-.48,2.43,2.43,0,0,1-.26-1.1.56.56,0,0,1,0-.12,2.45,2.45,0,0,1-.29-.72c-1.11-4.3-2.34-8.57-3.77-12.78a.31.31,0,0,0,0-.1,13.4,13.4,0,0,1-.56-1.3c-.16-.47-.29-1-.42-1.44a1.43,1.43,0,0,1,0-.46,1.3,1.3,0,0,1-.08-.34,3.53,3.53,0,0,1-.19-.47c-1-2.88-2.07-5.71-3.11-8.57a1.46,1.46,0,0,0-.07-.19,34.79,34.79,0,0,1-1.79-4.87s0,0,0-.06c-3.85-9.17-8-18.18-12.64-27.22l8.66,4.82a5.69,5.69,0,0,0,1.15.59,5.32,5.32,0,0,1,1.71.77,5.77,5.77,0,0,1,3.14,1.57,2.8,2.8,0,0,1,.73.22,21.82,21.82,0,0,0,8.21,1.87c3.92,0,6.53-2,8.38-5.22a49.21,49.21,0,0,0,3.52-8.54,90.88,90.88,0,0,1,7.87-17.86,3.1,3.1,0,0,1,.31-.44,4.7,4.7,0,0,1,.56-1c.28-.35.49-.73.75-1.07,0-.28.25-.45.38-.66,2.49-4.17,6.18-7,10.4-9.2,2-1.07,4.12-2.06,6-3.32a13.94,13.94,0,0,1,1.93-1c.42-.29.86-.55,1.32-.81a30,30,0,0,1,4-2.06c.4-.27.82-.47,1.2-.71a30.27,30.27,0,0,0,5.69-4.32c1.94-2,2.47-4,1.51-5.86a6.19,6.19,0,0,0-6.45-3.19c-4,.63-7.14,2.85-10.36,5a78.18,78.18,0,0,1-8.11,5.21c-.67.34-1.5,1-2.15.53s0-1.4.12-2.08a124.64,124.64,0,0,1,4-12c1.49-4.12,3-8.25,4.39-12.4a3.33,3.33,0,0,1,.26-.59l0-.16a18.64,18.64,0,0,0,.66-2,.29.29,0,0,1,0-.09,2.48,2.48,0,0,1,.14-.64,60.43,60.43,0,0,0,3-13.76,32.27,32.27,0,0,1-.17-3.54,5.15,5.15,0,0,1-.11-.59c-.34-2.72-2.18-4.09-4.35-4a3.43,3.43,0,0,0-2,.74,1.24,1.24,0,0,1-.79.66h0l-.06,0h0l-.1.13c-.07.08-.28.44-.39.62a12.33,12.33,0,0,1-.8,1.42,1.52,1.52,0,0,1-.3.32,8.68,8.68,0,0,0-.58.92A74.19,74.19,0,0,0,241,305.15a18.76,18.76,0,0,1-.69,2.16,12.11,12.11,0,0,1-.3,1.19c-2.14,7.38-3.82,14.88-6.25,22.18a14.7,14.7,0,0,1-2.4,5,16.86,16.86,0,0,1-.86-6.54c-.12-7.69.43-15.37.87-23,.08-1.37.08-2.76.22-4.2a11.07,11.07,0,0,1,.08-4.69c0-.08,0-.16.07-.23,0-.23,0-.46,0-.7.35-5.22.5-10.45.44-15.91a1.26,1.26,0,0,1-.13-.57v-4.39a1.08,1.08,0,0,1-.16-.83,23.89,23.89,0,0,0-.17-2.54c-.43-2.16-.59-4.39-1.66-6.39s-2.65-2.74-4.69-1.93a14.08,14.08,0,0,1-1.34.86,3.91,3.91,0,0,0-.95.91l-.26.59a.93.93,0,0,1-.33.4c-1.69,2.87-2.17,6.12-2.58,9.36s-.56,6.48-.68,9.77a.92.92,0,0,1,.12.57q-.16,1.26-.21,2.52a1.86,1.86,0,0,1,0,.34c.14,4.87.25,9.73.47,14.6.27,5.9.69,11.8.94,17.71a103.39,103.39,0,0,1,.11,13.29,1.56,1.56,0,0,1-.35,1.15,2.65,2.65,0,0,1-.94-1.6c-1.65-4.5-2.67-9.17-3.9-13.78-1.76-6.58-3.36-13.22-6.29-19.43A14.73,14.73,0,0,0,205,295c-3.19-2.34-7-.87-7.51,3-.37,2.64.37,5.18,1,7.69,1.86,6.9,4.66,13.46,7.22,20.11,2.14,5.55,4.35,11.08,6.08,16.78.11.35.2.7.34,1.22l.06.12c-.08-.19.08.18.08.18l.12.25a4.63,4.63,0,0,1,.3.81,1.46,1.46,0,0,1,0,.51c.51,2.47,1.25,4.91.75,7.48a4.73,4.73,0,0,1-.33,1.11c-.29.6-.56.79-1,.05-1.87-3-3.57-6-5.3-9.34h0a1.5,1.5,0,0,1-.19-.61v0l-.13-.19,0,.05a1.66,1.66,0,0,1-.25-.45c-.25-.2-.33-.57-.48-.85-2.13-4.28-4.11-8.64-6.42-12.83a28.66,28.66,0,0,0-6.53-8.54c-4.06-3.36-8.75-3.71-13.69-2.82a51.34,51.34,0,0,0-12.5,4.4c-.64.29-1.07.53-1.59-.29-5.35-8.36-11.57-16.08-17.37-24.11a112.35,112.35,0,0,1-12.44-21.64c-.06-.16-.1-.33-.15-.5a8.84,8.84,0,0,1-1.3-3.12,2.23,2.23,0,0,1-.45-1.1,76.35,76.35,0,0,1-3.69-10.93v0l-.09-.08,0-.11-.19-.58a.21.21,0,0,1,0-.2l0-.05a43.54,43.54,0,0,1-2.4-13.81l-.11-1.88a3.17,3.17,0,0,1,0-1.53l0-.78a46.78,46.78,0,0,1,1.44-12c.05-.26.1-.52.14-.77a1.75,1.75,0,0,1,.27-1.18l.17-.67a55.64,55.64,0,0,1,2.81-9.82,33.67,33.67,0,0,1,2.13-5.26l0-.05a17.6,17.6,0,0,1,1.75-3.94l.07-.28.18-.25,0,0a47.15,47.15,0,0,1,4.37-8.36l0,0a4.68,4.68,0,0,1,1.63-2.53,5.63,5.63,0,0,1,1-2.12,50,50,0,0,1,5.14-7.24c-1.4,2.42-2.65,4.92-4,7.35,0,.15-.08.3-.13.45a1.52,1.52,0,0,1-.47,1l-.07.28a13.32,13.32,0,0,1-.92,2.89l0,0c-.29,2.43-.78,4.84-.36,7.33.25,1.5.75,2.9,1.12,4.36,3.05,6.83,8.63,9.62,15.8,10,8.61.41,16.8-1.71,24.93-4.14,4.38-1.31,8.64-2.92,12.91-4.53l.09,0a1.27,1.27,0,0,1,.54-.29c1-.25,1.8-.82,2.77-1,3.48-1.28,6.69-3.26,10.29-4.23a12.7,12.7,0,0,1,5.18-.21,2.65,2.65,0,0,1,.39.08,5.93,5.93,0,0,1,2.4.42,3.87,3.87,0,0,1,.59.09,78.85,78.85,0,0,1,13.38,5.07c3.13,1.41,6.18,3,9.58,3.7a7.27,7.27,0,0,0,3.62,0c2.42-.77,3.63-4.36,2.32-6.8a7.88,7.88,0,0,0-3.79-3.26c-3.84-1.91-8.09-2.64-12-4.19a10.24,10.24,0,0,1-3.09-1.65c-1.58-1.34-1.38-3,.51-3.92,2.4-1.14,5-1.35,7.6-1.68,5.17-.67,10.39-.92,15.48-2.12,2.42-.58,4.84-1.23,6.62-3.12a4.28,4.28,0,0,0-2.11-7.34c-2.52-.61-5-.09-7.48.43-5.32,1.12-10.44,3-15.69,4.33a25.94,25.94,0,0,1-3.59.63c-1.5.15-2-.55-1.41-2a17.8,17.8,0,0,1,3.9-5.17c4.05-4.19,8.56-7.89,12.73-12a20.77,20.77,0,0,1,2.39-2c.84-1,1.75-2,2.6-3.05a.17.17,0,0,1-.07-.09s.11-.15.17-.22c1.3-1.93,2.81-3.74,3.34-6.11.59-2.66-.76-5.2-3.14-5.75a5.4,5.4,0,0,0-3.85.83,27.35,27.35,0,0,0-6.64,5.63c-4.87,5.16-9.11,10.85-13.75,16.21a37.39,37.39,0,0,1-6.17,6.15c-.71.51-1.59,1.41-2.38.88s-.18-1.64.06-2.42c1.4-4.46,3.42-8.69,5.23-13a4.51,4.51,0,0,1,.48-.82c0-.12.07-.24.11-.35.25-.72.66-1.44.9-2.18l-.2.18c.34-1.63.65-2.91.87-4.2a9.57,9.57,0,0,0-.07-3.88,3.86,3.86,0,0,0-3-3,3.57,3.57,0,0,0-3.64,1.19c-2.3,2.36-3.35,5.38-4.4,8.36-1.93,5.48-3.64,11.05-5.59,16.54-1.42,4-2.92,8-5.83,11.27a3.54,3.54,0,0,1-3,1.39,29.61,29.61,0,0,0-13.24,2.27,1.44,1.44,0,0,1-1.37.16,53.72,53.72,0,0,1,2.87-5.34c4.53-7.82,9.56-15.34,13.89-23.29,4.64-8.5,8.57-17.28,10.58-26.82.44-2.07.75-4.18,1-6.28.12-.8.41-1.08,1.24-1.1,16-.29,30.37-5.64,43.57-14.41A119.92,119.92,0,0,0,286.05,90a12.86,12.86,0,0,1,1.44-2.39,6.48,6.48,0,0,1,1.78-1.76c1.22-1.76,2.41-3.43,3.54-5.13,5.5-8.27,10.06-17,12.74-26.59A33.33,33.33,0,0,0,307,41.48Zm-99.5,395a4.55,4.55,0,0,1,.74,3.6,21.7,21.7,0,0,1-8.25,13c-1.6,1.16-2.71.85-3.6-.9a104.25,104.25,0,0,1-8.27-20.32c-.11-.42-.18-.85-.25-1.27-.58-3.33.37-4.46,4.72-4.39,2.07.09,4.67,1.47,7.17,3.06A24.74,24.74,0,0,1,207.45,436.47Zm0-67a7.69,7.69,0,0,1,5.6,3.63,14.12,14.12,0,0,1,2.76,8.11c0,2.74-1.16,3.85-5,3.8a29.08,29.08,0,0,1-15.27-7.25,3.77,3.77,0,0,1-.35-4.78,6.92,6.92,0,0,1,3.28-2.48A17.73,17.73,0,0,1,207.44,369.43Zm-26.12-34.54a9.4,9.4,0,0,1,1.33-3.37,2.3,2.3,0,0,1,3.48-.7,22.39,22.39,0,0,1,5.63,5.73,61.79,61.79,0,0,1,9,15.63c.88,2.34.58,4.38-1.24,6.05-4.18,3.83-9,6.08-14.83,5.85a3.21,3.21,0,0,1-3.33-3.13,122.38,122.38,0,0,1-1-14.77A59.22,59.22,0,0,1,181.32,334.89Zm.4,58.68c4.08,2.5,7.86,5.46,12.1,7.7,1.16.63,1.14,1.74,1.17,2.88-.84,5.1-2.81,9.63-6.86,13-1.31,1.11-2.53,1-3.91-.07a18.26,18.26,0,0,1-4.28-5.37,73.65,73.65,0,0,1-8.08-19,9.46,9.46,0,0,1-.24-1.27c-.28-2,.39-2.63,2.41-2A36.68,36.68,0,0,1,181.72,393.57Zm-13.2-57.75a9.46,9.46,0,0,1,3.54-.74,2,2,0,0,1,2.26,1.84c.37,2,.29,4.08.51,6.19-.22,9.27-.63,18.59-3.15,27.67a17.43,17.43,0,0,1-2.4,5.46,3.94,3.94,0,0,1-4.42,1.72,13.26,13.26,0,0,1-5.9-3.17,42,42,0,0,1-11.62-16.14,6.78,6.78,0,0,1,.71-6.78,39.26,39.26,0,0,1,8.47-8.79A44.94,44.94,0,0,1,168.52,335.82ZM135.13,313.4A62.21,62.21,0,0,1,151.74,321a15.38,15.38,0,0,1,3.74,3.41c1.46,2,1.47,3.65-.15,5.54a23,23,0,0,1-7.52,5.29c-2.4,1.2-4.91,2.17-7.42,3.14a6.46,6.46,0,0,1-5.39-.25,24.11,24.11,0,0,1-7.55-6.13,43.58,43.58,0,0,1-9.06-14.93,8.91,8.91,0,0,1-.53-2.8c0-2.3.55-3,2.86-3.35.51-.08,1-.06,1.55-.09A48.12,48.12,0,0,1,135.13,313.4Zm-6.66-29.07a6.07,6.07,0,0,1,1.28,7.81,22.73,22.73,0,0,1-6.87,7.53,43.36,43.36,0,0,1-7.33,4.44c-2.53,1.23-4.87.75-7.18-.55a25.43,25.43,0,0,1-7.72-7.28,37.16,37.16,0,0,1-6.89-14c-.86-3.87.23-5.52,4.15-6.13a20.11,20.11,0,0,1,4-.32c8.14.44,16,2.06,23.19,6.05A15.53,15.53,0,0,1,128.47,284.33ZM72.11,230c.06-3.55,1.67-5.18,5.25-5.4a28.74,28.74,0,0,1,11.21,1.94,65.5,65.5,0,0,1,21.29,11.78,26.37,26.37,0,0,1,3.09,3.16c2.4,2.9,2.6,6,1.1,9.37a25.05,25.05,0,0,1-8,9.42,34.46,34.46,0,0,1-15.19,7.06c-3.53.62-6.17-.78-8.44-3.23a29.89,29.89,0,0,1-5.78-9.82,64.6,64.6,0,0,1-4.5-22.06C72.11,231.47,72.1,230.73,72.11,230ZM68.8,206c0-1.25,0-2.52,0-3.78.19-9.32,1.59-18.39,6-26.78a16.53,16.53,0,0,1,3.55-4.63,6.71,6.71,0,0,1,7.47-1.41,29.74,29.74,0,0,1,8.44,5.34,80.59,80.59,0,0,1,18.85,23.07,23.18,23.18,0,0,1,2,5.19,5.92,5.92,0,0,1-2.28,6.8c-3.35,2.56-7.25,3.88-11.26,4.92a60.46,60.46,0,0,1-18.07,1.87,28.66,28.66,0,0,1-7.8-1.33C70.7,213.56,69,211.27,68.8,206Zm55.08-24.14a34,34,0,0,1-10-2.65,76.31,76.31,0,0,1-21.49-12.35,27.93,27.93,0,0,1-2.68-2.65c-2.11-2.33-2.34-5.13-1.56-8,2.09-7.66,6-14.16,12.58-18.88a13.56,13.56,0,0,1,1.7-1,5.3,5.3,0,0,1,6.39.67,37.79,37.79,0,0,1,7.47,9.15,92.29,92.29,0,0,1,11.58,26.34,20.9,20.9,0,0,1,.71,5.4C128.55,181,127.62,181.87,123.88,181.82Zm24.42,5.71s-.07-.06-.07-.09.06-.06.08-.08.07.06.07.09S148.33,187.51,148.3,187.53Zm-1.16-30.28c-1.34,4.58-3.59,5.58-7.9,3.44-3.8-1.9-6.76-4.86-9.59-7.94a87.34,87.34,0,0,1-13.82-19.82,7.67,7.67,0,0,1,.66-8.43c3.92-5.64,9.29-9.55,15.25-12.75a25.53,25.53,0,0,1,5.66-2.29c2.32-.6,3.38-.22,4.75,1.84a29.15,29.15,0,0,1,3.66,9.55,101.24,101.24,0,0,1,2.71,23C148.49,148.6,148.38,153,147.14,157.25Zm33.57,55.17A43,43,0,0,1,169.06,215a34.1,34.1,0,0,1-5.72.26,25.09,25.09,0,0,1-6.86-.59c-4.35-1-5.89-3.68-4.23-7.82,1.8-4.47,4.9-7.82,9.66-9.15,2.9-.81,5.78-.08,8.54.92A28.3,28.3,0,0,1,182.1,206C185,209.08,184.6,210.85,180.71,212.42Zm-25.22-85.5a72.62,72.62,0,0,1,3.13-22.45,21.24,21.24,0,0,1,3.1-6.56c1.77-2.36,3.61-2.73,6.05-1.13,3.86,2.53,6.86,6,9.95,9.32,4.07,4.4,7.81,9.1,12.13,13.27a2.59,2.59,0,0,1,.26,3.45,20.86,20.86,0,0,1-5,5.59c-4.38,3.63-8.83,7.18-13.21,10.82-1.67,1.38-3.22,2.92-4.82,4.38a4.12,4.12,0,0,1-.4.33c-3.92,2.91-7.06,2.13-9.06-2.32a29.34,29.34,0,0,1-2.07-10C155.39,130.06,155.49,128.48,155.49,126.92Zm34.12,34.91a36.27,36.27,0,0,1-9.48,12.75c-4.75,4-8.8,3.09-12.81-1.32-3.17-3.48-3.32-6.41-1-10.72A54.88,54.88,0,0,1,175.14,151a79,79,0,0,1,13.27-11.49,16.84,16.84,0,0,1,2.75-1.46c1.25-.54,1.9-.26,2.51,1a10.08,10.08,0,0,1,.75,4.58A48,48,0,0,1,189.61,161.83Zm71.65-66.48a40.59,40.59,0,0,1-21.35,9.11,22.88,22.88,0,0,1-2.87,0,15,15,0,0,1-5.29-.5c-3.49-1-5.24-3.22-5.52-6.84-.44-5.85,1.24-11.23,3.53-16.48a40.53,40.53,0,0,1,6.38-10.23c3.27-3.81,7.23-5.94,12.38-5.75a40,40,0,0,1,11.92,1.78c2.93,1,3.14,2.08.91,4.28a51.59,51.59,0,0,1-8.06,6,128.88,128.88,0,0,0-10.57,7.38,16.11,16.11,0,0,0-3.82,4.08c-1.58,2.61-.1,5.3,3,5.39a11.91,11.91,0,0,0,5.9-1.79c4.25-2.24,8-5.25,11.79-8.11,1.81-1.35,3.56-2.79,5.5-4a11.24,11.24,0,0,1,1.59-.88c1.62-.7,2.09-.37,2.17,1.41C269.11,86.66,265.92,91.42,261.26,95.35ZM290.77,34.4c2.84,1.84,2.89,3.94,1.87,6.77-1.73,4.78-5.23,8.14-9.14,11.11a26.13,26.13,0,0,1-10.31,5.06,7.84,7.84,0,0,1-7.43-2.05c-3-2.81-4.72-6.39-6.11-10.17a45.26,45.26,0,0,1-1.86-7.42c-3.57.66-7.09,1.56-10.61,2.43a13.13,13.13,0,0,1-1.53.23c-.56,2.84-2.26,5.06-4,7.2a29,29,0,0,1-11.77,9c-2.85,1.12-4.66.67-6.8-1.52a17.68,17.68,0,0,1-3.31-5.67,63.41,63.41,0,0,0-6.43,2.84c-.27.13-.58.23-.63.59,3.14,1.34,4.22,3.86,4.25,7.1a44.12,44.12,0,0,1-2.66,14.25,78.5,78.5,0,0,1-10.17,20.88,31.93,31.93,0,0,1-3.26,3.9,7.84,7.84,0,0,1-8.92,2c-4-1.41-7.19-4-10.12-7a52,52,0,0,1-9.61-13.39,2.35,2.35,0,0,0-.74-1.05A84.64,84.64,0,0,0,165.05,86c-2.49,3-6,4.38-9.23,6.13-8.15,4.4-16.15,9-23.9,14.11-7,4.57-13.76,9.43-20.26,14.67A169.29,169.29,0,0,0,88.4,143.48a120.26,120.26,0,0,0-17,26,100.12,100.12,0,0,0-9.81,44,113.35,113.35,0,0,0,2.8,23.63,151.81,151.81,0,0,0,12.37,34.36,232.17,232.17,0,0,0,19,31.55q7.88,11.11,16.58,21.57c4.16,5,8.5,9.88,12.61,14.93,4.88,6,9.75,12,14.46,18.13,6.15,8,12.12,16.1,17.82,24.42a338.28,338.28,0,0,1,20.16,33.16,219,219,0,0,1,11.77,26.26A171.19,171.19,0,0,1,194.89,460a2.26,2.26,0,0,0,.52,1.3,43.94,43.94,0,0,1,8-.88c2.15.09,3.24.93,3.74,3.06a21.14,21.14,0,0,1-.51,10.18A29.76,29.76,0,0,1,201.44,485a12.44,12.44,0,0,1-2.16,2.07c.1,4,.42,8,.35,12a38.44,38.44,0,0,1,3.94.74c2.22.77,2.8,1.65,2.17,3.89a20.06,20.06,0,0,1-6.27,9.78l-.75.7A165,165,0,0,1,196.34,531c.58.28,1.17.55,1.75.84,1.57.82,1.95,1.6,1.41,3.27a16.68,16.68,0,0,1-4.94,7c-.38.35-.74.72-1.11,1.08a37.67,37.67,0,0,1-2.8,9.86,124.84,124.84,0,0,1-19.42,31,160.63,160.63,0,0,1-19.83,19.55,207.06,207.06,0,0,1-26.07,18.36,254.09,254.09,0,0,1-25.9,13.45c-7.36,3.34-14.87,6.3-22.45,9.08-.92.34-1.88.61-3,.95a3.09,3.09,0,0,1,1.46-2.15A54,54,0,0,1,86,637.2c8.61-4.24,17.32-8.29,25.77-12.87a205.61,205.61,0,0,0,17.91-10.91,124,124,0,0,0,26.58-24,91.92,91.92,0,0,0,17.05-32,99.32,99.32,0,0,0,3.89-21.21,125.44,125.44,0,0,0-1-26.9,187,187,0,0,0-11-40.78,309.48,309.48,0,0,0-18.47-38.95c-4-7.29-8.35-14.45-12.8-21.51a1.68,1.68,0,0,0-2-.85c-.91.23-1,1-1,1.77a23.4,23.4,0,0,0,1.41,5.53,106.74,106.74,0,0,1,4.22,15.58,22.16,22.16,0,0,1,.17,7.79c-.65,3.37-2.47,5.13-5.82,5.84a80.86,80.86,0,0,0-21.45,7.53,46,46,0,0,0-17.37,15.93A25.1,25.1,0,0,1,89.21,471a2.86,2.86,0,0,1-3.78.42,1.7,1.7,0,0,1-.53-2.11,16.36,16.36,0,0,1,3-4.88c2.39-3,4.85-5.91,7.27-8.87a17.19,17.19,0,0,0,1-1.5c.64-1,1.14-2.09.44-3.18a3.36,3.36,0,0,0-3.22-1.29c-3.73.14-7.12,1.53-10.51,2.89-7.41,3-14.54,6.65-22.13,9.21A18.92,18.92,0,0,1,54.65,463c-1.93,0-2.84-1.32-2.22-3.15s2.32-3,4-3.87c4.59-2.39,9.6-3.54,14.58-4.74s9.89-2,14.72-3.45a10,10,0,0,0,3.09-1.34c1.54-1.13,1.48-2.73-.19-3.64a21.23,21.23,0,0,0-6.6-1.93c-7.86-1.4-15.76-2.63-23.63-4-9.8-1.68-19.63-3.23-29-6.7a19.16,19.16,0,0,1-5-2.71c-1-.75-1.85-1.7-1.5-3.08A3.56,3.56,0,0,1,25.53,422a14.93,14.93,0,0,1,6.34-.36c8.59,1,16.76,3.69,25,6.26,8.5,2.66,16.84,5.83,25.53,7.82a30.65,30.65,0,0,0,4.24.67c1.53.14,3.24.19,4.06-1.39s0-3.2-1.11-4.53c-2-2.53-4.74-4.18-7.44-5.85C76.53,421.16,70.64,418.25,65,415c-3.52-2.05-7.08-4.08-10-7a7.51,7.51,0,0,1-1-1.21c-.66-1-1.1-1.95-.27-3.11A3.54,3.54,0,0,1,57.27,402a11.12,11.12,0,0,1,3.59,1.12c4.42,2.06,8.14,5.15,11.92,8.14,5.72,4.52,11.23,9.31,17.32,13.35,3.12,2.08,6.35,4,10.12,4.59a8,8,0,0,0,6.35-1.19,1.66,1.66,0,0,0,.54-2.56,21.65,21.65,0,0,0-3.32-3.83c-5-5.11-10-10.16-14.28-15.88-3.64-4.84-7-9.89-8.56-15.82-1.31-4.84-1.09-9.56,1.67-13.93a23.59,23.59,0,0,1,8.15-7.55,50.87,50.87,0,0,1,8.85-4.13c1.32-.48,1.36-.58.33-1.59-3.32-3.26-6.75-6.41-10-9.76a275.4,275.4,0,0,1-22.8-26.75,224.12,224.12,0,0,1-17-26.37,202,202,0,0,1-13.92-31.4,178.56,178.56,0,0,1-7.05-27.75,131.49,131.49,0,0,1-1.75-16.57c-.15-3.53-.24-7-.17-10.57A124.88,124.88,0,0,1,30,190.47,112.73,112.73,0,0,1,39.47,163,105.26,105.26,0,0,1,55,140c10.85-12.23,24-21.3,38.8-28,.41-.19.93-.26,1.23-.9C94,111,93,110.87,92,110.83a174.24,174.24,0,0,1-27.06-2.7,39.71,39.71,0,0,1-11.61-3.73,14.76,14.76,0,0,1-2.35-1.64,4.37,4.37,0,0,1-1.57-3.42C49,91.6,52.44,85.6,57.91,80.54c5.78-5.35,12.48-9.39,19.22-13.37C83,63.69,88.89,60.28,94.81,56.88c1-.57.94-1.32.8-2.21A36.26,36.26,0,0,0,90,40.49c-2.52-4-5.62-7.51-8.23-11.41a13.87,13.87,0,0,1-.81-1.33c-1.06-2.12-1-3,.29-3.91,1.63-1.11,3.28-.81,4.7.81a28.22,28.22,0,0,1,3.82,6.19c2.1,4.19,3.72,8.63,6.48,12.47,1.23,1.71,2.6,3.28,4.89,3.6a2.9,2.9,0,0,0,3.41-1.68c1.51-2.91,1.87-6.13,2.4-9.29,1.16-6.89,1.95-13.84,3.71-20.61.83-3.19,1.66-6.42,4-8.93a2.72,2.72,0,0,1,2.9-1A2.5,2.5,0,0,1,119.15,8a14.71,14.71,0,0,1-.1,2.73,73.22,73.22,0,0,1-3.15,12.21c-1.54,5-3.41,9.87-4.37,15a10.32,10.32,0,0,0-.14,4.39c.55,2.22,2.3,3.09,4.38,2.1s3.59-3,5-4.83c5.2-6.63,9.56-13.87,14.81-20.46a32.73,32.73,0,0,1,7.77-7.63c2-1.24,3-1.2,4.41-.09a2.84,2.84,0,0,1,1,3.35,17.05,17.05,0,0,1-3.67,5.95c-4.58,5.54-10,10.26-14.9,15.52-2.27,2.45-4.56,4.91-5.81,8.11a5.81,5.81,0,0,0-.27,3.08,3.06,3.06,0,0,0,3.22,2.49,15.16,15.16,0,0,0,5.82-1.28c4-1.47,7.82-3.35,11.76-5a36.27,36.27,0,0,1,8.4-2.76c1.65-.24,3.39-.62,4.81.78a1.68,1.68,0,0,1-.1,2.86c-2.57,2-5.67,3-8.69,4-5.88,2-11.82,3.84-17.68,5.9-4.8,1.69-9.51,3.61-13.63,6.72a12.91,12.91,0,0,0-3.07,3,6.88,6.88,0,0,1-2.66,2c-4,2-8.4,3.09-12.48,4.94-3,1.34-5.79,2.88-7.33,6-.48,1-1.23,2.18-.61,3,.44.61,1.64-.29,2.46-.58,5.21-1.82,10.5-3.41,15.83-4.84q8.73-2.34,17.64-4,7.7-1.4,15.46-2.2c3.72-.38,7.45-.74,11.18-.8A11.29,11.29,0,0,0,162,65a162.1,162.1,0,0,0,19.57-20c5.17-6.08,10.19-12.33,16.79-17a44.25,44.25,0,0,1,12.55-6,56,56,0,0,1,14.93-2.79c4.16-.15,8.26.37,11.93,2.62A8.13,8.13,0,0,1,240.16,24a3.26,3.26,0,0,0,2.9,1.31c4.09.12,8.18.18,12.26.37a209.62,209.62,0,0,1,24.89,2.25,64.28,64.28,0,0,1,16.88,4.74,4.94,4.94,0,0,1,.68.36c.18.11.33.26.46.78h-8A3.21,3.21,0,0,0,290.77,34.4Z"/><path class="cls-3" d="M171.46,79.57A84.64,84.64,0,0,0,165.05,86c-2.49,3-6,4.38-9.23,6.13-8.15,4.4-16.15,9-23.9,14.11-7,4.57-13.76,9.43-20.26,14.67A169.29,169.29,0,0,0,88.4,143.48a120.26,120.26,0,0,0-17,26,100.12,100.12,0,0,0-9.81,44,113.35,113.35,0,0,0,2.8,23.63,151.81,151.81,0,0,0,12.37,34.36,232.17,232.17,0,0,0,19,31.55q7.88,11.11,16.58,21.57c4.16,5,8.5,9.88,12.61,14.93,4.88,6,9.75,12,14.46,18.13,6.15,8,12.12,16.1,17.82,24.42a338.28,338.28,0,0,1,20.16,33.16,219,219,0,0,1,11.77,26.26A171.19,171.19,0,0,1,194.89,460a2.23,2.23,0,0,0,.52,1.3c-2.37.66-4.8,1.14-7.11,2a26.37,26.37,0,0,0-6.52,3.21c-1.78,1.33-2.46,2.89-1.9,4.73a14.64,14.64,0,0,0,1.35,3.1,35.28,35.28,0,0,0,7.15,8.39,23.06,23.06,0,0,0,6.65,4.51,4.57,4.57,0,0,0,4.25-.13c.1,4,.42,8,.35,12a22.4,22.4,0,0,0-8.7,1.33c-2.18.92-2.81,2.22-2.12,4.46a17.85,17.85,0,0,0,4.86,7.9c1.4,1.32,3,2.29,5.05,1.42A162.27,162.27,0,0,1,196.33,531a13.75,13.75,0,0,0-6.4-.46c-2.71.57-3.49,1.86-2.69,4.52a24.27,24.27,0,0,0,3.4,6.95c.72,1,1.52,1.62,2.81,1.22a37.67,37.67,0,0,1-2.8,9.86,124.84,124.84,0,0,1-19.42,31,160.63,160.63,0,0,1-19.83,19.55,207.06,207.06,0,0,1-26.07,18.36,254.09,254.09,0,0,1-25.9,13.45c-7.36,3.34-14.87,6.3-22.45,9.08-.92.34-1.88.61-3,.95a3.09,3.09,0,0,1,1.46-2.15A54,54,0,0,1,86,637.2c8.61-4.24,17.32-8.29,25.77-12.87a205.61,205.61,0,0,0,17.91-10.91,124,124,0,0,0,26.58-24,91.92,91.92,0,0,0,17.05-32,99.32,99.32,0,0,0,3.89-21.21,125.44,125.44,0,0,0-1-26.9,187,187,0,0,0-11-40.78,309.48,309.48,0,0,0-18.47-38.95c-4-7.29-8.35-14.45-12.8-21.51a1.68,1.68,0,0,0-2-.85c-.91.23-1,1-1,1.77a23.4,23.4,0,0,0,1.41,5.53,106.74,106.74,0,0,1,4.22,15.58,22.16,22.16,0,0,1,.17,7.79c-.65,3.37-2.47,5.13-5.82,5.84a80.86,80.86,0,0,0-21.45,7.53,46,46,0,0,0-17.37,15.93A25.1,25.1,0,0,1,89.21,471a2.86,2.86,0,0,1-3.78.42,1.7,1.7,0,0,1-.53-2.11,16.36,16.36,0,0,1,3-4.88c2.39-3,4.85-5.91,7.27-8.87a17.19,17.19,0,0,0,1-1.5c.64-1,1.14-2.09.44-3.18a3.36,3.36,0,0,0-3.22-1.29c-3.73.14-7.12,1.53-10.51,2.89-7.41,3-14.54,6.65-22.13,9.21A18.92,18.92,0,0,1,54.65,463c-1.93,0-2.84-1.32-2.22-3.15s2.32-3,4-3.87c4.59-2.39,9.6-3.54,14.58-4.74s9.89-2,14.72-3.45a10,10,0,0,0,3.09-1.34c1.54-1.13,1.48-2.73-.19-3.64a21.23,21.23,0,0,0-6.6-1.93c-7.86-1.4-15.76-2.63-23.63-4-9.8-1.68-19.63-3.23-29-6.7a19.16,19.16,0,0,1-5-2.71c-1-.75-1.85-1.7-1.5-3.08A3.56,3.56,0,0,1,25.53,422a14.93,14.93,0,0,1,6.34-.36c8.59,1,16.76,3.69,25,6.26,8.5,2.66,16.84,5.83,25.53,7.82a30.65,30.65,0,0,0,4.24.67c1.53.14,3.24.19,4.06-1.39s0-3.2-1.11-4.53c-2-2.53-4.74-4.18-7.44-5.85C76.53,421.16,70.64,418.25,65,415c-3.52-2.05-7.08-4.08-10-7a7.51,7.51,0,0,1-1-1.21c-.66-1-1.1-1.95-.27-3.11A3.54,3.54,0,0,1,57.27,402a11.12,11.12,0,0,1,3.59,1.12c4.42,2.06,8.14,5.15,11.92,8.14,5.72,4.52,11.23,9.31,17.32,13.35,3.12,2.08,6.35,4,10.12,4.59a8,8,0,0,0,6.35-1.19,1.66,1.66,0,0,0,.54-2.56,21.65,21.65,0,0,0-3.32-3.83c-5-5.11-10-10.16-14.28-15.88-3.64-4.84-7-9.89-8.56-15.82-1.31-4.84-1.09-9.56,1.67-13.93a23.59,23.59,0,0,1,8.15-7.55,50.87,50.87,0,0,1,8.85-4.13c1.32-.48,1.36-.58.33-1.59-3.32-3.26-6.75-6.41-10-9.76a275.4,275.4,0,0,1-22.8-26.75,224.12,224.12,0,0,1-17-26.37,202,202,0,0,1-13.92-31.4,178.56,178.56,0,0,1-7.05-27.75,131.49,131.49,0,0,1-1.75-16.57c-.15-3.53-.24-7-.17-10.57A124.88,124.88,0,0,1,30,190.47,112.73,112.73,0,0,1,39.47,163,105.26,105.26,0,0,1,55,140c10.85-12.23,24-21.3,38.8-28,.41-.19.93-.26,1.23-.9C94,111,93,110.87,92,110.83a174.24,174.24,0,0,1-27.06-2.7,39.71,39.71,0,0,1-11.61-3.73,14.76,14.76,0,0,1-2.35-1.64,4.37,4.37,0,0,1-1.57-3.42C49,91.6,52.44,85.6,57.91,80.54c5.78-5.35,12.48-9.39,19.22-13.37C83,63.69,88.89,60.28,94.81,56.88c1-.57.94-1.32.8-2.21A36.26,36.26,0,0,0,90,40.49c-2.52-4-5.62-7.51-8.23-11.41a13.87,13.87,0,0,1-.81-1.33c-1.06-2.12-1-3,.29-3.91,1.63-1.11,3.28-.81,4.7.81a28.22,28.22,0,0,1,3.82,6.19c2.1,4.19,3.72,8.63,6.48,12.47,1.23,1.71,2.6,3.28,4.89,3.6a2.9,2.9,0,0,0,3.41-1.68c1.51-2.91,1.87-6.13,2.4-9.29,1.16-6.89,1.95-13.84,3.71-20.61.83-3.19,1.66-6.42,4-8.93a2.72,2.72,0,0,1,2.9-1A2.5,2.5,0,0,1,119.15,8a14.71,14.71,0,0,1-.1,2.73,73.47,73.47,0,0,1-3.15,12.21c-1.54,5-3.41,9.87-4.37,15a10.32,10.32,0,0,0-.14,4.39c.55,2.22,2.3,3.09,4.38,2.1s3.59-3,5-4.83c5.2-6.63,9.56-13.87,14.81-20.46a32.73,32.73,0,0,1,7.77-7.63c2-1.24,3-1.2,4.41-.09a2.84,2.84,0,0,1,1,3.35,17.05,17.05,0,0,1-3.67,5.95c-4.58,5.54-10,10.26-14.9,15.52-2.27,2.45-4.56,4.91-5.81,8.11a5.81,5.81,0,0,0-.27,3.08,3.06,3.06,0,0,0,3.22,2.49,15.16,15.16,0,0,0,5.82-1.28c4-1.47,7.82-3.35,11.76-5a36.27,36.27,0,0,1,8.4-2.76c1.65-.24,3.39-.62,4.81.78a1.68,1.68,0,0,1-.1,2.86c-2.57,2-5.67,3-8.69,4-5.88,2-11.82,3.84-17.68,5.9-4.8,1.69-9.51,3.61-13.63,6.72a12.91,12.91,0,0,0-3.07,3,6.88,6.88,0,0,1-2.66,2c-4,2-8.4,3.09-12.48,4.94-3,1.34-5.79,2.88-7.33,6-.48,1-1.23,2.18-.61,3,.44.61,1.64-.29,2.46-.58,5.21-1.82,10.5-3.41,15.83-4.84q8.73-2.34,17.64-4,7.7-1.4,15.46-2.2c3.72-.38,7.45-.74,11.18-.8A11.29,11.29,0,0,0,162,65a162.1,162.1,0,0,0,19.57-20c5.17-6.08,10.19-12.33,16.79-17a44.52,44.52,0,0,1,12.55-6,56,56,0,0,1,14.93-2.79c4.16-.15,8.26.37,11.93,2.62A8.13,8.13,0,0,1,240.16,24a3.26,3.26,0,0,0,2.9,1.31c4.09.12,8.18.18,12.26.37a209.62,209.62,0,0,1,24.89,2.25,64.28,64.28,0,0,1,16.88,4.74,4.94,4.94,0,0,1,.68.36c.18.11.33.26.46.78h-8a37.55,37.55,0,0,0-6.92-2.91,53.29,53.29,0,0,0-12.53-2,23.4,23.4,0,0,0-10.6,1.44,3.68,3.68,0,0,0-2.62,3.89,25.54,25.54,0,0,0,.21,3.49c-3.57.66-7.09,1.56-10.61,2.43a13.13,13.13,0,0,1-1.53.23,3.52,3.52,0,0,0-2.81-1.64,27.31,27.31,0,0,0-8.93.28A48.11,48.11,0,0,0,222,42.13a4.14,4.14,0,0,0-2.54,3.9,29.1,29.1,0,0,0,.29,3.36,63.41,63.41,0,0,0-6.43,2.84c-.27.13-.58.23-.63.59a21.12,21.12,0,0,0-9.87-.93,68.52,68.52,0,0,0-17,4.09A61.78,61.78,0,0,0,172,62.86a6.36,6.36,0,0,0-2.82,4.35,15.87,15.87,0,0,0,.08,5.19C169.64,74.89,170.79,77.16,171.46,79.57ZM33.05,194.65c.14,1,.2,2.07.42,3.09A27.89,27.89,0,0,0,41.83,212a12.74,12.74,0,0,0,5.25,3.31,3.89,3.89,0,0,0,5.05-2,30.91,30.91,0,0,0,2-4.23,199.3,199.3,0,0,0,9.06-33.78c.38-2.08.55-4.22.74-6.33.17-2-.54-2.64-2.47-2.55a10,10,0,0,0-4.08,1.27,57,57,0,0,0-21.82,19.68A12.55,12.55,0,0,0,33.05,194.65Zm35,75c-.14-1.18-.23-2.48-.46-3.76A123,123,0,0,0,60.28,242a59.09,59.09,0,0,0-6-12.12,3.12,3.12,0,0,0-4.19-1.25A7.21,7.21,0,0,0,47.91,230c-5.56,5.07-8.82,11.51-11,18.59a9.68,9.68,0,0,0,1.91,9.62,56.63,56.63,0,0,0,19.61,15.4,13.85,13.85,0,0,0,4.75,1.29c2.6.21,4.15-.9,4.67-3.46A17,17,0,0,0,68,269.62Zm60.44,126.15a55.56,55.56,0,0,0,15.84-2.51,21.25,21.25,0,0,0,7.05-3.29c1.85-1.43,2.2-2.62,1.37-4.77a36.78,36.78,0,0,0-7.21-10.92c-3.46-3.93-7.17-7.59-11.89-10-3.82-2-6.26-1.38-8.81,2.05a32.65,32.65,0,0,0-4.76,10.51,47,47,0,0,0-2.13,13.59c0,3,.94,4.06,3.88,4.81A28.21,28.21,0,0,0,128.48,395.77ZM78.65,321a36.19,36.19,0,0,0,7.3-.58,19.78,19.78,0,0,0,7.61-2.52c1.91-1.22,2.39-2.48,1.81-4.63a13.88,13.88,0,0,0-1.25-3,80.56,80.56,0,0,0-14.34-18.61,25.62,25.62,0,0,0-5.72-4.48c-2-1.09-3.2-.91-4.71.82a12.13,12.13,0,0,0-2.29,4.2c-1.7,5.17-1.87,10.49-1.54,15.85A33.57,33.57,0,0,0,67,316.2a5.5,5.5,0,0,0,4.7,4.24A37.19,37.19,0,0,0,78.65,321ZM67.9,158.11c2.77.57,5.41-1.17,7.78-3.74a88.59,88.59,0,0,0,11.58-15.85,23.86,23.86,0,0,0,2.32-5.09c.59-2,.19-2.52-1.9-2.55a9.61,9.61,0,0,0-2.08.1,67,67,0,0,0-28.25,13c-2.39,1.9-4.5,4.12-5.3,7.23-.5,2-.11,3,1.57,4.11a10.06,10.06,0,0,0,1.85.94C59.18,157.67,63.07,157.93,67.9,158.11ZM98.21,338.54c.17,5.54.76,11,2.85,16.2.79,2,1.62,2.51,3.71,2.2a30.76,30.76,0,0,0,15.7-7.08c2.4-2,2.52-2.86,1.13-5.67a65.54,65.54,0,0,0-12.2-17.1,14.47,14.47,0,0,0-4.81-3.5,3.08,3.08,0,0,0-4.19,1.23,8.82,8.82,0,0,0-1.26,3A37,37,0,0,0,98.21,338.54Zm62.08,90c4.79-.19,9.4-1.1,13.43-3.89,2.23-1.55,2.66-3,1.7-5.5a61,61,0,0,0-7-13A27.42,27.42,0,0,0,163,400c-2.88-2.27-5.23-2.13-7.28.93-4.92,7.36-6,15.27-3,23.69,1,2.72,3,3.78,5.68,4C159.07,428.6,159.68,428.57,160.29,428.57Zm-48.64-48.78a18.39,18.39,0,0,0-1.31-8c-1.31-2.84-3.07-3.6-6-2.57a48.25,48.25,0,0,0-6.51,2.95c-4.15,2.21-8.25,4.51-11.61,7.86-2,2-2.08,3-.32,5.29a26.6,26.6,0,0,0,7.23,6.3c3.72,2.33,7.62,4.14,12.17,4.09a3.79,3.79,0,0,0,4-2.75A40.6,40.6,0,0,0,111.65,379.79Zm45.4-296.58a6.46,6.46,0,0,0-.46-2.84c-1-3.22-4.1-6.9-9.14-6.44a13.66,13.66,0,0,0-5.57,2,90.56,90.56,0,0,0-18.21,14.29,17.2,17.2,0,0,0-3.14,3.81c-.66,1.19-.44,1.56.89,1.56a11.57,11.57,0,0,0,1.56-.05,130.42,130.42,0,0,0,24.23-5.5,31.56,31.56,0,0,0,8.3-3.72A3,3,0,0,0,157.05,83.21Zm-86,21.52c4,0,6.71-.53,8.56-1.5,2.85-1.49,3.6-3.14,2.64-6.2A20.9,20.9,0,0,0,75,86.62c-1.71-1.34-3.63-2.38-5.9-1.9a23.2,23.2,0,0,0-12.23,6.51c-3.14,3.24-2.85,6.81.85,9.41A25.1,25.1,0,0,0,71.08,104.73Zm27.29,20.7a6.54,6.54,0,0,0,3.86-.8,202.91,202.91,0,0,0,23.18-15.71,24.8,24.8,0,0,0,3.65-3.52c1-1.21.71-2.08-.85-2.37a7.07,7.07,0,0,0-2.34,0,35.55,35.55,0,0,0-7,1.9A171,171,0,0,0,98,114.37a99.2,99.2,0,0,0-10.43,5.92c-1.38.94-1.38,2.22,0,3.09a8.85,8.85,0,0,0,2.27.94A33.93,33.93,0,0,0,98.37,125.43Zm89.22,325.74a40.06,40.06,0,0,0-2.22-11,24.56,24.56,0,0,0-3.59-7.34c-1.69-2.21-3.09-2.34-5-.38a30.83,30.83,0,0,0-7.15,12.41,7.06,7.06,0,0,0,1.77,7.46,16.62,16.62,0,0,0,10.12,5.17C186.26,458.19,187.58,457,187.59,451.17Zm-66.1-43.7c0-.17,0-.35,0-.52-.24-4.47-1.16-6.82-7-7a19,19,0,0,0-12.16,4c-2.24,1.66-2.62,3.3-1,5.59A22.8,22.8,0,0,0,114.71,419c2.13.53,3.09.08,4.27-1.76C120.88,414.23,121.27,410.87,121.49,407.47ZM97,91.11a11.09,11.09,0,0,0,1.83,6c1.78,2.57,4.15,3.1,6.68,1.29a56.46,56.46,0,0,0,12.67-12.82c.79-1.09,2-2.28,1.27-3.73s-2.44-1.5-3.91-1.62a28.5,28.5,0,0,0-11.15,1.46C99.25,83.34,97,86.2,97,91.11Z"/><path class="cls-4" d="M171.46,79.57c-.67-2.41-1.82-4.68-2.23-7.17a15.87,15.87,0,0,1-.08-5.19A6.36,6.36,0,0,1,172,62.86,61.78,61.78,0,0,1,185.8,56a68.52,68.52,0,0,1,17-4.09,21.12,21.12,0,0,1,9.87.93c3.14,1.34,4.22,3.86,4.25,7.1a44.12,44.12,0,0,1-2.66,14.25,78.5,78.5,0,0,1-10.17,20.88,31.93,31.93,0,0,1-3.26,3.9,7.84,7.84,0,0,1-8.92,2c-4-1.41-7.19-4-10.12-7a52,52,0,0,1-9.61-13.39A2.35,2.35,0,0,0,171.46,79.57Z"/><path class="cls-4" d="M68.79,202.18c.19-9.32,1.59-18.39,6-26.78a16.53,16.53,0,0,1,3.55-4.63,6.71,6.71,0,0,1,7.47-1.41,29.74,29.74,0,0,1,8.44,5.34,80.59,80.59,0,0,1,18.85,23.07,23.18,23.18,0,0,1,2,5.19,5.92,5.92,0,0,1-2.28,6.8c-3.35,2.56-7.25,3.88-11.26,4.92a60.46,60.46,0,0,1-18.07,1.87,28.66,28.66,0,0,1-7.8-1.33c-5-1.66-6.75-3.95-6.93-9.26C68.76,204.71,68.79,203.44,68.79,202.18Z"/><path class="cls-4" d="M72.11,232.21c0-.74,0-1.48,0-2.22.06-3.55,1.67-5.18,5.25-5.4a28.74,28.74,0,0,1,11.21,1.94,65.5,65.5,0,0,1,21.29,11.78,26.37,26.37,0,0,1,3.09,3.16c2.4,2.9,2.6,6,1.1,9.37a25.05,25.05,0,0,1-8,9.42,34.46,34.46,0,0,1-15.19,7.06c-3.53.62-6.17-.78-8.44-3.23a29.89,29.89,0,0,1-5.78-9.82A64.6,64.6,0,0,1,72.11,232.21Z"/><path class="cls-4" d="M148.52,143.81c0,4.79-.14,9.17-1.38,13.44-1.34,4.58-3.59,5.58-7.9,3.44-3.8-1.9-6.76-4.86-9.59-7.94a87.34,87.34,0,0,1-13.82-19.82,7.67,7.67,0,0,1,.66-8.43c3.92-5.64,9.29-9.55,15.25-12.75a25.53,25.53,0,0,1,5.66-2.29c2.32-.6,3.38-.22,4.75,1.84a29.15,29.15,0,0,1,3.66,9.55A101.24,101.24,0,0,1,148.52,143.81Z"/><path class="cls-4" d="M123.88,181.82a34,34,0,0,1-10-2.65,76.31,76.31,0,0,1-21.49-12.35,27.93,27.93,0,0,1-2.68-2.65c-2.11-2.33-2.34-5.13-1.56-8,2.09-7.66,6-14.16,12.58-18.88a13.56,13.56,0,0,1,1.7-1,5.3,5.3,0,0,1,6.39.67,37.79,37.79,0,0,1,7.47,9.15,92.29,92.29,0,0,1,11.58,26.34,20.9,20.9,0,0,1,.71,5.4C128.55,181,127.62,181.87,123.88,181.82Z"/><path class="cls-4" d="M155.49,126.92a72.62,72.62,0,0,1,3.13-22.45,21.24,21.24,0,0,1,3.1-6.56c1.77-2.36,3.61-2.73,6.05-1.13,3.86,2.53,6.86,6,9.95,9.32,4.07,4.4,7.81,9.1,12.13,13.27a2.59,2.59,0,0,1,.26,3.45,20.86,20.86,0,0,1-5,5.59c-4.38,3.63-8.83,7.18-13.21,10.82-1.67,1.38-3.22,2.92-4.82,4.38a4.12,4.12,0,0,1-.4.33c-3.92,2.91-7.06,2.13-9.06-2.32a29.34,29.34,0,0,1-2.07-10C155.39,130.06,155.49,128.48,155.49,126.92Z"/><path class="cls-5" d="M237,104.48a15,15,0,0,1-5.29-.5c-3.49-1-5.24-3.22-5.52-6.84-.44-5.85,1.24-11.23,3.53-16.48a40.53,40.53,0,0,1,6.38-10.23c3.27-3.81,7.23-5.94,12.38-5.75a40,40,0,0,1,11.92,1.78c2.93,1,3.14,2.08.91,4.28a51.59,51.59,0,0,1-8.06,6,128.88,128.88,0,0,0-10.57,7.38,16.11,16.11,0,0,0-3.82,4.08c-1.58,2.61-.1,5.3,3,5.39a11.91,11.91,0,0,0,5.9-1.79c4.25-2.24,8-5.25,11.79-8.11,1.81-1.35,3.56-2.79,5.5-4a11.24,11.24,0,0,1,1.59-.88c1.62-.7,2.09-.37,2.17,1.41.29,6.45-2.9,11.21-7.56,15.14a40.59,40.59,0,0,1-21.35,9.11A22.88,22.88,0,0,1,237,104.48Z"/><path class="cls-4" d="M174.83,343.11c-.22,9.27-.63,18.59-3.15,27.67a17.43,17.43,0,0,1-2.4,5.46,3.94,3.94,0,0,1-4.42,1.72,13.26,13.26,0,0,1-5.9-3.17,42,42,0,0,1-11.62-16.14,6.78,6.78,0,0,1,.71-6.78,39.26,39.26,0,0,1,8.47-8.79,44.94,44.94,0,0,1,12-7.26,9.46,9.46,0,0,1,3.54-.74,2,2,0,0,1,2.26,1.84C174.69,339,174.61,341,174.83,343.11Z"/><path class="cls-4" d="M257.79,37.7a25.54,25.54,0,0,1-.21-3.49,3.68,3.68,0,0,1,2.62-3.89,23.4,23.4,0,0,1,10.6-1.44,53.29,53.29,0,0,1,12.53,2,37.55,37.55,0,0,1,6.92,2.91,3,3,0,0,0,.52.59c2.84,1.84,2.89,3.94,1.87,6.77-1.73,4.78-5.23,8.14-9.14,11.11a26.13,26.13,0,0,1-10.31,5.06,7.84,7.84,0,0,1-7.43-2.05c-3-2.81-4.72-6.39-6.11-10.17A45.26,45.26,0,0,1,257.79,37.7Z"/><path class="cls-4" d="M101.94,275.81c8.14.44,16,2.06,23.19,6.05a15.53,15.53,0,0,1,3.34,2.47,6.07,6.07,0,0,1,1.28,7.81,22.73,22.73,0,0,1-6.87,7.53,43.36,43.36,0,0,1-7.33,4.44c-2.53,1.23-4.87.75-7.18-.55a25.43,25.43,0,0,1-7.72-7.28,37.16,37.16,0,0,1-6.89-14c-.86-3.87.23-5.52,4.15-6.13A20.11,20.11,0,0,1,101.94,275.81Z"/><path class="cls-4" d="M122.27,310.85a48.12,48.12,0,0,1,12.86,2.55A62.21,62.21,0,0,1,151.74,321a15.38,15.38,0,0,1,3.74,3.41c1.46,2,1.47,3.65-.15,5.54a23,23,0,0,1-7.52,5.29c-2.4,1.2-4.91,2.17-7.42,3.14a6.46,6.46,0,0,1-5.39-.25,24.11,24.11,0,0,1-7.55-6.13,43.58,43.58,0,0,1-9.06-14.93,8.91,8.91,0,0,1-.53-2.8c0-2.3.55-3,2.86-3.35C121.23,310.86,121.76,310.88,122.27,310.85Z"/><path class="cls-4" d="M194.42,143.6a48,48,0,0,1-4.81,18.23,36.27,36.27,0,0,1-9.48,12.75c-4.75,4-8.8,3.09-12.81-1.32-3.17-3.48-3.32-6.41-1-10.72A54.88,54.88,0,0,1,175.14,151a79,79,0,0,1,13.27-11.49,16.84,16.84,0,0,1,2.75-1.46c1.25-.54,1.9-.26,2.51,1A10.08,10.08,0,0,1,194.42,143.6Z"/><path class="cls-4" d="M199.28,487.09a4.57,4.57,0,0,1-4.25.13,23.06,23.06,0,0,1-6.65-4.51,35.28,35.28,0,0,1-7.15-8.39,14.64,14.64,0,0,1-1.35-3.1c-.56-1.84.12-3.4,1.9-4.73a26.37,26.37,0,0,1,6.52-3.21c2.31-.87,4.74-1.35,7.11-2a43.94,43.94,0,0,1,8-.88c2.15.09,3.24.93,3.74,3.06a21,21,0,0,1-.52,10.18,29.6,29.6,0,0,1-5.2,11.39A12.44,12.44,0,0,1,199.28,487.09Z"/><path class="cls-4" d="M180.33,346.18a59.22,59.22,0,0,1,1-11.29,9.4,9.4,0,0,1,1.33-3.37,2.3,2.3,0,0,1,3.48-.7,22.39,22.39,0,0,1,5.63,5.73,61.79,61.79,0,0,1,9,15.63c.88,2.34.58,4.38-1.24,6.05-4.18,3.83-9,6.08-14.83,5.85a3.21,3.21,0,0,1-3.33-3.13A122.38,122.38,0,0,1,180.33,346.18Z"/><path class="cls-4" d="M163.34,215.24a25.09,25.09,0,0,1-6.86-.59c-4.35-1-5.89-3.68-4.23-7.82,1.8-4.47,4.9-7.82,9.66-9.15,2.9-.81,5.78-.08,8.54.92A28.3,28.3,0,0,1,182.1,206c2.85,3.11,2.5,4.88-1.39,6.45A43,43,0,0,1,169.06,215,34.1,34.1,0,0,1,163.34,215.24Z"/><path class="cls-4" d="M195,404.15c-.84,5.1-2.81,9.63-6.86,13-1.31,1.11-2.53,1-3.91-.07a18.26,18.26,0,0,1-4.28-5.37,73.65,73.65,0,0,1-8.08-19,9.46,9.46,0,0,1-.24-1.27c-.28-2,.39-2.63,2.41-2a36.68,36.68,0,0,1,7.69,4.05c4.08,2.5,7.86,5.46,12.1,7.7C195,401.9,195,403,195,404.15Z"/><path class="cls-4" d="M192.54,426.18c2.07.09,4.67,1.47,7.17,3.06a24.74,24.74,0,0,1,7.74,7.23,4.55,4.55,0,0,1,.74,3.6,21.7,21.7,0,0,1-8.25,13c-1.6,1.16-2.71.85-3.6-.9a104.25,104.25,0,0,1-8.27-20.32c-.11-.42-.18-.85-.25-1.27C187.24,427.24,188.19,426.11,192.54,426.18Z"/><path class="cls-4" d="M219.75,49.39a29.1,29.1,0,0,1-.29-3.36,4.14,4.14,0,0,1,2.54-3.9A48.11,48.11,0,0,1,233.91,39a27.31,27.31,0,0,1,8.93-.28,3.52,3.52,0,0,1,2.81,1.64c-.56,2.84-2.26,5.06-4,7.2a29,29,0,0,1-11.77,9c-2.85,1.12-4.66.67-6.8-1.52A17.68,17.68,0,0,1,219.75,49.39Z"/><path class="cls-4" d="M210.83,385a29.08,29.08,0,0,1-15.27-7.25,3.77,3.77,0,0,1-.35-4.78,6.92,6.92,0,0,1,3.28-2.48,17.73,17.73,0,0,1,8.95-1,7.69,7.69,0,0,1,5.6,3.63,14.12,14.12,0,0,1,2.76,8.11C215.8,383.91,214.64,385,210.83,385Z"/><path class="cls-4" d="M198.72,514.18c-2.06.87-3.65-.1-5.05-1.42a17.85,17.85,0,0,1-4.86-7.9c-.69-2.24-.06-3.54,2.12-4.46a22.4,22.4,0,0,1,8.7-1.33,38.44,38.44,0,0,1,3.94.74c2.22.77,2.8,1.65,2.17,3.89a20.06,20.06,0,0,1-6.27,9.78Z"/><path class="cls-4" d="M193.45,543.26c-1.29.4-2.09-.18-2.81-1.22a24.27,24.27,0,0,1-3.4-6.95c-.8-2.66,0-4,2.69-4.52a13.75,13.75,0,0,1,6.4.46c.59.28,1.18.55,1.76.84,1.57.82,1.95,1.6,1.41,3.27a16.68,16.68,0,0,1-4.94,7C194.18,542.53,193.82,542.9,193.45,543.26Z"/><path class="cls-3" d="M133.84,212.69c.23,1.5-.8,2.62-1.22,3.92-1.13,3.52-2.32,7-3.26,10.61-.07.28-.16.48-.46.55a55.64,55.64,0,0,1,2.81-9.82A33.67,33.67,0,0,1,133.84,212.69Z"/><path class="cls-3" d="M126.94,246.59a19.07,19.07,0,0,1,.81,4.54,75.26,75.26,0,0,0,1.47,7.47,7.28,7.28,0,0,1,.12,1.8A43.54,43.54,0,0,1,126.94,246.59Z"/><path class="cls-3" d="M144.08,195.22c-.27-1.1-.76,0-1.13-.11a50,50,0,0,1,5.14-7.24C146.69,190.29,145.44,192.79,144.08,195.22Z"/><path class="cls-3" d="M129.65,261.46c.48.06.6.45.72.82,1,3.17,2.06,6.35,3.09,9.52a.51.51,0,0,1-.12.59A76.35,76.35,0,0,1,129.65,261.46Z"/><path class="cls-3" d="M128.32,230.39c.56.53,0,1.05,0,1.57-.11,3.3-1.17,6.51-1,9.84a.54.54,0,0,1-.38.6A46.78,46.78,0,0,1,128.32,230.39Z"/><path class="cls-3" d="M143.23,211.57c-1.25-1.21-1.33-2.9-1.5-4.42a23.46,23.46,0,0,1,.06-5.8,1.81,1.81,0,0,1,.68-1.47c-.29,2.43-.78,4.84-.36,7.33C142.36,208.71,142.86,210.11,143.23,211.57Z"/><path class="cls-3" d="M140.25,199.78c.07,1.41-1,2.34-1.56,3.46-.68,1.34-1.42,2.64-2,4-.15.37-.26.86-.83.86A47.15,47.15,0,0,1,140.25,199.78Z"/><path class="cls-3" d="M135.61,208.7a5.43,5.43,0,0,1-1.75,3.94A17.6,17.6,0,0,1,135.61,208.7Z"/><path class="cls-3" d="M133.79,273.49c1.17.73,1.13,2,1.3,3.12A8.84,8.84,0,0,1,133.79,273.49Z"/><path class="cls-3" d="M141.9,197.23c-.6.8-.46,2.09-1.63,2.53A4.68,4.68,0,0,1,141.9,197.23Z"/><path class="cls-3" d="M142.49,199.85c.21-1-.5-2.28.92-2.89A13.32,13.32,0,0,1,142.49,199.85Z"/><path class="cls-3" d="M126.83,243.18c.69.52.1,1,0,1.53A3.17,3.17,0,0,1,126.83,243.18Z"/><path class="cls-3" d="M128.73,228.44c.07.43.3.89-.27,1.18A1.75,1.75,0,0,1,128.73,228.44Z"/><path class="cls-3" d="M143.48,196.68c0-.39-.16-.9.47-1A1.52,1.52,0,0,1,143.48,196.68Z"/><path class="cls-3" d="M135.86,208.17l-.18.25Z"/><path class="cls-3" d="M148.3,187.53s-.07-.06-.07-.09.06-.06.08-.08.07.06.07.09S148.33,187.51,148.3,187.53Z"/><path class="cls-3" d="M129.36,260.45a.69.69,0,0,1,.11.13l-.07.07A.21.21,0,0,1,129.36,260.45Z"/><path class="cls-3" d="M129.59,261.23a.26.26,0,0,1,0,.19l-.09-.08Z"/><path class="cls-6" d="M33.05,194.65a12.55,12.55,0,0,1,2.52-7.3,57,57,0,0,1,21.82-19.68,10,10,0,0,1,4.08-1.27c1.93-.09,2.64.59,2.47,2.55-.19,2.11-.36,4.25-.74,6.33a199.3,199.3,0,0,1-9.06,33.78,30.91,30.91,0,0,1-2,4.23,3.89,3.89,0,0,1-5.05,2A12.74,12.74,0,0,1,41.83,212a27.89,27.89,0,0,1-8.36-14.28C33.25,196.72,33.19,195.68,33.05,194.65Z"/><path class="cls-6" d="M68,269.62a17,17,0,0,1-.17,1.8c-.52,2.56-2.07,3.67-4.67,3.46a13.85,13.85,0,0,1-4.75-1.29,56.63,56.63,0,0,1-19.61-15.4,9.68,9.68,0,0,1-1.91-9.62c2.16-7.08,5.42-13.52,11-18.59a7.21,7.21,0,0,1,2.21-1.36,3.12,3.12,0,0,1,4.19,1.25,59.09,59.09,0,0,1,6,12.12,123,123,0,0,1,7.3,23.87C67.81,267.14,67.9,268.44,68,269.62Z"/><path class="cls-6" d="M128.48,395.77a28.21,28.21,0,0,1-6.66-.56c-2.94-.75-3.86-1.81-3.88-4.81a47,47,0,0,1,2.13-13.59,32.65,32.65,0,0,1,4.76-10.51c2.55-3.43,5-4,8.81-2.05,4.72,2.44,8.43,6.1,11.89,10a36.78,36.78,0,0,1,7.21,10.92c.83,2.15.48,3.34-1.37,4.77a21.25,21.25,0,0,1-7.05,3.29A55.56,55.56,0,0,1,128.48,395.77Z"/><path class="cls-6" d="M78.65,321a37.19,37.19,0,0,1-7-.55A5.5,5.5,0,0,1,67,316.2,33.57,33.57,0,0,1,65.52,308c-.33-5.36-.16-10.68,1.54-15.85a12.13,12.13,0,0,1,2.29-4.2c1.51-1.73,2.68-1.91,4.71-.82a25.62,25.62,0,0,1,5.72,4.48,80.56,80.56,0,0,1,14.34,18.61,13.88,13.88,0,0,1,1.25,3c.58,2.15.1,3.41-1.81,4.63A19.78,19.78,0,0,1,86,320.41,36.19,36.19,0,0,1,78.65,321Z"/><path class="cls-6" d="M67.9,158.11c-4.83-.18-8.72-.44-12.43-1.87a10.06,10.06,0,0,1-1.85-.94c-1.68-1.1-2.07-2.15-1.57-4.11.8-3.11,2.91-5.33,5.3-7.23A67,67,0,0,1,85.6,131a9.61,9.61,0,0,1,2.08-.1c2.09,0,2.49.54,1.9,2.55a23.86,23.86,0,0,1-2.32,5.09,88.59,88.59,0,0,1-11.58,15.85C73.31,156.94,70.67,158.68,67.9,158.11Z"/><path class="cls-6" d="M98.21,338.54a37,37,0,0,1,.93-10.74,8.82,8.82,0,0,1,1.26-3,3.08,3.08,0,0,1,4.19-1.23,14.47,14.47,0,0,1,4.81,3.5,65.54,65.54,0,0,1,12.2,17.1c1.39,2.81,1.27,3.63-1.13,5.67a30.76,30.76,0,0,1-15.7,7.08c-2.09.31-2.92-.23-3.71-2.2C99,349.54,98.38,344.08,98.21,338.54Z"/><path class="cls-6" d="M160.29,428.57c-.61,0-1.22,0-1.83,0-2.68-.19-4.69-1.25-5.68-4-3.08-8.42-2-16.33,3-23.69,2-3.06,4.4-3.2,7.28-.93a27.42,27.42,0,0,1,5.36,6.17,61,61,0,0,1,7,13c1,2.54.53,3.95-1.7,5.5C169.69,427.47,165.08,428.38,160.29,428.57Z"/><path class="cls-6" d="M111.65,379.79a40.6,40.6,0,0,1-2.31,13.14,3.79,3.79,0,0,1-4,2.75c-4.55.05-8.45-1.76-12.17-4.09a26.6,26.6,0,0,1-7.23-6.3C84.15,383,84.2,382,86.23,380c3.36-3.35,7.46-5.65,11.61-7.86a48.25,48.25,0,0,1,6.51-2.95c2.92-1,4.68-.27,6,2.57A18.39,18.39,0,0,1,111.65,379.79Z"/><path class="cls-6" d="M157.05,83.21a3,3,0,0,1-1.54,3.14,31.56,31.56,0,0,1-8.3,3.72A130.42,130.42,0,0,1,123,95.57a11.57,11.57,0,0,1-1.56.05c-1.33,0-1.55-.37-.89-1.56a17.2,17.2,0,0,1,3.14-3.81A90.56,90.56,0,0,1,141.88,76a13.66,13.66,0,0,1,5.57-2c5-.46,8.14,3.22,9.14,6.44A6.46,6.46,0,0,1,157.05,83.21Z"/><path class="cls-6" d="M71.08,104.73a25.1,25.1,0,0,1-13.35-4.09c-3.7-2.6-4-6.17-.85-9.41a23.2,23.2,0,0,1,12.23-6.51c2.27-.48,4.19.56,5.9,1.9A20.9,20.9,0,0,1,82.28,97c1,3.06.21,4.71-2.64,6.2C77.79,104.2,75.05,104.73,71.08,104.73Z"/><path class="cls-6" d="M98.37,125.43a33.93,33.93,0,0,1-8.53-1.11,8.85,8.85,0,0,1-2.27-.94c-1.42-.87-1.42-2.15,0-3.09A99.2,99.2,0,0,1,98,114.37,171,171,0,0,1,118.85,105a35.55,35.55,0,0,1,7-1.9,7.07,7.07,0,0,1,2.34,0c1.56.29,1.86,1.16.85,2.37a24.8,24.8,0,0,1-3.65,3.52,202.91,202.91,0,0,1-23.18,15.71A6.54,6.54,0,0,1,98.37,125.43Z"/><path class="cls-6" d="M187.59,451.17c0,5.81-1.33,7-6.1,6.36a16.62,16.62,0,0,1-10.12-5.17,7.06,7.06,0,0,1-1.77-7.46,30.83,30.83,0,0,1,7.15-12.41c1.94-2,3.34-1.83,5,.38a24.56,24.56,0,0,1,3.59,7.34A40.06,40.06,0,0,1,187.59,451.17Z"/><path class="cls-6" d="M121.49,407.47c-.22,3.4-.61,6.76-2.51,9.73-1.18,1.84-2.14,2.29-4.27,1.76a22.8,22.8,0,0,1-13.44-9.46c-1.6-2.29-1.22-3.93,1-5.59a19,19,0,0,1,12.16-4c5.88.21,6.8,2.56,7,7C121.5,407.12,121.49,407.3,121.49,407.47Z"/><path class="cls-6" d="M97,91.11c0-4.91,2.21-7.77,7.39-9.41a28.5,28.5,0,0,1,11.15-1.46c1.47.12,3.16.18,3.91,1.62s-.48,2.64-1.27,3.73a56.46,56.46,0,0,1-12.67,12.82c-2.53,1.81-4.9,1.28-6.68-1.29A11.09,11.09,0,0,1,97,91.11Z"/></g></svg>