<svg xmlns="http://www.w3.org/2000/svg" width="47.135" height="53.501" viewBox="0 0 47.135 53.501">
  <g id="save-money" transform="translate(-0.36)">
    <path id="Контур_1855" data-name="Контур 1855" d="M189.859,160.073a.835.835,0,0,0-.3-.01,2,2,0,0,1-1.765-1.978.878.878,0,0,0-1.755,0,3.754,3.754,0,0,0,2.76,3.615v.878a.878.878,0,0,0,1.755,0v-.824a3.747,3.747,0,0,0-.768-7.415,1.993,1.993,0,1,1,1.993-1.993.878.878,0,0,0,1.755,0,3.754,3.754,0,0,0-2.98-3.668v-.8a.878.878,0,1,0-1.755,0v.852a3.747,3.747,0,0,0,.987,7.362,1.991,1.991,0,0,1,.073,3.981Zm0,0" transform="translate(-165.31 -130.875)" fill="#fff"/>
    <path id="Контур_1856" data-name="Контур 1856" d="M104.195,119.218a12.726,12.726,0,1,0,12.726-12.726A12.725,12.725,0,0,0,104.195,119.218Zm12.726-10.97a10.97,10.97,0,1,1-10.97,10.97A10.97,10.97,0,0,1,116.921,108.247Zm0,0" transform="translate(-92.445 -94.81)" fill="#fff"/>
    <path id="Контур_1857" data-name="Контур 1857" d="M41.527,329.852,34.653,333.1a5.6,5.6,0,0,0-4.773-2.946l-6.346-.174a6.7,6.7,0,0,1-2.884-.745L20,328.9a11.39,11.39,0,0,0-10.55.011l.04-1.463a.878.878,0,0,0-.853-.9l-6.959-.192a.877.877,0,0,0-.9.853L.36,342.48a.878.878,0,0,0,.853.9l6.959.192H8.2a.878.878,0,0,0,.878-.854l.02-.731,1.808-.968a3.1,3.1,0,0,1,2.314-.253l10.8,3.03.057.014a11.558,11.558,0,0,0,2.373.245,11.709,11.709,0,0,0,4.891-1.067.817.817,0,0,0,.109-.06L47.094,332.8a.878.878,0,0,0,.288-1.169,4.433,4.433,0,0,0-5.854-1.783Zm-39.389,11.8.372-13.517,5.2.143L7.343,341.8Zm28.4-.23a9.95,9.95,0,0,1-6.085.679l-10.766-3.022a4.852,4.852,0,0,0-3.617.4l-.924.495.247-8.987a9.646,9.646,0,0,1,9.8-.523l.646.335a8.476,8.476,0,0,0,3.643.941l6.347.174a3.849,3.849,0,0,1,3.658,3.067l-9.453-.261a.878.878,0,1,0-.048,1.755l10.432.287h.024a.878.878,0,0,0,.877-.854,5.57,5.57,0,0,0-.085-1.139l7.051-3.332.021-.01a2.681,2.681,0,0,1,3.032.425Zm0,0" transform="translate(0 -290.556)" fill="#fff"/>
    <path id="Контур_1858" data-name="Контур 1858" d="M213.958,9.214V.878a.878.878,0,0,0-1.755,0V9.214a.878.878,0,0,0,1.755,0Zm0,0" transform="translate(-188.605)" fill="#fff"/>
    <path id="Контур_1859" data-name="Контур 1859" d="M273.958,44.827V40.878a.878.878,0,0,0-1.755,0v3.949a.878.878,0,0,0,1.755,0Zm0,0" transform="translate(-242.023 -35.612)" fill="#fff"/>
    <path id="Контур_1860" data-name="Контур 1860" d="M153.958,44.827V40.878a.878.878,0,1,0-1.755,0v3.949a.878.878,0,1,0,1.755,0Zm0,0" transform="translate(-135.187 -35.612)" fill="#fff"/>
  </g>
</svg>
