<svg id="Слой_1" data-name="Слой 1" xmlns="http://www.w3.org/2000/svg" xmlns:xlink="http://www.w3.org/1999/xlink" viewBox="0 0 80.12 50.11"><defs><style>.cls-1{fill:#fff;stroke-miterlimit:10;}.cls-1,.cls-6{stroke:#b3b4b4;}.cls-2{fill:url(#Безымянный_градиент_19);}.cls-3{fill:#b3b4b4;}.cls-4{fill:url(#Безымянный_градиент_19-2);}.cls-5{fill:url(#Безымянный_градиент_19-3);}.cls-6{fill:none;stroke-linecap:round;stroke-linejoin:bevel;stroke-width:0.75px;}</style><linearGradient id="Безымянный_градиент_19" x1="15.43" y1="44.12" x2="15.43" y2="6.07" gradientUnits="userSpaceOnUse"><stop offset="0" stop-color="#fff"/><stop offset="1" stop-color="#c0e7f9"/></linearGradient><linearGradient id="Безымянный_градиент_19-2" x1="39.97" y1="44.12" x2="39.97" y2="6.07" xlink:href="#Безымянный_градиент_19"/><linearGradient id="Безымянный_градиент_19-3" x1="64.53" y1="44.12" x2="64.53" y2="6.07" xlink:href="#Безымянный_градиент_19"/></defs><title>sОкно с тремя открытиями</title><rect class="cls-1" x="0.55" y="0.59" width="79" height="49"/><rect class="cls-2" x="6.04" y="6.07" width="18.77" height="38.06"/><path class="cls-3" d="M24.31,6.57V43.62H6.54v-37H24.31m1-1H5.54V44.62H25.31v-39Z"/><rect class="cls-4" x="29.99" y="6.07" width="19.95" height="38.06"/><path class="cls-3" d="M49.44,6.57V43.62H30.49v-37h19m1-1H29.49V44.62h21v-39Z"/><rect class="cls-5" x="54.99" y="6.07" width="19.07" height="38.06"/><path class="cls-3" d="M73.56,6.57V43.62H55.49v-37H73.56m1-1H54.49V44.62H74.56v-39Z"/><polyline class="cls-6" points="74.41 5.88 55.27 24.57 74.41 43.94 64.84 5.57 55.27 43.63"/><polyline class="cls-6" points="6.43 6.25 24.31 25.09 6.43 43.94"/><polyline class="cls-6" points="49.62 6.22 30.48 24.91 49.62 44.28 40.05 5.91 30.48 43.97"/></svg>