<svg id="Слой_1" data-name="Слой 1" xmlns="http://www.w3.org/2000/svg" xmlns:xlink="http://www.w3.org/1999/xlink" viewBox="0 0 62.38 50.5"><defs><style>.cls-1{fill:#fff;stroke-miterlimit:10;}.cls-1,.cls-5{stroke:#b3b4b4;}.cls-2{fill:url(#Безымянный_градиент_19);}.cls-3{fill:#b3b4b4;}.cls-4{fill:url(#Безымянный_градиент_19-2);}.cls-5{fill:none;stroke-linecap:round;stroke-linejoin:bevel;stroke-width:0.75px;}</style><linearGradient id="Безымянный_градиент_19" x1="17.7" y1="44.28" x2="17.7" y2="6.22" gradientUnits="userSpaceOnUse"><stop offset="0" stop-color="#fff"/><stop offset="1" stop-color="#c0e7f9"/></linearGradient><linearGradient id="Безымянный_градиент_19-2" x1="44.87" y1="44.28" x2="44.87" y2="6.22" xlink:href="#Безымянный_градиент_19"/></defs><title>sОкно с двумя открываниями</title><rect class="cls-1" x="0.88" y="0.75" width="60.88" height="49"/><rect class="cls-2" x="6.29" y="6.22" width="22.81" height="38.06"/><path class="cls-3" d="M28.61,6.72V43.78H6.79V6.72H28.61m1-1H5.79V44.78H29.61V5.72Z"/><rect class="cls-4" x="33.38" y="6.22" width="22.98" height="38.06"/><path class="cls-3" d="M55.86,6.72V43.78h-22V6.72h22m1-1h-24V44.78h24V5.72Z"/><polyline class="cls-5" points="56.48 6.38 34.01 25.06 56.48 44.44 45.24 6.06 34.01 44.13"/><polyline class="cls-5" points="28.94 6.72 6.46 25.4 28.94 44.78 17.7 6.4 6.46 44.47"/></svg>