<svg id="Слой_1" data-name="Слой 1" xmlns="http://www.w3.org/2000/svg" xmlns:xlink="http://www.w3.org/1999/xlink" viewBox="0 0 62.13 50.5"><defs><style>.cls-1{fill:#fff;stroke-miterlimit:10;}.cls-1,.cls-5{stroke:#b3b4b4;}.cls-2{fill:url(#Безымянный_градиент_19);}.cls-3{fill:#b3b4b4;}.cls-4{fill:url(#Безымянный_градиент_19-2);}.cls-5{fill:none;stroke-linecap:round;stroke-linejoin:bevel;stroke-width:0.75px;}</style><linearGradient id="Безымянный_градиент_19" x1="17.45" y1="44.28" x2="17.45" y2="6.22" gradientUnits="userSpaceOnUse"><stop offset="0" stop-color="#fff"/><stop offset="1" stop-color="#c0e7f9"/></linearGradient><linearGradient id="Безымянный_градиент_19-2" x1="44.62" y1="44.28" x2="44.62" y2="6.22" xlink:href="#Безымянный_градиент_19"/></defs><title>sОкно с одним открыванием</title><rect class="cls-1" x="0.63" y="0.75" width="60.88" height="49"/><rect class="cls-2" x="6.04" y="6.22" width="22.81" height="38.06"/><path class="cls-3" d="M28.36,6.72V43.78H6.54V6.72H28.36m1-1H5.54V44.78H29.36V5.72Z"/><rect class="cls-4" x="33.13" y="6.22" width="22.98" height="38.06"/><path class="cls-3" d="M55.61,6.72V43.78h-22V6.72h22m1-1h-24V44.78h24V5.72Z"/><line class="cls-5" x1="15.24" y1="22.52" x2="19.66" y2="27.98"/><line class="cls-5" x1="19.66" y1="22.52" x2="15.24" y2="27.98"/><polyline class="cls-5" points="56.23 6.38 33.76 25.06 56.23 44.44 44.99 6.06 33.76 44.13"/></svg>