<svg id="Слой_1" data-name="Слой 1" xmlns="http://www.w3.org/2000/svg" xmlns:xlink="http://www.w3.org/1999/xlink" viewBox="0 0 80 50.58"><defs><style>.cls-1{fill:#fff;stroke:#b3b4b4;stroke-miterlimit:10;}.cls-2{fill:url(#Безымянный_градиент_19);}.cls-3{fill:#b3b4b4;}.cls-4{fill:url(#Безымянный_градиент_19-2);}.cls-5{fill:url(#Безымянный_градиент_19-3);}</style><linearGradient id="Безымянный_градиент_19" x1="15.51" y1="44.47" x2="15.51" y2="6.42" gradientUnits="userSpaceOnUse"><stop offset="0" stop-color="#fff"/><stop offset="1" stop-color="#c0e7f9"/></linearGradient><linearGradient id="Безымянный_градиент_19-2" x1="40.05" y1="44.47" x2="40.05" y2="6.42" xlink:href="#Безымянный_градиент_19"/><linearGradient id="Безымянный_градиент_19-3" x1="64.61" y1="44.47" x2="64.61" y2="6.42" xlink:href="#Безымянный_градиент_19"/></defs><title>s3-створчатое окно</title><rect class="cls-1" x="0.63" y="0.94" width="79" height="49"/><rect class="cls-2" x="6.12" y="6.42" width="18.77" height="38.06"/><path class="cls-3" d="M24.39,6.92V44H6.62v-37H24.39m1-1H5.62V45H25.39v-39Z"/><rect class="cls-4" x="30.07" y="6.42" width="19.95" height="38.06"/><path class="cls-3" d="M49.52,6.92V44h-19v-37h19m1-1h-21V45h21v-39Z"/><rect class="cls-5" x="55.07" y="6.42" width="19.07" height="38.06"/><path class="cls-3" d="M73.64,6.92V44H55.57v-37H73.64m1-1H54.57V45H74.64v-39Z"/></svg>