<svg id="Слой_1" data-name="Слой 1" xmlns="http://www.w3.org/2000/svg" xmlns:xlink="http://www.w3.org/1999/xlink" viewBox="0 0 79.96 50.17"><defs><style>.cls-1{fill:#fff;stroke-miterlimit:10;}.cls-1,.cls-6{stroke:#b3b4b4;}.cls-2{fill:url(#Безымянный_градиент_19);}.cls-3{fill:#b3b4b4;}.cls-4{fill:url(#Безымянный_градиент_19-2);}.cls-5{fill:url(#Безымянный_градиент_19-3);}.cls-6{fill:none;stroke-linecap:round;stroke-linejoin:bevel;stroke-width:0.75px;}</style><linearGradient id="Безымянный_градиент_19" x1="15.37" y1="44.23" x2="15.37" y2="6.17" gradientUnits="userSpaceOnUse"><stop offset="0" stop-color="#fff"/><stop offset="1" stop-color="#c0e7f9"/></linearGradient><linearGradient id="Безымянный_градиент_19-2" x1="39.91" y1="44.23" x2="39.91" y2="6.17" xlink:href="#Безымянный_градиент_19"/><linearGradient id="Безымянный_градиент_19-3" x1="64.47" y1="44.23" x2="64.47" y2="6.17" xlink:href="#Безымянный_градиент_19"/></defs><title>sОкно с двумя открытиями</title><rect class="cls-1" x="0.49" y="0.7" width="79" height="49"/><rect class="cls-2" x="5.98" y="6.17" width="18.77" height="38.06"/><path class="cls-3" d="M24.25,6.67V43.73H6.48V6.67H24.25m1-1H5.48V44.73H25.25V5.67Z"/><rect class="cls-4" x="29.93" y="6.17" width="19.95" height="38.06"/><path class="cls-3" d="M49.38,6.67V43.73h-19V6.67h19m1-1h-21V44.73h21V5.67Z"/><rect class="cls-5" x="54.93" y="6.17" width="19.07" height="38.06"/><path class="cls-3" d="M73.5,6.67V43.73H55.43V6.67H73.5m1-1H54.43V44.73H74.5V5.67Z"/><polyline class="cls-6" points="74.35 5.98 55.21 24.67 74.35 44.05 64.78 5.67 55.21 43.73"/><polyline class="cls-6" points="6.38 6.35 24.25 25.2 6.38 44.05"/><line class="cls-6" x1="37.78" y1="22.13" x2="42.2" y2="27.59"/><line class="cls-6" x1="42.2" y1="22.13" x2="37.78" y2="27.59"/></svg>