<svg id="Сгруппировать_417" data-name="Сгруппировать 417" xmlns="http://www.w3.org/2000/svg" width="43.051" height="46.019" viewBox="0 0 43.051 46.019">
  <path id="Контур_966" data-name="Контур 966" d="M59.214,5.954A.917.917,0,0,0,58.051,5.1a20.942,20.942,0,0,1-5.651.774A20.82,20.82,0,0,1,38.134.247a.917.917,0,0,0-1.252,0,20.82,20.82,0,0,1-14.266,5.63,20.968,20.968,0,0,1-5.254-.666.917.917,0,0,0-1.146.858c-.016.494-.024.991-.024,1.478a45.452,45.452,0,0,0,5.775,22.182A45.759,45.759,0,0,0,37.224,45.875a.917.917,0,0,0,.986,0A45.759,45.759,0,0,0,53.468,29.728,45.452,45.452,0,0,0,59.243,7.546C59.242,7.029,59.233,6.493,59.214,5.954ZM37.717,44.01A43.433,43.433,0,0,1,18.025,7.546q0-.15,0-.3a22.865,22.865,0,0,0,4.589.464A22.642,22.642,0,0,0,37.508,2.15,22.642,22.642,0,0,0,52.4,7.71a22.822,22.822,0,0,0,5.007-.554q0,.2,0,.391A43.433,43.433,0,0,1,37.717,44.01Z" transform="translate(-16.192 0)" fill="#fff"/>
  <path id="Контур_967" data-name="Контур 967" d="M87,93.46a.917.917,0,0,0-1.159-.581,20.833,20.833,0,0,1-7.23,1.049.917.917,0,1,0-.056,1.833q.358.011.715.011a22.615,22.615,0,0,0,7.149-1.153A.917.917,0,0,0,87,93.46Z" transform="translate(-72.034 -84.322)" fill="#fff"/>
  <path id="Контур_968" data-name="Контур 968" d="M199.451,64.677a.913.913,0,0,0,.437-.112,22.843,22.843,0,0,0,2.241-1.394.917.917,0,0,0-1.057-1.5,21,21,0,0,1-2.061,1.281.917.917,0,0,0,.439,1.722Z" transform="translate(-181.818 -55.868)" fill="#fff"/>
  <path id="Контур_969" data-name="Контур 969" d="M161.975,160.27,149.744,172.5l-6.181-6.181a.917.917,0,0,0-1.3,1.3l6.83,6.83a.917.917,0,0,0,1.3,0l12.88-12.88a.917.917,0,1,0-1.3-1.3Z" transform="translate(-130.464 -145.334)" fill="#fff"/>
</svg>
