<svg xmlns="http://www.w3.org/2000/svg" width="48.986" height="48.986" viewBox="0 0 48.986 48.986">
  <g id="sign" transform="translate(-7.063 -7.063)">
    <path id="Контур_507" data-name="Контур 507" d="M84.493,60a24.493,24.493,0,1,0,24.493,24.493A24.521,24.521,0,0,0,84.493,60Zm0,45.237a20.744,20.744,0,1,1,20.744-20.744A20.768,20.768,0,0,1,84.493,105.237Z" transform="translate(-52.937 -52.937)" fill="#fff"/>
    <path id="Контур_508" data-name="Контур 508" d="M143.752,160.065a7.044,7.044,0,0,0-7.036,7.036v.853h3.749V167.1a3.287,3.287,0,1,1,6.574,0v.114a3.3,3.3,0,0,1-1.113,2.465l-9.1,8.19v4.055h13.41v-3.749h-8.148l6.333-5.7a7.041,7.041,0,0,0,2.363-5.26V167.1A7.044,7.044,0,0,0,143.752,160.065Z" transform="translate(-120.067 -140.498)" fill="#fff"/>
    <path id="Контур_509" data-name="Контур 509" d="M273.975,160.065h-1.618A6.363,6.363,0,0,0,266,166.42v9.15a6.363,6.363,0,0,0,6.355,6.356h1.618a6.363,6.363,0,0,0,6.356-6.356v-9.15A6.363,6.363,0,0,0,273.975,160.065Zm2.607,15.505a2.61,2.61,0,0,1-2.607,2.607h-1.618a2.61,2.61,0,0,1-2.607-2.607v-9.15a2.609,2.609,0,0,1,2.607-2.607h1.618a2.61,2.61,0,0,1,2.607,2.607v9.15Z" transform="translate(-233.196 -140.498)" fill="#fff"/>
  </g>
</svg>
