<svg xmlns="http://www.w3.org/2000/svg" width="15" height="15" viewBox="0 0 15 15">
  <path id="_013-skype" data-name="013-skype" d="M14.121,7.5A6.649,6.649,0,0,0,7.5.879c-.142,0-.311,0-.451.013A4.407,4.407,0,0,0,.892,7.079c-.009.14-.013.28-.013.421A6.649,6.649,0,0,0,7.5,14.121c.142,0,.282,0,.421-.013A4.417,4.417,0,0,0,15,10.605a4.489,4.489,0,0,0-.892-2.684c.009-.14.013-.28.013-.421ZM7.5,11.924a4.374,4.374,0,0,1-2.382-.663c-.561-.374-1.054-.885-.762-1.493a.913.913,0,0,1,1.472-.194,2.439,2.439,0,0,0,1.726.578c.653,0,1.7-.343,1.7-.866S8.21,8.379,7.5,8.379c-2.174,0-3.545-1.317-3.545-2.637C3.955,4.461,5.2,3.158,7.5,3.157a4.357,4.357,0,0,1,2.354.611c.561.374,1.055.885.763,1.493a.9.9,0,0,1-1.472.193,2.357,2.357,0,0,0-1.7-.577c-.653,0-1.733.343-1.733.866s1.077.879,1.787.879c2.174,0,3.516,1.347,3.516,2.666S9.668,11.924,7.5,11.924Zm0,0" fill="#2d85b8"/>
</svg>
