<svg xmlns="http://www.w3.org/2000/svg" width="48.974" height="28.983" viewBox="0 0 48.974 28.983">
  <path id="speed" d="M34.913.288c4.246.985,5.87,3.468,7.907,6.885H34.913ZM10.1,7.461A1.26,1.26,0,0,1,11.533,8.8,1.435,1.435,0,0,1,10.1,10.235H1.434a1.435,1.435,0,0,0,0,2.87H14.347a1.435,1.435,0,1,1,.006,2.87H1.434a1.435,1.435,0,1,0,0,2.87H4.591v4.3a1.435,1.435,0,0,0,1.435,1.435H8.91a5.5,5.5,0,0,0,10.78,0H34.258a5.5,5.5,0,0,0,10.78,0h2.5a1.435,1.435,0,0,0,1.435-1.435V14.539c0-4.21-4.44-4.489-4.444-4.5H33.478a1.435,1.435,0,0,1-1.435-1.435V0H6.026A1.435,1.435,0,0,0,4.591,1.435V4.591H2.869a1.435,1.435,0,1,0,0,2.87ZM41.507,21.623a2.631,2.631,0,1,1-4.49,1.86A2.631,2.631,0,0,1,41.507,21.623Zm-25.348,0a2.631,2.631,0,1,1-4.49,1.86A2.631,2.631,0,0,1,16.16,21.623Zm0,0" transform="translate(0)" fill="#fff" fill-rule="evenodd"/>
</svg>
