<svg xmlns="http://www.w3.org/2000/svg" width="43.537" height="45.319" viewBox="0 0 43.537 45.319">
  <g id="sport-top" transform="translate(-5.839)">
    <path id="Контур_1380" data-name="Контур 1380" d="M43.676,9.441a1.142,1.142,0,0,0,1.6-.215,17.615,17.615,0,0,1,28.028,0A1.142,1.142,0,1,0,75.12,7.841a19.9,19.9,0,0,0-31.659,0A1.142,1.142,0,0,0,43.676,9.441Z" transform="translate(-31.683)" fill="#fff"/>
    <path id="Контур_1381" data-name="Контур 1381" d="M228.037,81.983a3.566,3.566,0,1,0,3.566-3.566A3.57,3.57,0,0,0,228.037,81.983Z" transform="translate(-188.293 -66.451)" fill="#fff"/>
    <path id="Контур_1382" data-name="Контур 1382" d="M221.366,131.1l-.907-.278a1.067,1.067,0,0,0-.951.166l-1.792,1.341-1.792-1.341a1.066,1.066,0,0,0-.951-.166l-.907.278a3.53,3.53,0,0,0-2.417,3.353v5.391a1.063,1.063,0,0,0,.175.585l1.808,2.751v7.225a1.065,1.065,0,0,0,1.066,1.066h6.035a1.065,1.065,0,0,0,1.066-1.066v-7.225l1.808-2.751a1.065,1.065,0,0,0,.175-.585v-5.391a3.53,3.53,0,0,0-2.417-3.353Z" transform="translate(-174.408 -110.823)" fill="#fff"/>
    <path id="Контур_1383" data-name="Контур 1383" d="M25.79,85.549a3.566,3.566,0,1,0-3.566-3.566A3.57,3.57,0,0,0,25.79,85.549Z" transform="translate(-13.885 -66.451)" fill="#fff"/>
    <path id="Контур_1384" data-name="Контур 1384" d="M15.554,131.1l-.907-.278a1.067,1.067,0,0,0-.951.166l-1.792,1.341-1.792-1.341a1.066,1.066,0,0,0-.951-.166l-.907.278a3.53,3.53,0,0,0-2.417,3.353v5.391a1.063,1.063,0,0,0,.175.585l1.808,2.751v7.225a1.065,1.065,0,0,0,1.066,1.066h6.035a1.065,1.065,0,0,0,1.066-1.066v-7.225l1.808-2.751a1.065,1.065,0,0,0,.175-.585v-5.391A3.531,3.531,0,0,0,15.554,131.1Z" transform="translate(0 -110.823)" fill="#fff"/>
    <path id="Контур_1385" data-name="Контур 1385" d="M127.557,43.308a4.6,4.6,0,1,0-4.6,4.6A4.6,4.6,0,0,0,127.557,43.308Z" transform="translate(-95.35 -32.802)" fill="#fff"/>
    <path id="Контур_1386" data-name="Контур 1386" d="M110.013,111.249l-.008,0-1.313-.4a.408.408,0,0,0-.5.25l-2.76,7.574a.5.5,0,0,1-.936,0l-2.76-7.574a.408.408,0,0,0-.383-.268c-.04,0-1.431.42-1.431.42a4.075,4.075,0,0,0-2.8,3.871v8.012a.408.408,0,0,0,.067.224l2.88,4.383v11.09a.408.408,0,0,0,.408.408h8.97a.408.408,0,0,0,.408-.408v-11.09l2.88-4.383a.408.408,0,0,0,.067-.224V115.1a4.049,4.049,0,0,0-2.788-3.847Z" transform="translate(-77.354 -93.915)" fill="#fff"/>
    <path id="Контур_1387" data-name="Контур 1387" d="M142.728,111.519a.607.607,0,0,0-.45-.187H141.02a.608.608,0,0,0-.45.187.584.584,0,0,0-.077.687l.672,1.014-.315,2.656.62,1.649a.189.189,0,0,0,.356,0l.62-1.649-.315-2.656.672-1.014A.583.583,0,0,0,142.728,111.519Z" transform="translate(-114.042 -94.344)" fill="#fff"/>
  </g>
</svg>
