<svg xmlns="http://www.w3.org/2000/svg" width="36.94" height="33.442" viewBox="0 0 36.94 33.442">
  <g id="sport" transform="translate(-0.001)">
    <path id="Контур_659" data-name="Контур 659" d="M234.088,81.443a3.026,3.026,0,1,1-3.026-3.026A3.029,3.029,0,0,1,234.088,81.443Z" transform="translate(-225.915 -73.276)" fill="#fff"/>
    <path id="Контур_660" data-name="Контур 660" d="M213.7,131.055l.769-.236a.905.905,0,0,1,.807.141l1.52,1.138,1.52-1.138a.9.9,0,0,1,.807-.141l.769.236a3,3,0,0,1,2.051,2.845v4.574a.9.9,0,0,1-.149.5l-1.534,2.335v6.131a.9.9,0,0,1-.9.9h-5.121a.9.9,0,0,1-.9-.9V141.3L211.8,138.97a.9.9,0,0,1-.149-.5V133.9A3,3,0,0,1,213.7,131.055Z" transform="translate(-211.65 -118.858)" fill="#fff"/>
    <path id="Контур_661" data-name="Контур 661" d="M25.25,84.468a3.026,3.026,0,1,1,3.026-3.026A3.029,3.029,0,0,1,25.25,84.468Z" transform="translate(6.544 -73.276)" fill="#fff"/>
    <path id="Контур_662" data-name="Контур 662" d="M7.89,131.055l.769-.236a.905.905,0,0,1,.807.141l1.52,1.138,1.52-1.138a.9.9,0,0,1,.807-.141l.769.236a3,3,0,0,1,2.051,2.845v4.574a.9.9,0,0,1-.149.5L14.45,141.3v6.131a.9.9,0,0,1-.9.9H8.426a.9.9,0,0,1-.9-.9V141.3L5.988,138.97a.9.9,0,0,1-.149-.5V133.9A3,3,0,0,1,7.89,131.055Z" transform="translate(20.808 -118.858)" fill="#fff"/>
    <path id="Контур_663" data-name="Контур 663" d="M118.358,42.612a3.9,3.9,0,1,1,3.9,3.9A3.907,3.907,0,0,1,118.358,42.612Z" transform="translate(-103.79 -38.709)" fill="#fff"/>
    <path id="Контур_664" data-name="Контур 664" d="M99.488,111.185l.006,0,1.114-.342a.346.346,0,0,1,.427.212l2.342,6.426a.423.423,0,0,0,.795,0l2.342-6.426a.346.346,0,0,1,.325-.228c.034,0,1.214.357,1.214.357a3.458,3.458,0,0,1,2.373,3.285v6.8a.346.346,0,0,1-.057.19l-2.444,3.719v9.41a.346.346,0,0,1-.346.346H99.969a.346.346,0,0,1-.346-.346v-9.41l-2.444-3.719a.346.346,0,0,1-.057-.19V114.45A3.435,3.435,0,0,1,99.488,111.185Z" transform="translate(-85.303 -101.489)" fill="#fff"/>
    <path id="Контур_665" data-name="Контур 665" d="M140.547,111.49a.515.515,0,0,1,.381-.158H142a.516.516,0,0,1,.381.158.5.5,0,0,1,.065.583l-.571.86.267,2.253-.526,1.4a.161.161,0,0,1-.3,0l-.526-1.4.267-2.253-.571-.86A.5.5,0,0,1,140.547,111.49Z" transform="translate(-122.992 -101.929)" fill="#fff"/>
  </g>
</svg>
