<svg xmlns="http://www.w3.org/2000/svg" width="45.068" height="45.303" viewBox="0 0 45.068 45.303">
  <g id="sratch-resistant" transform="translate(-30 -21.4)">
    <path id="Контур_1456" data-name="Контур 1456" d="M30,44.9V43.221c.034-.218.076-.436.1-.655.1-.831.134-1.67.285-2.493a22.374,22.374,0,0,1,6.756-12.488,21.935,21.935,0,0,1,12.9-6c.512-.059,1.016-.126,1.527-.185H53.5c.193.034.378.076.571.1.982.126,1.972.193,2.937.394A21.808,21.808,0,0,1,68.572,28.24a22.2,22.2,0,0,1,6.4,14.67c.017.3.067.6.1.906V44.4c-.025.143-.067.294-.084.436-.092.94-.126,1.9-.277,2.828A22.551,22.551,0,0,1,55.052,66.552a21.8,21.8,0,0,1-7.486-.411A22.6,22.6,0,0,1,30.176,46.519C30.126,45.973,30.059,45.436,30,44.9Zm29.768-5.992c-1.485,1.46-2.9,2.87-4.339,4.263-.218.21-.084.327.059.478a40.62,40.62,0,0,1,4.188,5.237A20.016,20.016,0,0,1,62.5,54.744c.076.294.151.6.2.9.05.285.076.579.109.864a29.636,29.636,0,0,0-4.23-6c-1.611-1.846-3.29-3.642-4.884-5.4-1.653,1.628-3.223,3.172-4.817,4.733.1.117.2.227.3.344A25.14,25.14,0,0,1,53.709,56.4a9.264,9.264,0,0,1,.957,3.332c-1.838-3.4-4.507-5.959-6.966-8.527-2.56,2.5-5.061,4.952-7.57,7.4A18.3,18.3,0,0,0,57.838,62.5c8.6-2.8,13.227-8.93,13.739-17.952A18.184,18.184,0,0,0,67.12,31.673c-2.073,2-4.087,3.953-6.118,5.917.1.117.168.2.235.277.73.831,1.494,1.628,2.174,2.493a16.87,16.87,0,0,1,3.105,5.472,7.119,7.119,0,0,1,.21.806c.05.26.076.52.109.789C65,44.127,62.3,41.576,59.768,38.907ZM39.4,42.835l.1-.1c.126.059.252.117.369.185A36.6,36.6,0,0,1,46,47.216c.252.218.4.243.646-.008,1.141-1.175,2.3-2.325,3.449-3.491.352-.352.688-.713,1.1-1.158-3.466-3.382-6.882-6.714-10.3-10.054.05-.05.1-.109.151-.159a57.479,57.479,0,0,1,11.674,8.535c1.536-1.485,3.03-2.937,4.54-4.4L51.51,30.6a.791.791,0,0,1,.084-.084,37.405,37.405,0,0,1,6.739,4.641l6.227-6.026c-5.371-4.079-11.238-5.354-17.683-3.407a19.158,19.158,0,0,0-13.428,17.54A18.883,18.883,0,0,0,37.57,56.019c2.551-2.476,5.044-4.91,7.545-7.344C43.193,46.7,41.3,44.773,39.4,42.835Z" transform="translate(0)" fill="#fff"/>
  </g>
</svg>
