<svg xmlns="http://www.w3.org/2000/svg" width="57.585" height="46.799" viewBox="0 0 57.585 46.799">
  <g id="stars" transform="translate(0 -47.966)">
    <path id="Контур_1305" data-name="Контур 1305" d="M15.063,53.09l-4.433-.644L8.647,48.429a.849.849,0,0,0-1.512,0L5.152,52.446.719,53.09a.849.849,0,0,0-.467,1.438L3.46,57.656,2.7,62.071a.849.849,0,0,0,1.223.889l3.965-2.085,3.965,2.085a.849.849,0,0,0,1.223-.889l-.757-4.415,3.208-3.127A.849.849,0,0,0,15.063,53.09Zm-4.235,3.667a.843.843,0,0,0-.243.746l.543,3.168-2.845-1.5a.844.844,0,0,0-.785,0l-2.845,1.5L5.2,57.5a.843.843,0,0,0-.243-.746l-2.3-2.244,3.181-.462a.843.843,0,0,0,.635-.461l1.423-2.883L9.314,53.59a.843.843,0,0,0,.635.461l3.181.462Z" transform="translate(0)" fill="#fff"/>
    <path id="Контур_1306" data-name="Контур 1306" d="M15.063,194.09l-4.433-.644-1.983-4.017a.849.849,0,0,0-1.512,0l-1.983,4.017-4.433.644a.849.849,0,0,0-.467,1.438l3.208,3.127L2.7,203.071a.849.849,0,0,0,1.223.889l3.965-2.085,3.965,2.085a.849.849,0,0,0,1.223-.889l-.757-4.415,3.208-3.127A.849.849,0,0,0,15.063,194.09Zm-4.235,3.667a.843.843,0,0,0-.243.746l.543,3.168-2.845-1.5a.844.844,0,0,0-.785,0l-2.845,1.5L5.2,198.5a.843.843,0,0,0-.243-.746l-2.3-2.244,3.181-.462a.843.843,0,0,0,.635-.461l1.423-2.883,1.423,2.883a.843.843,0,0,0,.635.461l3.181.462Z" transform="translate(0 -125.147)" fill="#fff"/>
    <path id="Контур_1307" data-name="Контур 1307" d="M15.063,335.09l-4.433-.644-1.983-4.017a.849.849,0,0,0-1.512,0l-1.983,4.017-4.433.644a.849.849,0,0,0-.467,1.438l3.208,3.127L2.7,344.071a.849.849,0,0,0,1.223.889l3.965-2.085,3.965,2.085a.849.849,0,0,0,1.223-.889l-.757-4.415,3.208-3.127A.849.849,0,0,0,15.063,335.09Zm-4.235,3.667a.843.843,0,0,0-.243.746l.543,3.168-2.845-1.5a.844.844,0,0,0-.785,0l-2.845,1.5L5.2,339.5a.843.843,0,0,0-.243-.746l-2.3-2.244,3.181-.462a.843.843,0,0,0,.635-.461l1.423-2.883,1.423,2.883a.843.843,0,0,0,.635.461l3.181.462Z" transform="translate(0 -250.295)" fill="#fff"/>
    <path id="Контур_1308" data-name="Контур 1308" d="M212.879,74.342h-2.429a.843.843,0,1,0,0,1.686h2.429a.281.281,0,0,1,.281.281v5.172a.281.281,0,0,1-.281.281H179.15a.281.281,0,0,1-.281-.281V76.31a.281.281,0,0,1,.281-.281h27.365a.843.843,0,1,0,0-1.686H179.15a1.97,1.97,0,0,0-1.968,1.968v5.172a1.97,1.97,0,0,0,1.968,1.968h33.729a1.97,1.97,0,0,0,1.968-1.968V76.31A1.97,1.97,0,0,0,212.879,74.342Z" transform="translate(-157.261 -23.41)" fill="#fff"/>
    <path id="Контур_1309" data-name="Контур 1309" d="M227.919,107.342a.843.843,0,1,0,0,1.686h23.61a.843.843,0,0,0,0-1.686Z" transform="translate(-201.545 -52.7)" fill="#fff"/>
    <path id="Контур_1310" data-name="Контур 1310" d="M203.884,215.342H179.15a1.97,1.97,0,0,0-1.968,1.968v5.172a1.97,1.97,0,0,0,1.968,1.968h19.045a.843.843,0,0,0,0-1.686H179.15a.281.281,0,0,1-.281-.281v-5.172a.281.281,0,0,1,.281-.281h24.735a.281.281,0,0,1,.281.281v5.172a.281.281,0,0,1-.281.281H202.13a.843.843,0,1,0,0,1.686h1.755a1.97,1.97,0,0,0,1.968-1.968v-5.172A1.97,1.97,0,0,0,203.884,215.342Z" transform="translate(-157.261 -148.558)" fill="#fff"/>
    <path id="Контур_1311" data-name="Контур 1311" d="M243.659,248.342h-15.74a.843.843,0,0,0,0,1.686h15.74a.843.843,0,0,0,0-1.686Z" transform="translate(-201.545 -177.848)" fill="#fff"/>
    <path id="Контур_1312" data-name="Контур 1312" d="M192.641,356.342h-7.826a.843.843,0,1,0,0,1.686h7.826a.281.281,0,0,1,.281.281v5.172a.281.281,0,0,1-.281.281H179.15a.281.281,0,0,1-.281-.281V358.31a.281.281,0,0,1,.281-.281h1.731a.843.843,0,0,0,0-1.686H179.15a1.97,1.97,0,0,0-1.968,1.968v5.172a1.97,1.97,0,0,0,1.968,1.968h13.492a1.97,1.97,0,0,0,1.968-1.968V358.31A1.97,1.97,0,0,0,192.641,356.342Z" transform="translate(-157.261 -273.705)" fill="#fff"/>
    <path id="Контур_1313" data-name="Контур 1313" d="M228.647,391.029a.843.843,0,1,0,0-1.686h-5.622a.843.843,0,1,0,0,1.686Z" transform="translate(-197.202 -302.995)" fill="#fff"/>
  </g>
</svg>
