<svg xmlns="http://www.w3.org/2000/svg" width="35.717" height="41.943" viewBox="0 0 35.717 41.943">
  <g id="surface1" transform="translate(0 -0.001)">
    <path id="Контур_417" data-name="Контур 417" d="M128.433,158.457a7.992,7.992,0,1,0,7.991,7.991A8,8,0,0,0,128.433,158.457Zm4.745,6.486-5.725,5.725a1.23,1.23,0,0,1-1.74,0l-2.188-2.188a1.23,1.23,0,0,1,1.74-1.74l1.318,1.318,4.855-4.855a1.23,1.23,0,0,1,1.74,1.74Zm0,0" transform="translate(-110.575 -145.475)" fill="#fff"/>
    <path id="Контур_418" data-name="Контур 418" d="M35.675,11.379v-.033c-.018-.4-.03-.829-.038-1.3a4.445,4.445,0,0,0-4.186-4.355A17.249,17.249,0,0,1,19.71.74L19.683.714a2.684,2.684,0,0,0-3.648,0L16.008.74A17.251,17.251,0,0,1,4.267,5.689,4.445,4.445,0,0,0,.082,10.044c-.007.471-.02.9-.038,1.3l0,.076C-.052,16.34-.168,22.46,1.879,28.015a21.121,21.121,0,0,0,5.067,7.893,26.507,26.507,0,0,0,9.916,5.865,3.072,3.072,0,0,0,.406.111,3,3,0,0,0,1.18,0,3.081,3.081,0,0,0,.408-.111A26.525,26.525,0,0,0,28.763,35.9a21.151,21.151,0,0,0,5.067-7.895C35.885,22.437,35.769,16.306,35.675,11.379ZM17.858,31.424A10.453,10.453,0,1,1,28.311,20.971,10.464,10.464,0,0,1,17.858,31.424Zm0,0" transform="translate(0 0.002)" fill="#fff"/>
  </g>
</svg>
