<svg xmlns="http://www.w3.org/2000/svg" width="55.532" height="53.741" viewBox="0 0 55.532 53.741">
  <g id="surface-1" transform="translate(0 -0.125)">
    <path id="Контур_1823" data-name="Контур 1823" d="M4.478,48.492H27.766V46.7H4.478a2.687,2.687,0,0,1-2.687-2.687V4.6A2.687,2.687,0,0,1,4.478,1.916h39.41A2.686,2.686,0,0,1,46.575,4.6V25.2h1.792V4.6A4.484,4.484,0,0,0,43.888.125H4.478A4.484,4.484,0,0,0,0,4.6v39.41A4.485,4.485,0,0,0,4.478,48.492Zm0,0" fill="#fff"/>
    <path id="Контур_1824" data-name="Контур 1824" d="M62.344,62.469h1.791V64.26H62.344Zm0,0" transform="translate(-58.761 -58.761)" fill="#fff"/>
    <path id="Контур_1825" data-name="Контур 1825" d="M124.676,62.469h1.792V64.26h-1.792Zm0,0" transform="translate(-117.511 -58.761)" fill="#fff"/>
    <path id="Контур_1826" data-name="Контур 1826" d="M187.016,62.469h1.792V64.26h-1.792Zm0,0" transform="translate(-176.268 -58.761)" fill="#fff"/>
    <path id="Контур_1827" data-name="Контур 1827" d="M62.344,124.8h41.2v1.792h-41.2Zm0,0" transform="translate(-58.761 -117.511)" fill="#fff"/>
    <path id="Контур_1828" data-name="Контур 1828" d="M71.12,191.707l-2.275,2.275a4.492,4.492,0,1,0,1.266,1.267l2.275-2.275ZM66.379,200.4a2.687,2.687,0,1,1,0-5.374,2.64,2.64,0,0,1,1.151.268l-1.784,1.784,1.266,1.267,1.785-1.783a2.637,2.637,0,0,1,.269,1.151A2.687,2.687,0,0,1,66.379,200.4Zm0,0" transform="translate(-58.318 -180.571)" fill="#fff"/>
    <path id="Контур_1829" data-name="Контур 1829" d="M264.941,249.484h15.226v1.791H264.941Zm0,0" transform="translate(-249.714 -235.028)" fill="#fff"/>
    <path id="Контур_1830" data-name="Контур 1830" d="M264.941,311.82h6.27v1.791h-6.27Zm0,0" transform="translate(-249.714 -293.781)" fill="#fff"/>
    <path id="Контур_1831" data-name="Контур 1831" d="M405.2,311.82h12.539v1.791H405.2Zm0,0" transform="translate(-381.915 -293.781)" fill="#fff"/>
    <path id="Контур_1832" data-name="Контур 1832" d="M561.047,249.484H570v1.791h-8.957Zm0,0" transform="translate(-528.803 -235.028)" fill="#fff"/>
    <path id="Контур_1833" data-name="Контур 1833" d="M71.12,378.723,68.845,381a4.492,4.492,0,1,0,1.266,1.267l2.275-2.275Zm-4.741,8.694a2.687,2.687,0,0,1,0-5.374,2.643,2.643,0,0,1,1.151.269L65.746,384.1l1.266,1.266,1.785-1.783a2.639,2.639,0,0,1,.269,1.151A2.687,2.687,0,0,1,66.379,387.417Zm0,0" transform="translate(-58.318 -356.839)" fill="#fff"/>
    <path id="Контур_1834" data-name="Контур 1834" d="M264.941,436.492h15.226v1.792H264.941Zm0,0" transform="translate(-249.714 -411.288)" fill="#fff"/>
    <path id="Контур_1835" data-name="Контур 1835" d="M264.941,498.836h6.27v1.791h-6.27Zm0,0" transform="translate(-249.714 -470.049)" fill="#fff"/>
    <path id="Контур_1836" data-name="Контур 1836" d="M405.2,498.836h7.165v1.791H405.2Zm0,0" transform="translate(-381.915 -470.049)" fill="#fff"/>
    <path id="Контур_1837" data-name="Контур 1837" d="M561.047,436.492h3.583v1.792h-3.583Zm0,0" transform="translate(-528.803 -411.288)" fill="#fff"/>
    <path id="Контур_1838" data-name="Контур 1838" d="M71.12,565.738l-2.275,2.275a4.492,4.492,0,1,0,1.266,1.266L72.386,567Zm-4.741,8.694a2.687,2.687,0,0,1,0-5.374,2.634,2.634,0,0,1,1.151.269l-1.784,1.785,1.266,1.266,1.785-1.783a2.64,2.64,0,0,1,.269,1.151A2.687,2.687,0,0,1,66.379,574.432Zm0,0" transform="translate(-58.318 -533.106)" fill="#fff"/>
    <path id="Контур_1839" data-name="Контур 1839" d="M264.941,623.512h11.644V625.3H264.941Zm0,0" transform="translate(-249.714 -587.56)" fill="#fff"/>
    <path id="Контур_1840" data-name="Контур 1840" d="M264.941,685.852h6.27v1.791h-6.27Zm0,0" transform="translate(-249.714 -646.317)" fill="#fff"/>
    <path id="Контур_1841" data-name="Контур 1841" d="M405.2,685.852h3.583v1.791H405.2Zm0,0" transform="translate(-381.915 -646.317)" fill="#fff"/>
    <path id="Контур_1842" data-name="Контур 1842" d="M512.146,494.535A13.435,13.435,0,1,0,498.711,481.1,13.435,13.435,0,0,0,512.146,494.535Zm0-25.079A11.644,11.644,0,1,1,500.5,481.1,11.644,11.644,0,0,1,512.146,469.456Zm0,0" transform="translate(-470.049 -440.669)" fill="#fff"/>
    <path id="Контур_1843" data-name="Контур 1843" d="M611.123,588.722l-1.6.8,1.791,3.583a.9.9,0,0,0,.658.484.984.984,0,0,0,.139.012.9.9,0,0,0,.633-.262l10.748-10.748-1.266-1.267-9.87,9.869Zm0,0" transform="translate(-574.49 -547.796)" fill="#fff"/>
  </g>
</svg>
