<svg xmlns="http://www.w3.org/2000/svg" width="47.152" height="47.152" viewBox="0 0 47.152 47.152">
  <g id="target" transform="translate(0)">
    <g id="Сгруппировать_506" data-name="Сгруппировать 506" transform="translate(0 0)">
      <path id="Контур_1020" data-name="Контур 1020" d="M164.341,174.064h6.2a.691.691,0,1,0,0-1.381h-1.6v-1.169a.691.691,0,1,0-1.381,0v1.169h-2.525v-3.4a3.034,3.034,0,0,1,3.03-3.031h8.187a3.034,3.034,0,0,1,3.03,3.031v3.4h-2.525v-1.169a.691.691,0,0,0-1.381,0v1.169h-1.6a.691.691,0,1,0,0,1.381h6.2a.691.691,0,0,0,.691-.691V169.28a4.417,4.417,0,0,0-4.411-4.412h-.513a5.342,5.342,0,1,0-7.162,0h-.513a4.417,4.417,0,0,0-4.411,4.412v4.093A.691.691,0,0,0,164.341,174.064Zm3.853-13.156a3.961,3.961,0,1,1,3.966,3.961h-.011A3.965,3.965,0,0,1,168.194,160.907Z" transform="translate(-148.579 -141.238)" fill="#fff"/>
      <path id="Контур_1021" data-name="Контур 1021" d="M46.462,21.4H44.248A20.753,20.753,0,0,0,38.274,8.878c-.08-.08-.162-.161-.244-.239a.691.691,0,1,0-.953,1c.074.071.148.143.22.216A19.374,19.374,0,0,1,42.859,21.4H41.25a17.811,17.811,0,0,0-15.5-15.5V4.293a19.261,19.261,0,0,1,8.919,3.36.691.691,0,0,0,.793-1.131A20.644,20.644,0,0,0,25.755,2.9V.691A.691.691,0,0,0,25.065,0H22.088A.691.691,0,0,0,21.4.691V2.9A20.789,20.789,0,0,0,2.9,21.4H.691A.691.691,0,0,0,0,22.088v2.977a.691.691,0,0,0,.691.691H2.9A20.789,20.789,0,0,0,21.4,44.248v2.214a.691.691,0,0,0,.691.691h2.977a.691.691,0,0,0,.691-.691V44.248A20.789,20.789,0,0,0,44.248,25.755h2.214a.691.691,0,0,0,.691-.691V22.088a.691.691,0,0,0-.691-.691ZM24.374,1.381V9.3h-1.6V1.381ZM9.855,9.855A19.373,19.373,0,0,1,21.4,4.294V5.9A17.811,17.811,0,0,0,5.9,21.4H4.294A19.374,19.374,0,0,1,9.855,9.855ZM1.381,22.778H9.3v1.6H1.381ZM9.855,37.3A19.374,19.374,0,0,1,4.294,25.755H5.9a17.712,17.712,0,0,0,3.632,8.771.691.691,0,0,0,1.089-.85,16.333,16.333,0,0,1-3.327-7.92h2.7a.691.691,0,0,0,.691-.691V22.088a.691.691,0,0,0-.691-.691h-2.7a16.369,16.369,0,0,1,14.1-14.1v2.7a.691.691,0,0,0,.691.691h2.977a.691.691,0,0,0,.691-.691v-2.7a16.369,16.369,0,0,1,14.1,14.1h-2.7a.691.691,0,0,0-.691.691v2.977a.691.691,0,0,0,.691.691h2.7a16.369,16.369,0,0,1-14.1,14.1v-2.7a.691.691,0,0,0-.691-.691H22.088a.691.691,0,0,0-.691.691v2.7a16.257,16.257,0,0,1-8.657-3.939.691.691,0,0,0-.912,1.038A17.629,17.629,0,0,0,21.4,41.252v1.606A19.373,19.373,0,0,1,9.855,37.3Zm12.923,8.474V37.849h1.6v7.922ZM37.3,37.3a19.373,19.373,0,0,1-11.542,5.562V41.251a17.811,17.811,0,0,0,15.5-15.5h1.608A19.373,19.373,0,0,1,37.3,37.3Zm8.474-12.923H37.849v-1.6h7.922Z" transform="translate(0 0)" fill="#fff"/>
    </g>
  </g>
</svg>
