<svg xmlns="http://www.w3.org/2000/svg" width="36.511" height="28.524" viewBox="0 0 36.511 28.524">
  <g id="technology" transform="translate(0 -56)">
    <path id="Контур_538" data-name="Контур 538" d="M344.7,174.276l3.354-3.354a1.711,1.711,0,0,0-2.42-2.42l-3.354,3.354-3.354-3.354a1.711,1.711,0,0,0-2.42,2.42l3.354,3.354-3.354,3.354a1.711,1.711,0,0,0,2.42,2.42l3.354-3.354,3.354,3.354a1.711,1.711,0,1,0,2.42-2.42Z" transform="translate(-312.041 -104.013)" fill="#fff"/>
    <path id="Контур_539" data-name="Контур 539" d="M7.06,160H3.138A3.138,3.138,0,0,0,0,163.138v7.416a3.138,3.138,0,0,0,3.138,3.138H7.06a.357.357,0,0,0,.357-.357V160.357A.357.357,0,0,0,7.06,160Z" transform="translate(0 -96.584)" fill="#fff"/>
    <path id="Контур_540" data-name="Контур 540" d="M146.269,56h-1.711a1.711,1.711,0,0,0-1.04.352l-7.378,5.642a.357.357,0,0,0-.14.283v15.97a.357.357,0,0,0,.14.283l7.378,5.642a1.711,1.711,0,0,0,1.04.352h1.711a1.711,1.711,0,0,0,1.711-1.711v-25.1A1.711,1.711,0,0,0,146.269,56Z" transform="translate(-126.302)" fill="#fff"/>
  </g>
</svg>
