<svg id="firewood-trunks-stacked" xmlns="http://www.w3.org/2000/svg" width="53.524" height="33.711" viewBox="0 0 53.524 33.711">
  <path id="Контур_510" data-name="Контур 510" d="M208.535,183.167a.926.926,0,0,0-.6.014c-4.1,1.611-9.034,3.6-10.145,4.253a74.629,74.629,0,0,1-7.623-.078c-.726-.029-1.312-.051-1.785-.066a9.541,9.541,0,0,0,.186-1.863c0-.217-.019-.429-.033-.642,3.425-.987,7.321-1.759,8.057-1.418,1.366.913,7.016-.431,11.98-1.88A6.743,6.743,0,0,1,208.535,183.167Z" transform="translate(-155.083 -159.316)" fill="#fff"/>
  <path id="Контур_511" data-name="Контур 511" d="M120.038,183.863a4.308,4.308,0,1,1-2.726-3.975l-.8,1.45a2.638,2.638,0,1,0,1.893,2.523,2.694,2.694,0,0,0-.052-.518l1.359-1.1A4.24,4.24,0,0,1,120.038,183.863Z" transform="translate(-91.781 -157.751)" fill="#fff"/>
  <path id="Контур_512" data-name="Контур 512" d="M132.02,201.255a.731.731,0,0,1-.076-1.4l-.129.235A.949.949,0,0,0,132.02,201.255Z" transform="translate(-108.22 -174.434)" fill="#fff"/>
  <path id="Контур_513" data-name="Контур 513" d="M159.012,171.9c-.085-.085-.176-.163-.264-.243l.7-1.275a7.857,7.857,0,0,1,.672.617Z" transform="translate(-130.689 -150.169)" fill="#fff"/>
  <path id="Контур_514" data-name="Контур 514" d="M161.425,71.473c-4.7,1.377-10.027,2.589-10.917,2.277-1.432-.953-6.2.179-9.431,1.112a9.436,9.436,0,0,0-.675-1.747h6.778a1.013,1.013,0,0,0,.224-.026l5.917-1.433,6.475-1.779A11.724,11.724,0,0,1,161.425,71.473Z" transform="translate(-115.585 -67.432)" fill="#fff"/>
  <path id="Контур_515" data-name="Контур 515" d="M166.784,89.063a6.751,6.751,0,0,1,.376,2.1c-9.929,2.391-12.036,3.111-12.57,3.383a72.74,72.74,0,0,1-7.633-.076c-.726-.028-1.312-.05-1.785-.065a9.449,9.449,0,0,0,.186-1.863c0-.217-.019-.429-.033-.643,3.424-.988,7.322-1.759,8.055-1.417,1.468.979,7.874-.641,13.068-2.2A7.246,7.246,0,0,1,166.784,89.063Z" transform="translate(-119.512 -82.585)" fill="#fff"/>
  <path id="Контур_516" data-name="Контур 516" d="M132.71,119.069c.565.013,1.412.046,2.3.08,2.785.109,4.639.16,5.9.16,1.937,0,2.459-.122,2.773-.35.782-.354,6.176-1.742,11.394-3.007a11.417,11.417,0,0,1-1.175,2.925l-23.149,3.1A9.551,9.551,0,0,0,132.71,119.069Z" transform="translate(-107.638 -105.363)" fill="#fff"/>
  <path id="Контур_517" data-name="Контур 517" d="M202.932,161.382a6.5,6.5,0,0,1,1.2,1.72c-4.566,1.317-9.554,2.432-10.413,2.133-1.432-.954-6.2.178-9.431,1.111a9.458,9.458,0,0,0-.676-1.746h6.777a1,1,0,0,0,.223-.027l5.919-1.433Z" transform="translate(-151.161 -142.763)" fill="#fff"/>
  <path id="Контур_518" data-name="Контур 518" d="M177.594,224.973c.564.013,1.411.045,2.3.08,2.838.11,4.711.162,5.967.162.6,0,1.048-.013,1.4-.035l-11.272,2.31A9.545,9.545,0,0,0,177.594,224.973Z" transform="translate(-144.884 -195.114)" fill="#fff"/>
  <path id="Контур_519" data-name="Контур 519" d="M184.689,148.423l-5.011,1.377-5.779,1.4h-7.931a9.574,9.574,0,0,0-2.249-1.915l18.785-1.871A11.217,11.217,0,0,1,184.689,148.423Z" transform="translate(-134.78 -131.263)" fill="#fff"/>
  <path id="Контур_520" data-name="Контур 520" d="M141.361,57.086l-4.9,1.344-5.778,1.4h-7.933a9.573,9.573,0,0,0-2.249-1.915l18.752-1.869A17.5,17.5,0,0,1,141.361,57.086Z" transform="translate(-99.205 -56.046)" fill="#fff"/>
  <g id="Сгруппировать_213" data-name="Сгруппировать 213" transform="translate(8.742 2.358)">
    <path id="Контур_521" data-name="Контур 521" d="M72.549,88.2a4.276,4.276,0,1,0,4.276,4.276A4.281,4.281,0,0,0,72.549,88.2Zm0,6.921a2.645,2.645,0,1,1,2.645-2.645A2.648,2.648,0,0,1,72.549,95.123Z" transform="translate(-64.948 -84.877)" fill="#fff"/>
    <ellipse id="Эллипс_465" data-name="Эллипс 465" cx="0.745" cy="0.745" rx="0.745" ry="0.745" transform="translate(6.856 6.856)" fill="#fff"/>
    <path id="Контур_522" data-name="Контур 522" d="M57.061,69.388a7.6,7.6,0,1,0,7.6,7.6A7.61,7.61,0,0,0,57.061,69.388Zm0,13.777a6.176,6.176,0,1,1,6.176-6.176A6.183,6.183,0,0,1,57.061,83.165Z" transform="translate(-49.46 -69.388)" fill="#fff"/>
  </g>
  <path id="Контур_523" data-name="Контур 523" d="M40.376,193.944a.738.738,0,0,1,.265-.136Z" transform="translate(-33.239 -169.458)" fill="#fff"/>
  <path id="Контур_524" data-name="Контур 524" d="M22.652,180.484a2.7,2.7,0,0,0,.438.045,2.65,2.65,0,1,0-2.593-2.121l-1.466.751a4.21,4.21,0,0,1-.217-1.276,4.276,4.276,0,1,1,4.276,4.275,4.228,4.228,0,0,1-1.8-.413Z" transform="translate(-15.489 -152.828)" fill="#fff"/>
  <path id="Контур_525" data-name="Контур 525" d="M7.6,169.991a7.541,7.541,0,0,1-3.321-.775l.31-1.44a6.165,6.165,0,1,0-2.109-1.936l-.145.5-.628.84a7.6,7.6,0,1,1,5.894,2.81Z" transform="translate(0 -137.336)" fill="#fff"/>
  <path id="Контур_526" data-name="Контур 526" d="M92.673,168.373a7.587,7.587,0,0,1,10.763-6.9l-.688,1.248a6.194,6.194,0,1,0,3,2.8l1.124-.911a7.6,7.6,0,1,1-14.2,3.765Z" transform="translate(-76.293 -142.261)" fill="#fff"/>
  <path id="Контур_527" data-name="Контур 527" d="M254.818,204.674l-8.306,1.7a.769.769,0,0,0,.138-.1c.556-.362,5.53-2.387,9.223-3.845A14.741,14.741,0,0,1,254.818,204.674Z" transform="translate(-202.94 -176.558)" fill="#fff"/>
</svg>
