<svg xmlns="http://www.w3.org/2000/svg" viewBox="0 0 477.67 194.17"><defs><style>.cls-1{fill:#060606;}.cls-2{fill:#ec2025;}.cls-3{fill:#b72b2d;}.cls-4{fill:#d18488;}</style></defs><title>sМонтажная область 2</title><g id="Слой_3" data-name="Слой 3"><path class="cls-1" d="M206.11,3.28C198,11.39,190.23,19.22,182.42,27L120.21,89.15c-2.63,2.62-5.18,5.32-7.93,7.8-1.39,1.25-1.15,1.9,0,3.08q16.53,16.45,33,33,24.57,24.61,49.17,49.19,5.44,5.46,10.86,10.94c.23.23.64.36.47,1h-5.6c-15.14,0-30.27,0-45.41,0a4.79,4.79,0,0,1-3.73-1.58q-32.33-32.56-64.7-65.09C77.16,118.31,68,109.05,58.7,99.89c-1.24-1.22-1-1.72.06-2.78q20.78-20.67,41.48-41.44,25.22-25.26,50.38-50.6a5.94,5.94,0,0,1,4.67-1.92c16.49.06,33,0,49.47,0C205.1,3.18,205.43,3.22,206.11,3.28Z"/><path class="cls-1" d="M376.49,144.44c5.48,1.36,9.92,3.47,13.25,7.45,4.8,5.74,5.47,12.52,4.71,19.57-1.59,14.68-12.71,20.5-24.64,22.06a90.29,90.29,0,0,1-11.74.52c-13.77,0-27.54,0-41.31.05-1.68,0-2.38-.15-2.37-2.2q.14-45.91,0-91.83c0-1.72.49-2.07,2.12-2.06,14.77.06,29.54,0,44.31,0,6.11,0,12.26.07,18,2.78A22.29,22.29,0,0,1,392,118.75c1,6.9.12,13.51-4.64,19.09C384.6,141.09,381,143,376.49,144.44ZM341.65,164h0c0,2.5.05,5,0,7.49,0,1.12.34,1.45,1.45,1.44,4.56-.07,9.13,0,13.69-.07a10.3,10.3,0,0,0,6.55-2.15,8.66,8.66,0,0,0-5.68-15.25c-4.91-.15-9.83,0-14.75-.08-1.05,0-1.31.35-1.28,1.36C341.7,159.14,341.65,161.56,341.65,164Zm9-45.06c-2.83,0-5.19,0-7.53,0-1,0-1.54.09-1.52,1.35.09,4.34.07,8.68,0,13,0,1.15.26,1.61,1.54,1.56,2.63-.11,5.27,0,7.9,0s5.42.32,8.07-.45a7.81,7.81,0,0,0-.06-15C356.16,118.51,353.15,119.13,350.67,118.92Z"/><path class="cls-1" d="M261.3,157.47c-3,4.22-5.89,8.34-8.81,12.44a3.56,3.56,0,0,0-.47,2.25c0,6.71,0,13.42,0,20.12,0,1.37-.21,2-1.81,1.95q-11.55-.14-23.12,0c-1.46,0-1.89-.31-1.88-1.86q.07-45.93,0-91.87c0-1.68.39-2.12,2.08-2.1q11.46.15,22.91,0c1.52,0,1.85.39,1.84,1.86-.06,12.35,0,24.7,0,37.7,1.32-2,2.36-3.49,3.35-5Q266,116.39,276.58,99.84c.51-.78.92-1.45,2.1-1.44,8.41.06,16.83,0,25.66,0-1.69,2.51-3.2,4.78-4.74,7-6.17,9-12.32,18-18.54,26.91a2.38,2.38,0,0,0-.17,2.85q12.9,25.83,25.71,51.7c1,2,1.93,4,2.95,5.93.53,1,.4,1.36-.82,1.35-9.7,0-19.41-.08-29.11,0-1.41,0-1.58-.85-2-1.71q-7.92-17.1-15.85-34.21C261.67,158,261.51,157.81,261.3,157.47Z"/><path class="cls-1" d="M405.27,146.16c0-15.21,0-30.41,0-45.62,0-1.59.25-2.17,2-2.16q33.94.11,67.9,0c1.38,0,1.8.32,1.78,1.74-.07,6.36-.09,12.71,0,19.06,0,1.57-.56,1.67-1.83,1.66-13.21,0-26.42,0-39.63-.06-1.77,0-2.54.3-2.42,2.32.19,3.34.11,6.71,0,10.06,0,1.38.33,1.75,1.74,1.74,10.71-.07,21.42,0,32.13-.08,1.78,0,2.29.45,2.25,2.24q-.17,8.34,0,16.7c0,1.65-.44,2-2,2-10.71-.07-21.42,0-32.13-.08-1.59,0-2.05.34-2,2,.14,4,.17,8,0,12-.08,1.92.6,2.13,2.26,2.12,13.35-.06,26.7,0,40.05-.07,1.84,0,2.3.51,2.27,2.23-.09,6.14-.09,12.28,0,18.42,0,1.37-.3,1.84-1.76,1.83q-34.38,0-68.76,0c-1.57,0-1.83-.6-1.83-2C405.29,176.86,405.27,161.51,405.27,146.16Z"/><path class="cls-1" d="M462.73,3.21a14.64,14.64,0,0,1,14.79,15A14.89,14.89,0,1,1,447.74,18,14.78,14.78,0,0,1,462.73,3.21Zm-.25,2.6A12.32,12.32,0,1,0,475,17.74,12.2,12.2,0,0,0,462.48,5.81Z"/><path class="cls-2" d="M122.26,3.3l8.33,0c.25.75-.08,1.6.43,2.3h-.11c-.37-.06-.49.06-.3.42l-.07.17c-.35-.31-.93-.5-1.13-.14-.7,1.22-2,1.78-2.89,2.74-2.82,2.93-5.8,5.7-8.58,8.66-1,1.11-2.91,1.79-2.59,3.86v0a2.28,2.28,0,0,0-2.07.76q-3.26,3.36-6.62,6.61a2.25,2.25,0,0,0-.75,2.07h0c-1.08-.28-1.73.37-2.39,1.05-2.12,2.15-4.23,4.32-6.39,6.43a6.49,6.49,0,0,1-4.93,2c-2.85-.09-5.71,0-8.56,0-14.42,0-28.84,0-43.26,0-1.31,0-2,.24-2.53,1.59a14.64,14.64,0,0,0-.47,5.12q-.06,53.44,0,106.87c0,2.82.16,3,3.09,3q26.24,0,52.47,0c1.18,0,2.36,0,3.15,1,2.43,2.92,5.37,5.33,8,8,1.12,1.16,2,2.65,3.26,3.53,3.63,2.63,6.22,6.27,9.52,9.22,4.3,3.85,7.89,8.44,12.26,12.25a8.6,8.6,0,0,1,1.23,1.18c.61.81.61,1.48-.62,1.59-.57.05-1.14,0-1.72,0q-60.81,0-121.64,0c-6.2,0-5,.1-5-5.08q0-90.81,0-181.61C1.38,5.46.74,3,3.64,4.86a.86.86,0,0,0,.81-.06c1-1,2.28-.64,3.45-.64q42.62,0,85.23,0,13.5,0,27,0C120.9,4.13,121.91,4.52,122.26,3.3Z"/><path class="cls-3" d="M122.26,3.3c-.35,1.22-1.36.83-2.14.83q-13.5,0-27,0-42.61,0-85.23,0c-1.17,0-2.44-.39-3.45.64a.86.86,0,0,1-.81.06C.74,3,1.38,5.46,1.38,6.79q0,90.81,0,181.61c0,5.18-1.22,5.08,5,5.08q60.83,0,121.64,0c.58,0,1.15,0,1.72,0,1.23-.11,1.23-.78.62-1.59a8.6,8.6,0,0,0-1.23-1.18c-4.37-3.81-8-8.4-12.26-12.25-3.3-2.95-5.89-6.59-9.52-9.22-1.22-.88-2.14-2.37-3.26-3.53-2.63-2.72-5.57-5.13-8-8-.79-1-2-1-3.15-1q-26.23,0-52.47,0c-2.93,0-3.09-.15-3.09-3q0-53.43,0-106.87a14.64,14.64,0,0,1,.47-5.12c.49-1.35,1.22-1.59,2.53-1.59,14.42,0,28.84,0,43.26,0,2.85,0,5.71-.06,8.56,0a6.49,6.49,0,0,0,4.93-2c2.16-2.11,4.27-4.28,6.39-6.43.66-.68,1.31-1.33,2.39-1.05-3,3.62-6.6,6.66-9.81,10.08-.69.73-1.56.58-2.4.58H42.35c-3.81,0-3.85,0-3.85,3.72,0,36.25,0,72.5,0,108.74,0,2.55,1.19,2,2.75,2,13.13-.06,26.26,0,39.39,0H94.09c.7,0,1.42-.11,2,.51,3.62,3.91,7.7,7.38,11.17,11.45l.54.41,25.3,25.26a.31.31,0,0,0,.1.37.58.58,0,0,1-.28.23c-3.84,0-7.69-.07-11.53-.08H2.89c-.78,0-1.57,0-2.35,0l0,0c0-.14-.09-.28-.13-.42s0-.54,0-.81a14,14,0,0,0,.17-4q0-88.47,0-176.95c0-2.78,0-5.56.06-8.35,2,0,4-.13,6-.13H120.34C121,3.2,121.62,3.27,122.26,3.3Z"/><path class="cls-4" d="M.58,3.33C.56,6.12.52,8.9.52,11.68q0,88.47,0,177a14,14,0,0,1-.17,4c-.5-1.24-.22-2.54-.22-3.8q0-90.72,0-181.45C.12,6.06-.35,4.6.58,3.33Z"/><path class="cls-3" d="M131,5.62c-.51-.7-.18-1.55-.43-2.3.91,0,1.9-.49,2.69.38C132.38,4.17,132,5.29,131,5.62Z"/><path class="cls-3" d="M115.35,21.32c-.32-2.07,1.55-2.75,2.59-3.86,2.78-3,5.76-5.73,8.58-8.66.92-1,2.19-1.52,2.89-2.74.2-.36.78-.17,1.13.14-.35.47-.71.92-1.07,1.38q-6.09,6-12.2,12.09C116.67,20.26,116,20.77,115.35,21.32Z"/><path class="cls-3" d="M105.92,30.74a2.25,2.25,0,0,1,.75-2.07q3.36-3.24,6.62-6.61a2.28,2.28,0,0,1,2.07-.76A95.59,95.59,0,0,1,105.92,30.74Z"/><path class="cls-3" d="M130.61,6c-.19-.36-.07-.48.3-.42A.31.31,0,0,1,130.61,6Z"/><path class="cls-1" d="M464.54,19.32c2.19,2,3.49,4.45,5,6.89-2.05.57-3.46.34-4.26-1.81A15,15,0,0,0,463.08,21a3.43,3.43,0,0,0-2.72-1.45c-1.08-.07-1.76.07-1.63,1.45s-.05,2.85,0,4.27c.09,1.26-.67,1.11-1.48,1.16S456,26.2,456,25.25c0-4.62,0-9.25,0-13.88,0-1,.43-1.21,1.3-1.16,2.27.1,4.55.08,6.82.25,2.55.21,4,1.41,4.27,3.39.37,2.36-.54,3.93-2.93,5.07Zm-3.3-6.58c-.59.4-2.17-1.09-2.5.69-.65,3.43.16,4.21,3.63,3.86A15.79,15.79,0,0,0,464,17a2.06,2.06,0,0,0,1.63-2.19,2,2,0,0,0-1.81-2A14.8,14.8,0,0,0,461.24,12.74Z"/></g></svg>