<svg xmlns="http://www.w3.org/2000/svg" viewBox="0 0 587.1 140.23"><defs><style>.cls-1{fill:#060505;}.cls-2{fill:#209ed9;}.cls-3{fill:#76b844;}.cls-4{fill:#7bb948;}</style></defs><title>sМонтажная область 3</title><g id="Слой_2" data-name="Слой 2"><path class="cls-1" d="M273.18,70.23c-4.87,18.56-9.6,36.56-14.29,54.56-.38,1.44-.93,2-2.61,2-10.89-.11-21.78-.09-32.67,0-1.51,0-2.22-.32-2.76-1.89Q200.08,64,179.19,3.08c-.32-.92-1-1.84-.55-3.08C190.3,0,202,0,213.74,0c1.94,0,1.7,1.49,2,2.45,4,13.87,7.94,27.76,11.91,41.65q7.51,26.28,15,52.57a3.35,3.35,0,0,0,1,2q7.68-29.48,15.3-58.9c.36-1.38.91-2,2.43-1.95,8.19.07,16.39.09,24.58,0,1.91,0,2.21,1,2.6,2.43,5.05,19.34,10.16,38.66,15.72,58.07.89-3.72,1.81-7.45,2.68-11.18q5.42-23.41,10.78-46.83c.41-1.78,1-2.54,3.07-2.51,10.6.14,21.22.11,31.83,0,2.13,0,2.68.22,1.89,2.54q-14.43,42.28-28.64,84.65c-.51,1.5-1.24,1.89-2.77,1.88-10.89-.07-21.78-.12-32.66,0-2.07,0-2.62-.75-3.06-2.5Q280.74,98.23,274,72.16A18,18,0,0,0,273.18,70.23Z"/><path class="cls-2" d="M.21,76.24c0-19.54.48-39.1-.2-58.62C-.33,7.83,9.93-.14,17.75-.08,51.72.17,85.69,0,119.66,0c.93,0,1.87.05,2.8,0,1.33-.1,1.71.48,1.79,1.78.42,6.44.45,6.4-5.52,8.82q-15.49,6.29-31,12.65a10.78,10.78,0,0,1-4.32.81q-20.52-.07-41,0c-3.87,0-5.17,1.37-5.17,5.24q0,41.73,0,83.48c0,3.78,1.26,5,5,5q20.38,0,40.77,0c1.42,0,2.78,0,3.84-1.19.7-.77,1.73-.63,2.62-.75,10.78-1.42,21.56-2.77,32.33-4.21,2-.28,2.57.47,2.49,2.4-.14,3.16,0,6.33,0,9.49,0,10.58-5.7,16.36-16.33,16.59h-1.4c-34.34,0-68.69,0-103,.06-2.77,0-3.33-.77-3.31-3.4C.26,116.64.21,96.44.21,76.24Z"/><path class="cls-1" d="M360.63,82.32c0-13.87.05-27.73-.06-41.59,0-2.41.4-3.3,3.11-3.28,17.77.14,35.55-.06,53.32.12,10.59.11,21.09,1.16,31.05,5.31,15.1,6.29,23.19,17.74,24.66,33.82.79,8.66.15,17.25-3.57,25.36-5.55,12.09-15.58,18.47-27.91,21.87a82.52,82.52,0,0,1-22,2.83c-18.61,0-37.22-.05-55.83.06-2.4,0-2.84-.67-2.82-2.92C360.68,110,360.63,96.18,360.63,82.32Zm46.71,20.56c4-.07,8.69.21,13.3-.66,6.5-1.22,11.71-4.13,14.08-10.71,1.53-4.27,1.52-8.73,1.33-13.21-.4-9.7-5.56-15.76-15.06-17.53-8.2-1.54-16.49-.64-24.75-.89-1.37,0-1.43.77-1.42,1.8q0,19.67,0,39.33c0,1.47.44,1.94,1.9,1.9C400,102.82,403.39,102.88,407.34,102.88Z"/><path class="cls-1" d="M496.87,99.43c6.14,0,12.29,0,18.43,0,.75,0,1.79-.45,2.14.71,1.3,4.36,5,5.53,8.75,6.26a33.77,33.77,0,0,0,14.36-.29,10.76,10.76,0,0,0,2.36-.8c1.73-.85,3.09-2,3.22-4.17a4.84,4.84,0,0,0-2.77-4.75c-4.25-2.43-9.06-2.49-13.71-3.19-10.9-1.64-22-1.91-32.69-5C490.7,86.34,485,83.41,481.12,78c-9.48-13.19-3.49-31.64,12.25-37.74,8.77-3.41,18-4.38,27.28-4.6,12.65-.29,25.3-.27,37.66,2.94,7.54,2,14.6,4.91,19.62,11.33,2.83,3.62,4.12,7.82,4.87,12.27.2,1.19-.14,1.67-1.41,1.67q-18.43,0-36.86,0c-.76,0-1.47,0-1.75-1-1.22-4.27-4.65-5.73-8.52-6.57a31.93,31.93,0,0,0-15.42.11,8.9,8.9,0,0,0-2.05.83c-1.62.89-2.82,2-2.75,4.13s1.45,3.14,3.14,3.81c3.83,1.5,8,1.75,12,2.42,12.62,2.11,25.45,3,37.86,6.19,6,1.57,11.48,4.37,15.34,9.49,9.27,12.28,4.48,31-9.79,38.55-7.51,4-15.67,5.63-24,6.57a157.84,157.84,0,0,1-33.38.58c-10.81-1.07-21.32-3.14-30.11-10.14a23.65,23.65,0,0,1-9-16.67c-.25-2.34.47-2.81,2.64-2.76C484.77,99.52,490.82,99.43,496.87,99.43Z"/><path class="cls-3" d="M138.91,56V99.22c0,4.76-.41,5.33-4.94,6-15.18,2.15-30.37,4.21-45.54,6.37-2.11.29-3-.5-3-2.51v-1.68c0-24.84,0-49.67-.06-74.51,0-2.95,1-4.57,3.72-5.68,15.25-6.1,30.43-12.37,45.64-18.56,3.19-1.3,4.16-.62,4.16,3Q138.93,33.78,138.91,56Z"/><path class="cls-4" d="M141.06,109.51c2.33-1.76,2.44-3.92,2.44-6.06q0-47.43,0-94.87a35.8,35.8,0,0,0-.41-3.66c3.86.64,7.75,1.24,11.63,1.94a1.86,1.86,0,0,1,1.48,1.82c.11,1.3.25,2.59.25,3.89q0,44.93,0,89.84c0,.56,0,1.12,0,1.68-.4,4.61-.69,6.47-6.38,5.87C147.23,109.66,144.36,109.67,141.06,109.51Z"/></g></svg>