<svg xmlns="http://www.w3.org/2000/svg" viewBox="0 0 1220.08 616.57"><defs><style>.cls-1{fill:#24232f;}.cls-2{fill:#ed2426;}</style></defs><title>sМонтажная область 10</title><g id="Слой_7" data-name="Слой 7"><path class="cls-1" d="M821.89,175.82c.72,1.59,2.13.93,3.14.74,5.79-1.14,11.31.35,16.87,1.53.49.11,1,.2,1.19,1.07a18.18,18.18,0,0,1-8.16.34c-5.89-.76-11.81-.75-17.71-1.23-9.24-.75-18.53-.87-27.75-2.14-6.25-.85-12.59-1.07-18.86-1.78-7.8-.89-15.64-1.41-23.39-2.82-6.85-1.24-13.84-1.61-20.72-2.71-7.23-1.15-14.5-2.09-21.66-3.74-4.27-1-8.64-1.54-13-2.3-1.74-.31-2.63.29-2.18,2.86-1.41-1.37-.78-3.36-2.51-3.63-1.27-.2-2.51-.6-3.78-.84-6.08-1.12-12.26-1.86-18.24-3.38-17.88-4.53-36-8.06-53.74-13.13-9.91-2.82-20-5-29.83-8.18-14.2-4.61-28.53-8.86-42.47-14.24-14.4-5.56-29-10.75-43.1-16.93-10.81-4.72-21.83-9.08-32.27-14.65a5.27,5.27,0,0,0-5.66.12c-2.86,1.53-3.9,4.86-6.94,5.89.08,1.78-1.52.89-2.24,1.41-1.27.91-1.28,2,.08,2.87,3.57,2.39,7.66,3.66,11.57,5.29,9.85,4.12,19.8,8,29.64,12.15,11.83,5,24,9.08,36.08,13.46,16.35,5.92,33.11,10.46,49.81,15.24,11.53,3.29,23.18,6.08,34.84,8.8s23.44,5.07,35.29,7c3.34.53,7,.34,10,2.36,4.33-1,8.24,1.67,12.48,1.47.77,0,1.77,0,1.77,1s-.82,1.45-1.9,1.26c-6.28-1-12.57-2-18.84-3.11-6-1-12.08-2.08-18.1-3.23-3.52-.67-7-1.53-10.5-2.31-3.85-.87-7.69-1.76-11.48-2.63-.84,1.64-.53,3.08-.53,4.47,0,9,.23,18.1,0,27.14-.12,5.83.25,11.64.17,17.46s0,11.61,0,17.41.06,11.89.09,17.83q.07,15.71.17,31.4c0,.9,0,1.8.07,2.71,0,1.33.71,1.82,2,1.6a8.91,8.91,0,0,1,1.93-.13c1.63.08,2-.89,1.79-2.22-.69-3.72.13-7.38.27-11.07.17-4.58,0-9.17.06-13.73.12-8.61-.28-17.2-.28-25.8,0-7.55,0-15.1-.1-22.65-.1-6.39-.23-12.79-.19-19.16,0-4.56-.88-9.12-.07-13.72a7.69,7.69,0,0,0-.3-4.49c-.69-1.56.29-2.71,1.76-3.34.48-.2,1.43-.1,1.37.24-.46,2.46,2.47,1.56,2.93,3.08a19.49,19.49,0,0,1,.77,5.69c0,7.24,0,14.48.07,21.72,0,6.59,0,13.19.07,19.78,0,3.33.06,3.13,3.46,3.15,3.82,0,7.63.47,11.44.76a18.44,18.44,0,0,0,1.91.3c7.18-.27,14.28,1.47,21.47.8a3.75,3.75,0,0,1,1.89,0c3.17,1.65,6.85.19,10,1.71.53.25,1,0,1.46-.21,4.82-2,9.05,1.33,13.63,1.6.86,0,1.32,1,1.56,2,.56,2.2,1.15,4.21.76,6.69-.51,3.19,0,6.57.29,9.86.47,6.6.25,13.2.23,19.8a87.43,87.43,0,0,1-1.17,14.18c-.24,1.4,0,2.69,1.83,2.71,3.55,0,7.09-.05,10.64-.05q25.2,0,50.4.06c2.95,0,5.89.33,8.84.39a10.66,10.66,0,0,0,5-.66c-2.36-1.6-2.07-3.7-1.95-6,.28-5.36.27-10.74.13-16.1,0-1.47,1-2.72.44-4.22-.59-1.69-.19-3.48-.28-5.23s-.14-3.35-.36-5a30.1,30.1,0,0,1,0-5.37c.08-1.67,0-3.35.24-5a36.46,36.46,0,0,0,.15-8.67c-.19-1.89,1-3.48.68-5.49-.87-6.3.28-12.67-.05-19-.21-3.91.44-7.77,0-11.68-.21-1.86-.76-2.31-2.39-2.65-2.29-.48-4.61-.32-6.9-.65-4.84-.7-9.71-1.2-14.54-2a3.41,3.41,0,0,0-3.28,1.21c-7,6.62-13.64,13.59-20.46,20.37a28.71,28.71,0,0,1-5.18,4c1.79-3.49,5.21-5.49,7.75-8.3,2.77-3.06,5.66-6,8.57-8.95s5.67-5.55,9.08-8.88c-3.73-.28-6.39-2-9.51-.93a1.79,1.79,0,0,1-2.57-1.62c.66-.79,1.62-.52,2.42-.41q17,2.3,34,4.68c2.52.36,4.84.55,5.83-2.89,1.36,1.33.76,3.51,2.94,3.67,1.22.1,2.78.1,3.76,1.29-.67,1.1-1.51.54-2.16.5-3.46-.23-3.48-.26-3.47,3.07q0,13.2.07,26.38c0,5.43,0,10.86.12,16.29,0,2.78.1,2.71,3.06,3,8,.91,16,1.89,24,2.84a1.28,1.28,0,0,1,1.28,1c-2.21.65-4.4.17-6.59,0-6.4-.52-12.7-1.85-19.14-2-2.46-.05-2.55-.08-2.55,2.46,0,13,.13,26.09,0,39.13,0,1.7.88,1.6,1.81,1.65,4.5.22,9,.52,13.52.48,6.58-.05,13.13.51,19.67.92,9.13.57,18.3.39,27.38,1.42,9.6,1.09,19.23,1.53,28.84,2.24a15.77,15.77,0,0,1,2.47.58c-.74,1.11-1.61.73-2.38.67-11.33-.81-22.64-1.71-34-2.4-10.8-.66-21.62-1-32.42-1.67q-11.4-.74-22.81-.93a15.06,15.06,0,0,0-2.32.14c-.75.1-1.85.21-1.7,1.14s.47,2.18,1.64,2.25c2.2.13,4.35,1.73,6.64.27.39-.25,1.32-.36,1.46-.16,1.46,2.07,3.43.18,5,.72,1.94.67,3.77.08,5.63.06,3.72,0,7.37.62,11,.89a40.57,40.57,0,0,1,5.47.38c4.59.95,9.3.91,14,1.08a58.57,58.57,0,0,1,11,1.11,24.58,24.58,0,0,0,6.92.09c2.2-.16,4.24.39,6.35.52,4,.24,7.8,1.3,11.88.19,2.07-.56,4.8.31,6.63,1.13,2,.91,3.7.41,5.53.62,5.59.62,11.14,1.55,16.73,2.13,1.6.16,2.58,2.06,4.17,1.4s3.27-.15,4.89,0,3.27.47,4.92.62c1.25.11,2.55-.23,3.63.84.83.83,1.92.49,3,.3,2.16-.4,4.11-.57,6.06,1.2,1,.91,2.79,1.91,4.57.88.31-.19.88-.43,1-.3,3.48,2.87,7.56.86,11.3,1.44,1,.15,2.11-.11,2.72,1.06a1.57,1.57,0,0,0,2,.63c1.73-.74,3.33-1.49,4.59.66,3.48-1.9,5,2.1,7.64,2.57a35.59,35.59,0,0,1,9,3.1c1.34.62,2.74,1.12,4.45,1.82-1.23,1.09-2.18,1.65-3.14.44a2.26,2.26,0,0,0-1.86-1c-5.15-.37-10-2.25-15.2-2.71s-10.47-1.42-15.68-2.32c-13.46-2.31-27.07-3.65-40.55-5.77-14.91-2.34-29.94-3-44.88-4.78a162.75,162.75,0,0,0-17.11-.75c-2.45,0-5-.92-7.55-1a21.79,21.79,0,0,0-5,.23c-1.76.34-3.69.85-5.6-.3-1.48-.87-3.17.9-4.9.23-.53-.21-1.29.22-1.89.09-7.07-1.58-14.32-.07-21.42-1.33-3.79-.66-4.42,0-4.55,3.88,0,1,.44,2-.84,3.58-.13-2.08-.2-3.58-.32-5.08-.22-2.68-.41-2.84-3-2.48a19.75,19.75,0,0,1-4.21,0c-2.36-.16-4.67-.65-7.13,0-3.17.82-6.52,0-9.71-.2-4-.26-7.91.14-11.86,0-5.42-.17-10.85-.45-16.27-.42-7.54,0-15.08.33-22.62.5-2,0-2.82.78-3,2.94-.29,2.84.3,5.65-.54,8.47,0-2.76,0-5.51,0-8.27,0-2.08-.73-2.81-3-2.66-11.95.78-24,.64-35.9,2-7.68.85-15.4,1.35-23.1,2-3.5.3-3.53.31-3.52,3.93,0,9,.05,18.09,0,27.13,0,1.19.41,2.54-1.23,4.23-.67-12,.38-23.3-.89-34.63-3.13-.38-6,.37-8.94.69-9.31,1-18.56,2.7-27.89,3.44-12.08,1-23.87,3.66-35.86,5.12-3.66.45-3.72.54-3.85,4.36-.1,3.22,0,6.45,0,9.68,0,.83.4,1.76-.56,2.72-.67-1.49,0-2.84-.1-4.15-.13-3.09-.27-6.18-.31-9.28,0-1.82-.59-2.39-2.57-2.15-9.69,1.19-19.26,3.06-28.87,4.81-6.16,1.13-12.16,3.12-18.52,3.4a25.52,25.52,0,0,0-7.08,1.72c-5.59,2-11.67,1.66-17.2,4.08-2.12.93-4.71,1.08-7.09,1.56-4,.8-7.73,2.51-11.89,2.8-1.51.1-3.53.25-4.73,2.12-.7,1.1-2.25,0-3.51.23a140.93,140.93,0,0,0-15.21,4.07c-4.94,1.6-10.14,2.4-15.16,3.8a167.53,167.53,0,0,0-16.4,5.17c-4.88,1.94-9.95,3.43-14.94,5.08a2.72,2.72,0,0,0-2.14,3.12c.16,6.64,1.75,13,3.35,19.39,1.54,6.1,3.41,12.12,5.33,18.11,1.6,5,4.15,9.62,5,14.81-3-.3-3.33-3.43-4.69-5.19a35.45,35.45,0,0,1-5.9-12.31,11.88,11.88,0,0,0-1-2.93c-3.14-5.32-3.57-11.42-5.08-17.2-1.11-4.3-2-8.66-2.81-13-.3-1.61-.83-1.73-2.32-1.38a135.12,135.12,0,0,0-15,4.84c-7.38,2.66-14.68,5.5-22.05,8.17-9.41,3.41-18.8,6.91-27.86,11.11-6.53,3-13.18,5.83-19.67,9a96.76,96.76,0,0,1-10.78,4.74c-1.09.37-1,1.4-1.75,1.88-1.12.72-2.11.69-2.44-.6-.74-2.94-2.05-5.73-2.1-8.85a37.24,37.24,0,0,0-.59-6.92c-.44-2.19.73-3.12,2.33-3.81a18.93,18.93,0,0,1,2.92-.87,14.68,14.68,0,0,0,4.83-2.2c2.15-1.45,4.89-2.07,7.41-2.95,2.73-.95,5.6-1.47,8.06-3.22,1.3-.93,2.49-.47,2.43,1.48,0,.52,0,1.13.8.83.23-.09.42-.65.39-1-.07-.79-2-1-.9-2,.89-.83,2.48-1.9,3.34-1.61,2.9,1,4.25-1.34,6.1-2.41,2.2-1.27,2.75-1.45,4.31.55a1.75,1.75,0,0,0,2.24.81c1.14-.39,1.88-1.52,1.28-2.2-1-1.13-.63-1.36.4-1.86a28.73,28.73,0,0,1,5.74-2c1-.25,1.07-.24,2.48,1.49.4.49.83.44,1.31.47,3.18.22,5.66-1.69,8.57-2.69-.9-.24-1.75-.46-1.71-1.43s.91-1.11,1.7-1,1.72.34,2-.57c.5-1.53,1.66-1,2.54-.89a6.39,6.39,0,0,0,6-2c1.38-1.42,3.11-2.83,5.33-2.17,1.14.33,1.6-.56,2.42-.74,3.11-.69,6.31-1.17,8.89-3.33a2.39,2.39,0,0,1,2.2-.48c2.54,1,4.67-.37,7-.86,1.46-.31,1.61-.83,1.42-2-.29-1.89-.42-3.81-.74-5.7a1.57,1.57,0,0,0-2.3-1.32c-4.76,1.7-9.78,2.49-14.45,4.63-3.29,1.51-6.9,3.1-10.62,2.72-1.8-.19-1.48,1.49-2.81,1.72a33.92,33.92,0,0,0-6.22,1.72c-6.16,2.35-12.52,4.11-18.82,6.08-4.39,1.37-8.56,3.42-12.93,4.93-3.27,1.14-6.39,2.75-9.91,3-1.07.07-1.18,1.15-2.16,1.36-5.87,1.3-11.28,4-16.92,6a13.31,13.31,0,0,1-4.26.74c.11-1.79,1.31-2.3,2.61-2.94,6-2.93,12.43-4.83,18.72-7.05,4.59-1.62,9.05-3.61,13.62-5.26,6.17-2.23,12.34-4.48,18.61-6.37,15.14-4.55,30.17-9.45,45.45-13.49,1.87-.5,2.53-.82,1.76-3-.89-2.52-.58-5.36-1.06-8.05-.64-3.6-.39-7.29-.44-10.95-.09-6-.35-12-.42-18-.09-9.38,1-18.67,1.27-28,.08-2.5.92-4.8,1.33-7.2,1.08-6.44,1.95-12.92,3.09-19.35.31-1.8-1.08-3.83,1.63-5.38-6.08-1.28-11.29-.46-16.47-.22-7.72.37-15.43.89-23.14,1.37-1,.07-2,.26-3.05.42-2.58.41-2.93.21-3.18-1.92-.34-2.82.13-3.59,2.35-3.87,6-.76,12.08-.94,18.13-1.11,8.22-.22,16.43-.49,24.64-.65,1.94,0,3-.4,2.36-2.67a8.36,8.36,0,0,1,0-2.69c0-.81,1.22-1.59.22-2.41a4,4,0,0,0-2.61-.56c-6,0-12.07-.42-18.11-.48s-12.38-.27-18.56-.55a8,8,0,0,1-1.81-.63c1-.71,1.57-1.64,2.55-1.55,3.1.27,6.24-.29,9.3.49a3.35,3.35,0,0,0,1.46.3c7.36-1.34,14.62-.62,21.94.57,2.38.38,5,0,8,.36-1.17-2.28.09-3.83.57-5.42,1.83-6.16,4.09-12.19,6.1-18.3,1.91-5.84,4.6-11.36,6.84-17.06a57.45,57.45,0,0,1,2.52-6.48c2.38-4.29,3.41-9.43,7.42-12.76.19-.16.43-.52.37-.65-1.18-2.55,1.15-4,1.82-6,.75-2.21,2.69-3.82,3.54-5.82a63.8,63.8,0,0,1,3.48-6.38c.94-1.64,1-5.08,4.53-4.56.37.06.62-.55.44-.87-1.55-2.65,2-3.58,1.92-5.71,2.52-1.06,2.49-4.15,4.46-5.63a1.53,1.53,0,0,0,.68-1.66c-.06-.34,0-1,.15-1,3.36-.73,3.4-4.58,5.9-6.2,2.09-1.36,1.91-1.66,0-3-1.16-.82-2.39-1.53-3.53-2.33-2-1.4-3.25-.67-4.61.85a174.94,174.94,0,0,0-15.74,20.52A166.45,166.45,0,0,0,392.47,134c-1.89,3.87-4.44,7.47-5.26,11.88-.28,1.52-2,2.42-2.5,4.67-1.57-4.46.56-7.45,2.08-10.13,2-3.59,2.84-7.62,5-11.14,1.74-2.89,3.25-6,4.85-8.91,1.74-3.21,3.62-6.31,5.59-9.37q5-7.74,10.19-15.37a22.28,22.28,0,0,1,2.16-2.19c1.5-1.67,1.43-2.92-.53-4a84,84,0,0,1-7.08-4.67c-1.53-1.11-1.54-1.11-2.14-4.35,4.21,2.84,8.59,4.32,12.78,6.27s8.67,3.92,12.93,6a2.75,2.75,0,0,0,3.71-.64c1.76-1.9,3.52-3.81,5.36-5.63,1.17-1.16,3-1.48,3.46-3.58.37-1.58.24-2.47-1.14-3.13q-6.4-3.07-12.83-6.1c-3.73-1.75-7.44-3.54-11.2-5.2-2.1-.93-1.75-2.76-1.51-4.25.71-4.42,1.93-6.59,6.74-3.13A42.41,42.41,0,0,0,432,66.29c1.74.68,2.86,2.1,4.44,2.9-.57.66-.68,1.39.15,1.8.53.26.83-.31.91-.85,2.92.22,4.7,3.1,8,3.29a23.3,23.3,0,0,0,.22-5.54c0-1.55-.15-3.09-.17-4.64,0-1.25-.61-3.24.46-3.56,1.44-.42,2.49-1.83,4.14-1.59a5.75,5.75,0,0,0,5-2c1.52-1.49,3-3,5.27-3.22a3.77,3.77,0,0,0,2.39-1.61c-.1-3.18,3.29-2.1,4.33-3.73a11.79,11.79,0,0,1,4.35-4.07,2.09,2.09,0,0,1,1.92-.12c.37,1.47-.53,2.36-1.54,3.11a101.84,101.84,0,0,1-10.59,7.46A19.31,19.31,0,0,0,458,56.68c-3.37,3.18-6.71,6.37-10.71,8.78a2.84,2.84,0,0,0-1.25,2.68c0,1.29.05,2.59,0,3.88-.08,2.92.3,3.49,3,2.9,1.48-.33,3.42,0,4.12-2.71.45-1.76,3.8-2.37,4.65-4.75,2.54.91,2.69-1,3.17-2.61a.86.86,0,0,1,.47-.53c4.15-1,6.25-4.49,8.89-7.32a2.49,2.49,0,0,1,.6-.47c5.72-2.89,9.2-8.62,15-11.54,4.68-2.35,8.64-6.11,14.09-6.91,1.45-.21,1.84-1.69,2.76-2.5,2.68-2.34,6.22-2.86,9-4.86,2.25-1.59,4.58-3.28,7.67-2.67a1.21,1.21,0,0,0,1.06-.29c2.15-3.49,6.41-2.18,9.24-4.11,3.43-2.35,7.83-2.13,11.37-4.33,1.37-.85,3.14-1.07,4.73-1.59A274,274,0,0,1,573,10c6.15-1.32,12.45-1.91,18.64-3.07,8.14-1.53,16.41-1.9,24.62-2.33,5.74-.31,11.59.12,17.38.3,6.57.2,13.14.55,19.7,1.19,6,.59,11.85,2.29,17.78,3.36a253.72,253.72,0,0,1,28,6.88c3,.91,6.45,1.79,8.41,4.86.31.5.92.33,1.38.49q6.65,2.4,13.26,4.86a3.53,3.53,0,0,1,1.6,1.05c1.83,2.45,5.57,1.41,7.26,4.05,3.37-.5,5.28,2.65,8.2,3.3a9.85,9.85,0,0,1,1.91,1.13,5.32,5.32,0,0,1-4.07-.91c-2.49-1.26-5.15-2.2-7.62-3.42-5.35-2.63-10.69-4.94-16.76-5-2.11-2-5.18-1.52-7.61-3.07-2.25-1.42-5.25-1.68-7.73-2.95-.73-.38-1.07-.3-1.4.47-.19.44-.94.21-1,0-.34-2.93-3.46-.58-4.46-2.35-.18-.33-1.06.08-.94.71.19,1-.06,2.46,1.73,2.25-3.29-.29-6.17-2-9.37-2.64a4.89,4.89,0,0,1-2.44-1,3,3,0,0,0-3.27-.48c-2,.9-3.76.31-5.51-.51.39-.42,2.22.28,1.38-1.11-1.65-2.73-4.78-3.11-7.57-3.82-.94-.24-1.62.49-.66,1.26a1.12,1.12,0,0,1,.12,1.89c-.72.54-.91-.33-1.2-.87-.72-1.34-1.48,0-2.22,0l.06,0c0-1.06-2.08-1-1.29-2.76.42-.95-1.24-.14-1.71-.59-1.34-1.28-2.92-.62-4.41-.66-.67,0-1.48.05-1.23.95.71,2.56-.79,2.13-2.34,1.91a60.77,60.77,0,0,0-10.45-.11,24.81,24.81,0,0,1-6.54-.69,6.62,6.62,0,0,0-3,0c-.58.11-1.3.58-1.71-.21s1.08-1,.88-1.9c-3.34-.22-3.34-.22-2.77,2.13-.82.59-1.74,0-2.56.22-1.81.49-2.94-.05-3.34-1.94a2,2,0,0,0-.46-1A1.57,1.57,0,0,0,618,9.37c-.69.33-.59,1-.27,1.66.22.44.74.75.45,1.67a55,55,0,0,0-8.78.22c-2.84.16-5.69-.09-8.51.44-.5.1-1.13.38-1.49.19-1.52-.81-2.93-1.71-3.94.64-.09.21-.76.34-1.08.24-4.12-1.25-7.79,1.06-11.65,1.63-1.89.28-3.85.33-5.72.54-7.57.88-14.78,3.32-22.09,5.12a75.83,75.83,0,0,0-15.79,5.42c-3.19,1.59-6.77,2.3-10.15,3.46-1.74.59-3.06,1.7-4.67,2.4-4.31,1.85-8.55,3.86-12.7,6.08a52.56,52.56,0,0,1-8.43,3.68c-1.32.42-2.25,1.9-3.51,2.65-2.85,1.71-5.76,3.31-8.69,4.87-5.47,2.91-10.12,6.93-14.65,11-2.33,2.13-5.39,3.5-7,6.43-4.12,1-5.36,5.8-9.32,7.12a6.78,6.78,0,0,0-2.55,2.25c-1.43,1.67-1.06,2.16.9,3.28,2.32,1.33,4,.71,5.8-.88,5.44-4.74,10.93-9.41,16.69-13.76a247,247,0,0,1,40.36-24.94,170.71,170.71,0,0,1,19.88-8.47c6-2.05,12-4.39,18.45-5.26.16,0,.35.25.64.48-3.19,3.05-7.48,4-11.32,5.53-1.93.75-3.58,2-5.49,2.7a265,265,0,0,0-27.54,12.72,125.5,125.5,0,0,0-16.08,9.6c-5,3.73-10.77,6.4-15.16,11-1.3,1.36-3.51,1.47-4.47,3.37-.4.76-1.35.51-2.14.41-1.11-.14-1.5-.06-1.61,1.51-.14,1.9-2.72,2.34-4.08,3.62a39.59,39.59,0,0,1-4.51,4c-1.65,1.14-1.35,3.48.52,3.55,2.12.08,3.24,1.46,4.44,2.43,2.82,2.28,6.44,2.43,9.41,4.17,2.29,1.34,4.69,2.47,7,3.81,1.95,1.14,3.6,2.94,6.18,2.56a.81.81,0,0,1,.66.29c1.83,2.39,5.49,1.7,7.23,4.27.18.27.87.54,1,.43,1.54-1.33,2.69.47,4.06.5.44,0-1.18,1.13.23,1.29a5,5,0,0,0,2.28-.13c1.12-.44,2.11-.43,2.67.65s1.63,1,2.61,1.16c2.43.44,5,.71,6.13,3.42,1,.74-1.4,1.6.1,2.38.66-.86-1.27-1.63,0-2.44l4.49,2.3c-.75,0-1.54,0-1.45,1.14.06.6.57.78,1.06.83,1.08.12,1.19-.53,1-1.37.63,0,1.31.13,1.54-.73.1-.38.28-1.27.64-.31.21.57-1.07,1.59.29,2.12a3.7,3.7,0,0,0,3.35.09c1.41-.91,1.29.7,1.9.91,3.66,1.28,6.56,4.47,10.84,4.3,1.35-.06,2.59.81,4,1.1s2.77,2.59,3.58,2.31a3.25,3.25,0,0,1,3.82.82c.26.25.8.53,1,.42,3.3-1.46,4.89,1.24,6.9,2.82.92.71,1.67,1.18,2.62.11s1.41-.32,2.27.45.93,3.12,3.05,2c1.06,1.47,2.28,1.92,3.77.58-.23.33-.46.65-.68,1a1.31,1.31,0,0,0-1.05-1.36c-.67-.14-1.39,0-1.61.62-.37,1.1.64,1.1,1.29,1.33a4.7,4.7,0,0,0,.75.13c6.86,2.72,14,4.45,21,6.64,5.16,1.61,10.48,2.48,15.7,3.82a13.49,13.49,0,0,0,3.29.93c1.8,0,3.47,1.65,5.35.41,1.15,1.34,3.33,0,4.54,2,.62,1.07,3,1.31,4.59,1.58,4.16.69,8.12,2.72,12.5,2,.36-.06.78-.57,1,.34.31,1.34,1.64,1.06,2.57,1.1,2.06.1,4.13-.25,6,1.29.71.6,1.7.19,2.34-.6-.22,1.54.95,1.47,1.92,1.71,9,2.26,18.1,4.25,27.26,5.86.51.09,1,.19,1.53.26,2.82.37,3.17.18,3.24-2.68.08-3.42.38-6.86-.23-10.27-.17-.95.2-1.72.66-3,1.61,3,.88,5.84.88,8.49,0,1.5,0,3,0,4.55-.06,2.85.62,3.92,3.15,4.41,7.32,1.42,14.65,2.87,22,4,9.75,1.55,19.53,2.9,29.32,4.21,7.33,1,14.75,1.59,22,2.66s15,.43,22.33,2.25c2.34.58,5-1,7.33.74,7.46.25,14.89,1.06,22.34,1.36,1.09,0,2.45.37,3.6-.25ZM501.54,124.56c-1.05-.31-1.87-1.28-3.12-1.1.76,1.45,2.08.93,3.21,1,1.66,1.46,3.7,1.84,6.16,2.28A28.69,28.69,0,0,0,501.54,124.56ZM388.13,327.13c1,.17,1.7.13,1.66-1.27,0-1.11,1.36-1.84,1.82-1.22,1.69,2.27,3,.56,3.89-.41.68-.76.91-.64,1.71-.51,1.29.21,2.64-.47,3.87.74.55.54,1.86.74,1.31-1-.12-.37.24-.71.66-.81,2.24-.51,4.5-.93,6.7-1.56,1-.3,1.4,1.15,2.35.62,3.75-2.07,8.08-2,12-3.37,3.09-1.06,5.89-3,9.16-3.4a11.31,11.31,0,0,1,4.46-.12c1.68.43,2.38-1.64,3.46-1.9,1.87-.44,2.18-1.69,2.37-2.94a21.47,21.47,0,0,0,.47-4c-.09-2-2.31-1.06-3.39-1.86-.76-.56-1.44.25-2.15.3-1.45.08-2.66,1.22-4.38.51-1.3-.54-2.19,1.34-3.89,1.48-3.56.31-7,1.87-10.72,1.35a3.46,3.46,0,0,0-2.85.88c-1.17,1.76-3,1.6-4.6,2.21-2.69,1.05-6-.49-8.4,2a1.29,1.29,0,0,1-1.13.06c-1.89-.87-3.4-.05-5,.84a5.15,5.15,0,0,1-3.7.8,5.42,5.42,0,0,0-3.63.67c-3.54,2.21-7.64,2.16-11.42,3.27-4.65,1.37-5.75,3.15-4.08,7.72.53,1.45,1.83,2.36,2.28,3.88.24.8,1.24.74,2,.5.39-.12,1.05.45,1.1-.43,0-.49-.38-.58-.74-.74s-1.2,0-.77-.83c.16-.3.55-.75.76-.72,2,.37,3.71-1.07,5.66-.76C386.07,328.28,387.1,328.75,388.13,327.13ZM538.19,280.2a93.32,93.32,0,0,1-1.09-15.29c.1-6.65.36-13.31.42-20,.05-5.47-.17-10.94-.11-16.41,0-3-.12-6.07-.3-9.11-.12-2.15-.93-2.5-2.69-2.6-6.13-.35-12.26-.45-18.4-.44s-12-1-18-.21a13.1,13.1,0,0,1-3.48.12,70.28,70.28,0,0,0-9.3-.59c-2.73,0-5.45.53-8.32,0-4.07-.68-4.69.32-4.7,4.38,0,11.49,0,23,0,34.46q0,14.28-.1,28.57c0,1.48.22,3-1.21,4.29A70,70,0,0,1,468.93,277c-.13-1.21-1-2.5-1.57-2.26-1.53.63-1.26-.7-1.85-1.1-1.2-.82-1.31-2.42-2.6-3.49-1.2,3.37-.81,6.54-.78,9.67,0,5,0,10.08.07,15.12,0,2.57.2,2.69,2.65,2.3,2.8-.44,5.57-1,8.37-1.47,8.5-1.35,17-3,25.51-4,4.09-.49,8.13-1.42,12.23-1.89,9.07-1.05,18-3.07,27.16-3.62,4.62-.28,4.59-.62,4.59-5.34q0-24.8,0-49.6a92.82,92.82,0,0,0-.32-12.38,25.7,25.7,0,0,1-.39-7.25c.65-4,.43-7.92.67-11.87s-.44-7.75.24-11.6c.15,5.78.14,11.55.15,17.32,0,3,.14,3.32,3.13,3.76,2.41.35,4.86.41,7.3.54,7.29.4,14.67.22,21.82,1.74a63.73,63.73,0,0,0,16.27,1.67c1.76-.08,3.47-.58,5.31-.3,3.61.57,4.16-.12,3.54-3.7-.71-4.15-.72-4.19,3.55-5.82,1.31-.5,1.87-1.2,1.49-2.58-.17-.62-.22-1.28-.36-1.9-3.85-16.11-11.63-29.94-23.91-41.14-5.93-5.4-12.17-10.21-20.33-11.94-1.71-.37-3.49-.67-5.21-1.14-4.48-1.23-9.25-1.42-13.37-4-1-.62-2.51-.41-3.79-.54a25,25,0,0,0-3.86-.24c-3.86.25-7.75-.15-11.59.66-1,.2-1.68,1.75-2.7,1-3.12-2.31-5.62-1.06-8.27.9a4.72,4.72,0,0,1-2.29,1.25c-2.06.13-2.15,1.14-1,2.47.59.7-.86,2,.61,2.15s.46-1.28.79-1.78a2.77,2.77,0,0,1,1.9-1.14c1.43,0,2.63-.88,3.89-1,1.09.93-1.2,1-.09,2.11,2.83-1.31,6-.83,9.2-1.16a35.38,35.38,0,0,1,10.17.26c4.38.84,8.71,1.85,13.06,2.81a68.43,68.43,0,0,1,15.34,5c8.73,4.27,15.76,10.61,21.83,18.09a59.42,59.42,0,0,1,11,20,13,13,0,0,1-1.75-3c-3.66-9.92-10.32-17.82-17.8-24.88-6.41-6.06-14.28-10.06-22.8-12.66-5.74-1.75-11.65-2-17.55-2.66-7.8-.8-15.46-.66-22.89,2.19a22.75,22.75,0,0,1-3.34,1,40.15,40.15,0,0,0-16.63,7.57c-6.54,5.14-12.36,10.77-15.93,18.43-3.92,8.41-6.18,17.13-5.35,26.53.16,1.82.45,2.7,2.57,2.9a47.8,47.8,0,0,0,6.87.09c6.71-.28,13.3,1.19,20,1.17,7.56,0,15.14.25,22.67.92,4.14.38,8.35.07,12.72,1.19-.62-5.4.27-10.59.09-15.86-.14-4,.11-8.14.17-12.19.07-6,.21-12.06-.17-18.09-.19-3.05,0-6.16-.13-9.25,0-1.19-.45-2.61,1.44-3.27,1.42,5,.5,10,.56,14.88.05,4.73-.32,9.48-.16,14.18.19,5.9-.19,11.79.22,17.69.34,4.94-.35,10,.14,14.88.51,5.13-1.41,10.2,0,15.3.49,1.77-.71,3.46-.52,5.27.71,6.83-.2,13.68.26,20.51.31,4.72-.27,9.41-.1,14.14A38.42,38.42,0,0,1,538.19,280.2ZM383.14,218.79c-5.19-.49-5.22-.5-6.17,4.27-.9,4.55-1.72,9.12-2.57,13.69-2.3,12.45-3.22,25.06-3.95,37.66-.59,10.2.18,20.4,1.18,30.58a60.79,60.79,0,0,0,1.14,9.12c.83,3.29.85,3.28,4,2.52,1.12-.26,2.26-.47,3.38-.76,8.61-2.19,17.14-4.72,25.82-6.52,10.6-2.19,21.07-4.93,31.7-7,1.13-.22,2.26-.48,3.39-.71s1.51-1.09,2-2.24c1-2.23.07-4.19,0-6.22-.11-3.18-1.37-6.41-1-9.48a123.17,123.17,0,0,0,.47-15.11c0-2.95.53-5.89.34-8.74-.22-3.28.08-6.55-.29-9.84s.24-6.58.39-9.87c.16-3.84,0-7.7.16-11.51a43.37,43.37,0,0,0-.85-10.32c-.25-1.35-.6-2.08-2.1-2.12-5.25-.13-10.46-.38-15.73.37a65.77,65.77,0,0,1-8.25.71c-3,0-6.13-.13-9.12-.12-6.1,0-12.24.56-18.37.66a2.33,2.33,0,0,0-2.44,1.48,22.79,22.79,0,0,0-1.67,4.54c-1.66,9.89-4.54,19.56-5.4,29.6a11,11,0,0,1-.67,2.24,31.18,31.18,0,0,1-.27-12.74C379.6,234.83,381.49,226.83,383.14,218.79Zm218.5,46.32a2.66,2.66,0,0,1-.86-1.75q0-13.31,0-26.61c0-4.64,0-9.28-.09-13.92,0-3.27-.1-3.28-3.18-3.48-7.06-.45-14.11-.95-21.18-1.31-8.37-.44-16.77-.26-25.14-.83a25.22,25.22,0,0,0-8,.25v5q0,20.14.06,40.29c0,6.71,0,13.41.13,20.12,0,2.64.18,2.7,2.65,2.44,3.46-.36,6.91-.79,10.36-1.24,5-.66,9.93-1.36,14.9-2.05,4.65-.64,9.37-.11,14-1.13,2.44-.53,5-1.31,7.56-1.19,4,.19,7.79-1.26,11.75-1.41.8,0,1.25-.43,1.13-1.53-.48-4.61-.68-9.25-1.22-13.86-.41-3.59.35-7.31-1.31-11.3C602.16,256.36,603.89,261,601.64,265.11Zm20.2-15.55h.4v24.79c0,4,0,4,3.9,3.85.38,0,.77-.07,1.16-.09,9.24-.57,18.48-1.28,27.73-1.66,9.66-.4,19.33-.5,29-.69,1.3,0,2.9.26,3.31-1.24s1-3.58-.76-4.63-1.65-2.51-1.67-4c-.08-5.65-.14-11.31,0-17,0-2.06.12-4.11.17-6.18.11-4.95-.54-9.93.44-14.87.37-1.88-.51-2.93-2.38-3.13-7.82-.82-15.67-1.27-23.51-1.92-11.3-.94-22.65-1.29-34-1.86-3.74-.19-3.75-.14-3.76,3.79Zm-231.15-45.4c5.13.8,10.11.37,15.07.63,4.52.24,9,1.75,13.55.11a1.33,1.33,0,0,1,1.08.07c2.27,1.91,5.05,1,7.43.88,1.71-.09,3.52,1.09,4.9.13,1.73-1.21,3.45-1.15,5.33-1.15,4.75,0,4.74,0,4.77-5,0-.37.21-.74.25-1.12a65.3,65.3,0,0,0,.23-12.09c-.52-6.84.83-13.63,0-20.41-.61-5,.81-9.92.45-14.93-.38-5.37-.27-10.77-.53-16.14-.36-7.44.52-14.88-.21-22.33-.21-2.19-.19-4.72,2.24-6.13.48-.28.94-.58.68-1.13-.33-.7-1.05-.62-1.68-.45a1.76,1.76,0,0,0-1,.56c-2,2.84-6.38,3.49-7,7.61,0,.26-.55.53-.89.63-1.76.49-2,2.14-2.79,3.44-.39.68-.11,1.5-1.23,2.1-2.71,1.43-3.52,4.66-5.6,6.87-2.27,2.42-4,5.62-5.7,8.63-3.66,6.37-7.83,12.45-10.28,19.46a9.64,9.64,0,0,1-1.89,3.77c-1.76,1.7-2.41,3.87-3,6a41.76,41.76,0,0,1-2,5.42,75.93,75.93,0,0,0-3.12,7.43C397.19,186.16,393.05,194.72,390.69,204.16Zm72-22c.21-.14.52-.23.6-.42.53-1.18,1-2.37,1.48-3.57,7.48-19.12,20.86-32,40.52-38.15a76.13,76.13,0,0,1,16.91-3.75c.62-.05,1.26-.28,1.63-1.65-21.23-5.77-41-15.71-61.94-22.66C461.1,133.18,461.62,178.46,462.68,182.14Zm-15.33-75.88c.87,1.95,2.63,3.31,2.51,5.6-.13,2.53.05,5.07,0,7.58-.05,4.39-.61,8.78-.9,13.17-.12,1.92.17,3.9-.21,5.75-.72,3.51-.35,6.95-.28,10.46.05,2.91,1.26,5.7.6,8.65-.94,4.21-.28,8.52-.61,12.74-.49,6.21.74,12.43-.48,18.6a4.22,4.22,0,0,0,.13,2.26c.73,1.75.4,3.7.4,5.33,0,3.67,0,7.34.15,11,.27,5.41.56,5.72,5.95,5.61,1,0,2.06-.05,3.08,0s1.71-.37,1.7-1.55c0-1,.11-2.06.11-3.09,0-12.43-.15-24.86-.17-37.29,0-8.35.11-16.7.14-25.05q.06-14.85,0-29.7c0-1.63,0-3.2,1.33-4.28C456.84,108.5,451.73,108.41,447.35,106.26Zm2.35,109.51c-2.55,7-1.12,14.3-1.58,21.4-.26,3.9-.3,7.91-.25,11.87.1,7.79.05,15.59-.24,23.39-.09,2.27.42,4.93-.14,7-.6,2.26-.91,4.63-1.63,6.89-1.26,3.91-1.21,8.1-1.2,12.21,0,1.64.83,2.28,2.49,2,3-.55,6.13-.87,9.14-1.58,1.32-.31,3,0,3.92-1.22.81-1.06-.58-2.07-.58-3.26,0-10.43-.17-20.86-.2-31.29q-.07-22.19,0-44.38c0-2-.81-2.73-2.81-2.68C454.31,216.15,452,215.9,449.7,215.77Zm-5.1,91.56a24.74,24.74,0,0,0,.35,3.45c.16.66.58,1.66,1.56,1.29,2-.74,4.05-.42,6-.79,3.84-.72,7.38-2.6,11.44-2.78,1.5-.07,3.68-.11,4.8-1.95a1.15,1.15,0,0,1,1-.24c3.37,1,6.27-.48,9.21-1.71a7.3,7.3,0,0,1,5.14-.4c.93.29,2.19,1.27,2.09-.92a3.63,3.63,0,0,1,1.44-.26,25.18,25.18,0,0,0,7.57-1c1.12-.5,2.12-1.1,2.72.64.19.56.71.65,1.16.12l7.08-2.83c2.55,1.44,4.5-.86,6.79-1.09,1.26-.12,2.78-.78,3.74-.3,2.37,1.19,4.37-.91,6.56-.27,2.22-2.43,5-1.39,7.56-1.06.66.08,1.2-.19,1-.49-1-1.5,0-1.25,1-1.37,2.23-.26,4.43.51,6.69,0,2.85-.7,3.19-.95,3.12-3.82a18.09,18.09,0,0,1-.1-1.93c.19-2-.75-2.38-2.56-2.26-7.72.52-15.29,2.17-22.93,3.24-7.86,1.1-15.62,3-23.49,3.77-8.95.93-17.72,2.79-26.56,4.25-1.75.29-4.18.27-5,2.81-.17.52-.88.44-1.22-.09-.45-.7-.91-1.25-1.87-.92-3.26,1.13-6.73,1.27-10,2.07C444.64,303.46,444.42,303.91,444.6,307.33ZM441,102.65c-1.6-.76-2.76-1.32-3.93-1.86a1.68,1.68,0,0,0-2.33.54c-2.41,3-5.15,5.79-7.38,8.92-4.46,6.29-8.91,12.56-12.9,19.18-5,8.27-9.77,16.6-14.1,25.22-3.82,7.6-6.63,15.6-10.07,23.35-3.51,7.91-5.37,16.37-8.26,24.49-.55,1.52,0,2,1.58,2.16,3.86.26,4.12.12,5.29-3.83a274.17,274.17,0,0,1,12.35-33.75c2.68-6,5.31-12,8.54-17.74,4-7.16,8.09-14.31,12.64-21.19,4-6.1,8-12.21,12.57-17.93C437,107.76,439.38,105.62,441,102.65Zm102.4,188.5c-.4,1.12-.59,2.56,1.13,2.91,1.51.3,3.51.71,4.6,0,3.84-2.5,8.5.07,12.23-2.37,4.38.66,8.48-1.54,13-1.09a23,23,0,0,0,8.51-1.26c2.68-.8,5.6.18,8.37-.82,4.8-1.73,10.26.78,14.89-2.21.07,0,.25.12.36.1,1.93-.42,3.92.18,5.67,0a35.18,35.18,0,0,0,6.29-1.51c1.72-.49,2.33-1.89,1.94-3.95-.35-1.88-1.72-1.18-2.73-1.11-6.67.5-13.35.92-20,1.62-13.69,1.46-27.47,2-41.12,3.88-3.56.49-7.12,1-10.69,1.34-1.84.15-2.55.92-2.44,2.66C543.44,289.9,543.41,290.42,543.41,291.15Zm64.15-99c.56-3.71.17-7.44.19-11.16,0-7.11-.07-14.22,0-21.33,0-1.84-.53-2.9-2.54-3.11-3.15-.33-6.1-1.57-9.28-2-2.76-.41-5.72-1.79-8.56-2.82-4.05-1.47-10.69-2.29-13.51-1.77.48,1,1.58,1.26,2.37,1.89,2.89,2.28,6,4.24,8.78,6.69a80.66,80.66,0,0,1,14.78,18.08c2.72,4.32,5.38,8.8,5.84,14.11C605.7,191.77,606.39,192.13,607.56,192.1ZM405,206.78v-.41c-3.34,0-6.69.14-10,0-4.79-.26-4.78-.36-6.15,4-.7,2.25-.41,2.84,1.9,2.86,4,0,8-.3,12-.13,9.75.41,19.5-.51,29.24-.08,3.06.13,6.06-1,9.12-.3.82.2,1.13-.23,1.49-.79,1.22-1.89.75-3.09-1.43-3.63-2.55-.62-5.12,0-7.68-.09C423.9,207.75,414.42,207.24,405,206.78ZM664.88,277c-3,.3-5.94.82-8.9.87-10.2.18-20.37,1-30.54,1.65-3.19.22-3.74,1-3.37,4.15.14,1.21.54,1.91,2,1.6,4.76-1,9.67-.58,14.48-1.45a124.09,124.09,0,0,1,13.76-1.59c6.71-.44,13.43-.61,20.16-.86a13,13,0,0,0,2.62-.49c2.94-.74,5.71-2.65,9-1.09,1,.47,2.88.49,3-1.39.08-2.13-1.75-1.36-2.86-1.37C677.76,277,671.32,277,664.88,277Zm42.55-.49v0c-2.72,0-5.43,0-8.14,0-3,.05-5.94.17-8.91.27-.64,0-1.34.06-1.42.9s.11,1.86,1.09,1.52c1.24-.43,2.84,3.06,3.65-.37a5.93,5.93,0,0,0,3.77,0,2.47,2.47,0,0,1,3.18,1c.94,1.18,1.47,1.14,3.33.56a1.5,1.5,0,0,1,.76,0c1.84.32,3.4-.59,5-1.2.59-.22,1-.55,1.75-.29,2.35.82,4.75,3.21,7.11,0,0-.06.44.13.68.21,1.88.62,3.84.16,5.67,0,3.7-.39,7.28.71,11,.38a41.73,41.73,0,0,1,5.91.07c2.71.16,6-1.69,8.18,1.49a1.22,1.22,0,0,0,1,.23c1.27-2.24,3.21-.66,4.8-.84a38.66,38.66,0,0,1,8.8-.19,2,2,0,0,0,2.27-1.69c.19-1.33-1.21-1.39-2.18-1.61a7.17,7.17,0,0,0-1.54-.07c-5.94-.11-11.87-.27-17.81-.29C732.7,276.5,720.06,276.53,707.43,276.53Zm-252-189.44c-.7-.41-1.34-.81-2-1.17-3.15-1.68-2.95-1.43-5.88.86S443,92.6,440,94.86a1.45,1.45,0,0,0-.6,1.67c.6,1.42,5,2.31,6,1.16a78.79,78.79,0,0,1,6.85-6.7C453.44,89.94,454.87,88.92,455.42,87.09Zm37.65,122.84c-1.1.35-1.49.61-1.83.55-4.67-.83-9.42-.55-14.12-1a22.61,22.61,0,0,0-3.08,0c-.68,0-1.31.25-1.37,1a1.38,1.38,0,0,0,1.21,1.66c1.5.23,3.25.83,4.4-.27,1.44-1.37,2.05.75,3.08.35s1.89-1.35,3.1-1.46c.24,0,.6,0,.72.16,1.64,2.14,3.21,1,4.55-.23C490.6,209.94,491.53,210.59,493.07,209.93Zm81.4,5.22c2.13-.15,3.74,1.35,5.84,1.4,4.65.1,9.28.54,13.92.85,1.67.11,3.33.25,5,.38.57.05,1.09-.14,1.11-.72a.85.85,0,0,0-1-.87,32,32,0,0,1-3.8.12c-5.76-.17-11.36-1.56-17.09-1.9A6.71,6.71,0,0,0,574.47,215.15ZM379.79,212.9c1.31.62,2.75.25,4.14.33.84,0,1.67-.34,1.71-1.22.1-1.92,1.5-3.59,1-5.6-5.34-1.07-5.79-.8-6.78,4.18A3.56,3.56,0,0,0,379.79,212.9Zm-36,127.23c2-1,5.07.47,6.57-2.82A8.35,8.35,0,0,0,343.78,340.13ZM496.47,150c-2.79-2.55-2.79-2.55-4.5.49C493.48,151.54,494.93,151.16,496.47,150ZM630.88,10.63c1.57-.65,3.11-.16,4.6-.36a1,1,0,0,0,.71-1.18c-.18-.57-1.1-.7-1.23-.48C634,10.17,632.33,10,630.88,10.63ZM428.41,70.82c1.17.71,2.15,1.93,3.78,1.41ZM360.27,335.43c-1.49-.69-2.75-.86-3.74.77C357.85,336.22,359.1,336.36,360.27,335.43ZM665,220.29c1.54.16,3.09,1,5.25-.08C668.11,220.35,666.63,219.45,665,220.29Zm-2.26-.59a5.33,5.33,0,0,0-3.21,0A3.27,3.27,0,0,0,662.73,219.7ZM647.29,11.92c.4-.26.86.31,1.23.26.57-.08,1.28-.63,1.22-1.24a.94.94,0,0,0-1.45-.68c-.95.66-1.67.08-2.49-.16-.64-.19-1.4-.21-1.6.55s.69,1.19,1.19,1.63S646.59,12.25,647.29,11.92Zm-34.77-1.07c1,.54,1.26,1.86,2.46,1.41a1.65,1.65,0,0,0,.57-1.21A2.38,2.38,0,0,0,612.52,10.85Zm11.91-.2c.06-.64-.44-.75-.9-.88s-1.06-.12-1.24.4a.9.9,0,0,0,.58,1.17A1.37,1.37,0,0,0,624.43,10.65ZM319,348.47c-1.38-1.15-2.2-1-3.31.16A5.44,5.44,0,0,0,319,348.47ZM538,25.67c-.2-.1-.42-.29-.6-.26s-.74.16-.68.62c0,.1.36.25.54.24A.75.75,0,0,0,538,25.67ZM353.86,337.73c.25-.86,0-1.18-.39-1.16s-1.08.13-1.12.74c0,.29.34.84.53.84A1.26,1.26,0,0,0,353.86,337.73ZM679,18.2c.79.25,1-.46,1.15-1a1,1,0,0,0-.9-1c-.86-.1-1.13.48-1.22,1A.89.89,0,0,0,679,18.2Z"/><path class="cls-2" d="M498.13,437.51c2.75-2.31,5.25-4.5,7.84-6.58,9.15-7.32,19.73-11,31.24-12.46a111,111,0,0,1,29.75.19c17.62,2.48,33.35,9,45.38,22.73,7.42,8.49,11.75,18.49,13.75,29.48,2.55,14,1.76,27.79-3.28,41.19-6.6,17.54-18.92,29.64-36,36.9-16.08,6.82-32.93,8.11-50.17,6.54a71.16,71.16,0,0,1-30.39-9.57c-2-1.19-3.89-2.52-5.78-3.87-.61-.43-1.23-1.17-2-.68s-.59,1.36-.59,2.12q0,6.39,0,12.78.06,21.33.12,42.64c0,3.71,0,3.76-3.91,3.76q-20.16,0-40.3,0c-3.54,0-3.59,0-3.61-3.63q-.12-25-.22-50c-.16-35.66-.27-71.32-.55-107A150.1,150.1,0,0,0,448,426.23c-.5-4.43-.6-4.47,3.63-4.47q21.12,0,42.25,0c3.52,0,3.52,0,3.58,3.72s.12,7.23.2,10.85C497.63,436.55,497.81,436.77,498.13,437.51Zm79.48,49.11a60.09,60.09,0,0,0-3.24-20.94,33.23,33.23,0,0,0-21.06-21.2,48,48,0,0,0-24-2c-15,2.35-24.76,10.78-29.55,25.07a68.14,68.14,0,0,0-2,35.58c3.16,15.64,12.21,26.06,28.74,29.15A49.31,49.31,0,0,0,549.81,531a35.8,35.8,0,0,0,22.27-18.51C576.34,504.36,577.48,495.61,577.61,486.62Z"/><path class="cls-2" d="M828.58,536.59a2.35,2.35,0,0,0-2.08.88c-12.38,10.88-26.83,16.57-43.25,17.81-11.26.84-22.46,1-33.61-.86-10.55-1.73-20.55-4.94-29.43-11.19-19.11-13.43-19.28-39.93-1.33-54.58,7.67-6.27,16.49-10,25.9-12.67,11.13-3.17,22.55-4.34,34-5.24,14.68-1.14,29.4-1.64,44.11-2.39,3.35-.17,3.33-.14,3.45-3.58.18-5.38-.55-10.56-3.2-15.36a20.31,20.31,0,0,0-9.34-8.4c-5.37-2.61-11.14-3.27-17-3.5a73.89,73.89,0,0,0-17.37,1.19c-9.92,2-16.68,7.31-18.4,17.77-.34,2-1.23,2.75-3.33,2.73-13.7-.09-27.4-.05-41.09-.09-2.79,0-2.87-.12-2.55-2.86,1.44-12.35,7.24-21.82,18.2-28.08,8.59-4.9,17.91-7.33,27.55-8.67a237.8,237.8,0,0,1,56.43-1c10.07,1,20,2.66,29.43,6.36,7.52,2.93,14.47,6.75,19.83,13.08,5.07,6,7.44,12.91,8.21,20.51.91,8.89.48,17.82.53,26.73.11,16.8.12,33.6.19,50.4a49.64,49.64,0,0,0,2,14.53c.7,2.28.6,2.47-1.84,2.5-8,.1-16,.09-24,.11-5,0-10.08-.08-15.12,0a3.06,3.06,0,0,1-3.51-2.71C831,545.57,829.74,541.09,828.58,536.59Zm-19.79-47c-2.06.1-4.12.31-6.18.29A116,116,0,0,0,778,492.41c-6.11,1.25-11.83,3.41-16.71,7.59-6.86,5.87-8.62,21.51,1.3,27.85a27.44,27.44,0,0,0,10.77,4.09,71.83,71.83,0,0,0,23.5-.09c8.51-1.5,16.47-4.29,22.66-10.78a17.75,17.75,0,0,0,5-9,89.86,89.86,0,0,0,1.81-19.23c-.13-3.32-.11-3.36-3.59-3.36C818.07,489.44,813.43,489.32,808.79,489.58Z"/><path class="cls-2" d="M123.79,537.1c-2.24.59-3.28,2-4.54,3.07-11.51,9.59-24.83,14.51-39.67,15.78-11.38,1-22.72,1.14-34-.68-10.43-1.69-20.39-4.67-29-11.08C.42,532.25-.87,515.15,5.8,501.14c3.83-8,10.58-13.6,18.37-17.78,10.61-5.69,22.12-8.58,34-10.2,16.16-2.2,32.45-2.64,48.7-3.47,4.13-.21,8.26-.46,12.39-.64,1.32-.06,2.26-.38,2.23-2-.09-6.09-.33-12.09-3.66-17.58-3.52-5.79-9-8.53-15.16-9.84a67.93,67.93,0,0,0-28.88.08c-8.89,2-15.09,7-17,16.39C55.94,460,55.78,460,52,460q-19.77,0-39.54,0c-2.95,0-3.09-.12-2.74-3.1,1.41-12.23,7.22-21.59,17.93-27.89,8.77-5.16,18.46-7.32,28.33-8.72a236.82,236.82,0,0,1,53.75-1.06c10.85.94,21.55,2.72,31.76,6.62a49,49,0,0,1,18.18,11.53c6.15,6.38,8.77,14.19,9.48,22.76.73,8.77.28,17.57.36,26.35.12,12,0,24,.08,36.06a150.47,150.47,0,0,0,2.28,27.78c.57,3,.52,3-2.51,3.05q-19,.12-38,.2c-3.44,0-3.49,0-4.36-3.46C125.87,545.86,124.88,541.61,123.79,537.1Zm-19.53-46.51a146.82,146.82,0,0,0-26.36,1.73c-6.4,1.07-12.68,2.47-18.23,6.05C52.92,502.73,50.24,509.18,51,517s5.73,12,12.77,14.41c7.9,2.66,16,2.42,24.14,1.78A48,48,0,0,0,105,528.72c7.65-3.68,13.62-8.94,15.1-17.85a87.74,87.74,0,0,0,1.26-17.73c-.1-2.69-.21-2.82-2.94-2.82C113.54,490.34,108.64,490.14,104.26,490.59Z"/><path class="cls-2" d="M430.8,552.25h-7.9l-35.67,0c-3.75,0-3.73,0-4.62-3.61A92.57,92.57,0,0,1,380.56,533c-1.23-.31-1.55.54-2,1.12-8.92,12-21.3,18.08-35.7,20.45-15.05,2.47-30.09,2.84-45-1-21.93-5.6-35.82-19.83-39.22-42.8-1-6.95-.74-13.92-.77-20.89-.1-21.59-.12-43.17-.17-64.76,0-4.87-.12-4.28,4.1-4.3q20.55-.06,41.1,0c3.33,0,3.41.06,3.42,3.45q.2,38.38.31,76.77A38.29,38.29,0,0,0,309,514.73c2.42,6.35,6.63,11.17,12.89,13.75,15.34,6.3,30.39,5.17,44.68-3.09,8-4.64,11.87-12.2,13-21.36a207,207,0,0,0,1-24.77q0-26.94-.15-53.9c0-.9.05-1.81,0-2.71-.1-1.51.68-2.09,2.08-2.09l5.81,0,34.9,0c.51,0,1,0,1.55,0,3.18.1,3.34.23,3.36,3.26q.09,9.11.12,18.22.12,44.79.26,89.57a70.29,70.29,0,0,0,2.07,16.5C430.85,549.23,431.41,550.45,430.8,552.25Z"/><path class="cls-2" d="M914.06,509.84h20.16c4.08,0,3.87-.34,4.53,3.87,1.25,7.95,5.28,13.86,12.89,17.11a32.54,32.54,0,0,0,7.8,2.21c10.62,1.72,21.12,1.44,31.36-2.18a25.24,25.24,0,0,0,10.4-6.54,13.52,13.52,0,0,0,3.8-9.47,10.15,10.15,0,0,0-4.29-8.66,25.45,25.45,0,0,0-8-3.74c-9.54-2.89-19.37-4.42-29.14-6.23-15.87-2.93-31.84-5.55-46.94-11.58-7.41-3-14-7-18.9-13.64-8.4-11.38-6.22-25.57,4.48-34.67,9-7.66,19.72-11.7,31-14.42,20.69-5,41.68-5.48,62.79-3.57a94.55,94.55,0,0,1,24.22,5.05c8.75,3.21,16.1,8.16,20.46,16.76a38.53,38.53,0,0,1,3.59,13.4c.22,1.94-.59,2.46-2.39,2.46-13.57,0-27.14.06-40.71.09-1.16,0-2.33.09-2.62-1.55-1.62-9.1-8.11-12.81-16.31-14.16a76.13,76.13,0,0,0-25.86.17,40.46,40.46,0,0,0-9.17,3,13,13,0,0,0-4.8,3.85A8.76,8.76,0,0,0,945.12,461c4,2.09,8.47,3.15,12.86,4.24,13,3.21,26.33,5.33,39.53,7.83,9.78,1.84,19.53,3.82,28.75,7.73a58.44,58.44,0,0,1,15.44,9.52c12.67,10.88,13,29.81,3,41.9a49.12,49.12,0,0,1-17.17,13c-10.61,5.05-22,7.52-33.5,9.16a190.48,190.48,0,0,1-32.11,1.55c-15.56-.44-30.93-2.16-45.65-7.65a52.39,52.39,0,0,1-15.06-8.64c-8.5-7-12.26-16.07-11.77-27,.12-2.73.17-2.82,2.93-2.84,7.23,0,14.47,0,21.71,0Z"/><path class="cls-2" d="M1136.68,382.35c.57,3.54.29,6.89.35,10.23.14,8.53.19,17.05.31,25.58.05,3.15.09,3.22,3.28,3.24q18.42.15,36.83.21c.78,0,1.55,0,2.33,0,1.3,0,1.83.65,1.83,1.91,0,6.59,0,13.18.06,19.77,0,2.1-1.33,2.21-2.83,2.21l-15.51.06c-7.62,0-15.25-.05-22.87,0-2.93,0-3,.05-3,3,0,21.2-.11,42.4.18,63.59.13,9.65,5.17,16.79,16,18.1,7.85,1,15.74.52,23.61.08.65,0,1.29-.12,1.94-.15,2.52-.1,2.59-.1,2.61,2.45,0,5.94,0,11.89.08,17.83,0,1.78-.59,2.57-2.36,2.77-15.89,1.82-31.68,5-47.82,3.35a77.94,77.94,0,0,1-18.07-4.14c-13.17-4.69-20.11-14.25-22.1-27.81a80.88,80.88,0,0,1-.75-11.21q-.12-31.39-.21-62.8c0-5,0-5.15-4.95-5.19-10.34-.1-20.67-.05-31-.07-3.14,0-3.19,0-3.22-3.17q-.06-8.93,0-17.84c0-2.64.08-2.77,2.81-2.81,9.82-.11,19.64-.15,29.46-.18,6.75,0,6.77,0,6.77-6.78,0-3.88,0-7.76-.1-11.63a3.15,3.15,0,0,1,2.24-3.54q21.47-8.41,42.88-16.93A6.84,6.84,0,0,1,1136.68,382.35Z"/><path class="cls-2" d="M238.71,457.2q0,45.36,0,90.73c0,6.38.39,5.28-5.41,5.31q-19.39.09-38.77.09c-.91,0-1.81,0-2.71,0-1.31,0-1.86-.67-1.89-1.91,0-.77-.07-1.54-.08-2.32q-.19-67.28-.39-134.55c0-15.9-.16-31.8-.25-47.69,0-.91.08-1.82,0-2.72-.15-1.84.62-2.47,2.47-2.46,7.11,0,14.22-.06,21.32-.08s14,0,20.94,0c3.95,0,4,0,4,4.11q.31,45.75.6,91.51Z"/><path class="cls-2" d="M693.73,456.68v91.9c0,4.44.29,4.24-4.2,4.24l-40.72,0c-3.73,0-3.77,0-3.78-3.89q-.16-55-.32-110.12-.12-36.63-.37-73.27c0-.65,0-1.3,0-1.94-.17-1.88.73-2.47,2.52-2.46,6.72.05,13.44,0,20.16,0q11.06,0,22.1,0c3.87,0,3.9,0,3.93,3.68q.22,33.13.43,66.29c0,8.53,0,17.06,0,25.59Z"/><path class="cls-1" d="M756.26,182.33c2.18,1,2.67,2.58,2.47,4.95-.74,8.93-.45,17.93-.23,26.85.2,8.06-.26,16.12.06,24.19A142.5,142.5,0,0,1,758.3,256a37.28,37.28,0,0,0,.17,8.43c.38,2.68.66,5.61-2,8-1-1-.9-2.5-2.17-3.09-.73-.35-.74-1.26-.72-2.07.14-5.83.25-11.65.39-17.48.09-3.5.69-7-.23-10.49-.35-1.34.49-2.92.41-4.51-.15-2.82-.34-3-3.34-3.39-4-.46-8.08-1.12-12.11-1.74-9.82-1.51-19.77-1.78-29.63-2.84-4.23-.45-8.44-1.09-12.7-1.12-1,0-2.13-.44-3,.11-.68.41-1.13.58-1.49-.18a1.77,1.77,0,0,1,0-1.84c.39-.57.8-.34,1.3-.09a2.45,2.45,0,0,0,3.12-.53,5.17,5.17,0,0,1,3.13-1c-.61-.49-1.72-.11-2.25-.95a.86.86,0,0,1,.62-.83,8.87,8.87,0,0,1,5.89-.89c3.13.79,6.65-.52,9.52,1.71.1.08.26.2.34.17,6-2.31,12,.4,18,0,2.25-.15,4.3,1.63,6.66.64.32-.13.46.51.56.87s.75.62.78.49c.53-3.08,2.92-1.33,4.39-1.59,1.85-.32,3.85-.4,5.52,1.05.3.25,1.22-.35,1.83-.3,2.28.19,3.07-1.28,3.12-3.07.13-4.34.94-8.73.65-13-.27-3.93-.42-7.9-.53-11.82S752.87,186.19,756.26,182.33ZM721.1,225.68c2.58-.49,5.29.35,7.71.8,7.34,1.38,14.84,1.09,22.12,2.67,1.41.31,2.88.17,3.27-1.78-1.6-1.54-3.67-.79-5.51-1.12a118.73,118.73,0,0,0-19-1.44c-1.18,0-2.49,1-3.62.2C724.16,223.69,722.74,224.83,721.1,225.68Z"/><path class="cls-2" d="M1220.28,393.72a22.47,22.47,0,0,1-22.66,21.75c-11-.27-20.89-11.12-20.61-22.59.29-11.77,9.73-21.5,20.72-21.34C1210.56,371.71,1220.51,381.5,1220.28,393.72Zm-38.78-.58c-.06,9.3,7.64,17.76,16.31,17.92,9.87.18,19.35-8.58,19.32-17.87,0-9.54-9.07-18.05-19.18-18.05C1188.93,375.13,1181.57,383.18,1181.5,393.14Z"/><path class="cls-1" d="M400.72,79.4c-3.25-.6-6.33-2.22-9.41-3.65-6-2.78-12-5.75-18-8.54C367,64.27,361,60.6,354.75,57.3c-4.75-2.53-9.57-4.93-14.32-7.48-2.79-1.49-2.74-1.56-1.28-4.59.15-.3,0-.74,0-1.09s.3-.39.52-.67c1.72,1.47,4.14,2,5.41,4.09a1.18,1.18,0,0,0,.6.48c8.31,2.66,14.67,8.65,22.05,12.89,7,4,13.87,8.19,21.39,11.21,3.2,1.29,6,3.41,9.37,4.51A3.22,3.22,0,0,1,400.72,79.4Z"/><path class="cls-1" d="M688.27,218.27c-4.83-3-3.08-7.78-3.18-11.84-.21-8.33.11-16.68.15-25,0-1.53-.38-3.06-.38-4.59,0-1.07,0-2.89,1.47-2.46,1.08.3,3.36-.34,3.3,2.28-.11,4.56.21,9.14,0,13.69a45.7,45.7,0,0,0,.22,5.26c.32,5.07-1,10.07-.25,15.18A11.38,11.38,0,0,1,688.27,218.27Z"/><path class="cls-1" d="M756.13,324.88c-1.29-3.17-.46-6.29-.62-9.3-.29-5.23-.11-10.49-.13-15.73,0-.39-.12-.77-.12-1.16,0-.65,0-1.48.82-1.5,1,0,1.14.81,1.13,1.64,0,.64,0,1.29,0,1.94q0,10.82,0,21.63A2.69,2.69,0,0,1,756.13,324.88Z"/><path class="cls-1" d="M756.65,164.37c-1.59-1.1-2.14-2-2-3.72a54.66,54.66,0,0,0,0-12.91c-.49-3.18.7-6.32,0-9.49-.1-.48.48-.86,1-1,.7-.12.83.4.92.92a3.94,3.94,0,0,1,.09.76C756.65,147.33,756.65,155.69,756.65,164.37Z"/><path class="cls-1" d="M459.76,352.37V324.29c1.57,2,1.56,2,1.54,9.12q0,4.81,0,9.63a53.51,53.51,0,0,1-.62,9.39Z"/><path class="cls-1" d="M701.66,173.32a25.44,25.44,0,0,1-7.78-.73c.69-1.62,2.26-.34,3.1-1.1a110.8,110.8,0,0,1-15.58-2.15c1.58-1.08,3.08-.64,4.38-.37,3.87.82,7.81,1.07,11.71,1.65,6.69,1,13.4,1.94,20.11,2.9,1,.14,2,.25,3,.41a1.15,1.15,0,0,1,1,1,.75.75,0,0,1-.23.63c-.6.29-1.31.41-1.47-.46a1,1,0,0,0-1.38-.84c-3.24,1.14-6.37-1-9.58-.26-1-2.23-3.58.23-5.06-1.71-.73-1-2.87-.21-4.63,0Z"/><path class="cls-1" d="M726.38,182.17c-6.74,7.55-13.8,14.75-21.58,22,.23-1.13.15-.43-.13-.86a.47.47,0,0,1-.08-.36c.06-.24.11-.55.28-.68C712.79,196.34,718.38,188,726.38,182.17Z"/><path class="cls-1" d="M608.26,111.26v16h-.09v-16Z"/><path class="cls-1" d="M691.71,206.83V176.47h.46v30.2Z"/><path class="cls-1" d="M804.59,234.65c-.45,1.19-.39,2.6-2,2.52-.81,0-.93-.72-.88-1.39.08-1-.06-2.17,1.35-2.32C804,233.36,804.31,234.05,804.59,234.65Z"/><path class="cls-1" d="M620.85,95.28c1,.29,1.69.6,1.52,1.62a1.32,1.32,0,0,1-1.27,1.22c-1,0-1.19-.87-1.22-1.64S620.25,95.29,620.85,95.28Z"/><path class="cls-1" d="M660.6,14.63c-1.45-.42-2.88.22-4.54-.4-1.44-.54-1.55-1.4-2.23-2.38a38.65,38.65,0,0,1,5.57,3.23c.44.34,1,0,1.26-.49Z"/><path class="cls-1" d="M975.31,312.82c.6-.95,1.33-.05,2-.13s1.68-.71,1.76.47-.87,1.36-1.86,1C976.44,314,975.33,314.14,975.31,312.82Z"/><path class="cls-1" d="M328.24,343.47c-1.21,3.32-4.22,1.3-6.26,3.36C323,343.81,324.76,343,328.24,343.47Z"/><path class="cls-1" d="M579.52,23.26c-.32.38-.44,1.24-1.26,1a1.16,1.16,0,0,1-.76-1.52A1,1,0,0,1,579,22,.83.83,0,0,1,579.52,23.26Z"/><path class="cls-1" d="M691.57,172.13c-1.77.78-3.25-.49-5.07-.2C688.57,170.43,689.17,170.46,691.57,172.13Z"/><path class="cls-1" d="M679.11,170.08c-1.13.82-1.94.54-3-.05C677.18,169.65,678,169.3,679.11,170.08Z"/><path class="cls-1" d="M677.67,168.53c.79-.68,1.6-.28,2.42-.09A1.8,1.8,0,0,1,677.67,168.53Z"/><path class="cls-1" d="M821.81,175.86l.05-.11s0,.09,0,.08Z"/><path class="cls-1" d="M516.63,157.55c-5.35,5.87-11.05,10.89-16.4,16.27-2.09,2.1-4.16,4.22-6.33,6.24-.77.72-1.85,1.93-2.86.4-.87-1.31-.36-2.42,1.22-2.92a8.06,8.06,0,0,0,3.49-2.82c4-4.76,9.05-8.52,12.93-13.42,1.22-1.55,3.23-2.41,4.64-3.91C514.07,156.58,515.18,156.86,516.63,157.55Z"/><path class="cls-1" d="M506.83,160c-1.36,3-4,4.79-6.09,6.91-5.37,5.35-10.94,10.5-16.45,15.71-.59.56-1.12,1.78-2.14.87s-.64-2,.41-2.9c5.37-4.37,9.83-9.7,15.33-14,2.57-2,4.36-5,7.34-6.68C505.58,159.74,505.89,159.6,506.83,160Z"/><path class="cls-1" d="M516.82,164c-1.44,3-20.55,22-23.85,23.65C494.18,184.9,512.15,167.08,516.82,164Z"/><path class="cls-1" d="M600.09,196.75a1.77,1.77,0,0,1,1.27,1.4c.14.54,0,1.14-.53,1.28-.94.24-1-.52-.94-1.16S600,197.27,600.09,196.75Z"/><path class="cls-1" d="M432.71,248.68c-10.55,11-21.12,21.29-32.15,31.89a7.47,7.47,0,0,1,1.94-5.74c2.73-3.62,6.33-6.33,9.5-9.47,3.8-3.77,7.68-7.46,11.28-11.42C425.7,251.28,428.11,248.78,432.71,248.68Z"/><path class="cls-1" d="M396.58,294.16c1.24-4.42,4.21-7,6.77-9.45,3.08-3,6-6.19,9.13-9.16,4.36-4.17,8.64-8.43,13-12.63.84-.82,1.78-1.49,3-.66C427.43,264.38,399.92,292.06,396.58,294.16Z"/><path class="cls-1" d="M589.76,235.24a.83.83,0,0,1,0,1.06C578.87,246.91,568.49,258,557,268.93c.28-1.35.17-.63-.13-1.06a.67.67,0,0,1,0-.35.93.93,0,0,1,.1-.37,4,4,0,0,1,.59-1C568,255.83,578,245,589.1,235.2,589.22,235.1,589.53,235.22,589.76,235.24Z"/><path class="cls-1" d="M588,245.26c-3,5.4-7.81,8.72-11.79,12.84-5.9,6.11-12.05,12-18.05,18-1.34,1.35-2.5,2.87-4.22,3.13C556,276,585.22,246.7,588,245.26Z"/><path class="cls-1" d="M671.67,251.07c-1.6,3.21-15.51,17.23-21.53,22.15,0-.52.1.18-.27-.17a.47.47,0,0,1-.16-.33c.26-1.67,1.71-2.52,2.74-3.57A234.75,234.75,0,0,1,671.67,251.07Z"/><path class="cls-1" d="M653.68,262.75c6.37-8.33,14.59-14.76,22-22C669,248.75,661.41,255.83,653.68,262.75Z"/><path class="cls-1" d="M388.15,327.15c-1.06-.09-2.12-1.59-3.16,0,.11-.06.3-.11.32-.2.21-.91,0-2.16,1.45-2.14S387.79,326.31,388.15,327.15Z"/><path class="cls-2" d="M1205.28,393.44c2.12,3.2,2.55,6.65,3.08,10.08.2,1.32-.5,1.58-1.5,1.62-.77,0-1.54,0-2.32,0-1.23,0-1.92-.64-1.85-1.93a15.42,15.42,0,0,0-.76-4.95,3,3,0,0,0-3-2.41c-3.82-.27-4.08-.08-4.11,3.89,0,.77,0,1.55,0,2.32-.07,2.85-.67,3.37-3.39,3.16-1.44-.11-2.05-.74-2-2.2q0-9.48-.08-19c0-1.51.58-2.06,2-2,3.49.1,7,.05,10.46.18,2.39.1,4.73.59,5.69,3.19s.85,5.34-1.63,7.37A5.75,5.75,0,0,0,1205.28,393.44Zm-10.58-4.77c0,3.45.2,3.77,2.31,3.78,3.19,0,5.46-1.78,5.4-4.26,0-2-1.56-2.85-5-2.85C1194.76,385.34,1194.71,385.4,1194.7,388.67Z"/></g></svg>