<svg xmlns="http://www.w3.org/2000/svg" viewBox="0 0 3159.36 577.02"><defs><style>.cls-1{fill:#005596;}.cls-2{fill:#00559a;}.cls-3{fill:#58aa46;}.cls-4{fill:#58aa47;}.cls-5{fill:#005595;}</style></defs><title>sМонтажная область 2</title><g id="Слой_2" data-name="Слой 2"><path class="cls-1" d="M479.34,22.45,8,222.45,428.67,391.11l1.17-4.66a456.8,456.8,0,0,1-43.17-55.34C371,307.41,366.48,295.65,364,287.78c-3.43-10.9-8-25.94-5.34-45.33a93.88,93.88,0,0,1,14-37.34c5.47-8.49,15.2-17.22,34.67-34.66,15.1-13.53,21.64-18.43,30.67-30,9.55-12.26,12.19-19.57,13.33-23.34,2.39-7.91,3.56-18.11,4-22,1.34-11.73.79-16.86,2.67-17.33,2.85-.72,8.08,10.13,10.66,16.67,2.13,5.38,6.5,16.76,6,30.66-.35,10-3.19,20-16.66,42.67s-23.69,34.69-46.67,69.33c-7.55,11.39-11.66,17.95-14,28-1.64,7.07-3.48,20.42,3.33,42,14.29,45.3,56.7,95.38,64.67,104.67l5.33-4.67c-1.69-3.36-4-8.16-6.66-14-5.12-11.39-13.56-30.16-18.67-52.66-4.74-20.85-8-35.43-4-53.34,2.19-9.69,8.16-19.48,20-38.66,15.1-24.46,22.22-32.78,40-60.67,16.67-26.15,19.79-33.56,22-42a99.75,99.75,0,0,0,2-41.33c-2.31-13.59-7-22.84-12.67-34A221.84,221.84,0,0,0,479.34,22.45Z"/><path class="cls-1" d="M516.67,23.78a421.83,421.83,0,0,1,24.67,44.67c11.84,24.88,18.27,38.7,20.67,58.66,1.27,10.56,3.25,28.66-4,49.34-5.18,14.77-12.64,23.82-27.34,41.33-21.85,26-28.92,26.36-42.66,44.67-5.62,7.48-20.92,27.87-25.34,53.33-7.75,44.68,21.92,82.35,30,92l428-182.67ZM514,331.11c-1.68-10.49,3.13-20.5,18.66-39.33,24.4-29.56,33.12-29.83,48.67-52,6.72-9.58,14.75-21.25,19.33-38.67,6.25-23.72,2.53-44.54,0-58.66a180.69,180.69,0,0,0-9.33-33.34L824.67,221.78,523.34,348.45C519.81,344.83,515.27,339,514,331.11Z"/><path class="cls-1" d="M961.63,115.39l107-1.5q18.51,38.49,37,77,12.51-38.25,25-76.5h152.5v62.5l35-62.5c31.68,2.34,65.77,3.68,102,3.5,31.2-.17,60.77-1.45,88.53-3.5v14.5a64.86,64.86,0,0,1,13.14-11.67c15.31-10.24,30.83-11,39-11.33a88.53,88.53,0,0,1,83.67,51.33,121.06,121.06,0,0,1,10,30c7.86,41.06-8.38,73.83-14,84-5.09,9.19-10.43,18.61-21.34,27.33-17.31,13.83-36.48,16.18-45.33,16.67q-21.67-34.67-43.33-69.33a31.87,31.87,0,0,0,26.91-11.5c5.84-7.28,6.41-15.07,6.75-19.75.37-5,1-13.8-4.5-22.25-.8-1.23-9.33-13.84-24.5-13.75-1.58,0-14.88.3-22.25,11.25a25.93,25.93,0,0,0-4.25,14.75q.25,89.12.5,178.25l-90.5,1,1.5-78.5-.75-183-63.75,84,74.25,100.75h-108.5q-20.12-35.13-40.25-70.25v70.25h-94V192.53q-40.25,95.67-80.5,191.36h-96l50-102Z"/><path class="cls-2" d="M1514.59,245.82l8.58.13q21.67,35.08,43.34,70.16h-27.17Z"/><path class="cls-1" d="M1651.84,128a151.37,151.37,0,0,1,43-17,146.43,146.43,0,0,1,55-2c10.13,1.61,21.28,3.49,33.5,11a77.87,77.87,0,0,1,18.5,16,68.44,68.44,0,0,1,12.5,20.5c1.08,2.92,10.05,28.46-4.5,51.5-1.4,2.21-11.51,17.76-29,23-17.27,5.17-25.5,5.5-25.5,5.5-4.09.16-9.92,0-14.5,4-.93.8-4.18,3.61-4,7.5.23,5.05,6.06,7.8,6.5,8,3,1.36,5.61,1,12,0,9.13-1.45,13.7-2.18,15-2.5,9.42-2.35,26.76-8.28,48.5-17.5a155.55,155.55,0,0,1-1-28c.88-16.09,2-36.94,15-58,3-4.79,21.77-34.34,56-41.5a73.27,73.27,0,0,1,12-1.5q21.5,36.49,43,73a27.36,27.36,0,0,0-13.5-.5c-11.87,2.64-17.69,12.73-19,15a35.36,35.36,0,0,0,1.5,37c1.61,2.33,7.92,11.51,20,13.5,14.17,2.33,24.2-7.21,25-8a30,30,0,0,0,8.5-17.5V114h86.51v9.51c3.26-1.69,7.66-3.83,13-6a161.18,161.18,0,0,1,36-10,164.69,164.69,0,0,1,59.5,2c16.78,3.63,30.27,6.72,43,18,4.83,4.28,12.48,11.24,16,23,5.17,17.28-2.29,32.49-5.5,38a53.2,53.2,0,0,1-22,20.5,43.27,43.27,0,0,1,22,8.5c20.53,15.83,16.21,44.76,16,46-2.45,14.8-11,24.27-14.5,28-12.94,13.91-28.64,17.51-46,21.5-29.65,6.8-54.1,3.46-67.5,1.5a215,215,0,0,1-36-8.5v-72a101.34,101.34,0,0,0,13,10c5.34,3.46,11.53,7.4,20.5,10,4.92,1.42,8.45,1.78,15.5,2.5,11.37,1.15,17.16,1.67,22.5-1.5,1.47-.87,5.84-3.56,7-8.5.17-.74,1-4.42-1-7.25-1.48-2.06-3.9-2.85-6-3.25-6.28-1.19-25.08-1.77-50.37-1.38q0-24.48,0-49l47.83-.33A8.43,8.43,0,0,0,2142,184a8.26,8.26,0,0,0,3.33-7.67c-.09-.72-.55-3.39-4.33-6.33-6.18-4.81-14-4.73-16.84-4.67-25.82.58-43,4.5-43,4.5-7.12,1.63-16.79,4.07-28.16,7.67V308.11h-90.67v-11a68,68,0,0,1-16.67,12c-13.42,6.86-25.64,7.38-34.66,7.67-7.6.24-19,.61-32.34-4-19.23-6.62-31.09-19.53-36.66-26.67a148.5,148.5,0,0,1-39.34,21c-12.08,4.24-22.08,5.94-32.33,7.67-11.45,1.94-21.55,3.65-35,3.33-9.08-.21-21.61-.5-36-5.66-8.45-3-24.55-8.81-36.33-24-16.52-21.29-19.33-54.33-5-75.67a61.66,61.66,0,0,1,17.33-16.67c3.74-2.32,14.47-9,28.33-9.66a99.55,99.55,0,0,0,17-2.34,16.29,16.29,0,0,0,8.34-4c1-1,3.63-3.54,3.66-7.33,0-4.49-3.61-7.43-4.33-8-1.42-1.14-4.48-3.05-12.67-2.67-3.46.17-10.09.85-20.66,5.34a102.39,102.39,0,0,0-17.67,9.66Z"/><path class="cls-1" d="M1909.17,107l29.75,5.5q11,36.87,22,73.75l-6.5,2.75"/><path class="cls-1" d="M2375.84,19a25.58,25.58,0,0,1-8,9.5c-7.29,5.11-15.73,4.59-18.5,4.5-25.09-.88-58.89,16.4-63,18.5-21.68,11.08-34.25,27.15-39.5,34-17.33,22.62-22.16,45.07-25,59-4.93,24.2-17.46,85.66,21.5,131,20.65,24,47.68,34.11,66.5,38.5V208.45a25.59,25.59,0,0,1,4.5-11,25.93,25.93,0,0,1,12-9,24.14,24.14,0,0,1,14.5-1.5,23.82,23.82,0,0,1,13.5,9c4.37,5.74,4.86,11.68,5.5,19.5.71,8.67,1.13,13.79-1.5,19-5.78,11.43-21.2,13.26-23.5,13.5l37.5,67.5a105.48,105.48,0,0,0,28.5-12c6.88-4.19,25.55-15.88,37.5-39.5a94.42,94.42,0,0,0,9.5-32,122.73,122.73,0,0,0,7.5,25.83c4.4,10.64,11.82,28,29.33,42A80.78,80.78,0,0,0,2522,317.11c3.19.55,31.77,5,58-12.66a77.49,77.49,0,0,0,12.66-10.67v14.67l90.67.66V114.45H2595v97.33a27.28,27.28,0,0,1-1.34,15,29.87,29.87,0,0,1-5,8c-2.75,3.43-6.14,7.65-11.33,10-9.82,4.45-20.26-.44-22.67-1.67-9.53-4.85-13.29-13.41-14.66-16.66a36.93,36.93,0,0,1-2-21,34.71,34.71,0,0,1,8.33-17c2.19-2.41,8.82-9.68,18.67-10a21.42,21.42,0,0,1,6,.66q-20.51-36.66-41-73.33a81.43,81.43,0,0,0-20,4.67c-14.5,5.39-23.68,13.57-29.67,19-6.75,6.12-14.26,12.93-20,24.33-3.68,7.3-5.65,14.53-9.33,28-1.51,5.52-2.61,10.14-3.34,13.33a73.86,73.86,0,0,0-6.33-25c-9-19.8-24.41-29.94-32.33-35a92.78,92.78,0,0,0-34-13.33,99.77,99.77,0,0,0-25-.67c-7.81.58-16.22,1.21-26.34,5A76.07,76.07,0,0,0,2300,140.45a27.6,27.6,0,0,1,2-10.34c3.09-7.59,9.21-12.38,18.33-17.33,12-6.5,23-10,39-14,25.82-6.53,24.42-4.43,34-8s25.21-9.39,37.33-24c14.66-17.66,16-38.36,16-47Z"/><path class="cls-1" d="M2324.17,248.28l38.67,68.33h-25.17q-10.74-34.32-21.5-68.66Z"/><path class="cls-1" d="M2541.09,106.2l44.75,81.25,6.75-1.5q-12.12-36.88-24.25-73.75Z"/><path class="cls-1" d="M2688.67,114.45l.42,193.75h91.75V239.7l30,.25v68h92l-.17-192.84-91.66.67v59h-30.67V115.11Z"/><path class="cls-1" d="M2908.84,114.7q.12,96.62.25,193.25h91.75V235l41.75,73,108-.25-75.92-100.92,68.67-91.33H3038l-36.67,68.33v-69Z"/><path class="cls-3" d="M2495.67,504.45l34-41.67H2480l-19.34,32.67V462.78h-41.33V492A54.6,54.6,0,0,0,2405,470.78a56,56,0,0,0-22.67-12.33,58.77,58.77,0,0,0-27-.67c-5.48,1.14-15,3.24-24,11-11.16,9.64-14.31,21.83-15.33,26s-5.51,22.54,6,40c10.69,16.23,27.92,20,34.33,21.33a63.13,63.13,0,0,0,36-3l-14-22.66a16,16,0,0,1-6,2.33,16.29,16.29,0,0,1-11.33-2.33c-4.84-3.3-7.29-9.56-6.34-16h64.67v37.67h41.33V514.43L2482,551.78h48.66Q2513.18,528.11,2495.67,504.45Zm-111.16-6h-30a14.89,14.89,0,0,1,3-11.17c4.64-5.77,11.84-5.38,12.5-5.33.85.05,8.09.6,12.16,6.83A15.28,15.28,0,0,1,2384.51,498.45Z"/><path class="cls-3" d="M2384.34,523.82l20.13,21.63-8.63,5.25-13.75-23.88Z"/><path class="cls-3" d="M2516.84,491.78a46,46,0,0,0-1.83,18.5c1.46,17.39,12,38.15,30,43.67a33.86,33.86,0,0,0,12.5,1.33l-.17-51a12.6,12.6,0,0,1,3.5-8.33c4.06-4.07,9.56-3.47,10.83-3.34a15.22,15.22,0,0,1,13.17,16.84,16,16,0,0,1-4.17,8.66,19.66,19.66,0,0,1-8.16,5.67q9.24,15.59,18.5,31.17a42,42,0,0,0,12-4.34,44.39,44.39,0,0,0,15.33-14.33c6-9.09,6.95-17.79,7.67-24.33s1.56-14.23-1.67-23.17a44.8,44.8,0,0,0-12.17-17.67c-3.1-2.95-10.76-10.14-22.5-12.83-3.42-.78-7.32-.91-15.12-1.17-7.57-.24-11.68-.38-17,.59a54,54,0,0,0-15.58,5.58C2538.15,465.37,2522.57,473.8,2516.84,491.78Z"/><path class="cls-3" d="M2560.76,520.28,2573.67,558l12.34-1.67L2565.34,520Z"/><circle class="cls-3" cx="2665.34" cy="508.45" r="19.67"/><path class="cls-1" d="M2754.09,528.07l16.38,30-9.25.13q-4.95-14.44-9.88-28.88Z"/><path class="cls-4" d="M2710,451.78a66.09,66.09,0,0,1,6-30.67c2.36-5.11,8.11-17.15,20.66-25.33,8.32-5.42,11-3.49,31.67-12.33,8.24-3.52,12.4-5.3,17.33-8.34a81.1,81.1,0,0,0,24.67-24,187.6,187.6,0,0,1,4,28.34c.72,11.52,1.17,18.58-1,28-1.33,5.76-3.58,15-11,24a55,55,0,0,1-14.33,12,62.84,62.84,0,0,1-16,7c-11.6,3.11-14.39-.11-28,3-5,1.14-9.75,2.26-15,5.66a38.34,38.34,0,0,0-11.67,12l-9.33.34a57.65,57.65,0,0,1,6.66-17.34,55,55,0,0,1,20.67-20.66,71.54,71.54,0,0,1,19-6.67c5.84-1.29,8-1.08,13.67-3a64.56,64.56,0,0,0,13.33-6.33,53.11,53.11,0,0,0,9.67-7.34c7.09-7.11,9.67-16.18,10.66-22.33a66.91,66.91,0,0,1-8.33,11.33,54.33,54.33,0,0,1-13,11c-4.64,2.73-9,3.93-17.67,6.34-9.81,2.71-10.94,2.18-18.66,4.66-6.64,2.14-10.4,3.34-15,6.34a48.58,48.58,0,0,0-12.67,12.33A50.24,50.24,0,0,0,2710,451.78Z"/><path class="cls-1" d="M2708.84,467.45a104.51,104.51,0,0,0-3.75,21.75c-.72,11.19-1.7,26.36,6,40.75,10.11,18.89,29.49,25.8,35.75,27.75q.12-25.87.25-51.75a12.28,12.28,0,0,1,4.5-7.25,12.5,12.5,0,0,1,9-2.25,14.47,14.47,0,0,1,8.75,4.25c5.74,5.8,4.12,14.16,4,14.75a18,18,0,0,1-12.75,13.25l16.5,28.75a36.23,36.23,0,0,0,10.5-2.75c10.45-4.54,15.83-12.94,18.75-17.5a47.39,47.39,0,0,0,6.75-15.25,48.08,48.08,0,0,0-.25-22.25c-1.09-4.95-2.72-12.38-8.75-19.75a39.48,39.48,0,0,0-16-11.75,40.67,40.67,0,0,0-13.75-2.5c-5.39-.25-13.15-.61-21.5,3.5a36.5,36.5,0,0,0-13.25,11.25L2716.34,468Z"/><path class="cls-5" d="M2853.84,460.2a36.26,36.26,0,0,0-15.5,3,37.21,37.21,0,0,0-20.25,23c-.86,2.84-1,7.35-1.25,16.25-.44,15.85-.66,23.77.25,27.25,3.07,11.67,13.24,24.6,28.25,28.5,13.38,3.47,24.58-1.8,27-3a39.58,39.58,0,0,0,13.25-10.75V555h39.5V463.2h-37.75l-.75,53.25a20.07,20.07,0,0,1-3.25,5c-1.15,1.3-4.41,5-9,5.75-7.34,1.25-13.28-5.69-13.75-6.25-5.13-6.17-6.52-16.75-.75-23.5,4.18-4.9,10.27-5.61,12-5.75Z"/><path class="cls-5" d="M2860.42,460.2l10.59.16q5.37,14.67,10.75,29.34l-3.92,1.66Q2869.13,475.79,2860.42,460.2Z"/><path class="cls-1" d="M2930.67,462.49q.1,46.59.2,93.19H2975V522.73l14.43.12v32.71h44.25l-.08-92.75-44.09.32v28.38h-14.75v-28.7Z"/><path class="cls-1" d="M3036.56,462.61l.12,92.95h44.13V520.45q10.05,17.55,20.08,35.11l52-.12-36.51-48.54,33-43.93h-50.66l-17.64,32.87V462.65Z"/></g></svg>