<svg xmlns="http://www.w3.org/2000/svg" viewBox="0 0 657.97 143.92"><defs><style>.cls-1{fill:#046aaa;}.cls-2{fill:none;stroke:#fff;stroke-miterlimit:10;stroke-width:2px;}.cls-3{fill:#fff;}</style></defs><title>sМонтажная область 11</title><g id="Слой_8" data-name="Слой 8"><polygon class="cls-1" points="143.71 7.68 182.71 132.35 213.71 132.35 252.04 7.68 213.71 7.68 197.87 82.35 182.71 7.68 143.71 7.68"/><polygon class="cls-1" points="257.04 7.68 257.04 132.35 324.7 132.35 324.7 98.01 293.37 98.01 293.37 85.68 320.37 85.68 320.37 53.35 293.37 53.35 293.37 40.68 324.7 40.68 324.7 7.68 257.04 7.68"/><path class="cls-1" d="M507.7,7.68H468L435.37,125,403,67.35,434.37,7.68H394l-22.34,53-.66-53H337.7V132.35h34V78.68L395,132.35h77l3-15.67,26-.33,3.66,16H544Zm-27.33,79,7.67-38,7.66,38Z"/><rect class="cls-1" x="564.95" y="86.68" width="7.75" height="45.67"/><path class="cls-1" d="M582.79,96.6v36.17h8.66V111.51a11.13,11.13,0,0,1,1.42-3,10.65,10.65,0,0,1,2.83-2.83,7.26,7.26,0,0,1,2.92-1.33,7.07,7.07,0,0,1,3.33.25,8.23,8.23,0,0,1,3.59,1.83,8.63,8.63,0,0,1,2.25,3.5,11.78,11.78,0,0,1,.75,5.17v17.66h7.92V107.68a10.34,10.34,0,0,0-.76-3.5,11,11,0,0,0-4.25-5c-3-2-6-2.2-8.33-2.33a12.92,12.92,0,0,0-5.75.5c-3.94,1.45-5.81,5.08-6.42,6.41-.09-2.44-.19-4.89-.29-7.33Z"/><path class="cls-1" d="M654.45,101.89a20.33,20.33,0,0,0-14.12-5.13c-2.1.09-9.42.75-14.25,7.13A18.82,18.82,0,0,0,623,119c.21.9,2.24,9.26,10,12.63a17.43,17.43,0,0,0,9.25,1.12,22.69,22.69,0,0,0,13.63-7l-4.5-4.62a20.87,20.87,0,0,1-3.38,2.25,14.84,14.84,0,0,1-5.75,2,10.66,10.66,0,0,1-7.87-2.25c-3.36-2.85-3.47-7-3.5-8.25a11.48,11.48,0,0,1,2-7A10.31,10.31,0,0,1,637.7,104c4.11-1.48,7.94.41,9.63,1.25a16.18,16.18,0,0,1,3.42,2.3Z"/><rect class="cls-1" x="21.08" y="35.41" width="90.11" height="90.11" transform="translate(-37.53 70.33) rotate(-45)"/><rect class="cls-2" x="24.57" y="38.53" width="83.87" height="83.87" transform="translate(-37.42 70.6) rotate(-45)"/><rect class="cls-1" x="21.46" y="20.41" width="90.11" height="90.11" transform="translate(-26.81 66.2) rotate(-45)"/><rect class="cls-2" x="35.16" y="34.74" width="62.71" height="62.71" transform="translate(-27.25 66.39) rotate(-45)"/><rect class="cls-2" x="24.95" y="23.53" width="83.87" height="83.87" transform="translate(-26.7 66.47) rotate(-45)"/><rect class="cls-3" x="27.14" y="52.47" width="78.75" height="27.25"/><polygon class="cls-1" points="34.8 55.27 40.91 77.67 45.76 77.67 51.76 55.27 45.76 55.27 43.28 68.68 40.91 55.27 34.8 55.27"/><polygon class="cls-1" points="52.54 55.27 52.54 77.67 63.13 77.67 63.13 71.5 58.23 71.5 58.23 69.28 62.46 69.28 62.46 63.47 58.23 63.47 58.23 61.2 63.13 61.2 63.13 55.27 52.54 55.27"/><path class="cls-1" d="M91.78,55.27H85.57L80.46,76.35,75.4,66l4.9-10.72H74l-3.5,9.52-.1-9.52H65.17v22.4h5.32V68l3.65,9.65H86.2l.47-2.82,4.07-.06.57,2.88h6.16ZM87.5,69.46l1.2-6.83,1.2,6.83Z"/></g></svg>