  <svg xmlns="http://www.w3.org/2000/svg" viewBox="0 0 564.1 136.79"><defs><style>.cls-1{fill:#109fda;}.cls-2{fill:#2f2b28;}.cls-3{fill:#89bf40;}</style></defs><title>sМонтажная область 9</title><g id="Слой_1" data-name="Слой 1"><path class="cls-1" d="M558.85,5.3a25.44,25.44,0,0,1-5.75,2.56c-2.4.73-3.58.69-5.43,1.19a19.34,19.34,0,0,0-7.5,4.29C534.87,17.69,532.09,23,530,26c-4,5.86-7.32,6.63-19.67,15-5.57,3.77-13.58,9.49-23,17.33,1.33-.47,3.53-1.29,6.17-2.5,7.13-3.26,12.83-6.67,12.83-6.67a19.09,19.09,0,0,1,7.17-2.83c2.91-.44,3.75.25,4,.5,1.26,1.23.61,3.83.17,5.33-2.35,8-7.27,14.9-10.34,20.34A65.29,65.29,0,0,0,502,84.67c4.61-7.53,8.72-13.61,11.79-18,7.86-11.2,7.91-9.82,13.5-18.16A79.57,79.57,0,0,1,535.5,38c1.85-2,3.45-3.52,4.33-4.34C546.6,27.42,549.4,27,553,22.17a15.63,15.63,0,0,0,3-5.93c.42-1.83.2-2.68.55-4.7A18.41,18.41,0,0,1,558.85,5.3Z"/><path class="cls-1" d="M460.33,15.17c4.74-3.75,19.19-14.18,40-14.33a62.9,62.9,0,0,1,30,7.33c18.06,9.65,25.81,25.37,28.34,31.34a63.94,63.94,0,0,1,5,28.33,64.19,64.19,0,0,1-14,36,62.34,62.34,0,0,0,2.62-7.29,71.27,71.27,0,0,0,2.5-17.63c.18-5.58.38-11.77-1.37-19.62a58.15,58.15,0,0,0-8.75-20.88c-7-10.22-15.56-15.35-20.5-18.25A68.49,68.49,0,0,0,508,13.3a70.83,70.83,0,0,0-22.37-2.25A96.21,96.21,0,0,0,460.33,15.17Z"/></g><g id="Слой_6" data-name="Слой 6"><polygon class="cls-2" points="1.67 32.92 1.67 85.92 20.17 85.92 57.42 32.92 41.17 32.92 19.92 65.92 19.92 32.92 1.67 32.92"/><polygon class="cls-2" points="45.17 85.92 64.92 85.92 81.17 32.92 63.17 32.92 45.17 85.92"/><polygon class="cls-2" points="91 32.92 74 85.92 93 85.92 100 63.67 109.33 85.92 131.17 85.92 120.17 58.17 148 33.84 126.17 33.67 102.5 55.51 110.33 32.92 91 32.92"/><polygon class="cls-2" points="153.33 32.92 135.83 85.92 151.17 85.92 160.5 55.84 165.17 85.92 187.17 85.92 205.17 32.92 189.5 32.92 180.67 62.67 176.5 32.92 153.33 32.92"/><path class="cls-2" d="M224.17,32.92l-31.84,53h15.92l6.25-11.58,16.83.17V85.92h18.34l.66-53Zm7,31.59h-11.5l11.5-18Z"/><polygon class="cls-2" points="270.92 32.92 254.17 85.92 291.92 85.92 296.42 71.67 276.67 72.17 289.42 32.92 270.92 32.92"/><path class="cls-2" d="M326.92,32.92l-31.84,53H311l6.25-11.58,16.83.17V85.92h18.34l.66-53Zm7,31.59h-11.5l11.5-18Z"/><polygon class="cls-2" points="374 32.92 356.5 85.92 371.83 85.92 381.17 55.84 385.83 85.92 407.83 85.92 425.83 32.92 410.17 32.92 401.33 62.67 397.17 32.92 374 32.92"/><path class="cls-2" d="M479,49.34a19.71,19.71,0,0,0-16-16l-30-.42q-8.75,26.51-17.5,53h32.83a35.9,35.9,0,0,0,14.17-4.75A34.65,34.65,0,0,0,476.83,65C478.07,62.06,480.45,56.37,479,49.34Zm-20.22,12a18.48,18.48,0,0,1-12.61,11.82L438,72.84q4.92-13.76,9.83-27.5A10.34,10.34,0,0,1,456,46.92a9.71,9.71,0,0,1,3.25,4.63C460.78,55.58,459.49,59.29,458.78,61.35Z"/><path class="cls-3" d="M89.17,9a12,12,0,0,0-6.92-1.75,12.2,12.2,0,0,0-8.17,4c-4.37,4.9-2.72,11.4-2.58,11.91a13.61,13.61,0,0,1-4.17-4.66c-2-3.79-2.83-9.94.84-14.09C71.39.78,76.22.81,77.25.84,85,1.09,89,8.69,89.17,9Z"/><path class="cls-3" d="M425.67,103.17c1.66,1.59,31.35,29,65.25,19.5,17.83-5,29.77-18.17,32.25-21a67.3,67.3,0,0,0,13-22.25,63.47,63.47,0,0,0,3-25.75,61.75,61.75,0,0,1,3.75,21.75c-.2,17.78-8.22,30.28-11.5,35.25-3.92,5.94-10.3,15.59-22.75,21.5-10.63,5-20.17,4.75-28.25,4.5s-19.53-.6-31.75-7.75A58,58,0,0,1,425.67,103.17Z"/></g></svg>