<svg xmlns="http://www.w3.org/2000/svg" width="15" height="15" viewBox="0 0 15 15">
  <path id="_035-whatsapp" data-name="035-whatsapp" d="M7.5,0A7.529,7.529,0,0,0,0,7.5a7.45,7.45,0,0,0,1.062,3.841L0,15l3.659-1.062A7.45,7.45,0,0,0,7.5,15a7.5,7.5,0,0,0,0-15Zm4.689,10.669-.349.349a2.977,2.977,0,0,1-2.359.314,8.573,8.573,0,0,1-5.8-5.584,3.081,3.081,0,0,1,.269-2.589L4.3,2.81a.494.494,0,0,1,.7,0l1.4,1.4a.494.494,0,0,1,0,.7l-.349.349a.989.989,0,0,0,0,1.4L8.35,8.924a.986.986,0,0,0,1.4,0l.349-.349a.516.516,0,0,1,.7,0l1.4,1.4a.493.493,0,0,1,0,.7Zm0,0" fill="#2d85b8"/>
</svg>
