<svg xmlns="http://www.w3.org/2000/svg" viewBox="0 0 565.11 167.24"><defs><style>.cls-1{fill:#f7c316;}.cls-2{fill:#322a67;}</style></defs><title>sМонтажная область 13</title><g id="Слой_10" data-name="Слой 10"><path class="cls-1" d="M565.11,0V167.32c-6-.07-12-.19-18.06-.19q-270.34,0-540.71,0c-7.69,0-6.22.94-6.24-6.91C0,112.91.08,65.61.1,18.32.11,13.14.23,8,.06,2.78,0,.68.82.08,2.66.15c.66,0,1.32,0,2,0H557.79C560.23.14,562.67,0,565.11,0ZM282.7,158.36H539.92c4.62,0,9.23-.08,13.85,0,1.88,0,2.75-.51,2.63-2.54-.13-2.25,0-4.52,0-6.78q0-68.13.07-136.24c0-3.88,0-3.89-3.91-3.89H13c-4.82,0-4.07-.19-4.07,4.09q0,70.82,0,141.62c0,2.55.13,3.8,3.33,3.8Q147.45,158.29,282.7,158.36Z"/><path class="cls-2" d="M135.11,87.41c0-12.43,0-24.86,0-37.29,0-1.47.32-1.95,1.8-2.41,3.66-1.12,7.43-1.07,11.14-1.27,7.79-.43,15.58-.63,23.29,1.4C186.1,51.73,190.23,66.09,188,77,185,92.06,173.85,97.17,160.07,98.46c-.75.08-1.51.1-2.26.13-4.6.18-4.68.18-4.74,4.89-.09,7.06-.12,14.13,0,21.19,0,1.72-.4,2.29-2.18,2.24-4.42-.13-8.86-.16-13.28,0-2,.07-2.51-.49-2.5-2.48C135.16,112.09,135.11,99.75,135.11,87.41Zm17.71-15h.2c0,1.5,0,3,0,4.5.22,7.89,1.59,8.87,9.22,6.45a10.69,10.69,0,0,0,7.93-9.25c.66-4.76-.23-9-4.43-12-3.52-2.49-7.55-1.72-11.45-1.67-.95,0-.77.9-.81,1.52C153.25,65.52,153,69,152.82,72.45Z"/><path class="cls-2" d="M400.2,127.93c-13.47.62-24.74-9.11-26.45-23.47-1.39-11.71.16-22.4,9.42-30.95,7.83-7.23,23.41-7.26,30.58-3.27A25.52,25.52,0,0,1,426,85.17a39,39,0,0,1,.08,24.68C422.11,121.79,413.12,127.94,400.2,127.93Zm-8.36-31.42c-.09,4.9,0,9.75,2.55,14.21a6.77,6.77,0,0,0,6.37,3.83,6.24,6.24,0,0,0,6.05-3.9,31,31,0,0,0,.1-25.63,6.47,6.47,0,0,0-7-4.08c-3.15.27-4.8,2.28-6,4.83C392.2,89.16,392,92.82,391.84,96.51Z"/><path class="cls-2" d="M258,122.28c-1.58,1.06-3.06,2.23-4.69,3.12-10.59,5.79-25.59,2.31-27.61-12.73-1.38-10.26,4.67-19.26,15.4-22.37a75.08,75.08,0,0,1,13.28-2.41c2.33-.24,2.24-1,1.59-2.82-1.2-3.37-3.72-4.47-6.94-4.77-5.11-.47-9.89.87-14.52,2.77-1.36.55-2,.59-2.42-1-.66-2.74-1.4-5.46-2.12-8.18-.31-1.14-.15-2,1.08-2.51,9.6-3.92,19.51-5.2,29.59-2.63,8.23,2.09,12.93,9,13.94,19.19.74,7.32.37,14.67.5,22,.09,5-.18,10,.44,14.94.15,1.17.14,2-1.44,2-4.43-.08-8.85-.08-13.27-.07-1,0-1.59-.29-1.65-1.41A5.22,5.22,0,0,0,258,122.28Zm-.82-18H257c0-1.12,0-2.25,0-3.38,0-.74-.15-1.37-1-1.34-4.19.15-8.35.51-11.29,4-1.82,2.19-2,6.73-.37,9.06a5.81,5.81,0,0,0,6.17,2.48,7.26,7.26,0,0,0,6.19-6.09C256.94,107.44,257,105.83,257.15,104.24Z"/><path class="cls-2" d="M337.14,97.76c0-4.61-.07-9.23,0-13.84,0-1.49-.47-1.88-1.88-2.06-5.43-.69-5.42-.75-5.42-6.23V73.94c0-4.93,0-5,5-5.57,1.81-.2,2.49-.92,2.31-2.68a26.71,26.71,0,0,1,0-2.83c.05-5.07,0-5.14,4.76-6.51,3.56-1,7.25-1.68,10.74-2.88,2.35-.81,2.25.29,2.24,1.89,0,3.3,0,6.59.06,9.89,0,3,.78,3.62,3.84,3.47,2.25-.11,4.51,0,6.76-.12,1.16,0,1.74.23,1.71,1.53-.06,3.2-.07,6.4,0,9.6,0,1.39-.52,1.75-1.84,1.72-2.82-.06-5.65.09-8.47.07-1.42,0-2.05.51-2,2,.23,7.42-.5,14.86.42,22.28.73,5.93,2.28,7.58,8.33,7.29,2.46-.12,2.84.68,2.73,2.78-.16,3.1-.1,6.21-.11,9.32,0,.88.1,1.74-1.1,1.91-6.07.85-12.22,1.8-18.11-.54-6.76-2.68-9.23-8.54-9.77-15.24-.37-4.49-.07-9-.07-13.55Z"/><path class="cls-2" d="M532.07,120v1.7c0,5,.08,5.2-4.85,5.83s-9.77.91-14.48-1c-6.79-2.74-9.24-8.47-9.82-15.12-.78-8.91-.43-17.87-.37-26.81,0-2.12-.6-2.66-2.62-2.84-4.52-.41-4.51-.55-4.51-5.06,0-.66,0-1.32,0-2,0-1.87-.51-4.09.31-5.52s3.28-.61,5-.87c1.27-.2,1.83-.67,1.78-2a37.14,37.14,0,0,1,.1-3.95c.34-4.8.33-4.86,4.84-6.1,3.71-1,7.5-1.76,11.17-2.89,1.93-.59,2,.17,2,1.67,0,3.58.16,7.16,0,10.73-.09,2.29.76,3,3,2.8,2.43-.17,4.89,0,7.34,0,1.39,0,2,.28,2,1.86-.12,3-.1,6,0,9,0,1.5-.52,1.92-2,1.92-2.82,0-5.64.24-8.45.37-1,0-1.82.23-1.79,1.59.17,7.71-.44,15.43.26,23.13.44,4.82,2.55,6.59,7.36,6.65,3.65,0,3.65,0,3.69,3.75,0,1,0,2.07,0,3.1Z"/><path class="cls-2" d="M216.23,85c0,13-.07,26,.05,39,0,2.42-.75,3-3,2.91-4.33-.18-8.66-.11-13,0-1.59,0-2.32-.23-2.32-2.12q.11-39.66,0-79.33c0-1.49.32-2.27,2-2.24,4.7.1,9.41.16,14.11.05,2-.05,2.27.87,2.26,2.55-.05,13.08,0,26.16,0,39.24Z"/><path class="cls-2" d="M301.27,127.78a33.46,33.46,0,0,1-14.67-2.4c-1.58-.65-2.28-1.32-1.81-3.1.73-2.82,1.3-5.68,1.9-8.53.35-1.61,1-2.19,2.76-1.5a46,46,0,0,0,9.19,2.63,11.73,11.73,0,0,0,5.83-.56c1.4-.48,2.86-1,3-2.94a4.44,4.44,0,0,0-1.82-4.43,39.17,39.17,0,0,0-6.16-3.36,44.32,44.32,0,0,1-6.39-3.56c-11.54-7.91-9-22.94,1.33-29.14,7.18-4.33,15-3.86,22.84-2.25,5.64,1.15,6.24,2.51,3.85,7.79a8.47,8.47,0,0,0-.76,1.46c-1,4.91-1,5-5.83,3.5-2.53-.77-5.06-1.45-7.71-.9-1.78.36-3.47,1-3.82,3.16a4.43,4.43,0,0,0,2.27,4.76c3.3,2.1,6.93,3.57,10.3,5.58,8.19,4.87,11.38,13.4,8.16,21.62S313.69,127,305.4,127.76C303.91,127.89,302.39,127.78,301.27,127.78Z"/><path class="cls-2" d="M456.56,85q0,19.06,0,38.11c0,4.58.27,3.61-3.8,3.67-3.85.06-7.72-.13-11.57.07-2.33.12-3-.56-3-2.92.1-19.48.08-39,.09-58.44,0-6.59.06-13.18,0-19.76,0-2,.59-2.61,2.57-2.55q6.63.2,13.26,0c2-.06,2.55.64,2.54,2.59C456.52,58.88,456.56,72,456.56,85Z"/><path class="cls-2" d="M33.24,75.36c0-12.8.06-25.61,0-38.41,0-6.34,1.84-11.61,7.4-15.17a14,14,0,0,1,7.75-2.19c8.19,0,16.38,0,24.57,0a6.23,6.23,0,0,1,6.55,6.47c.1,4,0,8.1.12,12.14.08,1.88-.66,2.16-2.28,2.12-4.61-.09-9.23.08-13.84-.07-2.12-.06-2.68.59-2.68,2.7.05,24.48,0,49,0,73.44,0,2.43-.51,3.23-3.08,3.16-7.06-.2-14.12-.11-21.18-.07-2.24,0-3.28-.55-3.26-3.17.14-13.65.07-27.31.07-41Zm4-1.61h0c0,12.81.1,25.61-.07,38.42,0,2.8.87,3.5,3.48,3.4,4.32-.17,8.66-.19,13,0,2.65.14,3.27-.73,3.26-3.31-.09-24.3,0-48.59-.08-72.88,0-2.33.75-3,2.83-3,2.73,0,5.46-.12,8.19-.25s6.33,1.17,7.81-.57.39-5.4.4-8.21c0-2.49-1.12-3.73-3.79-3.77-8.47-.1-16.94-.19-25.41.09a8.44,8.44,0,0,0-4.25,1.35c-3.89,2.43-5.37,6.11-5.37,10.53Q37.21,54.69,37.22,73.75Z"/><path class="cls-2" d="M96.06,92c0,13.56-.14,27.13,0,40.69.1,7.72-6.7,15-14.71,15-8.2-.07-16.39,0-24.59-.06-4.12,0-6.56-2.36-7.05-6.51s0-8.29-.22-12.42c-.09-1.79.92-1.7,2.12-1.69,4.8,0,9.61-.13,14.41,0,2.19.08,2.63-.65,2.63-2.7,0-24.49.12-49,.07-73.46,0-2.8.82-3.46,3.5-3.38,7.06.2,14.13.17,21.19,0,2.18,0,2.65.62,2.63,2.69C96,64.1,96.05,78,96.05,92Zm-3.41,1.19h0c0-10.55,0-21.1,0-31.65,0-2.55-.2-5.09-.27-7.63,0-1.7-.67-2.49-2.56-2.45-5,.11-10,.08-15,0-1.57,0-2.2.45-2.18,2.07,0,2.92-.15,5.84-.16,8.76,0,21.95-.06,43.9,0,65.85,0,2.43-.77,3.07-3,2.92A82.7,82.7,0,0,0,61,131c-2.41.1-5.69-1.14-7,.54s-.45,4.69-.43,7.13c0,4.49.79,5.29,5.29,5.24,7.9-.08,15.82.48,23.72-.32a10.15,10.15,0,0,0,7.66-4.84c2.16-3.19,2.3-6.73,2.33-10.26C92.72,116.73,92.65,105,92.65,93.17Z"/><path class="cls-2" d="M469.12,97.49c0-8.76.05-17.52-.05-26.28,0-1.87.33-2.69,2.43-2.63,4.61.15,9.23.09,13.84,0,1.56,0,2.1.42,2.1,2.08.06,18,.3,36-.16,54,0,1.63-.29,2.33-2.16,2.26-4.61-.15-9.23-.12-13.84,0-1.76,0-2.21-.57-2.2-2.28C469.16,115.57,469.12,106.53,469.12,97.49Z"/><path class="cls-2" d="M487.68,52.12a9.37,9.37,0,0,1-9.37,9.61A9.16,9.16,0,0,1,469,52.8a9.51,9.51,0,0,1,8.94-9.8C482.77,42.9,487.6,47.39,487.68,52.12Z"/></g></svg>