<svg xmlns="http://www.w3.org/2000/svg" viewBox="0 0 1035.67 246.51"><defs><style>.cls-1{fill:#ec2426;}.cls-2{font-size:60px;fill:#fff;font-family:AGBookPro-Bold, AG Book Pro;font-weight:700;letter-spacing:0.09em;}.cls-3{letter-spacing:0.08em;}.cls-4{letter-spacing:0.05em;}.cls-5{letter-spacing:-0.02em;}.cls-6{letter-spacing:0.06em;}.cls-7{letter-spacing:0.04em;}.cls-8{letter-spacing:-0.03em;}</style></defs><title>sМонтажная область 14</title><g id="Слой_11" data-name="Слой 11"><path d="M84.24,78.71C80.33,85.78,77.13,91.52,74,97.29c-4.63,8.48-9.31,16.92-13.78,25.48-1.47,2.8-3.15,4.16-6.54,4.1q-18.75-.33-37.5,0c-3.86.07-5.23-1.32-5.65-5Q5.7,79.89.56,38c-.51-4.16.79-5.19,4.77-5.1,10.66.23,21.33.26,32,0,4.25-.11,5.83,1.09,6,5.51.71,15.79,1.82,31.55,2.89,49C48,84.82,49,83.54,49.77,82.11c7.95-14.63,16-29.23,23.71-44,1.92-3.64,4-5.49,8.44-5.27a224.26,224.26,0,0,0,23.48,0c4.71-.25,5.55,2.08,5.95,5.83,1.63,15.23,3.38,30.45,5.1,45.68a23.19,23.19,0,0,0,.92,2.89c1.29-2.39,2.16-3.87,2.91-5.4,7.21-14.82,14.5-29.6,21.52-44.51,1.59-3.39,3.55-4.52,7.27-4.44,12.13.25,24.27.09,37.18.09a39.5,39.5,0,0,1-1.46,4q-22.08,42.84-44.15,85.69c-1.44,2.81-3.06,4.24-6.48,4.18-12.49-.21-25-.19-37.49,0-3.74.05-5.23-1.15-5.71-5-1.53-12.39-3.46-24.73-5.29-37.09C85.44,83.21,85,81.69,84.24,78.71Z"/><path d="M661.28,118.64c-22,13.2-45.41,14-69.14,9.9-18.24-3.18-25.1-17.22-18.21-34.94,4.76-12.23,14.52-18.95,26.63-21C615.61,70.13,631,69.4,646.17,68c4.14-.38,8.35-.07,12.48-.5,3.1-.33,6.57-.65,9.05-2.24a9.29,9.29,0,0,0,3.83-6.81c0-1.9-2.56-4.77-4.59-5.47-9.41-3.26-19-2.86-28.37.44-1.67.59-3.79,1.57-4.49,3-2.87,5.77-7.9,5-12.86,5-9.33-.07-18.66,0-28,0-1.61,0-3.22-.18-5.45-.32,5.1-12.72,12.9-22.14,25.66-26,27-8.12,54.62-8.46,81.94-2.25,16.89,3.84,22.79,15,19.29,32.08-3.23,15.8-6.94,31.51-10,47.35-.85,4.43-.13,9.16-.13,14.49H692.23c-8.33,0-16.67-.24-25,.11-4.67.19-6.55-1.22-5.55-5.92A7.42,7.42,0,0,0,661.28,118.64Zm5.88-33.92c-12.27,1.2-24.1,2.32-35.91,3.57A22.85,22.85,0,0,0,625,89.86a9.54,9.54,0,0,0-6.17,9.87c.23,4.53,3.46,6.58,7.59,7.26,11.14,1.83,21.86.63,31.53-5.56C663.73,97.75,666.72,92.21,667.16,84.72Z"/><path d="M311.44,99.16c-4.93,9.9-12.65,16.63-22.05,21.67-10.61,5.68-22.14,8.11-34,9.18a118.35,118.35,0,0,1-39.68-2.63c-23.12-5.77-34-23-29-46.2,6.09-28.38,24.43-45.75,53.59-50.42,16.8-2.69,33.52-2.62,49.9,2.76S315,50.33,316.08,67.16c.38,5.92-.65,11.93-1,17.9-.2,3.69-1.85,5-5.72,5-25.65-.17-51.31-.09-77-.09h-5.74c-1,7.11,1.8,12.49,8.42,14.59,11.23,3.57,22.27,3.67,32.2-4.19a7.91,7.91,0,0,1,4.43-1.76c12.66-.14,25.33-.08,38-.06A6.76,6.76,0,0,1,311.44,99.16ZM231,68.09c15.38,0,29.51-.07,43.63,0,3.58,0,3.85-1.95,3.19-4.51a13.5,13.5,0,0,0-9.12-9.78,35.51,35.51,0,0,0-27.19,1.37A18.51,18.51,0,0,0,231,68.09Z"/><path d="M942.76,101.78c-1.75,8-3.23,15.37-5,22.61a4.28,4.28,0,0,1-3,2.56c-15.07,1.56-30.16,3.26-45.28.53-10.3-1.86-15.45-7.13-14.31-17.51,1.37-12.52,4.36-24.87,6.69-37.28.76-4,1.64-8.08,2.61-12.85h-19.7c1.9-8.85,3.51-16.93,5.51-24.91.23-.93,2.55-1.8,4-1.88a111.33,111.33,0,0,1,12,0c3.13.15,4.35-1.16,4.92-4.18Q893.23,17.56,896,6.41c.34-1.35,2.09-3.32,3.22-3.34,13.12-.23,26.25-.15,40.12-.15-2.06,10.09-4,19.58-6.13,29.91h103c-3,9.11-5.47,17.31-8.48,25.32-.39,1-3.39,1.55-5.18,1.55-29.31.09-58.62.19-87.93-.06-5.39,0-8,1-8.77,7-1.15,8.71-3.57,17.25-5.41,25.88-1.48,6.92.24,9.08,7.51,9.27C932.57,101.88,937.2,101.78,942.76,101.78Z"/><path d="M500.81,60.83H452c1.41-6.76,2.57-12.73,3.91-18.66,2.34-10.34,2.39-10.33,12.86-10.33h96.53c-1.82,8.4-3.24,16.05-5.26,23.53-.47,1.72-2.87,3.1-4.62,4.27q-24.69,16.56-49.46,33a4.87,4.87,0,0,0-2.1,2.73h49.43c-2.14,10.11-3.94,19.32-6.22,28.42-.24,1-3.25,1.75-5,1.76q-51,.15-102,.07c-1.42,0-2.84-.2-4.81-.34,1.58-7.69,2.89-14.85,4.65-21.91.37-1.47,2.22-2.79,3.67-3.76q26.75-17.94,53.59-35.74C498.05,63.25,498.81,62.49,500.81,60.83Z"/><path d="M435.82,68.11c-5.93-.91-11.29-2-16.7-2.48-9.77-.79-19.31.18-27.91,5.5-7.61,4.7-11.33,11.92-13.12,20.38-2.17,10.26-4.3,20.52-6.65,30.74-.29,1.25-1.8,3.16-2.77,3.18-13.29.21-26.59.14-40.52.14,1.76-8.62,3.35-16.7,5.07-24.76q6.91-32.46,14-64.87c.33-1.47,1.74-3.86,2.68-3.88,12.95-.25,25.9-.17,39.39-.17-1.14,5.75-2.15,10.87-3.49,17.62,17-16.23,35.38-23.67,58-19C441.1,43.26,438.49,55.56,435.82,68.11Z"/><path d="M797.3,0c-2.41,11.59-4.61,22.3-6.88,33-6.28,29.6-12.66,59.17-18.81,88.8-.75,3.6-2,5.1-5.82,5-11.31-.19-22.64,0-34-.07a39,39,0,0,1-4-.44c1.2-6.1,2.27-11.94,3.51-17.74q11.1-52.2,22.4-104.35c.35-1.61,2.39-4,3.69-4C770.43-.1,783.38,0,797.3,0Z"/><path d="M857.52,33c-1.62,7.79-3.09,14.87-4.58,22-4.6,21.81-9.33,43.61-13.72,65.47-.94,4.69-2.43,6.73-7.69,6.52-11.78-.46-23.58-.14-36.38-.14.84-4.57,1.48-8.55,2.31-12.49,5.38-25.57,10.85-51.12,16.17-76.71.69-3.29,2-4.75,5.61-4.68C831.69,33.11,844.14,33,857.52,33Z"/><path d="M864.53.09c-1.63,7.79-2.95,14.62-4.6,21.37a4.11,4.11,0,0,1-3.07,2.36c-12,.16-24,.11-35.93.09-1.14,0-2.27-.19-4.15-.36,1.57-7.34,3-14.41,4.68-21.44A3.25,3.25,0,0,1,823.83.18C837.1.06,850.37.09,864.53.09Z"/><path d="M1000.3,109.84a22.14,22.14,0,1,1-21.86-22.52A22.13,22.13,0,0,1,1000.3,109.84Zm-39-.5c-.09,10,7.28,17.7,16.94,17.68a17.27,17.27,0,0,0,17.07-17.21c.17-9.64-7.7-17.81-17.11-17.74S961.33,99.61,961.25,109.34Z"/><path d="M982.72,112.23l5.55,8.76-.57,1.33c-1.59-.64-3.63-.88-4.66-2-1.73-2-2.67-4.59-4.26-6.69-.78-1-2.29-1.51-3.47-2.24a14.86,14.86,0,0,0-1.76,3.61c-.3,1.61.16,3.35-.13,5-.16.86-1.22,1.56-1.87,2.33-.73-.71-2.08-1.41-2.09-2.15q-.24-10.45,0-20.93a3.09,3.09,0,0,1,2-2.22c4-.08,8.13-.48,11.84.56,2.17.61,5.15,3.8,5.06,5.68-.16,3.07-2.54,6-4,9ZM977.9,98.74c-2,2.29-3.81,3.53-4.27,5.15-.82,2.84.83,4.16,3.83,3.93,2.83-.21,6.28-.07,6.16-3.79C983.57,102.53,980.59,101.12,977.9,98.74Z"/><rect class="cls-1" x="0.45" y="158.01" width="1035.75" height="88.5"/><text class="cls-2" transform="translate(47.78 227.37)">П<tspan class="cls-3" x="48.54" y="0">Р</tspan><tspan x="92.1" y="0">ОЧНО</tspan><tspan class="cls-4" x="296.28" y="0">С</tspan><tspan x="345.36" y="0" xml:space="preserve">ТЬ   И   К</tspan><tspan class="cls-5" x="670.5" y="0">Р</tspan><tspan class="cls-4" x="708.06" y="0">А</tspan><tspan class="cls-6" x="754.62" y="0">С</tspan><tspan class="cls-7" x="804.36" y="0">О</tspan><tspan class="cls-8" x="855.24" y="0">Т</tspan><tspan x="890.88" y="0">А.</tspan></text></g></svg>