<svg xmlns="http://www.w3.org/2000/svg" width="33.049" height="35.41" viewBox="0 0 33.049 35.41">
  <g id="window_10_" data-name="window (10)" transform="translate(-17.067)">
    <g id="Сгруппировать_641" data-name="Сгруппировать 641" transform="translate(17.067)">
      <g id="Сгруппировать_640" data-name="Сгруппировать 640" transform="translate(0)">
        <path id="Контур_1516" data-name="Контур 1516" d="M49.526,31.869H47.756V3.423a1.719,1.719,0,0,0,1.18-1.652A1.739,1.739,0,0,0,47.166,0H20.018a1.776,1.776,0,0,0-1.771,1.771,1.719,1.719,0,0,0,1.18,1.652V31.869H17.657a.59.59,0,1,0,0,1.18h.59v.59a1.739,1.739,0,0,0,1.771,1.771H47.166a1.739,1.739,0,0,0,1.771-1.771v-.59h.59a.558.558,0,0,0,.59-.59A.591.591,0,0,0,49.526,31.869ZM20.018,1.18H47.166a.558.558,0,0,1,.59.59.558.558,0,0,1-.59.59H20.018a.59.59,0,0,1,0-1.18ZM44.8,17.115H34.772a.558.558,0,0,1-.59-.59V5.312a.558.558,0,0,1,.59-.59H44.8a.558.558,0,0,1,.59.59V16.525A.558.558,0,0,1,44.8,17.115Zm.59,1.771V30.1a.558.558,0,0,1-.59.59H34.772a.558.558,0,0,1-.59-.59V18.885a.558.558,0,0,1,.59-.59H44.805A.591.591,0,0,1,45.4,18.885ZM32.411,17.115H22.379a.558.558,0,0,1-.59-.59V5.312a.558.558,0,0,1,.59-.59H32.411a.591.591,0,0,1,.59.59V16.525A.558.558,0,0,1,32.411,17.115ZM33,18.885V30.1a.558.558,0,0,1-.59.59H22.379a.558.558,0,0,1-.59-.59V18.885a.558.558,0,0,1,.59-.59H32.411A.558.558,0,0,1,33,18.885ZM47.756,33.64a.558.558,0,0,1-.59.59H20.018a.558.558,0,0,1-.59-.59v-.59H47.756v.59Z" transform="translate(-17.067)" fill="#fff"/>
      </g>
    </g>
    <g id="Сгруппировать_643" data-name="Сгруппировать 643" transform="translate(35.362 19.476)">
      <g id="Сгруппировать_642" data-name="Сгруппировать 642">
        <path id="Контур_1517" data-name="Контур 1517" d="M281.6,281.6v10.033h4.721c.059-3.659.531-7.908,1.712-10.033Z" transform="translate(-281.6 -281.6)" fill="#fff"/>
      </g>
    </g>
    <g id="Сгруппировать_645" data-name="Сгруппировать 645" transform="translate(26.333 5.902)">
      <g id="Сгруппировать_644" data-name="Сгруппировать 644" transform="translate(0)">
        <path id="Контур_1518" data-name="Контур 1518" d="M153.578,85.333c-.177,2.184-1,7.613-2.538,10.033h5.489V85.333Z" transform="translate(-151.04 -85.333)" fill="#fff"/>
      </g>
    </g>
    <g id="Сгруппировать_647" data-name="Сгруппировать 647" transform="translate(25.447 19.476)">
      <g id="Сгруппировать_646" data-name="Сгруппировать 646" transform="translate(0)">
        <path id="Контур_1519" data-name="Контур 1519" d="M138.24,281.6c1.18,2.125,1.652,6.374,1.712,10.033h4.662V281.6Z" transform="translate(-138.24 -281.6)" fill="#fff"/>
      </g>
    </g>
    <g id="Сгруппировать_649" data-name="Сгруппировать 649" transform="translate(41.264 19.476)">
      <g id="Сгруппировать_648" data-name="Сгруппировать 648" transform="translate(0)">
        <path id="Контур_1520" data-name="Контур 1520" d="M368.881,281.6c-.944.826-1.889,4.662-1.948,10.033h2.951V281.6Z" transform="translate(-366.933 -281.6)" fill="#fff"/>
      </g>
    </g>
    <g id="Сгруппировать_651" data-name="Сгруппировать 651" transform="translate(22.969 5.902)">
      <g id="Сгруппировать_650" data-name="Сгруппировать 650">
        <path id="Контур_1521" data-name="Контур 1521" d="M102.4,85.333V95.366h1.771c.944,0,2.774-5.961,2.951-10.033Z" transform="translate(-102.4 -85.333)" fill="#fff"/>
      </g>
    </g>
    <g id="Сгруппировать_653" data-name="Сгруппировать 653" transform="translate(35.362 5.902)">
      <g id="Сгруппировать_652" data-name="Сгруппировать 652">
        <path id="Контур_1522" data-name="Контур 1522" d="M284.551,85.333H281.6V95.366h5.489C285.554,92.946,284.728,87.517,284.551,85.333Z" transform="translate(-281.6 -85.333)" fill="#fff"/>
      </g>
    </g>
    <g id="Сгруппировать_655" data-name="Сгруппировать 655" transform="translate(22.969 19.476)">
      <g id="Сгруппировать_654" data-name="Сгруппировать 654">
        <path id="Контур_1523" data-name="Контур 1523" d="M103.4,281.6h-1v10.033h2.951C105.292,286.262,104.348,282.426,103.4,281.6Z" transform="translate(-102.4 -281.6)" fill="#fff"/>
      </g>
    </g>
    <g id="Сгруппировать_657" data-name="Сгруппировать 657" transform="translate(39.493 5.902)">
      <g id="Сгруппировать_656" data-name="Сгруппировать 656">
        <path id="Контур_1524" data-name="Контур 1524" d="M341.333,85.333c.177,4.072,2.066,10.033,2.951,10.033h1.771V85.333Z" transform="translate(-341.333 -85.333)" fill="#fff"/>
      </g>
    </g>
  </g>
</svg>
