<svg xmlns="http://www.w3.org/2000/svg" viewBox="0 0 1587.94 707.3"><defs><style>.cls-1{fill:#0458a4;}.cls-2{fill:#fbeb22;}</style></defs><title>sМонтажная область 16</title><g id="Слой_12" data-name="Слой 12"><rect class="cls-1" x="470.22" y="0.01" width="584.97" height="497.98"/><rect class="cls-2" x="527.22" y="57.01" width="473.98" height="392.98"/><rect class="cls-1" x="266.23" y="225" width="692.97" height="55.5"/><rect class="cls-1" x="773.21" y="280.49" width="49.5" height="427.98"/><path class="cls-1" d="M147.08,512.71H16.78c-8.82,0-16,9.63-16,21.4V685.66c0,11.77,7.21,21.39,16,21.39h130.3c8.82,0,16-9.62,16-21.39V534.11C163.12,522.34,155.9,512.71,147.08,512.71ZM122.36,661.59H37.5V560.85h84.86Z"/><path class="cls-1" d="M350.65,515.39a16.19,16.19,0,0,0-9.82-4.16l-130.15,1.48V707.05h41.1V636.33l93.16.59a13.85,13.85,0,0,0,8.68-5.64,22.65,22.65,0,0,0,4.11-11v-93.6A25.27,25.27,0,0,0,350.65,515.39Zm-26.6,65.74c0,6.75-4.24,12.26-9.42,12.26H261.54c-5.18,0-9.41-5.51-9.41-12.26V566.42c0-6.74,4.23-12.25,9.41-12.25h53.09c5.18,0,9.42,5.51,9.42,12.25Z"/><polygon class="cls-1" points="400.31 512.71 400.31 707.05 536.22 707.05 536.22 661.59 438.63 661.59 438.63 627.71 495.88 627.71 495.88 586.71 438.63 587 438.4 553.13 536.22 552.83 536.22 512.71 400.31 512.71"/><polygon class="cls-1" points="578.99 512.71 578.99 707.05 614.5 707.05 614.5 598.74 699.38 707.05 734.21 707.05 734.21 512.71 696.34 512.71 696.67 623.7 610.44 512.71 578.99 512.71"/><polygon class="cls-1" points="859.86 511.78 859.86 560.59 917.35 560.59 917.35 707.02 960.11 707.02 960.11 560.59 1014.72 560.59 1014.72 511.78 859.86 511.78"/><path class="cls-1" d="M1374.68,587.61V532.53c0-11.82-6.94-21.49-15.42-21.49H1234c-8.48,0-15.42,9.67-15.42,21.49V684.78c0,11.82,6.94,21.49,15.42,21.49h125.27c8.48,0,15.42-9.67,15.42-21.49V623.43h-39.19V660.6H1253.9V559.4h81.59v28.21Z"/><polygon class="cls-1" points="1427.01 510.55 1427.01 708.47 1468.64 708.47 1468.64 635.93 1529.76 708.47 1586.17 708.47 1494.16 601.9 1586.17 509.81 1526.4 510.55 1465.96 575.93 1466.63 509.81 1427.01 510.55"/><polygon class="cls-1" points="1046.4 512.23 1046.4 706.57 1182.31 706.57 1182.31 661.11 1084.72 661.11 1084.72 627.23 1141.97 627.23 1141.97 586.22 1084.72 586.52 1084.49 552.64 1182.31 552.35 1182.31 512.23 1046.4 512.23"/></g></svg>