<?xml version="1.0" encoding="UTF-8" standalone="no"?>
<svg
   xmlns:dc="http://purl.org/dc/elements/1.1/"
   xmlns:cc="http://creativecommons.org/ns#"
   xmlns:rdf="http://www.w3.org/1999/02/22-rdf-syntax-ns#"
   xmlns:svg="http://www.w3.org/2000/svg"
   xmlns="http://www.w3.org/2000/svg"
   xmlns:sodipodi="http://sodipodi.sourceforge.net/DTD/sodipodi-0.dtd"
   xmlns:inkscape="http://www.inkscape.org/namespaces/inkscape"
   inkscape:version="1.0 (4035a4fb49, 2020-05-01)"
   sodipodi:docname="windows-sill-cristalit.svg"
   id="svg43"
   version="1.1"
   viewBox="0 0 803.79 210.25">
  <metadata
     id="metadata47">
    <rdf:RDF>
      <cc:Work
         rdf:about="">
        <dc:format>image/svg+xml</dc:format>
        <dc:type
           rdf:resource="http://purl.org/dc/dcmitype/StillImage" />
        <dc:title>sМонтажная область 18</dc:title>
      </cc:Work>
    </rdf:RDF>
  </metadata>
  <sodipodi:namedview
     inkscape:current-layer="svg43"
     inkscape:window-maximized="0"
     inkscape:window-y="0"
     inkscape:window-x="0"
     inkscape:cy="105.125"
     inkscape:cx="401.89499"
     inkscape:zoom="1.4518718"
     showgrid="false"
     id="namedview45"
     inkscape:window-height="480"
     inkscape:window-width="725"
     inkscape:pageshadow="2"
     inkscape:pageopacity="0"
     guidetolerance="10"
     gridtolerance="10"
     objecttolerance="10"
     borderopacity="1"
     bordercolor="#666666"
     pagecolor="#ffffff" />
  <defs
     id="defs4">
    <style
       id="style2">.cls-1{fill:#a262a4;}.cls-2{fill:#6c2d76;}</style>
  </defs>
  <title
     id="title6">sМонтажная область 18</title>
  <g
     data-name="Слой 14"
     id="Слой_14">
    <path
       id="path8"
       d="M84.26,188.17a.78.78,0,0,1-.86-.25c-.34-.32-.66-.66-1-1Q53,157.56,23.66,128.17c-1.69-1.69-2-1.16-.35-3.55,4-5.86,9.38-10.12,15.36-13.72a73.51,73.51,0,0,1,9.12-4.5,2.25,2.25,0,0,1,2.93.62Q67.9,124.3,85.16,141.5c6,6,12,12.08,18.09,18.06a2.43,2.43,0,0,1,.71,3.1A62,62,0,0,1,91,182.89a38.23,38.23,0,0,1-5.71,4.68C84.94,187.83,84.52,188,84.26,188.17Zm.22-13.47a49.59,49.59,0,0,0,7.36-10.5,1.14,1.14,0,0,0-.25-1.59c-.35-.31-.66-.66-1-1l-42-42a6.71,6.71,0,0,1-.7-.71c-.54-.73-1.11-.7-1.88-.28a46.65,46.65,0,0,0-8.28,5.56c-2.1,1.8-2,1.32-.18,3.18q22.74,22.76,45.5,45.52A21.43,21.43,0,0,1,84.48,174.7Z"
       class="cls-1" />
    <path
       id="path10"
       d="M49.43,103.32c-.23-.08-.54-.18-.85-.3C39.46,99.45,31.31,94.45,25,86.81c-.76-.92-1.38-2-2.11-2.91A1.2,1.2,0,0,1,23.1,82c.3-.25.57-.56.85-.84Q53.19,51.92,82.43,22.69a6,6,0,0,0,.56-.57c.66-.9,1.35-.77,2.2-.21a40.69,40.69,0,0,1,9.2,8.51A65.08,65.08,0,0,1,104,46.94a2.3,2.3,0,0,1-.6,3Q77.12,76,50.94,102.26C50.53,102.67,50.2,103.23,49.43,103.32ZM36.29,83.68A49.52,49.52,0,0,0,46,90.53a1.7,1.7,0,0,0,2.42-.39c2.4-2.49,4.88-4.91,7.33-7.36L90.94,47.6c1.38-1.38,1.37-1.39.48-3a50.34,50.34,0,0,0-5.22-7.78c-1.67-2-1.42-1.89-3.22-.09L37.63,82.08A4.87,4.87,0,0,0,36.29,83.68Z"
       class="cls-1" />
    <path
       id="path12"
       d="M635,148.2a1.92,1.92,0,0,0-1.22.76c-13.42,13.67-35.91,9.65-45.2-5.4a37,37,0,0,1-5-13.62c-1.24-7.72-1.34-15.46.94-23,3.58-11.86,11.6-19.58,22.95-24.06A57,57,0,0,1,630,79.29c5.75.13,11.5.37,17.22,1,1.21.14,1.64.51,1.6,1.74-.09,2.64,0,5.28,0,7.92v62.83c0,.56,0,1.12,0,1.68,0,1.72,0,1.75-1.69,1.76-3.28,0-6.56,0-9.83,0-1.36,0-1.83-.47-1.88-1.73C635.29,152.48,635.11,150.43,635,148.2Zm-.89-33.89q0-10.55,0-21.09c0-1.08.09-2-1.46-2.18a46.38,46.38,0,0,0-15,.58c-9.8,2.2-16,8.17-18.44,18a47.44,47.44,0,0,0-.75,16.67,27.66,27.66,0,0,0,3.2,10.47,17.17,17.17,0,0,0,10.46,8.56,20,20,0,0,0,21.17-7.7,5.22,5.22,0,0,0,.84-3.15C634.05,127.73,634.07,121,634.07,114.31Z"
       class="cls-2" />
    <path
       id="path14"
       d="M288.53,68.34a82.52,82.52,0,0,0-22.29-1.27,42.88,42.88,0,0,0-14.4,3.36A30.08,30.08,0,0,0,234,90.54a48.43,48.43,0,0,0,.1,27.69c3.78,12.78,12.45,20.52,25.31,23.64a58.73,58.73,0,0,0,17.39,1.3,90.1,90.1,0,0,0,13.64-1.57,1.73,1.73,0,0,1,.39,1.31c0,3.68,0,7.36,0,11,0,1.28-.35,1.79-1.71,2a156.75,156.75,0,0,1-22.51.92,57.82,57.82,0,0,1-17.38-3.18c-17.3-6-27.55-18.24-31.16-36a61.56,61.56,0,0,1,.66-28.75C223,73.44,233,63.26,247.66,57.49a66.2,66.2,0,0,1,26.11-4.17,111.67,111.67,0,0,1,12.92.74c1.79.25,1.82.23,1.83,2C288.54,60.09,288.53,64.08,288.53,68.34Z"
       class="cls-2" />
    <path
       id="path16"
       d="M368.61,175a22.34,22.34,0,0,0,10.14-.2,19.28,19.28,0,0,0,10.87-7,44.34,44.34,0,0,0,5.15-8.9c.51-1.08,0-1.85-.31-2.71q-6-14.9-11.95-29.79-8.72-21.67-17.42-43.35a4.34,4.34,0,0,1-.68-2.62c4.78,0,9.57,0,14.36,0,1.11,0,1.26.75,1.53,1.49L386,97.7q7.26,20.05,14.54,40.11a3.92,3.92,0,0,0,1.18,2.23c.82-2.46,1.64-4.85,2.42-7.25l16.08-49.67a6,6,0,0,0,.32-.9c.23-1.45,1.06-1.84,2.49-1.81,4,.1,8,0,12,0a2.44,2.44,0,0,1,1.54.28q-1.75,4.81-3.52,9.65-13.66,37.37-27.33,74.73a35.47,35.47,0,0,1-7.62,12.9,28.42,28.42,0,0,1-15.53,8,44,44,0,0,1-12.18.55c-1.78-.16-1.8-.17-1.81-2C368.59,181.42,368.61,178.32,368.61,175Z"
       class="cls-2" />
    <path
       id="path18"
       d="M154,95.69c-.25-.19-.48-.32-.66-.49-.35-.32-.67-.66-1-1q-22-22-44.11-44a2.78,2.78,0,0,1-.69-3.6A58.63,58.63,0,0,1,122,25.21a30.78,30.78,0,0,1,4.1-3.18c1.36-.9,1.37-.89,2.5.19l.71.71,49.59,49.59.28.28c1.36,1.4,1.56,1.11.09,2.81-6.87,8-15.12,14.18-24.11,19.51C154.77,95.32,154.41,95.49,154,95.69Zm11.9-21.3c-.36-.39-.61-.7-.89-1l-37-37-.28-.28c-1-1-1.06-1-2,.06a44,44,0,0,0-5.64,8.22c-1,1.89-1.37,1.52.42,3.31L154,81.18c.28.29.58.55.84.85.44.52.87.47,1.38.09,1.6-1.2,3.23-2.35,4.82-3.57A46.39,46.39,0,0,0,165.93,74.39Z"
       class="cls-1" />
    <path
       id="path20"
       d="M127.28,188.25c-.35-.2-.77-.4-1.15-.65a40.38,40.38,0,0,1-9.83-9.29,65.3,65.3,0,0,1-8.85-15.59,2.43,2.43,0,0,1,.57-3.12q21.27-21.12,42.44-42.34c1.22-1.22,1.24-1.22,2.82-.33a101.25,101.25,0,0,1,23.62,17.94c.27.29.55.58.82.88,1.14,1.26,1.15,1.27-.07,2.5l-49.06,49C128.22,187.63,127.93,188.11,127.28,188.25Zm-.74-13.94L163.86,137c-.21-.53-.81-.88-1.31-1.29q-3.48-2.85-7.22-5.36c-2.34-1.58-1.93-1.34-3.57.3q-15.57,15.54-31.11,31.09c-.28.28-.54.59-.85.85-.62.52-.59,1-.21,1.74A48.44,48.44,0,0,0,126.54,174.31Z"
       class="cls-1" />
    <path
       id="path22"
       d="M497.92,93c-3.46-.45-6.54-.95-9.63-1.22-6-.52-12-.66-17.89.72a13.85,13.85,0,0,0-4.84,2,6.67,6.67,0,0,0-1.19,10.23,17.94,17.94,0,0,0,4.59,3.43c3.9,2.21,8,4,12,6a79.49,79.49,0,0,1,13,7.6,18,18,0,0,1,7.25,14.48,15.92,15.92,0,0,1-5.89,13.07c-4,3.49-8.85,5.36-14,6.56a59.78,59.78,0,0,1-13.07,1.54,136,136,0,0,1-19.86-1c-.83-.11-1.58-.13-1.57-1.3,0-3.9,0-7.8,0-11.9,1.8.35,3.34.69,4.89.95a72,72,0,0,0,25.52.26,15.43,15.43,0,0,0,5.16-1.85A6.52,6.52,0,0,0,484,132.05a16,16,0,0,0-4-3c-2.64-1.51-5.44-2.69-8.2-4a120.8,120.8,0,0,1-13.66-6.94,29.94,29.94,0,0,1-6.83-5.62c-5.3-6-6.37-18,1.78-25.1,4.43-3.84,9.68-5.82,15.31-7,7.84-1.58,15.75-1.34,23.66-.72,1.59.13,3.17.41,4.76.57.77.08,1.11.41,1.1,1.22C497.9,85.28,497.92,89,497.92,93Z"
       class="cls-2" />
    <path
       id="path24"
       d="M541.43,61.73a5,5,0,0,1,.29,2.54c0,4.56,0,9.11,0,13.67,0,2.71-.15,2.5,2.41,2.5h19c2.17,0,2.1-.17,2.1,2.06,0,2.48,0,5,0,7.44,0,1.83,0,1.87-1.84,1.87-6.07,0-12.15,0-18.22,0-3.39,0-3.39,0-3.39,3.47q0,16,0,31.9a38.64,38.64,0,0,0,.73,8.1,18.44,18.44,0,0,0,1.15,3.65,10.1,10.1,0,0,0,8.89,6.33,39.37,39.37,0,0,0,11.2-.69,1.22,1.22,0,0,1,1.13.12v10.35a1.07,1.07,0,0,1-1.14,1.22c-6.22.41-12.47,1-18.61-.56-9.43-2.38-14.69-8.79-17-18a39.85,39.85,0,0,1-1.07-9.74q0-16.78,0-33.57c0-2.65.37-2.62-2.56-2.61-2.32,0-4.64,0-7,0-1,0-1.46-.31-1.41-1.37.08-1.83-.47-4,.28-5.42s3-1.53,4.63-2.21a20.92,20.92,0,0,1,3.33-1.31c2.1-.48,2.9-1.73,3.21-3.79.71-4.66,1.65-9.27,2.51-13.9.38-2.1.39-2.11,2.58-2.11Z"
       class="cls-2" />
    <path
       id="path26"
       d="M802.72,144.35c0,3.71,0,7.22,0,10.72,0,.8-.36,1.15-1.14,1.21-6.3.42-12.63,1-18.84-.62-8.92-2.32-14.08-8.37-16.48-17a42,42,0,0,1-1.36-11.16q0-16.19,0-32.39c0-.48,0-1,0-1.44,0-1.78,0-1.8-1.88-1.82-2.4,0-4.8,0-7.2,0-1.65,0-1.66,0-1.7-1.77,0-1,0-1.92,0-2.88,0-2.94-.2-2.27,2.38-3.35,2.21-.92,4.42-1.85,6.67-2.65a2.81,2.81,0,0,0,2.13-2.5c.85-5.12,1.93-10.2,2.79-15.31.23-1.35.78-1.69,2-1.66,2.63.08,5.28.08,7.91,0,1.26,0,1.64.39,1.63,1.64-.06,4.8,0,9.6,0,14.39,0,.56,0,1.12,0,1.68s.27,1,1,1c.56,0,1.12,0,1.68,0q9.48,0,19,0c1.82,0,1.84,0,1.85,1.83q0,3.84,0,7.68c0,1.82,0,1.86-1.85,1.86-6.24,0-12.48,0-18.71,0-3.37,0-2.9-.32-2.91,3,0,10.79,0,21.59,0,32.38a35.8,35.8,0,0,0,1,9.28c1.57,5.88,5.08,8.7,11.2,8.91A40.06,40.06,0,0,0,802.72,144.35Z"
       class="cls-2" />
    <path
       id="path28"
       d="M703.79,145v10.24c0,.67-.3,1-1,1.06-6.08.82-12,.31-17.51-2.5-5.38-2.73-8.48-7.36-10.26-13a47.73,47.73,0,0,1-1.8-14.45q-.06-38.49,0-77c0-.4,0-.8,0-1.2-.05-.93.41-1.25,1.3-1.25q6.12,0,12.23,0c.93,0,1.32.36,1.27,1.28,0,.64,0,1.28,0,1.92q0,38.61,0,77.22a41.72,41.72,0,0,0,.83,9c1.45,6.58,5.07,9.34,11.78,8.93C701.58,145.31,702.53,145.17,703.79,145Z"
       class="cls-2" />
    <path
       id="path30"
       d="M325,90.16a3.47,3.47,0,0,0,1.75-1.25c8-7.36,17.24-10.73,28.12-9.37,2.39.3,2.4.28,2.4,2.8,0,3.75,0,7.5,0,11.47-1.39-.23-2.6-.5-3.82-.63-6.84-.76-13.57-.67-19.87,2.67a28,28,0,0,0-7.21,5.49,5.22,5.22,0,0,0-1.48,3.86c.06,16,0,32,0,48v.95c0,2.08,0,2.1-2.11,2.11-3.68,0-7.35,0-11,0-1.23,0-1.8-.35-1.65-1.62a9.59,9.59,0,0,0,0-1.2q0-35.13,0-70.28c0-3-.37-2.69,2.64-2.71s6.23,0,9.35,0c2.11,0,2.13-.38,2.3,2.23.13,2.08.2,4.15.32,6.23A10.22,10.22,0,0,0,325,90.16Z"
       class="cls-2" />
    <path
       id="path32"
       d="M722.17,118.14V83.34c0-.64,0-1.28,0-1.92s.38-1,1.05-1H736c.69,0,1,.29,1,1,0,.48,0,1,0,1.44v70.8c0,.24,0,.48,0,.72,0,1.8,0,1.83-1.88,1.84h-10.8c-2.08,0-2.1,0-2.11-2.1v-36Z"
       class="cls-2" />
    <path
       id="path34"
       d="M87.26,191.21h37.28L105.9,209.85Z"
       class="cls-2" />
    <path
       id="path36"
       d="M19.25,86.33v36.92L.78,104.79Z"
       class="cls-2" />
    <path
       id="path38"
       d="M123.87,18.6H87.34L105.61.33Z"
       class="cls-2" />
    <path
       id="path40"
       d="M714.74,58.47h27.18c.28.64-.22.91-.53,1.22-3.89,3.92-7.8,7.81-11.69,11.72-.74.74-1.32,1.29-2.34.25C723.23,67.41,719,63.24,714.87,59,714.79,58.94,714.8,58.75,714.74,58.47Z"
       class="cls-1" />
  </g>
</svg>
