<svg xmlns="http://www.w3.org/2000/svg" viewBox="0 0 287.7 55.08"><title>sМонтажная область 17</title><g id="Слой_13" data-name="Слой 13"><path d="M34,55.08,19,32.92l-3.2,2.65V55.08H0V0H15.77V18.32L31.38,0h19L29.74,22.69l23,32.39Z"/><path d="M89.6,0c6,0,12,.62,16.24,5.46a13.6,13.6,0,0,1,3.28,9.29c0,7.18-3.2,11.32-9.92,13.51,7.18,1.63,8.36,4.52,9.45,11.55.78,5.07,1.17,10.77,3.74,15.29H95.93a43.76,43.76,0,0,1-2.11-7.57l-.55-2.88c-1.09-5.94-1.79-9.29-9.83-9.29H78.13V55.08H62.36V0ZM78.13,23.4h8.51c3.74,0,7.18-1.49,7.18-5.78s-3.59-5.78-7.26-5.78H78.13Z"/><path d="M160.94,55.08l-3-10.3H139.64l-3,10.3H120.36L140.18,0h17.48l19.59,55.1ZM148.77,13.87,143.07,33h11.32Z"/><path d="M188.73,55.08V0h43.08V12H204.26v9.21h24.59V33.07H204.26v22Z"/><path d="M256.64,55.08V12.16h-15V0h46V12.16H272.32V55.08Z"/></g></svg>