<svg id="Сгруппировать_502" data-name="Сгруппировать 502" xmlns="http://www.w3.org/2000/svg" width="31.119" height="31.015" viewBox="0 0 31.119 31.015">
  <path id="Контур_408" data-name="Контур 408" d="M4.625,43.956c.061-.03.12-.062.178-.094a.993.993,0,0,0,.1.111l3.363,3.363a1.116,1.116,0,0,1,1.177-.356l.419.125.261-.878L6.381,42.489a1.053,1.053,0,0,0-.192-.15L6.2,42.3a.946.946,0,0,1,.031-.093c.009-.023.018-.047.026-.072s.022-.05.033-.078c.019-.045.038-.094.064-.144l.07-.143.08-.141a1.882,1.882,0,0,1,.115-.186l.07-.106.065-.086a2.526,2.526,0,0,1,.16-.2l.039-.042a2.355,2.355,0,0,1,.231-.232l.069-.062c.029-.027.058-.054.089-.078L7.5,40.52a.061.061,0,0,0,.013-.01,1.673,1.673,0,0,1,.228-.143l.1-.056a1.26,1.26,0,0,1,.22-.105l.116-.049.068-.029A.554.554,0,0,1,8.32,40.1l.18-.051c.036-.009.077-.021.119-.033a1.238,1.238,0,0,1,.153-.038l.482-.071a.322.322,0,0,0,.18-.09.32.32,0,0,0-.137-.532l-.475-.135a1.8,1.8,0,0,0-.255-.05l-.117-.018-.208-.032a1.263,1.263,0,0,0-.181-.013l-.066,0c-.054,0-.094,0-.135,0a2.313,2.313,0,0,0-.4.009l-.092.007a3.01,3.01,0,0,0-.459.063l-.257.052c-.079.02-.145.04-.212.061l-.081.025a4.4,4.4,0,0,0-.532.2l-.023.01c-.146.06-.279.131-.407.2l-.106.057-.021.012-.124.076c-.111.067-.226.137-.333.216l-.178.127-.026.019-.176.14c-.047.037-.091.074-.133.11a1.584,1.584,0,0,0-.865.445l-.377.376a2.637,2.637,0,0,0-.47.69C2,41.8,1.2,42.677,0,43.872l2.672,2.671C3.588,45.626,4.739,44.546,4.625,43.956Z" transform="translate(0 -36.371)" fill="#fff"/>
  <path id="Контур_409" data-name="Контур 409" d="M361.927,64.474l1.684.326,1.714-2.164a1.312,1.312,0,0,1,1.319-.457v-.932h-2.531v2.025h-2.726Z" transform="translate(-336.348 -57.055)" fill="#fff"/>
  <path id="Контур_410" data-name="Контур 410" d="M125.187,92.211l.52-1.749h-2.268Z" transform="translate(-114.885 -84.246)" fill="#fff"/>
  <path id="Контур_411" data-name="Контур 411" d="M59.094,17.843V11.358c-.046.062-.091.125-.139.186a5.648,5.648,0,0,1-2.686,1.87h.3v4.428h-6.78l3.177-4.332a2.767,2.767,0,0,0,.16-.228A4.8,4.8,0,0,0,59,7.668a.414.414,0,0,0-.731-.175l-2.048,2.586-2.662-.515L52.443,7.089,54.492,4.5a.415.415,0,0,0-.337-.672,4.8,4.8,0,0,0-4.124,7c-.063.067-.126.137-.185.213l-4.111,4.891,1,1a2.087,2.087,0,0,1,.534.911h-.444a1.661,1.661,0,0,0-.389-.612l-5.66-5.661-.147.493.384.114a1.126,1.126,0,0,1,.759,1.4,1.131,1.131,0,0,1-.23.417,1.967,1.967,0,0,1-.071.79L40.958,16.5,42.3,17.842H39.985l1-3.365a1.463,1.463,0,0,0,0-.845.6.6,0,0,0-.1-1.108l-.888-.264,2.415-8.127.076.023.626-1.211.245-1.889L42.312.746,41.5,2.467l-.13,1.358.077.023-2.415,8.128-.925-.275a.6.6,0,0,0-.7.846,1.469,1.469,0,0,0-.483.724l-1.356,4.572H34.3V13.415h1.68l.3-1.012a1.423,1.423,0,0,1,.278-.535L33.842,9.088A11.958,11.958,0,0,1,32.53,10.7l-.765.764v6.38h-.823V26.7A5.062,5.062,0,0,0,36,31.761H54.856A5.06,5.06,0,0,0,59.917,26.7V17.843ZM39.229,14.7a.636.636,0,1,1,1.219.362l-.826,2.784H38.294Zm-2.05-.609a.636.636,0,1,1,1.219.362L37.39,17.843H36.063Z" transform="translate(-28.798 -0.746)" fill="#fff"/>
  <path id="Контур_412" data-name="Контур 412" d="M184.776,90.461l-.979,3.3,3.158,3.157h1.693l2.815-3.349a5.709,5.709,0,0,1-.282-3.1h-6.4Z" transform="translate(-171.062 -84.245)" fill="#fff"/>
</svg>
