<svg xmlns="http://www.w3.org/2000/svg" width="40.262" height="49.925" viewBox="0 0 40.262 49.925">
  <path id="worker" d="M41.626,36.431H33.355A12.92,12.92,0,0,0,39.6,28.339a4.014,4.014,0,0,0,.414-7.932V18.715h3.221a.8.8,0,0,0,.805-.805V14.689a.8.8,0,0,0-.805-.805H42.39A13.7,13.7,0,0,0,28.742,1H25.521A13.7,13.7,0,0,0,11.873,13.884h-.846a.8.8,0,0,0-.805.805V17.91a.8.8,0,0,0,.805.805h3.221v1.692a4.014,4.014,0,0,0,.414,7.932,12.923,12.923,0,0,0,6.246,8.092H12.637A5.644,5.644,0,0,0,7,42.068V50.12a.8.8,0,0,0,.805.805H46.457a.8.8,0,0,0,.805-.805V42.068A5.644,5.644,0,0,0,41.626,36.431Zm0,12.884H12.637V46.094H41.626ZM21.559,38.041a5.629,5.629,0,0,0,11.145,0h2.48v6.442h-16.1V38.041Zm9.517,0a4.026,4.026,0,0,1-7.89,0ZM17.468,44.483h-1.61V38.041h1.61Zm19.326,0V38.041H38.4v6.442Zm4.831-20.131a2.411,2.411,0,0,1-1.7,2.3,13.03,13.03,0,0,0,.093-1.491V22.085a2.412,2.412,0,0,1,1.61,2.268ZM38.443,7.523l-3.157,2.1L34.61,8.95,36.778,5.7A12.135,12.135,0,0,1,38.443,7.523Zm-9.7-4.912c.21,0,.415.021.622.031L28.082,9.052h-1.9L24.9,2.642c.207-.01.411-.031.622-.031ZM18,5.257,20.457,8.95l-.676.676L16.087,7.165A12.221,12.221,0,0,1,18,5.257ZM15.173,8.49l4.264,2.843a.805.805,0,0,0,1.016-.1l1.61-1.61a.8.8,0,0,0,.1-1.016L19.322,4.342a11.972,11.972,0,0,1,3.971-1.516l1.438,7.191a.8.8,0,0,0,.789.647h3.221a.8.8,0,0,0,.789-.647l1.438-7.191a12.023,12.023,0,0,1,4.543,1.867L32.9,8.606A.8.8,0,0,0,33,9.622l1.61,1.61a.805.805,0,0,0,1.016.1l3.691-2.461a11.99,11.99,0,0,1,1.458,5.012h-27.3A11.976,11.976,0,0,1,15.173,8.49Zm-3.342,7h30.6V17.1h-30.6Zm.805,8.858a2.412,2.412,0,0,1,1.61-2.268v3.073a13.03,13.03,0,0,0,.093,1.491,2.411,2.411,0,0,1-1.7-2.3Zm3.221.805V18.715H38.4v6.442a11.273,11.273,0,1,1-22.547,0ZM8.61,42.068a4.031,4.031,0,0,1,4.026-4.026h1.61v6.442H11.831a.8.8,0,0,0-.805.805v4.026H8.61Zm37.041,7.247H43.236V45.289a.8.8,0,0,0-.805-.805H40.015V38.041h1.61a4.031,4.031,0,0,1,4.026,4.026Z" transform="translate(-7 -1)" fill="#fff"/>
</svg>
